<svg width="970" height="292" viewBox="0 0 970 292" fill="none" xmlns="http://www.w3.org/2000/svg">
<path d="M0 8C0 3.58173 3.58172 0 8 0H962C966.418 0 970 3.58172 970 8V292H0V8Z" fill="#222222"/>
<rect x="32" y="73" width="893" height="40" rx="12" fill="#333333"/>
<circle cx="28" cy="28" r="7" fill="#343434"/>
<circle cx="52" cy="28" r="7" fill="#343434"/>
<circle cx="76" cy="28" r="7" fill="#343434"/>
<path d="M152.098 60H50V122H939V60H539.678C536.511 60 533.641 58.1311 532.361 55.2338L518.896 24.7662C517.615 21.8689 514.746 20 511.579 20H180.197C177.03 20 174.161 21.8689 172.88 24.7662L159.415 55.2338C158.135 58.1311 155.265 60 152.098 60Z" fill="#2D2D2D"/>
<path d="M102.098 56H0V123H970V56H489.678C486.511 56 483.641 54.1311 482.361 51.2338L468.896 20.7662C467.615 17.8689 464.746 16 461.579 16H130.197C127.03 16 124.161 17.8689 122.88 20.7662L109.415 51.2338C108.135 54.1311 105.265 56 102.098 56Z" fill="#343434"/>
<rect x="32" y="70" width="904" height="38" rx="12" fill="#424242"/>
<rect y="122" width="970" height="170" fill="#424242"/>
<rect y="57" width="970" height="235" fill="url(#paint0_linear)"/>
<path d="M499.47 45.7H501.93V38.95H507.9V36.61H501.93V30.55H499.47V36.61H493.5V38.95H499.47V45.7Z" fill="#3B3B3B"/>
<defs>
<linearGradient id="paint0_linear" x1="485" y1="4" x2="485" y2="265" gradientUnits="userSpaceOnUse">
<stop stop-color="#323334" stop-opacity="0"/>
<stop offset="1"/>
</linearGradient>
</defs>
</svg>
