<svg width="660" height="142" viewBox="0 0 660 142" fill="none" xmlns="http://www.w3.org/2000/svg">
<rect y="12" width="660" height="130" fill="url(#paint0_linear)"/>
<path d="M0 3.48621C0 1.56083 1.56083 0 3.48621 0H656.514C658.439 0 660 1.56083 660 3.48621V12H0V3.48621Z" fill="#CECECE"/>
<circle cx="9.2267" cy="6.40639" r="2.65737" fill="white"/>
<circle cx="17.5248" cy="6.40639" r="2.65737" fill="white"/>
<circle cx="25.8231" cy="6.40639" r="2.65737" fill="white"/>
<path d="M35.751 42.7C37.192 42.7 38.039 41.842 38.039 40.5C38.039 39.158 37.192 38.3 35.751 38.3H33.067V46H34.035V42.7H35.751ZM35.806 41.776H34.035V39.224H35.806C36.598 39.224 37.038 39.686 37.038 40.5C37.038 41.314 36.598 41.776 35.806 41.776ZM45.6529 46H46.7969L44.4979 42.304C45.4989 42.095 46.1039 41.402 46.1039 40.335C46.1039 39.037 45.2019 38.3 43.8379 38.3H41.2749V46H42.2429V42.37H43.3979L45.6529 46ZM43.8599 39.224C44.6629 39.224 45.1029 39.565 45.1029 40.335C45.1029 41.105 44.6629 41.446 43.8599 41.446H42.2429V39.224H43.8599ZM52.6359 38.212C50.7989 38.212 49.1819 39.587 49.1819 42.15C49.1819 44.713 50.7989 46.088 52.6359 46.088C54.4729 46.088 56.0899 44.713 56.0899 42.15C56.0899 39.587 54.4729 38.212 52.6359 38.212ZM52.6359 39.136C53.9999 39.136 55.0889 40.137 55.0889 42.15C55.0889 44.163 53.9999 45.164 52.6359 45.164C51.2719 45.164 50.1829 44.163 50.1829 42.15C50.1829 40.137 51.2719 39.136 52.6359 39.136ZM59.3879 38.3V46L60.3559 46V42.447H63.2049V41.523H60.3559V39.224H63.8649V38.3H59.3879ZM67.0265 38.3V46H67.9945V38.3H67.0265ZM71.6895 38.3V46H76.1555V45.076H72.6575V38.3H71.6895ZM79.2958 38.3V46H83.8278V45.076H80.2638V42.359H83.0578V41.435H80.2638V39.224H83.7178V38.3H79.2958ZM114.196 38.3L112.634 44.57L110.995 39.114H110.115L108.476 44.57L106.914 38.3H105.891L107.948 46H108.96L110.555 40.709L112.15 46H113.162L115.219 38.3H114.196ZM121.298 38.212C119.461 38.212 117.844 39.587 117.844 42.15C117.844 44.713 119.461 46.088 121.298 46.088C123.135 46.088 124.752 44.713 124.752 42.15C124.752 39.587 123.135 38.212 121.298 38.212ZM121.298 39.136C122.662 39.136 123.751 40.137 123.751 42.15C123.751 44.163 122.662 45.164 121.298 45.164C119.934 45.164 118.845 44.163 118.845 42.15C118.845 40.137 119.934 39.136 121.298 39.136ZM132.428 46H133.572L131.273 42.304C132.274 42.095 132.879 41.402 132.879 40.335C132.879 39.037 131.977 38.3 130.613 38.3H128.05V46H129.018V42.37H130.173L132.428 46ZM130.635 39.224C131.438 39.224 131.878 39.565 131.878 40.335C131.878 41.105 131.438 41.446 130.635 41.446H129.018V39.224H130.635ZM141.775 46L138.387 41.754L141.511 38.3H140.279L137.408 41.391V38.3H136.44V46H137.408V42.117L140.543 46H141.775ZM164.127 38.3V46H166.866C168.362 46 169.264 45.142 169.264 43.712C169.264 42.755 168.758 42.084 168.021 41.787C168.505 41.523 168.89 40.962 168.89 40.28C168.89 39.015 168.054 38.3 166.723 38.3H164.127ZM165.095 42.359H166.723C167.746 42.359 168.263 42.777 168.263 43.712C168.263 44.658 167.746 45.076 166.723 45.076H165.095V42.359ZM166.668 39.224C167.383 39.224 167.889 39.587 167.889 40.335C167.889 41.083 167.383 41.435 166.668 41.435H165.095V39.224H166.668ZM172.636 38.3V46H177.102V45.076H173.604V38.3H172.636ZM183.019 38.212C181.182 38.212 179.565 39.587 179.565 42.15C179.565 44.713 181.182 46.088 183.019 46.088C184.856 46.088 186.473 44.713 186.473 42.15C186.473 39.587 184.856 38.212 183.019 38.212ZM183.019 39.136C184.383 39.136 185.472 40.137 185.472 42.15C185.472 44.163 184.383 45.164 183.019 45.164C181.655 45.164 180.566 44.163 180.566 42.15C180.566 40.137 181.655 39.136 183.019 39.136ZM193.43 43.041H195.091C195.003 44.273 194.299 45.164 192.968 45.164C191.549 45.164 190.493 44.141 190.493 42.15C190.493 40.159 191.549 39.136 192.968 39.136C193.991 39.136 194.706 39.741 195.058 40.819L195.993 40.544C195.652 39.147 194.585 38.212 192.968 38.212C191.175 38.212 189.492 39.477 189.492 42.15C189.492 44.823 191.175 46.088 192.924 46.088C193.969 46.088 194.728 45.582 195.091 44.944L195.19 46H196.015V42.117H193.43V43.041ZM224.023 43.481C223.671 44.559 222.956 45.164 221.944 45.164C220.525 45.164 219.469 44.141 219.469 42.15C219.469 40.159 220.525 39.136 221.944 39.136C222.956 39.136 223.671 39.741 224.023 40.819L224.958 40.544C224.617 39.191 223.55 38.212 221.944 38.212C220.151 38.212 218.468 39.521 218.468 42.15C218.468 44.779 220.151 46.088 221.944 46.088C223.55 46.088 224.617 45.109 224.958 43.756L224.023 43.481ZM231.494 38.212C229.657 38.212 228.04 39.587 228.04 42.15C228.04 44.713 229.657 46.088 231.494 46.088C233.331 46.088 234.948 44.713 234.948 42.15C234.948 39.587 233.331 38.212 231.494 38.212ZM231.494 39.136C232.858 39.136 233.947 40.137 233.947 42.15C233.947 44.163 232.858 45.164 231.494 45.164C230.13 45.164 229.041 44.163 229.041 42.15C229.041 40.137 230.13 39.136 231.494 39.136ZM242.855 38.3V44.317L239.379 38.3H238.246V46H239.214V40.005L242.69 46H243.823V38.3H242.855ZM246.927 39.224H249.149V46H250.117V39.224H252.339V38.3H246.927V39.224ZM256.443 38.3L253.781 46H254.749L255.431 43.943H258.379L259.061 46H260.029L257.367 38.3H256.443ZM256.905 39.554L258.071 43.019H255.739L256.905 39.554ZM268.049 43.481C267.697 44.559 266.982 45.164 265.97 45.164C264.551 45.164 263.495 44.141 263.495 42.15C263.495 40.159 264.551 39.136 265.97 39.136C266.982 39.136 267.697 39.741 268.049 40.819L268.984 40.544C268.643 39.191 267.576 38.212 265.97 38.212C264.177 38.212 262.494 39.521 262.494 42.15C262.494 44.779 264.177 46.088 265.97 46.088C267.576 46.088 268.643 45.109 268.984 43.756L268.049 43.481ZM271.647 39.224L273.869 39.224V46H274.837V39.224H277.059V38.3L271.647 38.3V39.224Z" fill="black"/>
<path d="M553.134 36.7124C552.987 35.9391 552.361 34.6872 550.558 34.6872C549.196 34.6872 548.312 35.5709 548.312 36.4915C548.312 37.2648 548.828 37.8908 549.858 38.1117L551.846 38.4799C554.422 38.9954 555.821 40.6893 555.821 42.6777C555.821 44.8871 553.98 47.0965 550.668 47.0965C546.877 47.0965 545.221 44.6662 545 42.6409L547.576 41.9413C547.687 43.3406 548.68 44.6294 550.705 44.6294C552.177 44.6294 553.023 43.8929 553.023 42.8987C553.023 42.0886 552.398 41.4258 551.294 41.2048L549.306 40.7998C547.024 40.3211 545.552 38.8481 545.552 36.7124C545.552 34.1716 547.797 32.2568 550.521 32.2568C553.98 32.2568 555.305 34.3557 555.637 35.9391L553.134 36.7124Z" fill="black"/>
<path d="M566.235 43.9674C565.719 45.6612 564.174 47.0973 561.745 47.0973C559.021 47.0973 556.629 45.1457 556.629 41.7948C556.629 38.628 558.947 36.6028 561.487 36.6028C564.542 36.6028 566.382 38.5544 566.382 41.7212C566.382 42.0894 566.345 42.4945 566.345 42.5313H559.279C559.352 43.8201 560.456 44.7775 561.781 44.7775C563.033 44.7775 563.695 44.1515 564.026 43.2677L566.235 43.9674ZM563.769 40.727C563.732 39.7327 563.069 38.7753 561.561 38.7753C560.162 38.7753 559.426 39.8064 559.352 40.727H563.769Z" fill="black"/>
<path d="M567.34 46.8028V36.8974H569.88V38.1126C570.432 37.1552 571.683 36.6396 572.787 36.6396C574.149 36.6396 575.217 37.2288 575.732 38.2967C576.505 37.0815 577.572 36.6396 578.86 36.6396C580.7 36.6396 582.43 37.7443 582.43 40.3956V46.8028H579.854V40.9111C579.854 39.8432 579.339 39.0331 578.124 39.0331C576.983 39.0331 576.284 39.9169 576.284 40.9848V46.766H573.634V40.9111C573.634 39.8432 573.082 39.0331 571.904 39.0331C570.726 39.0331 570.064 39.8801 570.064 40.9848V46.766H567.34V46.8028Z" fill="black"/>
<path d="M583.533 50.6327V36.8977H586.11V38.1129C586.551 37.3396 587.656 36.6768 589.128 36.6768C592.035 36.6768 593.692 38.8861 593.692 41.832C593.692 44.8146 591.815 47.024 589.017 47.024C587.656 47.024 586.662 46.4717 586.147 45.8089V50.5958H583.533V50.6327ZM588.649 39.0703C587.288 39.0703 586.183 40.1013 586.183 41.832C586.183 43.5627 587.288 44.6305 588.649 44.6305C590.011 44.6305 591.115 43.5995 591.115 41.832C591.078 40.1013 590.011 39.0703 588.649 39.0703Z" fill="black"/>
<path d="M597.483 32.2576H594.797V46.8026H597.483V32.2576Z" fill="black"/>
<path d="M600.17 32C601.09 32 601.826 32.7365 601.826 33.657C601.826 34.5408 601.09 35.2772 600.17 35.2772C599.249 35.2772 598.513 34.5408 598.513 33.657C598.513 32.7365 599.249 32 600.17 32ZM598.845 36.8975H601.531V46.8028H598.845V36.8975Z" fill="black"/>
<path d="M605.469 41.8688C605.469 43.6731 606.647 44.6673 608.009 44.6673C609.371 44.6673 610.07 43.7468 610.291 43.0103L612.646 43.7836C612.205 45.4406 610.659 47.1345 608.009 47.1345C605.101 47.1345 602.819 44.9251 602.819 41.9056C602.819 38.8493 605.064 36.6768 607.935 36.6768C610.622 36.6768 612.168 38.3338 612.573 40.0276L610.18 40.8378C609.923 40.0276 609.334 39.1807 607.972 39.1807C606.61 39.0703 605.469 40.0645 605.469 41.8688Z" fill="black"/>
<path d="M622.841 43.9674C622.326 45.6612 620.78 47.0973 618.351 47.0973C615.627 47.0973 613.235 45.1457 613.235 41.7948C613.235 38.628 615.553 36.6028 618.093 36.6028C621.148 36.6028 622.988 38.5544 622.988 41.7212C622.988 42.0894 622.951 42.4945 622.951 42.5313H615.885C615.958 43.8201 617.062 44.7775 618.387 44.7775C619.639 44.7775 620.301 44.1515 620.633 43.2677L622.841 43.9674ZM620.338 40.727C620.301 39.7327 619.639 38.7753 618.13 38.7753C616.731 38.7753 615.995 39.8064 615.921 40.727H620.338Z" fill="black"/>
<path d="M624.277 33.8043V37.0816H623.504V33.8043H622.253V33.0679H625.565V33.8043H624.277Z" fill="black"/>
<path d="M629.797 37.0816V34.2462L628.656 37.0816H627.994L626.853 34.283V37.0816H626.117V33.0679H627.11L628.325 35.9769L629.503 33.0679H630.57V37.0816H629.797Z" fill="black"/>
<defs>
<linearGradient id="paint0_linear" x1="330" y1="12" x2="330" y2="127.064" gradientUnits="userSpaceOnUse">
<stop offset="0.166667" stop-color="white"/>
<stop offset="1" stop-color="#F6F6F6"/>
</linearGradient>
</defs>
</svg>
