<svg width="660" height="142" viewBox="0 0 660 142" fill="none" xmlns="http://www.w3.org/2000/svg">
<rect y="12" width="660" height="130" fill="url(#paint0_linear)"/>
<path d="M0 3.48621C0 1.56083 1.56083 0 3.48621 0H656.514C658.439 0 660 1.56083 660 3.48621V12H0V3.48621Z" fill="#CECECE"/>
<circle cx="9.2267" cy="6.40639" r="2.65737" fill="white"/>
<circle cx="17.5248" cy="6.40639" r="2.65737" fill="white"/>
<circle cx="25.8231" cy="6.40639" r="2.65737" fill="white"/>
<path d="M211.136 65.7C212.577 65.7 213.424 64.842 213.424 63.5C213.424 62.158 212.577 61.3 211.136 61.3H208.452V69H209.42V65.7H211.136ZM211.191 64.776H209.42V62.224H211.191C211.983 62.224 212.423 62.686 212.423 63.5C212.423 64.314 211.983 64.776 211.191 64.776ZM221.038 69H222.182L219.883 65.304C220.884 65.095 221.489 64.402 221.489 63.335C221.489 62.037 220.587 61.3 219.223 61.3H216.66V69L217.628 69V65.37H218.783L221.038 69ZM219.245 62.224C220.048 62.224 220.488 62.565 220.488 63.335C220.488 64.105 220.048 64.446 219.245 64.446H217.628V62.224H219.245ZM228.021 61.212C226.184 61.212 224.567 62.587 224.567 65.15C224.567 67.713 226.184 69.088 228.021 69.088C229.858 69.088 231.475 67.713 231.475 65.15C231.475 62.587 229.858 61.212 228.021 61.212ZM228.021 62.136C229.385 62.136 230.474 63.137 230.474 65.15C230.474 67.163 229.385 68.164 228.021 68.164C226.657 68.164 225.568 67.163 225.568 65.15C225.568 63.137 226.657 62.136 228.021 62.136ZM234.773 61.3V69H235.741V65.447H238.59V64.523H235.741V62.224H239.25V61.3H234.773ZM242.412 61.3V69H243.38V61.3H242.412ZM247.075 61.3V69H251.541V68.076H248.043V61.3H247.075ZM254.681 61.3V69H259.213V68.076H255.649V65.359H258.443V64.435H255.649V62.224H259.103V61.3H254.681ZM289.581 61.3L288.019 67.57L286.38 62.114H285.5L283.861 67.57L282.299 61.3H281.276L283.333 69H284.345L285.94 63.709L287.535 69H288.547L290.604 61.3H289.581ZM296.683 61.212C294.846 61.212 293.229 62.587 293.229 65.15C293.229 67.713 294.846 69.088 296.683 69.088C298.52 69.088 300.137 67.713 300.137 65.15C300.137 62.587 298.52 61.212 296.683 61.212ZM296.683 62.136C298.047 62.136 299.136 63.137 299.136 65.15C299.136 67.163 298.047 68.164 296.683 68.164C295.319 68.164 294.23 67.163 294.23 65.15C294.23 63.137 295.319 62.136 296.683 62.136ZM307.813 69H308.957L306.658 65.304C307.659 65.095 308.264 64.402 308.264 63.335C308.264 62.037 307.362 61.3 305.998 61.3H303.435V69H304.403V65.37H305.558L307.813 69ZM306.02 62.224C306.823 62.224 307.263 62.565 307.263 63.335C307.263 64.105 306.823 64.446 306.02 64.446H304.403V62.224H306.02ZM317.161 69L313.773 64.754L316.897 61.3H315.665L312.794 64.391V61.3H311.826V69H312.794V65.117L315.929 69H317.161ZM339.512 61.3V69H342.251C343.747 69 344.649 68.142 344.649 66.712C344.649 65.755 344.143 65.084 343.406 64.787C343.89 64.523 344.275 63.962 344.275 63.28C344.275 62.015 343.439 61.3 342.108 61.3H339.512ZM340.48 65.359H342.108C343.131 65.359 343.648 65.777 343.648 66.712C343.648 67.658 343.131 68.076 342.108 68.076H340.48V65.359ZM342.053 62.224C342.768 62.224 343.274 62.587 343.274 63.335C343.274 64.083 342.768 64.435 342.053 64.435H340.48V62.224H342.053ZM348.021 61.3V69H352.487V68.076H348.989V61.3H348.021ZM358.405 61.212C356.568 61.212 354.951 62.587 354.951 65.15C354.951 67.713 356.568 69.088 358.405 69.088C360.242 69.088 361.859 67.713 361.859 65.15C361.859 62.587 360.242 61.212 358.405 61.212ZM358.405 62.136C359.769 62.136 360.858 63.137 360.858 65.15C360.858 67.163 359.769 68.164 358.405 68.164C357.041 68.164 355.952 67.163 355.952 65.15C355.952 63.137 357.041 62.136 358.405 62.136ZM368.815 66.041H370.476C370.388 67.273 369.684 68.164 368.353 68.164C366.934 68.164 365.878 67.141 365.878 65.15C365.878 63.159 366.934 62.136 368.353 62.136C369.376 62.136 370.091 62.741 370.443 63.819L371.378 63.544C371.037 62.147 369.97 61.212 368.353 61.212C366.56 61.212 364.877 62.477 364.877 65.15C364.877 67.823 366.56 69.088 368.309 69.088C369.354 69.088 370.113 68.582 370.476 67.944L370.575 69H371.4V65.117H368.815V66.041ZM399.408 66.481C399.056 67.559 398.341 68.164 397.329 68.164C395.91 68.164 394.854 67.141 394.854 65.15C394.854 63.159 395.91 62.136 397.329 62.136C398.341 62.136 399.056 62.741 399.408 63.819L400.343 63.544C400.002 62.191 398.935 61.212 397.329 61.212C395.536 61.212 393.853 62.521 393.853 65.15C393.853 67.779 395.536 69.088 397.329 69.088C398.935 69.088 400.002 68.109 400.343 66.756L399.408 66.481ZM406.879 61.212C405.042 61.212 403.425 62.587 403.425 65.15C403.425 67.713 405.042 69.088 406.879 69.088C408.716 69.088 410.333 67.713 410.333 65.15C410.333 62.587 408.716 61.212 406.879 61.212ZM406.879 62.136C408.243 62.136 409.332 63.137 409.332 65.15C409.332 67.163 408.243 68.164 406.879 68.164C405.515 68.164 404.426 67.163 404.426 65.15C404.426 63.137 405.515 62.136 406.879 62.136ZM418.24 61.3V67.317L414.764 61.3H413.631V69H414.599V63.005L418.075 69H419.208V61.3H418.24ZM422.312 62.224H424.534V69H425.502V62.224H427.724V61.3H422.312V62.224ZM431.828 61.3L429.166 69H430.134L430.816 66.943H433.764L434.446 69H435.414L432.752 61.3H431.828ZM432.29 62.554L433.456 66.019H431.124L432.29 62.554ZM443.434 66.481C443.082 67.559 442.367 68.164 441.355 68.164C439.936 68.164 438.88 67.141 438.88 65.15C438.88 63.159 439.936 62.136 441.355 62.136C442.367 62.136 443.082 62.741 443.434 63.819L444.369 63.544C444.028 62.191 442.961 61.212 441.355 61.212C439.562 61.212 437.879 62.521 437.879 65.15C437.879 67.779 439.562 69.088 441.355 69.088C442.961 69.088 444.028 68.109 444.369 66.756L443.434 66.481ZM447.033 62.224H449.255V69H450.223V62.224H452.445V61.3H447.033V62.224Z" fill="black"/>
<path d="M295.134 36.7124C294.987 35.9391 294.361 34.6872 292.558 34.6872C291.196 34.6872 290.312 35.5709 290.312 36.4915C290.312 37.2648 290.828 37.8908 291.858 38.1117L293.846 38.4799C296.422 38.9954 297.821 40.6893 297.821 42.6777C297.821 44.8871 295.98 47.0965 292.668 47.0965C288.877 47.0965 287.221 44.6662 287 42.6409L289.576 41.9413C289.687 43.3406 290.68 44.6294 292.705 44.6294C294.177 44.6294 295.023 43.8929 295.023 42.8987C295.023 42.0886 294.398 41.4258 293.294 41.2048L291.306 40.7998C289.024 40.3211 287.552 38.8481 287.552 36.7124C287.552 34.1716 289.797 32.2568 292.521 32.2568C295.98 32.2568 297.305 34.3557 297.637 35.9391L295.134 36.7124Z" fill="black"/>
<path d="M308.235 43.9674C307.719 45.6612 306.174 47.0973 303.745 47.0973C301.021 47.0973 298.629 45.1457 298.629 41.7948C298.629 38.628 300.947 36.6028 303.487 36.6028C306.542 36.6028 308.382 38.5544 308.382 41.7212C308.382 42.0894 308.345 42.4945 308.345 42.5313H301.279C301.352 43.8201 302.456 44.7775 303.781 44.7775C305.033 44.7775 305.695 44.1515 306.026 43.2677L308.235 43.9674ZM305.769 40.727C305.732 39.7327 305.069 38.7753 303.561 38.7753C302.162 38.7753 301.426 39.8064 301.352 40.727H305.769Z" fill="black"/>
<path d="M309.34 46.8028V36.8974H311.88V38.1126C312.432 37.1552 313.683 36.6396 314.787 36.6396C316.149 36.6396 317.217 37.2288 317.732 38.2967C318.505 37.0815 319.572 36.6396 320.86 36.6396C322.7 36.6396 324.43 37.7443 324.43 40.3956V46.8028H321.854V40.9111C321.854 39.8432 321.339 39.0331 320.124 39.0331C318.983 39.0331 318.284 39.9169 318.284 40.9848V46.766H315.634V40.9111C315.634 39.8432 315.082 39.0331 313.904 39.0331C312.726 39.0331 312.064 39.8801 312.064 40.9848V46.766H309.34V46.8028Z" fill="black"/>
<path d="M325.533 50.6327V36.8977H328.11V38.1129C328.551 37.3396 329.656 36.6768 331.128 36.6768C334.035 36.6768 335.692 38.8861 335.692 41.832C335.692 44.8146 333.815 47.024 331.017 47.024C329.656 47.024 328.662 46.4717 328.147 45.8089V50.5958H325.533V50.6327ZM330.649 39.0703C329.288 39.0703 328.183 40.1013 328.183 41.832C328.183 43.5627 329.288 44.6305 330.649 44.6305C332.011 44.6305 333.115 43.5995 333.115 41.832C333.078 40.1013 332.011 39.0703 330.649 39.0703Z" fill="black"/>
<path d="M339.483 32.2576H336.797V46.8026H339.483V32.2576Z" fill="black"/>
<path d="M342.17 32C343.09 32 343.826 32.7365 343.826 33.657C343.826 34.5408 343.09 35.2772 342.17 35.2772C341.249 35.2772 340.513 34.5408 340.513 33.657C340.513 32.7365 341.249 32 342.17 32ZM340.845 36.8975H343.531V46.8028H340.845V36.8975Z" fill="black"/>
<path d="M347.469 41.8688C347.469 43.6731 348.647 44.6673 350.009 44.6673C351.371 44.6673 352.07 43.7468 352.291 43.0103L354.646 43.7836C354.205 45.4406 352.659 47.1345 350.009 47.1345C347.101 47.1345 344.819 44.9251 344.819 41.9056C344.819 38.8493 347.064 36.6768 349.935 36.6768C352.622 36.6768 354.168 38.3338 354.573 40.0276L352.18 40.8378C351.923 40.0276 351.334 39.1807 349.972 39.1807C348.61 39.0703 347.469 40.0645 347.469 41.8688Z" fill="black"/>
<path d="M364.841 43.9674C364.326 45.6612 362.78 47.0973 360.351 47.0973C357.627 47.0973 355.235 45.1457 355.235 41.7948C355.235 38.628 357.553 36.6028 360.093 36.6028C363.148 36.6028 364.988 38.5544 364.988 41.7212C364.988 42.0894 364.951 42.4945 364.951 42.5313H357.885C357.958 43.8201 359.062 44.7775 360.387 44.7775C361.639 44.7775 362.301 44.1515 362.633 43.2677L364.841 43.9674ZM362.338 40.727C362.301 39.7327 361.639 38.7753 360.13 38.7753C358.731 38.7753 357.995 39.8064 357.921 40.727H362.338Z" fill="black"/>
<path d="M366.277 33.8043V37.0816H365.504V33.8043H364.253V33.0679H367.565V33.8043H366.277Z" fill="black"/>
<path d="M371.797 37.0816V34.2462L370.656 37.0816H369.994L368.853 34.283V37.0816H368.117V33.0679H369.11L370.325 35.9769L371.503 33.0679H372.57V37.0816H371.797Z" fill="black"/>
<defs>
<linearGradient id="paint0_linear" x1="330" y1="12" x2="330" y2="127.064" gradientUnits="userSpaceOnUse">
<stop offset="0.166667" stop-color="white"/>
<stop offset="1" stop-color="#F6F6F6"/>
</linearGradient>
</defs>
</svg>
