<svg width="660" height="142" viewBox="0 0 660 142" fill="none" xmlns="http://www.w3.org/2000/svg">
<path d="M0 12H660V141.308C660 141.69 659.69 142 659.308 142H0.69221C0.309913 142 0 141.69 0 141.308V12Z" fill="url(#paint0_linear)"/>
<path d="M0 3.48621C0 1.56083 1.56083 0 3.48621 0H656.514C658.439 0 660 1.56083 660 3.48621V12H0V3.48621Z" fill="#5C5C5C"/>
<circle cx="9.2267" cy="6.40639" r="2.65737" fill="#232323"/>
<circle cx="17.5248" cy="6.40639" r="2.65737" fill="#232323"/>
<circle cx="25.8231" cy="6.40639" r="2.65737" fill="#232323"/>
<path d="M157.751 42.7C159.192 42.7 160.039 41.842 160.039 40.5C160.039 39.158 159.192 38.3 157.751 38.3H155.067V46H156.035V42.7H157.751ZM157.806 41.776H156.035V39.224H157.806C158.598 39.224 159.038 39.686 159.038 40.5C159.038 41.314 158.598 41.776 157.806 41.776ZM167.653 46H168.797L166.498 42.304C167.499 42.095 168.104 41.402 168.104 40.335C168.104 39.037 167.202 38.3 165.838 38.3H163.275V46H164.243V42.37H165.398L167.653 46ZM165.86 39.224C166.663 39.224 167.103 39.565 167.103 40.335C167.103 41.105 166.663 41.446 165.86 41.446H164.243V39.224H165.86ZM174.636 38.212C172.799 38.212 171.182 39.587 171.182 42.15C171.182 44.713 172.799 46.088 174.636 46.088C176.473 46.088 178.09 44.713 178.09 42.15C178.09 39.587 176.473 38.212 174.636 38.212ZM174.636 39.136C176 39.136 177.089 40.137 177.089 42.15C177.089 44.163 176 45.164 174.636 45.164C173.272 45.164 172.183 44.163 172.183 42.15C172.183 40.137 173.272 39.136 174.636 39.136ZM181.388 38.3V46L182.356 46V42.447H185.205V41.523H182.356V39.224H185.865V38.3H181.388ZM189.026 38.3V46H189.994V38.3H189.026ZM193.689 38.3V46H198.155V45.076H194.657V38.3H193.689ZM201.296 38.3V46H205.828V45.076H202.264V42.359H205.058V41.435H202.264V39.224H205.718V38.3H201.296ZM236.196 38.3L234.634 44.57L232.995 39.114H232.115L230.476 44.57L228.914 38.3H227.891L229.948 46H230.96L232.555 40.709L234.15 46H235.162L237.219 38.3H236.196ZM243.298 38.212C241.461 38.212 239.844 39.587 239.844 42.15C239.844 44.713 241.461 46.088 243.298 46.088C245.135 46.088 246.752 44.713 246.752 42.15C246.752 39.587 245.135 38.212 243.298 38.212ZM243.298 39.136C244.662 39.136 245.751 40.137 245.751 42.15C245.751 44.163 244.662 45.164 243.298 45.164C241.934 45.164 240.845 44.163 240.845 42.15C240.845 40.137 241.934 39.136 243.298 39.136ZM254.428 46H255.572L253.273 42.304C254.274 42.095 254.879 41.402 254.879 40.335C254.879 39.037 253.977 38.3 252.613 38.3H250.05V46H251.018V42.37H252.173L254.428 46ZM252.635 39.224C253.438 39.224 253.878 39.565 253.878 40.335C253.878 41.105 253.438 41.446 252.635 41.446H251.018V39.224H252.635ZM263.775 46L260.387 41.754L263.511 38.3H262.279L259.408 41.391V38.3H258.44V46H259.408V42.117L262.543 46H263.775ZM286.127 38.3V46H288.866C290.362 46 291.264 45.142 291.264 43.712C291.264 42.755 290.758 42.084 290.021 41.787C290.505 41.523 290.89 40.962 290.89 40.28C290.89 39.015 290.054 38.3 288.723 38.3H286.127ZM287.095 42.359H288.723C289.746 42.359 290.263 42.777 290.263 43.712C290.263 44.658 289.746 45.076 288.723 45.076H287.095V42.359ZM288.668 39.224C289.383 39.224 289.889 39.587 289.889 40.335C289.889 41.083 289.383 41.435 288.668 41.435H287.095V39.224H288.668ZM294.636 38.3V46H299.102V45.076H295.604V38.3H294.636ZM305.019 38.212C303.182 38.212 301.565 39.587 301.565 42.15C301.565 44.713 303.182 46.088 305.019 46.088C306.856 46.088 308.473 44.713 308.473 42.15C308.473 39.587 306.856 38.212 305.019 38.212ZM305.019 39.136C306.383 39.136 307.472 40.137 307.472 42.15C307.472 44.163 306.383 45.164 305.019 45.164C303.655 45.164 302.566 44.163 302.566 42.15C302.566 40.137 303.655 39.136 305.019 39.136ZM315.43 43.041H317.091C317.003 44.273 316.299 45.164 314.968 45.164C313.549 45.164 312.493 44.141 312.493 42.15C312.493 40.159 313.549 39.136 314.968 39.136C315.991 39.136 316.706 39.741 317.058 40.819L317.993 40.544C317.652 39.147 316.585 38.212 314.968 38.212C313.175 38.212 311.492 39.477 311.492 42.15C311.492 44.823 313.175 46.088 314.924 46.088C315.969 46.088 316.728 45.582 317.091 44.944L317.19 46H318.015V42.117H315.43V43.041ZM346.023 43.481C345.671 44.559 344.956 45.164 343.944 45.164C342.525 45.164 341.469 44.141 341.469 42.15C341.469 40.159 342.525 39.136 343.944 39.136C344.956 39.136 345.671 39.741 346.023 40.819L346.958 40.544C346.617 39.191 345.55 38.212 343.944 38.212C342.151 38.212 340.468 39.521 340.468 42.15C340.468 44.779 342.151 46.088 343.944 46.088C345.55 46.088 346.617 45.109 346.958 43.756L346.023 43.481ZM353.494 38.212C351.657 38.212 350.04 39.587 350.04 42.15C350.04 44.713 351.657 46.088 353.494 46.088C355.331 46.088 356.948 44.713 356.948 42.15C356.948 39.587 355.331 38.212 353.494 38.212ZM353.494 39.136C354.858 39.136 355.947 40.137 355.947 42.15C355.947 44.163 354.858 45.164 353.494 45.164C352.13 45.164 351.041 44.163 351.041 42.15C351.041 40.137 352.13 39.136 353.494 39.136ZM364.855 38.3V44.317L361.379 38.3H360.246V46H361.214V40.005L364.69 46H365.823V38.3H364.855ZM368.927 39.224H371.149V46H372.117V39.224H374.339V38.3H368.927V39.224ZM378.443 38.3L375.781 46H376.749L377.431 43.943H380.379L381.061 46H382.029L379.367 38.3H378.443ZM378.905 39.554L380.071 43.019H377.739L378.905 39.554ZM390.049 43.481C389.697 44.559 388.982 45.164 387.97 45.164C386.551 45.164 385.495 44.141 385.495 42.15C385.495 40.159 386.551 39.136 387.97 39.136C388.982 39.136 389.697 39.741 390.049 40.819L390.984 40.544C390.643 39.191 389.576 38.212 387.97 38.212C386.177 38.212 384.494 39.521 384.494 42.15C384.494 44.779 386.177 46.088 387.97 46.088C389.576 46.088 390.643 45.109 390.984 43.756L390.049 43.481ZM393.647 39.224L395.869 39.224V46H396.837V39.224H399.059V38.3L393.647 38.3V39.224Z" fill="white"/>
<path d="M40.1339 36.7124C39.9866 35.9391 39.361 34.6872 37.5575 34.6872C36.1957 34.6872 35.3124 35.5709 35.3124 36.4915C35.3124 37.2648 35.8277 37.8908 36.8582 38.1117L38.8457 38.4799C41.422 38.9954 42.8206 40.6893 42.8206 42.6777C42.8206 44.8871 40.9804 47.0965 37.6679 47.0965C33.877 47.0965 32.2208 44.6662 32 42.6409L34.5763 41.9413C34.6867 43.3406 35.6805 44.6294 37.7047 44.6294C39.1769 44.6294 40.0234 43.8929 40.0234 42.8987C40.0234 42.0886 39.3978 41.4258 38.2936 41.2048L36.3062 40.7998C34.0243 40.3211 32.5521 38.8481 32.5521 36.7124C32.5521 34.1716 34.7972 32.2568 37.5207 32.2568C40.9804 32.2568 42.3053 34.3557 42.6366 35.9391L40.1339 36.7124Z" fill="white"/>
<path d="M53.2347 43.9674C52.7194 45.6612 51.1736 47.0973 48.7445 47.0973C46.021 47.0973 43.6287 45.1457 43.6287 41.7948C43.6287 38.628 45.9474 36.6028 48.4869 36.6028C51.5417 36.6028 53.3819 38.5544 53.3819 41.7212C53.3819 42.0894 53.3451 42.4945 53.3451 42.5313H46.2786C46.3522 43.8201 47.4564 44.7775 48.7813 44.7775C50.0327 44.7775 50.6952 44.1515 51.0264 43.2677L53.2347 43.9674ZM50.7688 40.727C50.732 39.7327 50.0695 38.7753 48.5605 38.7753C47.1619 38.7753 46.4258 39.8064 46.3522 40.727H50.7688Z" fill="white"/>
<path d="M54.3403 46.8028V36.8974H56.8799V38.1126C57.4319 37.1552 58.6833 36.6396 59.7874 36.6396C61.1492 36.6396 62.2166 37.2288 62.7318 38.2967C63.5047 37.0815 64.5721 36.6396 65.8602 36.6396C67.7005 36.6396 69.4303 37.7443 69.4303 40.3956V46.8028H66.854V40.9111C66.854 39.8432 66.3387 39.0331 65.1241 39.0331C63.9832 39.0331 63.2839 39.9169 63.2839 40.9848V46.766H60.634V40.9111C60.634 39.8432 60.0819 39.0331 58.9041 39.0331C57.7264 39.0331 57.0639 39.8801 57.0639 40.9848V46.766H54.3403V46.8028Z" fill="white"/>
<path d="M70.5335 50.6327V36.8977H73.1098V38.1129C73.5515 37.3396 74.6556 36.6768 76.1278 36.6768C79.0354 36.6768 80.6916 38.8861 80.6916 41.832C80.6916 44.8146 78.8146 47.024 76.0174 47.024C74.6556 47.024 73.6619 46.4717 73.1467 45.8089V50.5958H70.5335V50.6327ZM75.6494 39.0703C74.2876 39.0703 73.1835 40.1013 73.1835 41.832C73.1835 43.5627 74.2876 44.6305 75.6494 44.6305C77.0112 44.6305 78.1153 43.5995 78.1153 41.832C78.0785 40.1013 77.0112 39.0703 75.6494 39.0703Z" fill="white"/>
<path d="M84.4833 32.2576H81.7965V46.8026H84.4833V32.2576Z" fill="white"/>
<path d="M87.1695 32C88.0896 32 88.8257 32.7365 88.8257 33.657C88.8257 34.5408 88.0896 35.2772 87.1695 35.2772C86.2494 35.2772 85.5133 34.5408 85.5133 33.657C85.5133 32.7365 86.2494 32 87.1695 32ZM85.8446 36.8975H88.5313V46.8028H85.8446V36.8975Z" fill="white"/>
<path d="M92.4693 41.8688C92.4693 43.6731 93.647 44.6673 95.0088 44.6673C96.3706 44.6673 97.0699 43.7468 97.2907 43.0103L99.6462 43.7836C99.2046 45.4406 97.6588 47.1345 95.0088 47.1345C92.1012 47.1345 89.8193 44.9251 89.8193 41.9056C89.8193 38.8493 92.0644 36.6768 94.9352 36.6768C97.622 36.6768 99.1678 38.3338 99.5726 40.0276L97.1803 40.8378C96.9227 40.0276 96.3338 39.1807 94.972 39.1807C93.6102 39.0703 92.4693 40.0645 92.4693 41.8688Z" fill="white"/>
<path d="M109.841 43.9674C109.326 45.6612 107.78 47.0973 105.351 47.0973C102.627 47.0973 100.235 45.1457 100.235 41.7948C100.235 38.628 102.553 36.6028 105.093 36.6028C108.148 36.6028 109.988 38.5544 109.988 41.7212C109.988 42.0894 109.951 42.4945 109.951 42.5313H102.885C102.958 43.8201 104.062 44.7775 105.387 44.7775C106.639 44.7775 107.301 44.1515 107.633 43.2677L109.841 43.9674ZM107.338 40.727C107.301 39.7327 106.639 38.7753 105.13 38.7753C103.731 38.7753 102.995 39.8064 102.921 40.727H107.338Z" fill="white"/>
<path d="M111.277 33.8043V37.0816H110.504V33.8043H109.253V33.0679H112.565V33.8043H111.277Z" fill="white"/>
<path d="M116.797 37.0816V34.2462L115.656 37.0816H114.994L113.853 34.283V37.0816H113.117V33.0679H114.11L115.325 35.9769L116.503 33.0679H117.57V37.0816H116.797Z" fill="white"/>
<defs>
<linearGradient id="paint0_linear" x1="330" y1="12" x2="330" y2="142" gradientUnits="userSpaceOnUse">
<stop stop-color="#2D2D2E"/>
<stop offset="1"/>
<stop offset="1"/>
</linearGradient>
</defs>
</svg>
