<svg width="660" height="142" viewBox="0 0 660 142" fill="none" xmlns="http://www.w3.org/2000/svg">
<rect y="12" width="660" height="130" fill="url(#paint0_linear)"/>
<path d="M0 3.48621C0 1.56083 1.56083 0 3.48621 0H656.514C658.439 0 660 1.56083 660 3.48621V12H0V3.48621Z" fill="#CECECE"/>
<circle cx="9.2267" cy="6.40639" r="2.65737" fill="white"/>
<circle cx="17.5248" cy="6.40639" r="2.65737" fill="white"/>
<circle cx="25.8231" cy="6.40639" r="2.65737" fill="white"/>
<path d="M388.521 42.7C389.962 42.7 390.809 41.842 390.809 40.5C390.809 39.158 389.962 38.3 388.521 38.3H385.837V46H386.805V42.7H388.521ZM388.576 41.776H386.805V39.224H388.576C389.368 39.224 389.808 39.686 389.808 40.5C389.808 41.314 389.368 41.776 388.576 41.776ZM398.423 46H399.567L397.268 42.304C398.269 42.095 398.874 41.402 398.874 40.335C398.874 39.037 397.972 38.3 396.608 38.3H394.045V46H395.013V42.37H396.168L398.423 46ZM396.63 39.224C397.433 39.224 397.873 39.565 397.873 40.335C397.873 41.105 397.433 41.446 396.63 41.446H395.013V39.224H396.63ZM405.406 38.212C403.569 38.212 401.952 39.587 401.952 42.15C401.952 44.713 403.569 46.088 405.406 46.088C407.243 46.088 408.86 44.713 408.86 42.15C408.86 39.587 407.243 38.212 405.406 38.212ZM405.406 39.136C406.77 39.136 407.859 40.137 407.859 42.15C407.859 44.163 406.77 45.164 405.406 45.164C404.042 45.164 402.953 44.163 402.953 42.15C402.953 40.137 404.042 39.136 405.406 39.136ZM412.158 38.3V46H413.126V42.447H415.975V41.523H413.126V39.224H416.635V38.3H412.158ZM419.797 38.3V46L420.765 46V38.3H419.797ZM424.46 38.3V46H428.926V45.076H425.428V38.3H424.46ZM432.066 38.3V46H436.598V45.076H433.034V42.359H435.828V41.435H433.034V39.224H436.488V38.3H432.066ZM466.966 38.3L465.404 44.57L463.765 39.114H462.885L461.246 44.57L459.684 38.3H458.661L460.718 46H461.73L463.325 40.709L464.92 46H465.932L467.989 38.3H466.966ZM474.068 38.212C472.231 38.212 470.614 39.587 470.614 42.15C470.614 44.713 472.231 46.088 474.068 46.088C475.905 46.088 477.522 44.713 477.522 42.15C477.522 39.587 475.905 38.212 474.068 38.212ZM474.068 39.136C475.432 39.136 476.521 40.137 476.521 42.15C476.521 44.163 475.432 45.164 474.068 45.164C472.704 45.164 471.615 44.163 471.615 42.15C471.615 40.137 472.704 39.136 474.068 39.136ZM485.198 46H486.342L484.043 42.304C485.044 42.095 485.649 41.402 485.649 40.335C485.649 39.037 484.747 38.3 483.383 38.3H480.82V46H481.788V42.37H482.943L485.198 46ZM483.405 39.224C484.208 39.224 484.648 39.565 484.648 40.335C484.648 41.105 484.208 41.446 483.405 41.446H481.788V39.224H483.405ZM494.546 46L491.158 41.754L494.282 38.3H493.05L490.179 41.391V38.3H489.211V46H490.179V42.117L493.314 46H494.546ZM516.898 38.3V46H519.637C521.133 46 522.035 45.142 522.035 43.712C522.035 42.755 521.529 42.084 520.792 41.787C521.276 41.523 521.661 40.962 521.661 40.28C521.661 39.015 520.825 38.3 519.494 38.3H516.898ZM517.866 42.359H519.494C520.517 42.359 521.034 42.777 521.034 43.712C521.034 44.658 520.517 45.076 519.494 45.076H517.866V42.359ZM519.439 39.224C520.154 39.224 520.66 39.587 520.66 40.335C520.66 41.083 520.154 41.435 519.439 41.435H517.866V39.224H519.439ZM525.406 38.3V46H529.872V45.076H526.374V38.3H525.406ZM535.79 38.212C533.953 38.212 532.336 39.587 532.336 42.15C532.336 44.713 533.953 46.088 535.79 46.088C537.627 46.088 539.244 44.713 539.244 42.15C539.244 39.587 537.627 38.212 535.79 38.212ZM535.79 39.136C537.154 39.136 538.243 40.137 538.243 42.15C538.243 44.163 537.154 45.164 535.79 45.164C534.426 45.164 533.337 44.163 533.337 42.15C533.337 40.137 534.426 39.136 535.79 39.136ZM546.201 43.041H547.862C547.774 44.273 547.07 45.164 545.739 45.164C544.32 45.164 543.264 44.141 543.264 42.15C543.264 40.159 544.32 39.136 545.739 39.136C546.762 39.136 547.477 39.741 547.829 40.819L548.764 40.544C548.423 39.147 547.356 38.212 545.739 38.212C543.946 38.212 542.263 39.477 542.263 42.15C542.263 44.823 543.946 46.088 545.695 46.088C546.74 46.088 547.499 45.582 547.862 44.944L547.961 46H548.786V42.117H546.201V43.041ZM576.794 43.481C576.442 44.559 575.727 45.164 574.715 45.164C573.296 45.164 572.24 44.141 572.24 42.15C572.24 40.159 573.296 39.136 574.715 39.136C575.727 39.136 576.442 39.741 576.794 40.819L577.729 40.544C577.388 39.191 576.321 38.212 574.715 38.212C572.922 38.212 571.239 39.521 571.239 42.15C571.239 44.779 572.922 46.088 574.715 46.088C576.321 46.088 577.388 45.109 577.729 43.756L576.794 43.481ZM584.265 38.212C582.428 38.212 580.811 39.587 580.811 42.15C580.811 44.713 582.428 46.088 584.265 46.088C586.102 46.088 587.719 44.713 587.719 42.15C587.719 39.587 586.102 38.212 584.265 38.212ZM584.265 39.136C585.629 39.136 586.718 40.137 586.718 42.15C586.718 44.163 585.629 45.164 584.265 45.164C582.901 45.164 581.812 44.163 581.812 42.15C581.812 40.137 582.901 39.136 584.265 39.136ZM595.626 38.3V44.317L592.15 38.3H591.017V46H591.985V40.005L595.461 46H596.594V38.3H595.626ZM599.698 39.224H601.92V46H602.888V39.224H605.11V38.3H599.698V39.224ZM609.213 38.3L606.551 46H607.519L608.201 43.943H611.149L611.831 46H612.799L610.137 38.3H609.213ZM609.675 39.554L610.841 43.019H608.509L609.675 39.554ZM620.819 43.481C620.467 44.559 619.752 45.164 618.74 45.164C617.321 45.164 616.265 44.141 616.265 42.15C616.265 40.159 617.321 39.136 618.74 39.136C619.752 39.136 620.467 39.741 620.819 40.819L621.754 40.544C621.413 39.191 620.346 38.212 618.74 38.212C616.947 38.212 615.264 39.521 615.264 42.15C615.264 44.779 616.947 46.088 618.74 46.088C620.346 46.088 621.413 45.109 621.754 43.756L620.819 43.481ZM624.418 39.224H626.64V46H627.608V39.224H629.83V38.3H624.418V39.224Z" fill="black"/>
<path d="M40.1339 36.7124C39.9866 35.9391 39.361 34.6872 37.5575 34.6872C36.1957 34.6872 35.3124 35.5709 35.3124 36.4915C35.3124 37.2648 35.8277 37.8908 36.8582 38.1117L38.8457 38.4799C41.422 38.9954 42.8206 40.6893 42.8206 42.6777C42.8206 44.8871 40.9804 47.0965 37.6679 47.0965C33.877 47.0965 32.2208 44.6662 32 42.6409L34.5763 41.9413C34.6867 43.3406 35.6805 44.6294 37.7047 44.6294C39.1769 44.6294 40.0234 43.8929 40.0234 42.8987C40.0234 42.0886 39.3978 41.4258 38.2936 41.2048L36.3062 40.7998C34.0243 40.3211 32.5521 38.8481 32.5521 36.7124C32.5521 34.1716 34.7972 32.2568 37.5207 32.2568C40.9804 32.2568 42.3053 34.3557 42.6366 35.9391L40.1339 36.7124Z" fill="black"/>
<path d="M53.2347 43.9674C52.7194 45.6612 51.1736 47.0973 48.7445 47.0973C46.021 47.0973 43.6287 45.1457 43.6287 41.7948C43.6287 38.628 45.9474 36.6028 48.4869 36.6028C51.5417 36.6028 53.3819 38.5544 53.3819 41.7212C53.3819 42.0894 53.3451 42.4945 53.3451 42.5313H46.2786C46.3522 43.8201 47.4564 44.7775 48.7813 44.7775C50.0327 44.7775 50.6952 44.1515 51.0264 43.2677L53.2347 43.9674ZM50.7688 40.727C50.732 39.7327 50.0695 38.7753 48.5605 38.7753C47.1619 38.7753 46.4258 39.8064 46.3522 40.727H50.7688Z" fill="black"/>
<path d="M54.3403 46.8028V36.8974H56.8799V38.1126C57.4319 37.1552 58.6833 36.6396 59.7874 36.6396C61.1492 36.6396 62.2166 37.2288 62.7318 38.2967C63.5047 37.0815 64.5721 36.6396 65.8602 36.6396C67.7005 36.6396 69.4303 37.7443 69.4303 40.3956V46.8028H66.854V40.9111C66.854 39.8432 66.3387 39.0331 65.1241 39.0331C63.9832 39.0331 63.2839 39.9169 63.2839 40.9848V46.766H60.634V40.9111C60.634 39.8432 60.0819 39.0331 58.9041 39.0331C57.7264 39.0331 57.0639 39.8801 57.0639 40.9848V46.766H54.3403V46.8028Z" fill="black"/>
<path d="M70.5335 50.6327V36.8977H73.1098V38.1129C73.5515 37.3396 74.6556 36.6768 76.1278 36.6768C79.0354 36.6768 80.6916 38.8861 80.6916 41.832C80.6916 44.8146 78.8146 47.024 76.0174 47.024C74.6556 47.024 73.6619 46.4717 73.1467 45.8089V50.5958H70.5335V50.6327ZM75.6494 39.0703C74.2876 39.0703 73.1835 40.1013 73.1835 41.832C73.1835 43.5627 74.2876 44.6305 75.6494 44.6305C77.0112 44.6305 78.1153 43.5995 78.1153 41.832C78.0785 40.1013 77.0112 39.0703 75.6494 39.0703Z" fill="black"/>
<path d="M84.4833 32.2576H81.7965V46.8026H84.4833V32.2576Z" fill="black"/>
<path d="M87.1695 32C88.0896 32 88.8257 32.7365 88.8257 33.657C88.8257 34.5408 88.0896 35.2772 87.1695 35.2772C86.2494 35.2772 85.5133 34.5408 85.5133 33.657C85.5133 32.7365 86.2494 32 87.1695 32ZM85.8446 36.8975H88.5313V46.8028H85.8446V36.8975Z" fill="black"/>
<path d="M92.4693 41.8688C92.4693 43.6731 93.647 44.6673 95.0088 44.6673C96.3706 44.6673 97.0699 43.7468 97.2907 43.0103L99.6462 43.7836C99.2046 45.4406 97.6588 47.1345 95.0088 47.1345C92.1012 47.1345 89.8193 44.9251 89.8193 41.9056C89.8193 38.8493 92.0644 36.6768 94.9352 36.6768C97.622 36.6768 99.1678 38.3338 99.5726 40.0276L97.1803 40.8378C96.9227 40.0276 96.3338 39.1807 94.972 39.1807C93.6102 39.0703 92.4693 40.0645 92.4693 41.8688Z" fill="black"/>
<path d="M109.841 43.9674C109.326 45.6612 107.78 47.0973 105.351 47.0973C102.627 47.0973 100.235 45.1457 100.235 41.7948C100.235 38.628 102.553 36.6028 105.093 36.6028C108.148 36.6028 109.988 38.5544 109.988 41.7212C109.988 42.0894 109.951 42.4945 109.951 42.5313H102.885C102.958 43.8201 104.062 44.7775 105.387 44.7775C106.639 44.7775 107.301 44.1515 107.633 43.2677L109.841 43.9674ZM107.338 40.727C107.301 39.7327 106.639 38.7753 105.13 38.7753C103.731 38.7753 102.995 39.8064 102.921 40.727H107.338Z" fill="black"/>
<path d="M111.277 33.8043V37.0816H110.504V33.8043H109.253V33.0679H112.565V33.8043H111.277Z" fill="black"/>
<path d="M116.797 37.0816V34.2462L115.656 37.0816H114.994L113.853 34.283V37.0816H113.117V33.0679H114.11L115.325 35.9769L116.503 33.0679H117.57V37.0816H116.797Z" fill="black"/>
<defs>
<linearGradient id="paint0_linear" x1="330" y1="12" x2="330" y2="127.064" gradientUnits="userSpaceOnUse">
<stop offset="0.166667" stop-color="white"/>
<stop offset="1" stop-color="#F6F6F6"/>
</linearGradient>
</defs>
</svg>
