<svg width="589" height="70" viewBox="0 0 589 70" fill="none" xmlns="http://www.w3.org/2000/svg">
<path d="M10.2733 53H20.3533L30.7933 21.68H31.2253L41.5933 53H51.6733L61.4653 2.6H51.8173L45.3373 36.872H45.1213L33.5293 2.6H28.6333L17.0413 36.872H16.8253L10.3453 2.6H0.481259L10.2733 53ZM65.8016 53H75.1616V29.024C75.1616 25.352 77.2496 22.4 81.7856 22.4C86.5376 22.4 88.5536 25.712 88.5536 29.672V53H97.9136V27.584C97.9136 19.16 92.7296 13.76 84.5936 13.76C80.6336 13.76 76.7456 16.136 75.3056 18.512H75.1616V0.439999H65.8016V53ZM126.501 53H134.35V28.808C134.35 17.864 127.005 13.76 118.438 13.76C109.293 13.76 104.397 18.872 102.741 24.704L110.517 27.944C111.453 24.992 112.893 21.68 118.582 21.68C123.118 21.68 125.062 23.552 125.062 25.712C125.062 27.872 124.27 28.664 115.197 30.896C106.053 33.128 102.237 35.936 102.237 42.776C102.237 48.536 106.125 54.08 115.989 54.08C123.693 54.08 126.357 49.328 126.357 49.328H126.501V53ZM117.069 37.376C124.485 35.504 124.774 34.568 125.205 33.776H125.349V40.4C125.349 43.208 122.973 46.016 116.853 46.016C113.541 46.016 111.237 45.008 111.237 42.128C111.237 40.544 111.741 38.672 117.069 37.376ZM142.775 39.392C142.775 48.464 145.583 53 156.239 53H160.199V44H157.103C152.783 44 151.991 42.344 151.991 38.528V22.76H161.495V14.84H151.847V5.48H142.991V14.84H136.871V22.76H142.775V39.392ZM166.514 22.472C174.29 21.896 177.242 17.504 177.242 11.672V2.6H166.514V12.824H170.042C170.042 15.704 169.898 17 166.514 17.576V22.472ZM180.073 40.4C181.081 46.952 185.905 54.08 197.425 54.08C208.369 54.08 212.977 47.528 212.977 42.2C212.977 36.872 210.889 33.128 201.457 30.536C191.449 27.728 190.009 27.152 190.009 24.992C190.009 23.12 192.169 21.464 195.985 21.464C201.097 21.464 203.041 24.2 204.193 27.368L211.969 24.992C210.097 18.512 205.273 13.76 195.913 13.76C186.553 13.76 181.513 19.52 181.513 25.424C181.513 31.328 185.977 34.28 194.329 36.656C202.105 38.888 204.625 39.32 204.625 41.984C204.625 44.648 201.673 46.232 197.065 46.232C192.097 46.232 189.145 43.352 188.497 38.24L180.073 40.4ZM235.341 69.2H244.629L266.589 14.84H257.085L247.221 40.688H247.077L237.213 14.84H227.709L242.973 51.128L235.341 69.2ZM283.728 45.656C278.472 45.656 275.088 41.696 275.088 33.92C275.088 26.144 278.616 22.184 283.728 22.184C288.84 22.184 292.368 26.288 292.368 33.92C292.368 41.552 288.984 45.656 283.728 45.656ZM283.728 54.08C293.736 54.08 301.584 46.952 301.584 33.92C301.584 20.888 293.232 13.76 283.728 13.76C274.224 13.76 265.872 20.888 265.872 33.92C265.872 46.952 273.72 54.08 283.728 54.08ZM305.933 39.464C305.933 47.888 309.677 54.08 318.965 54.08C324.437 54.08 327.677 50.984 328.901 49.328H329.045V53H337.973V14.84H328.613V37.736C328.613 43.208 325.157 45.08 321.053 45.08C317.165 45.08 315.293 43.424 315.293 38.456V14.84H305.933V39.464ZM345.178 53H354.538V32.048C354.538 25.928 357.058 23.336 361.09 23.336C362.026 23.336 363.034 23.552 364.042 23.912L365.482 14.84C364.33 14.336 363.178 14.12 362.026 14.12C358.642 14.12 355.618 16.064 354.178 18.872H354.034V14.84H345.178V53ZM383.856 53H393.216V29.672C393.216 25.28 395.952 22.4 400.56 22.4C405.672 22.4 407.256 25.352 407.256 30.32V53H416.616V28.016C416.616 19.016 411.504 13.76 403.08 13.76C398.832 13.76 394.944 15.992 393 18.512H392.856V14.84H383.856V53ZM445.189 53H453.037V28.808C453.037 17.864 445.693 13.76 437.125 13.76C427.981 13.76 423.085 18.872 421.429 24.704L429.205 27.944C430.141 24.992 431.581 21.68 437.269 21.68C441.805 21.68 443.749 23.552 443.749 25.712C443.749 27.872 442.957 28.664 433.885 30.896C424.741 33.128 420.925 35.936 420.925 42.776C420.925 48.536 424.813 54.08 434.677 54.08C442.381 54.08 445.045 49.328 445.045 49.328H445.189V53ZM435.757 37.376C443.173 35.504 443.461 34.568 443.893 33.776H444.037V40.4C444.037 43.208 441.661 46.016 435.541 46.016C432.229 46.016 429.925 45.008 429.925 42.128C429.925 40.544 430.429 38.672 435.757 37.376ZM459.518 53H468.59V28.304C468.59 24.992 470.678 22.4 475.142 22.4C479.606 22.4 481.766 25.352 481.766 28.808V53H490.334V28.304C490.334 24.992 492.494 22.4 496.886 22.4C501.71 22.4 503.51 25.352 503.51 28.808V53H512.078V26.864C512.078 19.16 506.534 13.76 497.246 13.76C492.854 13.76 489.182 15.992 487.31 18.8H487.166C485.366 15.92 481.55 13.76 477.446 13.76C473.342 13.76 469.886 15.92 468.23 18.512H468.086V14.84H459.518V53ZM543.703 39.824C541.831 42.488 539.239 45.8 534.343 45.8C529.231 45.8 526.207 42.632 525.919 36.728H551.551V33.92C551.551 21.536 543.991 13.76 534.055 13.76C524.119 13.76 516.415 21.536 516.415 33.92C516.415 46.304 523.975 54.08 534.487 54.08C542.407 54.08 547.087 50.192 550.255 45.584L543.703 39.824ZM525.919 29.744C526.279 25.496 529.303 21.968 534.055 21.968C539.095 21.968 542.047 24.92 542.479 29.744H525.919ZM565.707 36.656H574.419V34.928C574.419 31.256 577.587 29.744 580.971 27.728C584.643 25.496 588.531 22.688 588.531 15.632C588.531 7.64 581.331 1.52 571.323 1.52C558.723 1.52 552.891 9.08 552.603 19.304L562.107 20.096C562.395 15.128 564.123 10.52 571.035 10.52C576.435 10.52 578.811 13.4 578.811 16.352C578.811 20.456 575.931 22.04 572.907 23.912C569.451 26 565.707 28.448 565.707 34.424V36.656ZM565.131 53H575.859V42.776H565.131V53Z" fill="white"/>
</svg>
