<svg width="330" height="53" viewBox="0 0 330 53" fill="none" xmlns="http://www.w3.org/2000/svg">
<path d="M16.5585 51H26.2065V29.76L42.6945 0.599997H32.2545L21.4545 21.264H21.3105L10.5105 0.599997H0.0704651L16.5585 29.76V51ZM54.4102 43.656C49.1542 43.656 45.7702 39.696 45.7702 31.92C45.7702 24.144 49.2982 20.184 54.4102 20.184C59.5222 20.184 63.0502 24.288 63.0502 31.92C63.0502 39.552 59.6662 43.656 54.4102 43.656ZM54.4102 52.08C64.4182 52.08 72.2662 44.952 72.2662 31.92C72.2662 18.888 63.9142 11.76 54.4102 11.76C44.9062 11.76 36.5542 18.888 36.5542 31.92C36.5542 44.952 44.4022 52.08 54.4102 52.08ZM76.6155 37.464C76.6155 45.888 80.3595 52.08 89.6475 52.08C95.1195 52.08 98.3595 48.984 99.5835 47.328H99.7275V51H108.655V12.84H99.2955V35.736C99.2955 41.208 95.8395 43.08 91.7355 43.08C87.8475 43.08 85.9755 41.424 85.9755 36.456V12.84H76.6155V37.464ZM152.725 51H160.573V26.808C160.573 15.864 153.229 11.76 144.661 11.76C135.517 11.76 130.621 16.872 128.965 22.704L136.741 25.944C137.677 22.992 139.117 19.68 144.805 19.68C149.341 19.68 151.285 21.552 151.285 23.712C151.285 25.872 150.493 26.664 141.421 28.896C132.277 31.128 128.461 33.936 128.461 40.776C128.461 46.536 132.349 52.08 142.213 52.08C149.917 52.08 152.581 47.328 152.581 47.328H152.725V51ZM143.293 35.376C150.709 33.504 150.997 32.568 151.429 31.776H151.573V38.4C151.573 41.208 149.197 44.016 143.077 44.016C139.765 44.016 137.461 43.008 137.461 40.128C137.461 38.544 137.965 36.672 143.293 35.376ZM167.054 51H176.414V30.048C176.414 23.928 178.934 21.336 182.966 21.336C183.902 21.336 184.91 21.552 185.918 21.912L187.358 12.84C186.206 12.336 185.054 12.12 183.902 12.12C180.518 12.12 177.494 14.064 176.054 16.872H175.91V12.84H167.054V51ZM215.38 37.824C213.508 40.488 210.916 43.8 206.02 43.8C200.908 43.8 197.884 40.632 197.596 34.728H223.228V31.92C223.228 19.536 215.668 11.76 205.732 11.76C195.796 11.76 188.092 19.536 188.092 31.92C188.092 44.304 195.652 52.08 206.164 52.08C214.084 52.08 218.764 48.192 221.932 43.584L215.38 37.824ZM197.596 27.744C197.956 23.496 200.98 19.968 205.732 19.968C210.772 19.968 213.724 22.92 214.156 27.744H197.596ZM264.744 51H272.592V26.808C272.592 15.864 265.248 11.76 256.68 11.76C247.536 11.76 242.64 16.872 240.984 22.704L248.76 25.944C249.696 22.992 251.136 19.68 256.824 19.68C261.36 19.68 263.304 21.552 263.304 23.712C263.304 25.872 262.512 26.664 253.44 28.896C244.296 31.128 240.48 33.936 240.48 40.776C240.48 46.536 244.368 52.08 254.232 52.08C261.936 52.08 264.6 47.328 264.6 47.328H264.744V51ZM255.312 35.376C262.728 33.504 263.016 32.568 263.448 31.776H263.592V38.4C263.592 41.208 261.216 44.016 255.096 44.016C251.784 44.016 249.48 43.008 249.48 40.128C249.48 38.544 249.984 36.672 255.312 35.376ZM279.793 51H290.521V40.776H279.793V51ZM299.132 51H309.86V40.776H299.132V51ZM318.471 51H329.199V40.776H318.471V51Z" fill="white"/>
</svg>
