<svg width="517" height="109" viewBox="0 0 517 109" fill="none" xmlns="http://www.w3.org/2000/svg">
<path d="M0.636576 106H20.0766V5.19999H0.636576V106ZM40.4796 78.784C40.4796 96.928 46.0956 106 67.4076 106H75.3276V88H69.1356C60.4956 88 58.9116 84.688 58.9116 77.056V45.52H77.9196V29.68H58.6236V10.96H40.9116V29.68H28.6716V45.52H40.4796V78.784ZM87.9591 44.944C103.511 43.792 109.415 35.008 109.415 23.344V5.19999H87.9591V25.648H95.0151C95.0151 31.408 94.7271 34 87.9591 35.152V44.944ZM115.077 80.8C117.093 93.904 126.741 108.16 149.781 108.16C171.669 108.16 180.885 95.056 180.885 84.4C180.885 73.744 176.709 66.256 157.845 61.072C137.829 55.456 134.949 54.304 134.949 49.984C134.949 46.24 139.269 42.928 146.901 42.928C157.125 42.928 161.013 48.4 163.317 54.736L178.869 49.984C175.125 37.024 165.477 27.52 146.757 27.52C128.037 27.52 117.957 39.04 117.957 50.848C117.957 62.656 126.885 68.56 143.589 73.312C159.141 77.776 164.181 78.64 164.181 83.968C164.181 89.296 158.277 92.464 149.061 92.464C139.125 92.464 133.221 86.704 131.925 76.48L115.077 80.8ZM223.596 78.784C223.596 96.928 229.212 106 250.524 106H258.444V88H252.252C243.612 88 242.028 84.688 242.028 77.056V45.52H261.036V29.68H241.74V10.96H224.028V29.68H211.788V45.52H223.596V78.784ZM269.635 106H288.355V29.68H269.635V106ZM269.635 18.592H288.355V0.879997H269.635V18.592ZM302.688 106H320.832V56.608C320.832 49.984 325.008 44.8 333.936 44.8C342.864 44.8 347.184 50.704 347.184 57.616V106H364.32V56.608C364.32 49.984 368.64 44.8 377.424 44.8C387.072 44.8 390.672 50.704 390.672 57.616V106H407.808V53.728C407.808 38.32 396.72 27.52 378.144 27.52C369.36 27.52 362.016 31.984 358.272 37.6H357.984C354.384 31.84 346.752 27.52 338.544 27.52C330.336 27.52 323.424 31.84 320.112 37.024H319.824V29.68H302.688V106ZM471.058 79.648C467.314 84.976 462.13 91.6 452.338 91.6C442.114 91.6 436.066 85.264 435.49 73.456H486.754V67.84C486.754 43.072 471.634 27.52 451.762 27.52C431.89 27.52 416.482 43.072 416.482 67.84C416.482 92.608 431.602 108.16 452.626 108.16C468.466 108.16 477.826 100.384 484.162 91.168L471.058 79.648ZM435.49 59.488C436.21 50.992 442.258 43.936 451.762 43.936C461.842 43.936 467.746 49.84 468.61 59.488H435.49ZM494.686 106H516.142V85.552H494.686V106Z" fill="white"/>
</svg>
