<svg width="515" height="71" viewBox="0 0 515 71" fill="none" xmlns="http://www.w3.org/2000/svg">
<path d="M0.753134 53H10.4731V34.64H21.2011C32.0731 34.64 38.5531 28.376 38.5531 18.656C38.5531 8.72 31.3531 2.6 21.2011 2.6H0.753134V53ZM10.4731 25.64V11.6H21.0571C24.7291 11.6 28.4731 13.328 28.4731 18.656C28.4731 22.904 25.3051 25.64 21.0571 25.64H10.4731ZM41.0984 53H50.4584V14.84H41.0984V53ZM41.0984 9.296H50.4584V0.439999H41.0984V9.296ZM80.5207 37.592C79.8007 42.344 77.4247 45.656 72.9607 45.656C67.7047 45.656 64.3207 41.768 64.3207 33.92C64.3207 26 67.8487 22.184 72.9607 22.184C77.3527 22.184 79.5127 25.208 80.3047 29.168L89.0167 27.512C87.7207 19.232 81.6007 13.76 72.9607 13.76C63.3127 13.76 55.1047 20.888 55.1047 33.92C55.1047 46.952 62.8807 54.08 72.8887 54.08C81.6007 54.08 87.6487 49.04 89.3767 39.896L80.5207 37.592ZM93.6978 53H103.058V41.048L107.882 35.576H108.026L119.69 53H130.058L115.082 30.32L128.834 14.84H117.098L103.202 30.608H103.058V0.439999H93.6978V53ZM169.096 53H176.944V28.808C176.944 17.864 169.6 13.76 161.032 13.76C151.888 13.76 146.992 18.872 145.336 24.704L153.112 27.944C154.048 24.992 155.488 21.68 161.176 21.68C165.712 21.68 167.656 23.552 167.656 25.712C167.656 27.872 166.864 28.664 157.792 30.896C148.648 33.128 144.832 35.936 144.832 42.776C144.832 48.536 148.72 54.08 158.584 54.08C166.288 54.08 168.952 49.328 168.952 49.328H169.096V53ZM159.664 37.376C167.08 35.504 167.368 34.568 167.8 33.776H167.944V40.4C167.944 43.208 165.568 46.016 159.448 46.016C156.136 46.016 153.832 45.008 153.832 42.128C153.832 40.544 154.336 38.672 159.664 37.376ZM198.545 53H207.905V29.672C207.905 25.28 210.641 22.4 215.249 22.4C220.361 22.4 221.945 25.352 221.945 30.32V53H231.305V28.016C231.305 19.016 226.193 13.76 217.769 13.76C213.521 13.76 209.633 15.992 207.689 18.512H207.545V14.84H198.545V53ZM259.878 53H267.726V28.808C267.726 17.864 260.382 13.76 251.814 13.76C242.67 13.76 237.774 18.872 236.118 24.704L243.894 27.944C244.83 24.992 246.27 21.68 251.958 21.68C256.494 21.68 258.438 23.552 258.438 25.712C258.438 27.872 257.646 28.664 248.574 30.896C239.43 33.128 235.614 35.936 235.614 42.776C235.614 48.536 239.502 54.08 249.366 54.08C257.07 54.08 259.734 49.328 259.734 49.328H259.878V53ZM250.446 37.376C257.862 35.504 258.15 34.568 258.582 33.776H258.726V40.4C258.726 43.208 256.35 46.016 250.23 46.016C246.918 46.016 244.614 45.008 244.614 42.128C244.614 40.544 245.118 38.672 250.446 37.376ZM282.971 53H290.891L306.155 14.84H296.579L287.075 39.392H286.931L277.427 14.84H267.707L282.971 53ZM309.014 53H318.374V14.84H309.014V53ZM309.014 9.296H318.374V0.439999H309.014V9.296ZM349.949 37.808C349.949 42.056 346.853 45.656 341.741 45.656C336.485 45.656 332.381 41.768 332.381 33.92C332.381 26 336.485 22.184 341.741 22.184C346.853 22.184 349.949 25.784 349.949 29.96V37.808ZM325.757 60.776C328.133 66.176 333.533 70.28 341.885 70.28C351.677 70.28 359.309 64.592 359.309 53V14.84H350.381V18.512H350.237C348.581 16.28 345.413 13.76 340.157 13.76C331.517 13.76 323.021 20.888 323.021 33.92C323.021 46.952 330.941 54.08 340.301 54.08C344.693 54.08 348.437 51.704 349.805 49.328H349.949V54.152C349.949 59.984 346.421 62.144 341.885 62.144C337.349 62.144 334.901 60.056 332.741 55.952L325.757 60.776ZM387.858 53H395.706V28.808C395.706 17.864 388.362 13.76 379.794 13.76C370.65 13.76 365.754 18.872 364.098 24.704L371.874 27.944C372.81 24.992 374.25 21.68 379.938 21.68C384.474 21.68 386.418 23.552 386.418 25.712C386.418 27.872 385.626 28.664 376.554 30.896C367.41 33.128 363.594 35.936 363.594 42.776C363.594 48.536 367.482 54.08 377.346 54.08C385.05 54.08 387.714 49.328 387.714 49.328H387.858V53ZM378.426 37.376C385.842 35.504 386.13 34.568 386.562 33.776H386.706V40.4C386.706 43.208 384.33 46.016 378.21 46.016C374.898 46.016 372.594 45.008 372.594 42.128C372.594 40.544 373.098 38.672 378.426 37.376ZM404.131 39.392C404.131 48.464 406.939 53 417.595 53H421.555V44H418.459C414.139 44 413.347 42.344 413.347 38.528V22.76H422.851V14.84H413.203V5.48H404.347V14.84H398.227V22.76H404.131V39.392ZM427.151 53H436.511V14.84H427.151V53ZM427.151 9.296H436.511V0.439999H427.151V9.296ZM459.013 45.656C453.757 45.656 450.373 41.696 450.373 33.92C450.373 26.144 453.901 22.184 459.013 22.184C464.125 22.184 467.653 26.288 467.653 33.92C467.653 41.552 464.269 45.656 459.013 45.656ZM459.013 54.08C469.021 54.08 476.869 46.952 476.869 33.92C476.869 20.888 468.517 13.76 459.013 13.76C449.509 13.76 441.157 20.888 441.157 33.92C441.157 46.952 449.005 54.08 459.013 54.08ZM481.578 53H490.938V29.672C490.938 25.28 493.674 22.4 498.282 22.4C503.394 22.4 504.978 25.352 504.978 30.32V53H514.338V28.016C514.338 19.016 509.226 13.76 500.802 13.76C496.554 13.76 492.666 15.992 490.722 18.512H490.578V14.84H481.578V53Z" fill="white"/>
</svg>
