<svg width="466" height="71" viewBox="0 0 466 71" fill="none" xmlns="http://www.w3.org/2000/svg">
<path d="M32.559 32.984C31.767 39.824 29.247 45.08 22.695 45.08C16.431 45.08 10.815 40.112 10.815 27.008C10.815 16.064 16.431 10.52 22.695 10.52C29.031 10.52 31.695 15.56 32.487 20.96L42.135 19.448C40.983 8.288 32.847 1.52 22.623 1.52C11.535 1.52 0.807033 10.232 0.807033 27.008C0.807033 46.16 10.599 54.08 22.695 54.08C33.927 54.08 41.055 46.808 42.639 35.216L32.559 32.984ZM47.337 53H56.697V32.048C56.697 25.928 59.217 23.336 63.249 23.336C64.185 23.336 65.193 23.552 66.201 23.912L67.641 14.84C66.489 14.336 65.337 14.12 64.185 14.12C60.801 14.12 57.777 16.064 56.337 18.872H56.193V14.84H47.337V53ZM95.6625 39.824C93.7905 42.488 91.1985 45.8 86.3025 45.8C81.1905 45.8 78.1665 42.632 77.8785 36.728H103.511V33.92C103.511 21.536 95.9505 13.76 86.0145 13.76C76.0785 13.76 68.3745 21.536 68.3745 33.92C68.3745 46.304 75.9345 54.08 86.4465 54.08C94.3665 54.08 99.0465 50.192 102.215 45.584L95.6625 39.824ZM77.8785 29.744C78.2385 25.496 81.2625 21.968 86.0145 21.968C91.0545 21.968 94.0065 24.92 94.4385 29.744H77.8785ZM129.907 53H137.755V28.808C137.755 17.864 130.411 13.76 121.843 13.76C112.699 13.76 107.803 18.872 106.147 24.704L113.923 27.944C114.859 24.992 116.299 21.68 121.987 21.68C126.523 21.68 128.467 23.552 128.467 25.712C128.467 27.872 127.675 28.664 118.603 30.896C109.459 33.128 105.643 35.936 105.643 42.776C105.643 48.536 109.531 54.08 119.395 54.08C127.099 54.08 129.763 49.328 129.763 49.328H129.907V53ZM120.475 37.376C127.891 35.504 128.179 34.568 128.611 33.776H128.755V40.4C128.755 43.208 126.379 46.016 120.259 46.016C116.947 46.016 114.643 45.008 114.643 42.128C114.643 40.544 115.147 38.672 120.475 37.376ZM146.18 39.392C146.18 48.464 148.988 53 159.644 53H163.604V44H160.508C156.188 44 155.396 42.344 155.396 38.528V22.76H164.9V14.84H155.252V5.48H146.396V14.84H140.276V22.76H146.18V39.392ZM169.2 53H178.56V14.84H169.2V53ZM169.2 9.296H178.56V0.439999H169.2V9.296ZM185.726 53H195.086V29.672C195.086 25.28 197.822 22.4 202.43 22.4C207.542 22.4 209.126 25.352 209.126 30.32V53H218.486V28.016C218.486 19.016 213.374 13.76 204.95 13.76C200.702 13.76 196.814 15.992 194.87 18.512H194.726V14.84H185.726V53ZM249.723 37.808C249.723 42.056 246.627 45.656 241.515 45.656C236.259 45.656 232.155 41.768 232.155 33.92C232.155 26 236.259 22.184 241.515 22.184C246.627 22.184 249.723 25.784 249.723 29.96V37.808ZM225.531 60.776C227.907 66.176 233.307 70.28 241.659 70.28C251.451 70.28 259.083 64.592 259.083 53V14.84H250.155V18.512H250.011C248.355 16.28 245.187 13.76 239.931 13.76C231.291 13.76 222.795 20.888 222.795 33.92C222.795 46.952 230.715 54.08 240.075 54.08C244.467 54.08 248.211 51.704 249.579 49.328H249.723V54.152C249.723 59.984 246.195 62.144 241.659 62.144C237.123 62.144 234.675 60.056 232.515 55.952L225.531 60.776ZM290.368 29.96C290.368 25.784 293.464 22.184 298.576 22.184C303.832 22.184 307.936 26 307.936 33.92C307.936 41.768 303.832 45.656 298.576 45.656C293.464 45.656 290.368 42.056 290.368 37.808V29.96ZM281.008 69.2H290.368V49.328H290.512C290.512 49.328 293.176 54.08 300.52 54.08C309.376 54.08 317.296 46.952 317.296 33.92C317.296 20.888 308.8 13.76 300.376 13.76C292.888 13.76 290.08 18.512 290.08 18.512H289.936V14.84H281.008V69.2ZM343.747 53H351.595V28.808C351.595 17.864 344.251 13.76 335.683 13.76C326.539 13.76 321.643 18.872 319.987 24.704L327.763 27.944C328.699 24.992 330.139 21.68 335.827 21.68C340.363 21.68 342.307 23.552 342.307 25.712C342.307 27.872 341.515 28.664 332.443 30.896C323.299 33.128 319.483 35.936 319.483 42.776C319.483 48.536 323.371 54.08 333.235 54.08C340.939 54.08 343.603 49.328 343.603 49.328H343.747V53ZM334.315 37.376C341.731 35.504 342.019 34.568 342.451 33.776H342.595V40.4C342.595 43.208 340.219 46.016 334.099 46.016C330.787 46.016 328.483 45.008 328.483 42.128C328.483 40.544 328.987 38.672 334.315 37.376ZM382.484 37.808C382.484 42.056 379.388 45.656 374.276 45.656C369.02 45.656 364.916 41.768 364.916 33.92C364.916 26 369.02 22.184 374.276 22.184C379.388 22.184 382.484 25.784 382.484 29.96V37.808ZM358.292 60.776C360.668 66.176 366.068 70.28 374.42 70.28C384.212 70.28 391.844 64.592 391.844 53V14.84H382.916V18.512H382.772C381.116 16.28 377.948 13.76 372.692 13.76C364.052 13.76 355.556 20.888 355.556 33.92C355.556 46.952 363.476 54.08 372.836 54.08C377.228 54.08 380.972 51.704 382.34 49.328H382.484V54.152C382.484 59.984 378.956 62.144 374.42 62.144C369.884 62.144 367.436 60.056 365.276 55.952L358.292 60.776ZM423.417 39.824C421.545 42.488 418.953 45.8 414.057 45.8C408.945 45.8 405.921 42.632 405.633 36.728H431.265V33.92C431.265 21.536 423.705 13.76 413.769 13.76C403.833 13.76 396.129 21.536 396.129 33.92C396.129 46.304 403.689 54.08 414.201 54.08C422.121 54.08 426.801 50.192 429.969 45.584L423.417 39.824ZM405.633 29.744C405.993 25.496 409.017 21.968 413.769 21.968C418.809 21.968 421.761 24.92 422.193 29.744H405.633ZM433.038 40.4C434.046 46.952 438.87 54.08 450.39 54.08C461.334 54.08 465.942 47.528 465.942 42.2C465.942 36.872 463.854 33.128 454.422 30.536C444.414 27.728 442.974 27.152 442.974 24.992C442.974 23.12 445.134 21.464 448.95 21.464C454.062 21.464 456.006 24.2 457.158 27.368L464.934 24.992C463.062 18.512 458.238 13.76 448.878 13.76C439.518 13.76 434.478 19.52 434.478 25.424C434.478 31.328 438.942 34.28 447.294 36.656C455.07 38.888 457.59 39.32 457.59 41.984C457.59 44.648 454.638 46.232 450.03 46.232C445.062 46.232 442.11 43.352 441.462 38.24L433.038 40.4Z" fill="white"/>
</svg>
