<svg width="73" height="73" viewBox="0 0 73 73" fill="none" xmlns="http://www.w3.org/2000/svg">
<circle cx="36.5" cy="36.5" r="35.5" stroke="#252525" stroke-width="2"/>
<mask id="mask0" mask-type="alpha" maskUnits="userSpaceOnUse" x="0" y="0" width="73" height="73">
<circle cx="36.5" cy="36.5" r="35.5" stroke="white" stroke-width="2"/>
</mask>
<g mask="url(#mask0)">
<path d="M36.5 37.5V-22.5L101 13L36.5 37.5Z" fill="#4A4A4A"/>
</g>
<path d="M22.225 42.195C23.954 42.195 25.644 40.908 25.644 37.424C25.644 34.291 23.954 32.705 22.225 32.705C20.496 32.705 18.806 34.239 18.806 37.372C18.806 40.856 20.457 42.195 22.225 42.195ZM22.225 41.181C21.328 41.181 20.587 40.609 20.21 39.4L24.422 36.332C24.474 36.67 24.5 37.034 24.5 37.424C24.5 40.024 23.512 41.181 22.225 41.181ZM19.95 37.372C19.95 34.85 20.925 33.732 22.225 33.732C23.096 33.732 23.824 34.265 24.214 35.383L20.015 38.451C19.976 38.126 19.95 37.762 19.95 37.372ZM27.0401 42H33.2801V41.025H30.7191V32.9H29.8481L27.2221 34.538V35.708L29.7181 34.135V41.025H27.0401V42Z" fill="white"/>
<path d="M35.3782 42.195L36.2492 42.559L40.9292 32.705L40.0582 32.315L35.3782 42.195ZM46.0302 42.195C47.7592 42.195 49.4492 40.908 49.4492 37.424C49.4492 34.291 47.7592 32.705 46.0302 32.705C44.3012 32.705 42.6112 34.239 42.6112 37.372C42.6112 40.856 44.2622 42.195 46.0302 42.195ZM46.0302 41.181C45.1332 41.181 44.3922 40.609 44.0152 39.4L48.2272 36.332C48.2792 36.67 48.3052 37.034 48.3052 37.424C48.3052 40.024 47.3172 41.181 46.0302 41.181ZM43.7552 37.372C43.7552 34.85 44.7302 33.732 46.0302 33.732C46.9012 33.732 47.6292 34.265 48.0192 35.383L43.8202 38.451C43.7812 38.126 43.7552 37.762 43.7552 37.372ZM50.7543 39.673C51.1443 41.116 52.2493 42.195 54.0043 42.195C55.8113 42.195 57.1763 40.96 57.1763 38.958C57.1763 37.086 55.8243 35.916 54.2773 35.916C53.2373 35.916 52.5223 36.345 52.1973 36.774L52.1843 36.761L52.7043 33.888H56.3703V32.9H51.8853L51.0663 37.476L52.0283 37.892C52.3533 37.385 52.9773 36.8 54.0563 36.8C55.2783 36.8 56.1233 37.593 56.1233 38.945C56.1233 40.362 55.2913 41.207 54.0043 41.207C52.7043 41.207 52.0673 40.362 51.7813 39.309L50.7543 39.673Z" fill="#4A4A4A"/>
</svg>
