<svg width="493" height="71" viewBox="0 0 493 71" fill="none" xmlns="http://www.w3.org/2000/svg">
<path d="M32.1265 32.984C31.3345 39.824 28.8145 45.08 22.2625 45.08C15.9985 45.08 10.3825 40.112 10.3825 27.008C10.3825 16.064 15.9985 10.52 22.2625 10.52C28.5985 10.52 31.2625 15.56 32.0545 20.96L41.7025 19.448C40.5505 8.288 32.4145 1.52 22.1905 1.52C11.1025 1.52 0.374538 10.232 0.374538 27.008C0.374538 46.16 10.1665 54.08 22.2625 54.08C33.4945 54.08 40.6225 46.808 42.2065 35.216L32.1265 32.984ZM46.9045 53H56.2645V32.048C56.2645 25.928 58.7845 23.336 62.8165 23.336C63.7525 23.336 64.7605 23.552 65.7685 23.912L67.2085 14.84C66.0565 14.336 64.9045 14.12 63.7525 14.12C60.3685 14.12 57.3445 16.064 55.9045 18.872H55.7605V14.84H46.9045V53ZM95.23 39.824C93.358 42.488 90.766 45.8 85.87 45.8C80.758 45.8 77.734 42.632 77.446 36.728H103.078V33.92C103.078 21.536 95.518 13.76 85.582 13.76C75.646 13.76 67.942 21.536 67.942 33.92C67.942 46.304 75.502 54.08 86.014 54.08C93.934 54.08 98.614 50.192 101.782 45.584L95.23 39.824ZM77.446 29.744C77.806 25.496 80.83 21.968 85.582 21.968C90.622 21.968 93.574 24.92 94.006 29.744H77.446ZM129.474 53H137.322V28.808C137.322 17.864 129.978 13.76 121.41 13.76C112.266 13.76 107.37 18.872 105.714 24.704L113.49 27.944C114.426 24.992 115.866 21.68 121.554 21.68C126.09 21.68 128.034 23.552 128.034 25.712C128.034 27.872 127.242 28.664 118.17 30.896C109.026 33.128 105.21 35.936 105.21 42.776C105.21 48.536 109.098 54.08 118.962 54.08C126.666 54.08 129.33 49.328 129.33 49.328H129.474V53ZM120.042 37.376C127.458 35.504 127.746 34.568 128.178 33.776H128.322V40.4C128.322 43.208 125.946 46.016 119.826 46.016C116.514 46.016 114.21 45.008 114.21 42.128C114.21 40.544 114.714 38.672 120.042 37.376ZM145.748 39.392C145.748 48.464 148.556 53 159.212 53H163.172V44H160.076C155.756 44 154.964 42.344 154.964 38.528V22.76H164.468V14.84H154.82V5.48H145.964V14.84H139.844V22.76H145.748V39.392ZM168.767 53H178.127V14.84H168.767V53ZM168.767 9.296H178.127V0.439999H168.767V9.296ZM185.294 53H194.654V29.672C194.654 25.28 197.39 22.4 201.998 22.4C207.11 22.4 208.694 25.352 208.694 30.32V53H218.054V28.016C218.054 19.016 212.942 13.76 204.518 13.76C200.27 13.76 196.382 15.992 194.438 18.512H194.294V14.84H185.294V53ZM249.29 37.808C249.29 42.056 246.194 45.656 241.082 45.656C235.826 45.656 231.722 41.768 231.722 33.92C231.722 26 235.826 22.184 241.082 22.184C246.194 22.184 249.29 25.784 249.29 29.96V37.808ZM225.098 60.776C227.474 66.176 232.874 70.28 241.226 70.28C251.018 70.28 258.65 64.592 258.65 53V14.84H249.722V18.512H249.578C247.922 16.28 244.754 13.76 239.498 13.76C230.858 13.76 222.362 20.888 222.362 33.92C222.362 46.952 230.282 54.08 239.642 54.08C244.034 54.08 247.778 51.704 249.146 49.328H249.29V54.152C249.29 59.984 245.762 62.144 241.226 62.144C236.69 62.144 234.242 60.056 232.082 55.952L225.098 60.776ZM289.935 29.96C289.935 25.784 293.031 22.184 298.143 22.184C303.399 22.184 307.503 26 307.503 33.92C307.503 41.768 303.399 45.656 298.143 45.656C293.031 45.656 289.935 42.056 289.935 37.808V29.96ZM280.575 69.2H289.935V49.328H290.079C290.079 49.328 292.743 54.08 300.087 54.08C308.943 54.08 316.863 46.952 316.863 33.92C316.863 20.888 308.367 13.76 299.943 13.76C292.455 13.76 289.647 18.512 289.647 18.512H289.503V14.84H280.575V69.2ZM321.57 53H330.93V32.048C330.93 25.928 333.45 23.336 337.482 23.336C338.418 23.336 339.426 23.552 340.434 23.912L341.874 14.84C340.722 14.336 339.57 14.12 338.418 14.12C335.034 14.12 332.01 16.064 330.57 18.872H330.426V14.84H321.57V53ZM359.058 45.656C353.802 45.656 350.418 41.696 350.418 33.92C350.418 26.144 353.946 22.184 359.058 22.184C364.17 22.184 367.698 26.288 367.698 33.92C367.698 41.552 364.314 45.656 359.058 45.656ZM359.058 54.08C369.066 54.08 376.914 46.952 376.914 33.92C376.914 20.888 368.562 13.76 359.058 13.76C349.554 13.76 341.202 20.888 341.202 33.92C341.202 46.952 349.05 54.08 359.058 54.08ZM377.303 67.04H381.263C388.319 67.04 391.127 63.224 391.127 56.744V14.84H381.767V54.152C381.767 56.024 381.047 57.32 379.031 57.32H377.303V67.04ZM381.767 9.296H391.127V0.439999H381.767V9.296ZM423.128 39.824C421.256 42.488 418.664 45.8 413.768 45.8C408.656 45.8 405.632 42.632 405.344 36.728H430.976V33.92C430.976 21.536 423.416 13.76 413.48 13.76C403.544 13.76 395.84 21.536 395.84 33.92C395.84 46.304 403.4 54.08 413.912 54.08C421.832 54.08 426.512 50.192 429.68 45.584L423.128 39.824ZM405.344 29.744C405.704 25.496 408.728 21.968 413.48 21.968C418.52 21.968 421.472 24.92 421.904 29.744H405.344ZM458.525 37.592C457.805 42.344 455.429 45.656 450.965 45.656C445.709 45.656 442.325 41.768 442.325 33.92C442.325 26 445.853 22.184 450.965 22.184C455.357 22.184 457.517 25.208 458.309 29.168L467.021 27.512C465.725 19.232 459.605 13.76 450.965 13.76C441.317 13.76 433.109 20.888 433.109 33.92C433.109 46.952 440.885 54.08 450.893 54.08C459.605 54.08 465.653 49.04 467.381 39.896L458.525 37.592ZM473.646 39.392C473.646 48.464 476.454 53 487.11 53H491.07V44H487.974C483.654 44 482.862 42.344 482.862 38.528V22.76H492.366V14.84H482.718V5.48H473.862V14.84H467.742V22.76H473.646V39.392Z" fill="white"/>
</svg>
