<svg width="590" height="71" viewBox="0 0 590 71" fill="none" xmlns="http://www.w3.org/2000/svg">
<path d="M9.87407 44V11.6H17.0021C23.2661 11.6 28.3781 15.848 28.3781 27.728C28.3781 41.624 22.8341 44 16.5701 44H9.87407ZM0.154074 53H16.5701C27.7301 53 38.8181 47.024 38.8181 27.728C38.8181 10.304 28.1621 2.6 17.0021 2.6H0.154074V53ZM65.2668 53H73.1148V28.808C73.1148 17.864 65.7708 13.76 57.2028 13.76C48.0588 13.76 43.1628 18.872 41.5068 24.704L49.2828 27.944C50.2188 24.992 51.6588 21.68 57.3468 21.68C61.8828 21.68 63.8268 23.552 63.8268 25.712C63.8268 27.872 63.0348 28.664 53.9628 30.896C44.8188 33.128 41.0028 35.936 41.0028 42.776C41.0028 48.536 44.8908 54.08 54.7548 54.08C62.4588 54.08 65.1228 49.328 65.1228 49.328H65.2668V53ZM55.8348 37.376C63.2508 35.504 63.5388 34.568 63.9708 33.776H64.1148V40.4C64.1148 43.208 61.7388 46.016 55.6188 46.016C52.3068 46.016 50.0028 45.008 50.0028 42.128C50.0028 40.544 50.5068 38.672 55.8348 37.376ZM81.1417 69.2H90.4297L112.39 14.84H102.886L93.0217 40.688H92.8777L83.0137 14.84H73.5097L88.7737 51.128L81.1417 69.2ZM145.352 45.656C140.096 45.656 136.712 41.696 136.712 33.92C136.712 26.144 140.24 22.184 145.352 22.184C150.464 22.184 153.992 26.288 153.992 33.92C153.992 41.552 150.608 45.656 145.352 45.656ZM145.352 54.08C155.36 54.08 163.208 46.952 163.208 33.92C163.208 20.888 154.856 13.76 145.352 13.76C135.848 13.76 127.496 20.888 127.496 33.92C127.496 46.952 135.344 54.08 145.352 54.08ZM167.917 53H177.277V32.048C177.277 25.928 179.797 23.336 183.829 23.336C184.765 23.336 185.773 23.552 186.781 23.912L188.221 14.84C187.069 14.336 185.917 14.12 184.765 14.12C181.381 14.12 178.357 16.064 176.917 18.872H176.773V14.84H167.917V53ZM206.594 53H215.954V29.672C215.954 25.28 218.69 22.4 223.298 22.4C228.41 22.4 229.994 25.352 229.994 30.32V53H239.354V28.016C239.354 19.016 234.242 13.76 225.818 13.76C221.57 13.76 217.682 15.992 215.738 18.512H215.594V14.84H206.594V53ZM246.183 53H255.543V14.84H246.183V53ZM246.183 9.296H255.543V0.439999H246.183V9.296ZM287.117 37.808C287.117 42.056 284.021 45.656 278.909 45.656C273.653 45.656 269.549 41.768 269.549 33.92C269.549 26 273.653 22.184 278.909 22.184C284.021 22.184 287.117 25.784 287.117 29.96V37.808ZM262.925 60.776C265.301 66.176 270.701 70.28 279.053 70.28C288.845 70.28 296.477 64.592 296.477 53V14.84H287.549V18.512H287.405C285.749 16.28 282.581 13.76 277.325 13.76C268.685 13.76 260.189 20.888 260.189 33.92C260.189 46.952 268.109 54.08 277.469 54.08C281.861 54.08 285.605 51.704 286.973 49.328H287.117V54.152C287.117 59.984 283.589 62.144 279.053 62.144C274.517 62.144 272.069 60.056 269.909 55.952L262.925 60.776ZM303.283 53H312.643V29.024C312.643 25.352 314.731 22.4 319.267 22.4C324.019 22.4 326.035 25.712 326.035 29.672V53H335.395V27.584C335.395 19.16 330.211 13.76 322.075 13.76C318.115 13.76 314.227 16.136 312.787 18.512H312.643V0.439999H303.283V53ZM344.182 39.392C344.182 48.464 346.99 53 357.646 53H361.606V44H358.51C354.19 44 353.398 42.344 353.398 38.528V22.76H362.902V14.84H353.254V5.48H344.398V14.84H338.278V22.76H344.182V39.392ZM382.322 53H391.394V28.304C391.394 24.992 393.482 22.4 397.946 22.4C402.41 22.4 404.57 25.352 404.57 28.808V53H413.138V28.304C413.138 24.992 415.298 22.4 419.69 22.4C424.514 22.4 426.314 25.352 426.314 28.808V53H434.882V26.864C434.882 19.16 429.338 13.76 420.05 13.76C415.658 13.76 411.986 15.992 410.114 18.8H409.97C408.17 15.92 404.354 13.76 400.25 13.76C396.146 13.76 392.69 15.92 391.034 18.512H390.89V14.84H382.322V53ZM457.075 45.656C451.819 45.656 448.435 41.696 448.435 33.92C448.435 26.144 451.963 22.184 457.075 22.184C462.187 22.184 465.715 26.288 465.715 33.92C465.715 41.552 462.331 45.656 457.075 45.656ZM457.075 54.08C467.083 54.08 474.931 46.952 474.931 33.92C474.931 20.888 466.579 13.76 457.075 13.76C447.571 13.76 439.219 20.888 439.219 33.92C439.219 46.952 447.067 54.08 457.075 54.08ZM503.328 37.376C503.328 41.768 500.376 45.656 495.12 45.656C489.792 45.656 486.48 41.768 486.48 33.92C486.48 26 489.792 22.184 495.12 22.184C500.376 22.184 503.328 26 503.328 30.392V37.376ZM503.904 53H512.688V0.439999H503.328V18.512H503.184C503.184 18.512 500.376 13.76 493.536 13.76C485.328 13.76 477.12 20.888 477.12 33.92C477.12 46.16 483.6 54.08 493.68 54.08C500.664 54.08 503.76 49.328 503.76 49.328H503.904V53ZM544.63 39.824C542.758 42.488 540.166 45.8 535.27 45.8C530.158 45.8 527.134 42.632 526.846 36.728H552.478V33.92C552.478 21.536 544.918 13.76 534.982 13.76C525.046 13.76 517.342 21.536 517.342 33.92C517.342 46.304 524.902 54.08 535.414 54.08C543.334 54.08 548.014 50.192 551.182 45.584L544.63 39.824ZM526.846 29.744C527.206 25.496 530.23 21.968 534.982 21.968C540.022 21.968 542.974 24.92 543.406 29.744H526.846ZM566.634 36.656H575.346V34.928C575.346 31.256 578.514 29.744 581.898 27.728C585.57 25.496 589.458 22.688 589.458 15.632C589.458 7.64 582.258 1.52 572.25 1.52C559.65 1.52 553.818 9.08 553.53 19.304L563.034 20.096C563.322 15.128 565.05 10.52 571.962 10.52C577.362 10.52 579.738 13.4 579.738 16.352C579.738 20.456 576.858 22.04 573.834 23.912C570.378 26 566.634 28.448 566.634 34.424V36.656ZM566.058 53H576.786V42.776H566.058V53Z" fill="white"/>
</svg>
