<svg width="73" height="73" viewBox="0 0 73 73" fill="none" xmlns="http://www.w3.org/2000/svg">
<circle cx="36.5" cy="36.5" r="35.5" stroke="#9C9C9C" stroke-width="2"/>
<mask id="mask0" mask-type="alpha" maskUnits="userSpaceOnUse" x="0" y="0" width="73" height="73">
<circle cx="36.5" cy="36.5" r="35.5" stroke="white" stroke-width="2"/>
</mask>
<g mask="url(#mask0)">
<path d="M36.5 37.5V-22.5L101 13L36.5 37.5Z" fill="#4A4A4A"/>
</g>
<path d="M22.225 42.195C23.954 42.195 25.644 40.908 25.644 37.424C25.644 34.291 23.954 32.705 22.225 32.705C20.496 32.705 18.806 34.239 18.806 37.372C18.806 40.856 20.457 42.195 22.225 42.195ZM22.225 41.181C21.328 41.181 20.587 40.609 20.21 39.4L24.422 36.332C24.474 36.67 24.5 37.034 24.5 37.424C24.5 40.024 23.512 41.181 22.225 41.181ZM19.95 37.372C19.95 34.85 20.925 33.732 22.225 33.732C23.096 33.732 23.824 34.265 24.214 35.383L20.015 38.451C19.976 38.126 19.95 37.762 19.95 37.372ZM27.0401 42H33.2801V41.025H30.7191V32.9H29.8481L27.2221 34.538V35.708L29.7181 34.135V41.025H27.0401V42Z" fill="black"/>
<path d="M35.3782 42.195L36.2492 42.559L40.9292 32.705L40.0582 32.315L35.3782 42.195ZM46.0302 42.195C47.7592 42.195 49.4492 40.908 49.4492 37.424C49.4492 34.291 47.7592 32.705 46.0302 32.705C44.3012 32.705 42.6112 34.239 42.6112 37.372C42.6112 40.856 44.2622 42.195 46.0302 42.195ZM46.0302 41.181C45.1332 41.181 44.3922 40.609 44.0152 39.4L48.2272 36.332C48.2792 36.67 48.3052 37.034 48.3052 37.424C48.3052 40.024 47.3172 41.181 46.0302 41.181ZM43.7552 37.372C43.7552 34.85 44.7302 33.732 46.0302 33.732C46.9012 33.732 47.6292 34.265 48.0192 35.383L43.8202 38.451C43.7812 38.126 43.7552 37.762 43.7552 37.372ZM50.3903 39.894H55.1093V42H56.1493V39.894H57.2803V38.906H56.1493V32.9H54.5113L50.3903 38.919V39.894ZM51.5473 38.906L55.0833 33.719H55.1093V38.906H51.5473Z" fill="#9C9C9C"/>
</svg>
