<svg width="660" height="436" viewBox="0 0 660 436" fill="none" xmlns="http://www.w3.org/2000/svg">
<rect y="63" width="660" height="373" fill="url(#paint0_linear)"/>
<path d="M0 3.48621C0 1.56083 1.56083 0 3.48621 0H656.514C658.439 0 660 1.56083 660 3.48621V12H0V3.48621Z" fill="#CECECE"/>
<circle cx="9.2267" cy="6.40639" r="2.65737" fill="white"/>
<circle cx="17.5248" cy="6.40639" r="2.65737" fill="white"/>
<circle cx="25.8231" cy="6.40639" r="2.65737" fill="white"/>
<rect y="12" width="660" height="51" fill="black"/>
<path d="M263.416 35.4238C263.416 36.3633 263.094 37.0869 262.451 37.5947C261.812 38.0983 260.896 38.3501 259.702 38.3501H258.61V42H257.531V32.7197H259.937C262.256 32.7197 263.416 33.6211 263.416 35.4238ZM258.61 37.4233H259.582C260.538 37.4233 261.23 37.2689 261.657 36.96C262.085 36.651 262.298 36.1559 262.298 35.4746C262.298 34.861 262.097 34.404 261.695 34.1035C261.293 33.8031 260.667 33.6528 259.816 33.6528H258.61V37.4233ZM272.498 42L271.343 39.0483H267.623L266.48 42H265.388L269.057 32.6816H269.965L273.615 42H272.498ZM271.006 38.0771L269.927 35.2017C269.787 34.8377 269.644 34.3913 269.495 33.8623C269.402 34.2686 269.269 34.715 269.096 35.2017L268.004 38.0771H271.006ZM280.272 37.1377H283.427V41.6509C282.936 41.8075 282.437 41.9259 281.929 42.0063C281.421 42.0868 280.833 42.127 280.165 42.127C278.76 42.127 277.666 41.7101 276.883 40.8765C276.1 40.0386 275.708 38.8664 275.708 37.3599C275.708 36.395 275.901 35.5508 276.286 34.8271C276.675 34.0993 277.234 33.5449 277.962 33.1641C278.69 32.779 279.542 32.5864 280.52 32.5864C281.51 32.5864 282.433 32.7684 283.288 33.1323L282.869 34.0845C282.031 33.729 281.225 33.5513 280.45 33.5513C279.32 33.5513 278.438 33.8877 277.803 34.5605C277.168 35.2334 276.851 36.1665 276.851 37.3599C276.851 38.6125 277.156 39.5625 277.765 40.21C278.379 40.8574 279.278 41.1812 280.463 41.1812C281.106 41.1812 281.735 41.1071 282.348 40.959V38.1025H280.272V37.1377ZM292.135 42H286.962V32.7197H292.135V33.6782H288.041V36.668H291.887V37.6201H288.041V41.0352H292.135V42ZM300.735 39.5308C300.735 40.3475 300.439 40.9844 299.846 41.4414C299.254 41.8984 298.45 42.127 297.434 42.127C296.334 42.127 295.487 41.9852 294.895 41.7017V40.6606C295.276 40.8215 295.69 40.9484 296.139 41.0415C296.588 41.1346 297.032 41.1812 297.472 41.1812C298.191 41.1812 298.733 41.0457 299.097 40.7749C299.461 40.4998 299.643 40.119 299.643 39.6323C299.643 39.3107 299.577 39.0483 299.446 38.8452C299.319 38.6379 299.103 38.4474 298.799 38.2739C298.498 38.1004 298.039 37.9036 297.421 37.6836C296.558 37.3747 295.94 37.0086 295.568 36.5854C295.2 36.1623 295.016 35.61 295.016 34.9287C295.016 34.2135 295.284 33.6444 295.822 33.2212C296.359 32.798 297.07 32.5864 297.954 32.5864C298.877 32.5864 299.725 32.7557 300.5 33.0942L300.163 34.0337C299.398 33.7121 298.653 33.5513 297.929 33.5513C297.358 33.5513 296.911 33.674 296.59 33.9194C296.268 34.1649 296.107 34.5055 296.107 34.9414C296.107 35.263 296.167 35.5275 296.285 35.7349C296.404 35.938 296.602 36.1263 296.882 36.2998C297.165 36.4691 297.597 36.6574 298.177 36.8647C299.15 37.2118 299.819 37.5841 300.183 37.9819C300.551 38.3797 300.735 38.896 300.735 39.5308Z" fill="white" fill-opacity="0.5"/>
<path d="M342.556 35.4238C342.556 36.3633 342.234 37.0869 341.591 37.5947C340.952 38.0983 340.036 38.3501 338.842 38.3501H337.75V42H336.671V32.7197H339.077C341.396 32.7197 342.556 33.6211 342.556 35.4238ZM337.75 37.4233H338.722C339.678 37.4233 340.37 37.2689 340.797 36.96C341.225 36.651 341.438 36.1559 341.438 35.4746C341.438 34.861 341.237 34.404 340.835 34.1035C340.433 33.8031 339.807 33.6528 338.957 33.6528H337.75V37.4233ZM346.883 38.1406V42H345.804V32.7197H348.35C349.488 32.7197 350.328 32.9377 350.87 33.3735C351.416 33.8094 351.689 34.4653 351.689 35.3413C351.689 36.5685 351.067 37.3979 349.822 37.8296L352.342 42H351.067L348.82 38.1406H346.883ZM346.883 37.2139H348.362C349.124 37.2139 349.683 37.0636 350.038 36.7632C350.394 36.4585 350.571 36.0036 350.571 35.3984C350.571 34.7848 350.39 34.3426 350.026 34.0718C349.666 33.8009 349.086 33.6655 348.286 33.6655H346.883V37.2139ZM363.196 37.3472C363.196 38.8325 362.819 40.0005 362.066 40.8511C361.317 41.7017 360.274 42.127 358.936 42.127C357.57 42.127 356.514 41.7101 355.769 40.8765C355.028 40.0386 354.658 38.8579 354.658 37.3345C354.658 35.8237 355.03 34.6536 355.775 33.8242C356.52 32.9906 357.578 32.5737 358.949 32.5737C360.282 32.5737 361.323 32.9969 362.072 33.8433C362.821 34.6896 363.196 35.8576 363.196 37.3472ZM355.801 37.3472C355.801 38.604 356.067 39.5583 356.6 40.21C357.138 40.8574 357.917 41.1812 358.936 41.1812C359.965 41.1812 360.741 40.8574 361.266 40.21C361.791 39.5625 362.053 38.6082 362.053 37.3472C362.053 36.0988 361.791 35.153 361.266 34.5098C360.745 33.8623 359.973 33.5386 358.949 33.5386C357.921 33.5386 357.138 33.8644 356.6 34.5161C356.067 35.1636 355.801 36.1073 355.801 37.3472ZM365.219 44.4438C364.822 44.4438 364.508 44.3867 364.28 44.2725V43.3521C364.58 43.4367 364.893 43.479 365.219 43.479C365.638 43.479 365.956 43.3521 366.171 43.0981C366.392 42.8442 366.502 42.4782 366.502 42V32.7197H367.581V41.9111C367.581 42.7152 367.378 43.3372 366.971 43.7773C366.565 44.2217 365.981 44.4438 365.219 44.4438ZM376.523 42H371.35V32.7197H376.523V33.6782H372.429V36.668H376.276V37.6201H372.429V41.0352H376.523V42ZM383.86 33.5513C382.84 33.5513 382.034 33.8919 381.441 34.5732C380.853 35.2503 380.559 36.1792 380.559 37.3599C380.559 38.5744 380.843 39.5138 381.41 40.1782C381.981 40.8384 382.793 41.1685 383.847 41.1685C384.495 41.1685 385.233 41.0521 386.062 40.8193V41.7651C385.419 42.0063 384.626 42.127 383.682 42.127C382.315 42.127 381.259 41.7122 380.515 40.8828C379.774 40.0534 379.404 38.8748 379.404 37.3472C379.404 36.3908 379.582 35.5529 379.937 34.8335C380.297 34.1141 380.813 33.5597 381.486 33.1704C382.163 32.7811 382.958 32.5864 383.873 32.5864C384.846 32.5864 385.696 32.7642 386.424 33.1196L385.967 34.0464C385.265 33.7163 384.562 33.5513 383.86 33.5513ZM392.244 42H391.165V33.6782H388.226V32.7197H395.183V33.6782H392.244V42ZM403.122 39.5308C403.122 40.3475 402.826 40.9844 402.234 41.4414C401.641 41.8984 400.837 42.127 399.822 42.127C398.721 42.127 397.875 41.9852 397.283 41.7017V40.6606C397.663 40.8215 398.078 40.9484 398.527 41.0415C398.975 41.1346 399.42 41.1812 399.86 41.1812C400.579 41.1812 401.121 41.0457 401.485 40.7749C401.849 40.4998 402.031 40.119 402.031 39.6323C402.031 39.3107 401.965 39.0483 401.834 38.8452C401.707 38.6379 401.491 38.4474 401.186 38.2739C400.886 38.1004 400.427 37.9036 399.809 37.6836C398.946 37.3747 398.328 37.0086 397.955 36.5854C397.587 36.1623 397.403 35.61 397.403 34.9287C397.403 34.2135 397.672 33.6444 398.209 33.2212C398.747 32.798 399.458 32.5864 400.342 32.5864C401.265 32.5864 402.113 32.7557 402.888 33.0942L402.551 34.0337C401.785 33.7121 401.04 33.5513 400.317 33.5513C399.745 33.5513 399.299 33.674 398.977 33.9194C398.656 34.1649 398.495 34.5055 398.495 34.9414C398.495 35.263 398.554 35.5275 398.673 35.7349C398.791 35.938 398.99 36.1263 399.269 36.2998C399.553 36.4691 399.985 36.6574 400.564 36.8647C401.538 37.2118 402.206 37.5841 402.57 37.9819C402.938 38.3797 403.122 38.896 403.122 39.5308Z" fill="white"/>
<path d="M61.5654 109.449H54.0244L51.4346 116H50L57.4648 97.3633H58.29L65.6025 116H64.1426L61.5654 109.449ZM54.4941 108.281H61.1338L58.6074 101.591C58.3958 101.066 58.1419 100.338 57.8457 99.4072C57.6172 100.22 57.3675 100.956 57.0967 101.616L54.4941 108.281ZM69.1826 116H67.9258V96.2461H69.1826V116ZM75.0732 116H73.8164V96.2461H75.0732V116ZM92.3643 116.254C90.2399 116.254 88.6911 115.458 87.7178 113.867H87.6289L87.667 114.934C87.7008 115.56 87.7178 116.245 87.7178 116.99V122.246H86.4609V102.2H87.5273L87.7686 104.168H87.8447C88.7926 102.678 90.3076 101.934 92.3896 101.934C94.2516 101.934 95.6693 102.547 96.6426 103.774C97.6243 104.993 98.1152 106.771 98.1152 109.106C98.1152 111.375 97.599 113.135 96.5664 114.388C95.5423 115.632 94.1416 116.254 92.3643 116.254ZM92.3389 115.137C93.7523 115.137 94.8441 114.612 95.6143 113.562C96.3929 112.513 96.7822 111.045 96.7822 109.157C96.7822 105.103 95.318 103.076 92.3896 103.076C90.7816 103.076 89.6009 103.521 88.8477 104.409C88.0944 105.289 87.7178 106.728 87.7178 108.726V109.132C87.7178 111.29 88.0775 112.83 88.7969 113.753C89.5247 114.675 90.7054 115.137 92.3389 115.137ZM107.383 101.934C107.967 101.934 108.593 101.993 109.262 102.111L109.021 103.317C108.445 103.174 107.848 103.102 107.23 103.102C106.054 103.102 105.089 103.601 104.336 104.6C103.583 105.598 103.206 106.859 103.206 108.383V116H101.949V102.2H103.016L103.143 104.688H103.231C103.799 103.673 104.404 102.962 105.047 102.556C105.69 102.141 106.469 101.934 107.383 101.934ZM123.493 109.081C123.493 111.332 122.947 113.093 121.855 114.362C120.764 115.623 119.257 116.254 117.336 116.254C116.126 116.254 115.059 115.962 114.137 115.378C113.214 114.794 112.507 113.956 112.017 112.864C111.526 111.772 111.28 110.511 111.28 109.081C111.28 106.83 111.826 105.078 112.918 103.825C114.01 102.564 115.508 101.934 117.412 101.934C119.308 101.934 120.793 102.573 121.868 103.851C122.951 105.12 123.493 106.864 123.493 109.081ZM112.601 109.081C112.601 110.977 113.015 112.458 113.845 113.524C114.683 114.582 115.863 115.111 117.387 115.111C118.91 115.111 120.087 114.582 120.916 113.524C121.754 112.458 122.173 110.977 122.173 109.081C122.173 107.177 121.75 105.7 120.903 104.65C120.065 103.601 118.885 103.076 117.361 103.076C115.838 103.076 114.661 103.601 113.832 104.65C113.011 105.691 112.601 107.168 112.601 109.081ZM125.474 122.246C124.797 122.246 124.225 122.14 123.76 121.929V120.837C124.344 121.006 124.89 121.091 125.397 121.091C126.675 121.091 127.314 120.346 127.314 118.856V102.2H128.571V118.679C128.571 119.821 128.3 120.701 127.759 121.319C127.226 121.937 126.464 122.246 125.474 122.246ZM127.137 98.3662C127.137 97.5537 127.403 97.1475 127.937 97.1475C128.199 97.1475 128.402 97.2533 128.546 97.4648C128.698 97.6764 128.774 97.9769 128.774 98.3662C128.774 98.7471 128.698 99.0475 128.546 99.2676C128.402 99.4876 128.199 99.5977 127.937 99.5977C127.403 99.5977 127.137 99.1872 127.137 98.3662ZM138.778 116.254C136.772 116.254 135.207 115.636 134.081 114.4C132.964 113.165 132.405 111.434 132.405 109.208C132.405 107.007 132.947 105.247 134.03 103.927C135.114 102.598 136.574 101.934 138.41 101.934C140.035 101.934 141.317 102.501 142.257 103.635C143.196 104.769 143.666 106.309 143.666 108.256V109.271H133.726C133.743 111.167 134.183 112.615 135.046 113.613C135.918 114.612 137.162 115.111 138.778 115.111C139.565 115.111 140.255 115.056 140.848 114.946C141.449 114.836 142.206 114.599 143.12 114.235V115.378C142.341 115.716 141.622 115.945 140.962 116.063C140.302 116.19 139.574 116.254 138.778 116.254ZM138.41 103.051C137.081 103.051 136.015 103.491 135.211 104.371C134.407 105.243 133.937 106.504 133.802 108.154H142.333C142.333 106.555 141.986 105.306 141.292 104.409C140.598 103.504 139.637 103.051 138.41 103.051ZM152.984 116.254C151.012 116.254 149.468 115.632 148.351 114.388C147.233 113.144 146.675 111.409 146.675 109.183C146.675 106.897 147.255 105.12 148.414 103.851C149.574 102.573 151.16 101.934 153.175 101.934C154.368 101.934 155.511 102.141 156.603 102.556L156.26 103.673C155.066 103.275 154.03 103.076 153.149 103.076C151.457 103.076 150.174 103.601 149.303 104.65C148.431 105.691 147.995 107.194 147.995 109.157C147.995 111.019 148.431 112.479 149.303 113.537C150.174 114.587 151.393 115.111 152.959 115.111C154.212 115.111 155.375 114.887 156.45 114.438V115.606C155.57 116.038 154.415 116.254 152.984 116.254ZM163.483 115.137C164.279 115.137 164.973 115.069 165.565 114.934V115.949C164.956 116.152 164.254 116.254 163.458 116.254C162.239 116.254 161.338 115.928 160.754 115.276C160.178 114.625 159.891 113.601 159.891 112.204V103.292H157.847V102.556L159.891 101.984L160.525 98.8613H161.173V102.2H165.223V103.292H161.173V112.026C161.173 113.084 161.359 113.867 161.731 114.375C162.104 114.883 162.688 115.137 163.483 115.137ZM177.105 112.407C177.105 113.643 176.636 114.595 175.696 115.264C174.757 115.924 173.424 116.254 171.697 116.254C169.852 116.254 168.388 115.97 167.305 115.403V114.045C168.693 114.739 170.157 115.086 171.697 115.086C173.06 115.086 174.092 114.862 174.795 114.413C175.506 113.956 175.861 113.351 175.861 112.598C175.861 111.904 175.578 111.32 175.011 110.846C174.452 110.372 173.53 109.906 172.243 109.449C170.864 108.95 169.895 108.522 169.336 108.167C168.777 107.803 168.354 107.397 168.066 106.948C167.787 106.491 167.647 105.937 167.647 105.285C167.647 104.253 168.079 103.436 168.942 102.835C169.814 102.234 171.029 101.934 172.586 101.934C174.076 101.934 175.489 102.213 176.826 102.771L176.356 103.914C175.002 103.355 173.745 103.076 172.586 103.076C171.46 103.076 170.567 103.262 169.907 103.635C169.247 104.007 168.917 104.523 168.917 105.184C168.917 105.903 169.171 106.479 169.679 106.91C170.195 107.342 171.198 107.824 172.688 108.357C173.932 108.806 174.837 109.212 175.404 109.576C175.971 109.932 176.395 110.338 176.674 110.795C176.962 111.252 177.105 111.789 177.105 112.407Z" fill="black"/>
<defs>
<linearGradient id="paint0_linear" x1="330" y1="63" x2="330" y2="393.145" gradientUnits="userSpaceOnUse">
<stop offset="0.802083" stop-color="white"/>
<stop offset="1" stop-color="#F6F6F6"/>
</linearGradient>
</defs>
</svg>
