<svg width="483" height="189" viewBox="0 0 483 189" fill="none" xmlns="http://www.w3.org/2000/svg">
<path d="M13.3547 71H26.7947L40.7148 29.24H41.2907L55.1147 71H68.5548L81.6108 3.8H68.7467L60.1068 49.496H59.8188L44.3627 3.8H37.8348L22.3787 49.496H22.0907L13.4507 3.8H0.298747L13.3547 71ZM117.51 53.432C115.014 56.984 111.558 61.4 105.03 61.4C98.2143 61.4 94.1823 57.176 93.7983 49.304H127.974V45.56C127.974 29.048 117.894 18.68 104.646 18.68C91.3983 18.68 81.1263 29.048 81.1263 45.56C81.1263 62.072 91.2063 72.44 105.222 72.44C115.782 72.44 122.022 67.256 126.246 61.112L117.51 53.432ZM93.7983 39.992C94.2783 34.328 98.3103 29.624 104.646 29.624C111.366 29.624 115.302 33.56 115.878 39.992H93.7983ZM134.178 71H147.138V0.919998H134.178V71ZM187.303 50.456C186.343 56.792 183.175 61.208 177.223 61.208C170.215 61.208 165.703 56.024 165.703 45.56C165.703 35 170.407 29.912 177.223 29.912C183.079 29.912 185.959 33.944 187.015 39.224L198.631 37.016C196.903 25.976 188.743 18.68 177.223 18.68C164.359 18.68 153.415 28.184 153.415 45.56C153.415 62.936 163.783 72.44 177.127 72.44C188.743 72.44 196.807 65.72 199.111 53.528L187.303 50.456ZM225.32 61.208C218.312 61.208 213.8 55.928 213.8 45.56C213.8 35.192 218.504 29.912 225.32 29.912C232.136 29.912 236.84 35.384 236.84 45.56C236.84 55.736 232.328 61.208 225.32 61.208ZM225.32 72.44C238.664 72.44 249.128 62.936 249.128 45.56C249.128 28.184 237.992 18.68 225.32 18.68C212.648 18.68 201.512 28.184 201.512 45.56C201.512 62.936 211.976 72.44 225.32 72.44ZM255.408 71H267.504V38.072C267.504 33.656 270.288 30.2 276.24 30.2C282.192 30.2 285.072 34.136 285.072 38.744V71H296.496V38.072C296.496 33.656 299.375 30.2 305.232 30.2C311.664 30.2 314.064 34.136 314.064 38.744V71H325.488V36.152C325.488 25.88 318.096 18.68 305.712 18.68C299.856 18.68 294.96 21.656 292.464 25.4H292.272C289.872 21.56 284.784 18.68 279.312 18.68C273.84 18.68 269.232 21.56 267.024 25.016H266.832V20.12H255.408V71ZM367.654 53.432C365.158 56.984 361.702 61.4 355.174 61.4C348.358 61.4 344.326 57.176 343.942 49.304H378.118V45.56C378.118 29.048 368.038 18.68 354.79 18.68C341.542 18.68 331.27 29.048 331.27 45.56C331.27 62.072 341.35 72.44 355.366 72.44C365.926 72.44 372.166 67.256 376.39 61.112L367.654 53.432ZM343.942 39.992C344.422 34.328 348.454 29.624 354.79 29.624C361.51 29.624 365.446 33.56 366.022 39.992H343.942ZM407.073 52.856C407.073 64.952 410.817 71 425.025 71H430.305V59H426.177C420.417 59 419.361 56.792 419.361 51.704V30.68H432.033V20.12H419.169V7.64H407.361V20.12H399.201V30.68H407.073V52.856ZM458.214 61.208C451.206 61.208 446.694 55.928 446.694 45.56C446.694 35.192 451.398 29.912 458.214 29.912C465.03 29.912 469.734 35.384 469.734 45.56C469.734 55.736 465.222 61.208 458.214 61.208ZM458.214 72.44C471.558 72.44 482.022 62.936 482.022 45.56C482.022 28.184 470.886 18.68 458.214 18.68C445.542 18.68 434.406 28.184 434.406 45.56C434.406 62.936 444.87 72.44 458.214 72.44ZM51.175 144.536C53.191 160.664 63.175 168.44 78.151 168.44C93.415 168.44 102.823 159.512 102.823 147.8C102.823 138.008 98.599 132.632 83.431 127.448C68.551 122.36 66.343 121.4 66.343 117.368C66.343 113.336 69.319 110.36 76.231 110.36C83.815 110.36 86.983 114.68 88.615 119.864L101.191 116.696C98.791 103.832 88.039 98.36 76.231 98.36C61.639 98.36 53.575 107.576 53.575 117.464C53.575 126.2 58.279 132.344 72.775 136.856C87.847 141.56 90.151 143.384 90.151 148.664C90.151 153.944 85.159 156.44 78.151 156.44C69.223 156.44 66.343 151.448 64.807 141.56L51.175 144.536ZM141.094 149.432C138.598 152.984 135.142 157.4 128.614 157.4C121.798 157.4 117.766 153.176 117.382 145.304H151.558V141.56C151.558 125.048 141.478 114.68 128.23 114.68C114.982 114.68 104.71 125.048 104.71 141.56C104.71 158.072 114.79 168.44 128.806 168.44C139.366 168.44 145.606 163.256 149.83 157.112L141.094 149.432ZM117.382 135.992C117.862 130.328 121.894 125.624 128.23 125.624C134.95 125.624 138.886 129.56 139.462 135.992H117.382ZM157.761 167H169.857V134.072C169.857 129.656 172.641 126.2 178.593 126.2C184.545 126.2 187.425 130.136 187.425 134.744V167H198.849V134.072C198.849 129.656 201.729 126.2 207.585 126.2C214.017 126.2 216.417 130.136 216.417 134.744V167H227.841V132.152C227.841 121.88 220.449 114.68 208.065 114.68C202.209 114.68 197.313 117.656 194.817 121.4H194.625C192.225 117.56 187.137 114.68 181.665 114.68C176.193 114.68 171.585 117.56 169.377 121.016H169.185V116.12H157.761V167ZM249.464 136.28C249.464 130.712 253.592 125.912 260.408 125.912C267.416 125.912 272.888 131 272.888 141.56C272.888 152.024 267.416 157.208 260.408 157.208C253.592 157.208 249.464 152.408 249.464 146.744V136.28ZM236.984 188.6H249.464V162.104H249.656C249.656 162.104 253.208 168.44 263 168.44C274.808 168.44 285.368 158.936 285.368 141.56C285.368 124.184 274.04 114.68 262.808 114.68C252.824 114.68 249.08 121.016 249.08 121.016H248.888V116.12H236.984V188.6ZM291.644 167H304.604V96.92H291.644V167ZM314.241 167H326.721V116.12H314.241V167ZM314.241 108.728H326.721V96.92H314.241V108.728ZM366.804 146.456C365.844 152.792 362.676 157.208 356.724 157.208C349.716 157.208 345.204 152.024 345.204 141.56C345.204 131 349.908 125.912 356.724 125.912C362.58 125.912 365.46 129.944 366.516 135.224L378.132 133.016C376.404 121.976 368.244 114.68 356.724 114.68C343.86 114.68 332.916 124.184 332.916 141.56C332.916 158.936 343.284 168.44 356.628 168.44C368.244 168.44 376.308 161.72 378.612 149.528L366.804 146.456ZM417.398 149.432C414.902 152.984 411.446 157.4 404.918 157.4C398.102 157.4 394.07 153.176 393.686 145.304H427.862V141.56C427.862 125.048 417.782 114.68 404.534 114.68C391.286 114.68 381.014 125.048 381.014 141.56C381.014 158.072 391.094 168.44 405.11 168.44C415.67 168.44 421.91 163.256 426.134 157.112L417.398 149.432ZM393.686 135.992C394.166 130.328 398.198 125.624 404.534 125.624C411.254 125.624 415.19 129.56 415.766 135.992H393.686Z" fill="white"/>
</svg>
