<svg width="506" height="58" viewBox="0 0 506 58" fill="none" xmlns="http://www.w3.org/2000/svg">
<path d="M7.60928 18.36C11.3773 18.36 14.0173 15.864 14.0173 11.376V9.96H7.80128V11.472H12.4093C12.4813 14.808 10.6333 16.848 7.60928 16.848C4.53728 16.848 2.23328 14.376 2.23328 9.456C2.23328 4.536 4.70528 2.352 7.60928 2.352C10.3933 2.352 11.6653 4.296 12.1693 6.624L13.8253 6.312C13.2493 3.168 10.9453 0.839999 7.60928 0.839999C3.98528 0.839999 0.553281 3.672 0.553281 9.456C0.553281 15.888 4.00928 18.36 7.60928 18.36ZM17.6092 18H19.1692V9.72C19.1692 7.632 20.2252 6.696 21.5692 6.696C22.3132 6.696 22.5772 6.888 22.5772 6.888L22.8892 5.304C22.8892 5.304 22.5292 5.064 21.8092 5.064C20.8972 5.064 19.7452 5.52 19.1692 6.648H19.1212V5.28H17.6092V18ZM34.9307 14.256C34.5467 15.072 33.7307 16.92 30.8747 16.92C27.9227 16.92 26.6267 14.448 26.6267 12.096H36.5147V11.64C36.5147 7.344 34.1867 4.92 30.8267 4.92C27.4667 4.92 25.0427 7.512 25.0427 11.64C25.0427 15.768 27.5387 18.36 30.9227 18.36C33.7307 18.36 35.5067 16.68 36.2507 14.976L34.9307 14.256ZM26.6747 10.776C26.6747 9.192 27.7067 6.36 30.8267 6.36C33.9467 6.36 34.9067 8.856 34.9067 10.776H26.6747ZM47.408 18H48.848V9.264C48.848 6.144 47 4.92 44.264 4.92C41.576 4.92 39.92 6.528 39.608 8.712L41.096 9.048C41.408 7.464 42.32 6.36 44.336 6.36C46.376 6.36 47.168 7.344 47.168 8.448C47.168 9.864 45.44 10.272 43.4 10.8C40.28 11.592 39.152 12.72 39.152 14.784C39.152 16.728 40.472 18.36 43.328 18.36C45.512 18.36 46.904 17.376 47.36 16.536H47.408V18ZM43.808 12.072C46.472 11.328 47.072 10.872 47.24 10.464H47.288V13.968C47.288 15.528 45.992 16.92 43.448 16.92C41.288 16.92 40.712 15.912 40.712 14.688C40.712 13.464 41.336 12.768 43.808 12.072ZM53.3855 14.568C53.3855 16.728 54.3215 18 56.4335 18H57.3935V16.464H56.4815C55.2095 16.464 54.9455 15.816 54.9455 14.352V6.72H58.0655V5.28H54.9455V2.16H53.4335V5.28H51.6095V6.72H53.3855V14.568ZM75.9099 13.224C75.6699 14.952 74.6619 16.92 72.2859 16.92C69.7419 16.92 68.1339 15.024 68.1339 11.64C68.1339 8.256 69.8619 6.36 72.3099 6.36C74.5659 6.36 75.6219 8.088 75.9099 9.864L77.4459 9.624C77.1579 6.864 74.9979 4.92 72.2859 4.92C69.1419 4.92 66.5739 7.296 66.5739 11.64C66.5739 15.984 68.9499 18.36 72.2859 18.36C75.1899 18.36 77.1819 16.2 77.4699 13.512L75.9099 13.224ZM80.8202 18H82.3802V10.008C82.3802 7.632 84.0122 6.36 86.1002 6.36C88.3082 6.36 89.1722 7.824 89.1722 10.224V18H90.7322V9.744C90.7322 6.456 88.8362 4.92 86.2682 4.92C84.6362 4.92 83.1962 5.664 82.4282 6.648H82.3802V0.48H80.8202V18ZM99.8015 16.92C97.5455 16.92 95.6495 15.144 95.6495 11.64C95.6495 8.136 97.4975 6.36 99.8015 6.36C102.058 6.36 103.834 8.208 103.834 11.64C103.834 15.072 101.986 16.92 99.8015 16.92ZM99.8015 18.36C102.946 18.36 105.394 15.984 105.394 11.64C105.394 7.296 102.778 4.92 99.8015 4.92C96.7535 4.92 94.0895 7.296 94.0895 11.64C94.0895 15.984 96.6095 18.36 99.8015 18.36ZM109.067 18H110.627V5.28H109.067V18ZM108.875 3.192H110.819V1.2H108.875V3.192ZM123.629 13.224C123.389 14.952 122.381 16.92 120.005 16.92C117.461 16.92 115.853 15.024 115.853 11.64C115.853 8.256 117.581 6.36 120.029 6.36C122.285 6.36 123.341 8.088 123.629 9.864L125.165 9.624C124.877 6.864 122.717 4.92 120.005 4.92C116.861 4.92 114.293 7.296 114.293 11.64C114.293 15.984 116.669 18.36 120.005 18.36C122.909 18.36 124.901 16.2 125.189 13.512L123.629 13.224ZM137.587 14.256C137.203 15.072 136.387 16.92 133.531 16.92C130.579 16.92 129.283 14.448 129.283 12.096H139.171V11.64C139.171 7.344 136.843 4.92 133.483 4.92C130.123 4.92 127.699 7.512 127.699 11.64C127.699 15.768 130.195 18.36 133.579 18.36C136.387 18.36 138.163 16.68 138.907 14.976L137.587 14.256ZM129.331 10.776C129.331 9.192 130.363 6.36 133.483 6.36C136.603 6.36 137.563 8.856 137.563 10.776H129.331ZM143.632 13.176H145.192V1.2H143.632V13.176ZM143.128 18H145.672V15.456H143.128V18ZM160.34 18H161.828V10.92L167.372 1.2H165.62L161.132 9.432H161.06L156.548 1.2H154.796L160.34 10.92V18ZM172.973 16.92C170.717 16.92 168.821 15.144 168.821 11.64C168.821 8.136 170.669 6.36 172.973 6.36C175.229 6.36 177.005 8.208 177.005 11.64C177.005 15.072 175.157 16.92 172.973 16.92ZM172.973 18.36C176.117 18.36 178.565 15.984 178.565 11.64C178.565 7.296 175.949 4.92 172.973 4.92C169.925 4.92 167.261 7.296 167.261 11.64C167.261 15.984 169.781 18.36 172.973 18.36ZM181.927 13.584C181.927 17.016 183.871 18.36 186.463 18.36C188.935 18.36 189.919 16.776 189.919 16.776H189.967V18H191.527V5.28H189.967V13.272C189.967 15.456 188.911 16.92 186.823 16.92C184.423 16.92 183.487 15.936 183.487 13.296V5.28H181.927V13.584ZM209.267 18H210.707V9.264C210.707 6.144 208.859 4.92 206.123 4.92C203.435 4.92 201.779 6.528 201.467 8.712L202.955 9.048C203.267 7.464 204.179 6.36 206.195 6.36C208.235 6.36 209.027 7.344 209.027 8.448C209.027 9.864 207.299 10.272 205.259 10.8C202.139 11.592 201.011 12.72 201.011 14.784C201.011 16.728 202.331 18.36 205.187 18.36C207.371 18.36 208.763 17.376 209.219 16.536H209.267V18ZM205.667 12.072C208.331 11.328 208.931 10.872 209.099 10.464H209.147V13.968C209.147 15.528 207.851 16.92 205.307 16.92C203.147 16.92 202.571 15.912 202.571 14.688C202.571 13.464 203.195 12.768 205.667 12.072ZM214.789 18H216.349V9.72C216.349 7.632 217.405 6.696 218.749 6.696C219.493 6.696 219.757 6.888 219.757 6.888L220.069 5.304C220.069 5.304 219.709 5.064 218.989 5.064C218.077 5.064 216.925 5.52 216.349 6.648H216.301V5.28H214.789V18ZM232.11 14.256C231.726 15.072 230.91 16.92 228.054 16.92C225.102 16.92 223.806 14.448 223.806 12.096H233.694V11.64C233.694 7.344 231.366 4.92 228.006 4.92C224.646 4.92 222.222 7.512 222.222 11.64C222.222 15.768 224.718 18.36 228.102 18.36C230.91 18.36 232.686 16.68 233.43 14.976L232.11 14.256ZM223.854 10.776C223.854 9.192 224.886 6.36 228.006 6.36C231.126 6.36 232.086 8.856 232.086 10.776H223.854ZM248.044 16.92C245.788 16.92 243.892 15.144 243.892 11.64C243.892 8.136 245.74 6.36 248.044 6.36C250.3 6.36 252.076 8.208 252.076 11.64C252.076 15.072 250.228 16.92 248.044 16.92ZM248.044 18.36C251.188 18.36 253.636 15.984 253.636 11.64C253.636 7.296 251.02 4.92 248.044 4.92C244.996 4.92 242.332 7.296 242.332 11.64C242.332 15.984 244.852 18.36 248.044 18.36ZM257.573 18H259.133V6.72H262.253V5.28H259.133V4.272C259.133 2.88 259.397 2.64 260.429 2.64H262.061V1.2H260.165C258.677 1.2 257.573 1.752 257.573 4.032V5.28H255.797V6.72H257.573V18ZM265.354 18H266.914V6.72H271.858V18H273.418V5.28H266.914V4.272C266.914 2.88 267.178 2.64 268.21 2.64H269.602V1.2H267.946C266.458 1.2 265.354 1.752 265.354 4.032V5.28H263.578V6.72H265.354V18ZM271.666 3.192H273.61V1.2H271.666V3.192ZM286.426 13.224C286.186 14.952 285.178 16.92 282.802 16.92C280.258 16.92 278.65 15.024 278.65 11.64C278.65 8.256 280.378 6.36 282.826 6.36C285.082 6.36 286.138 8.088 286.426 9.864L287.962 9.624C287.674 6.864 285.514 4.92 282.802 4.92C279.658 4.92 277.09 7.296 277.09 11.64C277.09 15.984 279.466 18.36 282.802 18.36C285.706 18.36 287.698 16.2 287.986 13.512L286.426 13.224ZM291.528 18H293.088V5.28H291.528V18ZM291.336 3.192H293.28V1.2H291.336V3.192ZM305.01 18H306.45V9.264C306.45 6.144 304.602 4.92 301.866 4.92C299.178 4.92 297.522 6.528 297.21 8.712L298.698 9.048C299.01 7.464 299.922 6.36 301.938 6.36C303.978 6.36 304.77 7.344 304.77 8.448C304.77 9.864 303.042 10.272 301.002 10.8C297.882 11.592 296.754 12.72 296.754 14.784C296.754 16.728 298.074 18.36 300.93 18.36C303.114 18.36 304.506 17.376 304.962 16.536H305.01V18ZM301.41 12.072C304.074 11.328 304.674 10.872 304.842 10.464H304.89V13.968C304.89 15.528 303.594 16.92 301.05 16.92C298.89 16.92 298.314 15.912 298.314 14.688C298.314 13.464 298.938 12.768 301.41 12.072ZM310.531 18H312.091V0.48H310.531V18ZM316.414 18H317.974V0.48H316.414V18ZM322.753 23.4H324.289L331.489 5.28H329.833L326.137 15.048H326.089L322.393 5.28H320.737L325.345 16.872L322.753 23.4ZM341.81 9.624C341.81 8.16 343.034 6.36 345.266 6.36C348.05 6.36 349.466 8.4 349.466 11.64C349.466 14.88 348.074 16.92 345.266 16.92C343.274 16.92 341.81 15.576 341.81 14.112V9.624ZM340.25 23.4H341.81V16.776H341.858C342.482 17.64 343.994 18.36 345.506 18.36C348.866 18.36 351.026 15.72 351.026 11.64C351.026 7.56 348.698 4.92 345.506 4.92C343.922 4.92 342.506 5.592 341.786 6.504H341.738V5.28H340.25V23.4ZM361.916 18H363.356V9.264C363.356 6.144 361.508 4.92 358.772 4.92C356.084 4.92 354.428 6.528 354.116 8.712L355.604 9.048C355.916 7.464 356.828 6.36 358.844 6.36C360.884 6.36 361.676 7.344 361.676 8.448C361.676 9.864 359.948 10.272 357.908 10.8C354.788 11.592 353.66 12.72 353.66 14.784C353.66 16.728 354.98 18.36 357.836 18.36C360.02 18.36 361.412 17.376 361.868 16.536H361.916V18ZM358.316 12.072C360.98 11.328 361.58 10.872 361.748 10.464H361.796V13.968C361.796 15.528 360.5 16.92 357.956 16.92C355.796 16.92 355.22 15.912 355.22 14.688C355.22 13.464 355.844 12.768 358.316 12.072ZM367.437 18H368.997V9.72C368.997 7.632 370.053 6.696 371.397 6.696C372.141 6.696 372.405 6.888 372.405 6.888L372.717 5.304C372.717 5.304 372.357 5.064 371.637 5.064C370.725 5.064 369.573 5.52 368.997 6.648H368.949V5.28H367.437V18ZM376.401 14.568C376.401 16.728 377.337 18 379.449 18H380.409V16.464H379.497C378.225 16.464 377.961 15.816 377.961 14.352V6.72H381.081V5.28H377.961V2.16H376.449V5.28H374.625V6.72H376.401V14.568ZM395.302 16.92C393.046 16.92 391.15 15.144 391.15 11.64C391.15 8.136 392.998 6.36 395.302 6.36C397.558 6.36 399.334 8.208 399.334 11.64C399.334 15.072 397.486 16.92 395.302 16.92ZM395.302 18.36C398.446 18.36 400.894 15.984 400.894 11.64C400.894 7.296 398.278 4.92 395.302 4.92C392.254 4.92 389.59 7.296 389.59 11.64C389.59 15.984 392.11 18.36 395.302 18.36ZM404.831 18H406.391V6.72H409.511V5.28H406.391V4.272C406.391 2.88 406.655 2.64 407.687 2.64H409.319V1.2H407.423C405.935 1.2 404.831 1.752 404.831 4.032V5.28H403.055V6.72H404.831V18ZM423.028 16.92C420.772 16.92 418.876 15.144 418.876 11.64C418.876 8.136 420.724 6.36 423.028 6.36C425.284 6.36 427.06 8.208 427.06 11.64C427.06 15.072 425.212 16.92 423.028 16.92ZM423.028 18.36C426.172 18.36 428.62 15.984 428.62 11.64C428.62 7.296 426.004 4.92 423.028 4.92C419.98 4.92 417.316 7.296 417.316 11.64C417.316 15.984 419.836 18.36 423.028 18.36ZM431.981 13.584C431.981 17.016 433.925 18.36 436.517 18.36C438.989 18.36 439.973 16.776 439.973 16.776H440.021V18H441.581V5.28H440.021V13.272C440.021 15.456 438.965 16.92 436.877 16.92C434.477 16.92 433.541 15.936 433.541 13.296V5.28H431.981V13.584ZM445.906 18H447.466V9.72C447.466 7.632 448.522 6.696 449.866 6.696C450.61 6.696 450.874 6.888 450.874 6.888L451.186 5.304C451.186 5.304 450.826 5.064 450.106 5.064C449.194 5.064 448.042 5.52 447.466 6.648H447.418V5.28H445.906V18ZM460.18 18H461.74V0.48H460.18V18ZM466.254 18H467.814V5.28H466.254V18ZM466.062 3.192H468.006V1.2H466.062V3.192ZM472.776 14.568C472.776 16.728 473.712 18 475.824 18H476.784V16.464H475.872C474.6 16.464 474.336 15.816 474.336 14.352V6.72H477.456V5.28H474.336V2.16H472.824V5.28H471V6.72H472.776V14.568ZM481.026 14.568C481.026 16.728 481.962 18 484.074 18H485.034V16.464H484.122C482.85 16.464 482.586 15.816 482.586 14.352V6.72H485.706V5.28H482.586V2.16H481.074V5.28H479.25V6.72H481.026V14.568ZM489.055 18H490.615V0.48H489.055V18ZM503.985 14.256C503.601 15.072 502.785 16.92 499.929 16.92C496.977 16.92 495.681 14.448 495.681 12.096H505.569V11.64C505.569 7.344 503.241 4.92 499.881 4.92C496.521 4.92 494.097 7.512 494.097 11.64C494.097 15.768 496.593 18.36 499.977 18.36C502.785 18.36 504.561 16.68 505.305 14.976L503.985 14.256ZM495.729 10.776C495.729 9.192 496.761 6.36 499.881 6.36C503.001 6.36 503.961 8.856 503.961 10.776H495.729ZM53.9598 52H55.5198V40.72H58.6398V39.28H55.5198V38.272C55.5198 36.88 55.7838 36.64 56.8158 36.64H58.4478V35.2H56.5518C55.0638 35.2 53.9598 35.752 53.9598 38.032V39.28H52.1838V40.72H53.9598V52ZM68.701 52H70.141V43.264C70.141 40.144 68.293 38.92 65.557 38.92C62.869 38.92 61.213 40.528 60.901 42.712L62.389 43.048C62.701 41.464 63.613 40.36 65.629 40.36C67.669 40.36 68.461 41.344 68.461 42.448C68.461 43.864 66.733 44.272 64.693 44.8C61.573 45.592 60.445 46.72 60.445 48.784C60.445 50.728 61.765 52.36 64.621 52.36C66.805 52.36 68.197 51.376 68.653 50.536H68.701V52ZM65.101 46.072C67.765 45.328 68.365 44.872 68.533 44.464H68.581V47.968C68.581 49.528 67.285 50.92 64.741 50.92C62.581 50.92 62.005 49.912 62.005 48.688C62.005 47.464 62.629 46.768 65.101 46.072ZM74.2225 52H75.7825V43.768C75.7825 41.968 76.5985 40.36 78.7105 40.36C80.6065 40.36 81.4465 41.488 81.4465 43.936V52H83.0065V43.768C83.0065 41.56 84.1345 40.36 85.9825 40.36C87.8305 40.36 88.7185 41.488 88.7185 43.936V52H90.2785V43.36C90.2785 40.576 88.6225 38.92 86.0785 38.92C84.3025 38.92 82.9105 39.952 82.3825 40.84H82.3345C81.8305 39.928 80.8225 38.92 78.9745 38.92C77.6065 38.92 76.2865 39.568 75.6625 40.504H75.6145V39.28H74.2225V52ZM94.6645 52H96.2245V39.28H94.6645V52ZM94.4725 37.192H96.4165V35.2H94.4725V37.192ZM100.73 52H102.29V34.48H100.73V52ZM107.069 57.4H108.605L115.805 39.28H114.149L110.453 49.048H110.405L106.709 39.28H105.053L109.661 50.872L107.069 57.4ZM116.884 52H119.428V49.456H116.884V52ZM128.064 52H137.04V50.56H129.624V35.2H128.064V52ZM149.083 48.256C148.699 49.072 147.883 50.92 145.027 50.92C142.075 50.92 140.779 48.448 140.779 46.096H150.667V45.64C150.667 41.344 148.339 38.92 144.979 38.92C141.619 38.92 139.195 41.512 139.195 45.64C139.195 49.768 141.691 52.36 145.075 52.36C147.883 52.36 149.659 50.68 150.403 48.976L149.083 48.256ZM140.827 44.776C140.827 43.192 141.859 40.36 144.979 40.36C148.099 40.36 149.059 42.856 149.059 44.776H140.827ZM154.6 48.568C154.6 50.728 155.536 52 157.648 52H158.608V50.464H157.696C156.424 50.464 156.16 49.816 156.16 48.352V40.72H159.28V39.28H156.16V36.16H154.648V39.28H152.824V40.72H154.6V48.568ZM162.869 40.072C164.789 39.928 165.413 38.848 165.413 37.384V35.2H162.869V37.744H163.997C163.997 38.44 163.709 39.016 162.869 39.16V40.072ZM168.278 47.632C168.494 50.272 170.078 52.36 173.534 52.36C176.99 52.36 178.262 50.488 178.262 48.712C178.262 46.576 177.182 45.616 173.75 44.632C170.846 43.792 170.198 43.48 170.198 42.28C170.198 41.32 171.038 40.288 173.006 40.288C174.902 40.288 175.91 41.248 176.366 42.928L177.806 42.544C177.35 40.528 175.886 38.92 173.006 38.92C170.198 38.92 168.71 40.576 168.71 42.28C168.71 44.128 169.79 45.064 172.982 45.928C176.102 46.768 176.75 47.344 176.75 48.736C176.75 49.984 175.814 50.968 173.534 50.968C171.254 50.968 170.102 49.768 169.838 47.392L168.278 47.632ZM186.653 47.632C186.869 50.272 188.453 52.36 191.909 52.36C195.365 52.36 196.637 50.488 196.637 48.712C196.637 46.576 195.557 45.616 192.125 44.632C189.221 43.792 188.573 43.48 188.573 42.28C188.573 41.32 189.413 40.288 191.381 40.288C193.277 40.288 194.285 41.248 194.741 42.928L196.181 42.544C195.725 40.528 194.261 38.92 191.381 38.92C188.573 38.92 187.085 40.576 187.085 42.28C187.085 44.128 188.165 45.064 191.357 45.928C194.477 46.768 195.125 47.344 195.125 48.736C195.125 49.984 194.189 50.968 191.909 50.968C189.629 50.968 188.477 49.768 188.213 47.392L186.653 47.632ZM200.444 48.568C200.444 50.728 201.38 52 203.492 52H204.452V50.464H203.54C202.268 50.464 202.004 49.816 202.004 48.352V40.72H205.124V39.28H202.004V36.16H200.492V39.28H198.668V40.72H200.444V48.568ZM215.654 52H217.094V43.264C217.094 40.144 215.246 38.92 212.51 38.92C209.822 38.92 208.166 40.528 207.854 42.712L209.342 43.048C209.654 41.464 210.566 40.36 212.582 40.36C214.622 40.36 215.414 41.344 215.414 42.448C215.414 43.864 213.686 44.272 211.646 44.8C208.526 45.592 207.398 46.72 207.398 48.784C207.398 50.728 208.718 52.36 211.574 52.36C213.758 52.36 215.15 51.376 215.606 50.536H215.654V52ZM212.054 46.072C214.718 45.328 215.318 44.872 215.486 44.464H215.534V47.968C215.534 49.528 214.238 50.92 211.694 50.92C209.534 50.92 208.958 49.912 208.958 48.688C208.958 47.464 209.582 46.768 212.054 46.072ZM221.176 52H222.736V43.72C222.736 41.632 223.792 40.696 225.136 40.696C225.88 40.696 226.144 40.888 226.144 40.888L226.456 39.304C226.456 39.304 226.096 39.064 225.376 39.064C224.464 39.064 223.312 39.52 222.736 40.648H222.688V39.28H221.176V52ZM230.139 48.568C230.139 50.728 231.075 52 233.187 52H234.147V50.464H233.235C231.963 50.464 231.699 49.816 231.699 48.352V40.72H234.819V39.28H231.699V36.16H230.187V39.28H228.363V40.72H230.139V48.568ZM245.728 43.624C245.728 42.16 246.952 40.36 249.184 40.36C251.968 40.36 253.384 42.4 253.384 45.64C253.384 48.88 251.992 50.92 249.184 50.92C247.192 50.92 245.728 49.576 245.728 48.112V43.624ZM244.168 52H245.536V50.776H245.584C246.304 51.592 247.672 52.36 249.424 52.36C252.784 52.36 254.944 49.72 254.944 45.64C254.944 41.56 252.616 38.92 249.424 38.92C247.888 38.92 246.64 39.472 245.776 40.504H245.728V34.48H244.168V52ZM258.298 47.584C258.298 51.016 260.242 52.36 262.834 52.36C265.306 52.36 266.29 50.776 266.29 50.776H266.338V52H267.898V39.28H266.338V47.272C266.338 49.456 265.282 50.92 263.194 50.92C260.794 50.92 259.858 49.936 259.858 47.296V39.28H258.298V47.584ZM272.415 52H273.975V39.28H272.415V52ZM272.223 37.192H274.167V35.2H272.223V37.192ZM278.48 52H280.04V34.48H278.48V52ZM292.739 48.112C292.739 49.576 291.275 50.92 289.283 50.92C286.475 50.92 285.083 48.88 285.083 45.64C285.083 42.4 286.499 40.36 289.283 40.36C291.515 40.36 292.739 42.16 292.739 43.624V48.112ZM292.931 52H294.299V34.48H292.739V40.504H292.691C291.827 39.472 290.579 38.92 289.043 38.92C285.851 38.92 283.523 41.56 283.523 45.64C283.523 49.72 285.683 52.36 289.043 52.36C290.795 52.36 292.163 51.592 292.883 50.776H292.931V52ZM298.805 52H300.365V39.28H298.805V52ZM298.613 37.192H300.557V35.2H298.613V37.192ZM304.871 52H306.431V43.768C306.431 41.584 307.991 40.36 310.079 40.36C312.167 40.36 313.319 41.68 313.319 44.224V52H314.879V43.648C314.879 40.696 312.887 38.92 310.175 38.92C308.687 38.92 307.151 39.592 306.479 40.504H306.431V39.28H304.871V52ZM319.194 54.208C319.818 56.224 321.45 57.76 324.114 57.76C327.21 57.76 329.01 55.888 329.01 52.24V39.28H327.45V40.504H327.402C326.538 39.472 325.29 38.92 323.754 38.92C320.562 38.92 318.234 41.56 318.234 45.64C318.234 49.72 320.394 52.36 323.754 52.36C325.77 52.36 326.802 51.568 327.402 50.944H327.45V52.672C327.45 54.856 326.298 56.32 324.066 56.32C321.858 56.32 321.042 54.928 320.634 53.632L319.194 54.208ZM327.45 48.112C327.45 49.576 325.986 50.92 323.994 50.92C321.186 50.92 319.794 48.88 319.794 45.64C319.794 42.4 321.21 40.36 323.994 40.36C326.226 40.36 327.45 42.16 327.45 43.624V48.112ZM341.055 52H342.519L346.263 41.176H346.311L350.127 52H351.543L354.591 39.28H353.031L350.655 49.216H350.607L347.055 39.28H345.543L342.015 49.216H341.967L339.807 39.28H338.247L341.055 52ZM358.149 52H359.709V39.28H358.149V52ZM357.957 37.192H359.901V35.2H357.957V37.192ZM364.671 48.568C364.671 50.728 365.607 52 367.719 52H368.679V50.464H367.767C366.495 50.464 366.231 49.816 366.231 48.352V40.72H369.351V39.28H366.231V36.16H364.719V39.28H362.895V40.72H364.671V48.568ZM372.699 52H374.259V44.008C374.259 41.632 375.891 40.36 377.979 40.36C380.187 40.36 381.051 41.824 381.051 44.224V52H382.611V43.744C382.611 40.456 380.715 38.92 378.147 38.92C376.515 38.92 375.075 39.664 374.307 40.648H374.259V34.48H372.699V52ZM394.368 43.624C394.368 42.16 395.592 40.36 397.824 40.36C400.608 40.36 402.024 42.4 402.024 45.64C402.024 48.88 400.632 50.92 397.824 50.92C395.832 50.92 394.368 49.576 394.368 48.112V43.624ZM392.808 57.4H394.368V50.776H394.416C395.04 51.64 396.552 52.36 398.064 52.36C401.424 52.36 403.584 49.72 403.584 45.64C403.584 41.56 401.256 38.92 398.064 38.92C396.48 38.92 395.064 39.592 394.344 40.504H394.296V39.28H392.808V57.4ZM407.058 52H408.618V43.72C408.618 41.632 409.674 40.696 411.018 40.696C411.762 40.696 412.026 40.888 412.026 40.888L412.338 39.304C412.338 39.304 411.978 39.064 411.258 39.064C410.346 39.064 409.194 39.52 408.618 40.648H408.57V39.28H407.058V52ZM415.524 52H417.084V39.28H415.524V52ZM415.332 37.192H417.276V35.2H415.332V37.192ZM429.966 48.112C429.966 49.576 428.502 50.92 426.51 50.92C423.702 50.92 422.31 48.88 422.31 45.64C422.31 42.4 423.726 40.36 426.51 40.36C428.742 40.36 429.966 42.16 429.966 43.624V48.112ZM430.158 52H431.526V34.48H429.966V40.504H429.918C429.054 39.472 427.806 38.92 426.27 38.92C423.078 38.92 420.75 41.56 420.75 45.64C420.75 49.72 422.91 52.36 426.27 52.36C428.022 52.36 429.39 51.592 430.11 50.776H430.158V52ZM444.888 48.256C444.504 49.072 443.688 50.92 440.832 50.92C437.88 50.92 436.584 48.448 436.584 46.096H446.472V45.64C446.472 41.344 444.144 38.92 440.784 38.92C437.424 38.92 435 41.512 435 45.64C435 49.768 437.496 52.36 440.88 52.36C443.688 52.36 445.464 50.68 446.208 48.976L444.888 48.256ZM436.632 44.776C436.632 43.192 437.664 40.36 440.784 40.36C443.904 40.36 444.864 42.856 444.864 44.776H436.632ZM449.72 52H452.264V49.456H449.72V52Z" fill="white"/>
</svg>
