<svg width="81" height="80" viewBox="0 0 81 80" fill="none" xmlns="http://www.w3.org/2000/svg">
<path d="M3.2998 23.8999L4.7998 21.0999C5.3998 19.8999 6.6998 19.4999 7.5998 20.0999C8.1998 20.3999 8.4998 20.9999 8.4998 21.5999C8.9998 21.1999 9.6998 20.8999 10.5998 21.3999C11.7998 21.9999 12.3998 22.9999 11.3998 24.9999L10.0998 27.5999L3.2998 23.8999ZM7.39981 22.6999C7.69981 22.0999 7.5998 21.4999 7.0998 21.1999C6.4998 20.8999 5.9998 21.0999 5.6998 21.6999L4.8998 23.1999L6.5998 24.0999L7.39981 22.6999ZM10.2998 24.4999C10.7998 23.5999 11.0998 22.8999 10.0998 22.3999C9.1998 21.8999 8.8998 22.4999 8.2998 23.3999L7.6998 24.5999L9.6998 25.5999L10.2998 24.4999Z" fill="white"/>
<path d="M10.8999 12.2999L11.7999 11.3999L15.1999 15.0999C15.7999 15.7999 16.5999 15.8999 17.3999 15.1999C18.1999 14.4999 18.1999 13.6999 17.5999 12.9999L14.1999 9.2999L15.0999 8.3999L18.5999 12.1999C19.6999 13.3999 19.4999 14.8999 18.2999 16.0999C17.0999 17.2999 15.5999 17.2999 14.3999 15.9999L10.8999 12.2999Z" fill="white"/>
<path d="M22.2002 4.1001L23.4002 3.6001L26.7002 10.5001L25.5002 11.0001L22.2002 4.1001Z" fill="white"/>
<path d="M31.2998 0.899951L32.4998 0.699951L33.6998 6.99995L36.8998 6.49995L37.0998 7.69995L32.6998 8.49995L31.2998 0.899951Z" fill="white"/>
<path d="M43.7001 0L46.2001 0.4C47.8001 0.6 49.3001 2 48.9001 4.7C48.4001 7.6 46.6001 8.2 45.0001 8L42.6001 7.6L43.7001 0ZM45.1001 6.7C46.3001 6.9 47.2001 6.5 47.5001 4.4C47.8001 2.5 47.1001 1.7 45.9001 1.5L44.7001 1.3L43.8001 6.4L45.1001 6.7Z" fill="white"/>
<path d="M56.9001 3.6001L58.1001 4.1001L54.8001 11.0001L53.6001 10.5001L56.9001 3.6001Z" fill="white"/>
<path d="M65.3001 8.69995L66.3001 9.59995L64.8001 15.6L68.5001 11.6L69.4001 12.5L64.2001 18.1L63.3001 17.2L64.7001 11.1L61.0001 15.1L60.1001 14.2L65.3001 8.69995Z" fill="white"/>
<path d="M71.3002 20.9999C73.6002 19.7999 75.5002 20.6999 76.2002 22.1999C76.9002 23.4999 76.5002 25.0999 75.2002 25.8999L74.4002 24.7999C75.1002 24.2999 75.6002 23.5999 75.1002 22.5999C74.6002 21.6999 73.5002 21.2999 71.8002 22.0999C69.9002 22.9999 69.6002 24.1999 70.1002 25.0999C70.6002 25.9999 71.4002 26.2999 72.4002 25.7999L71.7002 24.3999L72.7002 23.8999L73.9002 26.3999L73.0002 26.7999C71.2002 27.6999 69.6002 27.0999 68.9002 25.5999C68.2002 24.1999 68.6002 22.2999 71.3002 20.9999Z" fill="white"/>
<path d="M80.5001 42.7L80.2001 44L74.7001 44.0999L79.7001 46.7999L79.5001 47.5L74.0001 48.2999L79.1001 50.2L78.9001 51.4L71.6001 48.5999L71.8001 47.2999L77.3001 46.5L72.5001 44L72.7001 42.7H80.5001Z" fill="white"/>
<path d="M75.4001 59L74.8001 60.1L68.1001 56.4001L68.7001 55.3L75.4001 59Z" fill="white"/>
<path d="M68.0001 67.3L69.6001 65.6999L70.5001 66.5999L66.4001 70.6999L65.5001 69.8L67.1001 68.1999L62.6001 63.5999L63.5001 62.7L68.0001 67.3Z" fill="white"/>
<path d="M59.5998 75.2L58.3998 75.7L57.0998 72.8L54.4998 74L55.7998 76.8L54.5998 77.3L51.2998 70.4L52.4998 69.9L53.8998 72.9L56.4998 71.7L54.9998 68.7L56.1998 68.2L59.5998 75.2Z" fill="white"/>
<path d="M36.2999 80L33.2999 79.5C31.7999 79.3 30.8999 78.2 31.0999 76.7C31.2999 75.2 32.3999 74.5 34.0999 74.8L35.7999 75.1L36.2999 72.3L37.4999 72.5L36.2999 80ZM33.7999 75.9C33.0999 75.8 32.4999 76.1 32.2999 76.9C32.0999 77.8 32.7999 78.2 33.3999 78.3L35.0999 78.5L35.4999 76.1L33.7999 75.9Z" fill="white"/>
<path d="M23.2 76.5L20.5 75C19.2 74.3 18.6 73 19.3 71.6C19.8 70.6 20.9 70.2 21.9 70.4V67L23.1 67.7V71.1L24.3 71.7L25.7 69.1L26.9 69.7L23.2 76.5ZM22.4 71.9C21.7 71.5 21 71.5 20.6 72.3C20.2 73.1 20.5 73.6 21.2 74L22.7 74.8L23.9 72.7L22.4 71.9Z" fill="white"/>
<path d="M12.1002 68.6999L11.2002 67.7999L16.7002 62.3999L17.6002 63.2999L12.1002 68.6999Z" fill="white"/>
<path d="M5.79982 61.1001L4.59982 58.9001C3.79982 57.4001 4.09982 55.4001 6.39982 54.2001C8.99982 52.8001 10.5998 53.9001 11.3998 55.4001L12.5998 57.6001L5.79982 61.1001ZM10.4998 56.0001C9.99982 55.0001 9.09982 54.4001 7.19982 55.5001C5.59982 56.4001 5.29982 57.4001 5.79982 58.5001L6.29982 59.5001L10.9998 57.1001L10.4998 56.0001Z" fill="white"/>
<path d="M0.7 48.0999L0 43.4L1.2 43.2L1.7 46.5999L3.6 46.2999L3.1 43.2L4.3 43L4.8 46.0999L6.9 45.7999L6.4 42.4L7.6 42.2L8.3 47L0.7 48.0999Z" fill="white"/>
<path d="M42.2998 31.2L43.6998 28.8C43.6998 28.8 42.2998 28.1 42.1998 29.6C42.1998 30.2 41.7998 30.4 41.4998 30.4C41.0998 30.4 40.7998 30.1 40.7998 29.7C40.7998 29.3 41.0998 29 41.4998 29C41.5998 29 41.5998 29 41.5998 29C41.7998 28.4 41.1998 28.2 40.7998 28.4C40.7998 28.4 40.8998 27.8 40.2998 27.5C39.6998 27.8 39.7998 28.4 39.7998 28.4C39.3998 28.2 38.7998 28.4 38.9998 29H39.0998C39.4998 29 39.7998 29.3 39.7998 29.7C39.7998 30.1 39.4998 30.4 39.0998 30.4C38.7998 30.4 38.3998 30.2 38.3998 29.6C38.2998 28.1 36.7998 28.7 36.7998 28.7L38.2998 31.2H42.2998V31.2Z" fill="white"/>
<path d="M51.1998 39.2999C53.3998 38.9999 53.3998 37.2 53.3998 37.2C50.5998 37.7 48.9998 36.0999 48.9998 36.0999C48.9998 36.0999 50.7998 36.7999 52.1998 36.0999C53.5998 35.3999 53.3998 33.7999 53.3998 33.7999C50.1998 34.8999 48.9998 33.7 48.9998 33.7C48.9998 33.7 50.2998 33.9999 51.3998 33.2999C52.8998 32.3999 52.2998 31 52.2998 31C49.7998 32.1 48.6998 31.6 48.6998 31.6C48.6998 31.6 49.8998 31.6 50.5998 30.2C51.0998 29.1 50.1998 28.2999 50.1998 28.2999C48.9998 30.0999 46.9998 29.9 45.6998 30.6C44.7998 31.1 45.5998 32 45.5998 32C46.4998 31.7 47.1998 32.5999 47.1998 34.0999C47.1998 36.0999 45.4998 37.2999 43.6998 37.2999C41.8998 37.2999 41.0998 36.5 41.0998 34.7C41.0998 33.9 41.2998 33.5999 41.8998 33.5999C42.4998 33.5999 42.6998 34 42.6998 34C42.6998 34 42.9998 33.4999 42.9998 32.7999C42.9998 31.8999 42.3998 31.7 41.5998 31.7H37.8998C37.8998 32.2 38.0998 32.8 38.5998 32.9C38.5998 32.9 38.3998 34.3 38.1998 35.9C38.0998 36.9 37.2998 37.2999 36.3998 37.2999C34.6998 37.2999 32.8998 36.1999 32.8998 34.0999C32.8998 32.8999 33.5998 31.7 34.4998 32C34.7998 31.7 35.0998 31 34.4998 30.6C33.4998 29.9 31.0998 30.1 29.8998 28.2C29.8998 28.2 28.9998 29 29.4998 30.1C30.1998 31.5 31.3998 31.5 31.3998 31.5C31.3998 31.5 30.2998 32.1 27.7998 30.9C27.7998 30.9 27.0998 32.3 28.6998 33.2C29.7998 33.9 31.0998 33.5999 31.0998 33.5999C31.0998 33.5999 29.8998 34.7 26.6998 33.7C26.6998 33.7 26.4998 35.2 27.8998 36C29.2998 36.7 31.0998 36 31.0998 36C31.0998 36 29.4998 37.5999 26.6998 37.0999C26.6998 37.0999 26.6998 38.9 28.8998 39.2C30.6998 39.4 32.0998 38.2 32.0998 38.2C32.0998 38.2 31.9998 40 27.8998 40.5C27.8998 40.5 28.8998 42.3 31.3998 41.7C33.0998 41.3 34.0998 39.7999 34.0998 39.7999C34.0998 39.7999 33.3998 41.9999 29.8998 43.2999C29.8998 43.2999 30.9998 44.4999 33.2998 43.5999C35.2998 42.7999 36.0998 40.7999 36.0998 40.7999C36.0998 40.7999 35.7998 42.6 34.0998 44.4C34.0998 44.4 34.5998 44.4999 35.0998 44.2999C36.6998 43.5999 37.7998 42.6 37.9998 40.9C37.9998 40.9 38.4998 41.3999 38.3998 42.2999C38.1998 43.5999 36.0998 45 36.0998 45L36.3998 45.4C35.8998 45.7 35.0998 46.1999 34.7998 46.2999C34.1998 45.8999 33.3998 45.5 33.2998 45.4C32.7998 45.1 31.6998 45.1 31.5998 46.4C32.0998 45.8 32.4998 45.9 33.0998 46.2C33.1998 46.2 33.6998 46.4999 34.0998 46.7999C33.7998 46.9999 33.5998 47.0999 33.5998 47.0999C33.0998 47.3999 32.5998 48.3999 33.5998 49.0999C33.2998 48.3999 33.5998 48 34.0998 47.7C34.0998 47.7 34.3998 47.4999 34.7998 47.2999C34.9998 47.3999 35.2998 47.7 35.3998 47.7C35.9998 48 36.1998 48.3 35.9998 49C37.0998 48.3 36.5998 47.3 36.0998 47C36.0998 47 35.7998 46.8 35.6998 46.7C35.8998 46.6 36.4998 46.2 36.9998 45.9L37.2998 46.2999L39.0998 45.2C39.0998 45.4 39.0998 45.6 39.0998 45.9C38.8998 47.2 38.1998 48.3999 36.5998 49.5999C36.5998 49.5999 36.7998 50.5 37.8998 50.5C38.6998 50.5 39.2998 49.5999 39.5998 48.7999C39.1998 50.1999 39.2998 51.3999 40.2998 52.2999C41.2998 51.3999 41.3998 50.1999 40.9998 48.7999C41.2998 49.5999 41.8998 50.5 42.6998 50.5C43.7998 50.5 43.9998 49.5999 43.9998 49.5999C42.3998 48.4999 41.5998 47.3 41.4998 45.9C41.4998 45.7 41.4998 45.4 41.4998 45.2L43.2998 46.2999L43.5998 45.9C43.9998 46.2 44.6998 46.5 44.8998 46.7C44.6998 46.8 44.4998 47 44.4998 47C43.9998 47.3 43.4998 48.3 44.5998 49C44.2998 48.3 44.5998 47.8999 45.0998 47.5999C45.1998 47.5999 45.4998 47.3 45.6998 47.2C46.0998 47.4 46.2998 47.5999 46.3998 47.5999C46.8998 47.9999 47.1998 48.3 46.8998 49C47.9998 48.3 47.4998 47.3 46.8998 47C46.8998 47 46.6998 46.9 46.3998 46.7C46.7998 46.4 47.2998 46.1999 47.3998 46.0999C47.9998 45.7999 48.3998 45.6999 48.8998 46.2999C48.7998 44.9999 47.6998 44.9999 47.1998 45.2999C46.9998 45.3999 46.2998 45.8 45.6998 46.2C45.3998 46 44.5998 45.5999 44.0998 45.2999L44.3998 44.9C44.3998 44.9 42.2998 43.5 42.0998 42.2C41.9998 41.3 42.4998 40.7999 42.4998 40.7999C42.6998 42.2999 43.7998 43.6 45.3998 44.2C45.8998 44.4 46.3998 44.2999 46.3998 44.2999C44.6998 42.4999 44.3998 40.7 44.3998 40.7C44.3998 40.7 45.1998 42.7 47.1998 43.5C49.4998 44.5 50.5998 43.2 50.5998 43.2C47.0998 41.9 46.3998 39.7 46.3998 39.7C46.3998 39.7 47.3998 41.1999 49.0998 41.5999C51.5998 42.1999 52.5998 40.4 52.5998 40.4C48.4998 40 47.9998 38.2999 47.9998 38.2999C47.9998 38.2999 49.4998 39.4999 51.1998 39.2999Z" fill="white"/>
</svg>
