<svg width="221" height="73" viewBox="0 0 221 73" fill="none" xmlns="http://www.w3.org/2000/svg">
<path d="M53.4395 71H67.8395L41.9195 2.936H26.5595L0.447503 71H14.4635L20.1275 55.448H47.7755L53.4395 71ZM33.9515 17.624L43.3595 43.352H24.5435L33.9515 17.624ZM94.4278 12.056C96.5398 12.056 97.7878 12.344 98.4598 12.536V1.784C97.4038 1.304 94.8118 0.823999 92.1238 0.823999C81.6598 0.823999 74.9398 7.736 74.9398 18.392V23.768H67.0678V34.712H74.9398V71H87.8038V34.712H98.4598V23.768H87.8038V18.584C87.8038 13.304 91.5478 12.056 94.4278 12.056ZM122.645 9.65599H111.125V16.28C111.125 20.504 108.821 23.768 103.829 23.768H101.429V35.096H109.973V57.08C109.973 66.2 115.733 71.672 124.949 71.672C128.693 71.672 130.997 71 132.149 70.52V59.96C131.477 60.152 129.749 60.344 128.213 60.344C124.565 60.344 122.645 59 122.645 54.872V35.096H132.149V23.768H122.645V9.65599ZM149.918 42.008C150.206 37.688 153.854 32.696 160.478 32.696C167.774 32.696 170.846 37.304 171.038 42.008H149.918ZM172.286 54.296C170.75 58.52 167.486 61.496 161.534 61.496C155.198 61.496 149.918 56.984 149.63 50.744H183.422C183.422 50.552 183.614 48.632 183.614 46.808C183.614 31.64 174.878 22.328 160.286 22.328C148.19 22.328 137.054 32.12 137.054 47.192C137.054 63.128 148.478 72.44 161.438 72.44C173.054 72.44 180.542 65.624 182.942 57.464L172.286 54.296ZM220.548 23.576C219.588 23.48 218.628 23.384 217.572 23.384C213.54 23.384 207.012 24.536 204.132 30.776V23.768H191.748V71H204.516V49.4C204.516 39.224 210.18 36.056 216.708 36.056C217.86 36.056 219.108 36.152 220.548 36.44V23.576Z" fill="#1A1A1A"/>
</svg>
