<svg width="1170" height="658" viewBox="0 0 1170 658" fill="none" xmlns="http://www.w3.org/2000/svg">
<rect width="1170" height="658" fill="#EFF1F4"/>
<rect x="586" width="584" height="658" fill="#EFF1F4"/>
<mask id="mask0" mask-type="alpha" maskUnits="userSpaceOnUse" x="2" y="329" width="1168" height="329">
<rect x="2" y="329" width="1168" height="329" fill="#EFF1F4"/>
</mask>
<g mask="url(#mask0)">
<path d="M737.832 599H241.168L453.406 386.389C473.33 366.43 505.67 366.43 525.594 386.389L737.832 599Z" stroke="url(#paint0_linear)" stroke-width="30"/>
<path d="M1077.83 492H495.174L750.41 236.374C770.333 216.421 802.667 216.421 822.59 236.374L1077.83 492Z" stroke="url(#paint1_linear)" stroke-width="30"/>
</g>
<mask id="mask1" mask-type="alpha" maskUnits="userSpaceOnUse" x="0" y="0" width="1170" height="329">
<rect width="1170" height="329" fill="#C4C4C4"/>
</mask>
<g mask="url(#mask1)">
<path d="M739.795 225.776L467.52 498.467C464.374 501.618 466.605 507 471.058 507H1101.94C1106.39 507 1108.63 501.618 1105.48 498.467L833.205 225.776C807.422 199.954 765.578 199.954 739.795 225.776Z" fill="url(#paint2_linear)"/>
<circle cx="282" cy="225" r="109" fill="url(#paint3_linear)"/>
</g>
<defs>
<linearGradient id="paint0_linear" x1="490" y1="359" x2="490" y2="596" gradientUnits="userSpaceOnUse">
<stop offset="0.168535" stop-color="white"/>
<stop offset="0.93249" stop-color="white" stop-opacity="0"/>
</linearGradient>
<linearGradient id="paint1_linear" x1="787" y1="207" x2="787" y2="445" gradientUnits="userSpaceOnUse">
<stop offset="0.0853659" stop-color="white"/>
<stop offset="0.929878" stop-color="white" stop-opacity="0"/>
</linearGradient>
<linearGradient id="paint2_linear" x1="787.097" y1="369" x2="787.097" y2="507" gradientUnits="userSpaceOnUse">
<stop offset="0.309392" stop-color="white"/>
<stop offset="1" stop-color="white" stop-opacity="0"/>
</linearGradient>
<linearGradient id="paint3_linear" x1="282.199" y1="130.269" x2="282.199" y2="347.476" gradientUnits="userSpaceOnUse">
<stop offset="0.309392" stop-color="white"/>
<stop offset="1" stop-color="white" stop-opacity="0"/>
</linearGradient>
</defs>
</svg>
