<svg width="1170" height="658" viewBox="0 0 1170 658" fill="none" xmlns="http://www.w3.org/2000/svg">
<rect width="1170" height="658" fill="#EFF1F4"/>
<rect x="586" width="584" height="658" fill="#EFF1F4"/>
<mask id="mask0" mask-type="alpha" maskUnits="userSpaceOnUse" x="586" y="0" width="584" height="658">
<path d="M586 0H1170V658H586V0Z" fill="#EFF1F4"/>
</mask>
<g mask="url(#mask0)">
<path d="M737.832 599H241.168L453.406 386.389C473.33 366.43 505.67 366.43 525.594 386.389L737.832 599Z" stroke="url(#paint0_linear)" stroke-width="30"/>
<path d="M1077.83 492H495.174L750.41 236.374C770.333 216.421 802.667 216.421 822.59 236.374L1077.83 492Z" stroke="url(#paint1_linear)" stroke-width="30"/>
</g>
<mask id="mask1" mask-type="alpha" maskUnits="userSpaceOnUse" x="2" y="0" width="584" height="658">
<rect x="2" width="584" height="658" fill="#603131"/>
</mask>
<g mask="url(#mask1)">
<path d="M444.79 375.792L215.517 605.468C212.372 608.619 214.604 614 219.056 614H763.944C768.396 614 770.628 608.619 767.483 605.468L538.21 375.792C512.426 349.963 470.574 349.963 444.79 375.792Z" fill="url(#paint2_linear)"/>
<path d="M741.795 225.776L469.52 498.467C466.374 501.618 468.605 507 473.058 507H1103.94C1108.39 507 1110.63 501.618 1107.48 498.467L835.205 225.776C809.422 199.954 767.578 199.954 741.795 225.776Z" fill="url(#paint3_linear)"/>
<circle cx="284" cy="225" r="109" fill="url(#paint4_linear)"/>
</g>
<defs>
<linearGradient id="paint0_linear" x1="490" y1="359" x2="490" y2="596" gradientUnits="userSpaceOnUse">
<stop offset="0.168535" stop-color="white"/>
<stop offset="0.93249" stop-color="white" stop-opacity="0"/>
</linearGradient>
<linearGradient id="paint1_linear" x1="787" y1="207" x2="787" y2="445" gradientUnits="userSpaceOnUse">
<stop offset="0.0853659" stop-color="white"/>
<stop offset="0.929878" stop-color="white" stop-opacity="0"/>
</linearGradient>
<linearGradient id="paint2_linear" x1="492.018" y1="347.655" x2="492.018" y2="631.618" gradientUnits="userSpaceOnUse">
<stop offset="0.309392" stop-color="white"/>
<stop offset="1" stop-color="white" stop-opacity="0"/>
</linearGradient>
<linearGradient id="paint3_linear" x1="789.097" y1="369" x2="789.097" y2="507" gradientUnits="userSpaceOnUse">
<stop offset="0.309392" stop-color="white"/>
<stop offset="1" stop-color="white" stop-opacity="0"/>
</linearGradient>
<linearGradient id="paint4_linear" x1="284.199" y1="130.269" x2="284.199" y2="347.476" gradientUnits="userSpaceOnUse">
<stop offset="0.309392" stop-color="white"/>
<stop offset="1" stop-color="white" stop-opacity="0"/>
</linearGradient>
</defs>
</svg>
