<svg width="272" height="73" viewBox="0 0 272 73" fill="none" xmlns="http://www.w3.org/2000/svg">
<path d="M0.660995 2.936V71H26.965C39.733 71 47.989 63.032 47.989 51.992C47.989 43.544 42.613 37.496 35.989 35.864C41.653 33.944 45.877 28.28 45.877 21.272C45.877 10.712 38.389 2.936 25.141 2.936H0.660995ZM13.717 31.064V14.072H23.029C29.461 14.072 32.821 17.336 32.821 22.52C32.821 27.704 29.173 31.064 23.125 31.064H13.717ZM13.717 59.96V42.008H24.661C31.285 42.008 34.741 45.752 34.741 51.128C34.741 56.6 30.901 59.96 24.469 59.96H13.717ZM66.1555 42.008C66.4435 37.688 70.0915 32.696 76.7155 32.696C84.0115 32.696 87.0835 37.304 87.2755 42.008H66.1555ZM88.5235 54.296C86.9875 58.52 83.7235 61.496 77.7715 61.496C71.4355 61.496 66.1555 56.984 65.8675 50.744H99.6595C99.6595 50.552 99.8515 48.632 99.8515 46.808C99.8515 31.64 91.1155 22.328 76.5235 22.328C64.4275 22.328 53.2915 32.12 53.2915 47.192C53.2915 63.128 64.7155 72.44 77.6755 72.44C89.2915 72.44 96.7795 65.624 99.1795 57.464L88.5235 54.296ZM129.874 12.056C131.986 12.056 133.234 12.344 133.906 12.536V1.784C132.85 1.304 130.258 0.823999 127.57 0.823999C117.106 0.823999 110.386 7.736 110.386 18.392V23.768H102.514V34.712H110.386V71H123.25V34.712H133.906V23.768H123.25V18.584C123.25 13.304 126.994 12.056 129.874 12.056ZM160.47 60.824C154.23 60.824 148.47 56.216 148.47 47.384C148.47 38.456 154.23 33.944 160.47 33.944C166.71 33.944 172.47 38.456 172.47 47.384C172.47 56.312 166.71 60.824 160.47 60.824ZM160.47 22.328C146.358 22.328 135.702 32.792 135.702 47.384C135.702 61.88 146.358 72.44 160.47 72.44C174.582 72.44 185.238 61.88 185.238 47.384C185.238 32.792 174.582 22.328 160.47 22.328ZM222.196 23.576C221.236 23.48 220.276 23.384 219.22 23.384C215.188 23.384 208.66 24.536 205.78 30.776V23.768H193.396V71H206.164V49.4C206.164 39.224 211.828 36.056 218.356 36.056C219.508 36.056 220.756 36.152 222.196 36.44V23.576ZM238.1 42.008C238.388 37.688 242.036 32.696 248.66 32.696C255.956 32.696 259.028 37.304 259.22 42.008H238.1ZM260.468 54.296C258.932 58.52 255.668 61.496 249.716 61.496C243.38 61.496 238.1 56.984 237.812 50.744H271.604C271.604 50.552 271.796 48.632 271.796 46.808C271.796 31.64 263.06 22.328 248.468 22.328C236.372 22.328 225.236 32.12 225.236 47.192C225.236 63.128 236.66 72.44 249.62 72.44C261.236 72.44 268.724 65.624 271.124 57.464L260.468 54.296Z" fill="#1A1A1A"/>
</svg>
