<svg width="1170" height="658" viewBox="0 0 1170 658" fill="none" xmlns="http://www.w3.org/2000/svg">
<rect width="1170" height="658" fill="#EFF1F4"/>
<path fill-rule="evenodd" clip-rule="evenodd" d="M584.1 84.9318C535.147 84.9318 495.463 124.616 495.463 173.569C495.463 222.522 535.147 262.206 584.1 262.206C633.053 262.206 672.737 222.522 672.737 173.569C672.737 124.616 633.053 84.9318 584.1 84.9318ZM320.548 198.861C320.548 194.443 324.129 190.861 328.548 190.861H450.323C454.327 190.861 457.688 193.831 458.441 197.764C469.751 256.857 521.711 301.513 584.1 301.513C646.554 301.513 698.557 256.764 709.794 197.58C710.542 193.642 713.905 190.664 717.914 190.664H839.652C844.071 190.664 847.652 194.246 847.652 198.664V558.634C847.652 563.052 844.071 566.634 839.652 566.634H328.548C324.129 566.634 320.548 563.052 320.548 558.634V198.861ZM584.1 45.625C644.858 45.625 695.724 87.9757 708.789 144.767C709.66 148.555 712.958 151.357 716.844 151.357H856.103C873.471 151.357 886.959 165.492 886.959 182.213V575.085C886.959 592.452 872.825 605.941 856.103 605.941H312.097C294.729 605.941 281.241 591.807 281.241 575.085V182.41C281.241 165.043 295.375 151.554 312.097 151.554H451.311C455.202 151.554 458.502 148.744 459.369 144.951C472.366 88.0672 523.277 45.625 584.1 45.625ZM566.019 224.666L639.523 182.215C646.008 178.284 646.008 168.85 639.523 164.92L566.019 122.468C559.337 118.734 551.082 123.451 551.082 131.116V216.019C551.082 223.684 559.337 228.4 566.019 224.666ZM733.466 474.265C770.153 474.265 799.894 444.524 799.894 407.837C799.894 371.149 770.153 341.408 733.466 341.408C696.778 341.408 667.037 371.149 667.037 407.837C667.037 444.524 696.778 474.265 733.466 474.265ZM368.502 359.993C368.502 364.411 372.089 367.978 376.505 368.116C412.718 369.246 438.05 378.034 455.948 389.544C475.143 401.888 487.31 418.342 495.103 435.297C502.976 452.424 506.278 469.874 507.547 483.294C507.915 487.189 508.107 490.686 508.195 493.667C507.939 496.974 507.857 499.831 507.855 502.113C507.853 503.823 507.896 505.225 507.945 506.269C507.97 506.791 507.996 507.225 508.02 507.565C508.031 507.734 508.042 507.881 508.052 508.003L508.065 508.168L508.071 508.237L508.074 508.267C508.075 508.282 508.076 508.296 530.446 506.299L508.076 508.296L552.818 508.269L530.446 506.299C552.818 508.269 552.819 508.256 552.82 508.243L552.823 508.214L552.828 508.144L552.844 507.959C552.851 507.871 552.858 507.768 552.867 507.651C552.872 507.578 552.878 507.499 552.884 507.414C552.915 506.975 552.953 506.383 552.99 505.649C553.066 504.182 553.143 502.143 553.167 499.611C553.18 498.271 553.179 496.788 553.155 495.176C553.199 494.75 553.248 494.313 553.303 493.866C554.17 486.719 556.306 477.524 561.167 468.565C565.913 459.818 573.397 450.997 585.682 444.196C596.854 438.011 612.96 432.969 636.237 432.025C640.652 431.846 644.239 428.285 644.239 423.867V394.95C644.239 390.532 640.652 386.934 636.236 387.079C606.448 388.056 582.682 394.516 563.927 404.899C556.64 408.933 550.263 413.475 544.692 418.349C541.915 420.779 537.457 419.891 535.915 416.537C525.234 393.3 507.921 369.564 480.243 351.764C454.133 334.974 420.152 324.337 376.505 323.181C372.089 323.064 368.502 326.658 368.502 331.076V359.993Z" fill="url(#paint0_linear)"/>
<defs>
<linearGradient id="paint0_linear" x1="584.652" y1="82.3002" x2="584.652" y2="606.414" gradientUnits="userSpaceOnUse">
<stop offset="0.356896" stop-color="white"/>
<stop offset="1" stop-color="white" stop-opacity="0"/>
</linearGradient>
</defs>
</svg>
