<svg width="1170" height="658" viewBox="0 0 1170 658" fill="none" xmlns="http://www.w3.org/2000/svg">
<rect width="1170" height="658" fill="#EFF1F4"/>
<path d="M442.79 368.792L213.517 598.468C210.372 601.619 212.604 607 217.056 607H761.944C766.396 607 768.628 601.619 765.483 598.468L536.21 368.792C510.426 342.963 468.574 342.963 442.79 368.792Z" fill="url(#paint0_linear)"/>
<path d="M739.795 218.776L467.52 491.467C464.374 494.618 466.605 500 471.058 500H1101.94C1106.39 500 1108.63 494.618 1105.48 491.467L833.205 218.776C807.422 192.954 765.578 192.954 739.795 218.776Z" fill="url(#paint1_linear)"/>
<circle cx="282" cy="218" r="109" fill="url(#paint2_linear)"/>
<defs>
<linearGradient id="paint0_linear" x1="490.018" y1="340.655" x2="490.018" y2="624.618" gradientUnits="userSpaceOnUse">
<stop offset="0.309392" stop-color="white"/>
<stop offset="1" stop-color="white" stop-opacity="0"/>
</linearGradient>
<linearGradient id="paint1_linear" x1="787.097" y1="193.469" x2="787.097" y2="520.276" gradientUnits="userSpaceOnUse">
<stop offset="0.309392" stop-color="white"/>
<stop offset="1" stop-color="white" stop-opacity="0"/>
</linearGradient>
<linearGradient id="paint2_linear" x1="282.199" y1="123.269" x2="282.199" y2="340.476" gradientUnits="userSpaceOnUse">
<stop offset="0.309392" stop-color="white"/>
<stop offset="1" stop-color="white" stop-opacity="0"/>
</linearGradient>
</defs>
</svg>
