<svg width="1170" height="658" viewBox="0 0 1170 658" fill="none" xmlns="http://www.w3.org/2000/svg">
<rect width="1170" height="658" fill="#EFF1F4"/>
<path d="M681.6 113H489.2C415.2 113 355 173.2 355 247.2V452.4C355 526.4 415.2 586.6 489.2 586.6H681.5C755.5 586.6 815.7 526.4 815.7 452.4V247.2C815.8 173.2 755.6 113 681.6 113ZM585.4 470.3C518.8 470.3 464.9 416.3 464.9 349.8C464.9 283.3 518.9 229.3 585.4 229.3C651.9 229.3 705.9 283.3 705.9 349.8C705.9 416.3 651.9 470.3 585.4 470.3ZM724.7 236.3C710.4 236.3 698.9 224.7 698.9 210.5C698.9 196.2 710.5 184.7 724.7 184.7C739 184.7 750.5 196.3 750.5 210.5C750.6 224.8 739 236.3 724.7 236.3Z" fill="url(#paint0_linear)"/>
<path d="M585.4 441.301C635.934 441.301 676.9 400.335 676.9 349.801C676.9 299.267 635.934 258.301 585.4 258.301C534.866 258.301 493.9 299.267 493.9 349.801C493.9 400.335 534.866 441.301 585.4 441.301Z" fill="url(#paint1_linear)"/>
<defs>
<linearGradient id="paint0_linear" x1="585.77" y1="143.999" x2="585.77" y2="587" gradientUnits="userSpaceOnUse">
<stop offset="0.356896" stop-color="white"/>
<stop offset="1" stop-color="white" stop-opacity="0"/>
</linearGradient>
<linearGradient id="paint1_linear" x1="585.567" y1="270.279" x2="585.567" y2="441" gradientUnits="userSpaceOnUse">
<stop offset="0.356896" stop-color="white"/>
<stop offset="1" stop-color="white" stop-opacity="0"/>
</linearGradient>
</defs>
</svg>
