<svg width="1170" height="658" viewBox="0 0 1170 658" fill="none" xmlns="http://www.w3.org/2000/svg">
<rect width="1170" height="658" fill="#EFF1F4"/>
<path d="M561.19 245.654C566.266 244.376 568.699 238.608 566.095 234.068C530.068 171.255 493.102 118.172 480.336 100.314C478.104 97.1924 473.97 96.1596 470.547 97.894C404.505 131.353 355.021 191.935 336.632 264.619C335.384 269.55 339.126 274.254 344.212 274.189C374.049 273.807 461.831 270.687 561.19 245.654Z" fill="url(#paint0_linear)"/>
<path d="M648.731 262.504C644.451 264.347 642.542 269.401 644.579 273.591C649.254 283.205 653.77 293.111 657.543 303.017C658.556 305.718 659.569 308.228 660.581 310.656C661.956 313.951 665.382 315.889 668.931 315.493C738.746 307.701 806.963 318.19 831.818 322.429C836.649 323.254 840.965 319.58 840.737 314.685C838.289 261.99 819.65 212.906 789.402 172.847C786.201 168.608 779.764 168.781 776.338 172.841C761.19 190.794 721.047 231.35 648.731 262.504Z" fill="url(#paint1_linear)"/>
<path d="M750.624 140.629C753.084 137.549 752.495 133.22 749.468 130.695C705.173 93.7442 647.86 71 585 71C568.436 71 552.62 72.4943 537.255 75.1879C531.519 76.1935 528.975 82.8833 532.378 87.609C548.064 109.392 583.512 160.504 617.03 221.364C618.956 224.861 623.178 226.435 626.891 224.969C700.573 195.887 738.486 155.826 750.624 140.629Z" fill="url(#paint2_linear)"/>
<path d="M687.559 355.019C682.563 355.646 679.53 360.782 681.212 365.528C707.053 438.475 720.384 499.017 725.516 526.213C726.605 531.985 733.284 534.819 737.982 531.294C788.265 493.568 824.126 438.212 836.187 374.158C836.936 370.18 834.518 366.318 830.606 365.278C810.482 359.925 752.989 346.806 687.559 355.019Z" fill="url(#paint3_linear)"/>
<path d="M602.986 329.402C603.507 329.194 604.046 329.003 604.6 328.825C609.13 327.366 611.451 322.626 609.478 318.294C604.961 308.376 600.339 298.283 595.236 288.395C593.497 285.025 589.58 283.429 585.939 284.487C474.519 316.868 367.203 319.121 336.72 319.219C332.416 319.233 329 322.7 329 327.004C329 388.934 351.205 445.578 387.673 489.487C391.162 493.688 397.762 493.06 400.741 488.483C420.586 457.994 488.517 366.177 602.986 329.402Z" fill="url(#paint4_linear)"/>
<path d="M629.721 368.618C629.549 368.773 629.247 369.006 629.028 369.083C499.74 414.26 444.496 499.272 430.985 523.306C429.116 526.63 430.081 530.736 433.15 533C475.456 564.21 528.017 582.998 585 582.998C618.108 582.998 650.165 576.695 679.206 565.073C682.683 563.681 684.639 560.036 683.938 556.357C678.55 528.099 663.822 455.104 630.946 369.358C630.718 368.763 630.195 368.192 629.721 368.618Z" fill="url(#paint5_linear)"/>
<defs>
<linearGradient id="paint0_linear" x1="453.018" y1="106.714" x2="453.018" y2="285.323" gradientUnits="userSpaceOnUse">
<stop offset="0.356896" stop-color="white"/>
<stop offset="1" stop-color="white" stop-opacity="0"/>
</linearGradient>
<linearGradient id="paint1_linear" x1="741.06" y1="174.964" x2="741.06" y2="333.859" gradientUnits="userSpaceOnUse">
<stop offset="0.356896" stop-color="white"/>
<stop offset="1" stop-color="white" stop-opacity="0"/>
</linearGradient>
<linearGradient id="paint2_linear" x1="640.066" y1="81.2422" x2="640.066" y2="237.151" gradientUnits="userSpaceOnUse">
<stop offset="0.356896" stop-color="white"/>
<stop offset="1" stop-color="white" stop-opacity="0"/>
</linearGradient>
<linearGradient id="paint3_linear" x1="757.81" y1="364.574" x2="757.81" y2="550.148" gradientUnits="userSpaceOnUse">
<stop offset="0.356896" stop-color="white"/>
<stop offset="1" stop-color="white" stop-opacity="0"/>
</linearGradient>
<linearGradient id="paint4_linear" x1="471.348" y1="296.727" x2="471.348" y2="511.176" gradientUnits="userSpaceOnUse">
<stop offset="0.356896" stop-color="white"/>
<stop offset="1" stop-color="white" stop-opacity="0"/>
</linearGradient>
<linearGradient id="paint5_linear" x1="556.757" y1="382.414" x2="556.757" y2="596.266" gradientUnits="userSpaceOnUse">
<stop offset="0.356896" stop-color="white"/>
<stop offset="1" stop-color="white" stop-opacity="0"/>
</linearGradient>
</defs>
</svg>
