<svg width="581" height="187" viewBox="0 0 581 187" fill="none" xmlns="http://www.w3.org/2000/svg">
<path d="M35.4245 71.44C54.5285 71.44 64.3205 58.768 66.9125 48.304L54.5285 44.56C52.7045 50.896 47.0405 58.48 35.4245 58.48C24.4805 58.48 14.3045 50.512 14.3045 36.016C14.3045 20.56 25.0565 13.264 35.2325 13.264C47.0405 13.264 52.3205 20.464 53.9525 26.992L66.4325 23.056C63.7445 12.016 54.0485 0.495996 35.2325 0.495996C16.9925 0.495996 0.576489 14.32 0.576489 36.016C0.576489 57.712 16.4165 71.44 35.4245 71.44ZM94.6632 59.824C88.4232 59.824 82.6632 55.216 82.6632 46.384C82.6632 37.456 88.4232 32.944 94.6632 32.944C100.903 32.944 106.663 37.456 106.663 46.384C106.663 55.312 100.903 59.824 94.6632 59.824ZM94.6632 21.328C80.5512 21.328 69.8952 31.792 69.8952 46.384C69.8952 60.88 80.5512 71.44 94.6632 71.44C108.775 71.44 119.431 60.88 119.431 46.384C119.431 31.792 108.775 21.328 94.6632 21.328ZM140.358 42.832C140.358 37.36 143.622 33.04 149.19 33.04C155.334 33.04 157.926 37.168 157.926 42.448V70H170.694V40.24C170.694 29.872 165.318 21.52 153.606 21.52C148.518 21.52 142.854 23.728 139.974 28.624V22.768H127.59V70H140.358V42.832ZM194.5 42.832C194.5 37.36 197.764 33.04 203.332 33.04C209.476 33.04 212.068 37.168 212.068 42.448V70H224.836V40.24C224.836 29.872 219.46 21.52 207.748 21.52C202.66 21.52 196.996 23.728 194.116 28.624V22.768H181.732V70H194.5V42.832ZM245.187 41.008C245.475 36.688 249.123 31.696 255.747 31.696C263.043 31.696 266.115 36.304 266.307 41.008H245.187ZM267.555 53.296C266.019 57.52 262.755 60.496 256.803 60.496C250.467 60.496 245.187 55.984 244.899 49.744H278.691C278.691 49.552 278.883 47.632 278.883 45.808C278.883 30.64 270.147 21.328 255.555 21.328C243.459 21.328 232.323 31.12 232.323 46.192C232.323 62.128 243.747 71.44 256.707 71.44C268.323 71.44 275.811 64.624 278.211 56.464L267.555 53.296ZM308.233 33.136C314.569 33.136 317.545 37.168 318.697 41.104L330.121 37.264C328.105 29.296 320.809 21.328 307.945 21.328C294.217 21.328 283.465 31.792 283.465 46.384C283.465 60.88 294.409 71.44 308.329 71.44C320.905 71.44 328.297 63.376 330.409 55.504L319.177 51.76C318.121 55.408 314.857 59.728 308.329 59.728C301.801 59.728 296.233 54.928 296.233 46.384C296.233 37.84 301.705 33.136 308.233 33.136ZM353.623 8.65599H342.103V15.28C342.103 19.504 339.799 22.768 334.807 22.768H332.407V34.096H340.951V56.08C340.951 65.2 346.711 70.672 355.927 70.672C359.671 70.672 361.975 70 363.127 69.52V58.96C362.455 59.152 360.727 59.344 359.191 59.344C355.543 59.344 353.623 58 353.623 53.872V34.096H363.127V22.768H353.623V8.65599ZM409.89 88.624L439.554 22.768H425.922L414.306 50.416L401.73 22.768H387.426L407.49 64.048L396.354 88.624H409.89ZM464.334 59.824C458.094 59.824 452.334 55.216 452.334 46.384C452.334 37.456 458.094 32.944 464.334 32.944C470.574 32.944 476.334 37.456 476.334 46.384C476.334 55.312 470.574 59.824 464.334 59.824ZM464.334 21.328C450.222 21.328 439.566 31.792 439.566 46.384C439.566 60.88 450.222 71.44 464.334 71.44C478.446 71.44 489.102 60.88 489.102 46.384C489.102 31.792 478.446 21.328 464.334 21.328ZM527.985 70H540.177C539.985 68.368 539.697 65.104 539.697 61.456V22.768H526.929V50.224C526.929 55.696 523.665 59.536 518.001 59.536C512.049 59.536 509.361 55.312 509.361 50.032V22.768H496.593V52.624C496.593 62.896 503.121 71.248 514.545 71.248C519.537 71.248 525.009 69.328 527.601 64.912C527.601 66.832 527.793 69.04 527.985 70ZM580.204 22.576C579.244 22.48 578.284 22.384 577.228 22.384C573.196 22.384 566.668 23.536 563.788 29.776V22.768H551.404V70H564.172V48.4C564.172 38.224 569.836 35.056 576.364 35.056C577.516 35.056 578.764 35.152 580.204 35.44V22.576ZM93.6841 167V98.936H80.2441V167H93.6841ZM119.101 139.832C119.101 134.36 122.365 130.04 127.933 130.04C134.077 130.04 136.669 134.168 136.669 139.448V167H149.437V137.24C149.437 126.872 144.061 118.52 132.349 118.52C127.261 118.52 121.597 120.728 118.717 125.624V119.768H106.333V167H119.101V139.832ZM156.443 153.848C157.019 159.224 161.915 168.44 176.123 168.44C188.507 168.44 194.459 160.568 194.459 152.888C194.459 145.976 189.755 140.312 180.443 138.392L173.723 136.952C171.131 136.472 169.403 135.032 169.403 132.728C169.403 130.04 172.091 128.024 175.451 128.024C180.827 128.024 182.843 131.576 183.227 134.36L193.883 131.96C193.307 126.872 188.795 118.328 175.355 118.328C165.179 118.328 157.691 125.336 157.691 133.784C157.691 140.408 161.819 145.88 170.939 147.896L177.179 149.336C180.827 150.104 182.267 151.832 182.267 153.944C182.267 156.44 180.251 158.648 176.027 158.648C170.459 158.648 167.675 155.192 167.387 151.448L156.443 153.848ZM218.549 105.656H207.029V112.28C207.029 116.504 204.725 119.768 199.733 119.768H197.333V131.096H205.877V153.08C205.877 162.2 211.637 167.672 220.853 167.672C224.597 167.672 226.901 167 228.053 166.52V155.96C227.381 156.152 225.653 156.344 224.117 156.344C220.469 156.344 218.549 155 218.549 150.872V131.096H228.053V119.768H218.549V105.656ZM234.38 154.136C234.38 161.528 240.524 168.344 250.604 168.344C257.612 168.344 262.124 165.08 264.524 161.336C264.524 163.16 264.716 165.752 265.004 167H276.716C276.428 165.368 276.14 162.008 276.14 159.512V136.28C276.14 126.776 270.572 118.328 255.596 118.328C242.924 118.328 236.108 126.488 235.34 133.88L246.668 136.28C247.052 132.152 250.124 128.6 255.692 128.6C261.068 128.6 263.66 131.384 263.66 134.744C263.66 136.376 262.796 137.72 260.108 138.104L248.492 139.832C240.62 140.984 234.38 145.688 234.38 154.136ZM253.292 158.84C249.164 158.84 247.148 156.152 247.148 153.368C247.148 149.72 249.74 147.896 253.004 147.416L263.66 145.784V147.896C263.66 156.248 258.668 158.84 253.292 158.84ZM283.543 169.592C284.887 178.616 293.527 186.68 306.487 186.68C324.247 186.68 331.255 174.872 331.255 161.912V119.768H318.967V125.336C317.335 122.168 313.015 118.904 305.527 118.904C292.567 118.904 283.543 129.464 283.543 141.944C283.543 155.192 292.951 164.888 305.527 164.888C312.343 164.888 316.759 161.912 318.679 158.84V162.296C318.679 171.416 314.167 175.448 306.103 175.448C300.055 175.448 295.927 171.704 295.063 166.52L283.543 169.592ZM307.735 153.944C301.111 153.944 296.407 149.336 296.407 141.944C296.407 134.648 301.399 130.04 307.735 130.04C313.879 130.04 318.871 134.648 318.871 141.944C318.871 149.24 314.263 153.944 307.735 153.944ZM371.064 119.576C370.104 119.48 369.144 119.384 368.088 119.384C364.056 119.384 357.528 120.536 354.648 126.776V119.768H342.264V167H355.032V145.4C355.032 135.224 360.696 132.056 367.224 132.056C368.376 132.056 369.624 132.152 371.064 132.44V119.576ZM375.527 154.136C375.527 161.528 381.671 168.344 391.751 168.344C398.759 168.344 403.271 165.08 405.671 161.336C405.671 163.16 405.863 165.752 406.151 167H417.863C417.575 165.368 417.287 162.008 417.287 159.512V136.28C417.287 126.776 411.719 118.328 396.743 118.328C384.071 118.328 377.255 126.488 376.487 133.88L387.815 136.28C388.199 132.152 391.271 128.6 396.839 128.6C402.215 128.6 404.807 131.384 404.807 134.744C404.807 136.376 403.943 137.72 401.255 138.104L389.639 139.832C381.767 140.984 375.527 145.688 375.527 154.136ZM394.439 158.84C390.311 158.84 388.295 156.152 388.295 153.368C388.295 149.72 390.887 147.896 394.151 147.416L404.807 145.784V147.896C404.807 156.248 399.815 158.84 394.439 158.84ZM441.005 167V139.352C441.005 134.168 444.269 130.04 449.837 130.04C455.597 130.04 458.189 133.88 458.189 138.968V167H470.861V139.352C470.861 134.264 474.125 130.04 479.597 130.04C485.453 130.04 487.949 133.88 487.949 138.968V167H500.333V136.376C500.333 123.704 491.981 118.424 483.245 118.424C477.005 118.424 472.013 120.536 468.269 126.296C465.869 121.208 460.685 118.424 454.253 118.424C449.069 118.424 443.021 120.92 440.429 125.528V119.768H428.237V167H441.005Z" fill="#1A1A1A"/>
</svg>
