<svg width="607" height="187" viewBox="0 0 607 187" fill="none" xmlns="http://www.w3.org/2000/svg">
<path d="M66.4105 70V34.576H32.4265V46.096H53.9305C53.1625 50.896 48.2665 59.344 35.6905 59.344C24.2665 59.344 14.1865 51.376 14.1865 36.016C14.1865 19.888 25.3225 12.88 35.5945 12.88C46.6345 12.88 52.2985 19.888 54.0265 25.936L66.6985 21.424C63.3385 10.96 53.4505 0.495996 35.5945 0.495996C17.1625 0.495996 0.746503 14.032 0.746503 36.016C0.746503 58 16.3945 71.44 34.7305 71.44C45.0025 71.44 51.7225 66.832 54.7945 62.224L55.6585 70H66.4105ZM74.0185 57.136C74.0185 64.528 80.1625 71.344 90.2425 71.344C97.2505 71.344 101.763 68.08 104.163 64.336C104.163 66.16 104.355 68.752 104.643 70H116.355C116.067 68.368 115.779 65.008 115.779 62.512V39.28C115.779 29.776 110.211 21.328 95.2345 21.328C82.5625 21.328 75.7465 29.488 74.9785 36.88L86.3065 39.28C86.6905 35.152 89.7625 31.6 95.3305 31.6C100.707 31.6 103.299 34.384 103.299 37.744C103.299 39.376 102.435 40.72 99.7465 41.104L88.1305 42.832C80.2585 43.984 74.0185 48.688 74.0185 57.136ZM92.9305 61.84C88.8025 61.84 86.7865 59.152 86.7865 56.368C86.7865 52.72 89.3785 50.896 92.6425 50.416L103.299 48.784V50.896C103.299 59.248 98.3065 61.84 92.9305 61.84ZM139.497 70V0.495996H126.729V70H139.497ZM164.014 70V0.495996H151.246V70H164.014ZM185.076 41.008C185.364 36.688 189.012 31.696 195.636 31.696C202.932 31.696 206.004 36.304 206.196 41.008H185.076ZM207.444 53.296C205.908 57.52 202.644 60.496 196.692 60.496C190.356 60.496 185.076 55.984 184.788 49.744H218.58C218.58 49.552 218.772 47.632 218.772 45.808C218.772 30.64 210.036 21.328 195.444 21.328C183.348 21.328 172.212 31.12 172.212 46.192C172.212 62.128 183.636 71.44 196.596 71.44C208.212 71.44 215.7 64.624 218.1 56.464L207.444 53.296ZM255.706 22.576C254.746 22.48 253.786 22.384 252.73 22.384C248.698 22.384 242.17 23.536 239.29 29.776V22.768H226.906V70H239.674V48.4C239.674 38.224 245.338 35.056 251.866 35.056C253.018 35.056 254.266 35.152 255.706 35.44V22.576ZM281.15 88.624L310.814 22.768H297.182L285.566 50.416L272.99 22.768H258.686L278.75 64.048L267.614 88.624H281.15ZM351.195 42.256C351.483 37.072 354.651 33.04 360.027 33.04C366.171 33.04 368.763 37.168 368.763 42.448V70H381.531V40.24C381.531 29.872 375.963 21.52 363.963 21.52C359.451 21.52 354.267 23.056 351.195 26.704V0.495996H338.427V70H351.195V42.256ZM389.69 57.136C389.69 64.528 395.834 71.344 405.914 71.344C412.922 71.344 417.434 68.08 419.834 64.336C419.834 66.16 420.026 68.752 420.314 70H432.026C431.738 68.368 431.45 65.008 431.45 62.512V39.28C431.45 29.776 425.882 21.328 410.906 21.328C398.234 21.328 391.418 29.488 390.65 36.88L401.978 39.28C402.362 35.152 405.434 31.6 411.002 31.6C416.378 31.6 418.97 34.384 418.97 37.744C418.97 39.376 418.106 40.72 415.418 41.104L403.802 42.832C395.93 43.984 389.69 48.688 389.69 57.136ZM408.602 61.84C404.474 61.84 402.458 59.152 402.458 56.368C402.458 52.72 405.05 50.896 408.314 50.416L418.97 48.784V50.896C418.97 59.248 413.978 61.84 408.602 61.84ZM438.368 56.848C438.944 62.224 443.84 71.44 458.048 71.44C470.432 71.44 476.384 63.568 476.384 55.888C476.384 48.976 471.68 43.312 462.368 41.392L455.648 39.952C453.056 39.472 451.328 38.032 451.328 35.728C451.328 33.04 454.016 31.024 457.376 31.024C462.752 31.024 464.768 34.576 465.152 37.36L475.808 34.96C475.232 29.872 470.72 21.328 457.28 21.328C447.104 21.328 439.616 28.336 439.616 36.784C439.616 43.408 443.744 48.88 452.864 50.896L459.104 52.336C462.752 53.104 464.192 54.832 464.192 56.944C464.192 59.44 462.176 61.648 457.952 61.648C452.384 61.648 449.6 58.192 449.312 54.448L438.368 56.848ZM519.297 42.832C519.297 37.36 522.561 33.04 528.129 33.04C534.273 33.04 536.865 37.168 536.865 42.448V70H549.633V40.24C549.633 29.872 544.257 21.52 532.545 21.52C527.457 21.52 521.793 23.728 518.913 28.624V22.768H506.529V70H519.297V42.832ZM581.887 59.824C575.647 59.824 569.887 55.216 569.887 46.384C569.887 37.456 575.647 32.944 581.887 32.944C588.127 32.944 593.887 37.456 593.887 46.384C593.887 55.312 588.127 59.824 581.887 59.824ZM581.887 21.328C567.775 21.328 557.119 31.792 557.119 46.384C557.119 60.88 567.775 71.44 581.887 71.44C595.999 71.44 606.655 60.88 606.655 46.384C606.655 31.792 595.999 21.328 581.887 21.328ZM76.894 167V119.768H64.126V167H76.894ZM62.59 104.312C62.59 108.536 66.142 112.088 70.462 112.088C74.878 112.088 78.334 108.536 78.334 104.312C78.334 99.896 74.878 96.344 70.462 96.344C66.142 96.344 62.59 99.896 62.59 104.312ZM101.412 167V139.352C101.412 134.168 104.675 130.04 110.243 130.04C116.003 130.04 118.596 133.88 118.596 138.968V167H131.268V139.352C131.268 134.264 134.532 130.04 140.003 130.04C145.86 130.04 148.356 133.88 148.356 138.968V167H160.74V136.376C160.74 123.704 152.388 118.424 143.652 118.424C137.412 118.424 132.42 120.536 128.676 126.296C126.276 121.208 121.092 118.424 114.66 118.424C109.476 118.424 103.428 120.92 100.836 125.528V119.768H88.6435V167H101.412ZM168.875 154.136C168.875 161.528 175.019 168.344 185.099 168.344C192.107 168.344 196.619 165.08 199.019 161.336C199.019 163.16 199.211 165.752 199.499 167H211.211C210.923 165.368 210.635 162.008 210.635 159.512V136.28C210.635 126.776 205.067 118.328 190.091 118.328C177.419 118.328 170.603 126.488 169.835 133.88L181.163 136.28C181.547 132.152 184.619 128.6 190.187 128.6C195.563 128.6 198.155 131.384 198.155 134.744C198.155 136.376 197.291 137.72 194.603 138.104L182.987 139.832C175.115 140.984 168.875 145.688 168.875 154.136ZM187.787 158.84C183.659 158.84 181.643 156.152 181.643 153.368C181.643 149.72 184.235 147.896 187.499 147.416L198.155 145.784V147.896C198.155 156.248 193.163 158.84 187.787 158.84ZM218.037 169.592C219.381 178.616 228.021 186.68 240.981 186.68C258.741 186.68 265.749 174.872 265.749 161.912V119.768H253.461V125.336C251.829 122.168 247.509 118.904 240.021 118.904C227.061 118.904 218.037 129.464 218.037 141.944C218.037 155.192 227.445 164.888 240.021 164.888C246.837 164.888 251.253 161.912 253.173 158.84V162.296C253.173 171.416 248.661 175.448 240.597 175.448C234.549 175.448 230.421 171.704 229.557 166.52L218.037 169.592ZM242.229 153.944C235.605 153.944 230.901 149.336 230.901 141.944C230.901 134.648 235.893 130.04 242.229 130.04C248.373 130.04 253.365 134.648 253.365 141.944C253.365 149.24 248.757 153.944 242.229 153.944ZM286.071 138.008C286.359 133.688 290.007 128.696 296.631 128.696C303.927 128.696 306.999 133.304 307.191 138.008H286.071ZM308.439 150.296C306.903 154.52 303.639 157.496 297.687 157.496C291.351 157.496 286.071 152.984 285.783 146.744H319.575C319.575 146.552 319.767 144.632 319.767 142.808C319.767 127.64 311.031 118.328 296.439 118.328C284.343 118.328 273.207 128.12 273.207 143.192C273.207 159.128 284.631 168.44 297.591 168.44C309.207 168.44 316.695 161.624 319.095 153.464L308.439 150.296ZM323.869 153.848C324.445 159.224 329.341 168.44 343.549 168.44C355.933 168.44 361.885 160.568 361.885 152.888C361.885 145.976 357.181 140.312 347.869 138.392L341.149 136.952C338.557 136.472 336.829 135.032 336.829 132.728C336.829 130.04 339.517 128.024 342.877 128.024C348.253 128.024 350.269 131.576 350.653 134.36L361.309 131.96C360.733 126.872 356.221 118.328 342.781 118.328C332.605 118.328 325.117 125.336 325.117 133.784C325.117 140.408 329.245 145.88 338.365 147.896L344.605 149.336C348.253 150.104 349.693 151.832 349.693 153.944C349.693 156.44 347.677 158.648 343.453 158.648C337.885 158.648 335.101 155.192 334.813 151.448L323.869 153.848ZM408.35 185.624L438.014 119.768H424.382L412.766 147.416L400.19 119.768H385.886L405.95 161.048L394.814 185.624H408.35ZM450.891 138.008C451.179 133.688 454.827 128.696 461.451 128.696C468.747 128.696 471.819 133.304 472.011 138.008H450.891ZM473.259 150.296C471.723 154.52 468.459 157.496 462.507 157.496C456.171 157.496 450.891 152.984 450.603 146.744H484.395C484.395 146.552 484.587 144.632 484.587 142.808C484.587 127.64 475.851 118.328 461.259 118.328C449.163 118.328 438.027 128.12 438.027 143.192C438.027 159.128 449.451 168.44 462.411 168.44C474.027 168.44 481.515 161.624 483.915 153.464L473.259 150.296ZM508.465 105.656H496.945V112.28C496.945 116.504 494.641 119.768 489.649 119.768H487.249V131.096H495.793V153.08C495.793 162.2 501.553 167.672 510.769 167.672C514.513 167.672 516.817 167 517.969 166.52V155.96C517.297 156.152 515.569 156.344 514.033 156.344C510.385 156.344 508.465 155 508.465 150.872V131.096H517.969V119.768H508.465V105.656ZM525.941 158.936C525.941 163.736 529.877 167.672 534.677 167.672C539.573 167.672 543.509 163.736 543.509 158.936C543.509 154.136 539.573 150.2 534.677 150.2C529.877 150.2 525.941 154.136 525.941 158.936Z" fill="#1A1A1A"/>
</svg>
