<svg width="655" height="188" viewBox="0 0 655 188" fill="none" xmlns="http://www.w3.org/2000/svg">
<path d="M37.5285 2.936V71H63.8325C76.6005 71 84.8565 63.032 84.8565 51.992C84.8565 43.544 79.4805 37.496 72.8565 35.864C78.5205 33.944 82.7445 28.28 82.7445 21.272C82.7445 10.712 75.2565 2.936 62.0085 2.936H37.5285ZM50.5845 31.064V14.072H59.8965C66.3285 14.072 69.6885 17.336 69.6885 22.52C69.6885 27.704 66.0405 31.064 59.9925 31.064H50.5845ZM50.5845 59.96V42.008H61.5285C68.1525 42.008 71.6085 45.752 71.6085 51.128C71.6085 56.6 67.7685 59.96 61.3365 59.96H50.5845ZM103.023 42.008C103.311 37.688 106.959 32.696 113.583 32.696C120.879 32.696 123.951 37.304 124.143 42.008H103.023ZM125.391 54.296C123.855 58.52 120.591 61.496 114.639 61.496C108.303 61.496 103.023 56.984 102.735 50.744H136.527C136.527 50.552 136.719 48.632 136.719 46.808C136.719 31.64 127.983 22.328 113.391 22.328C101.295 22.328 90.159 32.12 90.159 47.192C90.159 63.128 101.583 72.44 114.543 72.44C126.159 72.44 133.647 65.624 136.047 57.464L125.391 54.296ZM166.742 12.056C168.854 12.056 170.102 12.344 170.774 12.536V1.784C169.718 1.304 167.126 0.823999 164.438 0.823999C153.974 0.823999 147.254 7.736 147.254 18.392V23.768H139.382V34.712H147.254V71H160.118V34.712H170.774V23.768H160.118V18.584C160.118 13.304 163.862 12.056 166.742 12.056ZM197.337 60.824C191.097 60.824 185.337 56.216 185.337 47.384C185.337 38.456 191.097 33.944 197.337 33.944C203.577 33.944 209.337 38.456 209.337 47.384C209.337 56.312 203.577 60.824 197.337 60.824ZM197.337 22.328C183.225 22.328 172.569 32.792 172.569 47.384C172.569 61.88 183.225 72.44 197.337 72.44C211.449 72.44 222.105 61.88 222.105 47.384C222.105 32.792 211.449 22.328 197.337 22.328ZM259.064 23.576C258.104 23.48 257.144 23.384 256.088 23.384C252.056 23.384 245.528 24.536 242.648 30.776V23.768H230.264V71H243.032V49.4C243.032 39.224 248.696 36.056 255.224 36.056C256.376 36.056 257.624 36.152 259.064 36.44V23.576ZM274.968 42.008C275.256 37.688 278.904 32.696 285.528 32.696C292.824 32.696 295.896 37.304 296.088 42.008H274.968ZM297.336 54.296C295.8 58.52 292.536 61.496 286.584 61.496C280.248 61.496 274.968 56.984 274.68 50.744H308.472C308.472 50.552 308.664 48.632 308.664 46.808C308.664 31.64 299.928 22.328 285.336 22.328C273.24 22.328 262.104 32.12 262.104 47.192C262.104 63.128 273.528 72.44 286.488 72.44C298.104 72.44 305.592 65.624 307.992 57.464L297.336 54.296ZM377.381 2.07199H365.765L331.781 71.864H343.301L377.381 2.07199ZM451.175 71H465.575L439.655 2.936H424.295L398.183 71H412.199L417.863 55.448H445.511L451.175 71ZM431.687 17.624L441.095 43.352H422.279L431.687 17.624ZM492.163 12.056C494.275 12.056 495.523 12.344 496.195 12.536V1.784C495.139 1.304 492.547 0.823999 489.859 0.823999C479.395 0.823999 472.675 7.736 472.675 18.392V23.768H464.803V34.712H472.675V71H485.539V34.712H496.195V23.768H485.539V18.584C485.539 13.304 489.283 12.056 492.163 12.056ZM520.38 9.65599H508.86V16.28C508.86 20.504 506.556 23.768 501.564 23.768H499.164V35.096H507.708V57.08C507.708 66.2 513.468 71.672 522.684 71.672C526.428 71.672 528.732 71 529.884 70.52V59.96C529.212 60.152 527.484 60.344 525.948 60.344C522.3 60.344 520.38 59 520.38 54.872V35.096H529.884V23.768H520.38V9.65599ZM547.653 42.008C547.941 37.688 551.589 32.696 558.213 32.696C565.509 32.696 568.581 37.304 568.773 42.008H547.653ZM570.021 54.296C568.485 58.52 565.221 61.496 559.269 61.496C552.933 61.496 547.653 56.984 547.365 50.744H581.157C581.157 50.552 581.349 48.632 581.349 46.808C581.349 31.64 572.613 22.328 558.021 22.328C545.925 22.328 534.789 32.12 534.789 47.192C534.789 63.128 546.213 72.44 559.173 72.44C570.789 72.44 578.277 65.624 580.677 57.464L570.021 54.296ZM618.283 23.576C617.323 23.48 616.363 23.384 615.307 23.384C611.275 23.384 604.747 24.536 601.867 30.776V23.768H589.483V71H602.251V49.4C602.251 39.224 607.915 36.056 614.443 36.056C615.595 36.056 616.843 36.152 618.283 36.44V23.576ZM76.1051 168V99.936H58.0571L38.0891 149.088L17.6411 99.936H0.169127V168H12.8411V120.672L32.4251 168H43.4651L63.0491 120.288V168H76.1051ZM101.557 168V120.768H88.7891V168H101.557ZM87.2531 105.312C87.2531 109.536 90.8051 113.088 95.1251 113.088C99.5411 113.088 102.997 109.536 102.997 105.312C102.997 100.896 99.5411 97.344 95.1251 97.344C90.8051 97.344 87.2531 100.896 87.2531 105.312ZM109.275 154.848C109.851 160.224 114.747 169.44 128.955 169.44C141.339 169.44 147.291 161.568 147.291 153.888C147.291 146.976 142.587 141.312 133.275 139.392L126.555 137.952C123.963 137.472 122.235 136.032 122.235 133.728C122.235 131.04 124.923 129.024 128.283 129.024C133.659 129.024 135.675 132.576 136.059 135.36L146.715 132.96C146.139 127.872 141.627 119.328 128.187 119.328C118.011 119.328 110.523 126.336 110.523 134.784C110.523 141.408 114.651 146.88 123.771 148.896L130.011 150.336C133.659 151.104 135.099 152.832 135.099 154.944C135.099 157.44 133.083 159.648 128.859 159.648C123.291 159.648 120.507 156.192 120.219 152.448L109.275 154.848ZM151.605 154.848C152.181 160.224 157.077 169.44 171.285 169.44C183.669 169.44 189.621 161.568 189.621 153.888C189.621 146.976 184.917 141.312 175.605 139.392L168.885 137.952C166.293 137.472 164.565 136.032 164.565 133.728C164.565 131.04 167.253 129.024 170.613 129.024C175.989 129.024 178.005 132.576 178.389 135.36L189.045 132.96C188.469 127.872 183.957 119.328 170.517 119.328C160.341 119.328 152.853 126.336 152.853 134.784C152.853 141.408 156.981 146.88 166.101 148.896L172.341 150.336C175.989 151.104 177.429 152.832 177.429 154.944C177.429 157.44 175.413 159.648 171.189 159.648C165.621 159.648 162.837 156.192 162.549 152.448L151.605 154.848ZM210.735 168V120.768H197.967V168H210.735ZM196.431 105.312C196.431 109.536 199.983 113.088 204.303 113.088C208.719 113.088 212.175 109.536 212.175 105.312C212.175 100.896 208.719 97.344 204.303 97.344C199.983 97.344 196.431 100.896 196.431 105.312ZM235.252 140.832C235.252 135.36 238.516 131.04 244.084 131.04C250.228 131.04 252.82 135.168 252.82 140.448V168H265.588V138.24C265.588 127.872 260.212 119.52 248.5 119.52C243.412 119.52 237.748 121.728 234.868 126.624V120.768H222.484V168H235.252V140.832ZM273.267 170.592C274.611 179.616 283.251 187.68 296.211 187.68C313.971 187.68 320.979 175.872 320.979 162.912V120.768H308.691V126.336C307.059 123.168 302.739 119.904 295.251 119.904C282.291 119.904 273.267 130.464 273.267 142.944C273.267 156.192 282.675 165.888 295.251 165.888C302.067 165.888 306.483 162.912 308.403 159.84V163.296C308.403 172.416 303.891 176.448 295.827 176.448C289.779 176.448 285.651 172.704 284.787 167.52L273.267 170.592ZM297.459 154.944C290.835 154.944 286.131 150.336 286.131 142.944C286.131 135.648 291.123 131.04 297.459 131.04C303.603 131.04 308.595 135.648 308.595 142.944C308.595 150.24 303.987 154.944 297.459 154.944ZM368.187 168V99.936H354.747V168H368.187ZM393.603 168V140.352C393.603 135.168 396.867 131.04 402.435 131.04C408.195 131.04 410.787 134.88 410.787 139.968V168H423.459V140.352C423.459 135.264 426.723 131.04 432.195 131.04C438.051 131.04 440.547 134.88 440.547 139.968V168H452.931V137.376C452.931 124.704 444.579 119.424 435.843 119.424C429.603 119.424 424.611 121.536 420.867 127.296C418.467 122.208 413.283 119.424 406.851 119.424C401.667 119.424 395.619 121.92 393.027 126.528V120.768H380.835V168H393.603ZM461.067 155.136C461.067 162.528 467.211 169.344 477.291 169.344C484.299 169.344 488.811 166.08 491.211 162.336C491.211 164.16 491.403 166.752 491.691 168H503.403C503.115 166.368 502.827 163.008 502.827 160.512V137.28C502.827 127.776 497.259 119.328 482.283 119.328C469.611 119.328 462.795 127.488 462.027 134.88L473.355 137.28C473.739 133.152 476.811 129.6 482.379 129.6C487.755 129.6 490.347 132.384 490.347 135.744C490.347 137.376 489.483 138.72 486.795 139.104L475.179 140.832C467.307 141.984 461.067 146.688 461.067 155.136ZM479.979 159.84C475.851 159.84 473.835 157.152 473.835 154.368C473.835 150.72 476.427 148.896 479.691 148.416L490.347 146.784V148.896C490.347 157.248 485.355 159.84 479.979 159.84ZM510.229 170.592C511.573 179.616 520.213 187.68 533.173 187.68C550.933 187.68 557.941 175.872 557.941 162.912V120.768H545.653V126.336C544.021 123.168 539.701 119.904 532.213 119.904C519.253 119.904 510.229 130.464 510.229 142.944C510.229 156.192 519.637 165.888 532.213 165.888C539.029 165.888 543.445 162.912 545.365 159.84V163.296C545.365 172.416 540.853 176.448 532.789 176.448C526.741 176.448 522.613 172.704 521.749 167.52L510.229 170.592ZM534.421 154.944C527.797 154.944 523.093 150.336 523.093 142.944C523.093 135.648 528.085 131.04 534.421 131.04C540.565 131.04 545.557 135.648 545.557 142.944C545.557 150.24 540.949 154.944 534.421 154.944ZM578.262 139.008C578.55 134.688 582.198 129.696 588.822 129.696C596.118 129.696 599.19 134.304 599.382 139.008H578.262ZM600.63 151.296C599.094 155.52 595.83 158.496 589.878 158.496C583.542 158.496 578.262 153.984 577.974 147.744H611.766C611.766 147.552 611.958 145.632 611.958 143.808C611.958 128.64 603.222 119.328 588.63 119.328C576.534 119.328 565.398 129.12 565.398 144.192C565.398 160.128 576.822 169.44 589.782 169.44C601.398 169.44 608.886 162.624 611.286 154.464L600.63 151.296ZM616.061 154.848C616.637 160.224 621.533 169.44 635.741 169.44C648.125 169.44 654.077 161.568 654.077 153.888C654.077 146.976 649.373 141.312 640.061 139.392L633.341 137.952C630.749 137.472 629.021 136.032 629.021 133.728C629.021 131.04 631.709 129.024 635.069 129.024C640.445 129.024 642.461 132.576 642.845 135.36L653.501 132.96C652.925 127.872 648.413 119.328 634.973 119.328C624.797 119.328 617.309 126.336 617.309 134.784C617.309 141.408 621.437 146.88 630.557 148.896L636.797 150.336C640.445 151.104 641.885 152.832 641.885 154.944C641.885 157.44 639.869 159.648 635.645 159.648C630.077 159.648 627.293 156.192 627.005 152.448L616.061 154.848Z" fill="#1A1A1A"/>
</svg>
