<svg width="549" height="170" viewBox="0 0 549 170" fill="none" xmlns="http://www.w3.org/2000/svg">
<path d="M52.0876 72.44C71.1916 72.44 80.9836 59.768 83.5756 49.304L71.1916 45.56C69.3676 51.896 63.7036 59.48 52.0876 59.48C41.1436 59.48 30.9676 51.512 30.9676 37.016C30.9676 21.56 41.7196 14.264 51.8956 14.264C63.7036 14.264 68.9836 21.464 70.6156 27.992L83.0956 24.056C80.4076 13.016 70.7116 1.496 51.8956 1.496C33.6556 1.496 17.2396 15.32 17.2396 37.016C17.2396 58.712 33.0796 72.44 52.0876 72.44ZM103.535 71V1.496H90.7666V71H103.535ZM128.052 71V23.768H115.284V71H128.052ZM113.748 8.31199C113.748 12.536 117.3 16.088 121.62 16.088C126.036 16.088 129.492 12.536 129.492 8.31199C129.492 3.89599 126.036 0.343994 121.62 0.343994C117.3 0.343994 113.748 3.89599 113.748 8.31199ZM161.018 34.136C167.354 34.136 170.33 38.168 171.482 42.104L182.906 38.264C180.89 30.296 173.594 22.328 160.73 22.328C147.002 22.328 136.25 32.792 136.25 47.384C136.25 61.88 147.194 72.44 161.114 72.44C173.69 72.44 181.082 64.376 183.194 56.504L171.962 52.76C170.906 56.408 167.642 60.728 161.114 60.728C154.586 60.728 149.018 55.928 149.018 47.384C149.018 38.84 154.49 34.136 161.018 34.136ZM236.455 23.768H219.751L203.431 41.336V1.496H190.663V71H203.431V58.52L208.711 52.952L221.191 71H236.839L217.543 43.64L236.455 23.768ZM279.911 9.65599H268.391V16.28C268.391 20.504 266.087 23.768 261.095 23.768H258.695V35.096H267.239V57.08C267.239 66.2 272.999 71.672 282.215 71.672C285.959 71.672 288.263 71 289.415 70.52V59.96C288.743 60.152 287.015 60.344 285.479 60.344C281.831 60.344 279.911 59 279.911 54.872V35.096H289.415V23.768H279.911V9.65599ZM319.088 60.824C312.848 60.824 307.088 56.216 307.088 47.384C307.088 38.456 312.848 33.944 319.088 33.944C325.328 33.944 331.088 38.456 331.088 47.384C331.088 56.312 325.328 60.824 319.088 60.824ZM319.088 22.328C304.976 22.328 294.32 32.792 294.32 47.384C294.32 61.88 304.976 72.44 319.088 72.44C333.2 72.44 343.856 61.88 343.856 47.384C343.856 32.792 333.2 22.328 319.088 22.328ZM383.125 42.008C383.413 37.688 387.061 32.696 393.685 32.696C400.981 32.696 404.053 37.304 404.245 42.008H383.125ZM405.493 54.296C403.957 58.52 400.693 61.496 394.741 61.496C388.405 61.496 383.125 56.984 382.837 50.744H416.629C416.629 50.552 416.821 48.632 416.821 46.808C416.821 31.64 408.085 22.328 393.493 22.328C381.397 22.328 370.261 32.12 370.261 47.192C370.261 63.128 381.685 72.44 394.645 72.44C406.261 72.44 413.749 65.624 416.149 57.464L405.493 54.296ZM469.979 1.496H457.403V28.472C456.059 25.976 452.219 22.616 444.059 22.616C430.715 22.616 421.403 33.464 421.403 47.288C421.403 61.592 431.003 72.152 444.443 72.152C450.779 72.152 455.579 69.272 457.691 65.528C457.691 67.736 457.979 70.04 458.171 71H470.363C470.171 69.08 469.979 65.624 469.979 62.456V1.496ZM434.267 47.288C434.267 38.84 439.451 34.04 445.979 34.04C452.507 34.04 457.595 38.744 457.595 47.192C457.595 55.736 452.507 60.728 445.979 60.728C439.259 60.728 434.267 55.736 434.267 47.288ZM494.678 71V23.768H481.91V71H494.678ZM480.374 8.31199C480.374 12.536 483.926 16.088 488.246 16.088C492.662 16.088 496.118 12.536 496.118 8.31199C496.118 3.89599 492.662 0.343994 488.246 0.343994C483.926 0.343994 480.374 3.89599 480.374 8.31199ZM522.172 9.65599H510.652V16.28C510.652 20.504 508.348 23.768 503.356 23.768H500.956V35.096H509.5V57.08C509.5 66.2 515.26 71.672 524.476 71.672C528.22 71.672 530.524 71 531.676 70.52V59.96C531.004 60.152 529.276 60.344 527.74 60.344C524.092 60.344 522.172 59 522.172 54.872V35.096H531.676V23.768H522.172V9.65599ZM25.4514 131.136C31.7874 131.136 34.7634 135.168 35.9154 139.104L47.3394 135.264C45.3234 127.296 38.0274 119.328 25.1634 119.328C11.4354 119.328 0.683373 129.792 0.683373 144.384C0.683373 158.88 11.6274 169.44 25.5474 169.44C38.1234 169.44 45.5154 161.376 47.6274 153.504L36.3954 149.76C35.3394 153.408 32.0754 157.728 25.5474 157.728C19.0194 157.728 13.4514 152.928 13.4514 144.384C13.4514 135.84 18.9234 131.136 25.4514 131.136ZM85.2586 168H97.4506C97.2586 166.368 96.9706 163.104 96.9706 159.456V120.768H84.2026V148.224C84.2026 153.696 80.9386 157.536 75.2746 157.536C69.3226 157.536 66.6346 153.312 66.6346 148.032V120.768H53.8666V150.624C53.8666 160.896 60.3946 169.248 71.8186 169.248C76.8106 169.248 82.2826 167.328 84.8746 162.912C84.8746 164.832 85.0666 167.04 85.2586 168ZM104.645 154.848C105.221 160.224 110.117 169.44 124.325 169.44C136.709 169.44 142.661 161.568 142.661 153.888C142.661 146.976 137.957 141.312 128.645 139.392L121.925 137.952C119.333 137.472 117.605 136.032 117.605 133.728C117.605 131.04 120.293 129.024 123.653 129.024C129.029 129.024 131.045 132.576 131.429 135.36L142.085 132.96C141.509 127.872 136.997 119.328 123.557 119.328C113.381 119.328 105.893 126.336 105.893 134.784C105.893 141.408 110.021 146.88 119.141 148.896L125.381 150.336C129.029 151.104 130.469 152.832 130.469 154.944C130.469 157.44 128.453 159.648 124.229 159.648C118.661 159.648 115.877 156.192 115.589 152.448L104.645 154.848ZM166.751 106.656H155.231V113.28C155.231 117.504 152.927 120.768 147.935 120.768H145.535V132.096H154.079V154.08C154.079 163.2 159.839 168.672 169.055 168.672C172.799 168.672 175.103 168 176.255 167.52V156.96C175.583 157.152 173.855 157.344 172.319 157.344C168.671 157.344 166.751 156 166.751 151.872V132.096H176.255V120.768H166.751V106.656ZM205.928 157.824C199.688 157.824 193.928 153.216 193.928 144.384C193.928 135.456 199.688 130.944 205.928 130.944C212.168 130.944 217.928 135.456 217.928 144.384C217.928 153.312 212.168 157.824 205.928 157.824ZM205.928 119.328C191.816 119.328 181.16 129.792 181.16 144.384C181.16 158.88 191.816 169.44 205.928 169.44C220.04 169.44 230.696 158.88 230.696 144.384C230.696 129.792 220.04 119.328 205.928 119.328ZM251.622 168V140.352C251.622 135.168 254.886 131.04 260.454 131.04C266.214 131.04 268.806 134.88 268.806 139.968V168H281.478V140.352C281.478 135.264 284.742 131.04 290.214 131.04C296.07 131.04 298.566 134.88 298.566 139.968V168H310.95V137.376C310.95 124.704 302.598 119.424 293.862 119.424C287.622 119.424 282.63 121.536 278.886 127.296C276.486 122.208 271.302 119.424 264.87 119.424C259.686 119.424 253.638 121.92 251.046 126.528V120.768H238.854V168H251.622ZM364.98 131.136C371.316 131.136 374.292 135.168 375.444 139.104L386.868 135.264C384.852 127.296 377.556 119.328 364.692 119.328C350.964 119.328 340.212 129.792 340.212 144.384C340.212 158.88 351.156 169.44 365.076 169.44C377.652 169.44 385.044 161.376 387.156 153.504L375.924 149.76C374.868 153.408 371.604 157.728 365.076 157.728C358.548 157.728 352.98 152.928 352.98 144.384C352.98 135.84 358.452 131.136 364.98 131.136ZM415.373 157.824C409.133 157.824 403.373 153.216 403.373 144.384C403.373 135.456 409.133 130.944 415.373 130.944C421.613 130.944 427.373 135.456 427.373 144.384C427.373 153.312 421.613 157.824 415.373 157.824ZM415.373 119.328C401.261 119.328 390.605 129.792 390.605 144.384C390.605 158.88 401.261 169.44 415.373 169.44C429.485 169.44 440.141 158.88 440.141 144.384C440.141 129.792 429.485 119.328 415.373 119.328ZM493.323 98.496H480.747V125.472C479.403 122.976 475.563 119.616 467.403 119.616C454.059 119.616 444.747 130.464 444.747 144.288C444.747 158.592 454.347 169.152 467.787 169.152C474.123 169.152 478.923 166.272 481.035 162.528C481.035 164.736 481.323 167.04 481.515 168H493.707C493.515 166.08 493.323 162.624 493.323 159.456V98.496ZM457.611 144.288C457.611 135.84 462.795 131.04 469.323 131.04C475.851 131.04 480.939 135.744 480.939 144.192C480.939 152.736 475.851 157.728 469.323 157.728C462.603 157.728 457.611 152.736 457.611 144.288ZM514.566 139.008C514.854 134.688 518.502 129.696 525.126 129.696C532.422 129.696 535.494 134.304 535.686 139.008H514.566ZM536.934 151.296C535.398 155.52 532.134 158.496 526.182 158.496C519.846 158.496 514.566 153.984 514.278 147.744H548.07C548.07 147.552 548.262 145.632 548.262 143.808C548.262 128.64 539.526 119.328 524.934 119.328C512.838 119.328 501.702 129.12 501.702 144.192C501.702 160.128 513.126 169.44 526.086 169.44C537.702 169.44 545.19 162.624 547.59 154.464L536.934 151.296Z" fill="#1A1A1A"/>
</svg>
