<svg width="661" height="187" viewBox="0 0 661 187" fill="none" xmlns="http://www.w3.org/2000/svg">
<path d="M58.7335 71V2.936H45.4855V47.96L17.1655 2.936H0.653502V71H13.9015V22.712L44.8135 71H58.7335ZM92.302 60.824C86.062 60.824 80.302 56.216 80.302 47.384C80.302 38.456 86.062 33.944 92.302 33.944C98.542 33.944 104.302 38.456 104.302 47.384C104.302 56.312 98.542 60.824 92.302 60.824ZM92.302 22.328C78.19 22.328 67.534 32.792 67.534 47.384C67.534 61.88 78.19 72.44 92.302 72.44C106.414 72.44 117.07 61.88 117.07 47.384C117.07 32.792 106.414 22.328 92.302 22.328ZM191.571 71V58.328H161.235V2.936H147.987V71H191.571ZM220.136 60.824C213.896 60.824 208.136 56.216 208.136 47.384C208.136 38.456 213.896 33.944 220.136 33.944C226.376 33.944 232.136 38.456 232.136 47.384C232.136 56.312 226.376 60.824 220.136 60.824ZM220.136 22.328C206.024 22.328 195.368 32.792 195.368 47.384C195.368 61.88 206.024 72.44 220.136 72.44C234.248 72.44 244.904 61.88 244.904 47.384C244.904 32.792 234.248 22.328 220.136 22.328ZM268.619 9.65599H257.099V16.28C257.099 20.504 254.795 23.768 249.803 23.768H247.403V35.096H255.947V57.08C255.947 66.2 261.707 71.672 270.923 71.672C274.667 71.672 276.971 71 278.123 70.52V59.96C277.451 60.152 275.723 60.344 274.187 60.344C270.539 60.344 268.619 59 268.619 54.872V35.096H278.123V23.768H268.619V9.65599ZM302.511 9.65599H290.991V16.28C290.991 20.504 288.687 23.768 283.695 23.768H281.295V35.096H289.839V57.08C289.839 66.2 295.599 71.672 304.815 71.672C308.559 71.672 310.863 71 312.015 70.52V59.96C311.343 60.152 309.615 60.344 308.079 60.344C304.431 60.344 302.511 59 302.511 54.872V35.096H312.015V23.768H302.511V9.65599ZM333.709 71V23.768H320.941V71H333.709ZM319.405 8.31199C319.405 12.536 322.957 16.088 327.277 16.088C331.693 16.088 335.149 12.536 335.149 8.31199C335.149 3.89599 331.693 0.343994 327.277 0.343994C322.957 0.343994 319.405 3.89599 319.405 8.31199ZM354.771 42.008C355.059 37.688 358.707 32.696 365.331 32.696C372.627 32.696 375.699 37.304 375.891 42.008H354.771ZM377.139 54.296C375.603 58.52 372.339 61.496 366.387 61.496C360.051 61.496 354.771 56.984 354.483 50.744H388.275C388.275 50.552 388.467 48.632 388.467 46.808C388.467 31.64 379.731 22.328 365.139 22.328C353.043 22.328 341.907 32.12 341.907 47.192C341.907 63.128 353.331 72.44 366.291 72.44C377.907 72.44 385.395 65.624 387.795 57.464L377.139 54.296ZM413.504 50.264C413.504 63.608 422.336 72.44 435.776 72.44C449.024 72.44 457.952 62.264 457.952 49.976V2.936H444.704V49.976C444.704 55.928 441.248 59.864 435.68 59.864C430.304 59.864 426.368 56.696 426.272 49.688V43.448L413.504 45.752V50.264ZM516.669 19.16C515.133 11.48 508.797 1.496 492.285 1.496C479.421 1.496 468.573 10.712 468.573 22.808C468.573 33.08 475.581 40.088 486.429 42.296L495.933 44.216C501.213 45.272 504.189 48.344 504.189 52.28C504.189 57.08 500.253 60.632 493.149 60.632C483.549 60.632 478.845 54.584 478.269 47.864L465.981 51.128C467.037 60.824 475.005 72.44 493.053 72.44C508.893 72.44 517.629 61.88 517.629 51.416C517.629 41.816 511.005 33.752 498.621 31.352L489.117 29.528C484.125 28.568 481.725 25.592 481.725 21.848C481.725 17.336 485.949 13.208 492.381 13.208C501.021 13.208 504.093 19.064 504.765 22.808L516.669 19.16ZM536.403 36.92C536.403 21.56 547.155 14.264 557.619 14.264C568.179 14.264 578.931 21.56 578.931 36.92C578.931 52.28 568.179 59.576 557.619 59.576C547.155 59.576 536.403 52.28 536.403 36.92ZM522.675 37.016C522.675 58.904 539.187 72.44 557.619 72.44C576.147 72.44 592.659 58.904 592.659 37.016C592.659 15.032 576.147 1.496 557.619 1.496C539.187 1.496 522.675 15.032 522.675 37.016ZM660.305 71V2.936H647.057V47.96L618.737 2.936H602.225V71H615.473V22.712L646.385 71H660.305ZM72.8174 168H85.0094C84.8174 166.368 84.5294 163.104 84.5294 159.456V120.768H71.7614V148.224C71.7614 153.696 68.4974 157.536 62.8334 157.536C56.8814 157.536 54.1934 153.312 54.1934 148.032V120.768H41.4254V150.624C41.4254 160.896 47.9534 169.248 59.3774 169.248C64.3694 169.248 69.8414 167.328 72.4334 162.912C72.4334 164.832 72.6254 167.04 72.8174 168ZM109.003 186.24V163.392C111.307 166.56 116.107 169.152 122.635 169.152C135.979 169.152 144.907 158.592 144.907 144.288C144.907 130.272 136.939 119.712 123.115 119.712C116.011 119.712 110.731 122.88 108.619 126.528V120.768H96.2354V186.24H109.003ZM132.331 144.384C132.331 152.832 127.147 157.728 120.619 157.728C114.091 157.728 108.811 152.736 108.811 144.384C108.811 136.032 114.091 131.136 120.619 131.136C127.147 131.136 132.331 136.032 132.331 144.384ZM165.865 168V98.496H153.097V168H165.865ZM198.83 157.824C192.59 157.824 186.83 153.216 186.83 144.384C186.83 135.456 192.59 130.944 198.83 130.944C205.07 130.944 210.83 135.456 210.83 144.384C210.83 153.312 205.07 157.824 198.83 157.824ZM198.83 119.328C184.718 119.328 174.062 129.792 174.062 144.384C174.062 158.88 184.718 169.44 198.83 169.44C212.942 169.44 223.598 158.88 223.598 144.384C223.598 129.792 212.942 119.328 198.83 119.328ZM228.877 155.136C228.877 162.528 235.021 169.344 245.101 169.344C252.109 169.344 256.621 166.08 259.021 162.336C259.021 164.16 259.213 166.752 259.501 168H271.213C270.925 166.368 270.637 163.008 270.637 160.512V137.28C270.637 127.776 265.069 119.328 250.093 119.328C237.421 119.328 230.605 127.488 229.837 134.88L241.165 137.28C241.549 133.152 244.621 129.6 250.189 129.6C255.565 129.6 258.157 132.384 258.157 135.744C258.157 137.376 257.293 138.72 254.605 139.104L242.989 140.832C235.117 141.984 228.877 146.688 228.877 155.136ZM247.789 159.84C243.661 159.84 241.645 157.152 241.645 154.368C241.645 150.72 244.237 148.896 247.501 148.416L258.157 146.784V148.896C258.157 157.248 253.165 159.84 247.789 159.84ZM326.423 98.496H313.847V125.472C312.503 122.976 308.663 119.616 300.503 119.616C287.159 119.616 277.847 130.464 277.847 144.288C277.847 158.592 287.447 169.152 300.887 169.152C307.223 169.152 312.023 166.272 314.135 162.528C314.135 164.736 314.423 167.04 314.615 168H326.807C326.615 166.08 326.423 162.624 326.423 159.456V98.496ZM290.711 144.288C290.711 135.84 295.895 131.04 302.423 131.04C308.951 131.04 314.039 135.744 314.039 144.192C314.039 152.736 308.951 157.728 302.423 157.728C295.703 157.728 290.711 152.736 290.711 144.288ZM347.666 139.008C347.954 134.688 351.602 129.696 358.226 129.696C365.522 129.696 368.594 134.304 368.786 139.008H347.666ZM370.034 151.296C368.498 155.52 365.234 158.496 359.282 158.496C352.946 158.496 347.666 153.984 347.378 147.744H381.17C381.17 147.552 381.362 145.632 381.362 143.808C381.362 128.64 372.626 119.328 358.034 119.328C345.938 119.328 334.802 129.12 334.802 144.192C334.802 160.128 346.226 169.44 359.186 169.44C370.802 169.44 378.29 162.624 380.69 154.464L370.034 151.296ZM434.521 98.496H421.945V125.472C420.601 122.976 416.761 119.616 408.601 119.616C395.257 119.616 385.945 130.464 385.945 144.288C385.945 158.592 395.545 169.152 408.985 169.152C415.321 169.152 420.121 166.272 422.233 162.528C422.233 164.736 422.521 167.04 422.713 168H434.905C434.713 166.08 434.521 162.624 434.521 159.456V98.496ZM398.809 144.288C398.809 135.84 403.993 131.04 410.521 131.04C417.049 131.04 422.137 135.744 422.137 144.192C422.137 152.736 417.049 157.728 410.521 157.728C403.801 157.728 398.809 152.736 398.809 144.288ZM484.57 186.624L514.234 120.768H500.602L488.986 148.416L476.41 120.768H462.106L482.17 162.048L471.034 186.624H484.57ZM527.111 139.008C527.399 134.688 531.047 129.696 537.671 129.696C544.967 129.696 548.039 134.304 548.231 139.008H527.111ZM549.479 151.296C547.943 155.52 544.679 158.496 538.727 158.496C532.391 158.496 527.111 153.984 526.823 147.744H560.615C560.615 147.552 560.807 145.632 560.807 143.808C560.807 128.64 552.071 119.328 537.479 119.328C525.383 119.328 514.247 129.12 514.247 144.192C514.247 160.128 525.671 169.44 538.631 169.44C550.247 169.44 557.735 162.624 560.135 154.464L549.479 151.296ZM584.686 106.656H573.166V113.28C573.166 117.504 570.862 120.768 565.87 120.768H563.47V132.096H572.014V154.08C572.014 163.2 577.774 168.672 586.99 168.672C590.734 168.672 593.038 168 594.19 167.52V156.96C593.518 157.152 591.79 157.344 590.254 157.344C586.606 157.344 584.686 156 584.686 151.872V132.096H594.19V120.768H584.686V106.656ZM602.162 159.936C602.162 164.736 606.098 168.672 610.898 168.672C615.794 168.672 619.73 164.736 619.73 159.936C619.73 155.136 615.794 151.2 610.898 151.2C606.098 151.2 602.162 155.136 602.162 159.936Z" fill="#1A1A1A"/>
</svg>
