<svg width="603" height="169" viewBox="0 0 603 169" fill="none" xmlns="http://www.w3.org/2000/svg">
<path d="M55.9212 32.944V13.456H66.3852C73.0092 13.456 77.0412 17.2 77.0412 23.248C77.0412 29.104 73.0092 32.944 66.3852 32.944H55.9212ZM68.0172 44.368C81.4572 44.368 90.3852 35.536 90.3852 23.152C90.3852 10.864 81.4572 1.936 68.0172 1.936H42.5772V70H55.8252V44.368H68.0172ZM110.028 70V0.495996H97.2597V70H110.028ZM131.089 41.008C131.377 36.688 135.025 31.696 141.649 31.696C148.945 31.696 152.017 36.304 152.209 41.008H131.089ZM153.457 53.296C151.921 57.52 148.657 60.496 142.705 60.496C136.369 60.496 131.089 55.984 130.801 49.744H164.593C164.593 49.552 164.785 47.632 164.785 45.808C164.785 30.64 156.049 21.328 141.457 21.328C129.361 21.328 118.225 31.12 118.225 46.192C118.225 62.128 129.649 71.44 142.609 71.44C154.225 71.44 161.713 64.624 164.113 56.464L153.457 53.296ZM170.04 57.136C170.04 64.528 176.184 71.344 186.264 71.344C193.272 71.344 197.784 68.08 200.184 64.336C200.184 66.16 200.376 68.752 200.664 70H212.376C212.088 68.368 211.8 65.008 211.8 62.512V39.28C211.8 29.776 206.232 21.328 191.256 21.328C178.584 21.328 171.768 29.488 171 36.88L182.328 39.28C182.712 35.152 185.784 31.6 191.352 31.6C196.728 31.6 199.32 34.384 199.32 37.744C199.32 39.376 198.456 40.72 195.768 41.104L184.152 42.832C176.28 43.984 170.04 48.688 170.04 57.136ZM188.952 61.84C184.824 61.84 182.808 59.152 182.808 56.368C182.808 52.72 185.4 50.896 188.664 50.416L199.32 48.784V50.896C199.32 59.248 194.328 61.84 188.952 61.84ZM218.718 56.848C219.294 62.224 224.19 71.44 238.398 71.44C250.782 71.44 256.734 63.568 256.734 55.888C256.734 48.976 252.03 43.312 242.718 41.392L235.998 39.952C233.406 39.472 231.678 38.032 231.678 35.728C231.678 33.04 234.366 31.024 237.726 31.024C243.102 31.024 245.118 34.576 245.502 37.36L256.158 34.96C255.582 29.872 251.07 21.328 237.63 21.328C227.454 21.328 219.966 28.336 219.966 36.784C219.966 43.408 224.094 48.88 233.214 50.896L239.454 52.336C243.102 53.104 244.542 54.832 244.542 56.944C244.542 59.44 242.526 61.648 238.302 61.648C232.734 61.648 229.95 58.192 229.662 54.448L218.718 56.848ZM274.204 41.008C274.492 36.688 278.14 31.696 284.764 31.696C292.06 31.696 295.132 36.304 295.324 41.008H274.204ZM296.572 53.296C295.036 57.52 291.772 60.496 285.82 60.496C279.484 60.496 274.204 55.984 273.916 49.744H307.708C307.708 49.552 307.9 47.632 307.9 45.808C307.9 30.64 299.164 21.328 284.572 21.328C272.476 21.328 261.34 31.12 261.34 46.192C261.34 62.128 272.764 71.44 285.724 71.44C297.34 71.44 304.828 64.624 307.228 56.464L296.572 53.296ZM334.953 57.136C334.953 64.528 341.097 71.344 351.177 71.344C358.185 71.344 362.697 68.08 365.097 64.336C365.097 66.16 365.289 68.752 365.577 70H377.289C377.001 68.368 376.713 65.008 376.713 62.512V39.28C376.713 29.776 371.145 21.328 356.169 21.328C343.497 21.328 336.681 29.488 335.913 36.88L347.241 39.28C347.625 35.152 350.697 31.6 356.265 31.6C361.641 31.6 364.233 34.384 364.233 37.744C364.233 39.376 363.369 40.72 360.681 41.104L349.065 42.832C341.193 43.984 334.953 48.688 334.953 57.136ZM353.865 61.84C349.737 61.84 347.721 59.152 347.721 56.368C347.721 52.72 350.313 50.896 353.577 50.416L364.233 48.784V50.896C364.233 59.248 359.241 61.84 353.865 61.84ZM432.5 0.495996H419.924V27.472C418.58 24.976 414.74 21.616 406.58 21.616C393.236 21.616 383.924 32.464 383.924 46.288C383.924 60.592 393.524 71.152 406.964 71.152C413.3 71.152 418.1 68.272 420.212 64.528C420.212 66.736 420.5 69.04 420.692 70H432.884C432.692 68.08 432.5 64.624 432.5 61.456V0.495996ZM396.788 46.288C396.788 37.84 401.972 33.04 408.5 33.04C415.028 33.04 420.116 37.744 420.116 46.192C420.116 54.736 415.028 59.728 408.5 59.728C401.78 59.728 396.788 54.736 396.788 46.288ZM489.455 0.495996H476.879V27.472C475.535 24.976 471.695 21.616 463.535 21.616C450.191 21.616 440.879 32.464 440.879 46.288C440.879 60.592 450.479 71.152 463.919 71.152C470.255 71.152 475.055 68.272 477.167 64.528C477.167 66.736 477.455 69.04 477.647 70H489.839C489.647 68.08 489.455 64.624 489.455 61.456V0.495996ZM453.743 46.288C453.743 37.84 458.927 33.04 465.455 33.04C471.983 33.04 477.071 37.744 477.071 46.192C477.071 54.736 471.983 59.728 465.455 59.728C458.735 59.728 453.743 54.736 453.743 46.288ZM520.305 57.136C520.305 64.528 526.449 71.344 536.529 71.344C543.537 71.344 548.049 68.08 550.449 64.336C550.449 66.16 550.641 68.752 550.929 70H562.641C562.353 68.368 562.065 65.008 562.065 62.512V39.28C562.065 29.776 556.497 21.328 541.521 21.328C528.849 21.328 522.033 29.488 521.265 36.88L532.593 39.28C532.977 35.152 536.049 31.6 541.617 31.6C546.993 31.6 549.585 34.384 549.585 37.744C549.585 39.376 548.721 40.72 546.033 41.104L534.417 42.832C526.545 43.984 520.305 48.688 520.305 57.136ZM539.217 61.84C535.089 61.84 533.073 59.152 533.073 56.368C533.073 52.72 535.665 50.896 538.929 50.416L549.585 48.784V50.896C549.585 59.248 544.593 61.84 539.217 61.84ZM13.649 167V97.496H0.881003V167H13.649ZM38.1665 167V119.768H25.3985V167H38.1665ZM23.8625 104.312C23.8625 108.536 27.4145 112.088 31.7345 112.088C36.1505 112.088 39.6065 108.536 39.6065 104.312C39.6065 99.896 36.1505 96.344 31.7345 96.344C27.4145 96.344 23.8625 99.896 23.8625 104.312ZM62.684 139.832C62.684 134.36 65.948 130.04 71.516 130.04C77.66 130.04 80.252 134.168 80.252 139.448V167H93.02V137.24C93.02 126.872 87.644 118.52 75.932 118.52C70.844 118.52 65.18 120.728 62.3 125.624V119.768H49.916V167H62.684V139.832ZM149.851 119.768H133.147L116.827 137.336V97.496H104.059V167H116.827V154.52L122.107 148.952L134.587 167H150.235L130.939 139.64L149.851 119.768ZM193.306 105.656H181.786V112.28C181.786 116.504 179.482 119.768 174.49 119.768H172.09V131.096H180.634V153.08C180.634 162.2 186.394 167.672 195.61 167.672C199.354 167.672 201.658 167 202.81 166.52V155.96C202.138 156.152 200.41 156.344 198.874 156.344C195.226 156.344 193.306 155 193.306 150.872V131.096H202.81V119.768H193.306V105.656ZM232.483 156.824C226.243 156.824 220.483 152.216 220.483 143.384C220.483 134.456 226.243 129.944 232.483 129.944C238.723 129.944 244.483 134.456 244.483 143.384C244.483 152.312 238.723 156.824 232.483 156.824ZM232.483 118.328C218.371 118.328 207.715 128.792 207.715 143.384C207.715 157.88 218.371 168.44 232.483 168.44C246.595 168.44 257.251 157.88 257.251 143.384C257.251 128.792 246.595 118.328 232.483 118.328ZM296.521 138.008C296.809 133.688 300.457 128.696 307.081 128.696C314.377 128.696 317.449 133.304 317.641 138.008H296.521ZM318.889 150.296C317.353 154.52 314.089 157.496 308.137 157.496C301.801 157.496 296.521 152.984 296.233 146.744H330.025C330.025 146.552 330.217 144.632 330.217 142.808C330.217 127.64 321.481 118.328 306.889 118.328C294.793 118.328 283.657 128.12 283.657 143.192C283.657 159.128 295.081 168.44 308.041 168.44C319.657 168.44 327.145 161.624 329.545 153.464L318.889 150.296ZM351.119 167V139.352C351.119 134.168 354.383 130.04 359.951 130.04C365.711 130.04 368.303 133.88 368.303 138.968V167H380.975V139.352C380.975 134.264 384.239 130.04 389.711 130.04C395.567 130.04 398.063 133.88 398.063 138.968V167H410.447V136.376C410.447 123.704 402.095 118.424 393.359 118.424C387.119 118.424 382.127 120.536 378.383 126.296C375.983 121.208 370.799 118.424 364.367 118.424C359.183 118.424 353.135 120.92 350.543 125.528V119.768H338.351V167H351.119ZM433.846 167V161.24C436.342 165.272 441.334 168.152 447.862 168.152C461.302 168.152 470.134 157.496 470.134 143.192C470.134 129.176 462.166 118.52 448.342 118.52C441.334 118.52 436.15 121.592 434.038 124.952V97.496H421.462V167H433.846ZM457.366 143.288C457.366 151.928 452.182 156.728 445.654 156.728C439.222 156.728 433.846 151.832 433.846 143.288C433.846 134.648 439.222 129.944 445.654 129.944C452.182 129.944 457.366 134.648 457.366 143.288ZM487.636 138.008C487.924 133.688 491.572 128.696 498.196 128.696C505.492 128.696 508.564 133.304 508.756 138.008H487.636ZM510.004 150.296C508.468 154.52 505.204 157.496 499.252 157.496C492.916 157.496 487.636 152.984 487.348 146.744H521.14C521.14 146.552 521.332 144.632 521.332 142.808C521.332 127.64 512.596 118.328 498.004 118.328C485.908 118.328 474.772 128.12 474.772 143.192C474.772 159.128 486.196 168.44 499.156 168.44C510.772 168.44 518.26 161.624 520.66 153.464L510.004 150.296ZM574.49 97.496H561.914V124.472C560.57 121.976 556.73 118.616 548.57 118.616C535.226 118.616 525.914 129.464 525.914 143.288C525.914 157.592 535.514 168.152 548.954 168.152C555.29 168.152 560.09 165.272 562.202 161.528C562.202 163.736 562.49 166.04 562.682 167H574.874C574.682 165.08 574.49 161.624 574.49 158.456V97.496ZM538.778 143.288C538.778 134.84 543.962 130.04 550.49 130.04C557.018 130.04 562.106 134.744 562.106 143.192C562.106 151.736 557.018 156.728 550.49 156.728C543.77 156.728 538.778 151.736 538.778 143.288ZM585.186 158.936C585.186 163.736 589.122 167.672 593.922 167.672C598.818 167.672 602.754 163.736 602.754 158.936C602.754 154.136 598.818 150.2 593.922 150.2C589.122 150.2 585.186 154.136 585.186 158.936Z" fill="#1A1A1A"/>
</svg>
