<svg width="579" height="187" viewBox="0 0 579 187" fill="none" xmlns="http://www.w3.org/2000/svg">
<path d="M162.114 71V2.936H148.866V47.96L120.546 2.936H104.034V71H117.282V22.712L148.194 71H162.114ZM195.683 60.824C189.443 60.824 183.683 56.216 183.683 47.384C183.683 38.456 189.443 33.944 195.683 33.944C201.923 33.944 207.683 38.456 207.683 47.384C207.683 56.312 201.923 60.824 195.683 60.824ZM195.683 22.328C181.571 22.328 170.915 32.792 170.915 47.384C170.915 61.88 181.571 72.44 195.683 72.44C209.795 72.44 220.451 61.88 220.451 47.384C220.451 32.792 209.795 22.328 195.683 22.328ZM294.952 23.768H281.512L270.28 55.448L258.568 23.768H244.552L263.848 71H276.616L294.952 23.768ZM313.568 71V23.768H300.8V71H313.568ZM299.264 8.31199C299.264 12.536 302.816 16.088 307.136 16.088C311.552 16.088 315.008 12.536 315.008 8.31199C315.008 3.89599 311.552 0.343994 307.136 0.343994C302.816 0.343994 299.264 3.89599 299.264 8.31199ZM370.342 1.496H357.766V28.472C356.422 25.976 352.582 22.616 344.422 22.616C331.078 22.616 321.766 33.464 321.766 47.288C321.766 61.592 331.366 72.152 344.806 72.152C351.142 72.152 355.942 69.272 358.054 65.528C358.054 67.736 358.342 70.04 358.534 71H370.726C370.534 69.08 370.342 65.624 370.342 62.456V1.496ZM334.63 47.288C334.63 38.84 339.814 34.04 346.342 34.04C352.87 34.04 357.958 38.744 357.958 47.192C357.958 55.736 352.87 60.728 346.342 60.728C339.622 60.728 334.63 55.736 334.63 47.288ZM391.585 42.008C391.873 37.688 395.521 32.696 402.145 32.696C409.441 32.696 412.513 37.304 412.705 42.008H391.585ZM413.953 54.296C412.417 58.52 409.153 61.496 403.201 61.496C396.865 61.496 391.585 56.984 391.297 50.744H425.089C425.089 50.552 425.281 48.632 425.281 46.808C425.281 31.64 416.545 22.328 401.953 22.328C389.857 22.328 378.721 32.12 378.721 47.192C378.721 63.128 390.145 72.44 403.105 72.44C414.721 72.44 422.209 65.624 424.609 57.464L413.953 54.296ZM454.631 60.824C448.391 60.824 442.631 56.216 442.631 47.384C442.631 38.456 448.391 33.944 454.631 33.944C460.871 33.944 466.631 38.456 466.631 47.384C466.631 56.312 460.871 60.824 454.631 60.824ZM454.631 22.328C440.519 22.328 429.863 32.792 429.863 47.384C429.863 61.88 440.519 72.44 454.631 72.44C468.743 72.44 479.399 61.88 479.399 47.384C479.399 32.792 468.743 22.328 454.631 22.328ZM31.8174 168H44.0094C43.8174 166.368 43.5294 163.104 43.5294 159.456V120.768H30.7614V148.224C30.7614 153.696 27.4974 157.536 21.8334 157.536C15.8814 157.536 13.1934 153.312 13.1934 148.032V120.768H0.425386V150.624C0.425386 160.896 6.95339 169.248 18.3774 169.248C23.3694 169.248 28.8414 167.328 31.4334 162.912C31.4334 164.832 31.6254 167.04 31.8174 168ZM68.0034 186.24V163.392C70.3074 166.56 75.1074 169.152 81.6354 169.152C94.9794 169.152 103.907 158.592 103.907 144.288C103.907 130.272 95.9394 119.712 82.1154 119.712C75.0114 119.712 69.7314 122.88 67.6194 126.528V120.768H55.2354V186.24H68.0034ZM91.3314 144.384C91.3314 152.832 86.1474 157.728 79.6194 157.728C73.0914 157.728 67.8114 152.736 67.8114 144.384C67.8114 136.032 73.0914 131.136 79.6194 131.136C86.1474 131.136 91.3314 136.032 91.3314 144.384ZM124.865 168V98.496H112.097V168H124.865ZM157.83 157.824C151.59 157.824 145.83 153.216 145.83 144.384C145.83 135.456 151.59 130.944 157.83 130.944C164.07 130.944 169.83 135.456 169.83 144.384C169.83 153.312 164.07 157.824 157.83 157.824ZM157.83 119.328C143.718 119.328 133.062 129.792 133.062 144.384C133.062 158.88 143.718 169.44 157.83 169.44C171.942 169.44 182.598 158.88 182.598 144.384C182.598 129.792 171.942 119.328 157.83 119.328ZM187.877 155.136C187.877 162.528 194.021 169.344 204.101 169.344C211.109 169.344 215.621 166.08 218.021 162.336C218.021 164.16 218.213 166.752 218.501 168H230.213C229.925 166.368 229.637 163.008 229.637 160.512V137.28C229.637 127.776 224.069 119.328 209.093 119.328C196.421 119.328 189.605 127.488 188.837 134.88L200.165 137.28C200.549 133.152 203.621 129.6 209.189 129.6C214.565 129.6 217.157 132.384 217.157 135.744C217.157 137.376 216.293 138.72 213.605 139.104L201.989 140.832C194.117 141.984 187.877 146.688 187.877 155.136ZM206.789 159.84C202.661 159.84 200.645 157.152 200.645 154.368C200.645 150.72 203.237 148.896 206.501 148.416L217.157 146.784V148.896C217.157 157.248 212.165 159.84 206.789 159.84ZM285.423 98.496H272.847V125.472C271.503 122.976 267.663 119.616 259.503 119.616C246.159 119.616 236.847 130.464 236.847 144.288C236.847 158.592 246.447 169.152 259.887 169.152C266.223 169.152 271.023 166.272 273.135 162.528C273.135 164.736 273.423 167.04 273.615 168H285.807C285.615 166.08 285.423 162.624 285.423 159.456V98.496ZM249.711 144.288C249.711 135.84 254.895 131.04 261.423 131.04C267.951 131.04 273.039 135.744 273.039 144.192C273.039 152.736 267.951 157.728 261.423 157.728C254.703 157.728 249.711 152.736 249.711 144.288ZM306.666 139.008C306.954 134.688 310.602 129.696 317.226 129.696C324.522 129.696 327.594 134.304 327.786 139.008H306.666ZM329.034 151.296C327.498 155.52 324.234 158.496 318.282 158.496C311.946 158.496 306.666 153.984 306.378 147.744H340.17C340.17 147.552 340.362 145.632 340.362 143.808C340.362 128.64 331.626 119.328 317.034 119.328C304.938 119.328 293.802 129.12 293.802 144.192C293.802 160.128 305.226 169.44 318.186 169.44C329.802 169.44 337.29 162.624 339.69 154.464L329.034 151.296ZM393.521 98.496H380.945V125.472C379.601 122.976 375.761 119.616 367.601 119.616C354.257 119.616 344.945 130.464 344.945 144.288C344.945 158.592 354.545 169.152 367.985 169.152C374.321 169.152 379.121 166.272 381.233 162.528C381.233 164.736 381.521 167.04 381.713 168H393.905C393.713 166.08 393.521 162.624 393.521 159.456V98.496ZM357.809 144.288C357.809 135.84 362.993 131.04 369.521 131.04C376.049 131.04 381.137 135.744 381.137 144.192C381.137 152.736 376.049 157.728 369.521 157.728C362.801 157.728 357.809 152.736 357.809 144.288ZM443.57 186.624L473.234 120.768H459.602L447.986 148.416L435.41 120.768H421.106L441.17 162.048L430.034 186.624H443.57ZM486.111 139.008C486.399 134.688 490.047 129.696 496.671 129.696C503.967 129.696 507.039 134.304 507.231 139.008H486.111ZM508.479 151.296C506.943 155.52 503.679 158.496 497.727 158.496C491.391 158.496 486.111 153.984 485.823 147.744H519.615C519.615 147.552 519.807 145.632 519.807 143.808C519.807 128.64 511.071 119.328 496.479 119.328C484.383 119.328 473.247 129.12 473.247 144.192C473.247 160.128 484.671 169.44 497.631 169.44C509.247 169.44 516.735 162.624 519.135 154.464L508.479 151.296ZM543.686 106.656H532.166V113.28C532.166 117.504 529.862 120.768 524.87 120.768H522.47V132.096H531.014V154.08C531.014 163.2 536.774 168.672 545.99 168.672C549.734 168.672 552.038 168 553.19 167.52V156.96C552.518 157.152 550.79 157.344 549.254 157.344C545.606 157.344 543.686 156 543.686 151.872V132.096H553.19V120.768H543.686V106.656ZM561.162 159.936C561.162 164.736 565.098 168.672 569.898 168.672C574.794 168.672 578.73 164.736 578.73 159.936C578.73 155.136 574.794 151.2 569.898 151.2C565.098 151.2 561.162 155.136 561.162 159.936Z" fill="#1A1A1A"/>
</svg>
