<svg width="575" height="187" viewBox="0 0 575 187" fill="none" xmlns="http://www.w3.org/2000/svg">
<path d="M13.85 32.944V13.456H24.314C30.938 13.456 34.97 17.2 34.97 23.248C34.97 29.104 30.938 32.944 24.314 32.944H13.85ZM25.946 44.368C39.386 44.368 48.314 35.536 48.314 23.152C48.314 10.864 39.386 1.936 25.946 1.936H0.506011V70H13.754V44.368H25.946ZM67.9565 70V0.495996H55.1885V70H67.9565ZM89.018 41.008C89.306 36.688 92.954 31.696 99.578 31.696C106.874 31.696 109.946 36.304 110.138 41.008H89.018ZM111.386 53.296C109.85 57.52 106.586 60.496 100.634 60.496C94.298 60.496 89.018 55.984 88.73 49.744H122.522C122.522 49.552 122.714 47.632 122.714 45.808C122.714 30.64 113.978 21.328 99.386 21.328C87.29 21.328 76.154 31.12 76.154 46.192C76.154 62.128 87.578 71.44 100.538 71.44C112.154 71.44 119.642 64.624 122.042 56.464L111.386 53.296ZM127.969 57.136C127.969 64.528 134.113 71.344 144.193 71.344C151.201 71.344 155.713 68.08 158.113 64.336C158.113 66.16 158.305 68.752 158.593 70H170.305C170.017 68.368 169.729 65.008 169.729 62.512V39.28C169.729 29.776 164.161 21.328 149.185 21.328C136.513 21.328 129.697 29.488 128.929 36.88L140.257 39.28C140.641 35.152 143.713 31.6 149.281 31.6C154.657 31.6 157.249 34.384 157.249 37.744C157.249 39.376 156.385 40.72 153.697 41.104L142.081 42.832C134.209 43.984 127.969 48.688 127.969 57.136ZM146.881 61.84C142.753 61.84 140.737 59.152 140.737 56.368C140.737 52.72 143.329 50.896 146.593 50.416L157.249 48.784V50.896C157.249 59.248 152.257 61.84 146.881 61.84ZM176.647 56.848C177.223 62.224 182.119 71.44 196.327 71.44C208.711 71.44 214.663 63.568 214.663 55.888C214.663 48.976 209.959 43.312 200.647 41.392L193.927 39.952C191.335 39.472 189.607 38.032 189.607 35.728C189.607 33.04 192.295 31.024 195.655 31.024C201.031 31.024 203.047 34.576 203.431 37.36L214.087 34.96C213.511 29.872 208.999 21.328 195.559 21.328C185.383 21.328 177.895 28.336 177.895 36.784C177.895 43.408 182.023 48.88 191.143 50.896L197.383 52.336C201.031 53.104 202.471 54.832 202.471 56.944C202.471 59.44 200.455 61.648 196.231 61.648C190.663 61.648 187.879 58.192 187.591 54.448L176.647 56.848ZM232.133 41.008C232.421 36.688 236.069 31.696 242.693 31.696C249.989 31.696 253.061 36.304 253.253 41.008H232.133ZM254.501 53.296C252.965 57.52 249.701 60.496 243.749 60.496C237.413 60.496 232.133 55.984 231.845 49.744H265.637C265.637 49.552 265.829 47.632 265.829 45.808C265.829 30.64 257.093 21.328 242.501 21.328C230.405 21.328 219.269 31.12 219.269 46.192C219.269 62.128 230.693 71.44 243.653 71.44C255.269 71.44 262.757 64.624 265.157 56.464L254.501 53.296ZM292.882 57.136C292.882 64.528 299.026 71.344 309.106 71.344C316.114 71.344 320.626 68.08 323.026 64.336C323.026 66.16 323.218 68.752 323.506 70H335.218C334.93 68.368 334.642 65.008 334.642 62.512V39.28C334.642 29.776 329.074 21.328 314.098 21.328C301.426 21.328 294.61 29.488 293.842 36.88L305.17 39.28C305.554 35.152 308.626 31.6 314.194 31.6C319.57 31.6 322.162 34.384 322.162 37.744C322.162 39.376 321.298 40.72 318.61 41.104L306.994 42.832C299.122 43.984 292.882 48.688 292.882 57.136ZM311.794 61.84C307.666 61.84 305.65 59.152 305.65 56.368C305.65 52.72 308.242 50.896 311.506 50.416L322.162 48.784V50.896C322.162 59.248 317.17 61.84 311.794 61.84ZM390.429 0.495996H377.853V27.472C376.509 24.976 372.669 21.616 364.509 21.616C351.165 21.616 341.853 32.464 341.853 46.288C341.853 60.592 351.453 71.152 364.893 71.152C371.229 71.152 376.029 68.272 378.141 64.528C378.141 66.736 378.429 69.04 378.621 70H390.813C390.621 68.08 390.429 64.624 390.429 61.456V0.495996ZM354.717 46.288C354.717 37.84 359.901 33.04 366.429 33.04C372.957 33.04 378.045 37.744 378.045 46.192C378.045 54.736 372.957 59.728 366.429 59.728C359.709 59.728 354.717 54.736 354.717 46.288ZM447.384 0.495996H434.808V27.472C433.464 24.976 429.624 21.616 421.464 21.616C408.12 21.616 398.808 32.464 398.808 46.288C398.808 60.592 408.408 71.152 421.848 71.152C428.184 71.152 432.984 68.272 435.096 64.528C435.096 66.736 435.384 69.04 435.576 70H447.768C447.576 68.08 447.384 64.624 447.384 61.456V0.495996ZM411.672 46.288C411.672 37.84 416.856 33.04 423.384 33.04C429.912 33.04 435 37.744 435 46.192C435 54.736 429.912 59.728 423.384 59.728C416.664 59.728 411.672 54.736 411.672 46.288ZM478.234 57.136C478.234 64.528 484.378 71.344 494.458 71.344C501.466 71.344 505.978 68.08 508.378 64.336C508.378 66.16 508.57 68.752 508.858 70H520.57C520.282 68.368 519.994 65.008 519.994 62.512V39.28C519.994 29.776 514.426 21.328 499.45 21.328C486.778 21.328 479.962 29.488 479.194 36.88L490.522 39.28C490.906 35.152 493.978 31.6 499.546 31.6C504.922 31.6 507.514 34.384 507.514 37.744C507.514 39.376 506.65 40.72 503.962 41.104L492.346 42.832C484.474 43.984 478.234 48.688 478.234 57.136ZM497.146 61.84C493.018 61.84 491.002 59.152 491.002 56.368C491.002 52.72 493.594 50.896 496.858 50.416L507.514 48.784V50.896C507.514 59.248 502.522 61.84 497.146 61.84ZM543.712 42.832C543.712 37.36 546.976 33.04 552.544 33.04C558.688 33.04 561.28 37.168 561.28 42.448V70H574.048V40.24C574.048 29.872 568.672 21.52 556.96 21.52C551.872 21.52 546.208 23.728 543.328 28.624V22.768H530.944V70H543.712V42.832ZM62.8471 167V119.768H50.0791V167H62.8471ZM48.5431 104.312C48.5431 108.536 52.0951 112.088 56.4151 112.088C60.8311 112.088 64.2871 108.536 64.2871 104.312C64.2871 99.896 60.8311 96.344 56.4151 96.344C52.0951 96.344 48.5431 99.896 48.5431 104.312ZM87.3646 167V139.352C87.3646 134.168 90.6286 130.04 96.1966 130.04C101.957 130.04 104.549 133.88 104.549 138.968V167H117.221V139.352C117.221 134.264 120.485 130.04 125.957 130.04C131.813 130.04 134.309 133.88 134.309 138.968V167H146.693V136.376C146.693 123.704 138.341 118.424 129.605 118.424C123.365 118.424 118.373 120.536 114.629 126.296C112.229 121.208 107.045 118.424 100.613 118.424C95.4286 118.424 89.3806 120.92 86.7886 125.528V119.768H74.5966V167H87.3646ZM154.828 154.136C154.828 161.528 160.972 168.344 171.052 168.344C178.06 168.344 182.572 165.08 184.972 161.336C184.972 163.16 185.164 165.752 185.452 167H197.164C196.876 165.368 196.588 162.008 196.588 159.512V136.28C196.588 126.776 191.02 118.328 176.044 118.328C163.372 118.328 156.556 126.488 155.788 133.88L167.116 136.28C167.5 132.152 170.572 128.6 176.14 128.6C181.516 128.6 184.108 131.384 184.108 134.744C184.108 136.376 183.244 137.72 180.556 138.104L168.94 139.832C161.068 140.984 154.828 145.688 154.828 154.136ZM173.74 158.84C169.612 158.84 167.596 156.152 167.596 153.368C167.596 149.72 170.188 147.896 173.452 147.416L184.108 145.784V147.896C184.108 156.248 179.116 158.84 173.74 158.84ZM203.99 169.592C205.334 178.616 213.974 186.68 226.934 186.68C244.694 186.68 251.702 174.872 251.702 161.912V119.768H239.414V125.336C237.782 122.168 233.462 118.904 225.974 118.904C213.014 118.904 203.99 129.464 203.99 141.944C203.99 155.192 213.398 164.888 225.974 164.888C232.79 164.888 237.206 161.912 239.126 158.84V162.296C239.126 171.416 234.614 175.448 226.55 175.448C220.502 175.448 216.374 171.704 215.51 166.52L203.99 169.592ZM228.182 153.944C221.558 153.944 216.854 149.336 216.854 141.944C216.854 134.648 221.846 130.04 228.182 130.04C234.326 130.04 239.318 134.648 239.318 141.944C239.318 149.24 234.71 153.944 228.182 153.944ZM272.024 138.008C272.312 133.688 275.96 128.696 282.584 128.696C289.88 128.696 292.952 133.304 293.144 138.008H272.024ZM294.392 150.296C292.856 154.52 289.592 157.496 283.64 157.496C277.304 157.496 272.024 152.984 271.736 146.744H305.528C305.528 146.552 305.72 144.632 305.72 142.808C305.72 127.64 296.984 118.328 282.392 118.328C270.296 118.328 259.16 128.12 259.16 143.192C259.16 159.128 270.584 168.44 283.544 168.44C295.16 168.44 302.648 161.624 305.048 153.464L294.392 150.296ZM369.829 130.712V167H382.501V119.768H350.917V114.584C350.917 109.304 354.757 108.056 357.541 108.056C359.653 108.056 360.901 108.344 361.573 108.536V97.784C360.517 97.304 357.925 96.824 355.237 96.824C344.773 96.824 338.053 103.736 338.053 114.392V119.768H330.181V130.712H338.053V167H350.917V130.712H369.829ZM368.293 104.216C368.293 108.536 371.845 111.992 376.165 111.992C380.485 111.992 384.037 108.536 384.037 104.216C384.037 99.8 380.485 96.248 376.165 96.248C371.845 96.248 368.293 99.8 368.293 104.216ZM423.095 119.576C422.135 119.48 421.175 119.384 420.119 119.384C416.087 119.384 409.559 120.536 406.679 126.776V119.768H394.295V167H407.063V145.4C407.063 135.224 412.727 132.056 419.255 132.056C420.407 132.056 421.655 132.152 423.095 132.44V119.576ZM426.406 153.848C426.982 159.224 431.878 168.44 446.086 168.44C458.47 168.44 464.422 160.568 464.422 152.888C464.422 145.976 459.718 140.312 450.406 138.392L443.686 136.952C441.094 136.472 439.366 135.032 439.366 132.728C439.366 130.04 442.054 128.024 445.414 128.024C450.79 128.024 452.806 131.576 453.19 134.36L463.846 131.96C463.27 126.872 458.758 118.328 445.318 118.328C435.142 118.328 427.654 125.336 427.654 133.784C427.654 140.408 431.782 145.88 440.902 147.896L447.142 149.336C450.79 150.104 452.23 151.832 452.23 153.944C452.23 156.44 450.214 158.648 445.99 158.648C440.422 158.648 437.638 155.192 437.35 151.448L426.406 153.848ZM488.512 105.656H476.992V112.28C476.992 116.504 474.688 119.768 469.696 119.768H467.296V131.096H475.84V153.08C475.84 162.2 481.6 167.672 490.816 167.672C494.56 167.672 496.864 167 498.016 166.52V155.96C497.344 156.152 495.616 156.344 494.08 156.344C490.432 156.344 488.512 155 488.512 150.872V131.096H498.016V119.768H488.512V105.656ZM505.988 158.936C505.988 163.736 509.924 167.672 514.724 167.672C519.62 167.672 523.556 163.736 523.556 158.936C523.556 154.136 519.62 150.2 514.724 150.2C509.924 150.2 505.988 154.136 505.988 158.936Z" fill="#1A1A1A"/>
</svg>
