<svg width="581" height="169" viewBox="0 0 581 169" fill="none" xmlns="http://www.w3.org/2000/svg">
<path d="M35.4245 71.44C54.5285 71.44 64.3205 58.768 66.9125 48.304L54.5285 44.56C52.7045 50.896 47.0405 58.48 35.4245 58.48C24.4805 58.48 14.3045 50.512 14.3045 36.016C14.3045 20.56 25.0565 13.264 35.2325 13.264C47.0405 13.264 52.3205 20.464 53.9525 26.992L66.4325 23.056C63.7445 12.016 54.0485 0.495996 35.2325 0.495996C16.9925 0.495996 0.576489 14.32 0.576489 36.016C0.576489 57.712 16.4165 71.44 35.4245 71.44ZM94.6632 59.824C88.4232 59.824 82.6632 55.216 82.6632 46.384C82.6632 37.456 88.4232 32.944 94.6632 32.944C100.903 32.944 106.663 37.456 106.663 46.384C106.663 55.312 100.903 59.824 94.6632 59.824ZM94.6632 21.328C80.5512 21.328 69.8952 31.792 69.8952 46.384C69.8952 60.88 80.5512 71.44 94.6632 71.44C108.775 71.44 119.431 60.88 119.431 46.384C119.431 31.792 108.775 21.328 94.6632 21.328ZM140.358 42.832C140.358 37.36 143.622 33.04 149.19 33.04C155.334 33.04 157.926 37.168 157.926 42.448V70H170.694V40.24C170.694 29.872 165.318 21.52 153.606 21.52C148.518 21.52 142.854 23.728 139.974 28.624V22.768H127.59V70H140.358V42.832ZM194.5 42.832C194.5 37.36 197.764 33.04 203.332 33.04C209.476 33.04 212.068 37.168 212.068 42.448V70H224.836V40.24C224.836 29.872 219.46 21.52 207.748 21.52C202.66 21.52 196.996 23.728 194.116 28.624V22.768H181.732V70H194.5V42.832ZM245.187 41.008C245.475 36.688 249.123 31.696 255.747 31.696C263.043 31.696 266.115 36.304 266.307 41.008H245.187ZM267.555 53.296C266.019 57.52 262.755 60.496 256.803 60.496C250.467 60.496 245.187 55.984 244.899 49.744H278.691C278.691 49.552 278.883 47.632 278.883 45.808C278.883 30.64 270.147 21.328 255.555 21.328C243.459 21.328 232.323 31.12 232.323 46.192C232.323 62.128 243.747 71.44 256.707 71.44C268.323 71.44 275.811 64.624 278.211 56.464L267.555 53.296ZM308.233 33.136C314.569 33.136 317.545 37.168 318.697 41.104L330.121 37.264C328.105 29.296 320.809 21.328 307.945 21.328C294.217 21.328 283.465 31.792 283.465 46.384C283.465 60.88 294.409 71.44 308.329 71.44C320.905 71.44 328.297 63.376 330.409 55.504L319.177 51.76C318.121 55.408 314.857 59.728 308.329 59.728C301.801 59.728 296.233 54.928 296.233 46.384C296.233 37.84 301.705 33.136 308.233 33.136ZM353.623 8.65599H342.103V15.28C342.103 19.504 339.799 22.768 334.807 22.768H332.407V34.096H340.951V56.08C340.951 65.2 346.711 70.672 355.927 70.672C359.671 70.672 361.975 70 363.127 69.52V58.96C362.455 59.152 360.727 59.344 359.191 59.344C355.543 59.344 353.623 58 353.623 53.872V34.096H363.127V22.768H353.623V8.65599ZM409.89 88.624L439.554 22.768H425.922L414.306 50.416L401.73 22.768H387.426L407.49 64.048L396.354 88.624H409.89ZM464.334 59.824C458.094 59.824 452.334 55.216 452.334 46.384C452.334 37.456 458.094 32.944 464.334 32.944C470.574 32.944 476.334 37.456 476.334 46.384C476.334 55.312 470.574 59.824 464.334 59.824ZM464.334 21.328C450.222 21.328 439.566 31.792 439.566 46.384C439.566 60.88 450.222 71.44 464.334 71.44C478.446 71.44 489.102 60.88 489.102 46.384C489.102 31.792 478.446 21.328 464.334 21.328ZM527.985 70H540.177C539.985 68.368 539.697 65.104 539.697 61.456V22.768H526.929V50.224C526.929 55.696 523.665 59.536 518.001 59.536C512.049 59.536 509.361 55.312 509.361 50.032V22.768H496.593V52.624C496.593 62.896 503.121 71.248 514.545 71.248C519.537 71.248 525.009 69.328 527.601 64.912C527.601 66.832 527.793 69.04 527.985 70ZM580.204 22.576C579.244 22.48 578.284 22.384 577.228 22.384C573.196 22.384 566.668 23.536 563.788 29.776V22.768H551.404V70H564.172V48.4C564.172 38.224 569.836 35.056 576.364 35.056C577.516 35.056 578.764 35.152 580.204 35.44V22.576ZM158.551 97.496H145.975V124.472C144.631 121.976 140.791 118.616 132.631 118.616C119.287 118.616 109.975 129.464 109.975 143.288C109.975 157.592 119.575 168.152 133.015 168.152C139.351 168.152 144.151 165.272 146.263 161.528C146.263 163.736 146.551 166.04 146.743 167H158.935C158.743 165.08 158.551 161.624 158.551 158.456V97.496ZM122.839 143.288C122.839 134.84 128.023 130.04 134.551 130.04C141.079 130.04 146.167 134.744 146.167 143.192C146.167 151.736 141.079 156.728 134.551 156.728C127.831 156.728 122.839 151.736 122.839 143.288ZM199.282 119.576C198.322 119.48 197.362 119.384 196.306 119.384C192.274 119.384 185.746 120.536 182.866 126.776V119.768H170.482V167H183.25V145.4C183.25 135.224 188.914 132.056 195.442 132.056C196.594 132.056 197.842 132.152 199.282 132.44V119.576ZM219.111 167V119.768H206.343V167H219.111ZM204.807 104.312C204.807 108.536 208.359 112.088 212.679 112.088C217.095 112.088 220.551 108.536 220.551 104.312C220.551 99.896 217.095 96.344 212.679 96.344C208.359 96.344 204.807 99.896 204.807 104.312ZM243.245 167V161.24C245.741 165.272 250.733 168.152 257.261 168.152C270.701 168.152 279.533 157.496 279.533 143.192C279.533 129.176 271.565 118.52 257.741 118.52C250.733 118.52 245.549 121.592 243.437 124.952V97.496H230.861V167H243.245ZM266.765 143.288C266.765 151.928 261.581 156.728 255.053 156.728C248.621 156.728 243.245 151.832 243.245 143.288C243.245 134.648 248.621 129.944 255.053 129.944C261.581 129.944 266.765 134.648 266.765 143.288ZM300.106 167V161.24C302.602 165.272 307.594 168.152 314.122 168.152C327.562 168.152 336.394 157.496 336.394 143.192C336.394 129.176 328.426 118.52 314.602 118.52C307.594 118.52 302.41 121.592 300.298 124.952V97.496H287.722V167H300.106ZM323.626 143.288C323.626 151.928 318.442 156.728 311.914 156.728C305.482 156.728 300.106 151.832 300.106 143.288C300.106 134.648 305.482 129.944 311.914 129.944C318.442 129.944 323.626 134.648 323.626 143.288ZM356.967 167V161.24C359.463 165.272 364.455 168.152 370.983 168.152C384.423 168.152 393.255 157.496 393.255 143.192C393.255 129.176 385.287 118.52 371.463 118.52C364.455 118.52 359.271 121.592 357.159 124.952V97.496H344.583V167H356.967ZM380.487 143.288C380.487 151.928 375.303 156.728 368.775 156.728C362.343 156.728 356.967 151.832 356.967 143.288C356.967 134.648 362.343 129.944 368.775 129.944C375.303 129.944 380.487 134.648 380.487 143.288ZM414.213 167V97.496H401.445V167H414.213ZM435.274 138.008C435.562 133.688 439.21 128.696 445.834 128.696C453.13 128.696 456.202 133.304 456.394 138.008H435.274ZM457.642 150.296C456.106 154.52 452.842 157.496 446.89 157.496C440.554 157.496 435.274 152.984 434.986 146.744H468.778C468.778 146.552 468.97 144.632 468.97 142.808C468.97 127.64 460.234 118.328 445.642 118.328C433.546 118.328 422.41 128.12 422.41 143.192C422.41 159.128 433.834 168.44 446.794 168.44C458.41 168.44 465.898 161.624 468.298 153.464L457.642 150.296Z" fill="#1A1A1A"/>
</svg>
