<svg width="359" height="168" viewBox="0 0 359 168" fill="none" xmlns="http://www.w3.org/2000/svg">
<path d="M86.8094 69V56.52H57.4334V40.776H84.0254V28.968H57.4334V13.416H86.8094V0.935995H44.1854V69H86.8094ZM109.386 69V41.352C109.386 36.168 112.65 32.04 118.218 32.04C123.978 32.04 126.57 35.88 126.57 40.968V69H139.242V41.352C139.242 36.264 142.506 32.04 147.978 32.04C153.834 32.04 156.33 35.88 156.33 40.968V69H168.714V38.376C168.714 25.704 160.362 20.424 151.626 20.424C145.386 20.424 140.394 22.536 136.65 28.296C134.25 23.208 129.066 20.424 122.634 20.424C117.45 20.424 111.402 22.92 108.81 27.528V21.768H96.6179V69H109.386ZM192.497 87.24V64.392C194.801 67.56 199.601 70.152 206.129 70.152C219.473 70.152 228.401 59.592 228.401 45.288C228.401 31.272 220.433 20.712 206.609 20.712C199.505 20.712 194.225 23.88 192.113 27.528V21.768H179.729V87.24H192.497ZM215.825 45.384C215.825 53.832 210.641 58.728 204.113 58.728C197.585 58.728 192.305 53.736 192.305 45.384C192.305 37.032 197.585 32.136 204.113 32.136C210.641 32.136 215.825 37.032 215.825 45.384ZM252.147 7.65599H240.627V14.28C240.627 18.504 238.323 21.768 233.331 21.768H230.931V33.096H239.475V55.08C239.475 64.2 245.235 69.672 254.451 69.672C258.195 69.672 260.499 69 261.651 68.52V57.96C260.979 58.152 259.251 58.344 257.715 58.344C254.067 58.344 252.147 57 252.147 52.872V33.096H261.651V21.768H252.147V7.65599ZM287.928 87.624L317.592 21.768H303.96L292.344 49.416L279.768 21.768H265.464L285.528 63.048L274.392 87.624H287.928ZM13.7913 128.944V109.456H24.2553C30.8793 109.456 34.9113 113.2 34.9113 119.248C34.9113 125.104 30.8793 128.944 24.2553 128.944H13.7913ZM25.8873 140.368C39.3273 140.368 48.2553 131.536 48.2553 119.152C48.2553 106.864 39.3273 97.936 25.8873 97.936H0.447249V166H13.6953V140.368H25.8873ZM74.002 155.824C67.762 155.824 62.002 151.216 62.002 142.384C62.002 133.456 67.762 128.944 74.002 128.944C80.242 128.944 86.002 133.456 86.002 142.384C86.002 151.312 80.242 155.824 74.002 155.824ZM74.002 117.328C59.89 117.328 49.234 127.792 49.234 142.384C49.234 156.88 59.89 167.44 74.002 167.44C88.114 167.44 98.77 156.88 98.77 142.384C98.77 127.792 88.114 117.328 74.002 117.328ZM135.729 118.576C134.769 118.48 133.809 118.384 132.753 118.384C128.721 118.384 122.193 119.536 119.313 125.776V118.768H106.929V166H119.697V144.4C119.697 134.224 125.361 131.056 131.889 131.056C133.041 131.056 134.289 131.152 135.729 131.44V118.576ZM160.409 104.656H148.889V111.28C148.889 115.504 146.585 118.768 141.593 118.768H139.193V130.096H147.737V152.08C147.737 161.2 153.497 166.672 162.713 166.672C166.457 166.672 168.761 166 169.913 165.52V154.96C169.241 155.152 167.513 155.344 165.977 155.344C162.329 155.344 160.409 154 160.409 149.872V130.096H169.913V118.768H160.409V104.656ZM200.445 107.056C202.557 107.056 203.805 107.344 204.477 107.536V96.784C203.421 96.304 200.829 95.824 198.141 95.824C187.677 95.824 180.957 102.736 180.957 113.392V118.768H173.085V129.712H180.957V166H193.821V129.712H204.477V118.768H193.821V113.584C193.821 108.304 197.565 107.056 200.445 107.056ZM231.041 155.824C224.801 155.824 219.041 151.216 219.041 142.384C219.041 133.456 224.801 128.944 231.041 128.944C237.281 128.944 243.041 133.456 243.041 142.384C243.041 151.312 237.281 155.824 231.041 155.824ZM231.041 117.328C216.929 117.328 206.273 127.792 206.273 142.384C206.273 156.88 216.929 167.44 231.041 167.44C245.153 167.44 255.809 156.88 255.809 142.384C255.809 127.792 245.153 117.328 231.041 117.328ZM276.735 166V96.496H263.967V166H276.735ZM301.253 166V118.768H288.485V166H301.253ZM286.949 103.312C286.949 107.536 290.501 111.088 294.821 111.088C299.237 111.088 302.693 107.536 302.693 103.312C302.693 98.896 299.237 95.344 294.821 95.344C290.501 95.344 286.949 98.896 286.949 103.312ZM334.218 155.824C327.978 155.824 322.218 151.216 322.218 142.384C322.218 133.456 327.978 128.944 334.218 128.944C340.458 128.944 346.218 133.456 346.218 142.384C346.218 151.312 340.458 155.824 334.218 155.824ZM334.218 117.328C320.106 117.328 309.45 127.792 309.45 142.384C309.45 156.88 320.106 167.44 334.218 167.44C348.33 167.44 358.986 156.88 358.986 142.384C358.986 127.792 348.33 117.328 334.218 117.328Z" fill="black"/>
</svg>
