<svg width="515" height="187" viewBox="0 0 515 187" fill="none" xmlns="http://www.w3.org/2000/svg">
<path d="M19.0996 57.712V14.224H29.7556C40.8916 14.224 50.1076 21.232 50.1076 36.016C50.1076 50.8 40.7956 57.712 29.6596 57.712H19.0996ZM30.1396 70C49.5316 70 63.8356 57.52 63.8356 36.016C63.8356 14.512 49.6276 1.936 30.2356 1.936H5.85162V70H30.1396ZM101.24 22.576C100.28 22.48 99.3204 22.384 98.2644 22.384C94.2324 22.384 87.7044 23.536 84.8244 29.776V22.768H72.4404V70H85.2084V48.4C85.2084 38.224 90.8724 35.056 97.4004 35.056C98.5524 35.056 99.8004 35.152 101.24 35.44V22.576ZM105.703 57.136C105.703 64.528 111.847 71.344 121.927 71.344C128.935 71.344 133.447 68.08 135.847 64.336C135.847 66.16 136.039 68.752 136.327 70H148.039C147.751 68.368 147.463 65.008 147.463 62.512V39.28C147.463 29.776 141.895 21.328 126.919 21.328C114.247 21.328 107.431 29.488 106.663 36.88L117.991 39.28C118.375 35.152 121.447 31.6 127.015 31.6C132.391 31.6 134.983 34.384 134.983 37.744C134.983 39.376 134.119 40.72 131.431 41.104L119.815 42.832C111.943 43.984 105.703 48.688 105.703 57.136ZM124.615 61.84C120.487 61.84 118.471 59.152 118.471 56.368C118.471 52.72 121.063 50.896 124.327 50.416L134.983 48.784V50.896C134.983 59.248 129.991 61.84 124.615 61.84ZM154.865 72.592C156.209 81.616 164.849 89.68 177.809 89.68C195.569 89.68 202.577 77.872 202.577 64.912V22.768H190.289V28.336C188.657 25.168 184.337 21.904 176.849 21.904C163.889 21.904 154.865 32.464 154.865 44.944C154.865 58.192 164.273 67.888 176.849 67.888C183.665 67.888 188.081 64.912 190.001 61.84V65.296C190.001 74.416 185.489 78.448 177.425 78.448C171.377 78.448 167.249 74.704 166.385 69.52L154.865 72.592ZM179.057 56.944C172.433 56.944 167.729 52.336 167.729 44.944C167.729 37.648 172.721 33.04 179.057 33.04C185.201 33.04 190.193 37.648 190.193 44.944C190.193 52.24 185.585 56.944 179.057 56.944ZM277.046 70H293.558L278.198 53.872L287.702 43.888V27.952L270.518 45.904L260.246 35.056L262.838 33.136C267.734 29.488 272.438 24.496 272.438 17.584C272.438 7.408 264.374 0.399998 253.526 0.399998C244.31 0.399998 234.71 6.736 234.71 18.16C234.71 24.304 238.934 29.488 242.198 32.944L243.254 34.096L242.774 34.384C235.67 39.664 231.158 44.56 231.158 53.008C231.158 62.128 238.454 71.248 251.798 71.248C259.094 71.248 264.95 67.792 270.038 62.608L277.046 70ZM251.99 60.112C246.998 60.112 243.83 56.176 243.83 52.24C243.83 48.208 246.038 45.616 249.302 43.216L250.742 42.16L262.358 54.448C259.094 57.904 256.118 60.112 251.99 60.112ZM246.806 17.776C246.806 13.168 250.262 10.96 253.43 10.96C257.462 10.96 260.342 13.84 260.342 17.488C260.342 19.984 259.19 22.384 256.022 24.688L252.662 27.184L250.838 25.168C249.11 23.44 246.806 20.656 246.806 17.776ZM361.413 0.495996H348.837V27.472C347.493 24.976 343.653 21.616 335.493 21.616C322.149 21.616 312.837 32.464 312.837 46.288C312.837 60.592 322.437 71.152 335.877 71.152C342.213 71.152 347.013 68.272 349.125 64.528C349.125 66.736 349.413 69.04 349.605 70H361.797C361.605 68.08 361.413 64.624 361.413 61.456V0.495996ZM325.701 46.288C325.701 37.84 330.885 33.04 337.413 33.04C343.941 33.04 349.029 37.744 349.029 46.192C349.029 54.736 343.941 59.728 337.413 59.728C330.693 59.728 325.701 54.736 325.701 46.288ZM402.144 22.576C401.184 22.48 400.224 22.384 399.168 22.384C395.136 22.384 388.608 23.536 385.728 29.776V22.768H373.344V70H386.112V48.4C386.112 38.224 391.776 35.056 398.304 35.056C399.456 35.056 400.704 35.152 402.144 35.44V22.576ZM429.953 59.824C423.713 59.824 417.953 55.216 417.953 46.384C417.953 37.456 423.713 32.944 429.953 32.944C436.193 32.944 441.953 37.456 441.953 46.384C441.953 55.312 436.193 59.824 429.953 59.824ZM429.953 21.328C415.841 21.328 405.185 31.792 405.185 46.384C405.185 60.88 415.841 71.44 429.953 71.44C444.065 71.44 454.721 60.88 454.721 46.384C454.721 31.792 444.065 21.328 429.953 21.328ZM475.647 88.24V65.392C477.951 68.56 482.751 71.152 489.279 71.152C502.623 71.152 511.551 60.592 511.551 46.288C511.551 32.272 503.583 21.712 489.759 21.712C482.655 21.712 477.375 24.88 475.263 28.528V22.768H462.879V88.24H475.647ZM498.975 46.384C498.975 54.832 493.791 59.728 487.263 59.728C480.735 59.728 475.455 54.736 475.455 46.384C475.455 38.032 480.735 33.136 487.263 33.136C493.791 33.136 498.975 38.032 498.975 46.384ZM15.2221 167V119.768H2.45412V167H15.2221ZM0.918123 104.312C0.918123 108.536 4.47012 112.088 8.79012 112.088C13.2061 112.088 16.6621 108.536 16.6621 104.312C16.6621 99.896 13.2061 96.344 8.79012 96.344C4.47012 96.344 0.918123 99.896 0.918123 104.312ZM39.7396 167V139.352C39.7396 134.168 43.0036 130.04 48.5716 130.04C54.3316 130.04 56.9236 133.88 56.9236 138.968V167H69.5956V139.352C69.5956 134.264 72.8596 130.04 78.3316 130.04C84.1876 130.04 86.6836 133.88 86.6836 138.968V167H99.0676V136.376C99.0676 123.704 90.7156 118.424 81.9796 118.424C75.7396 118.424 70.7476 120.536 67.0036 126.296C64.6036 121.208 59.4196 118.424 52.9876 118.424C47.8036 118.424 41.7556 120.92 39.1636 125.528V119.768H26.9716V167H39.7396ZM107.203 154.136C107.203 161.528 113.347 168.344 123.427 168.344C130.435 168.344 134.947 165.08 137.347 161.336C137.347 163.16 137.539 165.752 137.827 167H149.539C149.251 165.368 148.963 162.008 148.963 159.512V136.28C148.963 126.776 143.395 118.328 128.419 118.328C115.747 118.328 108.931 126.488 108.163 133.88L119.491 136.28C119.875 132.152 122.947 128.6 128.515 128.6C133.891 128.6 136.483 131.384 136.483 134.744C136.483 136.376 135.619 137.72 132.931 138.104L121.315 139.832C113.443 140.984 107.203 145.688 107.203 154.136ZM126.115 158.84C121.987 158.84 119.971 156.152 119.971 153.368C119.971 149.72 122.563 147.896 125.827 147.416L136.483 145.784V147.896C136.483 156.248 131.491 158.84 126.115 158.84ZM156.365 169.592C157.709 178.616 166.349 186.68 179.309 186.68C197.069 186.68 204.077 174.872 204.077 161.912V119.768H191.789V125.336C190.157 122.168 185.837 118.904 178.349 118.904C165.389 118.904 156.365 129.464 156.365 141.944C156.365 155.192 165.773 164.888 178.349 164.888C185.165 164.888 189.581 161.912 191.501 158.84V162.296C191.501 171.416 186.989 175.448 178.925 175.448C172.877 175.448 168.749 171.704 167.885 166.52L156.365 169.592ZM180.557 153.944C173.933 153.944 169.229 149.336 169.229 141.944C169.229 134.648 174.221 130.04 180.557 130.04C186.701 130.04 191.693 134.648 191.693 141.944C191.693 149.24 187.085 153.944 180.557 153.944ZM224.399 138.008C224.687 133.688 228.335 128.696 234.959 128.696C242.255 128.696 245.327 133.304 245.519 138.008H224.399ZM246.767 150.296C245.231 154.52 241.967 157.496 236.015 157.496C229.679 157.496 224.399 152.984 224.111 146.744H257.903C257.903 146.552 258.095 144.632 258.095 142.808C258.095 127.64 249.359 118.328 234.767 118.328C222.671 118.328 211.535 128.12 211.535 143.192C211.535 159.128 222.959 168.44 235.919 168.44C247.535 168.44 255.023 161.624 257.423 153.464L246.767 150.296ZM262.197 153.848C262.773 159.224 267.669 168.44 281.877 168.44C294.261 168.44 300.213 160.568 300.213 152.888C300.213 145.976 295.509 140.312 286.197 138.392L279.477 136.952C276.885 136.472 275.157 135.032 275.157 132.728C275.157 130.04 277.845 128.024 281.205 128.024C286.581 128.024 288.597 131.576 288.981 134.36L299.637 131.96C299.061 126.872 294.549 118.328 281.109 118.328C270.933 118.328 263.445 125.336 263.445 133.784C263.445 140.408 267.573 145.88 276.693 147.896L282.933 149.336C286.581 150.104 288.021 151.832 288.021 153.944C288.021 156.44 286.005 158.648 281.781 158.648C276.213 158.648 273.429 155.192 273.141 151.448L262.197 153.848ZM343.126 139.256C343.414 134.072 346.582 130.04 351.958 130.04C358.102 130.04 360.694 134.168 360.694 139.448V167H373.462V137.24C373.462 126.872 367.894 118.52 355.894 118.52C351.382 118.52 346.198 120.056 343.126 123.704V97.496H330.358V167H343.126V139.256ZM393.812 138.008C394.1 133.688 397.748 128.696 404.372 128.696C411.668 128.696 414.74 133.304 414.932 138.008H393.812ZM416.18 150.296C414.644 154.52 411.38 157.496 405.428 157.496C399.092 157.496 393.812 152.984 393.524 146.744H427.316C427.316 146.552 427.508 144.632 427.508 142.808C427.508 127.64 418.772 118.328 404.18 118.328C392.084 118.328 380.948 128.12 380.948 143.192C380.948 159.128 392.372 168.44 405.332 168.44C416.948 168.44 424.436 161.624 426.836 153.464L416.18 150.296ZM464.443 119.576C463.483 119.48 462.523 119.384 461.467 119.384C457.435 119.384 450.907 120.536 448.027 126.776V119.768H435.643V167H448.411V145.4C448.411 135.224 454.075 132.056 460.603 132.056C461.755 132.056 463.003 132.152 464.443 132.44V119.576ZM480.347 138.008C480.635 133.688 484.283 128.696 490.907 128.696C498.203 128.696 501.275 133.304 501.467 138.008H480.347ZM502.715 150.296C501.179 154.52 497.915 157.496 491.963 157.496C485.627 157.496 480.347 152.984 480.059 146.744H513.851C513.851 146.552 514.043 144.632 514.043 142.808C514.043 127.64 505.307 118.328 490.715 118.328C478.619 118.328 467.483 128.12 467.483 143.192C467.483 159.128 478.907 168.44 491.867 168.44C503.483 168.44 510.971 161.624 513.371 153.464L502.715 150.296Z" fill="#1A1A1A"/>
</svg>
