<svg width="648" height="170" viewBox="0 0 648 170" fill="none" xmlns="http://www.w3.org/2000/svg">
<path d="M103.565 72.44C122.669 72.44 132.461 59.768 135.053 49.304L122.669 45.56C120.845 51.896 115.181 59.48 103.565 59.48C92.6211 59.48 82.4451 51.512 82.4451 37.016C82.4451 21.56 93.1971 14.264 103.373 14.264C115.181 14.264 120.461 21.464 122.093 27.992L134.573 24.056C131.885 13.016 122.189 1.496 103.373 1.496C85.1331 1.496 68.7171 15.32 68.7171 37.016C68.7171 58.712 84.5571 72.44 103.565 72.44ZM155.012 71V1.496H142.244V71H155.012ZM179.53 71V23.768H166.762V71H179.53ZM165.226 8.31199C165.226 12.536 168.778 16.088 173.098 16.088C177.514 16.088 180.97 12.536 180.97 8.31199C180.97 3.89599 177.514 0.343994 173.098 0.343994C168.778 0.343994 165.226 3.89599 165.226 8.31199ZM212.495 34.136C218.831 34.136 221.807 38.168 222.959 42.104L234.383 38.264C232.367 30.296 225.071 22.328 212.207 22.328C198.479 22.328 187.727 32.792 187.727 47.384C187.727 61.88 198.671 72.44 212.591 72.44C225.167 72.44 232.559 64.376 234.671 56.504L223.439 52.76C222.383 56.408 219.119 60.728 212.591 60.728C206.063 60.728 200.495 55.928 200.495 47.384C200.495 38.84 205.967 34.136 212.495 34.136ZM287.932 23.768H271.228L254.908 41.336V1.496H242.14V71H254.908V58.52L260.188 52.952L272.668 71H288.316L269.02 43.64L287.932 23.768ZM331.388 9.65599H319.868V16.28C319.868 20.504 317.564 23.768 312.572 23.768H310.172V35.096H318.716V57.08C318.716 66.2 324.476 71.672 333.692 71.672C337.436 71.672 339.74 71 340.892 70.52V59.96C340.22 60.152 338.492 60.344 336.956 60.344C333.308 60.344 331.388 59 331.388 54.872V35.096H340.892V23.768H331.388V9.65599ZM370.565 60.824C364.325 60.824 358.565 56.216 358.565 47.384C358.565 38.456 364.325 33.944 370.565 33.944C376.805 33.944 382.565 38.456 382.565 47.384C382.565 56.312 376.805 60.824 370.565 60.824ZM370.565 22.328C356.453 22.328 345.797 32.792 345.797 47.384C345.797 61.88 356.453 72.44 370.565 72.44C384.677 72.44 395.333 61.88 395.333 47.384C395.333 32.792 384.677 22.328 370.565 22.328ZM422.41 58.136C422.41 65.528 428.554 72.344 438.634 72.344C445.642 72.344 450.154 69.08 452.554 65.336C452.554 67.16 452.746 69.752 453.034 71H464.746C464.458 69.368 464.17 66.008 464.17 63.512V40.28C464.17 30.776 458.602 22.328 443.626 22.328C430.954 22.328 424.138 30.488 423.37 37.88L434.698 40.28C435.082 36.152 438.154 32.6 443.722 32.6C449.098 32.6 451.69 35.384 451.69 38.744C451.69 40.376 450.826 41.72 448.138 42.104L436.522 43.832C428.65 44.984 422.41 49.688 422.41 58.136ZM441.322 62.84C437.194 62.84 435.178 60.152 435.178 57.368C435.178 53.72 437.77 51.896 441.034 51.416L451.69 49.784V51.896C451.69 60.248 446.698 62.84 441.322 62.84ZM519.957 1.496H507.381V28.472C506.037 25.976 502.197 22.616 494.037 22.616C480.693 22.616 471.381 33.464 471.381 47.288C471.381 61.592 480.981 72.152 494.421 72.152C500.757 72.152 505.557 69.272 507.669 65.528C507.669 67.736 507.957 70.04 508.149 71H520.341C520.149 69.08 519.957 65.624 519.957 62.456V1.496ZM484.245 47.288C484.245 38.84 489.429 34.04 495.957 34.04C502.485 34.04 507.573 38.744 507.573 47.192C507.573 55.736 502.485 60.728 495.957 60.728C489.237 60.728 484.245 55.736 484.245 47.288ZM576.912 1.496H564.336V28.472C562.992 25.976 559.152 22.616 550.992 22.616C537.648 22.616 528.336 33.464 528.336 47.288C528.336 61.592 537.936 72.152 551.376 72.152C557.712 72.152 562.512 69.272 564.624 65.528C564.624 67.736 564.912 70.04 565.104 71H577.296C577.104 69.08 576.912 65.624 576.912 62.456V1.496ZM541.2 47.288C541.2 38.84 546.384 34.04 552.912 34.04C559.44 34.04 564.528 38.744 564.528 47.192C564.528 55.736 559.44 60.728 552.912 60.728C546.192 60.728 541.2 55.736 541.2 47.288ZM13.3424 139.008C13.6304 134.688 17.2784 129.696 23.9024 129.696C31.1984 129.696 34.2704 134.304 34.4624 139.008H13.3424ZM35.7104 151.296C34.1744 155.52 30.9104 158.496 24.9584 158.496C18.6224 158.496 13.3424 153.984 13.0544 147.744H46.8464C46.8464 147.552 47.0384 145.632 47.0384 143.808C47.0384 128.64 38.3024 119.328 23.7104 119.328C11.6144 119.328 0.478386 129.12 0.478386 144.192C0.478386 160.128 11.9024 169.44 24.8624 169.44C36.4784 169.44 43.9664 162.624 46.3664 154.464L35.7104 151.296ZM67.9409 168V140.352C67.9409 135.168 71.2049 131.04 76.7729 131.04C82.5329 131.04 85.1249 134.88 85.1249 139.968V168H97.7969V140.352C97.7969 135.264 101.061 131.04 106.533 131.04C112.389 131.04 114.885 134.88 114.885 139.968V168H127.269V137.376C127.269 124.704 118.917 119.424 110.181 119.424C103.941 119.424 98.9489 121.536 95.2049 127.296C92.8049 122.208 87.6209 119.424 81.1889 119.424C76.0049 119.424 69.9569 121.92 67.3649 126.528V120.768H55.1729V168H67.9409ZM150.668 168V162.24C153.164 166.272 158.156 169.152 164.684 169.152C178.124 169.152 186.956 158.496 186.956 144.192C186.956 130.176 178.988 119.52 165.164 119.52C158.156 119.52 152.972 122.592 150.86 125.952V98.496H138.284V168H150.668ZM174.188 144.288C174.188 152.928 169.004 157.728 162.476 157.728C156.044 157.728 150.668 152.832 150.668 144.288C150.668 135.648 156.044 130.944 162.476 130.944C169.004 130.944 174.188 135.648 174.188 144.288ZM204.457 139.008C204.745 134.688 208.393 129.696 215.017 129.696C222.313 129.696 225.385 134.304 225.577 139.008H204.457ZM226.825 151.296C225.289 155.52 222.025 158.496 216.073 158.496C209.737 158.496 204.457 153.984 204.169 147.744H237.961C237.961 147.552 238.153 145.632 238.153 143.808C238.153 128.64 229.417 119.328 214.825 119.328C202.729 119.328 191.593 129.12 191.593 144.192C191.593 160.128 203.017 169.44 215.977 169.44C227.593 169.44 235.081 162.624 237.481 154.464L226.825 151.296ZM291.312 98.496H278.736V125.472C277.392 122.976 273.552 119.616 265.392 119.616C252.048 119.616 242.736 130.464 242.736 144.288C242.736 158.592 252.336 169.152 265.776 169.152C272.112 169.152 276.912 166.272 279.024 162.528C279.024 164.736 279.312 167.04 279.504 168H291.696C291.504 166.08 291.312 162.624 291.312 159.456V98.496ZM255.6 144.288C255.6 135.84 260.784 131.04 267.312 131.04C273.84 131.04 278.928 135.744 278.928 144.192C278.928 152.736 273.84 157.728 267.312 157.728C260.592 157.728 255.6 152.736 255.6 144.288ZM346.258 131.136C352.594 131.136 355.57 135.168 356.722 139.104L368.146 135.264C366.13 127.296 358.834 119.328 345.97 119.328C332.242 119.328 321.49 129.792 321.49 144.384C321.49 158.88 332.434 169.44 346.354 169.44C358.93 169.44 366.322 161.376 368.434 153.504L357.202 149.76C356.146 153.408 352.882 157.728 346.354 157.728C339.826 157.728 334.258 152.928 334.258 144.384C334.258 135.84 339.73 131.136 346.258 131.136ZM396.65 157.824C390.41 157.824 384.65 153.216 384.65 144.384C384.65 135.456 390.41 130.944 396.65 130.944C402.89 130.944 408.65 135.456 408.65 144.384C408.65 153.312 402.89 157.824 396.65 157.824ZM396.65 119.328C382.538 119.328 371.882 129.792 371.882 144.384C371.882 158.88 382.538 169.44 396.65 169.44C410.762 169.44 421.418 158.88 421.418 144.384C421.418 129.792 410.762 119.328 396.65 119.328ZM442.345 140.832C442.345 135.36 445.609 131.04 451.177 131.04C457.321 131.04 459.913 135.168 459.913 140.448V168H472.681V138.24C472.681 127.872 467.305 119.52 455.593 119.52C450.505 119.52 444.841 121.728 441.961 126.624V120.768H429.577V168H442.345V140.832ZM499.463 106.656H487.943V113.28C487.943 117.504 485.639 120.768 480.647 120.768H478.247V132.096H486.791V154.08C486.791 163.2 492.551 168.672 501.767 168.672C505.511 168.672 507.815 168 508.967 167.52V156.96C508.295 157.152 506.567 157.344 505.031 157.344C501.383 157.344 499.463 156 499.463 151.872V132.096H508.967V120.768H499.463V106.656ZM526.736 139.008C527.024 134.688 530.672 129.696 537.296 129.696C544.592 129.696 547.664 134.304 547.856 139.008H526.736ZM549.104 151.296C547.568 155.52 544.304 158.496 538.352 158.496C532.016 158.496 526.736 153.984 526.448 147.744H560.24C560.24 147.552 560.432 145.632 560.432 143.808C560.432 128.64 551.696 119.328 537.104 119.328C525.008 119.328 513.872 129.12 513.872 144.192C513.872 160.128 525.296 169.44 538.256 169.44C549.872 169.44 557.36 162.624 559.76 154.464L549.104 151.296ZM581.335 140.832C581.335 135.36 584.599 131.04 590.167 131.04C596.311 131.04 598.903 135.168 598.903 140.448V168H611.671V138.24C611.671 127.872 606.295 119.52 594.583 119.52C589.495 119.52 583.831 121.728 580.951 126.624V120.768H568.567V168H581.335V140.832ZM638.453 106.656H626.933V113.28C626.933 117.504 624.629 120.768 619.637 120.768H617.237V132.096H625.781V154.08C625.781 163.2 631.541 168.672 640.757 168.672C644.501 168.672 646.805 168 647.957 167.52V156.96C647.285 157.152 645.557 157.344 644.021 157.344C640.373 157.344 638.453 156 638.453 151.872V132.096H647.957V120.768H638.453V106.656Z" fill="#1A1A1A"/>
</svg>
