<svg width="483" height="170" viewBox="0 0 483 170" fill="none" xmlns="http://www.w3.org/2000/svg">
<path d="M51.1593 19.16C49.6233 11.48 43.2872 1.496 26.7752 1.496C13.9112 1.496 3.06325 10.712 3.06325 22.808C3.06325 33.08 10.0712 40.088 20.9192 42.296L30.4232 44.216C35.7032 45.272 38.6793 48.344 38.6793 52.28C38.6793 57.08 34.7432 60.632 27.6392 60.632C18.0392 60.632 13.3352 54.584 12.7592 47.864L0.471248 51.128C1.52725 60.824 9.49525 72.44 27.5432 72.44C43.3833 72.44 52.1192 61.88 52.1192 51.416C52.1192 41.816 45.4952 33.752 33.1112 31.352L23.6073 29.528C18.6152 28.568 16.2152 25.592 16.2152 21.848C16.2152 17.336 20.4392 13.208 26.8712 13.208C35.5112 13.208 38.5832 19.064 39.2552 22.808L51.1593 19.16ZM69.3618 42.008C69.6497 37.688 73.2977 32.696 79.9218 32.696C87.2177 32.696 90.2898 37.304 90.4818 42.008H69.3618ZM91.7298 54.296C90.1938 58.52 86.9298 61.496 80.9777 61.496C74.6417 61.496 69.3618 56.984 69.0738 50.744H102.866C102.866 50.552 103.058 48.632 103.058 46.808C103.058 31.64 94.3218 22.328 79.7298 22.328C67.6337 22.328 56.4977 32.12 56.4977 47.192C56.4977 63.128 67.9218 72.44 80.8818 72.44C92.4978 72.44 99.9858 65.624 102.386 57.464L91.7298 54.296ZM123.96 71V1.496H111.192V71H123.96ZM157.598 12.056C159.71 12.056 160.958 12.344 161.63 12.536V1.784C160.574 1.304 157.982 0.823999 155.294 0.823999C144.83 0.823999 138.11 7.736 138.11 18.392V23.768H130.238V34.712H138.11V71H150.974V34.712H161.63V23.768H150.974V18.584C150.974 13.304 154.718 12.056 157.598 12.056ZM192.603 48.152V36.824H164.763V48.152H192.603ZM214.575 43.256C214.863 38.072 218.031 34.04 223.407 34.04C229.551 34.04 232.143 38.168 232.143 43.448V71H244.911V41.24C244.911 30.872 239.343 22.52 227.343 22.52C222.831 22.52 217.647 24.056 214.575 27.704V1.496H201.807V71H214.575V43.256ZM277.166 60.824C270.926 60.824 265.166 56.216 265.166 47.384C265.166 38.456 270.926 33.944 277.166 33.944C283.406 33.944 289.166 38.456 289.166 47.384C289.166 56.312 283.406 60.824 277.166 60.824ZM277.166 22.328C263.054 22.328 252.398 32.792 252.398 47.384C252.398 61.88 263.054 72.44 277.166 72.44C291.278 72.44 301.934 61.88 301.934 47.384C301.934 32.792 291.278 22.328 277.166 22.328ZM306.06 57.848C306.636 63.224 311.532 72.44 325.74 72.44C338.124 72.44 344.076 64.568 344.076 56.888C344.076 49.976 339.372 44.312 330.06 42.392L323.34 40.952C320.748 40.472 319.02 39.032 319.02 36.728C319.02 34.04 321.708 32.024 325.068 32.024C330.444 32.024 332.46 35.576 332.844 38.36L343.5 35.96C342.924 30.872 338.412 22.328 324.972 22.328C314.796 22.328 307.308 29.336 307.308 37.784C307.308 44.408 311.436 49.88 320.556 51.896L326.796 53.336C330.444 54.104 331.884 55.832 331.884 57.944C331.884 60.44 329.868 62.648 325.644 62.648C320.076 62.648 317.292 59.192 317.004 55.448L306.06 57.848ZM368.166 9.65599H356.646V16.28C356.646 20.504 354.342 23.768 349.35 23.768H346.95V35.096H355.494V57.08C355.494 66.2 361.254 71.672 370.47 71.672C374.214 71.672 376.518 71 377.67 70.52V59.96C376.998 60.152 375.27 60.344 373.734 60.344C370.086 60.344 368.166 59 368.166 54.872V35.096H377.67V23.768H368.166V9.65599ZM395.439 42.008C395.727 37.688 399.375 32.696 405.999 32.696C413.295 32.696 416.367 37.304 416.559 42.008H395.439ZM417.807 54.296C416.271 58.52 413.007 61.496 407.055 61.496C400.719 61.496 395.439 56.984 395.151 50.744H428.943C428.943 50.552 429.135 48.632 429.135 46.808C429.135 31.64 420.399 22.328 405.807 22.328C393.711 22.328 382.575 32.12 382.575 47.192C382.575 63.128 393.999 72.44 406.959 72.44C418.575 72.44 426.063 65.624 428.463 57.464L417.807 54.296ZM482.294 1.496H469.718V28.472C468.374 25.976 464.534 22.616 456.374 22.616C443.03 22.616 433.718 33.464 433.718 47.288C433.718 61.592 443.318 72.152 456.758 72.152C463.094 72.152 467.894 69.272 470.006 65.528C470.006 67.736 470.294 70.04 470.486 71H482.678C482.486 69.08 482.294 65.624 482.294 62.456V1.496ZM446.582 47.288C446.582 38.84 451.766 34.04 458.294 34.04C464.822 34.04 469.91 38.744 469.91 47.192C469.91 55.736 464.822 60.728 458.294 60.728C451.574 60.728 446.582 55.736 446.582 47.288ZM175.285 120.768H161.845L150.613 152.448L138.901 120.768H124.885L144.181 168H156.949L175.285 120.768ZM193.902 168V120.768H181.134V168H193.902ZM179.598 105.312C179.598 109.536 183.15 113.088 187.47 113.088C191.886 113.088 195.342 109.536 195.342 105.312C195.342 100.896 191.886 97.344 187.47 97.344C183.15 97.344 179.598 100.896 179.598 105.312ZM250.675 98.496H238.099V125.472C236.755 122.976 232.915 119.616 224.755 119.616C211.411 119.616 202.099 130.464 202.099 144.288C202.099 158.592 211.699 169.152 225.139 169.152C231.475 169.152 236.275 166.272 238.387 162.528C238.387 164.736 238.675 167.04 238.867 168H251.059C250.867 166.08 250.675 162.624 250.675 159.456V98.496ZM214.963 144.288C214.963 135.84 220.147 131.04 226.675 131.04C233.203 131.04 238.291 135.744 238.291 144.192C238.291 152.736 233.203 157.728 226.675 157.728C219.955 157.728 214.963 152.736 214.963 144.288ZM271.918 139.008C272.206 134.688 275.854 129.696 282.478 129.696C289.774 129.696 292.846 134.304 293.038 139.008H271.918ZM294.286 151.296C292.75 155.52 289.486 158.496 283.534 158.496C277.198 158.496 271.918 153.984 271.63 147.744H305.422C305.422 147.552 305.614 145.632 305.614 143.808C305.614 128.64 296.878 119.328 282.286 119.328C270.19 119.328 259.054 129.12 259.054 144.192C259.054 160.128 270.478 169.44 283.438 169.44C295.054 169.44 302.542 162.624 304.942 154.464L294.286 151.296ZM334.964 157.824C328.724 157.824 322.964 153.216 322.964 144.384C322.964 135.456 328.724 130.944 334.964 130.944C341.204 130.944 346.964 135.456 346.964 144.384C346.964 153.312 341.204 157.824 334.964 157.824ZM334.964 119.328C320.852 119.328 310.196 129.792 310.196 144.384C310.196 158.88 320.852 169.44 334.964 169.44C349.076 169.44 359.732 158.88 359.732 144.384C359.732 129.792 349.076 119.328 334.964 119.328Z" fill="#1A1A1A"/>
</svg>
