<svg width="642" height="170" viewBox="0 0 642 170" fill="none" xmlns="http://www.w3.org/2000/svg">
<path d="M35.117 72.44C54.221 72.44 64.013 59.768 66.605 49.304L54.221 45.56C52.397 51.896 46.733 59.48 35.117 59.48C24.173 59.48 13.997 51.512 13.997 37.016C13.997 21.56 24.749 14.264 34.925 14.264C46.733 14.264 52.013 21.464 53.645 27.992L66.125 24.056C63.437 13.016 53.741 1.496 34.925 1.496C16.685 1.496 0.268994 15.32 0.268994 37.016C0.268994 58.712 16.109 72.44 35.117 72.44ZM86.564 71V1.496H73.796V71H86.564ZM111.081 71V23.768H98.3135V71H111.081ZM96.7775 8.31199C96.7775 12.536 100.329 16.088 104.649 16.088C109.065 16.088 112.521 12.536 112.521 8.31199C112.521 3.89599 109.065 0.343994 104.649 0.343994C100.329 0.343994 96.7775 3.89599 96.7775 8.31199ZM144.047 34.136C150.383 34.136 153.359 38.168 154.511 42.104L165.935 38.264C163.919 30.296 156.623 22.328 143.759 22.328C130.031 22.328 119.279 32.792 119.279 47.384C119.279 61.88 130.223 72.44 144.143 72.44C156.719 72.44 164.111 64.376 166.223 56.504L154.991 52.76C153.935 56.408 150.671 60.728 144.143 60.728C137.615 60.728 132.047 55.928 132.047 47.384C132.047 38.84 137.519 34.136 144.047 34.136ZM219.484 23.768H202.78L186.46 41.336V1.496H173.692V71H186.46V58.52L191.74 52.952L204.22 71H219.868L200.572 43.64L219.484 23.768ZM262.94 9.65599H251.42V16.28C251.42 20.504 249.116 23.768 244.124 23.768H241.724V35.096H250.268V57.08C250.268 66.2 256.028 71.672 265.244 71.672C268.988 71.672 271.292 71 272.444 70.52V59.96C271.772 60.152 270.044 60.344 268.508 60.344C264.86 60.344 262.94 59 262.94 54.872V35.096H272.444V23.768H262.94V9.65599ZM302.117 60.824C295.877 60.824 290.117 56.216 290.117 47.384C290.117 38.456 295.877 33.944 302.117 33.944C308.357 33.944 314.117 38.456 314.117 47.384C314.117 56.312 308.357 60.824 302.117 60.824ZM302.117 22.328C288.005 22.328 277.349 32.792 277.349 47.384C277.349 61.88 288.005 72.44 302.117 72.44C316.229 72.44 326.885 61.88 326.885 47.384C326.885 32.792 316.229 22.328 302.117 22.328ZM387.754 71H399.946C399.754 69.368 399.466 66.104 399.466 62.456V23.768H386.698V51.224C386.698 56.696 383.434 60.536 377.77 60.536C371.818 60.536 369.13 56.312 369.13 51.032V23.768H356.362V53.624C356.362 63.896 362.89 72.248 374.314 72.248C379.306 72.248 384.778 70.328 387.37 65.912C387.37 67.832 387.562 70.04 387.754 71ZM423.94 89.24V66.392C426.244 69.56 431.044 72.152 437.572 72.152C450.916 72.152 459.844 61.592 459.844 47.288C459.844 33.272 451.876 22.712 438.052 22.712C430.948 22.712 425.668 25.88 423.556 29.528V23.768H411.172V89.24H423.94ZM447.268 47.384C447.268 55.832 442.084 60.728 435.556 60.728C429.028 60.728 423.748 55.736 423.748 47.384C423.748 39.032 429.028 34.136 435.556 34.136C442.084 34.136 447.268 39.032 447.268 47.384ZM480.801 71V1.496H468.033V71H480.801ZM513.767 60.824C507.527 60.824 501.767 56.216 501.767 47.384C501.767 38.456 507.527 33.944 513.767 33.944C520.007 33.944 525.767 38.456 525.767 47.384C525.767 56.312 520.007 60.824 513.767 60.824ZM513.767 22.328C499.655 22.328 488.999 32.792 488.999 47.384C488.999 61.88 499.655 72.44 513.767 72.44C527.879 72.44 538.535 61.88 538.535 47.384C538.535 32.792 527.879 22.328 513.767 22.328ZM543.813 58.136C543.813 65.528 549.957 72.344 560.037 72.344C567.045 72.344 571.557 69.08 573.957 65.336C573.957 67.16 574.149 69.752 574.437 71H586.149C585.861 69.368 585.573 66.008 585.573 63.512V40.28C585.573 30.776 580.005 22.328 565.029 22.328C552.357 22.328 545.541 30.488 544.773 37.88L556.101 40.28C556.485 36.152 559.557 32.6 565.125 32.6C570.501 32.6 573.093 35.384 573.093 38.744C573.093 40.376 572.229 41.72 569.541 42.104L557.925 43.832C550.053 44.984 543.813 49.688 543.813 58.136ZM562.725 62.84C558.597 62.84 556.581 60.152 556.581 57.368C556.581 53.72 559.173 51.896 562.437 51.416L573.093 49.784V51.896C573.093 60.248 568.101 62.84 562.725 62.84ZM641.36 1.496H628.784V28.472C627.44 25.976 623.6 22.616 615.44 22.616C602.096 22.616 592.784 33.464 592.784 47.288C592.784 61.592 602.384 72.152 615.824 72.152C622.16 72.152 626.96 69.272 629.072 65.528C629.072 67.736 629.36 70.04 629.552 71H641.744C641.552 69.08 641.36 65.624 641.36 62.456V1.496ZM605.648 47.288C605.648 38.84 610.832 34.04 617.36 34.04C623.888 34.04 628.976 38.744 628.976 47.192C628.976 55.736 623.888 60.728 617.36 60.728C610.64 60.728 605.648 55.736 605.648 47.288ZM109.904 168V155.328H79.5684V99.936H66.3204V168H109.904ZM138.469 157.824C132.229 157.824 126.469 153.216 126.469 144.384C126.469 135.456 132.229 130.944 138.469 130.944C144.709 130.944 150.469 135.456 150.469 144.384C150.469 153.312 144.709 157.824 138.469 157.824ZM138.469 119.328C124.357 119.328 113.701 129.792 113.701 144.384C113.701 158.88 124.357 169.44 138.469 169.44C152.581 169.44 163.237 158.88 163.237 144.384C163.237 129.792 152.581 119.328 138.469 119.328ZM186.952 106.656H175.432V113.28C175.432 117.504 173.128 120.768 168.136 120.768H165.736V132.096H174.28V154.08C174.28 163.2 180.04 168.672 189.256 168.672C193 168.672 195.304 168 196.456 167.52V156.96C195.784 157.152 194.056 157.344 192.52 157.344C188.872 157.344 186.952 156 186.952 151.872V132.096H196.456V120.768H186.952V106.656ZM220.844 106.656H209.324V113.28C209.324 117.504 207.02 120.768 202.028 120.768H199.628V132.096H208.172V154.08C208.172 163.2 213.932 168.672 223.148 168.672C226.892 168.672 229.196 168 230.348 167.52V156.96C229.676 157.152 227.948 157.344 226.412 157.344C222.764 157.344 220.844 156 220.844 151.872V132.096H230.348V120.768H220.844V106.656ZM252.042 168V120.768H239.274V168H252.042ZM237.738 105.312C237.738 109.536 241.29 113.088 245.61 113.088C250.026 113.088 253.482 109.536 253.482 105.312C253.482 100.896 250.026 97.344 245.61 97.344C241.29 97.344 237.738 100.896 237.738 105.312ZM273.104 139.008C273.392 134.688 277.04 129.696 283.664 129.696C290.96 129.696 294.032 134.304 294.224 139.008H273.104ZM295.472 151.296C293.936 155.52 290.672 158.496 284.72 158.496C278.384 158.496 273.104 153.984 272.816 147.744H306.608C306.608 147.552 306.8 145.632 306.8 143.808C306.8 128.64 298.064 119.328 283.472 119.328C271.376 119.328 260.24 129.12 260.24 144.192C260.24 160.128 271.664 169.44 284.624 169.44C296.24 169.44 303.728 162.624 306.128 154.464L295.472 151.296ZM331.837 147.264C331.837 160.608 340.669 169.44 354.109 169.44C367.357 169.44 376.285 159.264 376.285 146.976V99.936H363.037V146.976C363.037 152.928 359.581 156.864 354.013 156.864C348.637 156.864 344.701 153.696 344.605 146.688V140.448L331.837 142.752V147.264ZM435.002 116.16C433.466 108.48 427.13 98.496 410.618 98.496C397.754 98.496 386.906 107.712 386.906 119.808C386.906 130.08 393.914 137.088 404.762 139.296L414.266 141.216C419.546 142.272 422.522 145.344 422.522 149.28C422.522 154.08 418.586 157.632 411.482 157.632C401.882 157.632 397.178 151.584 396.602 144.864L384.314 148.128C385.37 157.824 393.338 169.44 411.386 169.44C427.226 169.44 435.962 158.88 435.962 148.416C435.962 138.816 429.338 130.752 416.954 128.352L407.45 126.528C402.458 125.568 400.058 122.592 400.058 118.848C400.058 114.336 404.282 110.208 410.714 110.208C419.354 110.208 422.426 116.064 423.098 119.808L435.002 116.16ZM454.736 133.92C454.736 118.56 465.488 111.264 475.952 111.264C486.512 111.264 497.264 118.56 497.264 133.92C497.264 149.28 486.512 156.576 475.952 156.576C465.488 156.576 454.736 149.28 454.736 133.92ZM441.008 134.016C441.008 155.904 457.52 169.44 475.952 169.44C494.48 169.44 510.992 155.904 510.992 134.016C510.992 112.032 494.48 98.496 475.952 98.496C457.52 98.496 441.008 112.032 441.008 134.016ZM578.638 168V99.936H565.39V144.96L537.07 99.936H520.558V168H533.806V119.712L564.718 168H578.638Z" fill="#1A1A1A"/>
</svg>
