<svg width="599" height="187" viewBox="0 0 599 187" fill="none" xmlns="http://www.w3.org/2000/svg">
<path d="M62.0996 57.712V14.224H72.7556C83.8916 14.224 93.1076 21.232 93.1076 36.016C93.1076 50.8 83.7956 57.712 72.6596 57.712H62.0996ZM73.1396 70C92.5316 70 106.836 57.52 106.836 36.016C106.836 14.512 92.6276 1.936 73.2356 1.936H48.8516V70H73.1396ZM144.24 22.576C143.28 22.48 142.32 22.384 141.264 22.384C137.232 22.384 130.704 23.536 127.824 29.776V22.768H115.44V70H128.208V48.4C128.208 38.224 133.872 35.056 140.4 35.056C141.552 35.056 142.8 35.152 144.24 35.44V22.576ZM148.703 57.136C148.703 64.528 154.847 71.344 164.927 71.344C171.935 71.344 176.447 68.08 178.847 64.336C178.847 66.16 179.039 68.752 179.327 70H191.039C190.751 68.368 190.463 65.008 190.463 62.512V39.28C190.463 29.776 184.895 21.328 169.919 21.328C157.247 21.328 150.431 29.488 149.663 36.88L160.991 39.28C161.375 35.152 164.447 31.6 170.015 31.6C175.391 31.6 177.983 34.384 177.983 37.744C177.983 39.376 177.119 40.72 174.431 41.104L162.815 42.832C154.943 43.984 148.703 48.688 148.703 57.136ZM167.615 61.84C163.487 61.84 161.471 59.152 161.471 56.368C161.471 52.72 164.063 50.896 167.327 50.416L177.983 48.784V50.896C177.983 59.248 172.991 61.84 167.615 61.84ZM197.865 72.592C199.209 81.616 207.849 89.68 220.809 89.68C238.569 89.68 245.577 77.872 245.577 64.912V22.768H233.289V28.336C231.657 25.168 227.337 21.904 219.849 21.904C206.889 21.904 197.865 32.464 197.865 44.944C197.865 58.192 207.273 67.888 219.849 67.888C226.665 67.888 231.081 64.912 233.001 61.84V65.296C233.001 74.416 228.489 78.448 220.425 78.448C214.377 78.448 210.249 74.704 209.385 69.52L197.865 72.592ZM222.057 56.944C215.433 56.944 210.729 52.336 210.729 44.944C210.729 37.648 215.721 33.04 222.057 33.04C228.201 33.04 233.193 37.648 233.193 44.944C233.193 52.24 228.585 56.944 222.057 56.944ZM320.046 70H336.558L321.198 53.872L330.702 43.888V27.952L313.518 45.904L303.246 35.056L305.838 33.136C310.734 29.488 315.438 24.496 315.438 17.584C315.438 7.408 307.374 0.399998 296.526 0.399998C287.31 0.399998 277.71 6.736 277.71 18.16C277.71 24.304 281.934 29.488 285.198 32.944L286.254 34.096L285.774 34.384C278.67 39.664 274.158 44.56 274.158 53.008C274.158 62.128 281.454 71.248 294.798 71.248C302.094 71.248 307.95 67.792 313.038 62.608L320.046 70ZM294.99 60.112C289.998 60.112 286.83 56.176 286.83 52.24C286.83 48.208 289.038 45.616 292.302 43.216L293.742 42.16L305.358 54.448C302.094 57.904 299.118 60.112 294.99 60.112ZM289.806 17.776C289.806 13.168 293.262 10.96 296.43 10.96C300.462 10.96 303.342 13.84 303.342 17.488C303.342 19.984 302.19 22.384 299.022 24.688L295.662 27.184L293.838 25.168C292.11 23.44 289.806 20.656 289.806 17.776ZM404.413 0.495996H391.837V27.472C390.493 24.976 386.653 21.616 378.493 21.616C365.149 21.616 355.837 32.464 355.837 46.288C355.837 60.592 365.437 71.152 378.877 71.152C385.213 71.152 390.013 68.272 392.125 64.528C392.125 66.736 392.413 69.04 392.605 70H404.797C404.605 68.08 404.413 64.624 404.413 61.456V0.495996ZM368.701 46.288C368.701 37.84 373.885 33.04 380.413 33.04C386.941 33.04 392.029 37.744 392.029 46.192C392.029 54.736 386.941 59.728 380.413 59.728C373.693 59.728 368.701 54.736 368.701 46.288ZM445.144 22.576C444.184 22.48 443.224 22.384 442.168 22.384C438.136 22.384 431.608 23.536 428.728 29.776V22.768H416.344V70H429.112V48.4C429.112 38.224 434.776 35.056 441.304 35.056C442.456 35.056 443.704 35.152 445.144 35.44V22.576ZM472.953 59.824C466.713 59.824 460.953 55.216 460.953 46.384C460.953 37.456 466.713 32.944 472.953 32.944C479.193 32.944 484.953 37.456 484.953 46.384C484.953 55.312 479.193 59.824 472.953 59.824ZM472.953 21.328C458.841 21.328 448.185 31.792 448.185 46.384C448.185 60.88 458.841 71.44 472.953 71.44C487.065 71.44 497.721 60.88 497.721 46.384C497.721 31.792 487.065 21.328 472.953 21.328ZM518.647 88.24V65.392C520.951 68.56 525.751 71.152 532.279 71.152C545.623 71.152 554.551 60.592 554.551 46.288C554.551 32.272 546.583 21.712 532.759 21.712C525.655 21.712 520.375 24.88 518.263 28.528V22.768H505.879V88.24H518.647ZM541.975 46.384C541.975 54.832 536.791 59.728 530.263 59.728C523.735 59.728 518.455 54.736 518.455 46.384C518.455 38.032 523.735 33.136 530.263 33.136C536.791 33.136 541.975 38.032 541.975 46.384ZM0.853511 154.136C0.853511 161.528 6.99751 168.344 17.0775 168.344C24.0855 168.344 28.5975 165.08 30.9975 161.336C30.9975 163.16 31.1895 165.752 31.4775 167H43.1895C42.9015 165.368 42.6135 162.008 42.6135 159.512V136.28C42.6135 126.776 37.0455 118.328 22.0695 118.328C9.39751 118.328 2.58151 126.488 1.81351 133.88L13.1415 136.28C13.5255 132.152 16.5975 128.6 22.1655 128.6C27.5415 128.6 30.1335 131.384 30.1335 134.744C30.1335 136.376 29.2695 137.72 26.5815 138.104L14.9655 139.832C7.09351 140.984 0.853511 145.688 0.853511 154.136ZM19.7655 158.84C15.6375 158.84 13.6215 156.152 13.6215 153.368C13.6215 149.72 16.2135 147.896 19.4775 147.416L30.1335 145.784V147.896C30.1335 156.248 25.1415 158.84 19.7655 158.84ZM66.3315 139.832C66.3315 134.36 69.5955 130.04 75.1635 130.04C81.3075 130.04 83.8995 134.168 83.8995 139.448V167H96.6675V137.24C96.6675 126.872 91.2915 118.52 79.5795 118.52C74.4915 118.52 68.8275 120.728 65.9475 125.624V119.768H53.5635V167H66.3315V139.832ZM142.273 167V119.768H129.505V167H142.273ZM127.969 104.312C127.969 108.536 131.521 112.088 135.841 112.088C140.257 112.088 143.713 108.536 143.713 104.312C143.713 99.896 140.257 96.344 135.841 96.344C131.521 96.344 127.969 99.896 127.969 104.312ZM166.79 167V139.352C166.79 134.168 170.054 130.04 175.622 130.04C181.382 130.04 183.974 133.88 183.974 138.968V167H196.646V139.352C196.646 134.264 199.91 130.04 205.382 130.04C211.238 130.04 213.734 133.88 213.734 138.968V167H226.118V136.376C226.118 123.704 217.766 118.424 209.03 118.424C202.79 118.424 197.798 120.536 194.054 126.296C191.654 121.208 186.47 118.424 180.038 118.424C174.854 118.424 168.806 120.92 166.214 125.528V119.768H154.022V167H166.79ZM234.254 154.136C234.254 161.528 240.398 168.344 250.478 168.344C257.486 168.344 261.998 165.08 264.398 161.336C264.398 163.16 264.59 165.752 264.878 167H276.59C276.302 165.368 276.014 162.008 276.014 159.512V136.28C276.014 126.776 270.446 118.328 255.47 118.328C242.798 118.328 235.982 126.488 235.214 133.88L246.542 136.28C246.926 132.152 249.998 128.6 255.566 128.6C260.942 128.6 263.534 131.384 263.534 134.744C263.534 136.376 262.67 137.72 259.982 138.104L248.366 139.832C240.494 140.984 234.254 145.688 234.254 154.136ZM253.166 158.84C249.038 158.84 247.022 156.152 247.022 153.368C247.022 149.72 249.614 147.896 252.878 147.416L263.534 145.784V147.896C263.534 156.248 258.542 158.84 253.166 158.84ZM283.416 169.592C284.76 178.616 293.4 186.68 306.36 186.68C324.12 186.68 331.128 174.872 331.128 161.912V119.768H318.84V125.336C317.208 122.168 312.888 118.904 305.4 118.904C292.44 118.904 283.416 129.464 283.416 141.944C283.416 155.192 292.824 164.888 305.4 164.888C312.216 164.888 316.632 161.912 318.552 158.84V162.296C318.552 171.416 314.04 175.448 305.976 175.448C299.928 175.448 295.8 171.704 294.936 166.52L283.416 169.592ZM307.608 153.944C300.984 153.944 296.28 149.336 296.28 141.944C296.28 134.648 301.272 130.04 307.608 130.04C313.752 130.04 318.744 134.648 318.744 141.944C318.744 149.24 314.136 153.944 307.608 153.944ZM351.449 138.008C351.737 133.688 355.385 128.696 362.009 128.696C369.305 128.696 372.377 133.304 372.569 138.008H351.449ZM373.817 150.296C372.281 154.52 369.017 157.496 363.065 157.496C356.729 157.496 351.449 152.984 351.161 146.744H384.953C384.953 146.552 385.145 144.632 385.145 142.808C385.145 127.64 376.409 118.328 361.817 118.328C349.721 118.328 338.585 128.12 338.585 143.192C338.585 159.128 350.009 168.44 362.969 168.44C374.585 168.44 382.073 161.624 384.473 153.464L373.817 150.296ZM427.847 139.256C428.135 134.072 431.303 130.04 436.679 130.04C442.823 130.04 445.415 134.168 445.415 139.448V167H458.183V137.24C458.183 126.872 452.615 118.52 440.615 118.52C436.103 118.52 430.919 120.056 427.847 123.704V97.496H415.079V167H427.847V139.256ZM478.533 138.008C478.821 133.688 482.469 128.696 489.093 128.696C496.389 128.696 499.461 133.304 499.653 138.008H478.533ZM500.901 150.296C499.365 154.52 496.101 157.496 490.149 157.496C483.813 157.496 478.533 152.984 478.245 146.744H512.037C512.037 146.552 512.229 144.632 512.229 142.808C512.229 127.64 503.493 118.328 488.901 118.328C476.805 118.328 465.669 128.12 465.669 143.192C465.669 159.128 477.093 168.44 490.053 168.44C501.669 168.44 509.157 161.624 511.557 153.464L500.901 150.296ZM549.163 119.576C548.203 119.48 547.243 119.384 546.187 119.384C542.155 119.384 535.627 120.536 532.747 126.776V119.768H520.363V167H533.131V145.4C533.131 135.224 538.795 132.056 545.323 132.056C546.475 132.056 547.723 132.152 549.163 132.44V119.576ZM565.068 138.008C565.356 133.688 569.004 128.696 575.628 128.696C582.924 128.696 585.996 133.304 586.188 138.008H565.068ZM587.436 150.296C585.9 154.52 582.636 157.496 576.684 157.496C570.348 157.496 565.068 152.984 564.78 146.744H598.572C598.572 146.552 598.764 144.632 598.764 142.808C598.764 127.64 590.028 118.328 575.436 118.328C563.34 118.328 552.204 128.12 552.204 143.192C552.204 159.128 563.628 168.44 576.588 168.44C588.204 168.44 595.692 161.624 598.092 153.464L587.436 150.296Z" fill="#1A1A1A"/>
</svg>
