<svg width="297" height="188" viewBox="0 0 297 188" fill="none" xmlns="http://www.w3.org/2000/svg">
<path d="M66.3124 19.16C64.7764 11.48 58.4404 1.496 41.9284 1.496C29.0644 1.496 18.2164 10.712 18.2164 22.808C18.2164 33.08 25.2244 40.088 36.0724 42.296L45.5764 44.216C50.8564 45.272 53.8324 48.344 53.8324 52.28C53.8324 57.08 49.8964 60.632 42.7924 60.632C33.1924 60.632 28.4884 54.584 27.9124 47.864L15.6244 51.128C16.6804 60.824 24.6484 72.44 42.6964 72.44C58.5364 72.44 67.2724 61.88 67.2724 51.416C67.2724 41.816 60.6484 33.752 48.2644 31.352L38.7604 29.528C33.7684 28.568 31.3684 25.592 31.3684 21.848C31.3684 17.336 35.5924 13.208 42.0244 13.208C50.6644 13.208 53.7364 19.064 54.4084 22.808L66.3124 19.16ZM88.1584 71V23.768H75.3904V71H88.1584ZM73.8544 8.31199C73.8544 12.536 77.4064 16.088 81.7264 16.088C86.1424 16.088 89.5984 12.536 89.5984 8.31199C89.5984 3.89599 86.1424 0.343994 81.7264 0.343994C77.4064 0.343994 73.8544 3.89599 73.8544 8.31199ZM112.676 43.832C112.676 38.36 115.94 34.04 121.508 34.04C127.652 34.04 130.244 38.168 130.244 43.448V71H143.012V41.24C143.012 30.872 137.636 22.52 125.924 22.52C120.836 22.52 115.172 24.728 112.292 29.624V23.768H99.9079V71H112.676V43.832ZM150.69 73.592C152.034 82.616 160.674 90.68 173.634 90.68C191.394 90.68 198.402 78.872 198.402 65.912V23.768H186.114V29.336C184.482 26.168 180.162 22.904 172.674 22.904C159.714 22.904 150.69 33.464 150.69 45.944C150.69 59.192 160.098 68.888 172.674 68.888C179.49 68.888 183.906 65.912 185.826 62.84V66.296C185.826 75.416 181.314 79.448 173.25 79.448C167.202 79.448 163.074 75.704 162.21 70.52L150.69 73.592ZM174.882 57.944C168.258 57.944 163.554 53.336 163.554 45.944C163.554 38.648 168.546 34.04 174.882 34.04C181.026 34.04 186.018 38.648 186.018 45.944C186.018 53.24 181.41 57.944 174.882 57.944ZM222.18 71V1.496H209.412V71H222.18ZM243.241 42.008C243.529 37.688 247.177 32.696 253.801 32.696C261.097 32.696 264.169 37.304 264.361 42.008H243.241ZM265.609 54.296C264.073 58.52 260.809 61.496 254.857 61.496C248.521 61.496 243.241 56.984 242.953 50.744H276.745C276.745 50.552 276.937 48.632 276.937 46.808C276.937 31.64 268.201 22.328 253.609 22.328C241.513 22.328 230.377 32.12 230.377 47.192C230.377 63.128 241.801 72.44 254.761 72.44C266.377 72.44 273.865 65.624 276.265 57.464L265.609 54.296ZM14.0588 130.944V111.456H24.5228C31.1468 111.456 35.1788 115.2 35.1788 121.248C35.1788 127.104 31.1468 130.944 24.5228 130.944H14.0588ZM26.1548 142.368C39.5948 142.368 48.5228 133.536 48.5228 121.152C48.5228 108.864 39.5948 99.936 26.1548 99.936H0.714751V168H13.9628V142.368H26.1548ZM83.7285 120.576C82.7685 120.48 81.8085 120.384 80.7525 120.384C76.7205 120.384 70.1925 121.536 67.3125 127.776V120.768H54.9285V168H67.6965V146.4C67.6965 136.224 73.3605 133.056 79.8885 133.056C81.0405 133.056 82.2885 133.152 83.7285 133.44V120.576ZM111.537 157.824C105.297 157.824 99.537 153.216 99.537 144.384C99.537 135.456 105.297 130.944 111.537 130.944C117.777 130.944 123.537 135.456 123.537 144.384C123.537 153.312 117.777 157.824 111.537 157.824ZM111.537 119.328C97.425 119.328 86.769 129.792 86.769 144.384C86.769 158.88 97.425 169.44 111.537 169.44C125.649 169.44 136.305 158.88 136.305 144.384C136.305 129.792 125.649 119.328 111.537 119.328ZM144.464 170.88C144.464 174.336 143.024 176.448 139.184 176.448C137.36 176.448 136.112 176.16 135.248 175.968V186.624C135.92 186.912 138.704 187.68 142.448 187.68C151.568 187.68 157.232 181.248 157.232 172.128V120.768H144.464V170.88ZM142.928 105.216C142.928 109.536 146.48 112.992 150.8 112.992C155.216 112.992 158.672 109.536 158.672 105.216C158.672 100.8 155.216 97.248 150.8 97.248C146.48 97.248 142.928 100.8 142.928 105.216ZM178.293 139.008C178.581 134.688 182.229 129.696 188.853 129.696C196.149 129.696 199.221 134.304 199.413 139.008H178.293ZM200.661 151.296C199.125 155.52 195.861 158.496 189.909 158.496C183.573 158.496 178.293 153.984 178.005 147.744H211.797C211.797 147.552 211.989 145.632 211.989 143.808C211.989 128.64 203.253 119.328 188.661 119.328C176.565 119.328 165.429 129.12 165.429 144.192C165.429 160.128 176.853 169.44 189.813 169.44C201.429 169.44 208.917 162.624 211.317 154.464L200.661 151.296ZM241.339 131.136C247.675 131.136 250.651 135.168 251.803 139.104L263.227 135.264C261.211 127.296 253.915 119.328 241.051 119.328C227.323 119.328 216.571 129.792 216.571 144.384C216.571 158.88 227.515 169.44 241.435 169.44C254.011 169.44 261.403 161.376 263.515 153.504L252.283 149.76C251.227 153.408 247.963 157.728 241.435 157.728C234.907 157.728 229.339 152.928 229.339 144.384C229.339 135.84 234.811 131.136 241.339 131.136ZM286.729 106.656H275.209V113.28C275.209 117.504 272.905 120.768 267.913 120.768H265.513V132.096H274.057V154.08C274.057 163.2 279.817 168.672 289.033 168.672C292.777 168.672 295.081 168 296.233 167.52V156.96C295.561 157.152 293.833 157.344 292.297 157.344C288.649 157.344 286.729 156 286.729 151.872V132.096H296.233V120.768H286.729V106.656Z" fill="black"/>
</svg>
