<svg width="36px" height="30px" version="1.1" viewBox="0 0 36 30" xmlns="http://www.w3.org/2000/svg" xmlns:xlink="http://www.w3.org/1999/xlink">
  <path d="M24.553168,1.00112538 C24.6869803,0.9934269 24.8377258,1.02506273 24.9968754,1.10107038 L26.0660323,1.61165253 L25.0275381,1.11680179 C24.8778077,1.04545405 24.7159477,1.00790731 24.553168,1.00112538 L24.553168,1.00112538 Z M24.0308286,24.9960601 L34.0062491,29.7603465 C35.1073527,30.2860541 36,29.9180588 36,28.9382713 L36,6.50895833 C36,6.49222699 35.998221,6.47573691 35.9947983,6.45969612 C35.9914996,6.47061737 35.9866022,6.48131582 35.9800213,6.49150721 L24.0308286,24.9960601 L24.0308286,24.9960601 Z" fill-opacity="0.28"></path>
  <path d="M12.0939236,19.1229699 L12,19.2684268 L22.8777715,24.4517715 L12.1491499,19.2106494 L12.0939236,19.1229699 L12.0939236,19.1229699 Z M16.2471914,12.6909186 L23.4428003,1.54727771 C23.764851,1.04845142 24.4779141,0.854901558 25.0275381,1.11680179 L35.9255417,6.30978722 C35.9962273,6.3433052 36.0213983,6.42742873 35.9800213,6.49150721 L24.0282844,25 L23.9878709,24.9807426 L16.2471914,12.6909186 L16.2471914,12.6909186 Z" fill-opacity="0.55"></path>
  <path d="M1.78645093,1.127037 C1.83515997,1.14765479 1.88596406,1.17085254 1.93881568,1.19668121 L6.66069372,3.50340242 L1.78645093,1.127037 Z M12,18.973853 L12.1491499,19.2106494 L24,25 L12.174629,6.22493896 C12.1579827,6.19838535 12.1338624,6.17714246 12.1053258,6.16320182 L11.9635138,6.09392413 C11.9864251,6.11471382 12,6.1437837 12,6.17498779 L12,18.973853 Z" fill-opacity="0.77"></path>
  <path d="M10.3385409,29.8313781 L0.996875448,25.363985 C0.448559553,25.1017778 0,24.407603 0,23.8213378 L0,1.92061678 C0,1.13892991 0.868269966,0.686047265 1.59924316,1.0357666 L11.9353304,6.07497398 C11.9748889,6.09405557 12,6.13254772 12,6.17498779 L12,28.8493347 C12,29.8264432 11.2521714,30.2682806 10.3385409,29.8313781 Z"></path>
</svg>