<?xml version="1.0" encoding="utf-8"?>
<!-- Generator: Adobe Illustrator 18.1.1, SVG Export Plug-In . SVG Version: 6.00 Build 0)  -->
<!DOCTYPE svg PUBLIC "-//W3C//DTD SVG 1.1//EN" "http://www.w3.org/Graphics/SVG/1.1/DTD/svg11.dtd">
<svg version="1.1" id="Layer_1" xmlns="http://www.w3.org/2000/svg" xmlns:xlink="http://www.w3.org/1999/xlink" x="0px" y="0px"
	 viewBox="0 0 40 40" enable-background="new 0 0 40 40" xml:space="preserve">
<path d="M39.2,2.8l-2.1-2.1C36.7,0.3,36,0,35.3,0c-0.7,0-1.4,0.3-1.9,0.8L19.2,15.1l1.7,1.7l8.9-8.9l2.5,2.5
	l-8.9,8.9l1.7,1.7L39.2,6.5C39.7,6.1,40,5.4,40,4.7C40,4,39.7,3.3,39.2,2.8z M33.5,8.9l-2.5-2.5l1.4-1.4l2.5,2.5L33.5,8.9z
	 M37.6,4.9l-1.3,1.3l-2.5-2.5l1.3-1.3c0.1-0.1,0.1-0.1,0.2-0.1c0.1,0,0.1,0,0.2,0.1l2.1,2.1C37.7,4.6,37.7,4.8,37.6,4.9z M10.1,32.4
	H9.4l-0.5-1.3l-1.3-0.5v-0.7l9.1-9.1l-1.7-1.7L4.8,29.4l-0.2,0.2L0,40l10.5-4.7l10.4-10.4l-1.7-1.7L10.1,32.4z M8.1,33.9l-4.3,2.4
	l2.4-4.3c0,0,0.1,0.1,0.1,0.1c0,0,0.1,0.1,0.1,0.1c0,0,0.1,0,0.1,0.1l1,0.4l0.4,1c0,0.1,0,0.1,0.1,0.2c0,0,0,0,0,0.1
	C8,33.8,8,33.9,8.1,33.9L8.1,33.9z"/>
<path d="M0,4.7c0,0.7,0.3,1.4,0.8,1.9l28.8,28.8L40,40l-4.7-10.5l-0.2-0.2L6.6,0.8C6.1,0.3,5.4,0,4.7,0
	C4,0,3.3,0.3,2.8,0.8L0.8,2.8C0.3,3.3,0,4,0,4.7z M31.9,33.9c0,0,0.1-0.1,0.1-0.1c0,0,0,0,0-0.1c0-0.1,0.1-0.1,0.1-0.2l0.4-1l1-0.4
	c0,0,0.1,0,0.1-0.1c0,0,0.1,0,0.1-0.1c0,0,0.1,0,0.1-0.1l2.4,4.3L31.9,33.9L31.9,33.9z M7.8,10.2l2.5-2.5l22.1,22.1v0.7l-1.3,0.5
	l-0.5,1.3h-0.7L7.8,10.2z M5.1,7.6l2.5-2.5l1.4,1.4L6.5,8.9L5.1,7.6z M2.4,4.5l2.1-2.1c0.1-0.1,0.1-0.1,0.2-0.1c0.1,0,0.1,0,0.2,0.1
	l1.3,1.3L3.8,6.2L2.4,4.9C2.3,4.8,2.3,4.6,2.4,4.5z"/>
</svg>
