<svg width="16" height="10" viewBox="0 0 16 10" fill="none" xmlns="http://www.w3.org/2000/svg">
<path d="M6.91514 1.00881C7.20289 1.42643 7.34956 1.92511 7.33373 2.43202C7.3604 2.92471 7.21215 3.41099 6.91514 3.805C6.7162 4.02836 6.47415 4.20919 6.20353 4.33661C6.6455 4.48781 7.02419 4.78251 7.27931 5.1738C7.53096 5.58352 7.65752 6.05778 7.64349 6.53841C7.65108 7.06386 7.50564 7.58018 7.2249 8.02441C7.03968 8.33348 6.79155 8.60015 6.4966 8.80711C6.20166 9.01408 5.86649 9.15672 5.51286 9.22577C5.08018 9.3125 4.63975 9.35458 4.19848 9.35135H0V0H4.49986C5.63564 0.0167437 6.44074 0.353013 6.91514 1.00881ZM1.85855 1.61577V3.67105H4.12313C4.46589 3.68553 4.80608 3.60591 5.10682 3.44083C5.24032 3.34922 5.34607 3.22267 5.41251 3.07503C5.47895 2.92738 5.50352 2.76431 5.48355 2.60364C5.50379 2.42552 5.46631 2.24561 5.37664 2.09038C5.28697 1.93515 5.14984 1.8128 4.98543 1.74134C4.62857 1.63436 4.25695 1.5849 3.88453 1.59484L1.85855 1.61577ZM1.85855 5.21147V7.70628H4.11895C4.44105 7.72135 4.76254 7.66563 5.06078 7.54303C5.26729 7.43236 5.43589 7.26234 5.54483 7.05492C5.65376 6.84749 5.69803 6.61218 5.67192 6.37934C5.68955 6.17143 5.64173 5.9632 5.53514 5.78381C5.42856 5.60442 5.26856 5.46285 5.07752 5.37891C4.78336 5.25547 4.46726 5.19282 4.14825 5.19473L1.85855 5.21147ZM13.2694 2.56597C13.7554 2.78534 14.1681 3.13989 14.4582 3.58733C14.748 4.01324 14.9356 4.50028 15.0065 5.01055C15.0627 5.46451 15.0837 5.92214 15.0693 6.37934H10.0462C10.0334 6.66261 10.0928 6.94449 10.2187 7.19855C10.3446 7.4526 10.533 7.67052 10.7662 7.83186C11.0653 8.0114 11.4096 8.10146 11.7582 8.09138C12.1184 8.10839 12.4728 7.99715 12.7587 7.77744C12.9172 7.64239 13.0455 7.47553 13.1354 7.28769H14.973C14.8917 7.76685 14.6583 8.20714 14.3075 8.54346C13.9735 8.88685 13.5698 9.15459 13.1235 9.32862C12.6772 9.50265 12.1988 9.57891 11.7206 9.55227C10.8393 9.56733 9.98101 9.27086 9.29693 8.71509C8.59369 8.15696 8.24347 7.23746 8.24626 5.95656C8.24626 4.76218 8.5616 3.84547 9.19228 3.20641C9.51616 2.89043 9.90115 2.64392 10.3237 2.48196C10.7462 2.32001 11.1973 2.24604 11.6494 2.26458C12.2047 2.24895 12.7569 2.35169 13.2694 2.56597ZM10.5778 4.12313C10.307 4.41972 10.1383 4.79527 10.0964 5.19473H13.1982C13.1958 4.99018 13.1519 4.78825 13.0692 4.60117C12.9864 4.4141 12.8665 4.24577 12.7168 4.10639C12.419 3.85499 12.039 3.72233 11.6494 3.73384C11.4529 3.72103 11.256 3.749 11.0708 3.81599C10.8857 3.88299 10.7164 3.98756 10.5736 4.12313H10.5778ZM13.621 0.43115H9.62761V1.59484H13.6168L13.621 0.43115Z" fill="white"/>
</svg>
