<svg width="16" height="9" viewBox="0 0 16 9" fill="none" xmlns="http://www.w3.org/2000/svg">
<path d="M5.74936 2.62855C9.35011 1.58883 12.3387 3.71327 12.3387 3.71327L9.86772 4.39742L9.15657 3.04714C8.41392 2.90499 7.65194 2.89585 6.9061 3.02013L8.58945 6.45885L15.8585 4.35241C15.8585 4.35241 13.2209 0.184539 5.35777 1.53032L5.22725 1.55732L4.46209 0L2.21162 0.256553L3.12531 2.17845C-1.64569 4.16337 0.465255 8.83984 0.465255 8.83984L7.74777 6.7334L5.74936 2.62855ZM2.44117 6.40034C2.44117 6.40034 1.73902 4.84301 3.79145 3.50623L4.87617 5.7567L2.44117 6.40034Z" fill="white"/>
</svg>
