<svg width="15" height="15" viewBox="0 0 15 15" fill="none" xmlns="http://www.w3.org/2000/svg">
<path fill-rule="evenodd" clip-rule="evenodd" d="M14.8346 5.98972C14.6384 5.03052 14.2562 4.11902 13.7097 3.30668C13.4398 2.90924 13.1329 2.53818 12.7931 2.19847C11.7584 1.15809 10.4395 0.446454 9.00188 0.152858C7.54679 -0.145512 6.03587 -0.00505094 4.66072 0.556432C3.28557 1.11792 2.10813 2.07513 1.27773 3.30668C1.00753 3.70819 0.777295 4.13517 0.590301 4.58154C0.200717 5.50447 0 6.4961 0 7.49789C0 8.49967 0.200717 9.49131 0.590301 10.4142C0.778622 10.8608 1.01026 11.2878 1.28189 11.6891C1.96766 12.7066 2.89263 13.5403 3.97566 14.117C5.05869 14.6938 6.26669 14.996 7.49371 14.9971C9.48135 14.9964 11.3874 14.2067 12.7931 12.8015C13.1328 12.4617 13.4397 12.0906 13.7097 11.6933C14.2674 10.8653 14.6541 9.93433 14.8473 8.95493C15.0405 7.97553 15.0361 6.96742 14.8346 5.98972ZM13.893 7.4354C12.4262 7.14088 10.9231 7.07065 9.43517 7.22708L9.29768 6.89796C9.16436 6.58549 9.02271 6.27302 8.88106 5.96889C11.4058 4.93567 12.4348 3.46916 12.4432 3.43583C13.3702 4.56365 13.882 5.97551 13.893 7.4354ZM11.7224 2.69008C11.7224 2.71508 10.7934 4.10243 8.38945 5.01066C7.679 3.70758 6.87999 2.45478 5.99804 1.26107C6.99767 1.01765 8.04131 1.01932 9.04015 1.26595C10.039 1.51258 10.9635 1.99686 11.7349 2.67758L11.7224 2.69008ZM4.76484 1.69436C5.62731 2.8878 6.42021 4.13 7.13959 5.41478C5.21442 5.91592 3.23371 6.17208 1.2444 6.1772C1.44756 5.21138 1.87094 4.3055 2.48157 3.53012C3.09219 2.75473 3.87357 2.13078 4.76484 1.70686V1.69436ZM1.09441 7.49789C1.09441 7.43123 1.09441 7.36457 1.09441 7.29791C3.31657 7.30592 5.52864 6.99873 7.66453 6.38551C7.84784 6.74381 8.02282 7.11043 8.1853 7.47289L7.93117 7.54788C4.48154 8.66443 2.73173 11.7724 2.73173 11.7724C1.67624 10.599 1.09292 9.07616 1.09441 7.49789ZM7.49371 13.9014C6.00458 13.904 4.56153 13.3851 3.41499 12.4348L3.56081 12.5473C3.56081 12.5473 4.78568 9.86846 8.58109 8.54777H8.62276C9.23233 10.1157 9.6913 11.7382 9.99344 13.3931C9.20299 13.7293 8.3527 13.9022 7.49371 13.9014ZM11.0683 12.8098C10.7832 11.2493 10.3651 9.71613 9.81846 8.22698C11.1519 8.02845 12.5127 8.12372 13.8055 8.50611C13.6685 9.37272 13.3548 10.2019 12.8839 10.9422C12.413 11.6826 11.7951 12.3182 11.0683 12.8098Z" fill="white"/>
</svg>
