<svg width="11" height="11" viewBox="0 0 11 11" fill="none" xmlns="http://www.w3.org/2000/svg">
<path fill-rule="evenodd" clip-rule="evenodd" d="M3.93799 1.12063C3.93799 0.971438 3.95311 0.882062 4.20749 0.882062H7.62986C8.22799 0.882062 8.55661 1.39081 8.79517 2.34644L8.98974 3.10956H9.57273C9.67724 0.941875 9.7673 0 9.7673 0C9.7673 0 8.30292 0.165 7.4353 0.165H3.05592L0.711548 0.089375V0.717062L1.50217 0.866938C2.05561 0.976938 2.18967 1.09381 2.23505 1.60256C2.23505 1.60256 2.28317 3.10131 2.28317 5.56256C2.28317 8.03069 2.24192 9.50881 2.24192 9.50881C2.24192 9.95569 2.06317 10.1207 1.51317 10.2307L0.722548 10.3819V11.0007L3.0738 10.9251H6.99255C7.87942 10.9251 9.9213 11.0007 9.9213 11.0007C9.96942 10.4644 10.265 8.03069 10.3132 7.76256H9.76317L9.1788 9.09631C8.71817 10.1413 8.04442 10.2169 7.29505 10.2169H5.04624C4.29892 10.2169 3.93936 9.92131 3.93936 9.27506V5.86437C3.93936 5.86437 5.59899 5.86438 6.1373 5.90906C6.55667 5.93863 6.80967 6.05825 6.94442 6.64125L7.12317 7.41813H7.76942L7.72817 5.46012L7.81755 3.487H7.17817L6.97192 4.35325C6.8413 4.9225 6.75192 5.027 6.16755 5.08681C5.40442 5.16244 3.96067 5.14869 3.96067 5.14869V1.12063H3.93799Z" fill="white"/>
</svg>
