<svg width="15" height="15" viewBox="0 0 15 15" fill="none" xmlns="http://www.w3.org/2000/svg">
<path d="M7.50006 0C3.35844 0 0 3.44278 0 7.68987C0 11.0875 2.149 13.97 5.129 14.9868C5.50384 15.058 5.64144 14.82 5.64144 14.6168C5.64144 14.4335 5.6345 13.8277 5.63125 13.1852C3.54472 13.6503 3.10445 12.2778 3.10445 12.2778C2.76328 11.389 2.2717 11.1527 2.2717 11.1527C1.59123 10.6754 2.323 10.6852 2.323 10.6852C3.07613 10.7394 3.47269 11.4777 3.47269 11.4777C4.14162 12.6532 5.22725 12.3134 5.65522 12.1169C5.72253 11.6199 5.91691 11.2807 6.13141 11.0886C4.46553 10.8942 2.71434 10.2348 2.71434 7.28825C2.71434 6.44869 3.00733 5.76269 3.48709 5.22419C3.40922 5.0305 3.1525 4.24834 3.55975 3.18913C3.55975 3.18913 4.18956 2.98246 5.62281 3.97738C6.22106 3.807 6.86269 3.72153 7.50006 3.71863C8.13744 3.72153 8.77956 3.807 9.37894 3.97738C10.8104 2.98246 11.4394 3.18913 11.4394 3.18913C11.8476 4.24834 11.5908 5.0305 11.5129 5.22419C11.9938 5.76269 12.2848 6.44869 12.2848 7.28825C12.2848 10.2418 10.5303 10.8921 8.86016 11.0825C9.12916 11.3211 9.36888 11.7891 9.36888 12.5066C9.36888 13.5355 9.36019 14.3636 9.36019 14.6168C9.36019 14.8215 9.49519 15.0613 9.87534 14.9858C12.8538 13.9678 15 11.0863 15 7.68987C15 3.44278 11.6421 0 7.50006 0Z" fill="white"/>
<path d="M2.86272 10.9885C2.84623 11.0263 2.78772 11.0376 2.73441 11.0117C2.68012 10.9868 2.64962 10.9353 2.66722 10.8973C2.68334 10.8584 2.74198 10.8475 2.79615 10.8736C2.85057 10.8985 2.88156 10.9505 2.86272 10.9885Z" fill="white"/>
<path d="M3.16595 11.3322C3.13023 11.3659 3.06044 11.3503 3.01309 11.297C2.96412 11.244 2.95495 11.173 2.99114 11.1388C3.02796 11.1051 3.09565 11.1209 3.14473 11.174C3.1937 11.2277 3.20326 11.2982 3.16595 11.3322Z" fill="white"/>
<path d="M3.46115 11.7712C3.41527 11.8036 3.34027 11.7732 3.29393 11.7055C3.24805 11.6378 3.24805 11.5566 3.2949 11.5241C3.3414 11.4915 3.41527 11.5208 3.46227 11.588C3.50802 11.6568 3.50802 11.738 3.46115 11.7712Z" fill="white"/>
<path d="M3.86548 12.1946C3.82445 12.2407 3.73707 12.2283 3.6731 12.1655C3.60763 12.1041 3.58942 12.017 3.63057 11.971C3.6721 11.9248 3.75998 11.9378 3.82445 12.0001C3.88942 12.0614 3.90926 12.1491 3.86548 12.1946Z" fill="white"/>
<path d="M4.42336 12.4407C4.40526 12.5004 4.32111 12.5275 4.2363 12.5021C4.15164 12.476 4.09623 12.4062 4.11333 12.3459C4.13092 12.2859 4.21548 12.2576 4.30089 12.2847C4.38542 12.3107 4.44098 12.3801 4.42336 12.4407Z" fill="white"/>
<path d="M5.03604 12.4861C5.03814 12.5489 4.96626 12.601 4.87723 12.6021C4.78773 12.6041 4.71532 12.5533 4.71436 12.4915C4.71436 12.4281 4.78464 12.3765 4.87414 12.375C4.96314 12.3733 5.03604 12.4237 5.03604 12.4861Z" fill="white"/>
<path d="M5.60628 12.3869C5.61694 12.4481 5.55509 12.511 5.46669 12.5278C5.37978 12.544 5.29934 12.5061 5.28831 12.4454C5.27753 12.3826 5.3405 12.3196 5.42728 12.3034C5.51578 12.2878 5.595 12.3246 5.60628 12.3869Z" fill="white"/>
</svg>
