<svg width="15" height="15" viewBox="0 0 15 15" fill="none" xmlns="http://www.w3.org/2000/svg">
<path fill-rule="evenodd" clip-rule="evenodd" d="M7.5007 0C5.46381 0 5.20817 0.00890629 4.40818 0.045293C3.60973 0.0818555 3.06475 0.208242 2.58785 0.39375C2.09455 0.585293 1.67613 0.841523 1.25924 1.25859C0.842051 1.67543 0.585762 2.09391 0.393575 2.58703C0.207657 3.06404 0.0810936 3.6092 0.0451757 4.40736C0.00937488 5.20734 0 5.46316 0 7.50006C0 9.53695 0.00908207 9.79178 0.045293 10.5918C0.0820313 11.3903 0.208418 11.9353 0.39375 12.4121C0.585469 12.9054 0.841699 13.3239 1.25877 13.7408C1.67549 14.1579 2.09391 14.4148 2.58691 14.6064C3.0641 14.7918 3.60926 14.9183 4.40754 14.9548C5.20758 14.9912 5.46305 15.0001 7.49977 15.0001C9.53684 15.0001 9.79166 14.9912 10.5917 14.9548C11.3901 14.9183 11.9357 14.7918 12.413 14.6064C12.9061 14.4148 13.3239 14.1579 13.7406 13.7408C14.1578 13.3239 14.4141 12.9054 14.6062 12.4123C14.7906 11.9353 14.9172 11.3901 14.9547 10.5919C14.9906 9.79195 15 9.53695 15 7.50006C15 5.46316 14.9906 5.20752 14.9547 4.40754C14.9172 3.60908 14.7906 3.06404 14.6062 2.58721C14.4141 2.09391 14.1578 1.67543 13.7406 1.25859C13.3234 0.841406 12.9062 0.585117 12.4125 0.39375C11.9343 0.208242 11.389 0.0818555 10.5906 0.045293C9.79055 0.00890629 9.5359 0 7.49836 0H7.5007ZM7.25057 1.35147H7.25074L7.5007 1.35152C9.5032 1.35152 9.74057 1.35873 10.5313 1.39465C11.2626 1.42811 11.6595 1.55027 11.9239 1.65293C12.2739 1.78887 12.5234 1.95141 12.7857 2.21391C13.0482 2.47641 13.2108 2.72643 13.347 3.07641C13.4497 3.34049 13.572 3.73734 13.6053 4.46859C13.6412 5.25926 13.6491 5.49674 13.6491 7.49836C13.6491 9.49992 13.6412 9.7374 13.6053 10.5281C13.5718 11.2593 13.4497 11.6562 13.347 11.9203C13.2111 12.2702 13.0482 12.5195 12.7857 12.7818C12.5232 13.0443 12.274 13.2069 11.9239 13.3428C11.6598 13.4459 11.2626 13.5678 10.5313 13.6012C9.74074 13.6372 9.5032 13.645 7.5007 13.645C5.49803 13.645 5.26066 13.6372 4.47006 13.6012C3.73881 13.5674 3.3419 13.4453 3.0774 13.3426C2.72736 13.2067 2.47734 13.0441 2.21484 12.7816C1.95234 12.5191 1.78986 12.2698 1.65363 11.9196C1.55098 11.6556 1.42863 11.2587 1.39535 10.5274C1.35938 9.73682 1.35223 9.49928 1.35223 7.49648C1.35223 5.49363 1.35938 5.25738 1.39535 4.46672C1.42875 3.73547 1.55098 3.33861 1.65363 3.07424C1.78957 2.7242 1.95234 2.47424 2.21484 2.21174C2.47734 1.94924 2.72736 1.7867 3.0774 1.65047C3.34178 1.54734 3.73881 1.42547 4.47006 1.39184C5.16193 1.36061 5.43006 1.35123 6.82787 1.34965V1.35152C6.95848 1.35135 7.09899 1.35141 7.25057 1.35147ZM10.6042 3.49658C10.6042 2.99953 11.0073 2.59688 11.5042 2.59688V2.59658C12.0011 2.59658 12.4042 2.99971 12.4042 3.49658C12.4042 3.99346 12.0011 4.39658 11.5042 4.39658C11.0073 4.39658 10.6042 3.99346 10.6042 3.49658ZM7.50053 3.64846C5.37357 3.64852 3.6491 5.37305 3.6491 7.50006C3.6491 9.62713 5.37363 11.3509 7.5007 11.3509C9.62777 11.3509 11.3517 9.62713 11.3517 7.50006C11.3517 5.37299 9.6276 3.64846 7.50053 3.64846ZM10.0007 7.50006C10.0007 6.11924 8.88135 5.00004 7.5007 5.00004C6.11988 5.00004 5.00068 6.11924 5.00068 7.50006C5.00068 8.8807 6.11988 10.0001 7.5007 10.0001C8.88135 10.0001 10.0007 8.8807 10.0007 7.50006Z" fill="white"/>
</svg>
