<svg width="12" height="12" viewBox="0 0 12 12" fill="none" xmlns="http://www.w3.org/2000/svg">
<path d="M2.64334 11.0341H0.310005V3.54076H2.64334V11.0341ZM1.41334 2.60409H1.39667C1.218 2.61742 1.0385 2.59366 0.869449 2.53432C0.700393 2.47498 0.545429 2.38134 0.414282 2.25927C0.283134 2.1372 0.178635 1.98934 0.107344 1.82497C0.036053 1.66059 -0.000491084 1.48326 4.98345e-06 1.30409C4.98345e-06 0.564092 0.563338 0.00409261 1.43 0.00409261C1.60953 -0.0101492 1.79005 0.0128711 1.96025 0.0717087C2.13046 0.130546 2.28666 0.223931 2.41906 0.346001C2.55146 0.468071 2.6572 0.616192 2.72963 0.781066C2.80207 0.94594 2.83965 1.12401 2.84 1.30409C2.84 2.03076 2.29 2.60409 1.41334 2.60409ZM12 11.0341H9.33333V7.15742C9.33333 6.15742 8.92 5.45076 8 5.45076C7.71925 5.45073 7.44565 5.53934 7.2182 5.70393C6.99076 5.86853 6.82107 6.10073 6.73334 6.36742C6.67759 6.56563 6.65839 6.77234 6.67667 6.97742V11.0341H4.07C4.07 11.0341 4.10334 4.16742 4.07 3.54409H6.69667V4.73076C6.85334 4.21742 7.69667 3.48409 9.03 3.48409C10.6967 3.48409 12 4.56076 12 6.88076V11.0341Z" fill="white"/>
</svg>
