<svg width="12" height="10" viewBox="0 0 12 10" fill="none" xmlns="http://www.w3.org/2000/svg">
<path d="M1.42297 1.95836C1.43786 1.80993 1.38169 1.66324 1.2717 1.56332L0.15126 0.203188V0H3.63026L6.31931 5.94284L8.68346 0H12V0.203188L11.042 1.12874C10.9594 1.19217 10.9185 1.29644 10.9356 1.39964V8.20036C10.9185 8.30356 10.9594 8.40783 11.042 8.47126L11.9776 9.39681V9.6H7.2717V9.39681L8.24089 8.44867C8.33614 8.35274 8.33614 8.32453 8.33614 8.17776V2.68076L5.64146 9.57744H5.2773L2.14005 2.68076V7.30302C2.11391 7.49734 2.17796 7.69296 2.31371 7.83353L3.57424 9.37425V9.57744H0V9.37425L1.26049 7.83353C1.3953 7.69274 1.4556 7.49579 1.42297 7.30302V1.95836Z" fill="white"/>
</svg>
