<svg width="13" height="15" viewBox="0 0 13 15" fill="none" xmlns="http://www.w3.org/2000/svg">
<path d="M6.52342 0.99707C5.02495 0.997623 3.57232 1.51385 2.40955 2.45904C1.24678 3.40423 0.444711 4.72079 0.13809 6.18756C-0.168532 7.65432 0.0389702 9.18193 0.725739 10.5138C1.41251 11.8456 2.5367 12.9005 3.90947 13.5013C3.88124 12.9994 3.91902 12.496 4.02186 12.004L4.85934 8.44738C4.71892 8.12121 4.64852 7.76921 4.65269 7.41413C4.65269 6.44613 5.21101 5.72466 5.90709 5.72466C6.03155 5.72324 6.15487 5.74842 6.2688 5.79853C6.38273 5.84863 6.48464 5.92249 6.56771 6.01518C6.65078 6.10786 6.71309 6.21722 6.75047 6.33593C6.78785 6.45465 6.79944 6.57998 6.78445 6.70354C6.78445 7.30174 6.42191 8.1936 6.20801 9.0202C6.16814 9.17444 6.1654 9.33594 6.20002 9.49145C6.23463 9.64695 6.30562 9.79203 6.40716 9.9148C6.50869 10.0376 6.63788 10.1345 6.78414 10.1977C6.93039 10.2609 7.08953 10.2885 7.24851 10.2782C8.48117 10.2782 9.31502 8.69028 9.31502 6.80867C9.30415 5.3875 8.33615 4.29986 6.59593 4.29986C6.17743 4.28358 5.76001 4.35267 5.36908 4.50294C4.97815 4.6532 4.6219 4.88148 4.32205 5.17387C4.0222 5.46626 3.78501 5.81664 3.62495 6.20365C3.46489 6.59067 3.3853 7.00623 3.39103 7.425C3.37119 7.88972 3.52352 8.34542 3.81883 8.70479C3.87076 8.74756 3.90784 8.80565 3.92477 8.87077C3.9417 8.93588 3.93761 9.00468 3.91309 9.06733C3.88046 9.18697 3.81158 9.47701 3.77895 9.5894C3.77326 9.62457 3.75928 9.65789 3.73818 9.6866C3.71708 9.71531 3.68946 9.7386 3.65759 9.75453C3.62572 9.77046 3.59051 9.77859 3.55488 9.77825C3.51925 9.7779 3.48422 9.76909 3.45266 9.75254C2.54267 9.39 2.11849 8.38212 2.11849 7.25823C2.11849 5.40562 3.67744 3.17959 6.77358 3.17959C9.26064 3.17959 10.8957 4.99232 10.8957 6.91744C10.8957 9.47701 9.47454 11.3912 7.38265 11.3912C7.07282 11.3997 6.76576 11.3309 6.48917 11.191C6.21257 11.0511 5.97516 10.8446 5.79833 10.59C5.79833 10.59 5.43579 12.0946 5.34152 12.4028C5.18994 12.8967 4.969 13.3667 4.68532 13.7986C5.58086 14.0538 6.52066 14.1145 7.44158 13.9764C8.3625 13.8384 9.24321 13.5048 10.0245 12.9982C10.8059 12.4916 11.4697 11.8236 11.9715 11.0392C12.4733 10.2547 12.8014 9.37196 12.9338 8.4502C13.0661 7.52845 12.9997 6.58904 12.7389 5.6951C12.4781 4.80115 12.029 3.97337 11.4218 3.26737C10.8145 2.56137 10.0632 1.9935 9.21837 1.60192C8.3735 1.21033 7.4546 1.0041 6.52342 0.99707Z" fill="white"/>
</svg>
