<svg width="8" height="13" viewBox="0 0 8 13" fill="none" xmlns="http://www.w3.org/2000/svg">
<path d="M4.49414 0V3.28959H7.57439V5.33202H4.49414V8.67584C4.46711 9.16102 4.50717 9.64762 4.61317 10.1218C4.69615 10.341 4.85484 10.5232 5.06041 10.6351C5.35819 10.8118 5.69913 10.9019 6.04509 10.8954C6.74579 10.8789 7.42596 10.655 8 10.2519V12.2908C7.51755 12.5252 7.01234 12.7093 6.49234 12.8402C6.01908 12.9484 5.535 13.0018 5.04959 12.9993C4.51688 13.0082 3.98612 12.9326 3.47701 12.7752C3.04736 12.6456 2.64768 12.4318 2.30117 12.1462C2.00898 11.9086 1.77876 11.6034 1.6303 11.2569C1.48634 10.8177 1.42279 10.356 1.44274 9.89407V5.33202H0V3.49202C0.480806 3.33989 0.926951 3.09421 1.31289 2.76904C1.67675 2.4593 1.97481 2.07944 2.18936 1.65202C2.43667 1.13197 2.59284 0.573142 2.65104 0H4.49414Z" fill="white"/>
</svg>
