<svg width="16" height="13" viewBox="0 0 16 13" fill="none" xmlns="http://www.w3.org/2000/svg">
<path d="M15.0693 1.44569C14.5052 1.69499 13.907 1.85865 13.2945 1.93125C13.9392 1.54578 14.4213 0.938635 14.6507 0.223399C14.044 0.58365 13.38 0.837089 12.6875 0.972678C12.2631 0.521932 11.7131 0.208931 11.1088 0.0741669C10.5045 -0.0605969 9.87366 -0.010921 9.2979 0.216768C8.72215 0.444456 8.22796 0.83968 7.87928 1.35131C7.5306 1.86294 7.34347 2.46742 7.3421 3.08657C7.34121 3.32327 7.3679 3.55928 7.42164 3.7898C6.19227 3.72819 4.98954 3.40908 3.89134 2.85313C2.79313 2.29717 1.82393 1.51677 1.04648 0.562458C0.652065 1.24347 0.531648 2.04908 0.709687 2.81565C0.887726 3.58223 1.35087 4.2523 2.00506 4.68977C1.51369 4.6745 1.03302 4.5425 0.602773 4.30467V4.34234C0.603192 5.05637 0.850606 5.74826 1.30304 6.30064C1.75548 6.85302 2.38508 7.23188 3.08502 7.37295C2.8192 7.4464 2.54455 7.48302 2.26877 7.48178C2.06933 7.48306 1.87025 7.46483 1.67437 7.42737C1.87108 8.0422 2.25545 8.57996 2.77349 8.96511C3.29154 9.35027 3.91722 9.56346 4.56265 9.57474C3.2687 10.5837 1.63003 11.0438 0 10.8556C1.41347 11.7638 3.05836 12.2463 4.73846 12.2454C10.4271 12.2454 13.5289 7.5362 13.5289 3.45493C13.5289 3.32098 13.5289 3.18703 13.5289 3.03634C14.1325 2.60156 14.6541 2.06297 15.0693 1.44569Z" fill="white"/>
</svg>
