<svg width="16" height="13" viewBox="0 0 16 13" fill="none" xmlns="http://www.w3.org/2000/svg">
<path d="M15.0693 3.00821C15.0023 4.47328 13.9782 6.47555 11.9968 9.015C9.94854 11.6717 8.21417 13 6.79375 13C5.9175 13 5.17519 12.1907 4.56684 10.5722L3.34874 6.11416C2.89666 4.49282 2.41249 3.68214 1.89622 3.68214C1.46973 3.85788 1.07186 4.09632 0.715792 4.38956L0 3.48122C0.742303 2.831 1.47484 2.1794 2.19761 1.52639C3.18548 0.68921 3.93058 0.220386 4.4287 0.174341C5.59797 0.0599258 6.31934 0.858041 6.59282 2.56869C6.87188 4.41607 7.0742 5.56441 7.19978 6.0137C7.53745 7.54295 7.9086 8.30758 8.31324 8.30758C8.62579 8.30758 9.09879 7.81365 9.73226 6.82577C10.3643 5.83371 10.6992 5.08024 10.7453 4.56119C10.8346 3.70726 10.4969 3.28029 9.73226 3.28029C9.34919 3.28338 8.97061 3.36308 8.61881 3.51471C9.3639 1.10641 10.7829 -0.0642565 12.8759 0.00271825C14.4219 0.0473681 15.153 1.0492 15.0693 3.00821Z" fill="white"/>
</svg>
