<?xml version="1.0" encoding="utf-8"?>
<!-- Generator: Adobe Illustrator 18.1.1, SVG Export Plug-In . SVG Version: 6.00 Build 0)  -->
<svg version="1.1" id="Layer_1" xmlns="http://www.w3.org/2000/svg" xmlns:xlink="http://www.w3.org/1999/xlink" x="0px" y="0px"
	 viewBox="0 0 72.1 99" enable-background="new 0 0 72.1 99" xml:space="preserve">
<g>
	<g>
		<path fill="#D3C883" d="M0.9,2.3C3.3,43,29.6,80.6,67.2,96.7c1.2,0.5,3-0.7,2.1-2.1c-3.6-5.3-7.2-10.6-10.7-15.9
			c-1.1-1.6-3.7-0.1-2.6,1.5c3.6,5.3,7.2,10.6,10.7,15.9c0.7-0.7,1.4-1.4,2.1-2.1C32.1,78.4,6.3,42.1,3.9,2.3
			C3.7,0.4,0.7,0.4,0.9,2.3L0.9,2.3z"/>
	</g>
</g>
<g>
	<g>
		<path fill="#D3C883" d="M65.3,93.7c-5.2,0.3-10.4,0-15.6-0.9c-1.9-0.3-2.7,2.5-0.8,2.9c5.4,1,10.9,1.4,16.4,1
			C67.2,96.6,67.3,93.6,65.3,93.7L65.3,93.7z"/>
	</g>
</g>
</svg>
