<?xml version="1.0" encoding="utf-8"?>
<!-- Generator: Adobe Illustrator 18.1.1, SVG Export Plug-In . SVG Version: 6.00 Build 0)  -->
<svg version="1.1" id="Layer_1" xmlns="http://www.w3.org/2000/svg" xmlns:xlink="http://www.w3.org/1999/xlink" x="0px" y="0px"
	 viewBox="0 147 960 192" enable-background="new 0 147 960 192" xml:space="preserve">
<g>
	<g>
		<g opacity="0.7">
			<polygon fill="#FFFFFF" points="605.4,334.9 490.3,334.9 482.2,322.7 490.3,310.5 605.4,310.5 613.5,322.7 			"/>
			<g>
				<g>
					<path fill="#FFFFFF" d="M309.4,227.6c-0.9,0.6-1.5-1-0.6-1.6c3.7-2.2,6.1-10,5.3-17.5c-0.2-1.5,3.9-3.7,4.4-1.8
						c0.2,1.6,1.5,5.2,2,6.9c2.7,9.2,21,46.6,29.9,42.9c8.8-3.7-0.5-43.3-6.7-54.2c-1.9-3.2-3.4-4.9-5.2-7.4
						c-0.3-0.4,0.3-2.1,0.6-2.3c2.9-1.2,7.8,6.6,11.4,8.5c1.1,0.6,1.6,0.6,2.2,0.4c0.2-0.1,0.4-0.5,0.7-0.6c0.5-0.2,0.8,0.1,1.1,0.6
						c0.4,1-0.1,2.1-0.7,2.5c-0.5,0.2-1.1,0.2-1.7,0c-1.5-0.3-2.7-0.8-4.1-1.5c7.8,16.3,12.9,53.3,3.2,57.3
						c-10.7,4.5-23.9-19.9-30.8-36.5c1.4,11.2,2.4,20.9,2.6,31.6c0,11.6-1.2,21.9-5.4,26.1c-1.7,1.8-3.6,2.6-5.3,2.6
						c-2.1-0.1-4-1.2-5.6-3.8c-1-1.4-1.1-3.9,0.9-0.8c1,1.5,2.2,2.3,3.7,2.2c1.3,0,3.3-0.6,4.3-1.8c4.2-4.3,5.3-13.6,5.1-24.2
						c-0.4-12.1-2.4-23.9-4.7-36.6C314.8,223.2,312.1,226.2,309.4,227.6z"/>
					<path fill="#FFFFFF" d="M367.7,223.9c-0.1-3.2-0.1-5.9,0.8-6.5c0.9-0.4,2.2-0.4,2.8,0.4c0.8,1,0.5,3.1,0.4,6.4
						c-0.4,6.4-0.8,12.2-0.1,15.3c0.7,4.3,2.8,6.1,4.6,3.8c1.7-2.4,5.2-10.1,6.5-16.6c0.2-0.8,1.2-0.5,1.1,0.5
						c-0.3,3.8-2.8,11.5-5.3,16c-1.6,3-6.1,6.9-9.2,1.5c-1.2-2.1-1.6-7.7-1.4-12.6c-0.3,1.3-0.5,2.9-1.3,5.7
						c-0.4,1.3-1.5,0.2-1.2-1.1c1.2-4.9,2.1-9.1,2.5-11.6C367.8,225,367.7,224.6,367.7,223.9z M370.2,211.5c-1.3,0.4-3,0.9-3.6-1.1
						c-0.1-0.5,2.5-5.5,2.8-6.1c2-4.1,1.2-0.1,1.8,1.8C371.4,207.1,370.9,211.3,370.2,211.5z"/>
					<path fill="#FFFFFF" d="M394.1,242.1c-6.5,3.3-12.8-0.4-12-11.4c0.6-7.2,8.7-22.7,14.6-21.5c1.4,0.3,2.8,1.3,2.9,4
						c0.1,0.6-0.3,4.5-1,3.8c-0.4-0.2-0.5-0.7-0.5-1c-0.1-0.7,0-1.5-0.1-2.1c-0.2-0.9-0.8-1.9-1.5-1.7c-3.7,0.9-10.2,13-10,22.4
						c0.1,7.7,4.4,7.3,8.1,4.8c5.8-4.1,8.3-9.4,10.7-17.6c0.2-0.7,0.7-0.4,0.8-0.4c0.4,0.1,0.4,1.1,0.3,1.5
						C404.1,231.4,400.8,238.8,394.1,242.1z"/>
					<path fill="#FFFFFF" d="M409.6,207c1.4-13.3,5.8-34.6,15.5-33.6c0.6,0,1.2,0.3,1.7,0.5c5.5,2.9,0,15.7-1.5,19.1
						c-3.6,7.5-8.7,14.3-12.4,17.4c-1.1,7.3-1.9,15.6-2.1,18.8l3.4-9.3c-0.3-1.4-0.5-2.6-0.5-3.7c-0.1-1.3,0.7-3.4,1.3-0.9l0.5,1.4
						c1.3-3.2,4.2-9.9,6.4-11.9c3-2.8,6.6,0.5,3.5,3.4c-2,1.9-6.9,6-9.1,10.7c3.9,10.2,6.2,15,12.6,22.7c2.8,3.2,5.6,5.1,7.5,4.8
						c3.6-0.6,0.9-5.8-0.6-8.1c-1.4-2,0.2-1.8,1.3-0.9c0.6,0.7,2.2,3.4,2.5,5.1c0.6,4.1-2.8,6.6-4.6,6.9c-7.2,1.2-16.1-14-19.9-26.9
						c-2.3,7-3.8,13.6-4.7,14.6c-0.6,0.6-4.2,3.6-3.8,1.6c0.3-1.2,1.3-13.3,2.3-22.1c-0.8,1.7-1.7,4-2.8,7.5c-0.3,0.9-1.8,1-1-1.4
						c1.5-3.7,3.3-9.8,4.3-12.7c-2.2-1.2-1.5-4.1-0.2-3.3C409.2,207,409.4,207.1,409.6,207z M423.3,192c0.8-1.9,5.2-14.2,2.9-16
						c-0.7-0.5-1.8,0-3.2,2.1c-5.4,7.9-7.9,16.9-9.9,29C416.9,203.7,420.6,198.5,423.3,192z"/>
					<path fill="#FFFFFF" d="M479.8,181.8c-1.9,2.3-3.4,5.8-2.2,8.3c0.3,0.6-0.4,1.4-1.1,0.3c-0.6-0.9-0.6-5.8,0.6-8.9l0.2-0.5
						c-1.8-2.7-5.8-5.7-9.2-4.6c-7.8,2.5-3.6,20-0.4,25.7c1.4,2.5,1.1,3.1-0.5,3.4c-4.5,0.7-9.2,3.2-11.7,5c-11.4,7.7-7.8,25,6,23.1
						c8.8-1.2,17.5-7.1,20.6-20.9c0.9-3.8,0.7-8.5,0.2-9.9c-2.9,2.3-6.1,4.5-8.8,6.7c-2.6,2.1-9.6,11.2-6.3,14.7c0.8,1,1,2-0.4,1.4
						c-2.1-0.9-2.5-7.6-1-11.8c1.1-2.7,3.2-4.6,6-6.9c7.7-6.2,19.1-11,17.4-16.8c-0.2-0.8,0.4-0.8,0.7,0c1.4,4.6-2,8.4-6.7,12
						c1.2,1.8,3.1,6.4,2.7,10.4c-2.2,15.7-15.6,22-25.1,23c-19,1.9-20.3-22.9-7-29.7c5-2.5,9.9-1.8,12.5-2.3
						c-4.5-5.3-10.6-17.2-6.5-25c2-3.8,9.4-5.7,12.5-4.5c1.8,0.6,4.6,2.8,5.9,5.1c0.9-1.4,1.9-2.7,2.9-2.8c1.2-0.4,2.6,0.8,1.5,2.3
						C482,179.5,480.9,180.4,479.8,181.8z"/>
					<path fill="#FFFFFF" d="M521.6,193.4c-1.1-0.1-0.8-1.7,0.3-1.7c4.3,0.1,10.4-5.2,13.8-11.9c0.5-1.5,5.2-1.1,4.7,0.7
						c-6,12.5-11.5,25.4-18.1,37.4c2.3-2.8,4.9-5.7,8.2-9.1c0.2-1.5,0.4-2.8,0.7-3.9c0.4-1.1,1.7-2.9,1.7-0.3
						c-0.1,0.5-0.1,1-0.1,1.5l0.1-0.3c2.9-3.2,25.9-22.5,28.4-23.6c6.6-2.8,7.1,2.9,3.6,4.5c-1.2,0.5-9.7,5-16.7,9.5
						c-7.5,5-13.6,10.2-15.4,12.2c0.4,10.8,1.2,16.1,4.8,25.4c1.6,4,3.7,6.7,5.6,7c3.6,0.6,2.7-5.3,1.9-7.9
						c-0.7-2.3,0.8-1.6,1.5-0.4c0.4,0.9,1,3.8,0.8,5.6c-0.7,4.1-4.7,5.4-6.6,5.1c-9.2-1.5-10.8-18.3-10.5-31.7
						c-5.3,6.1-10.9,12.7-14.2,17.1c-5.8,8.9-11.9,15.9-17.5,17.3c-2.6,0.7-4.5,0.4-6.2-0.6c-1.9-1.2-2.9-3.3-3.1-6.4
						c-0.1-1.8,1.2-4.1,1.3-0.3c0.2,2.1,0.9,3.4,2.2,4.1c1.1,0.5,3.2,1.2,4.9,0.8c6.1-1.6,12.3-9.2,17.9-18.7
						c6.4-11,11.7-23.2,16.4-35.3C528.5,192.5,524.6,193.5,521.6,193.4z"/>
					<path fill="#FFFFFF" d="M548.4,237.6c-2.9-10.6,17.2-21,23-21.4c2.3-0.2,5.5,0.4,6.9,2.6c0.5,0.9,0.8,2,0.5,3
						c-0.2,0.7-0.2,0.7-0.6,0.4c-0.4-1.9-1.7-2.4-3.1-2.8c-3.7-1-9.7,1.7-14.6,5.2c-2.7,2-11,9.8-9.9,14.7c0.5,2.2,4.9-0.4,6.2-1.2
						c2.4-1.7,6.6-4.6,9.1-6.8c1.4-1.2,8.9-8,9.6-7.9c0.7,0.2,3.3,1.7,2.2,3.1c-3.9,4.3-6.9,10-8,13.1c-1.5,4.1-0.7,6.7,2,5.7
						c2.8-1.2,9.8-5.9,14.2-10.9c0.5-0.6,1.2,0.2,0.7,1c-2.2,3.1-8.3,8.4-12.7,11c-2.9,1.8-8.8,2.7-8.7-3.5c0-2.8,2.4-8.5,4.2-11.7
						c-1.4,0.5-11.7,12.4-17.4,10.9C550.6,241.8,549,239.9,548.4,237.6z"/>
					<path fill="#FFFFFF" d="M606,228.6c-1.2,0.1-5-0.4-8.4-1c-1.7,2-3.1,3.3-3.6,4.1c-4,5-7.6,9.5-8.9,12.5c-1.9,4-1.2,6.6,1.6,5.8
						c2.8-1,10.1-5.3,14.9-9.8c0.6-0.6,1.2,0.3,0.6,1c-2.5,2.9-8.8,7.8-13.5,10.1c-3,1.5-8.9,2.1-8.4-4.1c0.2-2.4,3.1-7.2,6.1-11.1
						c-1,0.8-2.1,2.1-4.3,3.9c-1.1,0.8-1.3-0.7-0.3-1.6c3.8-3.3,6.9-6.2,8.7-8.1c0.1-0.2,1.2-1.5,2.9-3.5c-0.8,0-1.3-0.2-1.7-0.3
						c-0.7-0.2-1.1-1.3-0.3-2.4c1.1-1.4,2.9-0.8,4.3-0.5c0.1-0.2,0.2-0.1,0.3-0.1l6.5-7.7c3.1-3.5,3.6-4.4,4.6-4.3
						c1.1,0.2,2.3,0.9,2.5,1.9c0.2,1.4-1.2,3-2,3.7c-0.7,0.8-1.3,0.5-2.1,1.5l-6.1,6.9l0.9,0.2c2.3,0.4,4.2,0.5,6.8,1.5
						C608,227.5,609.2,228.7,606,228.6z"/>
					<path fill="#FFFFFF" d="M592.3,282.2c-4.7,4.1-11.3,8.6-15.5,5.5c-0.4-0.4-0.9-0.8-1.1-1.2c-3-4.7,1.4-9.4,7.4-13.7
						c5.7-4,15.5-7.4,21.6-9.5c6.8-7.4,15.9-17.8,18.7-21.6c-6.1,4.2-19.5,17-25.6,14.4c-6-2.6-1.9-10.7,2.3-15.1
						c3.2-3.5,6.4-5.8,9.6-7.5c4.6-2.6,5.3,2.8,4,3.4c-2.1,0.5-5.7,2.6-9.3,5.4c-1.9,1.5-7.8,7.9-6.7,10.5c0.7,1.8,3.6,1.5,6.7-0.3
						c7.9-4.5,14.7-10.4,22.2-15.8c1.5-1.9,4.7,2.4,3.9,3.3c-3.9,4.4-13.2,15.2-18.8,21.5c2.2-0.5,11.5-4.6,18.5-9.8
						c1.4-1.1,1.3,0.7-0.1,1.8c-4.8,3.9-16.5,10.3-21.4,11.5C602.3,271.9,596.3,278.5,592.3,282.2z M584.1,275
						c-8.2,4.9-9.8,13.6-2.3,10.1c7.6-3.5,13.9-12.1,20.1-18.8C596.8,268.4,589.7,271.5,584.1,275z"/>
				</g>
				<g>
					<path fill-rule="evenodd" clip-rule="evenodd" fill="#FFFFFF" d="M405.8,289.5c14.8,6.5,22,3.2,31.6-5.5
						c-2.7-1.5-5.4-3.2-8.2-4.9c-10.1,3.2-28.2,2.4-27.2-12.1c-7.7-0.5-13.1,1.4-16.5,4.5c-4,3.6-6.4,9.3-5.5,14.3
						c1.4,8,9.1,14.8,17,11.8c7.3-2.8,10.7-13.6,4.1-17.9c-5.5-3.5-15.7,0.1-10.8,10.2c-3.9-4.7-2-9.4,1.5-11.5
						c5.1-3.1,13.8-1.5,14.3,7.1C406.2,287,406.1,288.3,405.8,289.5L405.8,289.5z M528.8,289.5c-14.8,6.5-22,3.2-31.6-5.5
						c2.7-1.5,5.4-3.2,8.2-4.9c10.1,3.2,28.2,2.4,27.2-12.1c7.7-0.5,13.1,1.4,16.5,4.5c4,3.6,6.4,9.3,5.5,14.3
						c-1.4,8-9.1,14.8-17,11.8c-7.3-2.8-10.7-13.6-4.1-17.9c5.5-3.5,15.7,0.1,10.8,10.2c3.9-4.7,2-9.4-1.5-11.5
						c-5.1-3.1-13.8-1.5-14.3,7.1C528.4,287,528.5,288.3,528.8,289.5L528.8,289.5z M508.3,277.3c8.3,2.1,23.6,1.9,22.7-10.2
						c-4,0.5-8.1,2-12.2,4.1C515.1,273.1,511.6,275.2,508.3,277.3L508.3,277.3z M517.6,267.9c-3.1-4-0.6-8.4,3.7-9.3
						c3.9-0.9,9.3,1.1,10.9,5.7c21.8-0.7,27.9,13.8,24.8,24.3c-4,13.3-23.3,16.3-28.1,1.1c-13.9,8.9-24.6,3.6-34-4.5
						c-8.7,4.6-17.4,7-27.6,3.5c-10.2,3.5-18.9,1-27.6-3.5c-9.3,8.1-20.1,13.4-34,4.5c-4.7,15.2-24.1,12.2-28.1-1.1
						c-3.1-10.5,3-25,24.8-24.3c1.6-4.5,7-6.5,10.9-5.7c4.3,1,6.8,5.3,3.7,9.3c2.6-8.6-9.7-10.5-12.7-3.5c0.9,0.1,1.9,0.3,2.8,0.6
						c8.1,2.3,15.1,6.9,22,11.5c0.9-0.3,1.8-0.7,2.6-1.1c12.3-6.2,15.6-12.6,26.9-10.2c1.8-1,3.6-1.8,5.4-2.3
						c1.1-0.3,2.2-0.5,3.3-0.4c1.1,0,2.2,0.1,3.3,0.4c1.8,0.5,3.6,1.3,5.4,2.3c11.3-2.4,14.6,4,26.9,10.2c0.8,0.4,1.7,0.8,2.6,1.1
						c6.8-4.6,13.9-9.2,22-11.5c0.9-0.3,1.8-0.4,2.8-0.6C527.3,257.5,515,259.3,517.6,267.9L517.6,267.9z M443.8,277.9
						c-1.8,1.7-3.5,3.3-5,4.8c-2.4-1.4-4.8-3-7.2-4.6c0.4-0.2,0.9-0.4,1.3-0.6c11.2-5.7,14-11.8,23.4-10.9
						C450.2,271,448.2,273.7,443.8,277.9L443.8,277.9z M448.8,276.5c-2.5,2.5-5.1,5.1-7.7,7.5c7.4,4,15.1,6.3,24.2,3.9
						c-3-1.3-6.2-3.1-9.6-5.5C452.7,280.3,451,278.7,448.8,276.5L448.8,276.5z M473.1,265.9c-1.9-1-3.8-1.6-5.8-1.7
						c-1.9,0.1-3.9,0.7-5.8,1.7c1.7,0.5,3.6,1.2,5.7,2.1l0.1,0l0.1,0C469.5,267.1,471.4,266.4,473.1,265.9L473.1,265.9z
						 M465.3,268.9c-2.2-0.8-4.1-1.4-5.9-1.7c-2.1,1.4-6.6,5.4-8.5,7.3C456.3,272.8,460.2,271.1,465.3,268.9L465.3,268.9z
						 M467.3,269.7c-2.8,1.1-6.4,2.4-9.5,3.3c-5.9,1.7-10.2,2.4-4.6,6.6c5.1,3.9,9.8,6.4,14.1,7.8c4.4-1.4,9-3.9,14.1-7.8
						c4.6-3.5,2.6-4.5-1.6-5.8C476.5,272.7,471.7,271.3,467.3,269.7L467.3,269.7z M469.3,268.9c5.1,2.2,9,3.9,14.4,5.6
						c-2-1.9-6.4-5.9-8.5-7.3C473.4,267.5,471.5,268.1,469.3,268.9L469.3,268.9z M485.8,276.5c-2.1,2.2-3.9,3.8-6.8,5.9
						c-3.4,2.4-6.5,4.2-9.6,5.5c9.1,2.3,16.8,0,24.2-3.9C490.8,281.6,488.3,279,485.8,276.5L485.8,276.5z M478.3,266.6
						c6.1,4.3,8.1,7.1,12.4,11.3c1.8,1.7,3.5,3.3,5,4.8c2.4-1.4,4.8-3,7.2-4.6c-0.4-0.2-0.9-0.4-1.3-0.6
						C490.6,271.8,487.7,265.8,478.3,266.6L478.3,266.6z M426.4,277.3c-8.3,2.1-23.6,1.9-22.7-10.2c4,0.5,8.1,2,12.2,4.1
						C419.5,273.1,423,275.2,426.4,277.3z"/>
					<path fill="#FFFFFF" d="M472.6,254.2c0,0.9-0.4,1.8-0.7,2.6c-0.4,0.8-0.8,1.6-1.2,2.4c-0.9,1.6-1.9,3.1-3,4.5l-0.3,0.4
						l-0.3-0.4c-1.5-1.8-2.9-3.6-4.1-5.7c-0.6-1-1.2-2.1-1.4-3.4c-0.2-1.3,0.1-2.6,0.7-3.8c0.6-1.1,1.6-2.1,2.9-2.6
						c1.2-0.5,2.6-0.5,3.9,0c1.2,0.5,2.2,1.4,2.8,2.5C472.3,251.8,472.6,253,472.6,254.2z M472.5,254.2c0-2.3-1.8-4.4-3.8-4.8
						c-1-0.2-2-0.1-2.9,0.3c-0.9,0.4-1.7,1.1-2.2,2c-0.5,0.9-0.8,1.9-0.7,2.9c0.1,1,0.6,2.1,1.1,3c1.1,2,2.4,3.9,3.8,5.7H467
						c1.2-1.4,2.3-2.8,3.3-4.2c0.5-0.7,1-1.5,1.4-2.3C472.1,255.9,472.5,255.1,472.5,254.2z"/>
				</g>
				<g>
					<g>
						<path fill="#FFFFFF" d="M524.7,317.8l-1.4,11.1c-0.1,0.5-0.5,0.5-0.7,0.5c-0.1,0-0.5,0-0.6-0.4l-1.2-6.1l-1.2,6.2
							c-0.1,0.3-0.5,0.3-0.6,0.3c-0.2,0-0.6,0-0.7-0.5l-1.4-11.1h-0.2c-0.1,0-0.5,0-0.5-0.4c0-0.4,0.4-0.4,0.6-0.4h1.5
							c0.2,0,0.6,0,0.6,0.4c0,0.4-0.4,0.4-0.6,0.4h-0.6l1.2,10.8h0.1l1.2-6.3c0.1-0.3,0.5-0.3,0.6-0.3c0.1,0,0.5,0,0.6,0.3l1.1,6.2
							h0.1l1.2-10.8h-0.6c-0.2,0-0.6,0-0.6-0.4c0-0.4,0.3-0.4,0.6-0.4h1.5c0.2,0,0.6,0,0.6,0.4C525.4,317.8,525,317.8,524.7,317.8z"
							/>
						<path fill="#FFFFFF" d="M534.2,329.3h-7.5c-0.2,0-0.6,0-0.6-0.4c0-0.4,0.4-0.4,0.6-0.4h0.8v-10.7h-0.8c-0.2,0-0.6,0-0.6-0.4
							c0-0.4,0.4-0.4,0.6-0.4h7c0.5,0,0.6,0.2,0.6,0.6v1.5c0,0.3,0,0.6-0.5,0.6c-0.5,0-0.5-0.4-0.5-0.6v-1.3h-5v4.7h2.9
							c0-0.9,0-1.2,0.5-1.2c0.5,0,0.5,0.4,0.5,0.6v1.9c0,0.3,0,0.6-0.5,0.6c-0.5,0-0.5-0.3-0.5-1.2h-2.9v5.1h5.4v-1.7
							c0-0.3,0-0.6,0.5-0.6c0.5,0,0.5,0.3,0.5,0.6v1.9C534.7,329.2,534.6,329.3,534.2,329.3z"/>
						<path fill="#FFFFFF" d="M540,329.3h-3.9c-0.2,0-0.6,0-0.6-0.4c0-0.4,0.4-0.4,0.6-0.4h0.6v-10.7h-0.6c-0.2,0-0.6,0-0.6-0.4
							c0-0.4,0.4-0.4,0.6-0.4h3.9c2.4,0,3.9,3.1,3.9,6.3C544,326.5,542.4,329.3,540,329.3z M539.7,317.8h-2v10.7h2
							c2.2,0,3.4-2.7,3.4-5.2C543.1,320.7,541.9,317.8,539.7,317.8z"/>
						<path fill="#FFFFFF" d="M549.6,329.3h-3.9c-0.2,0-0.6,0-0.6-0.4c0-0.4,0.4-0.4,0.6-0.4h0.6v-10.7h-0.6c-0.2,0-0.6,0-0.6-0.4
							c0-0.4,0.4-0.4,0.6-0.4h3.9c2.4,0,3.9,3.1,3.9,6.3C553.5,326.5,552,329.3,549.6,329.3z M549.2,317.8h-2v10.7h2
							c2.2,0,3.4-2.7,3.4-5.2C552.6,320.7,551.5,317.8,549.2,317.8z"/>
						<path fill="#FFFFFF" d="M561.8,329.3h-5.4c-0.2,0-0.6,0-0.6-0.4c0-0.4,0.4-0.4,0.6-0.4h2.2v-10.7h-2.2c-0.2,0-0.6,0-0.6-0.4
							c0-0.4,0.4-0.4,0.6-0.4h5.4c0.2,0,0.6,0,0.6,0.4c0,0.4-0.4,0.4-0.6,0.4h-2.2v10.7h2.2c0.2,0,0.6,0,0.6,0.4
							C562.4,329.3,562,329.3,561.8,329.3z"/>
						<path fill="#FFFFFF" d="M572.3,317.8h-0.7v10.9c0,0.6-0.2,0.6-0.6,0.6c-0.4,0-0.7,0-0.9-0.6l-3.6-10.9h-0.2v10.7h0.7
							c0.2,0,0.6,0,0.6,0.4c0,0.4-0.4,0.4-0.6,0.4h-2c-0.2,0-0.6,0-0.6-0.4c0-0.4,0.4-0.4,0.6-0.4h0.7v-10.7H565
							c-0.2,0-0.6,0-0.6-0.4c0-0.4,0.4-0.4,0.6-0.4h1.3c0.4,0,0.7,0,0.9,0.6l3.6,10.9h0.2v-10.7h-0.7c-0.2,0-0.6,0-0.6-0.4
							c0-0.4,0.3-0.4,0.6-0.4h2c0.2,0,0.6,0,0.6,0.4C572.9,317.8,572.5,317.8,572.3,317.8z"/>
						<path fill="#FFFFFF" d="M581.6,324.9v3.7c0,0.3,0,0.6-0.5,0.6c-0.5,0-0.5-0.3-0.5-1.2c-0.7,0.9-1.4,1.5-2.4,1.5
							c-2.2,0-4-2.7-4-6.4c0-3.6,1.8-6.4,4-6.4c0.7,0,1.5,0.3,2.3,1.1c0.3-0.9,0.4-1.1,0.7-1.1c0.4,0,0.4,0.4,0.4,0.6v2.9
							c0,0.3,0,0.6-0.5,0.6c-0.3,0-0.4-0.1-0.4-0.3c-0.4-2.5-1.7-3-2.4-3c-1.5,0-3.2,2.2-3.2,5.6c0,3.2,1.5,5.5,3.2,5.5
							c1.1,0,2.1-1,2.4-3.7h-1c-0.2,0-0.6,0-0.6-0.4c0-0.4,0.4-0.4,0.6-0.4h2.3c0.2,0,0.6,0,0.6,0.4
							C582.5,324.9,582.1,324.9,581.6,324.9z"/>
					</g>
				</g>
				<g>
					<g>
						<g>
							<path fill="#FFFFFF" d="M365.5,160.8c-0.5,0-0.5-0.4-0.5-0.6v-1.3h-2.9v10.7h1.2c0.2,0,0.6,0,0.6,0.4s-0.4,0.4-0.6,0.4h-3.3
								c-0.2,0-0.6,0-0.6-0.4c0-0.4,0.4-0.4,0.6-0.4h1.2v-10.7h-2.9v1.3c0,0.3,0,0.6-0.5,0.6c-0.5,0-0.5-0.4-0.5-0.6v-1.5
								c0-0.5,0.1-0.6,0.6-0.6h7.4c0.5,0,0.6,0.2,0.6,0.6v1.5C366,160.4,366,160.8,365.5,160.8z"/>
							<path fill="#FFFFFF" d="M375,170.3h-2.2c-0.2,0-0.6,0-0.6-0.4c0-0.4,0.4-0.4,0.6-0.4h0.7v-5.2h-4.4v5.2h0.7
								c0.2,0,0.6,0,0.6,0.4s-0.4,0.4-0.6,0.4h-2.2c-0.2,0-0.6,0-0.6-0.4s0.3-0.4,0.6-0.4h0.7v-10.7h-0.7c-0.2,0-0.6,0-0.6-0.4
								c0-0.4,0.3-0.4,0.6-0.4h2.2c0.2,0,0.6,0,0.6,0.4c0,0.4-0.4,0.4-0.6,0.4h-0.7v4.7h4.4v-4.7h-0.7c-0.2,0-0.6,0-0.6-0.4
								c0-0.4,0.4-0.4,0.6-0.4h2.2c0.2,0,0.6,0,0.6,0.4c0,0.4-0.4,0.4-0.6,0.4h-0.7v10.7h0.7c0.2,0,0.6,0,0.6,0.4
								S375.2,170.3,375,170.3z"/>
							<path fill="#FFFFFF" d="M384.6,170.3h-7.5c-0.2,0-0.6,0-0.6-0.4s0.4-0.4,0.6-0.4h0.8v-10.7h-0.8c-0.2,0-0.6,0-0.6-0.4
								c0-0.4,0.4-0.4,0.6-0.4h7c0.5,0,0.6,0.2,0.6,0.6v1.5c0,0.3,0,0.6-0.5,0.6c-0.5,0-0.5-0.4-0.5-0.6v-1.3h-5v4.7h2.9
								c0-0.9,0-1.2,0.5-1.2c0.5,0,0.5,0.4,0.5,0.6v1.9c0,0.3,0,0.6-0.5,0.6c-0.5,0-0.5-0.3-0.5-1.2h-2.9v5.1h5.4v-1.7
								c0-0.3,0-0.6,0.5-0.6c0.5,0,0.5,0.3,0.5,0.6v1.9C385.2,170.2,385.1,170.3,384.6,170.3z"/>
						</g>
					</g>
					<rect x="401.8" y="162.4" fill-rule="evenodd" clip-rule="evenodd" fill="#FFFFFF" width="14.5" height="2.5"/>
					<rect x="331.7" y="162.2" fill-rule="evenodd" clip-rule="evenodd" fill="#FFFFFF" width="14.5" height="2.5"/>
				</g>
			</g>
		</g>
		<g>
			<g opacity="0.7">
				<polygon points="601.4,333.3 488.4,333.3 480,321.2 488.4,309 601.4,309 609.7,321.2 				"/>
				<g>
					<g>
						<path d="M307.4,226.1c-0.9,0.6-1.5-1-0.6-1.6c3.7-2.2,6.1-10,5.3-17.5c-0.2-1.5,3.9-3.7,4.4-1.8c0.2,1.6,1.5,5.2,2,6.9
							c2.7,9.2,21,46.6,29.9,42.9c8.8-3.7-0.5-43.3-6.7-54.2c-1.9-3.2-3.4-4.9-5.2-7.4c-0.3-0.4,0.3-2.1,0.6-2.3
							c2.9-1.2,7.8,6.6,11.4,8.5c1.1,0.6,1.6,0.6,2.2,0.4c0.2-0.1,0.4-0.5,0.7-0.6c0.5-0.2,0.8,0.1,1.1,0.6c0.4,1-0.1,2.1-0.7,2.5
							c-0.5,0.2-1.1,0.2-1.7,0c-1.5-0.3-2.7-0.8-4.1-1.5c7.8,16.3,12.9,53.3,3.2,57.3c-10.7,4.5-23.9-19.9-30.8-36.5
							c1.4,11.2,2.4,20.9,2.6,31.6c0,11.6-1.2,21.9-5.4,26.1c-1.7,1.8-3.6,2.6-5.3,2.6c-2.1-0.1-4-1.2-5.6-3.8
							c-1-1.4-1.1-3.9,0.9-0.8c1,1.5,2.2,2.3,3.7,2.2c1.3,0,3.3-0.6,4.3-1.8c4.2-4.3,5.3-13.6,5.1-24.2c-0.4-12.1-2.4-23.9-4.7-36.6
							C312.8,221.6,310.1,224.6,307.4,226.1z"/>
						<path d="M365.7,222.4c-0.1-3.2-0.1-5.9,0.8-6.5c0.9-0.4,2.2-0.4,2.8,0.4c0.8,1,0.5,3.1,0.4,6.4c-0.4,6.4-0.8,12.2-0.1,15.3
							c0.7,4.3,2.8,6.1,4.6,3.8c1.7-2.4,5.2-10.1,6.5-16.6c0.2-0.8,1.2-0.5,1.1,0.5c-0.3,3.8-2.8,11.5-5.3,16
							c-1.6,3-6.1,6.9-9.2,1.5c-1.2-2.1-1.6-7.7-1.4-12.6c-0.3,1.3-0.5,2.9-1.3,5.7c-0.4,1.3-1.5,0.2-1.2-1.1
							c1.2-4.9,2.1-9.1,2.5-11.6C365.8,223.4,365.7,223,365.7,222.4z M368.2,210c-1.3,0.4-3,0.9-3.6-1.1c-0.1-0.5,2.5-5.5,2.8-6.1
							c2-4.1,1.2-0.1,1.8,1.8C369.4,205.6,368.9,209.8,368.2,210z"/>
						<path d="M392.1,240.6c-6.5,3.3-12.8-0.4-12-11.4c0.6-7.2,8.7-22.7,14.6-21.5c1.4,0.3,2.8,1.3,2.9,4c0.1,0.6-0.3,4.5-1,3.8
							c-0.4-0.2-0.5-0.7-0.5-1c-0.1-0.7,0-1.5-0.1-2.1c-0.2-0.9-0.8-1.9-1.5-1.7c-3.7,0.9-10.2,13-10,22.4c0.1,7.7,4.4,7.3,8.1,4.8
							c5.8-4.1,8.3-9.4,10.7-17.6c0.2-0.7,0.7-0.4,0.8-0.4c0.4,0.1,0.4,1.1,0.3,1.5C402.1,229.9,398.8,237.3,392.1,240.6z"/>
						<path d="M407.6,205.5c1.4-13.3,5.8-34.6,15.5-33.6c0.6,0,1.2,0.3,1.7,0.5c5.5,2.9,0,15.7-1.5,19.1
							c-3.6,7.5-8.7,14.3-12.4,17.4c-1.1,7.3-1.9,15.6-2.1,18.8l3.4-9.3c-0.3-1.4-0.5-2.6-0.5-3.7c-0.1-1.3,0.7-3.4,1.3-0.9l0.5,1.4
							c1.3-3.2,4.2-9.9,6.4-11.9c3-2.8,6.6,0.5,3.5,3.4c-2,1.9-6.9,6-9.1,10.7c3.9,10.2,6.2,15,12.6,22.7c2.8,3.2,5.6,5.1,7.5,4.8
							c3.6-0.6,0.9-5.8-0.6-8.1c-1.4-2,0.2-1.8,1.3-0.9c0.6,0.7,2.2,3.4,2.5,5.1c0.6,4.1-2.8,6.6-4.6,6.9
							c-7.2,1.2-16.1-14-19.9-26.9c-2.3,7-3.8,13.6-4.7,14.6c-0.6,0.6-4.2,3.6-3.8,1.6c0.3-1.2,1.3-13.3,2.3-22.1
							c-0.8,1.7-1.7,4-2.8,7.5c-0.3,0.9-1.8,1-1-1.4c1.5-3.7,3.3-9.8,4.3-12.7c-2.2-1.2-1.5-4.1-0.2-3.3
							C407.2,205.5,407.4,205.5,407.6,205.5z M421.3,190.5c0.8-1.9,5.2-14.2,2.9-16c-0.7-0.5-1.8,0-3.2,2.1
							c-5.4,7.9-7.9,16.9-9.9,29C414.9,202.2,418.6,197,421.3,190.5z"/>
						<path d="M477.8,180.2c-1.9,2.3-3.4,5.8-2.2,8.3c0.3,0.6-0.4,1.4-1.1,0.3c-0.6-0.9-0.6-5.8,0.6-8.9l0.2-0.5
							c-1.8-2.7-5.8-5.7-9.2-4.6c-7.8,2.5-3.6,20-0.4,25.7c1.4,2.5,1.1,3.1-0.5,3.4c-4.5,0.7-9.2,3.2-11.7,5
							c-11.4,7.7-7.8,25,6,23.1c8.8-1.2,17.5-7.1,20.6-20.9c0.9-3.8,0.7-8.5,0.2-9.9c-2.9,2.3-6.1,4.5-8.8,6.7
							c-2.6,2.1-9.6,11.2-6.3,14.7c0.8,1,1,2-0.4,1.4c-2.1-0.9-2.5-7.6-1-11.8c1.1-2.7,3.2-4.6,6-6.9c7.7-6.2,19.1-11,17.4-16.8
							c-0.2-0.8,0.4-0.8,0.7,0c1.4,4.6-2,8.4-6.7,12c1.2,1.8,3.1,6.4,2.7,10.4c-2.2,15.7-15.6,22-25.1,23c-19,1.9-20.3-22.9-7-29.7
							c5-2.5,9.9-1.8,12.5-2.3c-4.5-5.3-10.6-17.2-6.5-25c2-3.8,9.4-5.7,12.5-4.5c1.8,0.6,4.6,2.8,5.9,5.1c0.9-1.4,1.9-2.7,2.9-2.8
							c1.2-0.4,2.6,0.8,1.5,2.3C480,177.9,478.9,178.8,477.8,180.2z"/>
						<path d="M519.6,191.9c-1.1-0.1-0.8-1.7,0.3-1.7c4.3,0.1,10.4-5.2,13.8-11.9c0.5-1.5,5.2-1.1,4.7,0.7
							c-6,12.5-11.5,25.4-18.1,37.4c2.3-2.8,4.9-5.7,8.2-9.1c0.2-1.5,0.4-2.8,0.7-3.9c0.4-1.1,1.7-2.9,1.7-0.3
							c-0.1,0.5-0.1,1-0.1,1.5l0.1-0.3c2.9-3.2,25.9-22.5,28.4-23.6c6.6-2.8,7.1,2.9,3.6,4.5c-1.2,0.5-9.7,5-16.7,9.5
							c-7.5,5-13.6,10.2-15.4,12.2c0.4,10.8,1.2,16.1,4.8,25.4c1.6,4,3.7,6.7,5.6,7c3.6,0.6,2.7-5.3,1.9-7.9
							c-0.7-2.3,0.8-1.6,1.5-0.4c0.4,0.9,1,3.8,0.8,5.6c-0.7,4.1-4.7,5.4-6.6,5.1c-9.2-1.5-10.8-18.3-10.5-31.7
							c-5.3,6.1-10.9,12.7-14.2,17.1c-5.8,8.9-11.9,15.9-17.5,17.3c-2.6,0.7-4.5,0.4-6.2-0.6c-1.9-1.2-2.9-3.3-3.1-6.4
							c-0.1-1.8,1.2-4.1,1.3-0.3c0.2,2.1,0.9,3.4,2.2,4.1c1.1,0.5,3.2,1.2,4.9,0.8c6.1-1.6,12.3-9.2,17.9-18.7
							c6.4-11,11.7-23.2,16.4-35.3C526.5,190.9,522.6,191.9,519.6,191.9z"/>
						<path d="M546.4,236.1c-2.9-10.6,17.2-21,23-21.4c2.3-0.2,5.5,0.4,6.9,2.6c0.5,0.9,0.8,2,0.5,3c-0.2,0.7-0.2,0.7-0.6,0.4
							c-0.4-1.9-1.7-2.4-3.1-2.8c-3.7-1-9.7,1.7-14.6,5.2c-2.7,2-11,9.8-9.9,14.7c0.5,2.2,4.9-0.4,6.2-1.2c2.4-1.7,6.6-4.6,9.1-6.8
							c1.4-1.2,8.9-8,9.6-7.9c0.7,0.2,3.3,1.7,2.2,3.1c-3.9,4.3-6.9,10-8,13.1c-1.5,4.1-0.7,6.7,2,5.7c2.8-1.2,9.8-5.9,14.2-10.9
							c0.5-0.6,1.2,0.2,0.7,1c-2.2,3.1-8.3,8.4-12.7,11c-2.9,1.8-8.8,2.7-8.7-3.5c0-2.8,2.4-8.5,4.2-11.7
							c-1.4,0.5-11.7,12.4-17.4,10.9C548.6,240.2,547,238.3,546.4,236.1z"/>
						<path d="M604,227.1c-1.2,0.1-5-0.4-8.4-1c-1.7,2-3.1,3.3-3.6,4.1c-4,5-7.6,9.5-8.9,12.5c-1.9,4-1.2,6.6,1.6,5.8
							c2.8-1,10.1-5.3,14.9-9.8c0.6-0.6,1.2,0.3,0.6,1c-2.5,2.9-8.8,7.8-13.5,10.1c-3,1.5-8.9,2.1-8.4-4.1c0.2-2.4,3.1-7.2,6.1-11.1
							c-1,0.8-2.1,2.1-4.3,3.9c-1.1,0.8-1.3-0.7-0.3-1.6c3.8-3.3,6.9-6.2,8.7-8.1c0.1-0.2,1.2-1.5,2.9-3.5c-0.8,0-1.3-0.2-1.7-0.3
							c-0.7-0.2-1.1-1.3-0.3-2.4c1.1-1.4,2.9-0.8,4.3-0.5c0.1-0.2,0.2-0.1,0.3-0.1l6.5-7.7c3.1-3.5,3.6-4.4,4.6-4.3
							c1.1,0.2,2.3,0.9,2.5,1.9c0.2,1.4-1.2,3-2,3.7c-0.7,0.8-1.3,0.5-2.1,1.5l-6.1,6.9l0.9,0.2c2.3,0.4,4.2,0.5,6.8,1.5
							C606,226,607.2,227.1,604,227.1z"/>
						<path d="M590.3,280.7c-4.7,4.1-11.3,8.6-15.5,5.5c-0.4-0.4-0.9-0.8-1.1-1.2c-3-4.7,1.4-9.4,7.4-13.7c5.7-4,15.5-7.4,21.6-9.5
							c6.8-7.4,15.9-17.8,18.7-21.6c-6.1,4.2-19.5,17-25.6,14.4c-6-2.6-1.9-10.7,2.3-15.1c3.2-3.5,6.4-5.8,9.6-7.5
							c4.6-2.6,5.3,2.8,4,3.4c-2.1,0.5-5.7,2.6-9.3,5.4c-1.9,1.5-7.8,7.9-6.7,10.5c0.7,1.8,3.6,1.5,6.7-0.3
							c7.9-4.5,14.7-10.4,22.2-15.8c1.5-1.9,4.7,2.4,3.9,3.3c-3.9,4.4-13.2,15.2-18.8,21.5c2.2-0.5,11.5-4.6,18.5-9.8
							c1.4-1.1,1.3,0.7-0.1,1.8c-4.8,3.9-16.5,10.3-21.4,11.5C600.3,270.4,594.3,277,590.3,280.7z M582.1,273.4
							c-8.2,4.9-9.8,13.6-2.3,10.1c7.6-3.5,13.9-12.1,20.1-18.8C594.8,266.9,587.7,270,582.1,273.4z"/>
					</g>
					<g>
						<path fill-rule="evenodd" clip-rule="evenodd" d="M403.8,287.9c14.8,6.5,22,3.2,31.6-5.5c-2.7-1.5-5.4-3.2-8.2-4.9
							c-10.1,3.2-28.2,2.4-27.2-12.1c-7.7-0.5-13.1,1.4-16.5,4.5c-4,3.6-6.4,9.3-5.5,14.3c1.4,8,9.1,14.8,17,11.8
							c7.3-2.8,10.7-13.6,4.1-17.9c-5.5-3.5-15.7,0.1-10.8,10.2c-3.9-4.7-2-9.4,1.5-11.5c5.1-3.1,13.8-1.5,14.3,7.1
							C404.2,285.4,404.1,286.7,403.8,287.9L403.8,287.9z M526.8,287.9c-14.8,6.5-22,3.2-31.6-5.5c2.7-1.5,5.4-3.2,8.2-4.9
							c10.1,3.2,28.2,2.4,27.2-12.1c7.7-0.5,13.1,1.4,16.5,4.5c4,3.6,6.4,9.3,5.5,14.3c-1.4,8-9.1,14.8-17,11.8
							c-7.3-2.8-10.7-13.6-4.1-17.9c5.5-3.5,15.7,0.1,10.8,10.2c3.9-4.7,2-9.4-1.5-11.5c-5.1-3.1-13.8-1.5-14.3,7.1
							C526.4,285.4,526.5,286.7,526.8,287.9L526.8,287.9z M506.3,275.7c8.3,2.1,23.6,1.9,22.7-10.2c-4,0.5-8.1,2-12.2,4.1
							C513.1,271.6,509.6,273.7,506.3,275.7L506.3,275.7z M515.6,266.4c-3.1-4-0.6-8.4,3.7-9.3c3.9-0.9,9.3,1.1,10.9,5.7
							c21.8-0.7,27.9,13.8,24.8,24.3c-4,13.3-23.3,16.3-28.1,1.1c-13.9,8.9-24.6,3.6-34-4.5c-8.7,4.6-17.4,7-27.6,3.5
							c-10.2,3.5-18.9,1-27.6-3.5c-9.3,8.1-20.1,13.4-34,4.5c-4.7,15.2-24.1,12.2-28.1-1.1c-3.1-10.5,3-25,24.8-24.3
							c1.6-4.5,7-6.5,10.9-5.7c4.3,1,6.8,5.3,3.7,9.3c2.6-8.6-9.7-10.5-12.7-3.5c0.9,0.1,1.9,0.3,2.8,0.6c8.1,2.3,15.1,6.9,22,11.5
							c0.9-0.3,1.8-0.7,2.6-1.1c12.3-6.2,15.6-12.6,26.9-10.2c1.8-1,3.6-1.8,5.4-2.3c1.1-0.3,2.2-0.5,3.3-0.4c1.1,0,2.2,0.1,3.3,0.4
							c1.8,0.5,3.6,1.3,5.4,2.3c11.3-2.4,14.6,4,26.9,10.2c0.8,0.4,1.7,0.8,2.6,1.1c6.8-4.6,13.9-9.2,22-11.5
							c0.9-0.3,1.8-0.4,2.8-0.6C525.3,255.9,513,257.8,515.6,266.4L515.6,266.4z M441.8,276.4c-1.8,1.7-3.5,3.3-5,4.8
							c-2.4-1.4-4.8-3-7.2-4.6c0.4-0.2,0.9-0.4,1.3-0.6c11.2-5.7,14-11.8,23.4-10.9C448.2,269.4,446.2,272.2,441.8,276.4
							L441.8,276.4z M446.8,275c-2.5,2.5-5.1,5.1-7.7,7.5c7.4,4,15.1,6.3,24.2,3.9c-3-1.3-6.2-3.1-9.6-5.5
							C450.7,278.8,449,277.2,446.8,275L446.8,275z M471.1,264.4c-1.9-1-3.8-1.6-5.8-1.7c-1.9,0.1-3.9,0.7-5.8,1.7
							c1.7,0.5,3.6,1.2,5.7,2.1l0.1,0l0.1,0C467.5,265.6,469.4,264.9,471.1,264.4L471.1,264.4z M463.3,267.4
							c-2.2-0.8-4.1-1.4-5.9-1.7c-2.1,1.4-6.6,5.4-8.5,7.3C454.3,271.3,458.2,269.6,463.3,267.4L463.3,267.4z M465.3,268.1
							c-2.8,1.1-6.4,2.4-9.5,3.3c-5.9,1.7-10.2,2.4-4.6,6.6c5.1,3.9,9.8,6.4,14.1,7.8c4.4-1.4,9-3.9,14.1-7.8
							c4.6-3.5,2.6-4.5-1.6-5.8C474.5,271.2,469.7,269.8,465.3,268.1L465.3,268.1z M467.3,267.4c5.1,2.2,9,3.9,14.4,5.6
							c-2-1.9-6.4-5.9-8.5-7.3C471.4,266,469.5,266.6,467.3,267.4L467.3,267.4z M483.8,275c-2.1,2.2-3.9,3.8-6.8,5.9
							c-3.4,2.4-6.5,4.2-9.6,5.5c9.1,2.3,16.8,0,24.2-3.9C488.8,280.1,486.3,277.5,483.8,275L483.8,275z M476.3,265.1
							c6.1,4.3,8.1,7.1,12.4,11.3c1.8,1.7,3.5,3.3,5,4.8c2.4-1.4,4.8-3,7.2-4.6c-0.4-0.2-0.9-0.4-1.3-0.6
							C488.6,270.3,485.7,264.2,476.3,265.1L476.3,265.1z M424.4,275.7c-8.3,2.1-23.6,1.9-22.7-10.2c4,0.5,8.1,2,12.2,4.1
							C417.5,271.6,421,273.7,424.4,275.7z"/>
						<path d="M470.6,252.6c0,0.9-0.4,1.8-0.7,2.6c-0.4,0.8-0.8,1.6-1.2,2.4c-0.9,1.6-1.9,3.1-3,4.5l-0.3,0.4l-0.3-0.4
							c-1.5-1.8-2.9-3.6-4.1-5.7c-0.6-1-1.2-2.1-1.4-3.4c-0.2-1.3,0.1-2.6,0.7-3.8c0.6-1.1,1.6-2.1,2.9-2.6c1.2-0.5,2.6-0.5,3.9,0
							c1.2,0.5,2.2,1.4,2.8,2.5C470.3,250.3,470.6,251.4,470.6,252.6z M470.5,252.6c0-2.3-1.8-4.4-3.8-4.8c-1-0.2-2-0.1-2.9,0.3
							c-0.9,0.4-1.7,1.1-2.2,2c-0.5,0.9-0.8,1.9-0.7,2.9c0.1,1,0.6,2.1,1.1,3c1.1,2,2.4,3.9,3.8,5.7H465c1.2-1.4,2.3-2.8,3.3-4.2
							c0.5-0.7,1-1.5,1.4-2.3C470.1,254.4,470.5,253.5,470.5,252.6z"/>
					</g>
					<g>
						<g>
							<g>
								<path fill="#E4E4E4" d="M522.7,316.3l-1.4,11.1c-0.1,0.5-0.5,0.5-0.7,0.5c-0.1,0-0.5,0-0.6-0.4l-1.2-6.1l-1.2,6.2
									c-0.1,0.3-0.5,0.3-0.6,0.3c-0.2,0-0.6,0-0.7-0.5l-1.4-11.1h-0.2c-0.1,0-0.5,0-0.5-0.4c0-0.4,0.4-0.4,0.6-0.4h1.5
									c0.2,0,0.6,0,0.6,0.4c0,0.4-0.4,0.4-0.6,0.4h-0.6l1.2,10.8h0.1l1.2-6.3c0.1-0.3,0.5-0.3,0.6-0.3c0.1,0,0.5,0,0.6,0.3
									l1.1,6.2h0.1l1.2-10.8h-0.6c-0.2,0-0.6,0-0.6-0.4c0-0.4,0.3-0.4,0.6-0.4h1.5c0.2,0,0.6,0,0.6,0.4
									C523.4,316.3,523,316.3,522.7,316.3z"/>
								<path fill="#E4E4E4" d="M532.2,327.8h-7.5c-0.2,0-0.6,0-0.6-0.4c0-0.4,0.4-0.4,0.6-0.4h0.8v-10.7h-0.8c-0.2,0-0.6,0-0.6-0.4
									c0-0.4,0.4-0.4,0.6-0.4h7c0.5,0,0.6,0.2,0.6,0.6v1.5c0,0.3,0,0.6-0.5,0.6c-0.5,0-0.5-0.4-0.5-0.6v-1.3h-5v4.7h2.9
									c0-0.9,0-1.2,0.5-1.2c0.5,0,0.5,0.4,0.5,0.6v1.9c0,0.3,0,0.6-0.5,0.6c-0.5,0-0.5-0.3-0.5-1.2h-2.9v5.1h5.4v-1.7
									c0-0.3,0-0.6,0.5-0.6c0.5,0,0.5,0.3,0.5,0.6v1.9C532.7,327.6,532.6,327.8,532.2,327.8z"/>
								<path fill="#E4E4E4" d="M538,327.8h-3.9c-0.2,0-0.6,0-0.6-0.4c0-0.4,0.4-0.4,0.6-0.4h0.6v-10.7h-0.6c-0.2,0-0.6,0-0.6-0.4
									c0-0.4,0.4-0.4,0.6-0.4h3.9c2.4,0,3.9,3.1,3.9,6.3C542,324.9,540.4,327.8,538,327.8z M537.7,316.3h-2v10.7h2
									c2.2,0,3.4-2.7,3.4-5.2C541.1,319.2,539.9,316.3,537.7,316.3z"/>
								<path fill="#E4E4E4" d="M547.6,327.8h-3.9c-0.2,0-0.6,0-0.6-0.4c0-0.4,0.4-0.4,0.6-0.4h0.6v-10.7h-0.6c-0.2,0-0.6,0-0.6-0.4
									c0-0.4,0.4-0.4,0.6-0.4h3.9c2.4,0,3.9,3.1,3.9,6.3C551.5,324.9,550,327.8,547.6,327.8z M547.2,316.3h-2v10.7h2
									c2.2,0,3.4-2.7,3.4-5.2C550.6,319.2,549.5,316.3,547.2,316.3z"/>
								<path fill="#E4E4E4" d="M559.8,327.8h-5.4c-0.2,0-0.6,0-0.6-0.4c0-0.4,0.4-0.4,0.6-0.4h2.2v-10.7h-2.2c-0.2,0-0.6,0-0.6-0.4
									c0-0.4,0.4-0.4,0.6-0.4h5.4c0.2,0,0.6,0,0.6,0.4c0,0.4-0.4,0.4-0.6,0.4h-2.2v10.7h2.2c0.2,0,0.6,0,0.6,0.4
									C560.4,327.8,560,327.8,559.8,327.8z"/>
								<path fill="#E4E4E4" d="M570.3,316.3h-0.7v10.9c0,0.6-0.2,0.6-0.6,0.6c-0.4,0-0.7,0-0.9-0.6l-3.6-10.9h-0.2v10.7h0.7
									c0.2,0,0.6,0,0.6,0.4c0,0.4-0.4,0.4-0.6,0.4h-2c-0.2,0-0.6,0-0.6-0.4c0-0.4,0.4-0.4,0.6-0.4h0.7v-10.7H563
									c-0.2,0-0.6,0-0.6-0.4c0-0.4,0.4-0.4,0.6-0.4h1.3c0.4,0,0.7,0,0.9,0.6l3.6,10.9h0.2v-10.7h-0.7c-0.2,0-0.6,0-0.6-0.4
									c0-0.4,0.3-0.4,0.6-0.4h2c0.2,0,0.6,0,0.6,0.4C570.9,316.3,570.5,316.3,570.3,316.3z"/>
								<path fill="#E4E4E4" d="M579.6,323.4v3.7c0,0.3,0,0.6-0.5,0.6c-0.5,0-0.5-0.3-0.5-1.2c-0.7,0.9-1.4,1.5-2.4,1.5
									c-2.2,0-4-2.7-4-6.4c0-3.6,1.8-6.4,4-6.4c0.7,0,1.5,0.3,2.3,1.1c0.3-0.9,0.4-1.1,0.7-1.1c0.4,0,0.4,0.4,0.4,0.6v2.9
									c0,0.3,0,0.6-0.5,0.6c-0.3,0-0.4-0.1-0.4-0.3c-0.4-2.5-1.7-3-2.4-3c-1.5,0-3.2,2.2-3.2,5.6c0,3.2,1.5,5.5,3.2,5.5
									c1.1,0,2.1-1,2.4-3.7h-1c-0.2,0-0.6,0-0.6-0.4c0-0.4,0.4-0.4,0.6-0.4h2.3c0.2,0,0.6,0,0.6,0.4
									C580.5,323.4,580.1,323.4,579.6,323.4z"/>
							</g>
						</g>
						<rect x="599.2" y="319.9" fill-rule="evenodd" clip-rule="evenodd" width="360.8" height="2.5"/>
						<rect y="319.7" fill-rule="evenodd" clip-rule="evenodd" width="483.2" height="2.5"/>
					</g>
					<g>
						<g>
							<g>
								<path d="M363.5,159.2c-0.5,0-0.5-0.4-0.5-0.6v-1.3h-2.9v10.7h1.2c0.2,0,0.6,0,0.6,0.4s-0.4,0.4-0.6,0.4h-3.3
									c-0.2,0-0.6,0-0.6-0.4c0-0.4,0.4-0.4,0.6-0.4h1.2v-10.7h-2.9v1.3c0,0.3,0,0.6-0.5,0.6c-0.5,0-0.5-0.4-0.5-0.6v-1.5
									c0-0.5,0.1-0.6,0.6-0.6h7.4c0.5,0,0.6,0.2,0.6,0.6v1.5C364,158.9,364,159.2,363.5,159.2z"/>
								<path d="M373,168.8h-2.2c-0.2,0-0.6,0-0.6-0.4c0-0.4,0.4-0.4,0.6-0.4h0.7v-5.2h-4.4v5.2h0.7c0.2,0,0.6,0,0.6,0.4
									s-0.4,0.4-0.6,0.4h-2.2c-0.2,0-0.6,0-0.6-0.4s0.3-0.4,0.6-0.4h0.7v-10.7h-0.7c-0.2,0-0.6,0-0.6-0.4c0-0.4,0.3-0.4,0.6-0.4
									h2.2c0.2,0,0.6,0,0.6,0.4c0,0.4-0.4,0.4-0.6,0.4h-0.7v4.7h4.4v-4.7h-0.7c-0.2,0-0.6,0-0.6-0.4c0-0.4,0.4-0.4,0.6-0.4h2.2
									c0.2,0,0.6,0,0.6,0.4c0,0.4-0.4,0.4-0.6,0.4h-0.7v10.7h0.7c0.2,0,0.6,0,0.6,0.4S373.2,168.8,373,168.8z"/>
								<path d="M382.6,168.8h-7.5c-0.2,0-0.6,0-0.6-0.4s0.4-0.4,0.6-0.4h0.8v-10.7h-0.8c-0.2,0-0.6,0-0.6-0.4
									c0-0.4,0.4-0.4,0.6-0.4h7c0.5,0,0.6,0.2,0.6,0.6v1.5c0,0.3,0,0.6-0.5,0.6c-0.5,0-0.5-0.4-0.5-0.6v-1.3h-5v4.7h2.9
									c0-0.9,0-1.2,0.5-1.2c0.5,0,0.5,0.4,0.5,0.6v1.9c0,0.3,0,0.6-0.5,0.6c-0.5,0-0.5-0.3-0.5-1.2h-2.9v5.1h5.4v-1.7
									c0-0.3,0-0.6,0.5-0.6c0.5,0,0.5,0.3,0.5,0.6v1.9C383.2,168.6,383.1,168.8,382.6,168.8z"/>
							</g>
						</g>
						<rect x="399.7" y="160.9" fill-rule="evenodd" clip-rule="evenodd" width="14.5" height="2.5"/>
						<rect x="329.7" y="160.7" fill-rule="evenodd" clip-rule="evenodd" width="14.5" height="2.5"/>
					</g>
				</g>
			</g>
		</g>
	</g>
</g>
</svg>
