<?xml version="1.0" encoding="utf-8"?>
<!-- Generator: Adobe Illustrator 18.1.1, SVG Export Plug-In . SVG Version: 6.00 Build 0)  -->
<svg version="1.1" id="Layer_1" xmlns="http://www.w3.org/2000/svg" xmlns:xlink="http://www.w3.org/1999/xlink" x="0px" y="0px"
	 viewBox="0 0 106.1 49.5" enable-background="new 0 0 106.1 49.5" xml:space="preserve">
<g>
	<path fill="#4D4D4D" d="M54.1,4.1c-0.2-0.2-0.2-1.2,0.1-1.8c0.1-0.1,0.3-0.3,0.3-0.4c-1.8,0-3.7-0.4-5.5-0.1
		c-1.7,0.2-3.2,1-3.4,2.1c-0.2,0.7,0.6,1,0.8,1.2c0.2,0.1,0,0.2-0.1,0.2c-0.5-0.1-1.4-0.8-1.1-1.6c0,0,0-0.2,0-0.2
		c0.3-1.4,2-2.1,3.8-2.2c2.2-0.1,4.6,0.5,5.6,0.5c0.3-0.3,0.4-0.4,0.6-0.4c0.4-0.1,0.7,0.2,0.4,0.5C55.6,1.9,55.3,2,55,2.3
		c-0.5,0.5-0.9,1.2-0.6,1.7C54.5,4.1,54.3,4.3,54.1,4.1z M48.9,8.3c0.1,0.1-0.2,0.4-0.2,0.4c-0.2,0.3-0.6,1-1,1
		c-0.1,0-0.5-0.1-0.5-0.2c-0.1-0.9,1.8-4.1,2.2-4.9c0.2-0.4,0.1-0.5,0.1-0.6c0.1-0.5,1.1-1.7,1.8-1.7c0.2,0,0.9,0.2,0.8,0.6
		c-0.1,0-0.1-0.1-0.2-0.1c-1.3,0-3.4,4.2-4,5.5c-0.3,0.8,0.1,0.7,0.4,0.4C48.6,8.6,48.8,8.3,48.9,8.3z"/>
	<path fill="#4D4D4D" d="M51.8,5.5c0.1-0.1,0.2-0.2,0.2-0.4c0.2-0.5,2.1-4.7,3.9-4.3c0.8,0.2,0.7,0.8,0.4,1.4
		c-0.7,1.3-2.7,2.7-4,3.8c-0.4,1-0.7,1.7-0.8,2.2c0.6-0.7,1.8-2,2.6-2.6c0.6-0.5,1.2-0.5,1.2-0.1c0,0.5-0.4,1.1-0.6,1.5
		c-0.3,0.5-0.4,1.1-0.4,1.4c-0.1,0.6,0.2,0.9,0.6,0.7c0.4-0.3,1.5-1.1,2.1-1.9c0.1-0.1,0.2,0,0.2,0.1c-0.3,0.5-1.1,1.4-1.8,1.9
		c-0.4,0.3-1.5,0.7-1.8-0.2c-0.1-0.2-0.1-0.4,0-0.7c0.1-0.6,0.5-1.3,0.7-1.8c0.3-0.5,0.2-0.8-0.8,0.1c-0.8,0.7-2,2.6-2.2,2.7
		c-0.1,0.1-0.9,0.4-0.7,0.1c0.1-0.2,0.7-2.1,1.1-3.1c-0.2,0.3-0.8,0.9-1.1,1.3c-0.1,0.2-0.1-0.2,0-0.4c0.4-0.5,0.8-1,1.1-1.4
		C51.2,5.7,51.4,5.4,51.8,5.5L51.8,5.5z M56,2c0.4-0.7,0.1-1.1-0.6-0.5c-1.3,1-2.1,2.3-2.8,3.9C53.7,4.7,55.3,3.2,56,2z"/>
	<path fill="#4D4D4D" d="M58.1,7.7c-0.2,0-0.3-0.2-0.1-0.2c0.4,0,1.2-0.5,1.8-0.9C60,6.5,60.4,6,60.4,5.7c0-0.4-0.5-0.2-0.7-0.1
		c-0.8,0.4-2,1.5-2.3,2.6C56.9,9.4,58,9.4,58.9,9c1-0.4,1.9-1.2,2.4-1.9C61.4,7,61.5,7,61.5,7c0.1,0,0.1,0.1,0,0.2
		c-0.6,0.9-1.4,1.7-2.4,2.1c-1.4,0.6-3.2,0-2.5-1.8c0.4-1,2.6-2.8,3.6-2.4c0.6,0.2,0.5,0.9,0.2,1.3C60,7.2,58.7,7.7,58.1,7.7z"/>
	<g>
		<path fill="#4D4D4D" d="M6.8,18c-0.3,0-0.3-0.3,0-0.4c1.3-0.1,2.8-1.5,3.5-3.1c0.1-0.3,1.5-0.4,1.4,0c-0.1,0.3-0.2,1.2-0.2,1.6
			c-0.3,2.1,0.4,11.1,3.3,11.1c2.8,0,4.8-8.7,4.4-11.4c-0.2-0.8-0.4-1.3-0.6-1.9c0-0.1,0.3-0.4,0.4-0.4c0.9,0,1.4,2,2.2,2.7
			c0.2,0.2,0.4,0.3,0.6,0.3c0.1,0,0.2-0.1,0.3-0.1c0.2,0,0.2,0.1,0.2,0.2c0,0.2-0.3,0.4-0.5,0.4c-0.2,0-0.3,0-0.5-0.1
			c-0.4-0.2-0.7-0.4-0.9-0.6c0.3,3.9-2.6,11.8-5.7,11.8c-3.5,0-4.3-6-4.3-9.9c-0.9,2.4-1.7,4.4-2.9,6.6C6.1,27,4.6,29,2.9,29.5
			c-0.7,0.2-1.3,0.2-1.8,0.1c-0.6-0.2-1-0.6-1.1-1.2c-0.1-0.4,0.1-0.9,0.4-0.1c0.1,0.4,0.4,0.6,0.8,0.7c0.4,0.1,1,0.2,1.4,0
			c1.7-0.5,3-2.3,4.2-4.4c1.3-2.5,2.1-5,2.9-7.7C8.8,17.6,7.7,18,6.8,18z"/>
		<path fill="#4D4D4D" d="M23.1,21.8c0.2-0.7,0.5-1.2,0.8-1.3c0.3,0,0.7,0,0.8,0.3c0.1,0.3-0.1,0.7-0.4,1.4
			c-0.7,1.3-1.3,2.5-1.3,3.2c-0.2,0.9,0.3,1.5,1,1.1c0.7-0.4,2.4-1.8,3.3-3.1c0.1-0.2,0.4,0,0.3,0.2c-0.4,0.8-1.8,2.2-2.9,3
			c-0.7,0.5-2.3,1.1-2.8-0.3c-0.2-0.5,0.2-1.7,0.7-2.7c-0.2,0.2-0.4,0.6-0.9,1.1c-0.2,0.2-0.4,0-0.2-0.3c0.8-0.9,1.4-1.8,1.7-2.3
			C23.1,22,23.1,21.9,23.1,21.8z M24.9,19.3c-0.4,0-0.9,0-0.9-0.5c0-0.1,1.2-1,1.3-1.1c0.9-0.7,0.4,0,0.4,0.5
			C25.6,18.5,25.1,19.3,24.9,19.3z"/>
		<path fill="#4D4D4D" d="M29.5,27.1c-2.1,0.4-3.7-0.7-2.7-3c0.7-1.5,4.1-4.4,5.7-3.8c0.4,0.1,0.7,0.4,0.6,1c0,0.1-0.4,0.9-0.6,0.7
			c-0.1-0.1-0.1-0.2-0.1-0.2c0-0.2,0.1-0.3,0.1-0.4c0-0.2-0.1-0.4-0.3-0.4c-1.1,0-3.9,2.2-4.4,4.2c-0.5,1.6,0.8,1.8,2,1.4
			c2-0.6,3.1-1.6,4.3-3.2c0.1-0.1,0.2,0,0.3,0c0.1,0,0,0.2,0,0.3C33.1,25.3,31.7,26.7,29.5,27.1z"/>
		<path fill="#4D4D4D" d="M36.1,20.2c1.1-2.8,3.4-7.2,6.2-6.7c0.2,0,0.4,0.1,0.5,0.2c1.5,0.8-0.7,3.4-1.4,4
			c-1.4,1.5-3.3,2.8-4.5,3.3c-0.7,1.5-1.3,3.3-1.5,4l1.4-1.9c0-0.3,0-0.6,0-0.8c0-0.3,0.4-0.7,0.4-0.2l0.1,0.3
			c0.5-0.6,1.7-2,2.4-2.3c1-0.5,1.9,0.3,0.9,0.9c-0.7,0.3-2.3,1.1-3.2,2c0.7,2.3,1.1,3.4,2.6,5.3c0.7,0.8,1.4,1.3,2,1.3
			c1.1,0,0.6-1.2,0.2-1.8c-0.3-0.5,0.1-0.4,0.4-0.2c0.2,0.2,0.5,0.8,0.5,1.2c0,0.9-1.1,1.3-1.7,1.3c-2.2,0-4.1-3.6-4.6-6.5
			c-1,1.4-1.8,2.8-2.1,3c-0.2,0.1-1.4,0.6-1.2,0.2c0.1-0.2,1-2.8,1.7-4.7c-0.3,0.3-0.7,0.8-1.2,1.5C34.1,24,33.6,24,34,23.5
			c0.6-0.7,1.4-2,1.9-2.6c-0.6-0.3-0.3-0.9,0.1-0.7C36,20.2,36.1,20.2,36.1,20.2z M40.9,17.5c0.3-0.4,2.2-2.9,1.6-3.3
			c-0.2-0.1-0.5-0.1-1,0.3c-2,1.5-3.1,3.3-4.3,5.9C38.4,19.8,39.8,18.8,40.9,17.5z"/>
		<path fill="#4D4D4D" d="M56.6,15.8c-0.6,0.5-1,1.3-0.7,1.8c0.1,0.1-0.1,0.3-0.3,0.1c-0.2-0.2-0.2-1.3,0.2-1.9l0.1-0.1
			c-0.6-0.6-1.7-1.2-2.8-1C50.7,15.2,52,19,53,20.2c0.4,0.6,0.3,0.7-0.1,0.7c-1.3,0.2-2.8,0.7-3.5,1.1c-3.4,1.7-2.3,5.4,1.8,5
			c2.6-0.3,5.2-1.6,6.1-4.6c0.3-0.8,0.2-1.8,0-2.2c-0.9,0.5-1.8,1-2.6,1.5c-0.8,0.5-2.9,2.4-1.9,3.2c0.2,0.2,0.3,0.4-0.1,0.3
			c-0.6-0.2-0.8-1.7-0.3-2.6c0.3-0.6,0.9-1,1.8-1.5c2.3-1.4,5.7-2.4,5.2-3.7c-0.1-0.2,0.1-0.2,0.2,0c0.4,1-0.6,1.8-2,2.6
			c0.4,0.4,0.9,1.4,0.8,2.3c-0.6,3.4-4.6,4.8-7.5,5c-5.7,0.4-6.1-5-2.1-6.4c1.5-0.5,2.9-0.4,3.7-0.5c-1.4-1.1-3.2-3.7-2-5.4
			c0.6-0.8,2.8-1.3,3.7-1c0.5,0.1,1.4,0.6,1.8,1.1c0.3-0.3,0.6-0.6,0.9-0.6c0.4-0.1,0.8,0.2,0.4,0.5C57.2,15.3,56.9,15.5,56.6,15.8z
			"/>
		<path fill="#4D4D4D" d="M67.9,17.5c-0.3,0-0.3-0.3,0-0.4c1.3-0.1,2.8-1.5,3.5-3c0.1-0.3,1.5-0.4,1.4,0c-1.2,2.9-2.2,5.9-3.6,8.6
			c0.5-0.7,1.2-1.4,2-2.2c0-0.3,0-0.6,0-0.9c0.1-0.2,0.4-0.7,0.5-0.1c0,0.1,0,0.2,0,0.3l0-0.1c0.7-0.8,6.6-5.7,7.3-6.1
			c1.8-0.8,2.2,0.4,1.3,0.8c-0.3,0.2-2.6,1.4-4.5,2.6c-2,1.3-3.5,2.7-4,3.1c0.6,2.3,1.1,3.4,2.6,5.3c0.7,0.8,1.4,1.3,2,1.3
			c1.1,0,0.6-1.2,0.2-1.8c-0.3-0.5,0.2-0.4,0.4-0.1c0.2,0.2,0.5,0.8,0.5,1.2c0,0.9-1.1,1.3-1.7,1.3c-2.8,0-4.1-3.6-4.6-6.4
			c-1.3,1.5-2.6,3.1-3.4,4.2c-1.3,2.1-2.8,3.8-4.3,4.3c-0.7,0.2-1.3,0.2-1.8,0.1c-0.6-0.2-1-0.6-1.2-1.3c-0.1-0.4,0.2-0.9,0.4-0.1
			c0.2,0.4,0.4,0.7,0.8,0.8c0.4,0.1,1,0.2,1.5,0c1.7-0.5,3.2-2.4,4.4-4.6c1.4-2.6,2.4-5.4,3.2-8.1C69.9,17.1,68.8,17.4,67.9,17.5z"
			/>
		<path fill="#4D4D4D" d="M78.4,26c-1.6-2.1,3.4-5.4,5-5.8c0.7-0.2,1.6-0.2,2.2,0.2c0.2,0.2,0.4,0.4,0.4,0.6c0,0.2,0,0.2-0.1,0.1
			c-0.2-0.4-0.7-0.4-1.1-0.4c-1.1,0-2.7,0.9-3.8,1.9c-0.6,0.6-2.4,2.7-1.8,3.6c0.3,0.4,1.4-0.4,1.7-0.6c0.6-0.5,1.6-1.3,2.1-1.9
			c0.3-0.3,2-2.2,2.2-2.2c0.2,0,1.1,0.2,0.9,0.5c-0.8,1.1-1.2,2.5-1.3,3.2c-0.1,0.9,0.3,1.5,1,1.1c0.7-0.4,2.4-1.8,3.3-3.1
			c0.1-0.2,0.4,0,0.3,0.2c-0.4,0.8-1.8,2.2-2.9,3c-0.7,0.5-2.3,1.1-2.8-0.3c-0.2-0.6,0.1-1.9,0.4-2.7c-0.4,0.2-2.5,3.3-4.2,3.3
			C79.3,26.8,78.7,26.5,78.4,26z"/>
		<path fill="#4D4D4D" d="M94.1,20.6c-0.3,0.1-1.5,0.3-2.5,0.4c-0.3,0.5-0.6,0.9-0.6,1.1c-0.7,1.3-1.3,2.5-1.3,3.2
			c-0.2,0.9,0.3,1.5,1,1.1c0.7-0.4,2.4-1.8,3.3-3.1c0.1-0.2,0.4,0,0.3,0.2c-0.4,0.8-1.8,2.2-2.9,3c-0.7,0.5-2.3,1.1-2.8-0.3
			c-0.2-0.5,0.2-1.7,0.7-2.7c-0.2,0.2-0.4,0.6-0.9,1.1c-0.2,0.2-0.4,0-0.2-0.3c0.8-0.9,1.4-1.8,1.7-2.3c0,0,0.2-0.4,0.5-0.9
			c-0.2,0-0.4,0-0.5,0c-0.2,0-0.4-0.2-0.3-0.5c0.2-0.4,0.7-0.4,1.2-0.4c0,0,0,0,0.1,0l1.1-2c0.5-0.9,0.6-1.2,0.9-1.2
			c0.3,0,0.7,0,0.9,0.2c0.2,0.3-0.1,0.7-0.2,0.9c-0.1,0.2-0.3,0.2-0.5,0.5L92,20.4l0.3,0c0.7-0.1,1.2-0.2,2.1-0.2
			C94.6,20.2,95,20.4,94.1,20.6z"/>
		<path fill="#4D4D4D" d="M96.4,32.5c-0.8,1.2-2.1,2.7-3.6,2.4c-0.2,0-0.3-0.1-0.4-0.2c-1.4-0.7-0.7-2,0.4-3.4
			c1.1-1.3,3.4-2.8,4.8-3.7c1-2.1,2.3-4.9,2.6-5.9c-1.2,1.4-3.4,5.1-5.4,5.1c-2,0-1.8-2-1.1-3.2c0.5-1,1.1-1.7,1.8-2.3
			c1-0.9,1.8,0.1,1.5,0.3c-0.5,0.3-1.3,1-1.9,1.9c-0.4,0.5-1.2,2.2-0.6,2.7c0.4,0.3,1.2,0,1.8-0.6c1.6-1.6,2.8-3.3,4.3-5.1
			c0.2-0.5,1.6,0.1,1.5,0.3c-0.6,1.2-1.8,4.2-2.7,5.9c0.6-0.3,2.6-1.9,3.9-3.5c0.3-0.3,0.4,0,0.2,0.4c-0.9,1.2-3.3,3.5-4.6,4.1
			C97.9,29.6,97,31.4,96.4,32.5z M93.3,31.7c-1.7,1.7-1.1,3.5,0.6,2.2c1.7-1.3,2.4-3.6,3.3-5.5C96,29.3,94.4,30.6,93.3,31.7z"/>
	</g>
	<path fill="#4D4D4D" d="M41.9,43.4c2.1,0,3.2-5,1.6-6.8c-0.3-0.4-0.8-0.5-1.4-0.5c-0.2,0-0.4,0.1-0.6,0.3c-0.2,0.1-0.4-0.1-0.2-0.2
		c0.9-0.6,1.8-0.7,2.5-0.2c2.4,1.5,0.6,8-2.3,7.9c-1.4,0-2.7-1.8-2.6-3.9c-0.9,1.1-2.4,2.6-3.7,3.5c-0.9,0.7-1.9,1.2-3,1.2
		c-1.4,0-1.2-1-0.6-2.1c0.7-1.1,1.6-2.4,2.3-3.6c0.7-1,1.5-2.1,1.9-2.9c-1.7-0.1-4.3,0.3-4.3,1.7c0,0.5,0.6,0.7,0.8,0.8
		c0.2,0.1,0.1,0.2,0,0.1c-0.3-0.1-1.1-0.5-1.1-1.2c0,0-0.1-0.1-0.1-0.2c-0.1-1.8,3-2.2,4.8-1.8c0-0.1,0-0.3,0-0.3
		c-0.1-0.2,0.2-0.3,0.4,0c0,0.1,0,0.2,0,0.4c0.2,0.1,0.4,0.1,0.6,0.2c0.2,0.1,0.8,0.7-0.1,0.4c-0.2-0.1-0.4-0.1-0.6-0.1
		c-0.3,0.8-0.9,2-1.6,3c-1,1.4-2,2.9-2.4,4.2c-0.6,1.7,1,1.1,2.6,0c1.6-1.1,3-2.5,4.1-4c0-0.6,0-1.5,0.1-2.1c0.1-0.4,1-1.5,1-0.2
		c0,0.6,0,1.4-0.4,2.2C39.5,41.3,40.6,43.4,41.9,43.4z"/>
	<path fill="#4D4D4D" d="M47,41.9c-0.2,0-0.3-0.2-0.1-0.2c0.4,0,1.2-0.5,1.8-0.9c0.2-0.2,0.7-0.6,0.6-0.9c0-0.4-0.5-0.2-0.7-0.1
		c-0.8,0.4-2,1.5-2.3,2.6c-0.4,1.2,0.7,1.2,1.6,0.8c1-0.4,1.9-1.2,2.4-1.9c0.1-0.1,0.1-0.1,0.2,0c0.1,0,0.1,0.1,0,0.2
		c-0.6,0.9-1.4,1.7-2.4,2.1c-1.4,0.6-3.2,0-2.5-1.8c0.4-1,2.6-2.8,3.6-2.4c0.6,0.2,0.5,0.9,0.2,1.3C49,41.4,47.6,41.9,47,41.9z"/>
	<path fill="#4D4D4D" d="M49.9,43c-1-1.3,2.2-3.4,3.2-3.7c0.4-0.1,1.1-0.1,1.4,0.1l0.1,0c0.9-2.2,2.3-4.7,3.9-4.4
		c0.8,0.2,0.7,0.8,0.4,1.4c-0.8,1.5-2.9,2.9-4.1,4c-0.3,0.7-0.6,1.6-0.8,2.3c-0.2,0.9-0.3,1.5,0,1.9c0.1,0.2,0.4,0.3,0.6,0.1
		c0.1,0,0.1-0.1,0.2-0.2c0.2-0.1,0.2-0.1,0.2,0.1c-0.1,0.1-0.1,0.2-0.2,0.2c-0.2,0.1-0.7,0.2-0.9,0.1c-1.4-0.2-0.3-3.2,0.1-4.2
		c-0.9,1-2.3,2.6-3.2,2.6C50.5,43.5,50.2,43.3,49.9,43z M54,39.6c-0.7,0-1.7,0.6-2.4,1.2c-0.4,0.4-1.6,1.7-1.1,2.3
		c0.2,0.3,0.9-0.2,1.1-0.4c0.9-0.8,1.9-1.7,2.8-2.6l0.2-0.5C54.4,39.7,54.2,39.6,54,39.6z M58.6,36.2c0.4-0.7,0.1-1.1-0.6-0.5
		c-1.3,1-2.1,2.3-2.8,3.9C56.4,38.9,58,37.4,58.6,36.2z"/>
	<path fill="#4D4D4D" d="M55.2,43c-1-1.3,2.2-3.4,3.2-3.7c0.4-0.1,1.1-0.1,1.4,0.1l0.1,0c0.9-2.2,2.3-4.7,3.9-4.4
		c0.8,0.2,0.7,0.8,0.4,1.4c-0.8,1.5-2.9,2.9-4.1,4c-0.3,0.7-0.6,1.6-0.8,2.3c-0.2,0.9-0.3,1.5,0,1.9c0.1,0.2,0.4,0.3,0.6,0.1
		c0.1,0,0.1-0.1,0.2-0.2c0.2-0.1,0.2-0.1,0.2,0.1c-0.1,0.1-0.1,0.2-0.2,0.2c-0.2,0.1-0.7,0.2-0.9,0.1c-1.4-0.2-0.3-3.2,0.1-4.2
		c-0.9,1-2.3,2.6-3.2,2.6C55.8,43.5,55.4,43.3,55.2,43z M59.3,39.6c-0.7,0-1.7,0.6-2.4,1.2c-0.4,0.4-1.6,1.7-1.1,2.3
		c0.2,0.3,0.9-0.2,1.1-0.4c0.9-0.8,1.9-1.7,2.8-2.6l0.2-0.5C59.6,39.7,59.4,39.6,59.3,39.6z M63.8,36.2c0.4-0.7,0.1-1.1-0.6-0.5
		c-1.3,1-2.1,2.3-2.8,3.9C61.6,38.9,63.2,37.4,63.8,36.2z"/>
	<path fill="#4D4D4D" d="M61.4,40.3c0.2-0.4,0.3-0.8,0.5-0.8c0.2,0,0.4,0,0.5,0.2c0.1,0.2-0.1,0.4-0.3,0.9c-0.4,0.8-0.8,1.6-0.8,2
		c-0.1,0.6,0.2,0.9,0.6,0.7c0.4-0.3,1.5-1.1,2.1-1.9c0.1-0.1,0.2,0,0.2,0.1c-0.3,0.5-1.1,1.4-1.8,1.9c-0.4,0.3-1.5,0.7-1.8-0.2
		c-0.1-0.3,0.1-1.1,0.4-1.7c-0.1,0.2-0.3,0.4-0.5,0.7c-0.1,0.2-0.3,0-0.2-0.2c0.5-0.6,0.9-1.1,1.1-1.4
		C61.4,40.4,61.4,40.4,61.4,40.3z M62.5,38.7c-0.3,0-0.6,0-0.6-0.3c0-0.1,0.8-0.6,0.8-0.7c0.6-0.5,0.2,0,0.2,0.3
		C63,38.2,62.7,38.7,62.5,38.7z"/>
	<path fill="#4D4D4D" d="M66.1,40.7c-0.8,0.7-2,2.6-2.2,2.7c-0.1,0.1-0.9,0.4-0.7,0.1c0.1-0.3,0.9-2.7,1.2-3.4
		c0.1-0.2,0-0.8,0.7-0.6c0.2,0.1,0.2,0.2,0.1,0.4c-0.4,0.8-0.8,2-1,2.5c0.6-0.7,1.8-2,2.6-2.6c0.8-0.6,1.4-0.5,1.1,0.3
		c-0.2,0.5-0.5,0.9-0.7,1.4c-0.2,0.4-0.3,0.8-0.3,1.1c-0.1,0.6,0.2,0.9,0.6,0.7c0.4-0.3,1.5-1.1,2.1-1.9c0.1-0.1,0.3,0,0.2,0.1
		c-0.3,0.5-1.1,1.4-1.8,1.9c-0.3,0.2-0.7,0.4-1.1,0.4c-1.5-0.1-0.3-2.4,0-3C67.2,40.2,67.2,39.8,66.1,40.7z"/>
	<path fill="#4D4D4D" d="M71.2,47.1c-0.5,0.8-1.3,1.7-2.3,1.5c-0.1,0-0.2-0.1-0.3-0.1c-0.9-0.4-0.5-1.3,0.3-2.1
		c0.7-0.8,2.2-1.8,3.1-2.4c0.6-1.3,1.2-2.6,1.4-3.3c-0.4,0.5-0.9,1.1-1.1,1.3c-0.5,0.6-1.3,1.4-2,1.4c-0.3,0-0.7-0.2-0.9-0.5
		c-1-1.3,2.2-3.4,3.2-3.7c0.4-0.1,1-0.1,1.4,0.1c0.1,0.1,0.3,0.2,0.3,0.4c0,0.1,0,0.1-0.1,0.1c-0.1-0.2-0.4-0.3-0.7-0.3
		c-0.7,0-1.7,0.6-2.4,1.2c-0.4,0.4-1.6,1.7-1.1,2.3c0.2,0.2,0.8-0.1,1.4-0.6c0.9-0.7,1.8-1.7,2.3-2.3c0.1-0.3,1,0.1,0.9,0.2
		c-0.4,0.8-0.9,1.8-1.4,2.9c0.4-0.2,1.6-1.2,2.5-2.2c0.4-0.4,0.4-0.1,0.1,0.3c-0.6,0.7-2.3,2.2-2.8,2.5
		C72.2,45.3,71.7,46.4,71.2,47.1z M69.2,46.7c-0.6,0.6-0.9,1.4-0.5,1.6c0.1,0.1,0.3,0,0.7-0.2c1.1-0.9,1.7-2.3,2.3-3.5
		C71,45.1,70,45.9,69.2,46.7z"/>
	<line opacity="0.52" fill="none" stroke="#4D4D4D" stroke-miterlimit="10" x1="0.1" y1="11.6" x2="106.1" y2="11.6"/>
	<line opacity="0.52" fill="none" stroke="#4D4D4D" stroke-miterlimit="10" x1="0.1" y1="32.6" x2="106.1" y2="32.6"/>
</g>
</svg>
