<?xml version="1.0" encoding="utf-8"?>
<!-- Generator: Adobe Illustrator 18.1.1, SVG Export Plug-In . SVG Version: 6.00 Build 0)  -->
<svg version="1.1" id="Layer_1" xmlns="http://www.w3.org/2000/svg" xmlns:xlink="http://www.w3.org/1999/xlink" x="0px" y="0px"
	 viewBox="0 0 49.2 99.8" enable-background="new 0 0 49.2 99.8" xml:space="preserve">
<g>
	<g>
		<path fill="#D3C883" d="M14.7,75.1C10.4,82.2,6,89.3,1.7,96.4C1,97.4,2.1,99,3.4,98.6c6.1-2,12.1-3.9,18.2-5.9
			c1.8-0.6,1-3.5-0.8-2.9c-6.1,2-12.1,3.9-18.2,5.9c0.6,0.7,1.1,1.5,1.7,2.2c4.4-7.1,8.7-14.2,13.1-21.2
			C18.3,75,15.7,73.5,14.7,75.1L14.7,75.1z"/>
	</g>
</g>
<g>
	<g>
		<path fill="#D3C883" d="M4.4,98.2c14.1-13.9,32.2-27.7,39.8-46.6c6.4-15.9,3.7-32.7,2.1-49.3c-0.2-1.9-3.2-1.9-3,0
			c1.5,15.7,4.3,32-1.5,47.2c-3.6,9.4-9.9,17.1-16.8,24.2C17.6,81.3,9.9,88.6,2.3,96.1C0.9,97.4,3,99.5,4.4,98.2L4.4,98.2z"/>
	</g>
</g>
</svg>
