<svg xmlns="http://www.w3.org/2000/svg" viewBox="0 0 588.08 291.16"><defs><style>.cls-1{fill:#ffe800;}</style></defs><g id="Layer_2" data-name="Layer 2"><g id="Layer_1-2" data-name="Layer 1"><g id="Layer_2-2" data-name="Layer 2"><g id="Layer_1-2-2" data-name="Layer 1-2"><path class="cls-1" d="M371,110c.12.28.23.81.36.81,3.7,0,7.22,1.87,10.95,1.11l1.6,1.35c.29,1.5-.66,1.83-1.13,2.45-1.49.78-3.25-.26-4.7.61l-.08,1.08c1.16,1.64,3.89-.82,4.42,1.42l-3,3.1a66.74,66.74,0,0,0-8.74-2.67c-3.27-.59-6.25,1.51-9.55,2v2.57h4c1.89.87,1.73,2.72,3,3.7-.45,4.08,1,8.42-1.41,12.34-.9-3.47-.89-3.59.24-7.49-2.62,1.93-2.62,1.93-3.27,4.86-1.15-1.7-.17-3.34-.8-4.87-3.21-1.62-6.28,1.05-9.51.74-.25.74-.45,1.32-.66,1.9-.84-.37-.48-1.17-.79-1.67-2.49,1.17-5.59.13-7.83,2.25v.9c4.44.78,4.6.77,8.86-.49,1-.13,1.26.93,2.13,1.31-1.25,1-2.85,1.36-3.35,2.57-1.49.57-1.75-1.31-2.92-.84-1.68.6-1.65,2.44-2.58,3.57a1,1,0,0,0,1.36.36c2.49-1.63,5.67-.15,8.12-1.75l1.37,1.23c.26,1.83-2,2.2-2.11,3.94l5,1.93c-.85,2.47-3,1.34-4.59,1.82-.51,2.38-3,2.49-5.29,3.57-.78-.09-.49.29-.45.27.44-.27,1.53.6,1.33-.42-.17-.81-1.15-.77-.88.15,1.47,2.16-.31,2.77-1.11,4,.41,1.37,1.43,2.52,1.19,4l1.94.73v8.12c1.38,1.82,3.5,1.88,4.94,3.07.27,1.27-1,1.59-1.53,2.75-2.07-1.89-4.91-.76-6.83-2.5-1,1-.55,1.6,0,2.35,1.09,1.52,3.16,1.64,4.3,3.34.42,2.13-.64,4.71,1.19,6.61-.72,1.47-2,1.82-3.12,2.37.78.55,1.13,1.61,2.4,1.54,1.79-.1,2.81.9,2.58,2.72a2.24,2.24,0,0,1-2.22,2.26,2.34,2.34,0,0,1-.38,0c-1-.11-1.44.63-2.11,1.27-.59,1-.12,2.14-.23,3,1.52,3,5,3,7,5.14v3.21c-1.6.63-3.55.71-5,2-.27,1.27.93,1.62,1.47,2.4h6c1.07.88,2,1.79,1.45,3.63L358.16,219h-6.49a3.17,3.17,0,0,0-1.57,3.71l2.91,2.2v2.72a29.59,29.59,0,0,0,5.9,3.81,7.47,7.47,0,0,1-.15,3.39c-4.85,1.21-8.13-3.32-12.39-3.89-.51,1.09-.47,1.68.19,2.09,5.57,3.45,5.57,3.45,6.93,6,2.21.21,4.59-.65,6.71,1.27,4.07-3.83,9.2-5.9,13.88-8.68,4.43-2.64,9-5,13.07-8.22,4.12-.2,6.24-4.09,9.78-5.34,1.83-.65,2.54-2.52,3.91-3.25v-3.1c-2.1,1.21-4.58,1.17-5,4-2.41.59-3.49,2.83-5.3,4.22H388.1c-.05-.74-.09-1.37-.11-1.64L393.2,213l1.1-.05a52.55,52.55,0,0,0,10.2-11.11,34.43,34.43,0,0,0,4.38-9.15c.62-2,1.94-2.73,3.1-4,1.41,1.07,1.31,2.14.66,3.12-2.06,3.13-2.75,7-5.6,9.7-.25.23,0,1,0,1.47h-1.81c.15,2.68-2.75,4.05-3.28,6.82,3.54-.77,4.76-2.52,5.09-6.82,1.43.46,2.23-1.21,3.56-1.06,1.59-1.63.85-4.39,2.8-5.81,1.41-.52,2.48.19,3.54.9l3.14-1.48c-.08-1.74-1.51-3-2-4.53,0-1,1-1.25,1.54-2.14.67,1.64,2.64,1.63,3.42,3s2.47,1.74,3.43,3,2.37,2.34,3.48,3.58c1.32,1.47,3.11,2.08,4.84,2.81A5.65,5.65,0,0,0,438,205a34.57,34.57,0,0,0,9.24,3.15,38,38,0,0,0,8.11.8c1.51,0,2.46,1.8,4.09,1,1.24,1-.51,3.32,2,3.7,6.33.67,12.36,4.83,19.29,3,.28-.07.48-.45.37-.35,3.21,1.3,6.39.29,9.42.72,3.15,3.06,12.89,8.34,17.94,9l4.63,5h3.26c2,1.27,1.66,3,1.49,4.69l-1.68.6c-.87,1.2.66,1.63.8,2.46,0,1.51-1.31,1.67-2.22,2.9-1.56-3.27-2.87-6-4.18-8.72l.48-.27-3.94-3.43c-2.79-1-6.19-1.75-9.14-3.35s-5.69-3.19-8.9-4.94c-3.24,1-6.57-1.12-10.16-1s-7.44-.52-11,.16c-6.53,1.23-13,.65-19.34.9-.76-.44-.6-1-.64-1.61l11.68-3.56c-1.8-1.2-3.09-.65-4.22-.9-1-.7,0-1.93-.7-2.71-5.57-.73-11.1-3.71-16.68-.15l-4.45-2.3c-.82,1-1.64,2-2.61,3.16.28,1.2,1.62,2.37,1.07,4h2v1.49c-.26.17-.51.45-.79.49-2.07.27-4.25-.53-6.25.56s-4.17-.32-5.72.59c-1.87,1.08-4.25.06-5.74,1.86-3.74-.38-7.08,1.4-10.63,2a14.36,14.36,0,0,0-4.83,1.53c-2.5,1.51-5.34,1.66-8,2.33a28.34,28.34,0,0,0-4.86,1.55c-5.28,2.51-10.58,4.94-16.05,7a22.4,22.4,0,0,0-5.62,3.36,21.24,21.24,0,0,1-7.7,4.24c-1.45.36-2.72,1.41-4.07,2.15a8.6,8.6,0,0,0-6.46-1c-.8.7,0,1.94-.38,3.34l3.29,2.39,2.42.11a2,2,0,0,1,.33,2.35A7.71,7.71,0,0,1,347.5,257c-1,.09-1.49.51-2.46,1.58-.31,1.26.52,3.41-1.25,4.86-.51.93-1.94.73-2.68,2.17v5.72L338.44,274a1.38,1.38,0,0,1-.39-1.75,8.67,8.67,0,0,0,.79-5.73c-2.16-1.8-2.16-1.8-4.59-.22,1.29,2.21.61,4.64.73,7,0,.5-.35.9-1.06.79-.09-1.63-.09-3.25-.09-4.83-1.65-.59-2.09.71-3,1.6.52,1,1.06,2.14,1.59,3.23h1.46c-.16,1.74-2.4,1.59-2.8,2.69-.56,1.54-1.81,2.21-2.68,3.32-.79-.19-1.69.38-2.35-.41.87-2.79.87-2.79-.09-6.6,2.24-.34,1.14,3.51,3.81,2.88v-4.68c-3.17-.16-3.17-.16-4.81.8a12.64,12.64,0,0,1-2.46,0c-.57-.12-.75-1.09-1.55-1-1,0-1.23,1-1.91,1.42.58,1.19,1.73.23,2.53.7,1.14,1.46-.24,2.55-.56,3.83s-2,2-.76,3.54c-1.49.64-3,.91-3.93,1.78-1.2,1.11-2.45.54-3.66.74-1.45-.75-2-2.56-3.7-2.8v-2.69c-.59-.42-.86-1.27-1.73-1.3-.91,1.72.06,2.79,1.73,4,.54,1.37-1.73,2.26-1.15,4l2.41,2.68c-2.55.24-4.15-.1-5.33-2.29-.89-1.65-3-2.2-4.07-4-1.25,1.51-.77,2.81-.75,4l1.87,1.88c-1.48,1.07-2.62.58-3.82-.86v-5.11c-2.44-.36-2.44-.36-4.17,1.19.1,1.43,2.23,2.67.21,4.51a22.1,22.1,0,0,0-8.92-4.3c-.48,2.57-.7,5,.85,7.25-2.43,2.21-4,2.64-6.31.75a24.72,24.72,0,0,0-6.42-3.88c-2.38-1-4-3.15-6.37-3.91-1.42-.46-.58-1.8-1.55-2.12-1,.93.13,2.77-1.41,3.4-2.34,1-4.67,2.07-7.76,1.42l-2.55-3.08L251.57,284c-2.74-2.27-5.15-4.67-4.52-8.71-1.19,0-1.45.88-2.05,1.27.77,3.6,2.84,6.71,4.08,10.05-.94.62-1.46.53-2,0-1.3-1.15-2.13-3-4.45-2.67-.58.07-1.7-1-1.59-2.16.14-1.56-1.21-2.44-1.65-3.88-1.9.31-1.42,3.4-4,3.11-1.4-2.78.84-4.88,1.7-7.3l-1.36-1.48c-2.09.73-3.91,2.69-6.45,1.59-1-2.22.14-4.06,1.26-5.74,1.64-2.46,1.42-5.4,2.44-8a4.74,4.74,0,0,0,0-1.68,1.74,1.74,0,0,0-2.42.38,1.54,1.54,0,0,0-.26.53c-1.74,3.7-4.93,5.76-7.79,7.7-1.5.14-1.67-1-2.47-1.26.57-.85,1-1.75,2.13-1.7,1.79.08,2.66-.81,2.92-2.9h-8.66a3.66,3.66,0,0,1-.36-2.73c1-.91,1,1.36,1.42,1,2.08-.95,1.46-2.83,3.51-3.74-3-.93-5.69-.27-7.39-3,1.87-.86,3.36-1.11,4.86.28.53-.86,1.62-.79,2.4-1.31v-4.52H216.2c-.18-1.73-.77-3.3.9-4.68-2.42-1.6-4.55,2-7.08.11-.38-3.78,2.89-5.58,4.95-8.09a3,3,0,0,0-3.25-.34c-2,2-3.87.57-5.18-.25-2-1.28-4.61-.59-6.48-2.73-1.4-1.6-4-2.11-6.12-3.12a8.66,8.66,0,0,1-2.85-1.49c-2.6-2.92-6.66-2.52-9.72-4.4a3.21,3.21,0,0,0-3.67.6c-.73.7-1.94.9-3.14,1.41L158.42,218c-2.88,0-7.12-.54-11.14.14-4.23.73-8.5.24-12.58,1-4.26.81-8.79.75-12.78,2.84-2-.68-2.43,2.07-4.15,2-2-1-.21-1.76.22-2.81h-4.7c-1.12,1.63-3.22,2.59-5,4s-2,3.8-2.68,5.8h-2.2c-.9-1.35-.11-2.89-.57-4.37l6-6c.58-.57,1.14-1.41,1.84-1.57,3.06-.71,4.74-3.21,6.82-5.06,1.68,0,3.39-.43,4.37,1.26,3.69-2.56,5.6-7,10.71-7.33,2.3-3.93,7-4,10.81-5.69,2.79-1.2,5.92-1.71,8.78-2.93a3.78,3.78,0,0,1,1.37-.29c2.83,0,5.67-.06,8.5,0s5.24-1.84,8.68-.67a10.8,10.8,0,0,0,6.56,1.88c1.52-1.76,1.08-6.05,4.58-7.4-1.21-3.06-5.15-3.33-6.36-7.32,4,1.51,5.44,4.58,8.06,6.45a2.91,2.91,0,0,0,3.4-1.54c.1-1.37-1-1.75-1.57-2.4-1.28-.51-1.73,1.73-3.22.74-.56-1.13,0-2.48-.21-3.75a5.4,5.4,0,0,1,4.47,1.48c.34-1,.65-2,1.25-3.86-.28-1.51-3.08-.24-4.7-.74v-1.5l5.77-1.67c.11-.45.23-.9.36-1.42,1.44-.88,3.21.29,4.67-.62l1.13-1.12-2.48-2.68c-1.69.81-3.44,1.14-4,3.26-3.18-1.23-6.11,1.49-10.12.56,4.13-1.69,7.2-4.12,11.14-3.67.76-1.07.33-2.08.21-3a6.12,6.12,0,0,1,1.71,0c.57.19.75,1.09,1.83.93.81-1.59,3.21-.29,4.29-2,.22-.35.44-.48.17-.71L196.57,167h-4.19a31.85,31.85,0,0,0-2.67,2.9c-3.19-.17-6.45.26-9.28,2.9h-4c-.72-.72.13-1,.35-1.1,2.08-1,4.17-2.51,6.33-2.63s2.74-2.85,5.18-2.26c2.05.5,3.46-1.23,4.9-2.53,1-.93,2.52-.1,3.62-.44.5-2.1.2-3.56-1.92-3.93s-2.6,1.39-3.18,2.84c-2.1-1.08-4-1.43-6.22,0-1.73,1.13-4,1.45-5.91,2.09-.67-.4-.52-.93-.57-1.8,3,.38,4.76-2.71,7.72-2.18.19-.72.3-1.17.42-1.62,1-.88,2.26,0,3.77-.76l1.42-1.53h4.28l-.53-.71,1.89-1c.17-1.26-.67-1.45-1.09-2.16-1.86.82-4.14.75-5.48,2.74-2.2-.85-4.13,1.74-6.34.8-.08-1-.17-1.6.74-1.81,4.22-1,7.9-3.6,12.32-4.05,1-.1,1.93-.94,2.87-1.42-.66-1.49-2.51-1.33-3-2-4.47-.26-7.45,3.28-11.25,3.54l3-3.12c4-.53,8-4.22,13.69-4.6-1.75-2.71-3.43-2.73-5.33-1.94-2.28.95-4.73,1.61-6.77,2.91-1.5,1-2.73.47-4.08.6-.3-1-.46-1.6.75-2,2.79-.85,5.45-2.25,8.28-2.84,1.53-.32,2.18-1.28,3.4-2.23h4.23v-2.82c-6.51-.66-11.65,3.81-17.72,4.91-.46-1.91.55-2.51,1.88-3,3.91-1.39,7.91-2.61,11.67-4.35,1.76-.82,3.84-.15,5.33-1.63s3.68-.77,5.51-1.07a3.76,3.76,0,0,0,1.55-3.89c-.61,1.28.76,1.55,2.4,2.11-.42-1.88,3.3-.17,2.23-3.06a8.46,8.46,0,0,0-4.63,1,15.85,15.85,0,0,1-6.61,1c-5.66,2.27-10.85,6-17.3,6l-.22-1.39a69.59,69.59,0,0,1,13-4.55c3.18-.8,5.81-3,9.22-3.17,1.46-.09,2-1.88,3.22-2.86l-1.17-1.35c-.71-.7-.71-.7-3.55,2.13-2.73-1.81-4.76-.15-7.22,1a41.6,41.6,0,0,1-11.77,3.29c2-3.06,5-2.48,7.2-3.51s4.77-2.1,7.08-3.1c.31-1.13-.46-1.59-1.14-2.21-2.3.27-4.42,1.51-6.88,1.77-2.29.25-4.27,2.53-6.92,1.59-.18-2.44,2-2.12,3-2.57,2.35-1.1,5.08-1.37,7.59-2.18,1.84-.59,4.07-.9,4.53-3.54-2.79-1.23-4.91.64-7.26,1.2-2.54.61-5,2.09-8,1.1,4.25-2.88,9-3.74,13.61-4.76a42.4,42.4,0,0,0,5.67-2c1.65-.62,2.11-1.89,1.73-3.87-2.52,1.42-5.47,1.23-7.88,3.21-2.11,1.74-5.62,1-7.26,3.34-5.88,1.61-10.9-.83-15.89-2.77-2.74-1.06-4.22-3.76-5.08-6.61-4.87-1.51-9.55,1.58-14.48.54-.47-.28-.26-.82-.34-1.61,4.32-.69,9,.67,13-1.83a1.49,1.49,0,0,0-.77-1.67A12.76,12.76,0,0,0,166,94.84c-1.82-.27-3.27-1.65-5.35-.16-1,.71-2.81.25-4.43.33,2.63-3.22,6.17-3.82,11.4-2.08.73-.76.53-1.41-.17-2.07-1-.92-1.89-1.88-2.87-2.85-1.42.08-3.08-.6-4.27.32-1.44,1.1-2.74.35-4,.69L156,87.53a25.81,25.81,0,0,1,4.19-1.5,25.67,25.67,0,0,1,4.47,0c.6-1.24-1-1.1-.78-2H156.5c-.64-.58-.46-1.06-.35-1.88h6.76V78.36c-1.13-.93-2.61.15-3.71-.71-1-2,1.16-1.37,1.77-2.13v-2l-7-6.65V64.5c.54-.91,1.46-.39,2.27-.54l4.94,5c2,.26,2.28-1.7,3.58-2,.32.08.7.07.91.25A16.78,16.78,0,0,1,171.11,76c.35,1.47.79,3.5,2.84,4,.37,1.93.76,3.82,3,5,0-1.92.34-3.51-.24-5H174c.24-4.71-2-9.17-.42-14.87L170.47,68c-1-.5.19-2.28-1.52-2.17.22-3.34.29-6.43-2.43-8.77-3,2.21-.81,7.24-4.8,9.3-1.31-1.64-.44-3.34-.87-5.3-3.72-1.52-7.6-3.44-12.3-4.42l-1.71,3.15-.74-.56-.19,2.66c-2.17.53-4.91-.75-6.78,2.35,1,4-3.75,7.5-3.12,12.28-.61.6-1.1,1.53-1.8,1.72-3.08.87-4,3.62-4.77,6-1.38,4.09-3.79,7.47-6.08,11-.92,1.42-2.14,3-2.21,4.52-.08,1.82-1.09,2.63-2.05,3.71-1.1,1.23-4.1,9.58-4.1,11.26a1.71,1.71,0,0,0,.87,1.58c-1.83,5.59-5.24,10.55-5.85,16.51-2.82,4.51-2.57,10.25-6.07,15,1,4.7-1.42,9.55-.93,14.63-1.36,2.37-1,5.15-1.86,7.71A32.81,32.81,0,0,0,99,181.19a11.22,11.22,0,0,1-.68,3.19c-.58,2.08-.9,4.5.27,6.65a6.34,6.34,0,0,1,.36,4.31c-1.24,6.51-1.31,9.07.06,15.18.39,1.73-.87,3-1.42,4.39-1.32.51-1.64-.84-2.8-1.33A10,10,0,0,0,96,208.1a110.09,110.09,0,0,1,0-11.49c.21-2.68-1.61-4.92-1.11-7.59.23-1.24.52-2.45.84-3.63a30.32,30.32,0,0,0,1.35-6.53,43.47,43.47,0,0,1,2.11-10.57c1-3.21,2.13-6.37,1.7-9.76-.53-4.13,1.56-8,1-11.85,3.66-5.22,4.06-11.56,7-16.77-.49-2.21-2.59-1.55-3.86-2.31a14.54,14.54,0,0,0-10.78-1.45c-4.09.93-8.47.73-12.32,2.78a1.67,1.67,0,0,1-1.89-.28c-.23-.78-.14-1.13.76-1.77,1.79-1.27,4.23-.17,5.74-1.9,5.53-.26,11-1.46,16.58-1.1,1.29.08,1.88,1.09,3.07,1.2.81.07,1.49,1.19,2.58.89a1.4,1.4,0,0,0,1.54-1c.64-2.77,1.92-5.42,1.54-8.4a7.82,7.82,0,0,0-4.68-3c-1.8-.47-3.27-1.19-4.82.33-.17.17-.65.07-1,0-5.26-.76-10.34,1.64-15.57,1-1.92-.26-3.24,1.38-5.09,1.09-.8-.13-1.09,1.12-2.09,1a28.86,28.86,0,0,0-3.48,0c-.12-1.11.8-1.35,1.17-2,5.93,0,11.31-3,17.22-3.08s11.94-1.87,17.45-.8c1.11-.69.81-1.23.89-1.69-.29-.17-.55-.46-.82-.46-5.67,0-11.35-.33-17,.1-3.23.24-6.51,1.13-9.72,1.65-3.6.58-7,1.8-10.63,2.17a9.16,9.16,0,0,0-2.59,1c-2.46.93-3.79,3.11-5.46,4.84-1.51,1.57-3.2,2.83-4,5.33-1,3-3.57,5.52-5.6,8.14a46.38,46.38,0,0,1-3.82,3.86L51,134.19a7.22,7.22,0,0,1,2.77-3.71,15.87,15.87,0,0,0,4.77-5.4,45.58,45.58,0,0,1,6.39-8.91c1.67-1.69,3.94-2.79,4.85-5.37a12.64,12.64,0,0,1,4.53-5.59c5.55-4.19,10-9.5,15.17-14.1a63.46,63.46,0,0,1,9.68-6.74c6.21-3.71,12-8,18-12,3.14-2.09,6-4.61,9.35-6.39a3.24,3.24,0,0,0,1.39-1.4c1.61-3.49,5.18-5.34,7-8.69.72.39,1.47-.24,2,.58v2.18l.8.9-4.25,2.33h3.1c2.63-2.43,4.67-5.48,8.38-6.17,0-1,.32-1.76-.27-2.62H139.4c-1.15,1.31-3.08,1.29-4.53,2.75-2.07.4-4.09,1.75-5.91,1.18L113.14,67.27c-.09.79-.17,1.58-.26,2.35-.32.13-.62.36-.89.34-3-.28-6.07.45-9.14-.87-2.22-1-4.62.55-6.81,1.42-.64.26-1.47.94-.71,2.38,3.28.59,7.64-3,10.54,1.68l-1.21,1.27c-5-1.33-10-1.62-15.12,1.6,3.14,1.2,5.55-1.74,8.23-.17.34.48,1.23.82,1.27,1.42-.12,1.3-1.06,1.59-1.6,2.41a18.39,18.39,0,0,0-9-1c-.39.93-1.68.56-2.38,1.29.91,1.08,2.12.3,3.18.55,1.94,1.66,1.92,1.69,2.67,3.6-3,1.84-5.8-1.73-8.75-.35L83,86.39c1,1.12,2.43.28,3.6.67.49.79,1.87,1.06,1.23,2.59-2.4,1.53-4.67-1.52-7.19-.67-2.19.73-4.38,1.48-6.56,2.23.85,2.55,3,1.43,4.55,1.88l1.24,2.53L78.53,97c-.86-1.33-2.74-.77-3.34-2.3-2.77,1.16-5.65,1.2-7.06,4L70,100.44c-1.82,2.55-5.58,1-7.39,3.49-1.66,2.22-.42,6.14-4.26,7.38-.61,1.16-1,2.89-2.1,3.83-4.1,3.54-6.43,8.31-9.15,12.75s-5.74,8.32-8.77,12.37c-1.46,2-2.16,4.51-3.65,6.45a12.21,12.21,0,0,0-2.78,6.4c-.25,2.19-2,4-3.86,5.17-.05,1.8,0,3.23-1.32,4.69-1.55,1.66-1.62,4.28-2.42,6.44-.74,2-.58,4.3-2.19,6.13-.5.57-.08,1.94-.08,2.94-1.66,1.57-3,3.26-3,5.75s-2.18,4.1-2.34,6.54c0,.45-.72,1-.62,1.71.55,4.12-1.29,7.73-2.54,11.45a5.62,5.62,0,0,0-.46,1.8c.06,5.16-2.08,10-2.07,15.17a8.29,8.29,0,0,1-1.09,3.49c-1,1.82-1.15,3.23-.06,4.85s-1,2.91-.86,4.06a9.29,9.29,0,0,0,3.44,5.5c2.58,1.19,4.89-1.1,7.3-.83,1.15,2.8-1,3.68-2.3,5.06h-3c-.81,1.51-.57,2.81,1.37,3.95-2.53,1.65-3.06,4-4.27,6H9.23v-7.8c.27-.55,1.59-1,1.69-1.56L6.61,239c-1.54-.1.45,2.74-1.5,2.22-.45,2.79.68,5.51-1,7.7,1.37,5.33,4.62,10.09,3.8,15.82a5.09,5.09,0,0,1-1.07.27,11.36,11.36,0,0,1-1.43,0,21.11,21.11,0,0,1-1.52-5,67.42,67.42,0,0,0-2.75-9.33c-1.4-4.28-1.6-4.33-.08-8.59,1.2-3.38,1.64-6.92,2.8-10.32s1.85-7.19,3-10.76c.45-1.4,1.91-2.78,1.15-4.53s1.11-2.58,1-4.09c-.16-2.73,1.39-5.19,1.66-7.74.33-3,1.49-6,1.27-9A15.64,15.64,0,0,1,14,187c2.36-4.39,3.69-9.14,5.35-13.79a162.42,162.42,0,0,1,10.16-23.28c2.32-4.24,4-8.84,7.45-12.4.48-2.93,3.36-4.1,4.73-6.52,3.39-6,7.45-11.6,11.29-17.33a10.66,10.66,0,0,1,2.38-2.5,6,6,0,0,0,2.44-4c.15-2.41,1.72-4,3-5.26,4.11-4.26,7.26-9.41,11.92-13.11,9.5-7.54,17-17.12,26.16-25,5.59-4.84,11-10,17.06-14.23a8,8,0,0,0,3-4.26c.77-2.49,2.42-4.1,4-5.74-1.54-2.62-2.57-5.56-5.2-7.28a18.54,18.54,0,0,0-9.43-1.19c-.48-2.12-.67-3.85,1.23-5.1h6l2.62-2.77c3.58-1,6.83.42,10.66,1,2.49,1.93,3.32,6.64,8,6.79-.32,2,2.1,2.46,2.22,4.12-.52,1.27-2.11.79-2.71,1.9-1.35-.31-2.46-1.49-3.94-1.16L127,30.51a3.19,3.19,0,0,0-1.48-3.43h-4.27c-.41.91-.43,1.34.57,2,5.09,3.12,5.71,5.3,4.27,11.08-.3,1.17-1.5,2.13-1,3.53,1,.64,1.09-1,2-.71a9.55,9.55,0,0,0,2.56,0l.62,1.76c1.23.82,1.71-.36,2.41-.93-.63-1.56-1.14-3.13-.28-4.82,2.71-.16,2.3,2.82,4.08,3.87h6.37l5.48,2.81c1.18,2.48,3.27,4.8,2.67,7.83,2.54,2.47,5.64,2.58,8,3.72,2.29-1.37,2.06-4.65,4.86-4.54,1-1.6-1.85-1.8-.76-3.09-2-2.06-5.21-.8-7.26-3.23l1.88-.7a7.2,7.2,0,0,1,5.11.1c1.71.56,3.39,1.28,3.84,2.57.82,2.42,3.12,3.88,3.83,5.91,1.24,3.51,4.46,5.33,5.93,8.54A3.26,3.26,0,0,0,180,65c1-.17,1.75.74,2.51,1.13,3.33,1.68,6.5,3.43,10.27,4.25a19.09,19.09,0,0,1,10,5.86c2.92-1.21,5.86-1.42,8.46-3.17,2.33-1.56,5.56-.73,8.1-2.16l1.2,1,1.5-1.43c0-.84.07-1.82,0-2.79-.38-4.43,1.3-8.31,2.91-12.3.8-2,1.92-3.81,2.38-6,.56-2.73,3.27-4.33,5-6.17,2.53-1,4.42,1.33,7,.82a13.58,13.58,0,0,1-2.26,1.34c-.94.93-2.58.17-4.43,1.2,1.23.36,1.37,1.56,2.42,1.41,3.11-.43,5.92,1.7,9.09,1,1.53-.32,2.47.94,3.92,2-2.06,0-4,.58-5.27-.14-1.93-1.11-4-.26-5.62-1A14.79,14.79,0,0,0,231,49a2.85,2.85,0,0,0-.86.31l-1.09,1.09c.49,1.35,2,1.32,2.91,2.08-.71,1.18-2.34-.21-3,1.09l.06,1c.12.12.24.33.36.34,4.45.22,8.49,3,13.11,2.13,1.6,1.86,3.73.67,5.6.94s3.54,1.42,5.59,1.06c2.91-.52,5.63.42,8.29,1.41a10,10,0,0,1-.09,1.51c-1.81-.26-3.43.23-5.48-.73s-4.49-1.88-7-1.21-4.55-1.77-7-.92c-.14.05-.24.23-.36.35a6,6,0,0,1-.07,1.07,27.51,27.51,0,0,0,11.39,2.28c5.25,0,10.23,1.8,15.31,1.17.37.87,1.26,1,1,2.12h-7.58V69c4.07-2.51,7.79.14,11.5.17l2.19,2.2-1.37,2.89c-2.41-1.45-4.58,1.11-7,.76-1-.94.08-2.2-1-3-2.22,0-4.59-.46-6.4,1.71,1.37.39,3,.11,3.82,1.8,0,1,.33,2.17-.26,3.36h-8c-2.23-1.19-4-2.62-6.47-1.63-1.37,2.21-4.31,1.78-6,3.67-1.46,1.63-2.83,3.55-5.13,4.19v2.5L241,89l5.76-3c1.2,0,3.48.68,4.38-.14,2-1.8,4.76.39,6.3-1.86h7a27.54,27.54,0,0,0,3.72-.53c3-.51,5.83-1.69,8.94-1.51,1.5.08,2.45,1.32,4.09,1.15a32.5,32.5,0,0,1,8.11.73,28.82,28.82,0,0,1,11.65,4.6c1.87,1.22,4,3.26,6.36,2.45,2.06-.69,4.24-.62,6.28-1.75a17.59,17.59,0,0,1,7.59-2.24,7.44,7.44,0,0,0,5.2-1.9c-4.91-2.31-11.59-4.75-27.26-5.33V78.39c.83-1,2.09.18,2.91-.94-1.49-.37-2.5-1.75-4.22-1.49-2,.31-3.74-.51-5.43-2.08H277.21c-.43-2-.5-3.72,1.53-5A37.72,37.72,0,0,0,291.13,68a1.82,1.82,0,0,0,.45-.1,2.31,2.31,0,0,0,.36-.34c-.22-1.21.78-1.71,1.42-2.42,7.07-.63,13.39-3.48,20.23-6.56-1.86-.7-3.31-1.07-4.31-.26a4.24,4.24,0,0,1-4.63.51c-1.79-1.24-3.48-.72-5.19-.8-3.16-.13-6.33,0-9.5,0-.28,0-.56-.24-.92-.4l.09-1.32c6.2-1.11,12.48,1,18.51-1.12,5.37,2.69,9.43-2.05,14.24-2.52,2.35-2.31,5.31-2.68,8.41-2.65.23,0,.47-.36.68-.53v-2l-1-1c-3.07.54-5.81,1.3-7.54,3.6-1.26-.29-2.48.48-3.51-.74,2.81-1.47,5.66-2.73,8.27-4.37s5.67-2.13,8.42-5.12c-6.63.57-11.35,3.88-16.36,5.92-.68-1.27.21-1.72.77-2.26,3.36-3.27,8.28-3.43,12-6v-1c-1.44-1.27-3.51.41-4.82-.93.73-1.49,2.66-2,2.93-4a9.94,9.94,0,0,0-1.86-1.5,6.05,6.05,0,0,0-2.08,0v2.26c-2.1,2.46-4.67,3.74-7,5.36A26.83,26.83,0,0,1,312,41.08c-2.75.9-5.94,1.22-7.72,4.25-3.67-1.45-6.74.88-10.17.82l-1.44,1.68c-1.83.53-3.35-.21-5.05.78a5.74,5.74,0,0,1-5.59-.17,4,4,0,0,0-2.31-.45c-3.67,0-7.34.14-11-.1-1.36-.08-1.86,1.37-3.09,1.08-1.79-1.79-4.05-.91-6.08-.93s-3.59-1.19-6.12-1.5l2.47-.9c-1.28-.13-1.81-1.69-2.9-1.69l-1.86,1.87H240.32c-.5-.66-.11-1.48-1-1.81,0-2.51-1.25-4.33-2.75-6-1.23.66-1.53,2-2.16,3-.53,0-1,.06-1.36-.46-.35-1.45,1-1.87,1.85-3a12.72,12.72,0,0,1,2.17-6.28,48.6,48.6,0,0,1,5.71-8.64c2.94-3.23,11.13-10.78,14.77-12.52.72-.34,1.8-.49,2-1.17.66-2.85,3.2-3.14,5.23-4.17,3-1.54,6-3.14,9.13-4.76.7-.14,1.11.89,1.53.85C278.69.47,281.69,2.26,285,2c.49,0,1.09.18,1.48,0,3.6-1.94,6.51.2,9.56,1.52,2.69,1.16,5.58,1.72,8.21,3.13,4.36,2.32,8.61,4.52,11.22,9.11.83,1.48,3,2.2,4.56,3.26,2.14,1.46,4.16,3,5.35,5.87,4,.53,5.94,3.9,7.62,7.28a107.91,107.91,0,0,1,5.23,12.34c.86,2.49,1.06,5.14,2.26,7.55a12.86,12.86,0,0,1,1.61,7.36c-.08.56,1.06.77.95,1.58a5.21,5.21,0,0,0-.67,4.94c1,2.81,2.09,5.65,1.56,9.14,2.47-.2,4.75-.15,6.69,1s4,1,6.11,1c4.16,0,8.35-.24,12.49.06,7.09.52,14-1.47,21.08-1,4.26-1.75,8.73-1,13.08-.89,1.92,0,3.2-1.77,5.5-1,.46,2.55-.06,5.34.28,8.51L411.84,84l-3.73,2.76c-.21-.07-.56-1.13-1.59-.71-1-1.06-.13-2.77-1.29-3.75,1.55-1.18.29-2.71.84-3.86-1.61-.91-3.34.33-4.45-1.23a1.51,1.51,0,0,0-1.38-.15c-2.58,1.49-5.65.16-8,1.13-3.22,1.31-6.56.64-9.8,1.64-3.05.93-6.61.33-9.93.14-1.86-.1-3.41.65-5.1,1s-3.5-.37-5.14,1c-.59.48-1.9.08-2.73.08a7.9,7.9,0,0,0-2.64,5c1.81-.66,2.43-2.28,3.79-2.87.65.9.21,1.92.34,2.87-2-.1-3.07.75-3,2.85a1.09,1.09,0,0,0,.66,1.14c1.25.23,1.6-1,2.35-1.49V87c1.27-.17,1.62-1.56,2.63-2A3,3,0,0,1,367,86.68c0,2.91.05,6.37,0,9.82-.06,3.21-1.95,6.15-2,9.39a2.08,2.08,0,0,0,2.1-.62c1.67-1.65.06-4.25,1.89-5.74-.54-3.93,1.65-7.58,1-11.58-.11-.77-.78-1-1-1.57L370.54,85l1.58,1.93c-.56,7.49-1.53,15.38-4.85,22.91C368.38,110.32,369.72,109.8,371,110ZM222,257a.68.68,0,0,0,.85-.47.53.53,0,0,0,0-.12c0-.08-.21-.31-.29-.29a2.74,2.74,0,0,1-1.49,1.48c0,.08.22.31.3.3A.73.73,0,0,0,222,257S222,257,222,257Zm-68-48a.71.71,0,0,0-.87.48.52.52,0,0,0,0,.11c0,.08.22.31.3.3A.73.73,0,0,0,154,209s0,0,0-.07a.68.68,0,0,0,.85-.47.53.53,0,0,0,0-.12c0-.08-.21-.31-.29-.29a.7.7,0,0,0-.63.77Zm38,11c0-.59-.09-1.18-.18-2.24-1,.63-1.92-.21-2.74.63A2.71,2.71,0,0,0,192,220.1c.23.86-.65,2.09.75,3,1.23-.5,2.49-1,2.13-3A17.2,17.2,0,0,1,192,220ZM354.17,83.07c-3.33.77-3.33.77-2.49,4,2.43-.46.56-3.36,2.32-4.25h2.7a1.26,1.26,0,0,0-.11-1.78l0,0c-.87,0-1.86-.49-2.57.47A6.48,6.48,0,0,0,354.17,83.07ZM180,212c1.34-.23,2.81.45,4-.48l-.1-1.26a5.12,5.12,0,0,0-3.92.13v1.56l-1.72.13c-.45.78-.45,1.34.16,1.88l1.41-.11A6.83,6.83,0,0,0,180,212Zm14-32h-4.8c-.14,1.24-.63,2.22.32,3H193v2.55a5.93,5.93,0,0,0,1.41,1.28,7.21,7.21,0,0,0,2.17.21c.19-.87,1.57-1,1.42-2.23a5.74,5.74,0,0,0-5-1.82c-.49-1.28.86-1.94,1-3.17h4.77c.66-1.68-.69-2.08-1.83-3.28C196.89,178.69,193.8,176.87,194,180Zm17.24-46.83h-6.1c-.41,1.86.81,2.34,2.15,3,1.29-.77,3.29-.51,2.62-3.34h5.9c.85-2.58-2-1.51-2.37-2.75a5,5,0,0,0-2.2,3.12ZM191,200c-1.42.67-2.08-1.25-3.38-1-1.46,1.69-1.46,1.69-.72,5.45-2.94-3.17-4.54-3.41-7.75-1.11a6.17,6.17,0,0,0,3.44,3.57c1-1.6,3.6-.34,3.41-3.91,1.71-.54,2.92,2.14,5,.55a11.48,11.48,0,0,0-.45-3.68c1,.26,1.68-.09,2.29.43a3.08,3.08,0,0,0,4.31,0,3.65,3.65,0,0,0,.59-.7L195.65,197C193.07,196.4,192.32,198.43,191,200ZM185.86,91c.82-6.84-.53-13.43-2.33-20-3.07,0-4.77-4.73-8.52-2.6v6.2c.74,0,.73,1.29,1.76,1.16.71-1.89-.33-3.95.62-5.76.54,0,1.06-.23,1.61.55V88.14c0,.26.33.52.5.78.46-.07,1,.2,1.48-.62,0-1.39.58-3.35-.11-4.63-1.88-3.52-.24-7-1.16-11.24,1.44.86,2.43,0,3.27,1a21.45,21.45,0,0,0,0,3c.13,1-.58,1.44-1,2.12A1.68,1.68,0,0,0,182,80c1.84,3,.51,6.4,1.1,9.6A11.51,11.51,0,0,0,184.52,91c.22.16.65,0,1.48,0v2.48c-.82.83-1.65,1.65-2.58,2.58a8.15,8.15,0,0,0-1.67-1.78c-5.63-3.06-8.86-8.22-11.42-13.7-.72-1.54-2.26-3.09-2.16-4.51.17-2.26-2.3-2.68-2.35-4.65,0-.69-1.28-.69-1.82.22.23,1.92,1.48,3.4,2.13,5.14,2.1,5.61,4.29,11.2,6.73,16.69,1.93,4.34,5.73,7.46,6.74,11.89,2.23,1,4.43,1,5.9,2.63H193c.62,0,.8-.53,1.22-.69,5.78-2.14,11.56-4.25,17.34-6.38.43-.16.48-.46.23-.69l-1-1.05c-2.29.81-4.53,1.73-6.85,2.38-5,1.4-9.71,3.78-15.08,3.39-.27,0-.52-.32-.79-.49l1.55-1.55c4,.88,7.3-2.49,10.93-2,1.59-1.23,1.92-2.36,1.23-3.73-2.2-1.25-3.92.9-6,.84-1.89,0-3.69,2.11-6.21-.11,1.17-1.49,4.25-.34,4.45-2.59.38-1.41-.56-2.24-1-3.25-.55-1.45,1.23-2.23,1-3.59a5.57,5.57,0,0,1,0-1v-12c0-.18-.48-.35-.85-.6-1.93.21-1.05,2.4-2.14,3.17,1.88,2.91.79,5.93.92,9-.88-.13-1.43.14-1.92-.71.69-3.81-1.7-7.62-1-11.74,0-.13-.37-.34-.51-.46L187,75.46c2,4.64.55,9.43,1.11,14.17C187.16,89.88,187,91.05,185.86,91ZM313,103.15c2.77-1.72,5.64-1.47,6.94-3.78-1.21-.94-2.7.18-3.8-.79-.18-.56.06-1.32-.92-1.65l-4.49,2c-.93-.59-.64-1.1-.63-1.52,1.58-1.07,3.75-1.24,4.94-3.17-2.93-1.08-4.57,1.32-6.7,2-1.8.59-3.25,1.2-4.83-.28-.23-.21-1-.26-1.49.59-.06,1.7,1.71,2.28,2.67,3.46,2.12-.58,3.67.53,5.32,1.51a18.62,18.62,0,0,1-2.41,1.55c-1.2.52-3.38.85-3.41,2.32,0,1.9-1.54,1.75-2.22,2-3.26,1-6.11,3.42-9.73,2.51a4.4,4.4,0,0,0,.21,3.25c2.62-.74,5.52-.87,8.23-1.38a28.75,28.75,0,0,1,9.48-.47l-3.29,2c.94.85,1.57,1.41.82,2.52h-4.05c-5.29,5.39-12.1,4.92-18.62,5.59-.26-.31-.64-.58-1.72-.38l-1.11,1.55,8.72,2.48v3.74c-5.47.71-9.69-1.92-13.51-4.28-1.07-2.06.33-2.77,1.25-3.68.34-.33.45-.48.08-.72l-1.1-1.1c-1.33.35-1.29,2-2.4,3.23-.16-1.45-.25-2.24-.33-3-2.35-1.53-4.25,1.26-6.47.55-.5-2.26-2.59-3.26-3.71-4.72H258.1v2.43c.85.93,2.1-.19,2.85.85l-1.74,1.88c.26,1.57,1.87,1.39,2.88,2.43a10.94,10.94,0,0,0-3.92,1.68c-.64,2.22,2.15.88,1.83,2.52,0,1.3-1.54,1.56-1.9,2.63.39.78,1.75-.06,1.9,1.14.21,1.6-1.85,1.77-2,3.33-.32.85,1.24,1,1,1.91-.09,1.27-1.52,1.57-1.95,2.81l2.78.42c-.29,2.43-3,1.22-3.88,2.31.13,1.69,1.5,2,2,3-.59,1-2,1.31-1.94,2.88,1.87.38,1.9,2.78,3.66,3.45a1.79,1.79,0,0,1,2-.77l1.06,1.41c6.66,2.16,11.26-3,16.5-2.69l2.77-2.15c-.29-4.79-.7-5.36-5.25-7.58a4.42,4.42,0,0,1-4.84.6c1.68-2,3.84-2.45,6.11-2.91-.22-1.4.57-2,1.63-2.53.91.75-.26,2,.76,2.77l3.33.18c.62.92-.25,2.12.91,3,2.14-1.68,4.68-1,7-1.12a1.67,1.67,0,0,1-.1,2.07h-4.87l1.28,1.49c5.55,1.64,10.18-1.76,14.87-.23-2.09,2.31-4.8,1.54-7.34,1.7-.39.58-1.27.84-1.26,2,2.17,0,4.33-.17,6.45,0s4-2.51,6.34-.46l-4,1.81v4.18c-1.2.59-2.6.64-2.82,2.43,1.05,0,2.3.38,2.94-.08,1.64-1.19,3.41-1.07,5.13-.88,3.64.4,6.89-.86,10.17-2.06.19-.07.28-.42.43-.64l-1.4-1.32c-1.18,1.24-2.15,1.75-2.56-.45a13.21,13.21,0,0,1,5.21-2,10.31,10.31,0,0,1-.93-.94c-1.05-1.32,1.09-2.53.19-3.74-.52-.68,0-.79.28-1.08,1.41-1.67,1.34-3.8,1.42-5.77a2.55,2.55,0,0,0,2.75-1.77c-.43-.68-1.82.16-1.82-1.11-.21-1.46,1.81-1.67,1.83-3-1.33-.63-2.77.38-4.08-1.08l2.16-1.48c.17-1-.07-1.38-.46-1.72a1.16,1.16,0,0,1-.27-1.63l.05-.07,1.82-.64c-.25-2.78.57-5.6-1.14-8,.83-1.19,2.38-1.67,2.1-3.35-.08-.49,0-1-.52-1.3-1.1-.15-2.28.32-3.38-.34-.09-.79-.17-1.58-.26-2.34l-1.67-.61c.14-2.58,3.15-.92,3.8-2.15,0-1.58-.65-1.63-1.32-1.55a2.07,2.07,0,0,1-2.1-1C317.31,103.66,315.53,102.72,313,103.15ZM279.05,16.36c.8,1.84,2.52,1.44,3.85,1.9v1.57H270.6L265,17c-1.78,0-4.43.48-6.13-1.67C257.58,13.65,256,14,254.41,14c-.59.73-1.67,1.17-1.45,2.4,3.61,2.51,8,2.38,12,3.37,4.23,1,8.47,2.48,12.93,2.25,0,.86.23,1.37-.77,2.08-4.82-.33-9.81-2.34-15.1-2.69,3.59,2.15,7.37,3.67,10.51,3.63l2.59,1.34c-2.31,1.4-4-.08-5.76-.44-3.38-.69-6.87-1.08-10.05-2.29a10.87,10.87,0,0,0-5.71-.4c4,3.42,8.37,4,12.74,3.68a7.59,7.59,0,0,0,5.9,2c1.49-.08,3,0,4.49,0s2.76-.11,4,.73c1.19-1.45,2.81-.42,4.2-.72.94-.2,1.87.13,2.87-.3,5.52-2.33,11.22-4.31,15.18-9.21a3.21,3.21,0,0,1,.79-.5,2,2,0,0,1,2.48.76c1.79-.62,3.53-1.19,5.25-1.81.43-.16.47-.46.2-.7l-1.88-.66V14.35c-4.49-5.86-10.7-6.33-16.1-8.56-.86,1.15-1,2.53-2.15,3.11-1.61.35-3.31-.51-5,.8,1.31,1.83,2.73,3.34,3.37,5.35-.48.93-1,1.9-1.52,3-2.88-.3-5.23-1.79-7.64-3.55V8L279,6.58c.63-1.35,2-1.49,3.54-2.31a9.33,9.33,0,0,1-4.86-1.5c-1.7,2.56-4.62.25-7,1.87l8.34,9ZM343.5,92c-.5-.36-.76-1.13-2-.93l-1,1.85c-.48,1.71-.34,3.88-.52,6s.86,4.6-.92,6.61l1.39,1.39c.78-1,1.89-1,3-.93,2.21,2.63,1.37,5.73,1.5,7.63L342.41,117c-.66-.74-1.23-1.34-2.26-.61-1,4.33,1.45,8.37,1,12.46,1.55.47,2.6.24,3.41-.73,1.08,1.56,2.65.82,4.15.9.49-.6.23-1.52.93-2.13,1.46-1.24,3.94-.64,4.87-2.77,0-.07.3,0,.51,0,1.21.54,2.36,1.74,3.89.62a3.8,3.8,0,0,0-.29-2.73L351,123.8c0-1.84.09-3.81,0-5.76-.07-1.06-1.65-2-.91-3,1.34-2,1.1-4.08.86-6.09-.26-2.22,1.14-4,1.1-6.08-.07-3.47,0-6.94,0-9.19l-3.55-4.42C346.94,90.48,344.8,90.51,343.5,92Zm-91.59,34.83h-8.85c.68-1.32,1.82-2.43.42-3.73-1.47.48-1.14,2.27-2.27,2.91-1.56.86-2.25-1.26-3.64-1l-1.07,1c-.58-.49-1-1.33-2-.93l-1.18,1.18c-.22,2.2,2.7.92,2.75,2.82-.28,2-2.62,0-3,1.66l.13.94c.71,1,2-.22,2.7.67-.07,1.84-2.43,1.14-2.56,1.56-.41,1.65,0,1.95.39,2.27,1.28,1.2,2.32,2.63,4.15,3.22,2.05.66.4,3.64,2.65,4.48,1.11-1.92,3.29-.59,5.07-1.52s3.27-1.38,4.35-3c-1.44-1.27-2.59.45-4.38.16,2-2,3.73-3.55,6.41-3.8ZM113.7,106.19c3-2.41,3-2.41,4.29-5.69-.69-1.49-2.53-1.34-3.48-2.52-3.79,0-7.75-.62-11.39.2a27.06,27.06,0,0,1-7.61.72c-2.64-.14-4.9,1.39-7.57,1.14-4-.38-7.47,1-10.16,5,2.68-.26,4.85-.07,7.3-.9,3.84-1.29,7.89-2.42,12.09-2.16.66,0,1.51.27,2,0,2.56-1.71,5.4-.91,8.09-.86,1.62,0,3.26.88,4.83,1.5S112.51,105,113.7,106.19Zm6-14c-2.44-.76-5.2.74-7.53-1.14a1.88,1.88,0,0,0-1.82.21c-1.27,1.39-2.81.6-4.21.71-1.82.15-4-.6-5.39.19-2,1.12-4,.21-5.62.94a13.06,13.06,0,0,1-5.63.9,19.37,19.37,0,0,0-1.73,1.78c-.5.66-1.58,1-1.58,2.23,1.84,0,3.93.63,5-.14,2.17-1.51,4.61,0,6.52-1.18,2.21-1.34,4.49-.35,6.71-.66,1-.14,2,.15,3,0,6.36-1.32,9.11-1.36,13.34,0a3.09,3.09,0,0,0-1.07-3.87Zm-11.14,11.87c-6.56-.09-13.2-.59-19.55,2-4.58-.58-8.92,2-13.35.86-1,1-1.83,1.81-2.25,2.24.38.75.76,1.49,1.28,2.53,2.21-2.65,5-.89,7.12-2s4.61-1.15,6.83-1.45,4.53-1.81,7-1.22,4.54-1.34,7.07-1.06a27.21,27.21,0,0,0,7.54-.15Zm172,47.16c1.5.79,2.56,1.89,4,1.73,1.84-.21,2,2.26,3.65,2a7,7,0,0,1,4.05,1.08c1.32-2.22,4.77.32,5.79-3h-4.53c-.63-.85-.25-1.67-1-2a2.36,2.36,0,0,1-3.26.72l-.13-.09-.3-1.35c-.83-.77-2.05.26-2.76-.74-.07-.6.11-1.33-.85-1.57-2.34-.32-3.22,1.47-4.68,3.19Zm36.89,1.83a8.24,8.24,0,0,1-7.5,3c-2.15-.17-4.31,0-6.64,0-.29,1.87-3.22,1.26-3.36,3.41a1.79,1.79,0,0,0,2.3.52c1.43-1.28,3.07-1,4.64-.9,4.75.35,8-3.14,12.62-4.14ZM123.87,87.36c-3.51-2.44-7.55-1-11.34-1.43-.75,1.36-3.08.87-3.33,2.86,4.9.79,9.82-.73,14.67.94Zm240,39.75a29.72,29.72,0,0,0-12.67,1.26c-.15.48-.28.92-.41,1.37s-1,.41-.22,1.27c4.34-.65,8.65-2.48,13.13-2,.22-.43.34-.57.34-.7-.05-.4-.13-.8-.22-1.2ZM175.54,204.89c-4,4-2,8.61-2.66,13H175c0-2.16.15-4.27,0-6.34S177.05,207.48,175.54,204.89ZM111.94,63.53c-3.73-.82-6.91.15-10.17,1.71L103.51,67A10.38,10.38,0,0,0,111.94,63.53ZM94.19,91c2.54-.11,4.31.58,5.61-.43,1.65-1.28,3.57.17,5-.9l1.2-1.1c-.64-.65-1-1.65-3-1.49-1.1,1.82-3.55.6-5.32,1.51ZM133.5,53c1.14-1.15,2.07-2.08,3-3,.71-.7.72-1.36-.17-2.13-3,1.54-7,1.48-8.66,6.07,1.25,0,1.76-1.16,2.69-1A18.28,18.28,0,0,0,133.5,53ZM313.85,158.77c-3.36,1.25-6.46,2.58-9.9,2.33.12.83-.15,1.37.4,1.71,3.21.9,6.1-1.39,9.28-1,.1,0,.23-.21.22-.21ZM212.05,183l-3,1.59c-.1,1.49,1,1.84,1.58,2.43h4c.64-.78,1.72-1.23,1.3-2.87C214.41,185,214.08,182.62,212.05,183Zm56.73-69c-.79-2.48-1.48-4.65-2.18-6.88-1.51-.28-2.76,0-3.23,1,.23,2.78,2.67,3.74,3.07,5.84Zm-72.2-27.83c2.49-2.55,1-5.31,1.49-8h-2.14c.28,3.69-.29,7.32.36,10.86.87.08,1.35.06,1.65-.39.38-1.06-.35-1.55-1.36-2.5ZM203.45,149c.94-1.54,3.18-.36,4.13-2,.2-.35.44-.49.17-.72l-1.15-1.16h-4.2c-.63.76-1.71,1.21-1.26,2.79A2.42,2.42,0,0,1,203.45,149Zm4.85,28.84c-1.23,1-2.93,1.11-4.31,1.64a2.68,2.68,0,0,0,1.51,2.4c2.29.75,3.8-.56,5.47-1.37l-2.67-2.69ZM188.65,190.7c-.16,2.71-2.17,1.72-2.64,3-.13,1.2.89,1.45,1.38,2.23,1.51,0,3.11.36,4.68-.28-.07-2-1.76-2.51-3.42-5Zm5.83,3.28c1.85.14,3.13-.25,3.53-2-.09-1-1-1.26-1.48-2-1.21.25-2.62-.64-3.67.63l-.77.94ZM198.54,161c1.8-.21,3.72.31,5.4-.35.3-1.56-.87-1.9-1.39-2.65-3.9,0-5.05.32-5.43,1.59Zm3.39,10.24c-5-.35-5-.35-6.7,1.45,1.88,1.26,1.88,1.26,5.32,1.24.52-.77,1.69-1.11,1.38-2.71ZM417.5,214c-1.05,1.05-2.07,2.13-3.16,3.13-.37.34-.45.48.13.77h3.17a7.79,7.79,0,0,1,3.4-2.45c-.19-.9.33-1.79-.51-2.43C419.8,214.2,418.63,214,417.5,214ZM203.94,157c0,.87,1,1.31,1.62,2h3c.61-.77,1.69-1.21,1.45-2.5l-3.24-1.61c-.47.43-.78.88-1.2,1S204.22,155.81,203.94,157Zm-56.62,50.68c-2.95-2.16-2.95-2.16-8.32,0l.16,1c2.75,1.38,5.07-.68,8.16-1ZM211.09,153c-.35,2,.08,3.44,1.7,3.86s2.79-.27,3.32-2.3l-2-1,.5-.53Zm142.59-31.37c1.62-2.58,4.08-1.26,6.1-1.83.22-1.07.58-2-.65-3.21-1.14,1.8-3.13,1.28-4.68,1.37C353.65,119,352.53,119.4,353.68,121.65ZM121.12,56c-.29-1.29.22-2.15-.53-2.92h-4.18c-.64.77-1.69,1.22-1.39,2.44.27.16.52.45.79.45C117.43,56,119.05,56,121.12,56Zm6.48,25.8c-2.49.79-3.74-.79-5.54-.85a7.67,7.67,0,0,0-5,1.67c1.57,1,3.39-.35,4.77.77s2.79-1.71,3.68.6ZM277,104.48l-1.58-1.59c-1,.55-2.33-.55-3.39.55-.63,2,1.6,1.1,2,2.06.34.8-.74,2,.82,2.5C276.69,107.58,277.26,106.29,277,104.48ZM252.12,19.09c.91,3.3,4.11.79,5.58,2.8.3.41,2.19.51,3.23-.3-.74-1.65-2.61-1.61-3.56-2.5ZM184.38,195c-1.08.25-2.45-.55-3.69.92a20.85,20.85,0,0,0,2.94,3,1.94,1.94,0,0,0,2.22-.24C186.3,197.25,186,196.13,184.38,195Zm5.53,12.22c-2.15-.4-4.17-.8-4.95,2,.56.83,1,1.69,2.1,1.81l2.85-1.41Zm-78.77-126c1.85-.44,3.18-1.33,4.86-1.3a1.88,1.88,0,0,0,2-1.73,2,2,0,0,0-.19-1c-3-.89-4.55,1.74-6.85,2.27Zm16.93-5.78c-1.87,1.13-3.84,1.37-5.29,3.58h6.67c.19,0,.37-.44.56-.69.16-1.23-1-1.57-1.94-2.88ZM252,106.58c2.77.5,5.51.94,7.84-1.18L258.53,104C255.88,103.7,254.23,105.84,252,106.58ZM417.5,208c-3.29,1.34-3.29,1.34-5.11,3.88,2.7,0,2.7,0,5.62-1.6C417.87,209.49,418.36,208.59,417.5,208ZM207,175.13h-5.68c-.7.85-1.83,1.31-1.07,2.64C202.6,178.43,204.51,177.7,207,175.13Zm-4.19-11.34c.65,1.57,2.24,1.32,3.09,2.25.75-1.18,3-.22,3.17-2.17-.51-1.36-2.07-.83-2.81-2.09C205.9,164,203.8,162.19,202.81,163.79ZM192.91,189c.35-1.62-.67-2.08-1.36-2.89-1.62,0-3.44-.51-4.49,1.53l1.36,1.36Zm13.18-37.18c2.35.86,4.15-.24,5.93-1.39l-.2-1.18H207.3c-.54.68-1.48,1-1.21,2.52Zm146.71-5.58h-7.71v1.66h6.58c.48-.47.83-.81,1.17-1.17.05-.11,0-.28,0-.54ZM197.9,195.47c.54,2.67,2.82,2.77,4.66,3.56.94-1.77.39-2.94-1-4C200.43,195,199.17,194.63,197.9,195.47ZM199.48,206a1.59,1.59,0,0,0,1.73-.66c.44-.49,1-.9.77-1.68-2.52-2.18-3.34-2.2-4.93-.09ZM208,169.64c2,1.2,3.35-.8,5-1.14v-1.36a13.14,13.14,0,0,0-5,.09Zm-4.82,13.62c-1.76-2.11-2.32-2.57-3.44-2.23-.66.2-1.17.93-1.63,1.31l2.4,2.71C201,183.81,202.32,184.28,203.18,183.26Zm11-42.12a4.32,4.32,0,0,0,3.27,3c.49-1.14,1.87-.88,2.47-1.72l-1.24-1.24ZM204,186.5c-.23,1.19.79,1.65,1.57,2.57,1-.56,2.34.54,3.42-.58.25-1.23-.77-1.69-1.47-2.51h-2.77C204.49,186,204.25,186.32,204,186.5Zm15.09-66.1c-.4-2.14-1.71-2.77-4-2.21,0,1.27-.51,2.61.77,4.36C216.62,121.06,218.07,121.32,219.09,120.4ZM417,204.56c2.28,1.25,3.45-.7,5.07-1-.19-1.11.27-2-.5-2.55C420.47,202.71,417,201.13,417,204.56ZM208.82,139.15h-4.59c-.23,1-.59,2,.09,2.65,2.1.75,3.25-.77,4.7-1.44ZM219.4,174.7c-1,.91-2.57-.62-3.4,1-.1,1.28,1,1.63,1.71,2.51.92-.82,2.47.71,3.23-.75.24-1.21-.69-1.53-1.54-2.71ZM199,153.8l4.5.21,1.55-1.55-2.7-1.31a1.88,1.88,0,0,1-1.61.85C200,152,199,151.71,199,153.8Zm18.06-47c-1.48.77-2.24,1.62-2.06,3.13a1,1,0,0,0,.7,1c.82.18,1.19-.39,1.67-.79s1.73.14,1.67-1.1-1-1.56-2-2.2ZM115.78,59.15h-5.44a1.39,1.39,0,0,0-.12,1.65h5.44A1.41,1.41,0,0,0,115.78,59.15Zm75.13,146.07c.18,2.38,2.31,1.86,3.45,3.16.55-1.2,2-1.47,1.53-3.25A13.45,13.45,0,0,0,190.91,205.22ZM273,108.49c.58-2.06-2.81-1.35-2.32-3.35-.91-.12-1.87-.56-2.66.32-.58,2.06,2.81,1.35,2.32,3.36C271.25,109,272.2,109.37,273,108.49Zm-69.85,82.22c-1.89-3.5-2.18-3.56-5-1.26,1.2,2.13,3,1.67,5,1.26Zm11,2.81c-.07-1.41-1-1.86-1.65-2.55-1.09.14-2.24-.3-3.29.31l1.35,2.7c1.08-.14,2.23.31,3.54-.46ZM313,164.14h-5.82v1.67H313Zm-99,2.55c1.95.49,3.72.71,5-1.24-3-2.3-3.32-2.23-5,1.24ZM266,14.47c1.72,3.27,2,3.33,5,1C269,14,269,14,266,14.47ZM194.36,213.89c-.64-1.18,0-2.06-.67-2.74-2.51.12-2.51.12-4.3,2.74Zm15.07-50.74c2.47-.41,4.46.62,5.4-1.85C212,159.26,212,159.26,209.43,163.15Zm9.92-49.57-2-1.36c-.36.79-1.53.57-2.25,1.13,0,.9-.55,1.87,0,2.35,2.13.78,3.15-.08,4.25-2.12Zm21.71,161.84c1.4,1.51.67,4.1,2.82,5.36v-5.26L242.53,274ZM215.39,161.16c2.5-.42,4.48.63,5.45-1.85C218,157.26,218,157.27,215.39,161.16ZM121,48.48c-.26,1.19.76,1.65,1.39,2.39,1.2,0,2.45.46,3.66-.37l-.21-1.23c-.94-.69-2.1.22-2.69-.6-.28-.65.15-1.43-.77-1.57ZM428.69,212.14c-2.74-.82-3.72,1.22-4.78,2.92.34.85.78,1,1.17.92Zm-4.17-3.1c.8-1.34,2.68-1.76,2.47-3.61-.88-.8-1,.38-1.46.51-.77.22-1.65-.29-2.33.32-.35.84-.68,1.63-1.08,2.61ZM216.92,93c-3.15.31-3.15.32-3.74,2.84a6.28,6.28,0,0,0,3.74,0ZM285,5.22a11.21,11.21,0,0,0,6.38.53l-2-1.8C288.07,4.3,286.3,3.39,285,5.22Zm66.15,74.52a9.13,9.13,0,0,0-4.28,6.36,3.55,3.55,0,0,0,2.26-2.63c.33-1.27,1.94-1.41,2.88-2.09a1.65,1.65,0,0,0-.89-1.64ZM213,144.48,211.44,143c-1,.47-2.31-.54-3.43.53v1.06c1.37,0,2,1.94,3.57,1.39ZM293.45,98l-1.39,1.51c.82.85,1.63,1.68,2.45,2.51.34-1.33,2.75-.45,2.48-2.48C296.14,98.26,294.09,99.81,293.45,98Zm-53.73,4.8c2.7.66,4.33-1.1,6.34-1.12-.1-.71-.15-1-.24-1.62-2.41-.27-4.19.78-6.1,2.76ZM208.1,202.44c-.34-2-1.55-2.65-3.39-2.44-.25,0-.47.35-.71.54.17.76-.34,1.63.4,2.34C205.6,202.89,206.87,203.36,208.1,202.44Zm-76.9,12.18c2.64.19,5.41,1,7.68-1.32-2.83-1.35-5.16.71-7.68,1.32Zm83.71-77.47h-4.82v1.66h4.82Zm-16.72,74.91c.89-.67,2.21-1.09,1.55-3.17-1.21.47-2.6-.5-3.75.59,0,1.56.89,2.15,2.2,2.58ZM242,120.22c-1.41-.32-2.51-.6-3.31.57-1.21-.91-2-.34-2.74.94H242Zm-23.9,50.94c1.7-.6,3.42.49,5-.68l-.27-1.33H218.1ZM127,56.52c-.07-.49.19-1-.52-1.49L124.54,55l-2.67,2.68C124.27,58.64,125.42,56.8,127,56.52Zm93,44.89c0,1.61,1,2.19,2.2,2.62,1-.66,2-1.2,1.75-2.9C222.66,101.07,221.33,100.62,220,101.41Zm8.93,25.74h-4.82v1.66h4.82ZM283,103.49c2.72.4,2.72.4,4-2C284.28,101.06,284.28,101.06,283,103.49ZM122.39,72.05c-.35.66-1.38.84-1.07,1.85h4.3c.34-.66,1.38-.84,1.06-1.85ZM213.12,200.7c-1.41-2.65-1.41-2.65-4.27-2.2C209.35,200.61,210.59,201.36,213.12,200.7ZM202,208.81c1.51.1,2.85.59,4.31-.5-.6-1.11-1-2.06-2.32-2.35A2.62,2.62,0,0,0,202,208.81Zm9.43-101.64c2.68-1.75,2.68-1.75,1.82-4.39-1.85.82-2.8,1.94-1.84,4.39ZM181.48,215l-1.35,2.76a6.16,6.16,0,0,0,4-.13c-.54-.85.37-1.87-.67-2.63Zm23.58-96.17c.94-.08,1.93.73,2.82-.2.4-1.66,0-2.87-1.53-3.46-1.29.83-1.55,2-1.29,3.69ZM222,133.5c1.32,2.42,1.32,2.42,4,1.95C224.69,133,224.69,133,222,133.5Zm-13.71,62.15c-1.92-2.79-1.92-2.79-4.35-1.9C204.56,195.81,205.88,196.37,208.29,195.65Zm6-86.34c-3.47-.23-3.48-.24-4.13,2.43,2.07.74,3.25-.1,4.15-2.43Zm6.61,25.83h-4.83v1.67h4.83ZM217.53,196c-.79.17-1.64-.31-2.36.33-.14.91-.54,1.85.31,2.66,1.1-.08,2.24.28,3.37-.28C218.41,197.76,218,196.86,217.53,196ZM224,176c2.24-1.74,2.24-1.74,1.71-3.07-1.12.56-2.52-.66-3.84.92C222.29,174.75,222.75,175.69,224,176Zm-22-9.59c-2.41-1.77-3.38-1.92-4-.6a2.64,2.64,0,0,0,2.54,2.23ZM223,124a2.31,2.31,0,0,0-1.42-1.76c-1.48.53-1.65,1.57-1.61,2.77a.92.92,0,0,0,.82,1A2.37,2.37,0,0,0,223,124Zm-6.11,47.13h-4.81V173c1.79-.27,3.77.77,4.82-1.89Zm187.38,43.68c1.36-.64,3.41-.11,3.84-2.3-2.8-.47-2.8-.47-3.83,2.3Zm-182.9-98.72c-1.71,2.28-1.88,3.24-.74,3.86.78.19,1.18-.31,1.65-.75a1.68,1.68,0,0,0,.64-1.86Zm138.76-14.64c-3.68,1.17-3.68,1.17-1.84,3.94C359,104,359.55,102.68,360.13,101.45Zm-144,29.1a14.62,14.62,0,0,0,6.21.19c-2.91-2.24-2.93-2.25-6.26-.19Zm-1,58.43c.18,1-.73,2,.41,3,.77-.18,1.63.34,2.33-.36.06-.91.58-1.88-.38-2.64Zm-.41,38c-1.64-.18-2,.91-3.2,1.89,2.2-.58.65,3.07,3.29,1.81a6,6,0,0,0-.1-3.66Zm-10.8-14.13c-1.31.31-2.54-.29-3.82.41V215c1.32-.31,2.55.29,3.82-.41ZM205.53,99c1.82-2.43,2-3.38.8-4-1,.69-1.08.84-2,2.77Zm7.4,14.74c-1.93.49-3.09,1-2.88,2.85a2.68,2.68,0,0,0,2.88,0ZM217.45,181a2.83,2.83,0,0,0,0,3.13c.73-.46,1.73.43,2.62-.69A2.63,2.63,0,0,0,217.45,181Zm-.54,22c-1.31.34-2.54-.29-3.82.43v1.76c1.32-.34,2.55.29,3.82-.43Zm61.68-101.07a2.35,2.35,0,0,0-.11,3.18c.83-.34,2,.7,2.53-.74,0-1.37-.89-2-2.42-2.51Zm-59.56.6a2.8,2.8,0,0,0-3.11,0c.45.73-.44,1.73.71,2.63a2.61,2.61,0,0,0,2.37-2.7ZM223.5,159c1.49,0,1.74-1,2.42-1.42-.62-.68-1-1.72-2.62-1.54l-1.3,1.5Zm-13.59,52.2h-3.82v1.65h3.82Zm5.24-64.2a2.28,2.28,0,0,0-2,1.7c.68.45.95,1.45,2.51,1.24l1-1.65C216.3,148,216.05,147,215.15,147Zm-1.65,33c.56-.86,2.05-1.24,1.32-2.73-1-.4-2-.77-2.81.33-.18,1.4,1,1.68,1.49,2.45ZM203,169.2c-.16,1.59.73,2.1,1.57,2.71.68-.84,1.77-1.26,1.33-2.51C205.15,168.63,204.22,169,203,169.2Zm203.22,51.5c1.21-1.09,2.9-1.84,3.91-4.29-2.46,1.12-3.68,2.21-3.88,4.29ZM244.67,150c-.49,2.27-3.08-.16-3.66,1.59a1.4,1.4,0,0,0,.71,1.48C242.77,152.3,244.91,152.75,244.67,150Zm219.48,67.69c-1.22-1.69-2.4-2.23-4-1.4v1.42A7.86,7.86,0,0,0,464.15,217.73ZM220.5,145c-.75.88-1.76,1.34-1.42,2.86.91-.06,1.9.7,2.89-.29C222.3,146.3,221.27,145.85,220.5,145Zm-26.9,72.5c2.22,1.13,2.77-.29,3.37-1.51.09-.17-.19-.53-.33-.85C195,214.65,194.54,215.87,193.6,217.45ZM212,96.79V95.51l-.54.53c-.29-.73-.57-1.45-.86-2.21-.87,1-1.9,1.47-1.57,2.68C209.81,97.36,210.76,97,212,96.79Zm8.51,58.06-.45-1,2.07-.26c-1.39-1.55-2.52-2.4-4.16-1.16Zm124.88-21c-1.15-.91.64-2.17-1.29-2.89-1,0-1.4,1-2.08,1.59.75.52,1.08,1.68,3.37,1.3ZM207.61,110.2l-2.25,2.69c1.46.55,2.64-.09,3.65-1.46ZM199,94.79V93.51l-.54.53c-.29-.73-.57-1.45-.86-2.21-.87,1-1.9,1.47-1.57,2.68C196.81,95.36,197.76,95,199,94.79Zm26.05,28.84c1.16.45,2.17.82,2.94-.28.19-1.3-1-1.62-1.49-2.39C226,121.73,224.83,122.05,225.05,123.63ZM213,90.48c2.28.36,2.28.36,3.65-1.35C215,88.41,214,89.33,213,90.48Zm-8.92,2.11a2.58,2.58,0,0,0,2.82,0V91.36a2.62,2.62,0,0,0-2.82,0Zm210.71,113a6.89,6.89,0,0,0-4.54-.41,1.27,1.27,0,0,0,.21,1.79l.05,0c1.42.1,2.15-1.26,4.29-1.42ZM214.49,87c.65-.89,2.37-1.4,1.08-3-1.33-.19-1.9.69-2.45,1.59Zm46.12,23.92c.61-.86,2.05-1.32,1.08-2.74-1.44-.74-1.83.74-2.75,1.34ZM211,205.44a2.26,2.26,0,0,0-3,0c.08.49-.2,1,.39,1.37.88.07,1.85.57,2.62-.37Zm16.32-97.55c-.85-1.1.82-3.07-2.49-2.81.51,1-.25,1.86.56,2.81Zm116.77-25.6c1.1-.84,3.07.82,2.85-1.93a2.63,2.63,0,0,0-2.85,0ZM263.91,9.36a2.62,2.62,0,0,0-2.82,0v1.25a2.58,2.58,0,0,0,2.82,0ZM203.09,227.29c1.1-.85,3.07.83,2.85-1.93a2.63,2.63,0,0,0-2.85,0ZM222.51,139c-.6.64-1,1.1-1.49,1.56l1.51,1.5,1.37-1.56ZM357.68,94.51c1.3.58,1.7,2.19,3.23,1.08V94.37C360,93.75,359.11,93.85,357.68,94.51ZM261.39,15c.7-.36,1.7.37,2.63-.57-.91-.73-1.32-1.83-2.61-1.41C260.93,13.49,260.84,14.05,261.39,15ZM105.54,85a2.42,2.42,0,0,0,2.33-1.69,2.57,2.57,0,0,0-2.7,0,1.27,1.27,0,0,0,.37,1.68Zm102.52,1.6a2.65,2.65,0,0,0,2.79,0,1.23,1.23,0,0,0-.36-1.65c-1.28-.12-1.82.74-2.43,1.64ZM207.65,88c-1.4-.94-1.72-2.11-2.93-1.93-1.09.44-.89,1.12-.33,1.93Zm-5,129.74c3.09.13,3.09.13,3.92-2ZM158,206.74c.59,1,.59,1,1.87,1.87,0-.91.56-1.88-.28-2.55C158.81,205.87,158.19,205.88,158,206.74ZM210.63,92.89a2.62,2.62,0,0,0,0-2.75,1.24,1.24,0,0,0-1.65.32C208.85,91.75,209.71,92.31,210.63,92.89ZM239.92,97a2.63,2.63,0,0,0-2.84,1.59,2.65,2.65,0,0,0,2.84,0ZM153,204.49a2.28,2.28,0,0,0,3,0c.06-.68.16-1.33-.82-1.58S153.75,204,153,204.49Zm87-58.15a2.63,2.63,0,0,0-2.78,0,1.24,1.24,0,0,0,.35,1.66c1.22.1,1.77-.75,2.37-1.66Zm97.16-46c.14,1.6-.64,2.59.37,3.58.65.06,1.31.16,1.55-.82s-1.08-1.37-2-2.73ZM253,102a2.63,2.63,0,0,0-2.84,1.59,2.65,2.65,0,0,0,2.84,0Zm-31.61,4.15a2.65,2.65,0,0,0,.18,2.87c.76-1,1.87-1.37,1.46-2.63a1.21,1.21,0,0,0-1.68-.22h0Zm-12.43,114.2a2.63,2.63,0,0,0-2.78,0,1.24,1.24,0,0,0,.35,1.66C207.79,222.1,208.34,221.25,208.94,220.34Zm24.48-77.78c4.25.44,4.25.44,4.47-.2l-1.94-.93Zm-6.5-33.23c-.93,1.4-2.1,1.72-1.88,3.24a1.23,1.23,0,0,0,1.72.17l.16-.17ZM200.06,222.61a2.65,2.65,0,0,0,2.79,0,1.23,1.23,0,0,0-.36-1.65C201.21,220.85,200.67,221.71,200.06,222.61Zm118.3,45.44c1.39.94,1.72,2.11,3.24,1.88a1.22,1.22,0,0,0,.14-1.73l-.14-.15Zm21.72-4.43c.94-1.4,2.11-1.72,1.88-3.24a1.24,1.24,0,0,0-1.74-.14.93.93,0,0,0-.14.14ZM208.3,224.74c2.13.16,3.4.62,4.54-.49C211.6,224.21,210.38,223.6,208.3,224.74ZM186,214.06c-.08,2.23.74,2.25,2.07,1.47-.1-.51-.19-1-.28-1.47Zm37.83-97.72c1.06.78,1.57,2.49,3.19,1.16-.84-.61-1.22-2-3.18-1.16ZM364.51,91a1.17,1.17,0,0,0,.37-1.62,1.22,1.22,0,0,0-.37-.38c-.45.07-1-.21-1.32.36C363.35,90.56,363.35,90.56,364.51,91ZM223,113.89c.09-2.23-.74-2.25-2.06-1.47l.28,1.47Zm207,92.17c-.08,2.23.74,2.25,2.07,1.47-.1-.51-.19-1-.28-1.47ZM300,98.89c.09-2.23-.74-2.25-2.06-1.47l.28,1.47Zm-69.08,9c.16,1-.11,1.55.45,1.9a2.74,2.74,0,0,0,3.08-.78c-1.55.41-2.19-.49-3.54-1.06ZM220,195.06c-.08,2.23.74,2.25,2.07,1.47l-.28-1.47ZM213.49,75a1.19,1.19,0,0,0-.38,1.63,1.22,1.22,0,0,0,.38.37c.46-.07,1,.21,1.46-.59C215.2,75.43,214.84,74.8,213.49,75Zm-5,98a1.19,1.19,0,0,0-.38,1.63,1.22,1.22,0,0,0,.38.37c.46-.07,1,.21,1.35-.4a1.19,1.19,0,0,0-.39-1.6ZM261,105.12c.56-.4,1.15-.78,1.76-1.13.42-.2,1.33.19.91-.87-.94-.08-1.89-.54-2.67.35Zm-34-4.66a1.18,1.18,0,0,0-1.63-.37,1.09,1.09,0,0,0-.37.37c.07.46-.21,1,.39,1.35a1.2,1.2,0,0,0,1.61-.39ZM212.49,209a1.19,1.19,0,0,0-.38,1.63,1.22,1.22,0,0,0,.38.37c.46-.07,1,.21,1.35-.4a1.19,1.19,0,0,0-.39-1.6Zm86.4-175.61c1.77.54,2.67.34,2.07-.74Zm-63,64.85-2.12,1.14c.93.78,1.48.79,2.12.24ZM212.14,215.45a2.89,2.89,0,0,0-3.27.05A2.89,2.89,0,0,0,212.14,215.45Zm187.78,4.77-2.12,1.14c.93.78,1.48.79,2.12.24ZM260.71,112.44c2.66,1.14,2.35-.06,2.13-1.33ZM196.29,224.57c1.51.31,1.51.31,1.32-2.11Zm-32.19-11.2c-.24.27-.33.93.44,1.65l1-.18ZM200.4,93.88c.26.24.93.33,1.65-.44-.07-.41-.15-.85-.4-2.27C201,92.5,200.72,93.19,200.4,93.88Zm20.1.11a1.22,1.22,0,0,0,.32-1.68,1.62,1.62,0,0,0-.32-.32,1.21,1.21,0,0,0-.27,1.69.87.87,0,0,0,.27.27Zm136.58-.51c-.91-.65-1.55-.94-2,.14.63.54,1.18.51,2-.14ZM305.5,271a1.21,1.21,0,0,0-.32,1.68,1,1,0,0,0,.32.32,1.22,1.22,0,0,0,.32-1.68A1.62,1.62,0,0,0,305.5,271ZM289,145.48a1.21,1.21,0,0,0-2,0,1.2,1.2,0,0,0,1.68.32A1.22,1.22,0,0,0,289,145.48Zm6.92-111c.9.64,1.54.93,1.95-.15-.57-.54-1.13-.51-1.94.15ZM201.78,87.27c-.48.25-1.33-1-1.64.38C200.74,88.13,201.3,88.16,201.78,87.27Zm25.3,57.21c-.91-.65-1.55-.94-2,.14C225.71,145.16,226.26,145.13,227.08,144.48Zm-4.3,18.79c-.48.25-1.33-1-1.64.38C221.74,164.13,222.3,164.16,222.78,163.27ZM200,219.48a1.21,1.21,0,0,0-2,0,1.2,1.2,0,0,0,1.68.32A1.22,1.22,0,0,0,200,219.48ZM229.48,83c-.63.88-.92,1.51.28,2A1.49,1.49,0,0,0,229.48,83Zm-14.7-2.66c-.48.25-1.33-1-1.64.38.6.46,1.16.49,1.64-.4ZM228,133.48a1.2,1.2,0,0,0,1.68.32,1.22,1.22,0,0,0,.32-.32,1.21,1.21,0,0,0-2,0Zm20.09-29c-.91-.65-1.55-.94-2,.14.62.54,1.17.51,2-.14ZM210,81.48c-.32-.47-.65-.47-1,0C209.34,82,209.67,82,210,81.48ZM153.5,214c.46-.33.46-.66,0-1C153,213.31,153,213.64,153.5,214ZM205,82.48c.33.46.66.46,1,0C205.67,82,205.34,82,205,82.48Zm-61,129c-.34-.47-.67-.47-1,0C143.34,211.94,143.67,211.94,144,211.48ZM223.5,93c.46-.32.46-.66,0-1C223,92.31,223,92.64,223.5,93Zm-64,110c.46-.33.46-.66,0-1C159,202.31,159,202.64,159.5,203ZM232,99.48c.33.46.66.46,1,0C232.67,99,232.34,99,232,99.48Zm56.49.5c-.46.34-.46.67,0,1,.48-.33.48-.67,0-1Zm-3,17c-.46.34-.46.67,0,1,.48-.33.48-.67,0-1Zm-153-44c.46-.32.46-.66,0-1-.46.34-.45.66,0,1Zm89,108c.46-.33.46-.66,0-1-.46.34-.45.66,0,1Z"/><path class="cls-1" d="M432.2,89.5c-4.15,9-5.56,17.49-10.7,24.72-1.33-2.59.36-4.52,1.13-6.21,2.67-5.92,4.61-12.09,7-18.11.69-1.77-.1-3.89,1.63-5.16-1.05-1.16-2-.76-3.07-.53-.75,1.09-1.6,2.24-2.33,3.45s-2.73,1.16-3.29,3.07c-.31,1.07-2.08,1.88-3.34,2.48a15.83,15.83,0,0,0-5.2,4.31c-3.32,3.9-7.75,6.56-11.27,10.22-2.14,2.22-4.63,4.14-5.83,7-1.44.23-2.7.45-3.9-.23.05-.53-.14-1,.32-1.42,4.56-4.4,8.76-9.14,14.32-12.46,2.48-1.48,4.33-4,6.47-6.09-.72-.72-1.33-.86-1.89-.32a47.25,47.25,0,0,1-8.28,6.5A60.65,60.65,0,0,0,389.63,113h-2.14c-.86-.83-.5-1.78-.23-2.87,5.53-3.26,9.43-8.93,15.63-11.51,4.65-5,10.52-8.45,15.81-12.61,5.12-4,9.62-8.93,15.35-12.22l1.13.88,5.82-5.8V67.48c-1.48-1.38-2.63-.07-3.95.53-1.38-.24-1.87-1.69-3.1-2.51V60.44c-.58-.62-1.06-.46-1.74-.35v8.79c.11.27.89,0,1.44.23.7.7.17,1.59.36,2.38-1.16,1.14-2.49,0-3.31.44-2.44-1-1-3.65-2.63-4.64.37-1.34.74-2.64,1.18-4.22-.94,0-1.49-.17-1.82,0-.55.34-1.43,1-1.35,1.37.55,2.38-1.6,4.27-1,7.12L428,74.42c.19,1.44-.87,1.68-1.29,2.61a11.43,11.43,0,0,0-6.81,1.32c-2.36-2.45-3.92-4.6-2-7.82.49-.83.07-2.2.07-3.59-3,1.68-2.24,4.77-3.4,6.93-1.66,3.09,1.06,5,1.56,7.76-1.95.67-3.7.77-5.06-1.2-.33-2,1.57-3.59,1-5.58s1.75-3.5.72-5.86c-4,.56-7.33,3.48-11.15,4.25a3.64,3.64,0,0,1-.47-2.77c4.14-2.63,8.88-3.68,13.35-5.28a80,80,0,0,0,17.74-9c1.42-1,3.53-1.13,4-3h5.64c-1.44,3.35-.75,6.61-.66,9.85,2.26.18,2.48-1.94,3.84-2.3v-4.2c.7-1,1.91-.07,2.71-.7.33-.24.31-.57-.15-.69-.76-.19-1.59-.16-2.34-.4a3,3,0,0,1-1.06-.58c-.5-2.65,1-3.74,1.46-5.43,4-1.66,7.56-4.76,11.77-4.88,2.49-1.2,1-3.29,2-4.86,2.85.6,5.55-.5,8.31-1.18.07-.12.21-.3.17-.34-.33-.37-.69-.72-1.44-1.47-3.25.54-6.82-.45-10.6.88-3.13,1.1-5.4,3.13-8,4.83-1.19.77-2.33,1.63-3.47,2.47-.69.5-.2,1.54-1,2.09s-.12,1.55-.44,2.43a5.52,5.52,0,0,1-3.61.18c-1-2.11.29-3.74.93-5.67,2.07.11,3-1.91,4.69-2.8,1.89-1,3.45-2.59,5.54-3.55,1.29-.59,2.61-2.24,3.94-2.51,1.84-.37,3.61-1.21,5.49-1.28a43.64,43.64,0,0,1,8,.08c1.51.23,2.92,1.26,3.82,1l3.63,2.58L472.88,41a17.43,17.43,0,0,0-7.71,1.39c-1.22,1.1-1.66,2.62-2.4,4.17-1.9.59-3,2.47-4.62,3.8,1.1,3.21,3.46,4.09,6.62,4.92,2.9.77,6,.11,8.74,1.76,3.48,2.12,7.73,2.11,11.37,3.92,1,.49,1.32,1.34,2.21,1.52-.61,3.09-2.72,2.61-4.65,2.51-1-.77-1.54-2.27-3.2-1.94-.79.16-1.1-.58-1.64-.87-4.13-2.16-8.35-3.94-13.21-3.16a2.32,2.32,0,0,1-2.32-.38,3.31,3.31,0,0,0-3.71-.48c-3.34,1.54-6.49.87-9.64-.25L447,59.44v7l-2.07,2.07c.8,9.92-1.66,19.87-1,29.92a5.2,5.2,0,0,1-.56,2.77,4.53,4.53,0,0,0,.62,5.45c-1.66,2.49-.94,5.32-1,8s0,5.28,0,7.77c.87.83,1.76.29,2.55.52,1,.9-.2,2.73,1.41,3.38-.74.79-1.23,2-2.68,1.46-.25-1,1.63-1.8.08-3-2.94.83-3,3.6-3.69,6H439c.13-3.22-.61-6.49,1.05-9.47,1.1-2,.93-4,1-6.1s.1-4,0-6c-.51-8.89,1.73-17.68,1-26.58-.09-1.14,0-2.29,0-3.46-1.58-.06-.94,1-.95,1.56,0,.8-.79,1.07-1,1.62A7.59,7.59,0,0,0,440,85c.13,2-2.14,3.85-.89,5.5,1.56,2.09,1.11,4.28.74,6.14-.65,3.37-1,6.91-2.19,10.07-.87,2.26,0,4.84-1.67,6.8.28,5.18-2.59,10-2,15.17-2.22,3.13.43,7.46-2.64,10.41-1.15.2-1.58-.89-2.5-1.61,1.69-3.79,1-7.89,1.17-11.94a5.49,5.49,0,0,0,1.93-5.16c-.52-3,1.15-5.62,1.21-8.59a17.39,17.39,0,0,1,1.77-8.2,2.54,2.54,0,0,0,.05-1.47c-.71-3.95.75-7.76,1.25-11.55A68.27,68.27,0,0,1,439,78.23c-2.95.57-1.55,3.52-3,4.79.39,3.92-1.48,7.43-2.17,11.14A97,97,0,0,1,431,106.43c-1.33,4.11-2,8.45-4.19,12.25-.12.2-.57.2-1.25.42a4.54,4.54,0,0,1,.08-4.28c3.12-5.86,4.5-12.22,5.53-18.74.27-1.67,1.08-3.3,1.08-6.58.19-.27-.19,0-.17.06.27.44-.6,1.54.42,1.33C433.26,90.73,433.22,89.74,432.2,89.5ZM438.69,56c-2.79,1.42-.76,4.56-2.8,5.91l1.7,3.33C438.39,62.12,439.71,59.35,438.69,56Zm-17.44,9v9.46C423.4,70,423.54,67.54,421.25,65ZM447.91,49c.34,1.3-.29,2.51.41,3.79,1.74-.8,2-2.08,1.43-3.79ZM416.5,91c-.46.34-.46.67,0,1C417,91.64,417,91.31,416.5,91Z"/><path class="cls-1" d="M461.92,81c.42-1.58-.94-2.54-1.26-3.87l-3.17,1.66c-1.08-1.38-3.8-.19-4.52-2.73-.11-1,1-1.36,1.56-2.07H457a.71.71,0,0,0,.5.87l.1,0c.08,0,.31-.22.29-.3a.69.69,0,0,0-.77-.6L457,74c0-.82.13-1.6-.69-2.23a9.6,9.6,0,0,1-3.39-5.43c2.32-.09,4.23-2,6.55-1.29.75.44.46,1,.54,1.45,2.41.36,2.41.36,4.48-1.5h3l1.68,1.75c.82.31.89-.75,1.52-.76,2.23,0,4.27.74,5.2,2.73,1,2.22,3.25,3.25,4.4,5.18s2.34,3.62,4.55,4.58c1.3.57,1.83,2.34,2,3.58S488,84,488,85.12l-.78,1.38,1.31,1.62c1.54-.66,3.07-1.08,4.3-2.45-.78-1-.64-2.43-1.8-3.14a1,1,0,0,1,1.4-.52l.06,0c1.08.54,1.41,2.37,3.31,1.78-.85-1.54-1.69-2.94-3.73-3,0-.81-.07-1.45-.11-2.22-.76-.87-2.36-.76-2.89-2.07.17-.6,1.09-.75.92-1.56,2.26-1.47.71-3.15.06-5.18,2.62.75,3,3.37,4.7,4.51S496.57,78,498,79.62c-.47,2.16.85,4.73-1.09,7,3.15,1.43,5,4.11,6.37,7.17,1.56.19,3.31.12,3.71,2.43l-.58.79L509,99.56v2.89c-.65,1.23-2.28-.17-3.05,1.19.31,1.89,1.61,2.49,3.36,2.34,1.12-.3.33-1.59,1.29-2a2.25,2.25,0,0,1,1.27.27c1.73,1.08,2,3.61,4.15,4.21V111h-1c-.77-1.55-1.72-2.86-4-3.08V111c-1.84-.6-2.36,1.34-3.56,1.87l-1.5-1.41c0-1.43,1.8-2.43.87-4.16l-1.31-1.3c-.78.79-.69,2.14-1.82,2.76-2.69-.63-1.15-3.19-2.12-4.9-.66,1.19-.9,2.48-2.22,3.17-1.34-2.4-2.89-4.7-3.5-7.13.51-1.27,1.77-.52,2.09-1.53-1.44-.94-3.19.08-4.69-.62-.74-.77.3-2-.73-2.73l-2.06,2c-1.71-1.34-2.12-2.81-.55-4.53-1.41-.78-3.47-1-3-3.56-4,1.59-4,1.59-5.79,4.43-2.05-1.83-4.19-3.33-5.4-6-1-2.26-2.65-4.25-4.29-6.79-1.21,4.36,3.16,5.89,3.61,8.92a1.37,1.37,0,0,1-1.43.56c-1.35-2.13-1.93-5-4.66-6-2,1.66-2.07,3.82-1.94,6.06-1.26-.17-1.6-1.54-2.75-2-1.32-.16-1.68,1.24-2.64,1.88a7.56,7.56,0,0,1-3.63-.17V88.47a10.6,10.6,0,0,1,4.92-1.74c.34-1.62-.91-1.94-1.37-2.73-.64-1.09-1.34-2.27.37-3,.66,1.1,1.1,2.44,3,1.74A2.68,2.68,0,0,0,461.92,81ZM466,80a.71.71,0,0,0-.49-.86l-.1,0c-.08,0-.32.21-.3.29a.72.72,0,0,0,.79.63l.11,0a.7.7,0,0,0,.47.87l.12,0c.08,0,.31-.22.29-.3a.7.7,0,0,0-.77-.62Zm27.11,10.4c.73.48.92,1.85,2.6,1.52l1.22-1.55c-1.12-.67-2.37-.3-3.82.05Zm9.89,10.1,1.44,1.44c.78-.77,2.21-1.19,1.22-2.81-1.43-.56-1.84.81-2.66,1.39ZM476,82.74c.59,1,.59,1,1.87,1.87,0-.91.56-1.88-.38-2.62C476.85,82,476.17,81.84,476,82.74ZM499,97.8h2.75a1.26,1.26,0,0,0-.2-1.78h0C500.22,95.79,499.67,96.68,499,97.8ZM482.92,80.08c-1.34,0-2.62-.47-4,.37,1.19,1,2.87-.13,3.64,1.48.23.49-.21.16.38-.36ZM460.51,74a2.3,2.3,0,0,0,.05-3c-.68-.06-1.34-.16-1.58.82S460,73.22,460.51,74Zm12.84,1.82c-.36,2.91-.36,2.91.3,3L475,77.48ZM468.51,72a1.17,1.17,0,0,0,.37-1.62,1.22,1.22,0,0,0-.37-.38c-.45.07-1-.21-1.34.4a1.2,1.2,0,0,0,.39,1.61Zm6.71,3.7c.49-.25,1.34,1,1.64-.38-.6-.45-1.15-.48-1.64.41ZM467.5,82c-.46.34-.46.67,0,1C468,82.64,468,82.31,467.5,82Zm13,6c.47-.32.47-.66,0-1C480,87.31,480,87.64,480.5,88Zm-6-17c-.46.34-.46.67,0,1C475,71.64,475,71.31,474.5,71Z"/><path class="cls-1" d="M531.57,114c-.41-4.34-1-8.53-3.89-12a3.8,3.8,0,0,0-2.47.14c-.82,2.14.89,3.48,1.69,5.83v5.73a6.68,6.68,0,0,1-2-4.25c-.77-4.29-1.85-8.54-3-12.75A2.17,2.17,0,0,0,519.35,95l-.35.1c.3,2.4-.76,4.84.86,7.37,1,1.49-.76,2.91-1.28,4.36a2.72,2.72,0,0,1-1.76-3.42,3.06,3.06,0,0,1,.27-.58c2-2.52.45-4.69-.22-6.74-1.24-3.8-2.26-7.79-5.26-11.06l-3.1-.15c-1.75-.77-1.24-2.55-1.91-3.76s-2.08-1.35-3.46-1.11c-.11-1.09-.2-1.88-.28-2.66a53,53,0,0,0-4.27-4.21c-1.58-1.24-3.87-1.81-5-3.31s-1.87-3.06-3.64-3.4c.06-1.81,1.16-1.65,1.8-1.44a8.84,8.84,0,0,1,4.41,2.62,11,11,0,0,0,5.53,3.54c.8,2.68,3,4.27,5.06,5.72A15.34,15.34,0,0,1,512,82.3a9.85,9.85,0,0,0,2.33,2.53,176.07,176.07,0,0,1,17.15,18.45c2.91,3.52,6.18,7.16,7.45,11.85.35,1.3,1.5,2,2.15,3.08a41.32,41.32,0,0,1,4.71,13c.39,1.9,2.39,2.48,2.31,4.64-.06,1.72,2,2.47,3.54,3.46,2.55,1.67,3.77,4.66,5.26,7.25,2.47,4.27,4.21,9,6.59,13.23,2.27,4.06,4,8.45,6.94,12.14.2.25.51.53.5.78-.13,3.9,2.74,6.56,4.21,9.76a91.88,91.88,0,0,1,5.92,17.06c1,4.09.8,8.46,2.89,12.28-.82,4.3,1.21,7.68,3.39,11.09,1,1.6.85,3.59.12,8-1.41.16-2-.82-2.47-1.76-.37-1.11,1.15-1.24,1-2.22s-1.17-1.47-1.87-2.44a8.87,8.87,0,0,0-2-5.95A96.46,96.46,0,0,0,577,192.28c-.74-2.18-1.72-4.28-2.59-6.42a159.1,159.1,0,0,0-9.54-19c-3.94-6.87-7.24-14.12-11.82-20.63a14.15,14.15,0,0,1-1.27-3c-4.29-.89-5.75-4.25-6.75-8A92.66,92.66,0,0,0,538.56,118h-1.08c.14,3.65,2.06,7.09,1.36,10.93a2.87,2.87,0,0,1-1.89-2.6c-.37-3.93-2.51-7.58-2-11.67-1.39-.8-.74-2.36-1.24-3.43a1.3,1.3,0,0,0-1.43-.06C531.68,112,532.14,113,531.57,114Z"/><path class="cls-1" d="M29.91,235.19c-1.16-.8-1.25-1.67-.42-2.15,3.33-1.91,5.73-4.82,8.38-7.46s6-3.67,8.43-6.28c1.65-1.73,12.82-5.63,15.29-6.38C65.26,211.8,69,212,72.68,212h5.41c-.26-3.71-3.36-3-5.08-3.85a5.07,5.07,0,0,0-4.59.7c-2.19,1.33-5.14,1-7.69,1.86a107.41,107.41,0,0,0-14,6,12.54,12.54,0,0,1-2.27.47c1.38-1.59,2.16-2.61,3.42-3.2,4.17-2,8.18-4.62,12.57-5.73s8.58-2.61,12.83-4a3.21,3.21,0,0,1,1.89-.19c6.23,2.42,12.71,4.36,17.72,9.36v4c5.22,4.15,5.28,10.55,7.28,16-1.14.83-2,.49-2.94.52-3-3.65-2.34-9-6.15-12.79-1.42-.28-2.43-2.51-5.54-2.93-2.55.85-5.2-1.9-8.37-2.7a7,7,0,0,0-4.09-.14c-2.37.76-2.38.74-4.83-.39-1.2-.21-1.76,1.09-3.08,1.09A25.6,25.6,0,0,0,54,219c-1.31.65-2.68.72-4,1.32a35.2,35.2,0,0,0-9.65,6.78C37.18,230.34,33,232.05,29.91,235.19Z"/><path class="cls-1" d="M467,90.16c2.07-.75,2.28,2,3.75.86.6,1.37-.14,1.87-.75,2.45,1.07,1.14,2.54,0,3.7.7.41.64,1.43.9,1.3,2.06-.35,1.67-2.11.07-2.8,1a1.24,1.24,0,0,0,0,1.38c1.42.94,3.21-.31,4.68.66.56,1.76-1.25,2.1-1.87,3.19,1,1,3.12-.18,3.77,1.94-.13.82-1.14,1.17-1.72,2l1.19,1.3c.65.23.73-.44,1.57-.83,1.18-.33,1.86,1.48,3.16,1.54.24,2.38-2.24,2-3.18,3.59,1.14,1.43,2.1,3.08,4.14,3.18a3.59,3.59,0,0,1-1.14,3.6c5.22,7.87,7.31,17.16,11.49,26-2.37-1.63-3.45-3.47-6.47-10.65-1.38-.69-3.71.72-4.62-1.78.31-1.25,1.89-1.1,2.43-1.57,1.6-2.81-1.89-3.38-1.83-5.58-1.35-.84-3.13.32-4.6-.56-.36-.35-.71-.71-1.06-1.06.23-1,1-1.35,3.5-1.77.76-.76.47-1.83-1-3.76-1.82-.51-3.42.24-4.87,1-1-.82-.88-1.44-.22-2.19,1-1.11,2.79-1,3.5-2.52.21-1.36-1.42-2-1.41-3.48-.48.11-1.07,0-1.34.32-1.63,1.63-3.35,3-6.11,2.65,1-3.11,5.25-3.07,5.93-6.21-.91-1.35-2.18-.47-3.2-.73-1.73.59-2.26,2.85-4.2,3.1l-.73-.85c.84-3,3.91-3.34,6-4.76v-2.3c-3.36-.65-5.82,1.52-8.35,3-.95-1-.69-1.6,0-2.3,1-1.08,2.51-1.21,3.71-1.91.89-.52,2.1-1.11,1.46-2.82-3.3.07-5.67,2.46-8.88,3.91.66-4.5,6.43-3.68,7.21-7.57-2.8-1.81-5.29,1.83-8,.16,1.17-2.53,4.4-1.24,5.88-3.52Z"/><path class="cls-1" d="M505,174.81c1.73,6.23,4,12.29,5.91,18.52l3.43,2.85c-1.13,2.34.81,3.88.72,5.83s0,3.65,0,5.14l2.21,4.17c-3.59,4.86,1.46,8.63,1.94,13.07-1.29,1-2.57.53-3.81.47-.65-1.11-.19-2.29-.36-3.43-1.06-1.07-2.54,0-3.64-.63-1.53-1.09-1.53-3.29-3.28-4.15v-6.23l-2.25-1.71c1-3-1.07-5.46-.85-8.26.2-2.64,0-5.31,0-8,.88-.65,1.25-2.09,2.88-1.38v-2.79c-1.08-.84-2.52,0-3.54-.4-1.37-2.48,1-3.31,1.79-4.8L504,179.19V175Zm10,44.56a25.64,25.64,0,0,0,0-3.28c-.35-2.18-1.37-4.23-1-6.55.08-.52-1-.74-1-1.57,0-1.28-.86-1.05-1.65-.83-1.15,1.59.26,2.69.68,4,.52,1.58-1.75,2.45-.79,4.5C512.5,216.12,512.65,218.36,515,219.37Zm-7.08-23.82a2.69,2.69,0,0,0,1.95,2.33c.05-1.34.49-2.62-.32-4C508.91,194.57,508.46,195,507.92,195.55Zm4,5.46c-1.05-.06-1.72-.17-1.92.77-.08,1.24.78,1.65,1.92,1.85Z"/><path class="cls-1" d="M571.85,219.35c.56,2.74,3.4,3.53,4.42,5.64,2.82-1.61,1.78-3.53.55-5.19.62-.91,1.19-1,1.85-.66.68,1.58.09,3.25.35,4.85s-.61,3.49.62,5.25c.94,1.34.07,3.23.4,4.81.47,2.21-1.22,4-1,6.08.12,1.27-.45,2.63.41,3.84,1.65-1.21,1.67-3.6,3-4.65,1.87-1.54,1.44-3.48,1.69-5.22,1.12-.1,1.92-.35,2.8.18v4.22c-3.53,3.39-5.86,8.16-9.18,12.54-3.59-.9-5.9,2.26-9.1,2.94-.83-.62-.94-1.59-.08-1.94,4.28-1.75,5.26-6,7.41-9.84v-8.44l-3.79-3.61v-5.67c-2.51-.74-3.71-2.83-5.46-4.29-2.17-.1-4-1.84-6.17-1.17-.79-1-.38-1.8-.5-2.9C564.23,215.75,567.9,217.38,571.85,219.35Z"/><path class="cls-1" d="M152.12,84.49c-1.9,8.83-1.37,17.64-.18,26.47h-1.69c-.86-4.48.82-9.33-1.88-14-3,.59-6-1.51-9.49-1.07-3.15.41-6.22,1.85-9.85.71-.26-1.68,1.92-3.25.73-5.22,6.25-2.68,12.39-3.41,18.72-1.3.84-1.33.52-2.6.38-3.8-.67-.57-1.77-.11-2.11-1.1-1.7,1.2-3.7,1-5.46.66s-3.36,2.52-5.33.5c.39-2.89,3-1.69,4.39-2.56,2.13-1.37,4.15-.5,6.17-.84A8,8,0,0,1,152.12,84.49ZM148.93,93c-1.81.59-3.05-1.13-4.87-1.07-2.66.09-5.32,0-8,0-2.13,0-3.68,1-5.88,3.35,6.88-1.67,12.7-2,18.39-.47C149.18,94.39,149,93.89,148.93,93Z"/><path class="cls-1" d="M365,176c-1.2.23-2.08,1.74-3.58.84-.48-.22-.27-.8-.45-1.21-.61-1.39,1.58-1.78,1-3.09,2.13-.67,3.33-2.49,4.66-3.72.94-3,1.88-5.82,2.65-8.66,1-3.61,1.79-7.25,2.69-10.88.75-3,.95-6.19,3-9-.82-2.76,1.51-5.25,1.33-8.21,1,2.32.44,4.73.66,7l-3,5.77c.87,2.16-1.34,4.43-1,6.84,1,.47,1.87.43,1.92-.23.14-1.78,1.77-2.26,2.86-3.92.36,4.35-1.92,7.53-2.85,11A51.53,51.53,0,0,1,371.32,169c-1.71,3.29-2.84,6.85-4.82,10a45.3,45.3,0,0,1-7,9l-1.61-1.6c.95-3.87,5.21-4.85,7.11-8.12V176c.69,0,1-.31,1.3-2,.09-.78-.29-.49-.27-.45.27.44-.6,1.54.42,1.33.81-.16.77-1.15-.15-.88C365.31,175,365,175.28,365,176Zm6.17-13.58A10.86,10.86,0,0,0,374,154h-2.31c1.46,2.82-1,5.07-.48,8.37ZM369.5,167c-.46.34-.46.67,0,1C370,167.63,370,167.3,369.5,167Zm-2,5c.47-.33.47-.66,0-1C367,171.31,367,171.64,367.5,172Z"/><path class="cls-1" d="M161.85,184.4c1.67-.59.6-2.57,2.19-2.71-2-2.86-2.65-6.11-3.94-9.07-.62-1.43-.86-3-2.09-4.12a6.42,6.42,0,0,1-1.85-4.68c-.11-5.5-2.82-10.61-2.16-16.17-1.57-3.58-.05-7.64-1.2-11-1.34-3.93-.15-7.9-1.59-11.82-1.06-2.89-.21-6.49.17-9.79.3,3.46,1.93,6.64,1.68,10.2a19.09,19.09,0,0,0,.83,8.12c.84,2.34-.6,5.17,1.07,7.58.31.45,0,1.3,0,2a83.3,83.3,0,0,0,6.59,27.26c1.49,3.38,2.46,7,4.63,11.18.37,1-1.26,3.37.51,4.91l-1.1,1.75C163,187.87,163.37,185.55,161.85,184.4Z"/><path class="cls-1" d="M44.44,142l1.31,1.31c.27.24.23.63-.2.68-3,.36-3.31,3.29-4.42,5.11-2,3.25-3.75,6.79-4.09,10.73-.09,1-.89,1.31-1.26,2-1.16,2.17-3,4.09-2.81,6.78l-3.9,3.89c.38,2.83-2.71,4.64-2.12,7.63.51,2.55-1.72,4.86-.86,7.42-.83.53-1.09,1.5-2,1.53-1.08,0-1.33-1-2.05-1.43v-4a12.19,12.19,0,0,0,3-7.16c.26-1.76.88-4,2.16-5,3.12-2.27,2.57-6.59,5.54-8.76,0-3.42,2.56-5.88,3.42-9.08.94-3.47,3.55-6.47,5.35-9.72C42.28,142.6,44.05,143.46,44.44,142Z"/><path class="cls-1" d="M139.34,109c-1.38.06-1.72,1.28-3,1.09-2.4-.35-4.6.61-6.7,1.77-2.29,1.27-5.1,1.31-7.22,3.1a2.21,2.21,0,0,1-2.63-.59c5.73-4,11.67-6.71,18.73-6.39.44-1,1.71-.71,2.76-1.74-3.77-.33-7.07.68-10.28,1.41a30.25,30.25,0,0,0-9.45,3.62c-1.28-1.92.22-3.12,1.14-3.12,2.39,0,4.08-1.6,6.07-2.33s4.24,0,5.72-1.79h10.26c.35,1.45.57,2.57-1,3.59,1.7.54,3.73.3,4.21,2,0,1.35-1,1.6-1.59,2.6C145.22,108.41,141.33,111.18,139.34,109Z"/><path class="cls-1" d="M551.54,218.34a24.9,24.9,0,0,0-10.83-1.27c-4.39,2.33-9.26,4.29-12.72,8.48.52,1.51-.68,2.63-1.3,4.09-1.17.46-2.39,1.66-4.21,1.32-.9-1.1-.38-2.39-.38-3.48,1.55-2.06,3.52-3.52,5-5.52,1.21-1.61,3.45-2.4,5.1-3.72,4.93-4,10.65-4.78,16.64-4.18,1.28.13,2.57,1,3.9,1.12C553.59,216.54,552.27,217,551.54,218.34Z"/><path class="cls-1" d="M98,135.4v1c-.22.17-.46.52-.7.52a37.5,37.5,0,0,1-9.09-.82c-2.21-.54-5-.9-7.19.41-2,1.2-4.28,0-6.53,1.15-1.91,1-4.78.2-7.18.2-.39-1.06.86-.92.73-1.49,2-1.26,4.23.38,6.24-1,1.63-1.16,4.18.33,5.88-1.37,4.65,0,9.32-.24,13.93.17A9.84,9.84,0,0,1,98,135.4Z"/><path class="cls-1" d="M359.63,170.46c-.5-.89-.91-1.6-1.52-2.66.79-1.26,1.13-3.34,3.68-4.28,1.92-.71,2.52-3.38,3-5.1,1.28-4.29,3.45-8.27,4.32-12.72.22-1.14,1-2.33.82-3.6-.2-1.7,1.06-2.67,1.53-4.23.79,1.17.4,2.18.49,3.13a2.82,2.82,0,0,1,0,1.47c-2.15,3.56-2.12,7.75-3.5,11.52-1.21,3.32-2.08,6.9-4,9.76C363.08,165.8,362.65,168.55,359.63,170.46Z"/><path class="cls-1" d="M120.9,118.52c11.78-5.53,16.56-6.43,27-5.13,0,.32.06.64.08,1-.38,1.11-2,.19-2.32,1.44-2.69-1.55-5.79-1.18-8.43-.63a39.78,39.78,0,0,0-8.44,2.36c-2.47,1.12-4.45,3.43-7.2,3.56C120.58,120.14,121.3,119.23,120.9,118.52Z"/><path class="cls-1" d="M503.76,175.57c-1.63-3.17-2.45-6.21-5.7-7.06-.81-2,1.85-3.29.83-5.11-2.27-4.06-1.11-9.4-4.73-12.83v-3.5H496c-.22,2.28.73,4.17,1.59,6.2,1.92,4.52,4.11,9,4.35,14.09a4.15,4.15,0,0,0,1,2.11A7.76,7.76,0,0,1,503.76,175.57Z"/><path class="cls-1" d="M433,150c-.32-3.31,1.72-5.37,3.94-7.41v-5.86c.77-.84,1.2-2.11,2.85-1.57,1,2.23-1.47,4.08-.84,6.38.57,2.07-1.43,3.82-1,6.07s-1.55,4.16-1,6.56a7.4,7.4,0,0,1-1.48,5.81l-1.27-1.28c1.86-2.39-.44-5.73,2-8L434.54,149C434,149.23,433.81,150.14,433,150Z"/><path class="cls-1" d="M150,83c0-1-1-1.26-1.49-2.08H137.33c-.48-1,.62-1,.82-2,1.69,0,3.46-.07,5.22,0s2.72-1.66,4.42-1c.1-1.11-.71-1.23-1.13-2.07h-7.55l-.22-.59L141.42,74h7.21c1.53,1.29,2.18,2.72.38,4.4,1,.74,2.49.73,3,2.39C152.08,82,151.12,82.57,150,83Z"/><path class="cls-1" d="M141.92,38.68c.46-1.21-.49-1.6-.86-2.26l1.39-1.4c1.19.16,2.51-.27,4.14.85,2.51,1.73,5.49,2.78,7.89,3.93a3.76,3.76,0,0,1,.44,2.76,2.65,2.65,0,0,1-.83.4c-2.78.27-5.16-1.18-7.58-2.13C145,40.23,143.53,39.23,141.92,38.68Z"/><path class="cls-1" d="M85,121.84c1-2.41,3.54-1.53,4.87-2.86,3.42.32,6.59-1.65,10.09-1.06,1.35.23,3,.65,3.67-1,1.47.29,2.23,1.12,3.48,1.16,2.4.09,2.47.37,3,3.72a34.17,34.17,0,0,0-5.48-1.73,60.91,60.91,0,0,0-6.48-.08A8.19,8.19,0,0,0,94,121c-1.22.64-2.77-.38-4.24.69C88.45,122.53,86.65,122,85,121.84Z"/><path class="cls-1" d="M386.07,124.4c.65-.64,1-1,1.65-1.65,2.95,9.3.81,18-1.47,25.36L383.56,152c-1.52.14-1.7-1-2.81-1.36a13.09,13.09,0,0,0,5.12-7.36,44,44,0,0,0,2-12.11A11.34,11.34,0,0,0,386.07,124.4Z"/><path class="cls-1" d="M126.54,104.1C126,103.21,125,103,125,102c.11-.29.18-.78.35-.83,7.18-1.72,14.36-3.73,21.7-.92l-.17,1.5c-3.52,1.07-6.8-1.37-10.34-.81S130.05,102.82,126.54,104.1Z"/><path class="cls-1" d="M394,128.07h1.72c.56,6.57.56,6.57-3.17,19.91h-2c-.13,0-.24-.2-.43-.37C391.63,141.16,394.61,135,394,128.07Z"/><path class="cls-1" d="M370.68,110c1.57-7.16,4-14.14,3.26-21.36.43-.69.93-.65,1.78-.64,1.2,7.66-1.07,14.82-3.07,22Z"/><path class="cls-1" d="M515,111c-.45,1.68.83,3,1.14,4.61.92.73,2.74.66,2.86,2.53a3,3,0,0,1-.09.43c-2.19,0-3.52,1.83-5.39,2.64-.35-2.42-.35-2.42,1.48-5.62-.69-1.13-1.72-.44-2.6-.49-.71.56-.09,2.66-2.06,1.72-1.4-2.1.85-3.83.66-5.82Z"/><path class="cls-1" d="M148.68,119c.39.81,1.22.93,1.12,1.83-3.76.59-7.59-.08-11.43,1-3.29.92-6.63,2.89-10.75,1.86C137.14,119.78,137.9,118.61,148.68,119Z"/><path class="cls-1" d="M376.46,109a2.51,2.51,0,0,1,.07-3.09A16.55,16.55,0,0,0,379,96a4.67,4.67,0,0,1,.9-3.64c.61-.76,0-2.08-.72-2.84l1.3-1.52c1.16,2,2.33,3.93.52,6.07.59,4.26-1.26,8.11-2,12.15C378.7,107.8,378.72,107.8,376.46,109Z"/><path class="cls-1" d="M409.81,180a10.08,10.08,0,0,0,1.16-1.66c.18-.41-.1-1,.66-1.33h2.83c.91.47.34,1.41.57,2.12a9.59,9.59,0,0,0,1.1,1.78c-1.93,1.5-.11,4.73-2.76,6.06-1.05.25-1.42-.64-2.25-1.35C410.63,184,411.7,181.6,409.81,180Z"/><path class="cls-1" d="M396.47,86c.71.38.39,1.17.73,1.75.86.4.86-.69,1.38-.8,1-1.12-.09-2.59.76-3.82l1.23-.09c.84,1.09.27,2.28.44,3.41l2,2.15c0,1.45-1.1,1.59-1.34,2.37h-6.14l-1.58-3C394.54,86.8,395.12,85.85,396.47,86Z"/><path class="cls-1" d="M363,153.65v3.47c-1.58,1.8-2.46,4.29-4.53,5.88-.64.49-.37,1.17-.48,1.79-.36,2.1-1.79,2.43-3.79,2V162l3.36-.16C360.14,159.73,360,155.76,363,153.65Z"/><path class="cls-1" d="M146.84,126.67c-3.3,1.06-6.69-.19-10.09.85-2.79.85-5.42,3.15-9.37,2.08A30.29,30.29,0,0,1,145.71,125c.18.22.5.59.79,1A4.74,4.74,0,0,1,146.84,126.67Z"/><path class="cls-1" d="M523,126c3.75,1.18,3.89,5.38,7.16,6.3-.85,1.93.83,3,.87,4.25-1,.87-1.57.52-2.22-.13-1.15-1.15-1.38-2.74-2.08-4.1-1.13-.77-2.6.34-3.9-.86C523.67,129.68,525.16,127.81,523,126Z"/><path class="cls-1" d="M158.17,184.76c-2-3.27-2-3.27-1.71-5.81,3,0,2.23,3.82,4.39,4.29v6.64h-2.68Z"/><path class="cls-1" d="M380,129.48l1.73-1.73c.72,6.45.52,12.44-2.34,18.19-1.08-2.79.21-5.33.53-8A68.22,68.22,0,0,0,380,129.48Z"/><path class="cls-1" d="M96.9,141.34v1.77c-1.79-.57-3.35,0-5.23-.73a7.88,7.88,0,0,0-7,.37,1.87,1.87,0,0,1-2.62-.39,1.91,1.91,0,0,1-.29-.61C86.84,138.85,91.84,140,96.9,141.34Z"/><path class="cls-1" d="M383.61,197.18c-.74,5.44-3.5,9.8-7.36,13.55C377.64,205.66,381.14,201.7,383.61,197.18Z"/><path class="cls-1" d="M513,98.44,511.44,100c-1-1.06-.22-2.66-1.35-3.86-.9-1,.26-3-.84-4.59-.67-1-.13-2.8-.13-5.1.87,1.32,1.69,1.6,1.91,2.91C511.58,92.42,511.85,95.55,513,98.44Z"/><path class="cls-1" d="M382.38,105.09c.46-4.36,1.74-8.13,3.07-12.36,1,1.73.16,3.37.6,4.73.54,1.69-1.23,2.59-1.06,4.09C385.19,103.37,384.61,104.71,382.38,105.09Z"/><path class="cls-1" d="M365.19,215.74c-.09-.26-.23-.47-.18-.53,2.7-3.27,4.06-7.51,7.51-10.23.71.69.6,1.3,0,2.05C370,209.88,369.07,214,365.19,215.74Z"/><path class="cls-1" d="M31.93,216c1.09-.15,1.32,1.47,2.61,1.06a2.35,2.35,0,0,1,2.38.31v2.25c-1.6,1.29-2.37-1.25-3.94-.7-1.13.39-2.51.08-3.83.08C28.51,216.11,31.44,217.27,31.93,216Z"/><path class="cls-1" d="M486.51,72.21c-4.18-1-6.72-3.19-9.51-4.89,0-.47-.11-1,.8-1.39A18.9,18.9,0,0,1,486.51,72.21Z"/><path class="cls-1" d="M532.82,132.23c3-.83,2.92,1.67,3.74,2.87a38.59,38.59,0,0,1,2.29,4.54c-.56.57-1.18.47-1.9-.2C534.85,137.49,533.88,135,532.82,132.23Z"/><path class="cls-1" d="M151.84,59.54v8.24c-.47.09-.86.28-1.06.17a11.74,11.74,0,0,1-1.61-1.19C148.44,64.05,149.66,62,151.84,59.54Z"/><path class="cls-1" d="M523,125.83h-4.65c-.49-.5-.84-.84-1.19-1.19.31-1.8,3.25-1.2,3.09-2.91l2.75,2.61Z"/><path class="cls-1" d="M28.38,226.82h-8.1c-.79-1.38.33-1.84,1.07-2.73C23.88,223.48,26,224.51,28.38,226.82Z"/><path class="cls-1" d="M21.78,200.88c-1.59.27-1.9-.7-2.65-1.24V196.2l2.93-1.67c-.16-.15.2.2.79.8C21.33,196.84,22.4,199,21.78,200.88Z"/><path class="cls-1" d="M32.8,222.75c-3.68.62-5.94-1.89-8.71-.43V220C27,220.14,30,219.27,32.8,222.75Z"/><path class="cls-1" d="M377.53,185.07c-1.73-2.29,1.05-3.64.56-5.65-.41-1.67-.09-3.51-.09-5.35h1.62c1.18,2-.61,3.65-.53,5.39C379.18,181.49,378.35,183.09,377.53,185.07Z"/><path class="cls-1" d="M142.92,133.22c-1.29,1.4-3.24.18-4.73,1.64-.82.8-2.55,2.11-4.4.43C136.31,131.81,139.81,133.39,142.92,133.22Z"/><path class="cls-1" d="M378.09,195c-.18,3.74-1.95,6.6-4.7,9.12-1.48-2.46,2.82-2.93,1.61-5.14C376,197.6,375.94,195.48,378.09,195Z"/><path class="cls-1" d="M367,192.42a12.89,12.89,0,0,0-2.22,4.52c-1-.07-1.8.3-2.6-.3,0-.41-.19-1,0-1.28,1-1.28,2.16-2.46,2.93-3.32C366.23,192,366.68,192,367,192.42Z"/><path class="cls-1" d="M455.91,83.15V85c-1.89,0-3.82-.22-5.19,1.23-1.51-1.55-.18-2.17.59-3.07Z"/><path class="cls-1" d="M532.47,114c1,1,.3,2.25.54,3.32.19.84,1.66,1.28.71,2.49l-1.22.38c-.4-1.36-1.6-2.38-1.51-4.06C531.05,115,532,114.68,532.47,114Z"/><path class="cls-1" d="M15.84,207.06h2v4.68c-.43.1-.8.31-1,.21a13.43,13.43,0,0,1-1.6-1.11C15.7,209.6,16.57,208.51,15.84,207.06Z"/><path class="cls-1" d="M451,96.54c.71-1.66,2-2.2,3.36-2.73l1.42,1.59a5.66,5.66,0,0,1-.34.59C454.28,97.71,452.65,96.64,451,96.54Z"/><path class="cls-1" d="M450.7,90.64c.89-2.33,2.07-3.17,4.12-2.43C454.17,90.88,454.16,90.87,450.7,90.64Z"/><path class="cls-1" d="M363.31,154.36c-1.34-3.27,1.74-5.44.48-8.37l2,.11C364.84,148.8,364.64,151.64,363.31,154.36Z"/><path class="cls-1" d="M17.74,229.32c2.42-.77,3.7-.13,4.34,1.89C19.61,232.08,19.61,232.08,17.74,229.32Z"/><path class="cls-1" d="M393,100h-2.44c-1.06-.69-.41-1.71-.47-2.58L391.53,96A9.47,9.47,0,0,1,393,97.76,6.71,6.71,0,0,1,393,100Z"/><path class="cls-1" d="M376.75,164v6.77c-.32.32-.79.78-1.25,1.25-.16-.26-.51-.55-.47-.77C375.44,168.78,376.39,166.46,376.75,164Z"/><path class="cls-1" d="M371.23,185.69l-3.74,5.51C367.39,188.53,367.88,187.66,371.23,185.69Z"/><path class="cls-1" d="M548.22,151.25c-2.39-1.14-2.41-3.68-4-5C547.22,146.47,547.52,148.8,548.22,151.25Z"/><path class="cls-1" d="M86.94,180.79c.1-.82.14-1.13.18-1.44,2.19-.17,2.19-.17,4,1.13C89.72,181.37,88.45,180.89,86.94,180.79Z"/><path class="cls-1" d="M156.29,175.85c-2.47.32-3-.87-3.49-2.51C155,172.55,155.64,173.81,156.29,175.85Z"/><path class="cls-1" d="M387.73,116.62c1.75.85,1.23,2,1.13,3-.34.58-.88.3-1.37.37C386.7,119,386.72,118,387.73,116.62Z"/><ellipse class="cls-1" cx="90.5" cy="175.98" rx="1.7" ry="1.12"/><path class="cls-1" d="M86.81,191.07h1.8c.86,1,0,1.86.58,2.82H87.4C86.53,193,87.4,192,86.81,191.07Z"/><path class="cls-1" d="M372,196v-2.5c.84-.56,1.22-2.09,3.1-1.11C374,193.57,372.63,194.52,372,196Z"/><path class="cls-1" d="M431.94,174.49c.35,1.79-1.14,2-3.27,3.43.91-2,1.35-3,1.77-4C431,174,431.52,173.76,431.94,174.49Z"/><path class="cls-1" d="M531,129.55a22.45,22.45,0,0,1-3.82-4.54C530.27,126.63,530.26,126.63,531,129.55Z"/><path class="cls-1" d="M453.91,102.15v1.44a2.63,2.63,0,0,1-2.9,0C450.93,101,452.68,102.24,453.91,102.15Z"/><path class="cls-1" d="M497,172.51a1.23,1.23,0,0,1,1.65-.39,2.72,2.72,0,0,1,0,2.83C497.77,174.29,496.87,173.79,497,172.51Z"/><path class="cls-1" d="M443.38,214.7c2.71,1.2,3,2.48,2.25,4.52Z"/><path class="cls-1" d="M505.83,87.16v4.65C504.69,90.31,505.13,88.72,505.83,87.16Z"/><path class="cls-1" d="M148.92,153.35v2.26a1.24,1.24,0,0,1-1.86,0C146.8,154,148.1,153.79,148.92,153.35Z"/><path class="cls-1" d="M558.94,202.1c1.64-.07,2.9-.47,4.09.33-1,1.21-2.95-.34-3.46,1.52C558.8,203.47,559.07,203,558.94,202.1Z"/><path class="cls-1" d="M91.05,185.81h-2.8a1.31,1.31,0,0,1,.24-1.85h0C89.78,183.84,90.34,184.69,91.05,185.81Z"/><path class="cls-1" d="M433,149.82a2.7,2.7,0,0,1-1.73,3.11C430.55,151,431.89,150.56,433,149.82Z"/><path class="cls-1" d="M429,185.89h-1.78c-.1-.51-.19-.95-.28-1.47C428.25,183.64,429.08,183.66,429,185.89Z"/><path class="cls-1" d="M548,150.82c1.08.74,2.43,1.17,1.72,3.11A2.68,2.68,0,0,1,548,150.82Z"/><path class="cls-1" d="M96,148.46c.18,1.36-.45,1.71-1.41,1.49-.8-.45-.52-1-.59-1.46a1.19,1.19,0,0,1,1.62-.4A1.34,1.34,0,0,1,96,148.46Z"/><path class="cls-1" d="M425,160.13a2.69,2.69,0,0,1,1.72-3.11C427.46,159,426.11,159.4,425,160.13Z"/><path class="cls-1" d="M362,209.54c.93-.67,1.23-2.21,3.09-1.13C364.12,209.08,363.82,210.62,362,209.54Z"/><path class="cls-1" d="M433.67,216.81l1.8-1.79,2.25,1.79Z"/><path class="cls-1" d="M500.9,181.59l-1.47-1.48,1-.18C501.24,180.65,501.15,181.31,500.9,181.59Z"/><path class="cls-1" d="M418,166a2.72,2.72,0,0,1-1.64,1.92c-.53-.51-.49-1,0-1.8Z"/><path class="cls-1" d="M533.39,141.06h1.22c.58.6.54,1.15-.22,2.15C534,142.45,533.72,141.76,533.39,141.06Z"/><path class="cls-1" d="M538.76,147.89h-1.38c-.55-.63-.54-1.18.24-2.12Z"/><path class="cls-1" d="M518,113h-2v-2A2.47,2.47,0,0,1,518,113Z"/><path class="cls-1" d="M381.71,188.75c-.9-.48-.86-1-.38-1.64C382.7,187.42,381.45,188.27,381.71,188.75Z"/><path class="cls-1" d="M156.78,77.3c-.52.83-1.07.86-1.65.33C155.49,76.29,156.3,77.5,156.78,77.3Z"/><path class="cls-1" d="M562.93,197.48c.81-.66,1.37-.69,2-.15C564.47,198.41,563.83,198.12,562.93,197.48Z"/><path class="cls-1" d="M87.53,199c-.72-.77-.68-1.32-.19-1.94C88.45,197.48,88.14,198.12,87.53,199Z"/><path class="cls-1" d="M371.41,198c-.63-.7-.66-1.68.14-1.85,1-.2.15.89.42,1.33C372,197.43,371.62,197.73,371.41,198Z"/><path class="cls-1" d="M147.07,142.45c-.77.71-1.33.68-1.95.18C145.5,141.53,146.15,141.84,147.07,142.45Z"/><path class="cls-1" d="M429.32,141.19c.84.53.87,1.08.34,1.66C428.32,142.49,429.53,141.68,429.32,141.19Z"/><path class="cls-1" d="M180.07,184.38c.7-.62,1.68-.66,1.85.15.2,1-.89.15-1.33.42A6.07,6.07,0,0,1,180.07,184.38Z"/><path class="cls-1" d="M521.68,117.76c-.83-.53-.87-1.08-.33-1.66C522.68,116.46,521.48,117.27,521.68,117.76Z"/><path class="cls-1" d="M426.5,166c.47.34.47.67,0,1C426,166.63,426,166.3,426.5,166Z"/><path class="cls-1" d="M455.5,110c-.46-.32-.46-.66,0-1C456,109.31,456,109.64,455.5,110Z"/><path class="cls-1" d="M378,195a.68.68,0,0,1,.47-.85l.12,0c.08,0,.31.21.29.29a.69.69,0,0,1-.76.62Z"/><path class="cls-1" d="M519,114a.84.84,0,0,1-1-.66,1,1,0,0,1,0-.34A.87.87,0,0,1,519,114Z"/><path class="cls-1" d="M519,114a.69.69,0,0,1,.85.47.53.53,0,0,1,0,.12c0,.08-.21.31-.29.3a.7.7,0,0,1-.62-.77Z"/><path class="cls-1" d="M490,75a.7.7,0,0,1-.87-.47.5.5,0,0,1,0-.12c0-.08.22-.31.3-.29a.71.71,0,0,1,.61.78S490,74.92,490,75Z"/><path class="cls-1" d="M425,160a.71.71,0,0,1-.5.87l-.09,0c-.08,0-.32-.22-.3-.3a.69.69,0,0,1,.77-.61Z"/><path class="cls-1" d="M326,273a.84.84,0,0,1-1-.66,1,1,0,0,1,0-.34A.87.87,0,0,1,326,273Z"/><path class="cls-1" d="M418,166a.68.68,0,0,1,.47-.85l.12,0c.08,0,.31.21.29.29a.69.69,0,0,1-.76.62Z"/><path class="cls-1" d="M246.2,53.58c6.26,1.09,11.35,1.83,16.25,1.34l1.34,1.35c.27.84-.91.73-.76,1.69-1.77-.08-3.31.31-4.89-.34C254.55,56.14,250.06,57.84,246.2,53.58Z"/><path class="cls-1" d="M293.5,54l-1.65-1.67c1.5-.29,3-1.07,4.14-.68,1.61.56,3.24-.1,4.75.58C299.16,54,299.16,54,293.5,54Z"/><path class="cls-1" d="M269,51.23c-2.56,2.28-4.94,2.14-9.45,0Z"/><path class="cls-1" d="M236.35,53.05h6.17c.67.37.41.92.54,1.58C240.43,56,238.44,53,236.35,53.05Z"/><path class="cls-1" d="M286.08,76.48c-.82.65-1.37.68-2,.14C284.54,75.54,285.17,75.83,286.08,76.48Z"/><path class="cls-1" d="M267.93,76.48c.81-.66,1.37-.69,1.95-.15C269.47,77.41,268.83,77.12,267.93,76.48Z"/><path class="cls-1" d="M292.05,128.81c-.3-2.87,2.44-2.51,3.6-3.84.25.67.46,1.24.7,1.91h2.25c.75-.74.22-1.62.42-2.47,1.13-.8,2.41-.39,3.55-.32.53.29.28.41.1.78a12.08,12.08,0,0,1-3,3.94Z"/><path class="cls-1" d="M313.24,104.13c-1.48,2-4,2-4.66,3.79-1.49.18-1.7-.89-3.08-1.44C308.47,105.79,310.14,103.36,313.24,104.13Z"/><path class="cls-1" d="M308.33,149.45c-1.43.65-2.32.75-3.24.14v-1.23C306.62,147.25,307,148.86,308.33,149.45Z"/><path class="cls-1" d="M314,103c0,.69-.31,1-1,1A.87.87,0,0,1,314,103Z"/><path class="cls-1" d="M294,131.48c-.32.46-.65.46-1,0C293.34,131,293.67,131,294,131.48Z"/><path class="cls-1" d="M288.5,135c.47.34.47.67,0,1C288,135.63,288,135.3,288.5,135Z"/><path class="cls-1" d="M346.4,96c-.63-.37-2.27.85-2.42-1.13.42-2.06,3.3.55,3.27-2.11l1.52,1.53c0,3.91.59,7.81-.21,11.41-.51,2.3-1,4.84-.33,6.6.79,2,.54,3.79.75,5.66s-1,3.25-2.05,4.61a1.16,1.16,0,0,1-1.61.28l-.12-.11c-.81-1.76,1.1-2.08,1.82-3.39-.48-3.2.91-6.84-1.06-10.37A12.67,12.67,0,0,0,346.4,96Z"/><path class="cls-1" d="M240.5,139c.46.34.46.67,0,1C240,139.63,240,139.3,240.5,139Z"/></g></g></g></g></svg>