<svg xmlns="http://www.w3.org/2000/svg" viewBox="0 0 588.11 291.14"><g id="Layer_2" data-name="Layer 2"><g id="Layer_1-2" data-name="Layer 1"><path d="M371,110c.12.28.23.81.36.81,3.7,0,7.22,1.87,10.95,1.11l1.6,1.35c.29,1.5-.66,1.83-1.13,2.45-1.49.78-3.25-.26-4.7.61l-.08,1.08c1.16,1.64,3.89-.82,4.42,1.42l-3,3.1a64.88,64.88,0,0,0-8.74-2.67c-3.27-.59-6.25,1.51-9.55,2v2.57h4c1.89.87,1.73,2.72,3,3.7-.45,4.08,1,8.42-1.41,12.34-.9-3.47-.89-3.59.24-7.49-2.62,1.93-2.62,1.93-3.27,4.86-1.15-1.7-.17-3.34-.8-4.87-3.21-1.62-6.28,1.05-9.51.74-.25.74-.45,1.32-.66,1.9-.84-.37-.48-1.17-.79-1.67-2.49,1.17-5.59.13-7.83,2.25,0,.24,0,.57,0,.9,4.44.78,4.6.77,8.86-.49,1-.13,1.26.93,2.13,1.31-1.25,1-2.85,1.36-3.35,2.57-1.49.57-1.75-1.31-2.92-.84-1.68.6-1.65,2.44-2.58,3.57a1,1,0,0,0,1.36.36c2.49-1.63,5.67-.15,8.12-1.75l1.37,1.23c.26,1.83-2,2.2-2.11,3.94l5,1.93c-.85,2.47-3,1.34-4.59,1.82-.51,2.38-3,2.49-5.29,3.57-.78-.09-.49.29-.45.27.44-.27,1.53.6,1.33-.42-.17-.81-1.15-.77-.88.15,1.47,2.16-.31,2.77-1.11,4,.41,1.37,1.43,2.52,1.19,4l1.94.73v8.12c1.38,1.82,3.5,1.88,4.94,3.07.27,1.27-1,1.59-1.53,2.75-2.07-1.89-4.91-.76-6.83-2.5-1,1.05-.55,1.6,0,2.35,1.09,1.52,3.16,1.64,4.3,3.34.42,2.13-.64,4.71,1.19,6.61-.72,1.47-2,1.82-3.12,2.37.78.55,1.13,1.61,2.4,1.54,1.79-.1,2.81.9,2.58,2.72a2.24,2.24,0,0,1-2.6,2.23c-1-.11-1.44.63-2.11,1.27-.59,1-.12,2.14-.23,3,1.52,3,5,3,7,5.14v3.21c-1.6.63-3.55.71-5,2-.27,1.27.93,1.62,1.47,2.4h6c1.07.88,2,1.79,1.45,3.63L358.16,219h-6.49a3.17,3.17,0,0,0-1.57,3.71l2.91,2.2v2.72a29.94,29.94,0,0,0,5.9,3.81,7.37,7.37,0,0,1-.15,3.39c-4.85,1.21-8.13-3.32-12.39-3.89-.51,1.09-.47,1.68.19,2.09,5.57,3.45,5.57,3.45,6.93,6,2.21.21,4.59-.65,6.71,1.27,4.07-3.83,9.2-5.9,13.88-8.68,4.43-2.64,9-5,13.07-8.22,4.12-.2,6.24-4.09,9.78-5.34,1.83-.65,2.54-2.52,3.91-3.25v-3.1c-2.1,1.21-4.58,1.17-5,4-2.41.59-3.49,2.83-5.3,4.22H388.1c-.05-.74-.09-1.37-.11-1.64l5.21-5.21,1.1-.05a52.51,52.51,0,0,0,10.2-11.11,34.28,34.28,0,0,0,4.38-9.15c.62-2,1.94-2.73,3.1-4,1.41,1.07,1.31,2.14.66,3.12-2.06,3.13-2.75,7-5.6,9.7-.25.23,0,1,0,1.47h-1.81c.15,2.68-2.75,4.05-3.28,6.82,3.54-.77,4.76-2.52,5.09-6.82,1.43.46,2.23-1.21,3.56-1.06,1.59-1.63.85-4.39,2.8-5.81,1.41-.52,2.48.19,3.54.9l3.14-1.48c-.08-1.74-1.51-3-2-4.53,0-1,1-1.25,1.54-2.14.67,1.64,2.64,1.63,3.42,3s2.47,1.74,3.43,3,2.37,2.34,3.48,3.58c1.32,1.47,3.11,2.08,4.84,2.81A5.69,5.69,0,0,0,438,205a34.67,34.67,0,0,0,9.24,3.15,38.4,38.4,0,0,0,8.11.8c1.51,0,2.46,1.8,4.09,1,1.24,1-.51,3.32,2,3.7,6.33.67,12.36,4.83,19.29,3,.28-.07.48-.45.37-.35,3.21,1.3,6.39.29,9.42.72,3.15,3.06,12.89,8.34,17.94,9l4.63,5h3.26c2,1.27,1.66,3,1.49,4.69l-1.68.6c-.87,1.2.66,1.63.8,2.46,0,1.51-1.31,1.67-2.22,2.9-1.56-3.27-2.87-6-4.18-8.72l.48-.27-3.94-3.43c-2.79-1-6.19-1.75-9.14-3.35s-5.69-3.19-8.9-4.94c-3.24,1-6.57-1.12-10.16-1s-7.44-.52-11,.16c-6.53,1.23-13,.65-19.34.9-.76-.44-.6-1-.64-1.61l11.68-3.56c-1.8-1.2-3.09-.65-4.22-.9-1-.7,0-1.93-.7-2.71-5.57-.73-11.1-3.71-16.68-.15l-4.45-2.3c-.82,1-1.64,2-2.61,3.16.28,1.2,1.62,2.37,1.07,4.05H434v1.49c-.26.17-.51.45-.79.49-2.07.27-4.25-.53-6.25.56s-4.17-.32-5.72.59c-1.87,1.08-4.25.06-5.74,1.86-3.74-.38-7.08,1.4-10.63,2a14.38,14.38,0,0,0-4.83,1.53c-2.5,1.51-5.34,1.66-8,2.33a27.59,27.59,0,0,0-4.86,1.55c-5.28,2.51-10.58,4.94-16.05,7a22.39,22.39,0,0,0-5.62,3.36,21.23,21.23,0,0,1-7.7,4.24c-1.45.36-2.72,1.41-4.07,2.15a8.55,8.55,0,0,0-6.46-1c-.8.7,0,1.94-.38,3.34l3.29,2.39,2.42.11a2,2,0,0,1,.33,2.35A7.7,7.7,0,0,1,347.5,257c-1,.09-1.49.51-2.46,1.58-.31,1.26.52,3.41-1.25,4.86-.51.93-1.94.73-2.68,2.17v5.72c-1,1-1.86,1.85-2.67,2.67a1.39,1.39,0,0,1-.39-1.75,8.64,8.64,0,0,0,.79-5.73c-2.16-1.8-2.16-1.8-4.59-.22,1.29,2.21.61,4.64.73,7,0,.5-.35.9-1.06.79-.09-1.63-.09-3.25-.09-4.83-1.65-.59-2.09.71-3,1.6.52,1,1.06,2.14,1.59,3.23h1.46c-.16,1.74-2.4,1.59-2.8,2.69-.56,1.54-1.81,2.21-2.68,3.32-.79-.19-1.69.38-2.35-.41.87-2.79.87-2.79-.09-6.6,2.24-.34,1.14,3.51,3.81,2.88v-4.68c-3.17-.16-3.17-.16-4.81.8a13.45,13.45,0,0,1-2.46,0c-.57-.12-.75-1.09-1.55-1-1,0-1.23,1-1.91,1.42.58,1.19,1.73.23,2.53.7,1.14,1.46-.24,2.55-.56,3.83s-2,2-.76,3.54c-1.49.64-3,.91-3.93,1.78-1.2,1.11-2.45.54-3.66.74-1.45-.75-2-2.56-3.7-2.8v-2.69c-.59-.42-.86-1.27-1.73-1.3-.91,1.72.06,2.79,1.73,4,.54,1.37-1.73,2.26-1.15,4l2.41,2.68c-2.55.24-4.15-.1-5.33-2.29-.89-1.65-3-2.2-4.07-4-1.25,1.51-.77,2.81-.75,4l1.87,1.88c-1.48,1.07-2.62.58-3.82-.86v-5.11c-2.44-.36-2.44-.36-4.17,1.19.1,1.43,2.23,2.67.21,4.51a22,22,0,0,0-8.92-4.3c-.48,2.57-.7,5,.85,7.25-2.43,2.21-4,2.64-6.31.75a24.35,24.35,0,0,0-6.42-3.88c-2.38-1-4-3.15-6.37-3.91-1.42-.46-.58-1.8-1.55-2.12-1,.93.13,2.77-1.41,3.4-2.34,1-4.67,2.07-7.76,1.42l-2.55-3.08L251.57,284c-2.74-2.27-5.15-4.67-4.52-8.71-1.19,0-1.45.88-2.05,1.27.77,3.6,2.84,6.71,4.08,10.05-.94.62-1.46.53-2,0-1.3-1.15-2.13-3-4.45-2.67-.58.07-1.7-1-1.59-2.16.14-1.56-1.21-2.44-1.65-3.88-1.9.31-1.42,3.4-4,3.11-1.4-2.78.84-4.88,1.7-7.3l-1.36-1.48c-2.09.73-3.91,2.69-6.45,1.59-1-2.22.14-4.06,1.26-5.74,1.64-2.46,1.42-5.4,2.44-8a4.55,4.55,0,0,0,0-1.68,1.73,1.73,0,0,0-2.68.91c-1.74,3.7-4.93,5.76-7.79,7.7-1.5.14-1.67-1-2.47-1.26.57-.85,1-1.75,2.13-1.7,1.79.08,2.66-.81,2.92-2.9h-8.66a3.73,3.73,0,0,1-.36-2.73c1-.91,1,1.36,1.42,1,2.08-.95,1.46-2.83,3.51-3.74-3-.93-5.69-.27-7.39-3,1.87-.86,3.36-1.11,4.86.28.53-.86,1.62-.79,2.4-1.31v-4.52H216.2c-.18-1.73-.77-3.3.9-4.68-2.42-1.6-4.55,2-7.08.11-.38-3.78,2.89-5.58,4.95-8.09a3,3,0,0,0-3.25-.34c-2,2-3.87.57-5.18-.25-2-1.28-4.61-.59-6.48-2.73-1.4-1.6-4-2.11-6.12-3.12-1-.47-2.18-.74-2.85-1.49-2.6-2.92-6.66-2.52-9.72-4.4a3.21,3.21,0,0,0-3.67.6c-.73.7-1.94.9-3.14,1.41L158.42,218c-2.88,0-7.12-.54-11.14.14-4.23.73-8.5.24-12.58,1-4.26.81-8.79.75-12.78,2.84-2-.68-2.43,2.07-4.15,2-2-1-.21-1.76.22-2.81h-4.7c-1.12,1.63-3.22,2.59-5,4s-2,3.8-2.68,5.8h-2.2c-.9-1.35-.11-2.89-.57-4.37,2-2,4-4,6-6,.58-.57,1.14-1.41,1.84-1.57,3.06-.71,4.74-3.21,6.82-5.06,1.68,0,3.39-.43,4.37,1.26,3.69-2.56,5.6-7,10.71-7.33,2.3-3.93,7-4,10.81-5.69,2.79-1.2,5.92-1.71,8.78-2.93a3.78,3.78,0,0,1,1.37-.29c2.83,0,5.67-.06,8.5,0s5.24-1.84,8.68-.67a10.89,10.89,0,0,0,6.56,1.88c1.52-1.76,1.08-6.05,4.58-7.4-1.21-3.06-5.15-3.33-6.36-7.32,4,1.51,5.44,4.58,8.06,6.45a2.92,2.92,0,0,0,3.4-1.54c.1-1.37-.95-1.75-1.57-2.4-1.28-.51-1.73,1.73-3.22.74-.56-1.13,0-2.48-.21-3.75a5.37,5.37,0,0,1,4.47,1.48c.34-1,.65-2,1.25-3.86-.28-1.51-3.08-.24-4.7-.74v-1.5l5.77-1.67c.11-.45.23-.9.36-1.42,1.44-.88,3.21.29,4.67-.62l1.13-1.12-2.48-2.68c-1.69.81-3.44,1.14-3.95,3.26-3.18-1.23-6.11,1.49-10.12.56,4.13-1.69,7.2-4.12,11.14-3.67.76-1.07.33-2.08.21-3a6.2,6.2,0,0,1,1.71,0c.57.19.75,1.09,1.83.93.81-1.59,3.21-.29,4.29-2,.22-.35.44-.48.17-.71l-1.14-1.15h-4.19a31.85,31.85,0,0,0-2.67,2.9c-3.19-.17-6.45.26-9.28,2.9H176.4c-.72-.72.13-1,.35-1.1,2.08-1,4.17-2.51,6.33-2.63s2.74-2.85,5.18-2.26c2.05.5,3.46-1.23,4.9-2.53,1-.93,2.52-.1,3.62-.44.5-2.1.2-3.56-1.92-3.93s-2.6,1.39-3.18,2.84c-2.1-1.08-4-1.43-6.22,0-1.73,1.13-4,1.45-5.91,2.09-.67-.4-.52-.93-.57-1.8,3,.38,4.76-2.71,7.72-2.18.19-.72.3-1.17.42-1.62,1-.88,2.26,0,3.77-.76l1.42-1.53h4.28l-.53-.71,1.89-1c.17-1.26-.67-1.45-1.09-2.16-1.86.82-4.14.75-5.48,2.74-2.2-.85-4.13,1.74-6.34.8-.08-1-.17-1.6.74-1.81,4.22-1,7.9-3.6,12.32-4.05,1-.1,1.93-.94,2.87-1.42-.66-1.49-2.51-1.33-3-2-4.47-.26-7.45,3.28-11.25,3.54l3-3.12c4-.53,8-4.22,13.69-4.6-1.75-2.71-3.43-2.73-5.33-1.94-2.28.95-4.73,1.61-6.77,2.91-1.5,1-2.73.47-4.08.6-.3-1-.46-1.6.75-2,2.79-.85,5.45-2.25,8.28-2.84,1.53-.32,2.18-1.28,3.4-2.23h4.23v-2.82c-6.51-.66-11.65,3.81-17.72,4.91-.46-1.91.55-2.51,1.88-3,3.91-1.39,7.91-2.61,11.67-4.35,1.76-.82,3.84-.15,5.33-1.63s3.68-.77,5.51-1.07a3.76,3.76,0,0,0,1.55-3.89c-.61,1.28.76,1.55,2.4,2.11-.42-1.88,3.3-.17,2.23-3.06a8.47,8.47,0,0,0-4.63.95,16.1,16.1,0,0,1-6.61,1c-5.66,2.27-10.85,6-17.3,6l-.22-1.39a69.84,69.84,0,0,1,12.95-4.55c3.18-.8,5.81-3,9.22-3.17,1.46-.09,2-1.88,3.22-2.86l-1.17-1.35c-.71-.7-.71-.7-3.55,2.13-2.73-1.81-4.76-.15-7.22,1a42,42,0,0,1-11.77,3.29c2-3.06,5-2.48,7.2-3.51s4.77-2.1,7.08-3.1c.31-1.13-.46-1.59-1.14-2.21-2.3.27-4.42,1.51-6.88,1.77-2.29.25-4.27,2.53-6.92,1.59-.18-2.44,2-2.12,3-2.57,2.35-1.1,5.08-1.37,7.59-2.18,1.84-.59,4.07-.9,4.53-3.54-2.79-1.23-4.91.64-7.26,1.2-2.54.61-5,2.09-8,1.1,4.25-2.88,9-3.74,13.61-4.76a43.77,43.77,0,0,0,5.67-2c1.65-.62,2.11-1.89,1.73-3.87-2.52,1.42-5.47,1.23-7.88,3.21-2.11,1.74-5.62,1-7.26,3.34-5.88,1.61-10.9-.83-15.89-2.77-2.74-1.06-4.22-3.76-5.08-6.61-4.87-1.51-9.55,1.58-14.48.54-.47-.28-.26-.82-.34-1.61,4.32-.69,9,.67,13-1.83a1.48,1.48,0,0,0-.77-1.67A12.8,12.8,0,0,0,166,94.89c-1.82-.27-3.27-1.65-5.35-.16-1,.71-2.81.25-4.43.33,2.63-3.22,6.17-3.82,11.4-2.08.73-.76.53-1.41-.17-2.07-1-.92-1.89-1.88-2.87-2.85-1.42.08-3.08-.6-4.27.32-1.44,1.1-2.74.35-4,.69L156,87.58a25.47,25.47,0,0,1,4.19-1.5,25.59,25.59,0,0,1,4.47,0c.6-1.24-1-1.1-.78-2h-7.38c-.64-.58-.46-1.06-.35-1.88h6.76V78.41c-1.13-.93-2.61.15-3.71-.71-1-2,1.16-1.37,1.77-2.13v-2L154,66.92V64.55c.54-.91,1.46-.39,2.27-.54l4.94,5c2,.26,2.28-1.7,3.58-2,.32.08.7.07.91.25A16.74,16.74,0,0,1,171.11,76c.35,1.47.79,3.5,2.84,4,.37,1.93.76,3.82,3,5,0-1.92.34-3.51-.24-5H174c.24-4.71-2-9.17-.42-14.87L170.47,68c-1-.5.19-2.28-1.52-2.17.22-3.34.29-6.43-2.43-8.77-3,2.21-.81,7.24-4.8,9.3-1.31-1.64-.44-3.34-.87-5.3-3.72-1.52-7.6-3.44-12.3-4.42l-1.71,3.15-.74-.56-.19,2.66c-2.17.53-4.91-.75-6.78,2.35,1,4-3.75,7.5-3.12,12.28-.61.6-1.1,1.53-1.8,1.72-3.08.87-4,3.62-4.77,6-1.38,4.09-3.79,7.47-6.08,11-.92,1.42-2.14,3-2.21,4.52-.08,1.82-1.09,2.63-2.05,3.71C118,104.7,115,113.05,115,114.73a1.72,1.72,0,0,0,.87,1.58c-1.83,5.59-5.24,10.55-5.85,16.51-2.82,4.51-2.57,10.25-6.07,15,1,4.7-1.42,9.55-.93,14.63-1.36,2.37-1,5.15-1.86,7.71A32.94,32.94,0,0,0,99,181.24a11.37,11.37,0,0,1-.68,3.19c-.58,2.08-.9,4.5.27,6.65a6.35,6.35,0,0,1,.36,4.31c-1.24,6.51-1.31,9.07.06,15.18.39,1.73-.87,3-1.42,4.39-1.32.51-1.64-.84-2.8-1.33A9.92,9.92,0,0,0,96,208.15a110.07,110.07,0,0,1,0-11.49c.21-2.68-1.61-4.92-1.11-7.59.23-1.24.52-2.45.84-3.63a29.66,29.66,0,0,0,1.35-6.53,43.47,43.47,0,0,1,2.11-10.57c1-3.21,2.13-6.37,1.7-9.76-.53-4.13,1.56-8,1-11.85,3.66-5.22,4.06-11.56,7-16.77-.49-2.21-2.59-1.55-3.86-2.31a14.53,14.53,0,0,0-10.78-1.45c-4.09.93-8.47.73-12.32,2.78a1.68,1.68,0,0,1-1.89-.28c-.23-.78-.14-1.13.76-1.77,1.79-1.27,4.23-.17,5.74-1.9,5.53-.26,11-1.46,16.58-1.1,1.29.08,1.88,1.09,3.07,1.2.81.07,1.49,1.19,2.58.89a1.4,1.4,0,0,0,1.54-1c.64-2.77,1.92-5.42,1.54-8.4a7.78,7.78,0,0,0-4.68-3c-1.8-.47-3.27-1.19-4.82.33-.17.17-.65.07-1,0-5.26-.76-10.34,1.64-15.57,1-1.92-.26-3.24,1.38-5.09,1.09-.8-.13-1.09,1.12-2.09,1a28.71,28.71,0,0,0-3.48,0c-.12-1.11.8-1.35,1.17-2,5.93,0,11.31-3,17.22-3.08s11.94-1.87,17.45-.8c1.11-.69.81-1.23.89-1.69-.29-.17-.55-.46-.82-.46-5.67,0-11.35-.33-17,.1-3.23.24-6.51,1.13-9.72,1.65-3.6.58-7,1.8-10.63,2.17a9,9,0,0,0-2.59,1c-2.46.93-3.79,3.11-5.46,4.84-1.51,1.57-3.2,2.83-4,5.33-1,3-3.57,5.52-5.6,8.14a45.7,45.7,0,0,1-3.82,3.86L51,134.24a7.25,7.25,0,0,1,2.77-3.71,15.86,15.86,0,0,0,4.77-5.4,45.41,45.41,0,0,1,6.39-8.91c1.67-1.69,3.94-2.79,4.85-5.37a12.62,12.62,0,0,1,4.53-5.59c5.55-4.19,10-9.5,15.17-14.1a62.91,62.91,0,0,1,9.68-6.74c6.21-3.71,12-8,18-12,3.14-2.09,6-4.61,9.35-6.39a3.24,3.24,0,0,0,1.39-1.4c1.61-3.49,5.18-5.34,7-8.69.72.39,1.47-.24,2,.58V58.7l.8.9-4.25,2.33h3.1c2.63-2.43,4.67-5.48,8.38-6.17,0-.95.32-1.76-.27-2.62H139.4c-1.15,1.31-3.08,1.29-4.53,2.75-2.07.4-4.09,1.75-5.91,1.18L113.14,67.32c-.09.79-.17,1.58-.26,2.35-.32.13-.62.36-.89.34-3-.28-6.07.45-9.14-.87-2.22-1-4.62.55-6.81,1.42-.64.26-1.47.94-.71,2.38,3.28.59,7.64-3,10.54,1.68l-1.21,1.27c-5-1.33-10-1.62-15.12,1.6,3.14,1.2,5.55-1.74,8.23-.17.34.48,1.23.82,1.27,1.42-.12,1.3-1.06,1.59-1.6,2.41-2.88-.9-5.86-1.59-9-1-.39.93-1.68.56-2.38,1.29.91,1.08,2.12.3,3.18.55,1.94,1.66,1.92,1.69,2.67,3.6-3,1.84-5.8-1.73-8.75-.35L83,86.44c1,1.12,2.43.28,3.6.67.49.79,1.87,1.06,1.23,2.59-2.4,1.53-4.67-1.52-7.19-.67-2.19.73-4.38,1.48-6.56,2.23.85,2.55,3,1.43,4.55,1.88l1.24,2.53L78.53,97c-.86-1.33-2.74-.77-3.34-2.3-2.77,1.16-5.65,1.2-7.06,4L70,100.49c-1.82,2.55-5.58,1-7.39,3.49-1.66,2.22-.42,6.14-4.26,7.38-.61,1.16-1,2.89-2.1,3.83-4.1,3.54-6.43,8.31-9.15,12.75s-5.74,8.32-8.77,12.37c-1.46,2-2.16,4.51-3.65,6.45a12.24,12.24,0,0,0-2.78,6.4c-.25,2.19-2,4-3.86,5.17-.05,1.8,0,3.23-1.32,4.69-1.55,1.66-1.62,4.28-2.42,6.44-.74,2-.58,4.3-2.19,6.13-.5.57-.08,1.94-.08,2.94-1.66,1.57-3,3.26-3,5.75s-2.18,4.1-2.34,6.54c0,.45-.72,1-.62,1.71.55,4.12-1.29,7.73-2.54,11.45a5.76,5.76,0,0,0-.46,1.8c.06,5.16-2.08,10-2.07,15.17a8.32,8.32,0,0,1-1.09,3.49c-1,1.82-1.15,3.23-.06,4.85,1.19,1.77-1,2.91-.86,4.06a9.28,9.28,0,0,0,3.44,5.5c2.58,1.19,4.89-1.1,7.3-.83,1.15,2.8-1,3.68-2.3,5.06h-3c-.81,1.51-.57,2.81,1.37,3.95-2.53,1.65-3.06,4-4.27,6H9.23v-7.8c.27-.55,1.59-.95,1.69-1.56L6.61,239c-1.54-.1.45,2.74-1.5,2.22-.45,2.79.68,5.51-1,7.7,1.37,5.33,4.62,10.09,3.8,15.82a5.35,5.35,0,0,1-1.07.27A13.48,13.48,0,0,1,5.41,265,21.33,21.33,0,0,1,3.89,260a65.92,65.92,0,0,0-2.75-9.33c-1.4-4.28-1.6-4.33-.08-8.59,1.2-3.38,1.64-6.92,2.8-10.32s1.85-7.19,3-10.76c.45-1.4,1.91-2.78,1.15-4.53s1.11-2.58,1-4.09c-.16-2.73,1.39-5.19,1.66-7.74.33-3,1.49-6,1.27-9A15.71,15.71,0,0,1,14,187c2.36-4.39,3.69-9.14,5.35-13.79a162.91,162.91,0,0,1,10.16-23.28c2.32-4.24,4-8.84,7.45-12.4.48-2.93,3.36-4.1,4.73-6.52,3.39-6,7.45-11.6,11.29-17.33a10.67,10.67,0,0,1,2.38-2.5,6,6,0,0,0,2.44-4c.15-2.41,1.72-4,2.95-5.26,4.11-4.26,7.26-9.41,11.92-13.11,9.5-7.54,17.05-17.12,26.16-25,5.59-4.84,11-10,17.06-14.23a8,8,0,0,0,3-4.26c.77-2.49,2.42-4.1,4-5.74-1.54-2.62-2.57-5.56-5.2-7.28a18.4,18.4,0,0,0-9.43-1.19c-.48-2.12-.67-3.85,1.23-5.1h6l2.62-2.77c3.58-1,6.83.42,10.66,1,2.49,1.93,3.32,6.64,8,6.79-.32,2,2.1,2.46,2.22,4.12-.52,1.27-2.11.79-2.71,1.9-1.35-.31-2.46-1.49-3.94-1.16L127,30.56a3.17,3.17,0,0,0-1.48-3.43h-4.27c-.41.91-.43,1.34.57,1.95,5.09,3.12,5.71,5.3,4.27,11.08-.3,1.17-1.5,2.13-1,3.53,1,.64,1.09-1,2-.71a9.83,9.83,0,0,0,2.56.05l.62,1.76c1.23.82,1.71-.36,2.41-.93-.63-1.56-1.14-3.13-.28-4.82,2.71-.16,2.3,2.82,4.08,3.87h6.37l5.48,2.81c1.18,2.48,3.27,4.8,2.67,7.83,2.54,2.47,5.64,2.58,8,3.72,2.29-1.37,2.06-4.65,4.86-4.54,1-1.6-1.85-1.8-.76-3.09-2-2.06-5.21-.8-7.26-3.23l1.88-.7a7.16,7.16,0,0,1,5.11.1c1.71.56,3.39,1.28,3.84,2.57.82,2.42,3.12,3.88,3.83,5.91,1.24,3.51,4.46,5.33,5.93,8.54A3.28,3.28,0,0,0,180,65c1-.17,1.75.74,2.51,1.13,3.33,1.68,6.5,3.43,10.27,4.25a19,19,0,0,1,10,5.86c2.92-1.21,5.86-1.42,8.46-3.17,2.33-1.56,5.56-.73,8.1-2.16l1.2,1,1.5-1.43c0-.84.07-1.82,0-2.79-.38-4.43,1.3-8.31,2.91-12.3.8-2,1.92-3.81,2.38-6,.56-2.73,3.27-4.33,5-6.17,2.53-1,4.42,1.33,7,.82a14.37,14.37,0,0,1-2.26,1.34c-.94.93-2.58.17-4.43,1.2,1.23.36,1.37,1.56,2.42,1.41,3.11-.43,5.92,1.7,9.09,1,1.53-.32,2.47.94,3.92,2-2.06,0-4,.58-5.27-.14-1.93-1.11-4-.26-5.62-1A14.77,14.77,0,0,0,231,49a2.71,2.71,0,0,0-.86.31c-.36.35-.71.71-1.09,1.09.49,1.35,2,1.32,2.91,2.08-.71,1.18-2.34-.21-3,1.09l.06,1c.12.12.24.33.36.34,4.45.22,8.49,3,13.11,2.13,1.6,1.86,3.73.67,5.6.94s3.54,1.42,5.59,1.06c2.91-.52,5.63.42,8.29,1.41,0,.47,0,.79-.09,1.51-1.81-.26-3.43.23-5.48-.73s-4.49-1.88-7-1.21-4.55-1.77-7-.92c-.14.05-.24.23-.36.35,0,.32,0,.65-.07,1.07a27.61,27.61,0,0,0,11.39,2.28c5.25,0,10.23,1.8,15.31,1.17.37.87,1.26,1,1,2.12h-7.58V69c4.07-2.51,7.79.14,11.5.17l2.19,2.2-1.37,2.89c-2.41-1.45-4.58,1.11-7,.76-1-.94.08-2.2-1-3-2.22,0-4.59-.46-6.4,1.71,1.37.39,3,.11,3.82,1.8,0,1,.33,2.17-.26,3.36h-8c-2.23-1.19-4-2.62-6.47-1.63-1.37,2.21-4.31,1.78-6,3.67-1.46,1.63-2.83,3.55-5.13,4.19v2.5l3,1.38,5.76-3c1.2,0,3.48.68,4.38-.14,2-1.8,4.76.39,6.3-1.86,2.33,0,4.67,0,7,0a28.72,28.72,0,0,0,3.72-.53c3-.51,5.83-1.69,8.94-1.51,1.5.08,2.45,1.32,4.09,1.15a32.37,32.37,0,0,1,8.11.73,28.62,28.62,0,0,1,11.65,4.6c1.87,1.22,4,3.26,6.36,2.45,2.06-.69,4.24-.62,6.28-1.75a17.5,17.5,0,0,1,7.59-2.24A7.51,7.51,0,0,0,326.35,85c-4.91-2.31-11.59-4.75-27.26-5.33V78.44c.83-1,2.09.18,2.91-.94-1.49-.37-2.5-1.75-4.22-1.49-2,.31-3.74-.51-5.43-2.08H277.21c-.43-2-.5-3.72,1.53-5A37.81,37.81,0,0,0,291.13,68a2.11,2.11,0,0,0,.45-.1,2.31,2.31,0,0,0,.36-.34c-.22-1.21.78-1.71,1.42-2.42,7.07-.63,13.39-3.48,20.23-6.56-1.86-.7-3.31-1.07-4.31-.26a4.26,4.26,0,0,1-4.63.51c-1.79-1.24-3.48-.72-5.19-.8-3.16-.13-6.33,0-9.5-.05-.28,0-.56-.24-.92-.4l.09-1.32c6.2-1.11,12.48,1,18.51-1.12,5.37,2.69,9.43-2.05,14.24-2.52,2.35-2.31,5.31-2.68,8.41-2.65.23,0,.47-.36.68-.53v-2l-1-1c-3.07.54-5.81,1.3-7.54,3.6-1.26-.29-2.48.48-3.51-.74,2.81-1.47,5.66-2.73,8.27-4.37s5.67-2.13,8.42-5.12c-6.63.57-11.35,3.88-16.36,5.92-.68-1.27.21-1.72.77-2.26,3.36-3.27,8.28-3.43,12-6v-1c-1.44-1.27-3.51.41-4.82-.93.73-1.49,2.66-2,2.93-4a9.28,9.28,0,0,0-1.86-1.5,5.88,5.88,0,0,0-2.08,0v2.26c-2.1,2.46-4.67,3.74-7,5.36A27,27,0,0,1,312,41.13c-2.75.9-5.94,1.22-7.72,4.25-3.67-1.45-6.74.88-10.17.82l-1.44,1.68c-1.83.53-3.35-.21-5.05.78a5.75,5.75,0,0,1-5.59-.17,4,4,0,0,0-2.31-.45c-3.67,0-7.34.14-11-.1-1.36-.08-1.86,1.37-3.09,1.08-1.79-1.79-4.05-.91-6.08-.93s-3.59-1.19-6.12-1.5l2.47-.9C254.62,45.56,254.09,44,253,44l-1.86,1.87H240.32c-.5-.66-.11-1.48-1-1.81,0-2.51-1.25-4.33-2.75-6-1.23.66-1.53,2-2.16,3-.53,0-1,.06-1.36-.46-.35-1.45,1-1.87,1.85-3,0-2.16.94-4.16,2.17-6.28a48.77,48.77,0,0,1,5.71-8.64c2.94-3.23,11.13-10.78,14.77-12.52.72-.34,1.8-.49,2-1.17.66-2.85,3.2-3.14,5.23-4.17,3-1.54,6-3.14,9.13-4.76.7-.14,1.11.89,1.53.85C278.69.52,281.69,2.31,285,2c.49,0,1.09.18,1.48,0,3.6-1.94,6.51.2,9.56,1.52,2.69,1.16,5.58,1.72,8.21,3.13,4.36,2.32,8.61,4.52,11.22,9.11.83,1.48,3,2.2,4.56,3.26,2.14,1.46,4.16,3,5.35,5.87,4,.53,5.94,3.9,7.62,7.28a107.43,107.43,0,0,1,5.23,12.34c.86,2.49,1.06,5.14,2.26,7.55a12.86,12.86,0,0,1,1.61,7.36c-.08.56,1.06.77.95,1.58a5.21,5.21,0,0,0-.67,4.94c1,2.81,2.09,5.65,1.56,9.14,2.47-.2,4.75-.15,6.69,1s4,1,6.11,1c4.16,0,8.35-.24,12.49.06,7.09.52,14-1.47,21.08-1,4.26-1.75,8.73-1,13.08-.89,1.92,0,3.2-1.77,5.5-1,.46,2.55-.06,5.34.28,8.51L411.84,84l-3.73,2.76c-.21-.07-.56-1.13-1.59-.71-1-1.06-.13-2.77-1.29-3.75,1.55-1.18.29-2.71.84-3.86-1.61-.91-3.34.33-4.45-1.23a1.47,1.47,0,0,0-1.38-.15c-2.58,1.49-5.65.16-8,1.13-3.22,1.31-6.56.64-9.8,1.64-3.05.93-6.61.33-9.93.14-1.86-.1-3.41.65-5.1,1s-3.5-.37-5.14,1c-.59.48-1.9.08-2.73.08a7.88,7.88,0,0,0-2.64,5c1.81-.66,2.43-2.28,3.79-2.87.65.9.21,1.92.34,2.87-2-.1-3.07.75-3,2.85a1.1,1.1,0,0,0,.66,1.14c1.25.23,1.6-1,2.35-1.49V87c1.27-.17,1.62-1.56,2.63-2A3,3,0,0,1,367,86.73c0,2.91.05,6.37,0,9.82-.06,3.21-1.95,6.15-2,9.39a2.07,2.07,0,0,0,2.1-.62c1.67-1.65.06-4.25,1.89-5.74C368.45,95.65,370.64,92,370,88c-.11-.77-.78-1-1-1.57L370.54,85l1.58,1.93c-.56,7.49-1.53,15.38-4.85,22.91C368.38,110.37,369.72,109.85,371,110ZM222,257a.69.69,0,0,0,.88-.59c0-.08-.21-.31-.29-.29a2.75,2.75,0,0,1-1.49,1.48c0,.08.22.31.3.3A.73.73,0,0,0,222,257Zm-68-48a.7.7,0,0,0-.89.59c0,.08.22.31.3.3a.73.73,0,0,0,.6-.9.69.69,0,0,0,.88-.59c0-.08-.21-.31-.29-.29A.7.7,0,0,0,154,209Zm38,11c0-.59-.09-1.18-.18-2.24-1,.63-1.92-.21-2.74.63a2.73,2.73,0,0,0,2.91,1.76c.23.86-.65,2.09.75,3,1.23-.5,2.49-1,2.13-3A17.29,17.29,0,0,1,192,220ZM354.17,83.12c-3.33.77-3.33.77-2.49,4,2.43-.46.56-3.36,2.32-4.25h2.7a1.26,1.26,0,0,0-.13-1.8c-.87,0-1.86-.49-2.57.47A6.93,6.93,0,0,0,354.17,83.12ZM180,212c1.34-.23,2.81.45,4-.48l-.1-1.26a5.08,5.08,0,0,0-3.92.13c0,.47,0,.79,0,1.56l-1.72.13c-.45.78-.45,1.34.16,1.88l1.41-.11C180,213.22,180,212.63,180,212Zm14-32h-4.8c-.14,1.24-.63,2.22.32,3H193v2.55a6.13,6.13,0,0,0,1.41,1.28,7.39,7.39,0,0,0,2.17.21c.19-.87,1.57-1,1.42-2.23a5.69,5.69,0,0,0-5-1.82c-.49-1.28.86-1.94,1-3.17h4.77c.66-1.68-.69-2.08-1.83-3.28C196.89,178.74,193.8,176.92,194,180Zm17.24-46.83h-6.1c-.41,1.86.81,2.34,2.15,3,1.29-.77,3.29-.51,2.62-3.34h5.9c.85-2.58-2-1.51-2.37-2.75A5,5,0,0,0,211.24,133.2ZM191,200c-1.42.67-2.08-1.25-3.38-1-1.46,1.69-1.46,1.69-.72,5.45-2.94-3.17-4.54-3.41-7.75-1.11a6.2,6.2,0,0,0,3.44,3.57c1-1.6,3.6-.34,3.41-3.91,1.71-.54,2.92,2.14,5,.55a11.28,11.28,0,0,0-.45-3.68c1,.26,1.68-.09,2.29.43a3.1,3.1,0,0,0,4.31,0,3.59,3.59,0,0,0,.59-.7l-2.09-2.55C193.07,196.45,192.32,198.48,191,200ZM185.86,91c.82-6.84-.53-13.43-2.33-20-3.07,0-4.77-4.73-8.52-2.6v6.2c.74,0,.73,1.29,1.76,1.16.71-1.89-.33-3.95.62-5.76.54,0,1.06-.23,1.61.55,0,5.7,0,11.67,0,17.64,0,.26.33.52.5.78.46-.07,1,.2,1.48-.62,0-1.39.58-3.35-.11-4.63-1.88-3.52-.24-7-1.16-11.24,1.44.86,2.43,0,3.27,1a22.34,22.34,0,0,0,0,3c.13,1-.58,1.44-1,2.12a1.68,1.68,0,0,0,0,1.45c1.84,3,.51,6.4,1.1,9.6A12.74,12.74,0,0,0,184.52,91c.22.16.65,0,1.48,0v2.48c-.82.83-1.65,1.65-2.58,2.58-.55-.6-1-1.41-1.67-1.78-5.63-3.06-8.86-8.22-11.42-13.7-.72-1.54-2.26-3.09-2.16-4.51.17-2.26-2.3-2.68-2.35-4.65,0-.69-1.28-.69-1.82.22.23,1.92,1.48,3.4,2.13,5.14,2.1,5.61,4.29,11.2,6.73,16.69,1.93,4.34,5.73,7.46,6.74,11.89,2.23,1,4.43,1,5.9,2.63,2.48,0,5,0,7.47,0,.62,0,.8-.53,1.22-.69,5.78-2.14,11.56-4.25,17.34-6.38.43-.16.48-.46.23-.69l-1-1.05c-2.29.81-4.53,1.73-6.85,2.38-5,1.4-9.71,3.78-15.08,3.39-.27,0-.52-.32-.79-.49l1.55-1.55c4,.88,7.3-2.49,10.93-2,1.59-1.23,1.92-2.36,1.23-3.73-2.2-1.25-3.92.9-6,.84-1.89,0-3.69,2.11-6.21-.11,1.17-1.49,4.25-.34,4.45-2.59.38-1.41-.56-2.24-.95-3.25-.55-1.45,1.23-2.23,1-3.59a6.53,6.53,0,0,1,0-1c0-4,0-8,0-12,0-.18-.48-.35-.85-.6-1.93.21-1.05,2.4-2.14,3.17,1.88,2.91.79,5.93.92,9-.88-.13-1.43.14-1.92-.71.69-3.81-1.7-7.62-1-11.74,0-.13-.37-.34-.51-.46L187,75.51c2,4.64.55,9.43,1.11,14.17C187.16,89.93,187,91.1,185.86,91ZM313,103.2c2.77-1.72,5.64-1.47,6.94-3.78-1.21-.94-2.7.18-3.8-.79-.18-.56.06-1.32-.92-1.65l-4.49,2c-.93-.59-.64-1.1-.63-1.52,1.58-1.07,3.75-1.24,4.94-3.17-2.93-1.08-4.57,1.32-6.7,2-1.8.59-3.25,1.2-4.83-.28-.23-.21-1-.26-1.49.59-.06,1.7,1.71,2.28,2.67,3.46,2.12-.58,3.67.53,5.32,1.51a19.49,19.49,0,0,1-2.41,1.55c-1.2.52-3.38.85-3.41,2.32,0,1.9-1.54,1.75-2.22,2-3.26,1-6.11,3.42-9.73,2.51a4.43,4.43,0,0,0,.21,3.25c2.62-.74,5.52-.87,8.23-1.38a28.48,28.48,0,0,1,9.48-.47l-3.29,2c.94.85,1.57,1.41.82,2.52h-4.05c-5.29,5.39-12.1,4.92-18.62,5.59-.26-.31-.64-.58-1.72-.38l-1.11,1.55,8.72,2.48v3.74c-5.47.71-9.69-1.92-13.51-4.28-1.07-2.06.33-2.77,1.25-3.68.34-.33.45-.48.08-.72l-1.1-1.1c-1.33.35-1.29,2-2.4,3.23-.16-1.45-.25-2.24-.33-3-2.35-1.53-4.25,1.26-6.47.55-.5-2.26-2.59-3.26-3.71-4.72H258.1v2.43c.85.93,2.1-.19,2.85.85l-1.74,1.88c.26,1.57,1.87,1.39,2.88,2.43a10.88,10.88,0,0,0-3.92,1.68c-.64,2.22,2.15.88,1.83,2.52,0,1.3-1.54,1.56-1.9,2.63.39.78,1.75-.06,1.9,1.14.21,1.6-1.85,1.77-2,3.33-.32.85,1.24,1,1,1.91-.09,1.27-1.52,1.57-1.95,2.81l2.78.42c-.29,2.43-3,1.22-3.88,2.31.13,1.69,1.5,2,2,3-.59.95-2,1.31-1.94,2.88,1.87.38,1.9,2.78,3.66,3.45a1.8,1.8,0,0,1,2-.77l1.06,1.41c6.66,2.16,11.26-3,16.5-2.69L282,146.6c-.29-4.79-.7-5.36-5.25-7.58a4.44,4.44,0,0,1-4.84.6c1.68-2,3.84-2.45,6.11-2.91-.22-1.4.57-2.05,1.63-2.53.91.75-.26,2,.76,2.77l3.33.18c.62.92-.25,2.12.91,3,2.14-1.68,4.68-1,7-1.12a1.67,1.67,0,0,1-.1,2.07h-4.87l1.28,1.49c5.55,1.64,10.18-1.76,14.87-.23-2.09,2.31-4.8,1.54-7.34,1.7-.39.58-1.27.84-1.26,2,2.17,0,4.33-.17,6.45,0s4-2.51,6.34-.46l-4,1.81v4.18c-1.2.59-2.6.64-2.82,2.43,1.05,0,2.3.38,2.94-.08,1.64-1.19,3.41-1.07,5.13-.88,3.64.4,6.89-.86,10.17-2.06.19-.07.28-.42.43-.64l-1.4-1.32c-1.18,1.24-2.15,1.75-2.56-.45a13.28,13.28,0,0,1,5.21-2,11,11,0,0,1-.93-.94c-1.05-1.32,1.09-2.53.19-3.74-.52-.68,0-.79.28-1.08,1.41-1.67,1.34-3.8,1.42-5.77a2.56,2.56,0,0,0,2.75-1.77c-.43-.68-1.82.16-1.82-1.11-.21-1.46,1.81-1.67,1.83-3-1.33-.63-2.77.38-4.08-1.08l2.16-1.48c.17-1-.07-1.38-.46-1.72a1.17,1.17,0,0,1-.22-1.7l1.82-.64c-.25-2.78.57-5.6-1.14-8,.83-1.19,2.38-1.67,2.1-3.35-.08-.49,0-1-.52-1.3-1.1-.15-2.28.32-3.38-.34-.09-.79-.17-1.58-.26-2.34l-1.67-.61c.14-2.58,3.15-.92,3.8-2.15,0-1.58-.65-1.63-1.32-1.55a2.08,2.08,0,0,1-2.1-1C317.31,103.71,315.53,102.77,313,103.2ZM279.05,16.41c.8,1.84,2.52,1.44,3.85,1.9v1.57H270.6L265,17c-1.78,0-4.43.48-6.13-1.67-1.29-1.63-2.85-1.32-4.46-1.27-.59.73-1.67,1.17-1.45,2.4,3.61,2.51,8,2.38,12,3.37,4.23,1,8.47,2.48,12.93,2.25,0,.86.23,1.37-.77,2.08-4.82-.33-9.81-2.34-15.1-2.69,3.59,2.15,7.37,3.67,10.51,3.63l2.59,1.34c-2.31,1.4-4-.08-5.76-.44-3.38-.69-6.87-1.08-10.05-2.29a10.76,10.76,0,0,0-5.71-.4c4,3.42,8.37,4,12.74,3.68a7.58,7.58,0,0,0,5.9,2c1.49-.08,3,0,4.49,0s2.76-.11,4,.73c1.19-1.45,2.81-.42,4.2-.72.94-.2,1.87.13,2.87-.3,5.52-2.33,11.22-4.31,15.18-9.21a3,3,0,0,1,.79-.5,2.05,2.05,0,0,1,2.48.76c1.79-.62,3.53-1.19,5.25-1.81.43-.16.47-.46.2-.7l-1.88-.66V14.4c-4.49-5.86-10.7-6.33-16.1-8.56-.86,1.15-1,2.53-2.15,3.11-1.61.35-3.31-.51-5,.8,1.31,1.83,2.73,3.34,3.37,5.35-.48.93-1,1.9-1.52,3-2.88-.3-5.23-1.79-7.64-3.55V8L279,6.63c.63-1.35,2-1.49,3.54-2.31a9.38,9.38,0,0,1-4.86-1.5c-1.7,2.56-4.62.25-7,1.87l8.34,9ZM343.5,92c-.5-.36-.76-1.13-2-.93l-1,1.85c-.48,1.71-.34,3.88-.52,6s.86,4.6-.92,6.61l1.39,1.39c.78-1,1.89-1,3-.93,2.21,2.63,1.37,5.73,1.5,7.63L342.41,117c-.66-.74-1.23-1.34-2.26-.61-1,4.33,1.45,8.37,1,12.46,1.55.47,2.6.24,3.41-.73,1.08,1.56,2.65.82,4.15.9.49-.6.23-1.52.93-2.13,1.46-1.24,3.94-.64,4.87-2.77,0-.07.3,0,.51,0,1.21.54,2.36,1.74,3.89.62a3.79,3.79,0,0,0-.29-2.73l-7.6,1.84c0-1.84.09-3.81,0-5.76-.07-1.06-1.65-2-.91-3,1.34-2,1.1-4.08.86-6.09-.26-2.22,1.14-4,1.1-6.08-.07-3.47,0-6.94,0-9.19l-3.55-4.42C346.94,90.53,344.8,90.56,343.5,92Zm-91.59,34.83h-8.85c.68-1.32,1.82-2.43.42-3.73-1.47.48-1.14,2.27-2.27,2.91-1.56.86-2.25-1.26-3.64-1l-1.07,1c-.58-.49-1-1.33-2-.93l-1.18,1.18c-.22,2.2,2.7.92,2.75,2.82-.28,2-2.62,0-3,1.66l.13.94c.71,1,2-.22,2.7.67-.07,1.84-2.43,1.14-2.56,1.56-.41,1.65,0,1.95.39,2.27,1.28,1.2,2.32,2.63,4.15,3.22,2.05.66.4,3.64,2.65,4.48,1.11-1.92,3.29-.59,5.07-1.52s3.27-1.38,4.35-3c-1.44-1.27-2.59.45-4.38.16,2-2,3.73-3.55,6.41-3.8ZM113.7,106.24c3-2.41,3-2.41,4.29-5.69-.69-1.49-2.53-1.34-3.48-2.52-3.79,0-7.75-.62-11.39.2a27.14,27.14,0,0,1-7.61.72c-2.64-.14-4.9,1.39-7.57,1.14-4-.38-7.47,1-10.16,5,2.68-.26,4.85-.07,7.3-.9,3.84-1.29,7.89-2.42,12.09-2.16.66,0,1.51.27,2,0,2.56-1.71,5.4-.91,8.09-.86,1.62,0,3.26.88,4.83,1.5S112.51,105.07,113.7,106.24Zm6-14c-2.44-.76-5.2.74-7.53-1.14a1.87,1.87,0,0,0-1.82.21c-1.27,1.39-2.81.6-4.21.71-1.82.15-4-.6-5.39.19-2,1.12-4,.21-5.62.94a13.25,13.25,0,0,1-5.63.9,19.37,19.37,0,0,0-1.73,1.78c-.5.66-1.58,1-1.58,2.23,1.84,0,3.93.63,5-.14,2.17-1.51,4.61,0,6.52-1.18,2.21-1.34,4.49-.35,6.71-.66,1-.14,2,.15,3,0,6.36-1.32,9.11-1.36,13.34,0A3.08,3.08,0,0,0,119.69,92.21Zm-11.14,11.87c-6.56-.09-13.2-.59-19.55,2-4.58-.58-8.92,2-13.35.86-1,1-1.83,1.81-2.25,2.24.38.75.76,1.49,1.28,2.53,2.21-2.65,5-.89,7.12-2s4.61-1.15,6.83-1.45,4.53-1.81,7-1.22,4.54-1.34,7.07-1.06a27.41,27.41,0,0,0,7.54-.15Zm172,47.16c1.5.79,2.56,1.89,4,1.73,1.84-.21,2,2.26,3.65,2a6.92,6.92,0,0,1,4.05,1.08c1.32-2.22,4.77.32,5.79-3h-4.53c-.63-.85-.25-1.67-1-2a2.36,2.36,0,0,1-3.39.63l-.3-1.35c-.83-.77-2.05.26-2.76-.74-.07-.6.11-1.33-.85-1.57C282.88,147.73,282,149.52,280.54,151.24Zm36.89,1.83a8.26,8.26,0,0,1-7.5,3c-2.15-.17-4.31,0-6.64,0-.29,1.87-3.22,1.26-3.36,3.41a1.8,1.8,0,0,0,2.3.52c1.43-1.28,3.07-1,4.64-.9,4.75.35,8-3.14,12.62-4.14ZM123.87,87.41c-3.51-2.44-7.55-1-11.34-1.43-.75,1.36-3.08.87-3.33,2.86,4.9.79,9.82-.73,14.67.94Zm240,39.75a29.55,29.55,0,0,0-12.67,1.26c-.15.48-.28.92-.41,1.37s-1,.41-.22,1.27c4.34-.65,8.65-2.48,13.13-2,.22-.43.34-.57.34-.7A11.58,11.58,0,0,0,363.82,127.16ZM175.54,204.94c-4,3.95-2,8.61-2.66,13H175c0-2.16.15-4.27,0-6.34S177.05,207.53,175.54,204.94ZM111.94,63.58c-3.73-.82-6.91.15-10.17,1.71L103.51,67A10.38,10.38,0,0,0,111.94,63.58ZM94.19,91c2.54-.11,4.31.58,5.61-.43,1.65-1.28,3.57.17,5-.9L106,88.57c-.64-.65-1-1.65-3-1.49-1.1,1.82-3.55.6-5.32,1.51ZM133.5,53c1.14-1.15,2.07-2.08,3-3,.71-.7.72-1.36-.17-2.13-3,1.54-7,1.48-8.66,6.07,1.25,0,1.76-1.16,2.69-1A18,18,0,0,0,133.5,53ZM313.85,158.82c-3.36,1.25-6.46,2.58-9.9,2.33.12.83-.15,1.37.4,1.71,3.21.9,6.1-1.39,9.28-1,.1,0,.23-.21.22-.21ZM212.05,183l-3,1.59c-.1,1.49,1,1.84,1.58,2.43h4c.64-.78,1.72-1.23,1.3-2.87C214.41,185,214.08,182.67,212.05,183Zm56.73-69c-.79-2.48-1.48-4.65-2.18-6.88-1.51-.28-2.76,0-3.23,1,.23,2.78,2.67,3.74,3.07,5.84Zm-72.2-27.83c2.49-2.55,1-5.31,1.49-8h-2.14c.28,3.69-.29,7.32.36,10.86.87.08,1.35.06,1.65-.39C198.32,87.58,197.59,87.09,196.58,86.14ZM203.45,149c.94-1.54,3.18-.36,4.13-2,.2-.35.44-.49.17-.72l-1.15-1.16h-4.2c-.63.76-1.71,1.21-1.26,2.79A2.41,2.41,0,0,1,203.45,149Zm4.85,28.84c-1.23,1-2.93,1.11-4.31,1.64a2.69,2.69,0,0,0,1.51,2.4c2.29.75,3.8-.56,5.47-1.37C210.14,179.67,209.32,178.85,208.3,177.82Zm-19.65,12.91c-.16,2.71-2.17,1.72-2.64,3-.13,1.2.89,1.45,1.38,2.23,1.51,0,3.11.36,4.68-.28C192,193.73,190.31,193.19,188.65,190.73Zm5.83,3.28c1.85.14,3.13-.25,3.53-2-.09-1-1-1.26-1.48-2-1.21.25-2.62-.64-3.67.63l-.77.94Zm4.06-32.95c1.8-.21,3.72.31,5.4-.35.3-1.56-.87-1.9-1.39-2.65-3.9,0-5.05.32-5.43,1.59Zm3.39,10.24c-5-.35-5-.35-6.7,1.45,1.88,1.26,1.88,1.26,5.32,1.24C201.07,173.24,202.24,172.9,201.93,171.3ZM417.5,214c-1.05,1.05-2.07,2.13-3.16,3.13-.37.34-.45.48.13.77h3.17a7.8,7.8,0,0,1,3.4-2.45c-.19-.9.33-1.79-.51-2.43C419.8,214.25,418.63,214.05,417.5,214ZM203.94,157c0,.87,1,1.31,1.62,2h3c.61-.77,1.69-1.21,1.45-2.5l-3.24-1.61c-.47.43-.78.88-1.2,1.05S204.22,155.86,203.94,157Zm-56.62,50.68c-2.95-2.16-2.95-2.16-8.32,0l.16,1C141.91,210.06,144.23,208,147.32,207.72Zm63.77-54.61c-.35,2,.08,3.44,1.7,3.86s2.79-.27,3.32-2.3l-2-1,.5-.53ZM353.68,121.7c1.62-2.58,4.08-1.26,6.1-1.83.22-1.07.58-2-.65-3.21-1.14,1.8-3.13,1.28-4.68,1.37C353.65,119,352.53,119.45,353.68,121.7ZM121.12,56c-.29-1.29.22-2.15-.53-2.92h-4.18c-.64.77-1.69,1.22-1.39,2.44.27.16.52.45.79.45C117.43,56.05,119.05,56,121.12,56Zm6.48,25.8c-2.49.79-3.74-.79-5.54-.85a7.64,7.64,0,0,0-5,1.67c1.57,1,3.39-.35,4.77.77s2.79-1.71,3.68.6ZM277,104.53l-1.58-1.59c-1,.55-2.33-.55-3.39.55-.63,2,1.6,1.1,2,2.06.34.8-.74,2,.82,2.5C276.69,107.63,277.26,106.34,277,104.53ZM252.12,19.14c.91,3.3,4.11.79,5.58,2.8.3.41,2.19.51,3.23-.3-.74-1.65-2.61-1.61-3.56-2.5ZM184.38,195c-1.08.25-2.45-.55-3.69.92a21.36,21.36,0,0,0,2.94,3,1.94,1.94,0,0,0,2.22-.24C186.3,197.3,186,196.18,184.38,195Zm5.53,12.22c-2.15-.4-4.17-.8-4.95,2,.56.83,1,1.69,2.1,1.81l2.85-1.41Zm-78.77-126c1.85-.44,3.18-1.33,4.86-1.3a1.88,1.88,0,0,0,1.83-2.71c-3-.89-4.55,1.74-6.85,2.27Zm16.93-5.78c-1.87,1.13-3.84,1.37-5.29,3.58,2.51,0,4.59,0,6.67,0,.19,0,.37-.44.56-.69C130.17,77.1,129,76.76,128.07,75.45ZM252,106.63c2.77.5,5.51.94,7.84-1.18L258.53,104C255.88,103.75,254.23,105.89,252,106.63ZM417.5,208c-3.29,1.34-3.29,1.34-5.11,3.88,2.7,0,2.7,0,5.62-1.6C417.87,209.54,418.36,208.64,417.5,208ZM207,175.18h-5.68c-.7.85-1.83,1.31-1.07,2.64C202.6,178.48,204.51,177.75,207,175.18Zm-4.19-11.34c.65,1.57,2.24,1.32,3.09,2.25.75-1.18,3-.22,3.17-2.17-.51-1.36-2.07-.83-2.81-2.09C205.9,164.09,203.8,162.24,202.81,163.84ZM192.91,189c.35-1.62-.67-2.08-1.36-2.89-1.62,0-3.44-.51-4.49,1.53l1.36,1.36Zm13.18-37.18c2.35.86,4.15-.24,5.93-1.39l-.2-1.18H207.3C206.76,149.93,205.82,150.24,206.09,151.77Zm146.71-5.58h-7.71v1.66h6.58c.48-.47.83-.81,1.17-1.17C352.89,146.62,352.82,146.45,352.8,146.19ZM197.9,195.52c.54,2.67,2.82,2.77,4.66,3.56.94-1.77.39-2.94-1-4C200.43,195.08,199.17,194.68,197.9,195.52ZM199.48,206a1.61,1.61,0,0,0,1.73-.66c.44-.49,1-.9.77-1.68-2.52-2.18-3.34-2.2-4.93-.09ZM208,169.69c2,1.2,3.35-.8,5-1.14v-1.36a12.89,12.89,0,0,0-5,.09Zm-4.82,13.62c-1.76-2.11-2.32-2.57-3.44-2.23-.66.2-1.17.93-1.63,1.31l2.4,2.71C201,183.86,202.32,184.33,203.18,183.31Zm11-42.12a4.35,4.35,0,0,0,3.27,3c.49-1.14,1.87-.88,2.47-1.72l-1.24-1.24ZM204,186.55c-.23,1.19.79,1.65,1.57,2.57,1-.56,2.34.54,3.42-.58.25-1.23-.77-1.69-1.47-2.51-.85,0-1.82,0-2.77,0C204.49,186.07,204.25,186.37,204,186.55Zm15.09-66.1c-.4-2.14-1.71-2.77-4-2.21,0,1.27-.51,2.61.77,4.36C216.62,121.11,218.07,121.37,219.09,120.45ZM417,204.61c2.28,1.25,3.45-.7,5.07-1-.19-1.11.27-2-.5-2.55C420.47,202.76,417,201.18,417,204.61ZM208.82,139.2h-4.59c-.23,1-.59,2,.09,2.65,2.1.75,3.25-.77,4.7-1.44Zm10.58,35.55c-1,.91-2.57-.62-3.4.95-.1,1.28,1,1.63,1.71,2.51.92-.82,2.47.71,3.23-.75C221.18,176.25,220.25,175.93,219.4,174.75ZM199,153.85l4.5.21,1.55-1.55-2.7-1.31a1.88,1.88,0,0,1-1.61.85C200,152,199,151.76,199,153.85Zm18.06-47c-1.48.77-2.24,1.62-2.06,3.13a1,1,0,0,0,.7,1c.82.18,1.19-.39,1.67-.79s1.73.14,1.67-1.1S218,107.53,217,106.89ZM115.78,59.2h-5.44a1.4,1.4,0,0,0-.12,1.65h5.44A1.4,1.4,0,0,0,115.78,59.2Zm75.13,146.07c.18,2.38,2.31,1.86,3.45,3.16.55-1.2,2-1.47,1.53-3.25A13.3,13.3,0,0,0,190.91,205.27ZM273,108.54c.58-2.06-2.81-1.35-2.32-3.35-.91-.12-1.87-.56-2.66.32-.58,2.06,2.81,1.35,2.32,3.36C271.25,109,272.2,109.42,273,108.54Zm-69.85,82.22c-1.89-3.5-2.18-3.56-5-1.26C199.35,191.63,201.16,191.17,203.14,190.76Zm11,2.81c-.07-1.41-1-1.86-1.65-2.55-1.09.14-2.24-.3-3.29.31l1.35,2.7C211.64,193.89,212.79,194.34,214.1,193.57Zm98.81-29.38h-5.82v1.67h5.82Zm-99,2.55c1.95.49,3.72.71,5-1.24C216,163.2,215.64,163.27,214,166.74ZM266,14.52c1.72,3.27,2,3.33,5,1C269,14,269,14,266,14.52ZM194.36,213.94c-.64-1.18,0-2.06-.67-2.74-2.51.12-2.51.12-4.3,2.74Zm15.07-50.74c2.47-.41,4.46.62,5.4-1.85C212,159.31,212,159.31,209.43,163.2Zm9.92-49.57-2-1.36c-.36.79-1.53.57-2.25,1.13,0,.9-.55,1.87,0,2.35C217.23,116.53,218.25,115.67,219.35,113.63Zm21.71,161.84c1.4,1.51.67,4.1,2.82,5.36v-5.26L242.53,274ZM215.39,161.21c2.5-.42,4.48.63,5.45-1.85C218,157.31,218,157.32,215.39,161.21ZM121,48.53c-.26,1.19.76,1.65,1.39,2.39,1.2,0,2.45.46,3.66-.37l-.21-1.23c-.94-.69-2.1.22-2.69-.6-.28-.65.15-1.43-.77-1.57ZM428.69,212.19c-2.74-.82-3.72,1.22-4.78,2.92.34.85.78,1,1.17.92Zm-4.17-3.1c.8-1.34,2.68-1.76,2.47-3.61-.88-.8-1,.38-1.46.51-.77.22-1.65-.29-2.33.32-.35.84-.68,1.63-1.08,2.61ZM216.92,93c-3.15.31-3.15.32-3.74,2.84a6.36,6.36,0,0,0,3.74,0ZM285,5.27a11.29,11.29,0,0,0,6.38.53l-2-1.8C288.07,4.35,286.3,3.44,285,5.27Zm66.15,74.52a9.14,9.14,0,0,0-4.28,6.36,3.55,3.55,0,0,0,2.26-2.63c.33-1.27,1.94-1.41,2.88-2.09C352,80.86,352,80.39,351.12,79.79ZM213,144.53,211.44,143c-1,.47-2.31-.54-3.43.53v1.06c1.37,0,2,1.94,3.57,1.39ZM293.45,98l-1.39,1.51c.82.85,1.63,1.68,2.45,2.51.34-1.33,2.75-.45,2.48-2.48C296.14,98.31,294.09,99.86,293.45,98Zm-53.73,4.8c2.7.66,4.33-1.1,6.34-1.12-.1-.71-.15-1-.24-1.62C243.41,99.79,241.63,100.84,239.72,102.82ZM208.1,202.49c-.34-2-1.55-2.65-3.39-2.44-.25,0-.47.35-.71.54.17.76-.34,1.63.4,2.34C205.6,202.94,206.87,203.41,208.1,202.49Zm-76.9,12.18c2.64.19,5.41,1,7.68-1.32C136.05,212,133.72,214.06,131.2,214.67Zm83.71-77.47h-4.82v1.66h4.82Zm-16.72,74.91c.89-.67,2.21-1.09,1.55-3.17-1.21.47-2.6-.5-3.75.59C196,211.09,196.88,211.68,198.19,212.11ZM242,120.27c-1.41-.32-2.51-.6-3.31.57-1.21-.91-2-.34-2.74.94H242Zm-23.9,50.94c1.7-.6,3.42.49,5-.68l-.27-1.33H218.1ZM127,56.57c-.07-.49.19-1-.52-1.49L124.54,55l-2.67,2.68C124.27,58.69,125.42,56.85,127,56.57Zm93,44.89c0,1.61,1,2.19,2.2,2.62,1-.66,2-1.2,1.75-2.9C222.66,101.12,221.33,100.67,220,101.46Zm8.93,25.74h-4.82v1.66h4.82ZM283,103.54c2.72.4,2.72.4,4-2C284.28,101.11,284.28,101.11,283,103.54ZM122.39,72.1c-.35.66-1.38.84-1.07,1.85h4.3c.34-.66,1.38-.84,1.06-1.85Zm90.73,128.65c-1.41-2.65-1.41-2.65-4.27-2.2C209.35,200.66,210.59,201.41,213.12,200.75ZM202,208.86c1.51.1,2.85.59,4.31-.5-.6-1.11-1-2.06-2.32-2.35A2.61,2.61,0,0,0,202,208.86Zm9.43-101.64c2.68-1.75,2.68-1.75,1.82-4.39C211.4,103.65,210.45,104.77,211.41,107.22ZM181.48,215l-1.35,2.76a6.2,6.2,0,0,0,4-.13c-.54-.85.37-1.87-.67-2.63Zm23.58-96.17c.94-.08,1.93.73,2.82-.2.4-1.66,0-2.87-1.53-3.46C205.06,116,204.8,117.16,205.06,118.86ZM222,133.55c1.32,2.42,1.32,2.42,4,1.95C224.69,133.08,224.69,133.08,222,133.55ZM208.29,195.7c-1.92-2.79-1.92-2.79-4.35-1.9C204.56,195.86,205.88,196.42,208.29,195.7Zm6-86.34c-3.47-.23-3.48-.24-4.13,2.43C212.23,112.53,213.41,111.69,214.31,109.36Zm6.61,25.83h-4.83v1.67h4.83ZM217.53,196c-.79.17-1.64-.31-2.36.33-.14.91-.54,1.85.31,2.66,1.1-.08,2.24.28,3.37-.28C218.41,197.81,218,196.91,217.53,196ZM224,176c2.24-1.74,2.24-1.74,1.71-3.07-1.12.56-2.52-.66-3.84.92C222.29,174.8,222.75,175.74,224,176Zm-22-9.59c-2.41-1.77-3.38-1.92-4-.6.37,1.19,1,2.18,2.54,2.23ZM223,124.05a2.27,2.27,0,0,0-1.42-1.76c-1.48.53-1.65,1.57-1.61,2.77a.92.92,0,0,0,.82,1A2.37,2.37,0,0,0,223,124.05Zm-6.11,47.13h-4.81v1.89C213.87,172.8,215.85,173.84,216.9,171.18Zm187.38,43.68c1.36-.64,3.41-.11,3.84-2.3C405.31,212.09,405.31,212.09,404.28,214.86Zm-182.9-98.72c-1.71,2.28-1.88,3.24-.74,3.86.78.19,1.18-.31,1.65-.75a1.67,1.67,0,0,0,.64-1.86ZM360.13,101.5c-3.68,1.17-3.68,1.17-1.84,3.94C359,104,359.55,102.73,360.13,101.5Zm-144,29.1a14.69,14.69,0,0,0,6.21.19C219.43,128.55,219.41,128.54,216.08,130.6Zm-1,58.43c.18,1-.73,2,.41,3,.77-.18,1.63.34,2.33-.36.06-.91.58-1.88-.38-2.64Zm-.41,38c-1.64-.18-2,.91-3.2,1.89,2.2-.58.65,3.07,3.29,1.81A5.88,5.88,0,0,0,214.71,227.07Zm-10.8-14.13c-1.31.31-2.54-.29-3.82.41v1.76c1.32-.31,2.55.29,3.82-.41Zm1.61-113.89c1.82-2.43,2-3.38.8-4-1,.69-1.08.84-2,2.77Zm7.4,14.74c-1.93.49-3.09,1-2.88,2.85a2.68,2.68,0,0,0,2.88,0ZM217.45,181a2.83,2.83,0,0,0,0,3.13c.73-.46,1.73.43,2.62-.69A2.63,2.63,0,0,0,217.45,181Zm-.54,22c-1.31.34-2.54-.29-3.82.43v1.76c1.32-.34,2.55.29,3.82-.43Zm61.68-101.07a2.36,2.36,0,0,0-.11,3.18c.83-.34,2,.7,2.53-.74C281,103,280.12,102.38,278.59,101.86Zm-59.56.6a2.8,2.8,0,0,0-3.11,0c.45.73-.44,1.73.71,2.63A2.62,2.62,0,0,0,219,102.46ZM223.5,159c1.49,0,1.74-1,2.42-1.42-.62-.68-1-1.72-2.62-1.54L222,157.54ZM209.91,211.2h-3.82v1.65h3.82ZM215.15,147a2.27,2.27,0,0,0-2,1.7c.68.45.95,1.45,2.51,1.24l1-1.65C216.3,148.07,216.05,147.09,215.15,147Zm-1.65,33c.56-.86,2.05-1.24,1.32-2.73-1-.4-2-.77-2.81.33C211.83,179,213,179.28,213.5,180.05ZM203,169.25c-.16,1.59.73,2.1,1.57,2.71.68-.84,1.77-1.26,1.33-2.51C205.15,168.68,204.22,169,203,169.25Zm203.22,51.5c1.21-1.09,2.9-1.84,3.91-4.29C407.67,217.58,406.45,218.67,406.25,220.75ZM244.67,150.09c-.49,2.27-3.08-.16-3.66,1.59a1.41,1.41,0,0,0,.71,1.48C242.77,152.35,244.91,152.8,244.67,150.09Zm219.48,67.69c-1.22-1.69-2.4-2.23-4-1.4v1.42A7.93,7.93,0,0,0,464.15,217.78ZM220.5,145c-.75.88-1.76,1.34-1.42,2.86.91-.06,1.9.7,2.89-.29C222.3,146.35,221.27,145.9,220.5,145Zm-26.9,72.5c2.22,1.13,2.77-.29,3.37-1.51.09-.17-.19-.53-.33-.85C195,214.7,194.54,215.92,193.6,217.5ZM212,96.84V95.56l-.54.53c-.29-.73-.57-1.45-.86-2.21-.87,1-1.9,1.47-1.57,2.68C209.81,97.41,210.76,97,212,96.84Zm8.51,58.06-.45-1,2.07-.26c-1.39-1.55-2.52-2.4-4.16-1.16Zm124.88-21.05c-1.15-.91.64-2.17-1.29-2.89-1,0-1.4,1-2.08,1.59C342.77,133.07,343.1,134.23,345.39,133.85Zm-137.78-23.6-2.25,2.69c1.46.55,2.64-.09,3.65-1.46ZM199,94.84V93.56l-.54.53c-.29-.73-.57-1.45-.86-2.21-.87,1-1.9,1.47-1.57,2.68C196.81,95.41,197.76,95,199,94.84Zm26.05,28.84c1.16.45,2.17.82,2.94-.28.19-1.3-1-1.62-1.49-2.39C226,121.78,224.83,122.1,225.05,123.68ZM213,90.53c2.28.36,2.28.36,3.65-1.35C215,88.46,214,89.38,213,90.53Zm-8.92,2.11a2.6,2.6,0,0,0,2.82,0V91.41a2.6,2.6,0,0,0-2.82,0Zm210.71,113a6.86,6.86,0,0,0-4.54-.41,1.27,1.27,0,0,0,.26,1.82C411.93,207.15,412.66,205.79,414.8,205.63ZM214.49,87c.65-.89,2.37-1.4,1.08-3-1.33-.19-1.9.69-2.45,1.59Zm46.12,23.92c.61-.86,2.05-1.32,1.08-2.74-1.44-.74-1.83.74-2.75,1.34ZM211,205.49a2.25,2.25,0,0,0-3,0c.08.49-.2,1,.39,1.37.88.07,1.85.57,2.62-.37Zm16.32-97.55c-.85-1.1.82-3.07-2.49-2.81.51,1-.25,1.86.56,2.81Zm116.77-25.6c1.1-.84,3.07.82,2.85-1.93a2.61,2.61,0,0,0-2.85,0ZM263.91,9.41a2.6,2.6,0,0,0-2.82,0v1.25a2.6,2.6,0,0,0,2.82,0ZM203.09,227.34c1.1-.85,3.07.83,2.85-1.93a2.61,2.61,0,0,0-2.85,0ZM222.51,139c-.6.64-1,1.1-1.49,1.56l1.51,1.5,1.37-1.56ZM357.68,94.56c1.3.58,1.7,2.19,3.23,1.08V94.42C360,93.8,359.11,93.9,357.68,94.56ZM261.39,15.07c.7-.36,1.7.37,2.63-.57-.91-.73-1.32-1.83-2.61-1.41C260.93,13.54,260.84,14.1,261.39,15.07Zm-155.85,70a2.43,2.43,0,0,0,2.33-1.69,2.57,2.57,0,0,0-2.7,0A1.27,1.27,0,0,0,105.54,85.06Zm102.52,1.6a2.65,2.65,0,0,0,2.79,0,1.23,1.23,0,0,0-.36-1.65C209.21,84.9,208.67,85.76,208.06,86.66ZM207.65,88c-1.4-.94-1.72-2.11-2.93-1.93-1.09.44-.89,1.12-.33,1.93Zm-5,129.74c3.09.13,3.09.13,3.92-2ZM158,206.79c.59,1,.59,1,1.87,1.87,0-.91.56-1.88-.28-2.55C158.81,205.92,158.19,205.93,158,206.79ZM210.63,92.94a2.62,2.62,0,0,0,0-2.75,1.23,1.23,0,0,0-1.65.32C208.85,91.8,209.71,92.36,210.63,92.94Zm29.29,4.13a2.63,2.63,0,0,0-2.84,1.59,2.65,2.65,0,0,0,2.84,0ZM153,204.54a2.3,2.3,0,0,0,3,0c.06-.68.16-1.33-.82-1.58S153.75,204,153,204.54Zm87-58.15a2.63,2.63,0,0,0-2.78,0,1.25,1.25,0,0,0,.35,1.66C238.79,148.15,239.34,147.3,239.94,146.39Zm97.16-46c.14,1.6-.64,2.59.37,3.58.65.06,1.31.16,1.55-.82S338,101.78,337.1,100.42Zm-84.18,1.65a2.63,2.63,0,0,0-2.84,1.59,2.65,2.65,0,0,0,2.84,0Zm-31.61,4.15a2.64,2.64,0,0,0,.18,2.87c.76-1,1.87-1.37,1.46-2.63A1.2,1.2,0,0,0,221.31,106.22ZM208.94,220.39a2.63,2.63,0,0,0-2.78,0,1.25,1.25,0,0,0,.35,1.66C207.79,222.15,208.34,221.3,208.94,220.39Zm24.48-77.78c4.25.44,4.25.44,4.47-.2l-1.94-.93Zm-6.5-33.23c-.93,1.4-2.1,1.72-1.88,3.24a1.22,1.22,0,0,0,1.88,0ZM200.06,222.66a2.65,2.65,0,0,0,2.79,0,1.23,1.23,0,0,0-.36-1.65C201.21,220.9,200.67,221.76,200.06,222.66Zm118.3,45.44c1.39.94,1.72,2.11,3.24,1.88a1.23,1.23,0,0,0,0-1.88Zm21.72-4.43c.94-1.4,2.11-1.72,1.88-3.24a1.23,1.23,0,0,0-1.88,0ZM208.3,224.79c2.13.16,3.4.62,4.54-.49C211.6,224.26,210.38,223.65,208.3,224.79ZM186,214.11c-.08,2.23.74,2.25,2.07,1.47-.1-.51-.19-1-.28-1.47Zm37.83-97.72c1.06.78,1.57,2.49,3.19,1.16C226.18,116.94,225.8,115.54,223.84,116.39ZM364.51,91a1.18,1.18,0,0,0,0-2c-.45.07-1-.21-1.32.36C363.35,90.61,363.35,90.61,364.51,91ZM223,113.94c.09-2.23-.74-2.25-2.06-1.47l.28,1.47Zm207,92.17c-.08,2.23.74,2.25,2.07,1.47-.1-.51-.19-1-.28-1.47ZM300,98.94c.09-2.23-.74-2.25-2.06-1.47l.28,1.47Zm-69.08,9c.16,1-.11,1.55.45,1.9a2.76,2.76,0,0,0,3.08-.78C232.9,109.47,232.26,108.57,230.91,108ZM220,195.11c-.08,2.23.74,2.25,2.07,1.47l-.28-1.47ZM213.49,75a1.18,1.18,0,0,0,0,2c.46-.07,1,.21,1.46-.59C215.2,75.48,214.84,74.85,213.49,75Zm-5,98a1.18,1.18,0,0,0,0,2c.46-.07,1,.21,1.35-.4a1.19,1.19,0,0,0-.39-1.6ZM261,105.17a20.67,20.67,0,0,1,1.76-1.13c.42-.2,1.33.19.91-.87-.94-.08-1.89-.54-2.67.35Zm-34-4.66a1.18,1.18,0,0,0-2,0c.07.46-.21,1,.39,1.35a1.2,1.2,0,0,0,1.61-.39ZM212.49,209a1.18,1.18,0,0,0,0,2c.46-.07,1,.21,1.35-.4a1.19,1.19,0,0,0-.39-1.6Zm86.4-175.61c1.77.54,2.67.34,2.07-.74Zm-63,64.85-2.12,1.14c.93.78,1.48.79,2.12.24ZM212.14,215.5a2.87,2.87,0,0,0-3.27.05A2.89,2.89,0,0,0,212.14,215.5Zm187.78,4.77-2.12,1.14c.93.78,1.48.79,2.12.24ZM260.71,112.49c2.66,1.14,2.35-.06,2.13-1.33ZM196.29,224.62c1.51.31,1.51.31,1.32-2.11Zm-32.19-11.2c-.24.27-.33.93.44,1.65l1-.18ZM200.4,93.93c.26.24.93.33,1.65-.44-.07-.41-.15-.85-.4-2.27C201,92.55,200.72,93.24,200.4,93.93Zm20.1.11a1.21,1.21,0,0,0,0-2A1.21,1.21,0,0,0,220.5,94Zm136.58-.51c-.91-.65-1.55-.94-2,.14C355.71,94.21,356.26,94.18,357.08,93.53ZM305.5,271a1.21,1.21,0,0,0,0,2A1.21,1.21,0,0,0,305.5,271ZM289,145.53a1.21,1.21,0,0,0-2,0A1.21,1.21,0,0,0,289,145.53Zm6.92-111c.9.64,1.54.93,1.95-.15C297.3,33.84,296.74,33.87,295.93,34.53ZM201.78,87.32c-.48.25-1.33-1-1.64.38C200.74,88.18,201.3,88.21,201.78,87.32Zm25.3,57.21c-.91-.65-1.55-.94-2,.14C225.71,145.21,226.26,145.18,227.08,144.53Zm-4.3,18.79c-.48.25-1.33-1-1.64.38C221.74,164.18,222.3,164.21,222.78,163.32ZM200,219.53a1.21,1.21,0,0,0-2,0A1.21,1.21,0,0,0,200,219.53ZM229.48,83c-.63.88-.92,1.51.28,2A1.49,1.49,0,0,0,229.48,83Zm-14.7-2.66c-.48.25-1.33-1-1.64.38C213.74,81.18,214.3,81.21,214.78,80.32ZM228,133.53a1.21,1.21,0,0,0,2,0A1.21,1.21,0,0,0,228,133.53Zm20.09-29c-.91-.65-1.55-.94-2,.14C246.71,105.21,247.26,105.18,248.08,104.53ZM210,81.53c-.32-.47-.65-.47-1,0C209.34,82,209.67,82,210,81.53ZM153.5,214q.7-.5,0-1Q152.81,213.53,153.5,214ZM205,82.53c.33.46.66.46,1,0C205.67,82.06,205.34,82.06,205,82.53Zm-61,129q-.5-.71-1,0Q143.51,212.22,144,211.53ZM223.5,93q.7-.49,0-1Q222.81,92.53,223.5,93Zm-64,110q.7-.5,0-1Q158.81,202.53,159.5,203ZM232,99.53c.33.46.66.46,1,0C232.67,99.06,232.34,99.06,232,99.53Zm56.49.5q-.69.5,0,1Q289.21,100.53,288.5,100Zm-3,17q-.69.5,0,1Q286.21,117.53,285.5,117Zm-153-44q.7-.49,0-1Q131.81,72.53,132.5,73Zm89,108q.7-.5,0-1Q220.81,180.53,221.5,181Z"/><path d="M432.2,89.55c-4.15,9-5.56,17.49-10.7,24.72-1.33-2.59.36-4.52,1.13-6.21,2.67-5.92,4.61-12.09,7-18.11.69-1.77-.1-3.89,1.63-5.16-1.05-1.16-2-.76-3.07-.53-.75,1.09-1.6,2.24-2.33,3.45s-2.73,1.16-3.29,3.07c-.31,1.07-2.08,1.88-3.34,2.48a15.79,15.79,0,0,0-5.2,4.31c-3.32,3.9-7.75,6.56-11.27,10.22-2.14,2.22-4.63,4.14-5.83,7-1.44.23-2.7.45-3.9-.23.05-.53-.14-1,.32-1.42,4.56-4.4,8.76-9.14,14.32-12.46,2.48-1.48,4.33-4,6.47-6.09-.72-.72-1.33-.86-1.89-.32a47.39,47.39,0,0,1-8.28,6.5A60.5,60.5,0,0,0,389.63,113h-2.14c-.86-.83-.5-1.78-.23-2.87,5.53-3.26,9.43-8.93,15.63-11.51,4.65-5,10.52-8.45,15.81-12.61,5.12-4,9.62-8.93,15.35-12.22l1.13.88L441,68.87V67.53c-1.48-1.38-2.63-.07-3.95.53-1.38-.24-1.87-1.69-3.1-2.51V60.49c-.58-.62-1.06-.46-1.74-.35v8.79c.11.27.89,0,1.44.23.7.7.17,1.59.36,2.38-1.16,1.14-2.49,0-3.31.44-2.44-1-1-3.65-2.63-4.64.37-1.34.74-2.64,1.18-4.22-.94,0-1.49-.17-1.82,0-.55.34-1.43,1-1.35,1.37.55,2.38-1.6,4.27-1,7.12L428,74.47c.19,1.44-.87,1.68-1.29,2.61a11.38,11.38,0,0,0-6.81,1.32c-2.36-2.45-3.92-4.6-2-7.82.49-.83.07-2.2.07-3.59-3,1.68-2.24,4.77-3.4,6.93-1.66,3.09,1.06,5,1.56,7.76-1.95.67-3.7.77-5.06-1.2-.33-2,1.57-3.59,1-5.58s1.75-3.5.72-5.86c-4,.56-7.33,3.48-11.15,4.25a3.7,3.7,0,0,1-.47-2.77c4.14-2.63,8.88-3.68,13.35-5.28a80.36,80.36,0,0,0,17.74-9c1.42-1,3.53-1.13,4-3h5.64c-1.44,3.35-.75,6.61-.66,9.85,2.26.18,2.48-1.94,3.84-2.3v-4.2c.7-1,1.91-.07,2.71-.7.33-.24.31-.57-.15-.69-.76-.19-1.59-.16-2.34-.4a3.12,3.12,0,0,1-1.06-.58c-.5-2.65,1-3.74,1.46-5.43,4-1.66,7.56-4.76,11.77-4.88,2.49-1.2,1-3.29,2-4.86,2.85.6,5.55-.5,8.31-1.18.07-.12.21-.3.17-.34-.33-.37-.69-.72-1.44-1.47-3.25.54-6.82-.45-10.6.88-3.13,1.1-5.4,3.13-8,4.83-1.19.77-2.33,1.63-3.47,2.47-.69.5-.2,1.54-1,2.09s-.12,1.55-.44,2.43a5.57,5.57,0,0,1-3.61.18c-1-2.11.29-3.74.93-5.67,2.07.11,3-1.91,4.69-2.8,1.89-1,3.45-2.59,5.54-3.55,1.29-.59,2.61-2.24,3.94-2.51,1.84-.37,3.61-1.21,5.49-1.28a43.37,43.37,0,0,1,8,.08c1.51.23,2.92,1.26,3.82,1l3.63,2.58L472.88,41a17.35,17.35,0,0,0-7.71,1.39c-1.22,1.1-1.66,2.62-2.4,4.17-1.9.59-3,2.47-4.62,3.8,1.1,3.21,3.46,4.09,6.62,4.92,2.9.77,6,.11,8.74,1.76,3.48,2.12,7.73,2.11,11.37,3.92,1,.49,1.32,1.34,2.21,1.52-.61,3.09-2.72,2.61-4.65,2.51-1-.77-1.54-2.27-3.2-1.94-.79.16-1.1-.58-1.64-.87-4.13-2.16-8.35-3.94-13.21-3.16a2.34,2.34,0,0,1-2.32-.38,3.29,3.29,0,0,0-3.71-.48c-3.34,1.54-6.49.87-9.64-.25L447,59.49v7l-2.07,2.07c.8,9.92-1.66,19.87-1,29.92a5.16,5.16,0,0,1-.56,2.77,4.54,4.54,0,0,0,.62,5.45c-1.66,2.49-.94,5.32-1,8s0,5.28,0,7.77c.87.83,1.76.29,2.55.52,1,.9-.2,2.73,1.41,3.38-.74.79-1.23,2-2.68,1.46-.25-1,1.63-1.8.08-3-2.94.83-2.95,3.6-3.69,6H439c.13-3.22-.61-6.49,1.05-9.47,1.1-2,.93-4,1-6.1s.1-4,0-6c-.51-8.89,1.73-17.68,1-26.58-.09-1.14,0-2.29,0-3.46-1.58-.06-.94,1-.95,1.56,0,.8-.79,1.07-.95,1.62A7.77,7.77,0,0,0,440,85c.13,2-2.14,3.85-.89,5.5,1.56,2.09,1.11,4.28.74,6.14-.65,3.37-1,6.91-2.19,10.07-.87,2.26,0,4.84-1.67,6.8.28,5.18-2.59,10-2,15.17-2.22,3.13.43,7.46-2.64,10.41-1.15.2-1.58-.89-2.5-1.61,1.69-3.79,1-7.89,1.17-11.94a5.49,5.49,0,0,0,1.93-5.16c-.52-3,1.15-5.62,1.21-8.59a17.51,17.51,0,0,1,1.77-8.2,2.51,2.51,0,0,0,.05-1.47c-.71-3.95.75-7.76,1.25-11.55A68.46,68.46,0,0,1,439,78.28c-2.95.57-1.55,3.52-3,4.79.39,3.92-1.48,7.43-2.17,11.14A96.23,96.23,0,0,1,431,106.48c-1.33,4.11-2,8.45-4.19,12.25-.12.2-.57.2-1.25.42a4.54,4.54,0,0,1,.08-4.28c3.12-5.86,4.5-12.22,5.53-18.74.27-1.67,1.08-3.3,1.08-6.58.19-.27-.19,0-.17.06.27.44-.6,1.54.42,1.33C433.26,90.78,433.22,89.79,432.2,89.55ZM438.69,56c-2.79,1.42-.76,4.56-2.8,5.91l1.7,3.33C438.39,62.17,439.71,59.4,438.69,56Zm-17.44,9v9.46C423.4,70,423.54,67.59,421.25,65Zm26.66-15.91c.34,1.3-.29,2.51.41,3.79,1.74-.8,2-2.08,1.43-3.79ZM416.5,91q-.69.5,0,1Q417.21,91.53,416.5,91Z"/><path d="M461.92,81c.42-1.58-.94-2.54-1.26-3.87l-3.17,1.66c-1.08-1.38-3.8-.19-4.52-2.73-.11-1,1-1.36,1.56-2.07H457a.71.71,0,0,0,.6.89c.08,0,.31-.22.29-.3A.69.69,0,0,0,457,74c0-.82.13-1.6-.69-2.23a9.63,9.63,0,0,1-3.39-5.43c2.32-.09,4.23-2,6.55-1.29.75.44.46,1,.54,1.45,2.41.36,2.41.36,4.48-1.5h3l1.68,1.75c.82.31.89-.75,1.52-.76,2.23,0,4.27.74,5.2,2.73,1,2.22,3.25,3.25,4.4,5.18s2.34,3.62,4.55,4.58c1.3.57,1.83,2.34,2,3.58S488,84,488,85.17l-.78,1.38,1.31,1.62c1.54-.66,3.07-1.08,4.3-2.45-.78-1-.64-2.43-1.8-3.14a1.06,1.06,0,0,1,1.46-.5c1.08.54,1.41,2.37,3.31,1.78-.85-1.54-1.69-2.94-3.73-3,0-.81-.07-1.45-.11-2.22-.76-.87-2.36-.76-2.89-2.07.17-.6,1.09-.75.92-1.56,2.26-1.47.71-3.15.06-5.18,2.62.75,3,3.37,4.7,4.51S496.57,78,498,79.67c-.47,2.16.85,4.73-1.09,7,3.15,1.43,5,4.11,6.37,7.17,1.56.19,3.31.12,3.71,2.43l-.58.79L509,99.61v2.89c-.65,1.23-2.28-.17-3.05,1.19.31,1.89,1.61,2.49,3.36,2.34,1.12-.3.33-1.59,1.29-2a2.2,2.2,0,0,1,1.27.27c1.73,1.08,2,3.61,4.15,4.21V111h-1c-.77-1.55-1.72-2.86-4-3.08V111c-1.84-.6-2.36,1.34-3.56,1.87l-1.5-1.41c0-1.43,1.8-2.43.87-4.16L505.52,106c-.78.79-.69,2.14-1.82,2.76-2.69-.63-1.15-3.19-2.12-4.9-.66,1.19-.9,2.48-2.22,3.17-1.34-2.4-2.89-4.7-3.5-7.13.51-1.27,1.77-.52,2.09-1.53-1.44-.94-3.19.08-4.69-.62-.74-.77.3-2-.73-2.73L490.47,97c-1.71-1.34-2.12-2.81-.55-4.53-1.41-.78-3.47-1-3-3.56-4,1.59-4,1.59-5.79,4.43-2.05-1.83-4.19-3.33-5.4-6-1-2.26-2.65-4.25-4.29-6.79-1.21,4.36,3.16,5.89,3.61,8.92a1.37,1.37,0,0,1-1.43.56c-1.35-2.13-1.93-5-4.66-6-2,1.66-2.07,3.82-1.94,6.06-1.26-.17-1.6-1.54-2.75-2-1.32-.16-1.68,1.24-2.64,1.88A7.6,7.6,0,0,1,458,89.8V88.52a10.56,10.56,0,0,1,4.92-1.74c.34-1.62-.91-1.94-1.37-2.73-.64-1.09-1.34-2.27.37-3,.66,1.1,1.1,2.44,3,1.74A2.67,2.67,0,0,0,461.92,81ZM466,80a.7.7,0,0,0-.59-.88c-.08,0-.32.21-.3.29a.71.71,0,0,0,.9.6.7.7,0,0,0,.59.89c.08,0,.31-.22.29-.3A.7.7,0,0,0,466,80Zm27.11,10.4c.73.48.92,1.85,2.6,1.52l1.22-1.55C495.81,89.7,494.56,90.07,493.11,90.42Zm9.89,10.1,1.44,1.44c.78-.77,2.21-1.19,1.22-2.81C504.23,98.57,503.82,99.94,503,100.52ZM476,82.79c.59,1,.59,1,1.87,1.87,0-.91.56-1.88-.38-2.62C476.85,82,476.17,81.89,476,82.79Zm23,15.06h2.75a1.27,1.27,0,0,0-.2-1.79C500.22,95.84,499.67,96.73,499,97.85ZM482.92,80.13c-1.34,0-2.62-.47-4,.37,1.19,1,2.87-.13,3.64,1.48.23.49-.21.16.38-.36Zm-22.41-6.07a2.3,2.3,0,0,0,.05-3c-.68-.06-1.34-.16-1.58.82S460,73.27,460.51,74.06Zm12.84,1.82c-.36,2.91-.36,2.91.3,3L475,77.53ZM468.51,72a1.18,1.18,0,0,0,0-2c-.45.07-1-.21-1.34.4a1.21,1.21,0,0,0,.39,1.61Zm6.71,3.7c.49-.25,1.34,1,1.64-.38C476.26,74.87,475.71,74.84,475.22,75.73ZM467.5,82q-.69.5,0,1Q468.21,82.53,467.5,82Zm13,6q.71-.49,0-1Q479.81,87.53,480.5,88Zm-6-17q-.69.5,0,1Q475.21,71.53,474.5,71Z"/><path d="M531.57,114.09c-.41-4.34-1-8.53-3.89-12a3.81,3.81,0,0,0-2.47.14c-.82,2.14.89,3.48,1.69,5.83v5.73a6.73,6.73,0,0,1-2-4.25c-.77-4.29-1.85-8.54-3-12.75A2.17,2.17,0,0,0,519,95.18c.3,2.4-.76,4.84.86,7.37,1,1.49-.76,2.91-1.28,4.36a2.72,2.72,0,0,1-1.49-4c2-2.52.45-4.69-.22-6.74-1.24-3.8-2.26-7.79-5.26-11.06l-3.1-.15c-1.75-.77-1.24-2.55-1.91-3.76s-2.08-1.35-3.46-1.11c-.11-1.09-.2-1.88-.28-2.66a49.86,49.86,0,0,0-4.27-4.21c-1.58-1.24-3.87-1.81-5-3.31s-1.87-3.06-3.64-3.4c.06-1.81,1.16-1.65,1.8-1.44a8.79,8.79,0,0,1,4.41,2.62,11,11,0,0,0,5.53,3.54c.8,2.68,3,4.27,5.06,5.72a15.17,15.17,0,0,1,5.28,5.4,10.12,10.12,0,0,0,2.33,2.53,173.81,173.81,0,0,1,17.15,18.45c2.91,3.52,6.18,7.16,7.45,11.85.35,1.3,1.5,2,2.15,3.08a41,41,0,0,1,4.71,13c.39,1.9,2.39,2.48,2.31,4.64-.06,1.72,2,2.47,3.54,3.46,2.55,1.67,3.77,4.66,5.26,7.25,2.47,4.27,4.21,9,6.59,13.23,2.27,4.06,4,8.45,6.94,12.14.2.25.51.53.5.78-.13,3.9,2.74,6.56,4.21,9.76a91.15,91.15,0,0,1,5.92,17.06c1,4.09.8,8.46,2.89,12.28-.82,4.3,1.21,7.68,3.39,11.09,1,1.6.85,3.59.12,8-1.41.16-2-.82-2.47-1.76-.37-1.11,1.15-1.24,1-2.22s-1.17-1.47-1.87-2.44a8.83,8.83,0,0,0-2-5.95A96.3,96.3,0,0,0,577,192.33c-.74-2.18-1.72-4.28-2.59-6.42a158.47,158.47,0,0,0-9.54-19c-3.94-6.87-7.24-14.12-11.82-20.63a14.73,14.73,0,0,1-1.27-3c-4.29-.89-5.75-4.25-6.75-8A92.31,92.31,0,0,0,538.56,118h-1.08c.14,3.65,2.06,7.09,1.36,10.93a2.87,2.87,0,0,1-1.89-2.6c-.37-3.93-2.51-7.58-2-11.67-1.39-.8-.74-2.36-1.24-3.43a1.29,1.29,0,0,0-1.43-.06C531.68,112.05,532.14,113.08,531.57,114.09Z"/><path d="M29.91,235.24c-1.16-.8-1.25-1.67-.42-2.15,3.33-1.91,5.73-4.82,8.38-7.46s6-3.67,8.43-6.28c1.65-1.73,12.82-5.63,15.29-6.38,3.67-1.12,7.38-.89,11.09-.94,1.78,0,3.56,0,5.41,0-.26-3.71-3.36-3-5.08-3.85a5.06,5.06,0,0,0-4.59.7c-2.19,1.33-5.14,1-7.69,1.86a107.26,107.26,0,0,0-14,6,12.93,12.93,0,0,1-2.27.47c1.38-1.59,2.16-2.61,3.42-3.2,4.17-2,8.18-4.62,12.57-5.73s8.58-2.61,12.83-4.05a3.14,3.14,0,0,1,1.89-.19c6.23,2.42,12.71,4.36,17.72,9.36v4c5.22,4.15,5.28,10.55,7.28,16-1.14.83-2,.49-2.94.52-3-3.65-2.34-9-6.15-12.79-1.42-.28-2.43-2.51-5.54-2.93-2.55.85-5.2-1.9-8.37-2.7a7,7,0,0,0-4.09-.14c-2.37.76-2.38.74-4.83-.39-1.2-.21-1.76,1.09-3.08,1.09a25.51,25.51,0,0,0-11.19,3c-1.31.65-2.68.72-4,1.32a35.24,35.24,0,0,0-9.65,6.78C37.18,230.39,33,232.1,29.91,235.24Z"/><path d="M467,90.21c2.07-.75,2.28,2,3.75.86.6,1.37-.14,1.87-.75,2.45,1.07,1.14,2.54,0,3.7.7.41.64,1.43.9,1.3,2.06-.35,1.67-2.11.07-2.8,1a1.24,1.24,0,0,0,0,1.38c1.42.94,3.21-.31,4.68.66.56,1.76-1.25,2.1-1.87,3.19,1,1,3.12-.18,3.77,1.94-.13.82-1.14,1.17-1.72,2l1.19,1.3c.65.23.73-.44,1.57-.83,1.18-.33,1.86,1.48,3.16,1.54.24,2.38-2.24,2-3.18,3.59,1.14,1.43,2.1,3.08,4.14,3.18a3.59,3.59,0,0,1-1.14,3.6c5.22,7.87,7.31,17.16,11.49,26-2.37-1.63-3.45-3.47-6.47-10.65-1.38-.69-3.71.72-4.62-1.78.31-1.25,1.89-1.1,2.43-1.57,1.6-2.81-1.89-3.38-1.83-5.58-1.35-.84-3.13.32-4.6-.56-.36-.35-.71-.71-1.06-1.06.23-1,1-1.35,3.5-1.77.76-.76.47-1.83-1-3.76-1.82-.51-3.42.24-4.87,1.05-1-.82-.88-1.44-.22-2.19,1-1.11,2.79-1,3.5-2.52.21-1.36-1.42-2-1.41-3.48-.48.11-1.07.05-1.34.32-1.63,1.63-3.35,3-6.11,2.65,1-3.11,5.25-3.07,5.93-6.21-.91-1.35-2.18-.47-3.2-.73-1.73.59-2.26,2.85-4.2,3.1l-.73-.85c.84-3,3.91-3.34,6-4.76v-2.3c-3.36-.65-5.82,1.52-8.35,3-.95-1-.69-1.6,0-2.3,1-1.08,2.51-1.21,3.71-1.91.89-.52,2.1-1.11,1.46-2.82-3.3.07-5.67,2.46-8.88,3.91.66-4.5,6.43-3.68,7.21-7.57-2.8-1.81-5.29,1.83-8,.16,1.17-2.53,4.4-1.24,5.88-3.52Z"/><path d="M505,174.86c1.73,6.23,4,12.29,5.91,18.52l3.43,2.85c-1.13,2.34.81,3.88.72,5.83s0,3.65,0,5.14l2.21,4.17c-3.59,4.86,1.46,8.63,1.94,13.07-1.29,1-2.57.53-3.81.47-.65-1.11-.19-2.29-.36-3.43-1.06-1.07-2.54,0-3.64-.63-1.53-1.09-1.53-3.29-3.28-4.15v-6.23l-2.25-1.71c1-3-1.07-5.46-.85-8.26.2-2.64,0-5.31,0-8,.88-.65,1.25-2.09,2.88-1.38v-2.79c-1.08-.84-2.52,0-3.54-.4-1.37-2.48,1-3.31,1.79-4.8L504,179.24V175Zm10,44.56a24.89,24.89,0,0,0,0-3.28c-.35-2.18-1.37-4.23-1-6.55.08-.52-1-.74-1-1.57,0-1.28-.86-1.05-1.65-.83-1.15,1.59.26,2.69.68,4,.52,1.58-1.75,2.45-.79,4.5C512.5,216.17,512.65,218.41,515,219.42Zm-7.08-23.82a2.7,2.7,0,0,0,1.95,2.33c.05-1.34.49-2.62-.32-4C508.91,194.62,508.46,195.07,507.92,195.6Zm4,5.46c-1.05-.06-1.72-.17-1.92.77-.08,1.24.78,1.65,1.92,1.85Z"/><path d="M571.85,219.4c.56,2.74,3.4,3.53,4.42,5.64,2.82-1.61,1.78-3.53.55-5.19.62-.91,1.19-1,1.85-.66.68,1.58.09,3.25.35,4.85s-.61,3.49.62,5.25c.94,1.34.07,3.23.4,4.81.47,2.21-1.22,4-1,6.08.12,1.27-.45,2.63.41,3.84,1.65-1.21,1.67-3.6,3-4.65,1.87-1.54,1.44-3.48,1.69-5.22,1.12-.1,1.92-.35,2.8.18v4.22c-3.53,3.39-5.86,8.16-9.18,12.54-3.59-.9-5.9,2.26-9.1,2.94-.83-.62-.94-1.59-.08-1.94,4.28-1.75,5.26-6,7.41-9.84v-8.44l-3.79-3.61v-5.67c-2.51-.74-3.71-2.83-5.46-4.29-2.17-.1-4-1.84-6.17-1.17-.79-1-.38-1.8-.5-2.9C564.23,215.8,567.9,217.43,571.85,219.4Z"/><path d="M152.12,84.54c-1.9,8.83-1.37,17.64-.18,26.47h-1.69c-.86-4.48.82-9.33-1.88-14-3,.59-6-1.51-9.49-1.07-3.15.41-6.22,1.85-9.85.71-.26-1.68,1.92-3.25.73-5.22,6.25-2.68,12.39-3.41,18.72-1.3.84-1.33.52-2.6.38-3.8-.67-.57-1.77-.11-2.11-1.1-1.7,1.2-3.7,1-5.46.66s-3.36,2.52-5.33.5c.39-2.89,3-1.69,4.39-2.56,2.13-1.37,4.15-.5,6.17-.84C148.39,82.72,150.1,83.26,152.12,84.54Zm-3.19,8.53c-1.81.59-3.05-1.13-4.87-1.07-2.66.09-5.32,0-8,0-2.13,0-3.68,1-5.88,3.35,6.88-1.67,12.7-2,18.39-.47C149.18,94.44,149,93.94,148.93,93.07Z"/><path d="M365,176c-1.2.23-2.08,1.74-3.58.84-.48-.22-.27-.8-.45-1.21-.61-1.39,1.58-1.78,1-3.09,2.13-.67,3.33-2.49,4.66-3.72.94-3,1.88-5.82,2.65-8.66,1-3.61,1.79-7.25,2.69-10.88.75-3,.95-6.19,3-9-.82-2.76,1.51-5.25,1.33-8.21,1,2.32.44,4.73.66,7l-3,5.77c.87,2.16-1.34,4.43-1,6.84,1,.47,1.87.43,1.92-.23.14-1.78,1.77-2.26,2.86-3.92.36,4.35-1.92,7.53-2.85,11A50.86,50.86,0,0,1,371.32,169c-1.71,3.29-2.84,6.85-4.82,10a45.11,45.11,0,0,1-7,9l-1.61-1.6c.95-3.87,5.21-4.85,7.11-8.12V176c.69,0,1-.31,1.3-2,.09-.78-.29-.49-.27-.45.27.44-.6,1.54.42,1.33.81-.16.77-1.15-.15-.88C365.31,175,365,175.33,365,176Zm6.17-13.58a10.85,10.85,0,0,0,2.79-8.34h-2.31C373.11,156.9,370.6,159.15,371.17,162.45ZM369.5,167q-.69.5,0,1Q370.21,167.52,369.5,167Zm-2,5q.71-.5,0-1Q366.81,171.53,367.5,172Z"/><path d="M161.85,184.45c1.67-.59.6-2.57,2.19-2.71-2-2.86-2.65-6.11-3.94-9.07-.62-1.43-.86-3-2.09-4.12a6.47,6.47,0,0,1-1.85-4.68c-.11-5.5-2.82-10.61-2.16-16.17-1.57-3.58-.05-7.64-1.2-11-1.34-3.93-.15-7.9-1.59-11.82-1.06-2.89-.21-6.49.17-9.79.3,3.46,1.93,6.64,1.68,10.2a19.17,19.17,0,0,0,.83,8.12c.84,2.34-.6,5.17,1.07,7.58.31.45,0,1.3,0,2a83.48,83.48,0,0,0,6.59,27.26c1.49,3.38,2.46,7,4.63,11.18.37,1-1.26,3.37.51,4.91l-1.1,1.75C163,187.92,163.37,185.6,161.85,184.45Z"/><path d="M44.44,142l1.31,1.31c.27.24.23.63-.2.68-3,.36-3.31,3.29-4.42,5.11-2,3.25-3.75,6.79-4.09,10.73-.09,1-.89,1.31-1.26,2-1.16,2.17-3,4.09-2.81,6.78l-3.9,3.89c.38,2.83-2.71,4.64-2.12,7.63.51,2.55-1.72,4.86-.86,7.42-.83.53-1.09,1.5-2,1.53-1.08,0-1.33-1-2.05-1.43v-4c1.89-2,2.63-4.41,3-7.16.26-1.76.88-4,2.16-5,3.12-2.27,2.57-6.59,5.54-8.76,0-3.42,2.56-5.88,3.42-9.08.94-3.47,3.55-6.47,5.35-9.72C42.28,142.65,44.05,143.51,44.44,142Z"/><path d="M139.34,109c-1.38.06-1.72,1.28-3,1.09-2.4-.35-4.6.61-6.7,1.77-2.29,1.27-5.1,1.31-7.22,3.1a2.22,2.22,0,0,1-2.63-.59c5.73-4,11.67-6.71,18.73-6.39.44-1,1.71-.71,2.76-1.74-3.77-.33-7.07.68-10.28,1.41a30.11,30.11,0,0,0-9.45,3.62c-1.28-1.92.22-3.12,1.14-3.12,2.39,0,4.08-1.6,6.07-2.33s4.24,0,5.72-1.79h10.26c.35,1.45.57,2.57-1,3.59,1.7.54,3.73.3,4.21,2,0,1.35-1,1.6-1.59,2.6C145.22,108.46,141.33,111.23,139.34,109Z"/><path d="M551.54,218.39a24.79,24.79,0,0,0-10.83-1.27c-4.39,2.33-9.26,4.29-12.72,8.48.52,1.51-.68,2.63-1.3,4.09-1.17.46-2.39,1.66-4.21,1.32-.9-1.1-.38-2.39-.38-3.48,1.55-2.06,3.52-3.52,5-5.52,1.21-1.61,3.45-2.4,5.1-3.72,4.93-3.95,10.65-4.78,16.64-4.18,1.28.13,2.57,1,3.9,1.12C553.59,216.59,552.27,217,551.54,218.39Z"/><path d="M98,135.45v1c-.22.17-.46.52-.7.52a37.86,37.86,0,0,1-9.09-.82c-2.21-.54-5-.9-7.19.41-2,1.2-4.28,0-6.53,1.15-1.91,1-4.78.2-7.18.2-.39-1.06.86-.92.73-1.49,2-1.26,4.23.38,6.24-1,1.63-1.16,4.18.33,5.88-1.37,4.65,0,9.32-.24,13.93.17A9.63,9.63,0,0,1,98,135.45Z"/><path d="M359.63,170.51c-.5-.89-.91-1.6-1.52-2.66.79-1.26,1.13-3.34,3.68-4.28,1.92-.71,2.52-3.38,3-5.1,1.28-4.29,3.45-8.27,4.32-12.72.22-1.14,1-2.33.82-3.6-.2-1.7,1.06-2.67,1.53-4.23.79,1.17.4,2.18.49,3.13a2.68,2.68,0,0,1,0,1.47c-2.15,3.56-2.12,7.75-3.5,11.52-1.21,3.32-2.08,6.9-4,9.76C363.08,165.85,362.65,168.6,359.63,170.51Z"/><path d="M120.9,118.57c11.78-5.53,16.56-6.43,27-5.13,0,.32.06.64.08,1-.38,1.11-2,.19-2.32,1.44-2.69-1.55-5.79-1.18-8.43-.63a39.4,39.4,0,0,0-8.44,2.36c-2.47,1.12-4.45,3.43-7.2,3.56C120.58,120.19,121.3,119.28,120.9,118.57Z"/><path d="M503.76,175.62c-1.63-3.17-2.45-6.21-5.7-7.06-.81-2,1.85-3.29.83-5.11-2.27-4.06-1.11-9.4-4.73-12.83v-3.5H496c-.22,2.28.73,4.17,1.59,6.2,1.92,4.52,4.11,9,4.35,14.09a4.27,4.27,0,0,0,1,2.11A7.72,7.72,0,0,1,503.76,175.62Z"/><path d="M433,150c-.32-3.31,1.72-5.37,3.94-7.41v-5.86c.77-.84,1.2-2.11,2.85-1.57,1,2.23-1.47,4.08-.84,6.38.57,2.07-1.43,3.82-1,6.07s-1.55,4.16-1,6.56a7.38,7.38,0,0,1-1.48,5.81l-1.27-1.28c1.86-2.39-.44-5.73,2-8l-1.66-1.67C434,149.28,433.81,150.19,433,150Z"/><path d="M150,83.06c0-1-1-1.26-1.49-2.08H137.33c-.48-1,.62-1,.82-2,1.69,0,3.46-.07,5.22,0s2.72-1.66,4.42-1c.1-1.11-.71-1.23-1.13-2.07h-7.55l-.22-.59,2.53-1.27h7.21c1.53,1.29,2.18,2.72.38,4.4,1,.74,2.49.73,3,2.39C152.08,82.09,151.12,82.62,150,83.06Z"/><path d="M141.92,38.73c.46-1.21-.49-1.6-.86-2.26l1.39-1.4c1.19.16,2.51-.27,4.14.85,2.51,1.73,5.49,2.78,7.89,3.93a3.73,3.73,0,0,1,.44,2.76,2.75,2.75,0,0,1-.83.4c-2.78.27-5.16-1.18-7.58-2.13C145,40.28,143.53,39.28,141.92,38.73Z"/><path d="M85,121.89c1-2.41,3.54-1.53,4.87-2.86,3.42.32,6.59-1.65,10.09-1.06,1.35.23,3,.65,3.67-1,1.47.29,2.23,1.12,3.48,1.16,2.4.09,2.47.37,3,3.72a33.53,33.53,0,0,0-5.48-1.73,58.26,58.26,0,0,0-6.48-.08A8.11,8.11,0,0,0,94,121c-1.22.64-2.77-.38-4.24.69C88.45,122.58,86.65,122.05,85,121.89Z"/><path d="M386.07,124.45c.65-.64,1-1,1.65-1.65,2.95,9.3.81,18-1.47,25.36L383.56,152c-1.52.14-1.7-1-2.81-1.36a13.06,13.06,0,0,0,5.12-7.36,44.06,44.06,0,0,0,2-12.11A11.31,11.31,0,0,0,386.07,124.45Z"/><path d="M126.54,104.15C126,103.26,125,103,125,102c.11-.29.18-.78.35-.83,7.18-1.72,14.36-3.73,21.7-.92l-.17,1.5c-3.52,1.07-6.8-1.37-10.34-.81S130.05,102.87,126.54,104.15Z"/><path d="M394,128.12h1.72c.56,6.57.56,6.57-3.17,19.91-.65,0-1.31,0-2,0-.13,0-.24-.2-.43-.37C391.63,141.21,394.61,135.05,394,128.12Z"/><path d="M370.68,110c1.57-7.16,4-14.14,3.26-21.36.43-.69.93-.65,1.78-.64,1.2,7.66-1.07,14.82-3.07,22Z"/><path d="M515,111c-.45,1.68.83,3,1.14,4.61.92.73,2.74.66,2.86,2.53a2,2,0,0,1-.09.43c-2.19,0-3.52,1.83-5.39,2.64-.35-2.42-.35-2.42,1.48-5.62-.69-1.13-1.72-.44-2.6-.49-.71.56-.09,2.66-2.06,1.72-1.4-2.1.85-3.83.66-5.82Z"/><path d="M148.68,119c.39.81,1.22.93,1.12,1.83-3.76.59-7.59-.08-11.43,1-3.29.92-6.63,2.89-10.75,1.86C137.14,119.83,137.9,118.66,148.68,119Z"/><path d="M376.46,109a2.52,2.52,0,0,1,.07-3.09A16.53,16.53,0,0,0,379,96a4.67,4.67,0,0,1,.9-3.64c.61-.76,0-2.08-.72-2.84L380.48,88c1.16,2,2.33,3.93.52,6.07.59,4.26-1.26,8.11-2,12.15C378.7,107.85,378.72,107.85,376.46,109Z"/><path d="M409.81,180.05a10,10,0,0,0,1.16-1.66c.18-.41-.1-1,.66-1.33h2.83c.91.47.34,1.41.57,2.12a9.61,9.61,0,0,0,1.1,1.78c-1.93,1.5-.11,4.73-2.76,6.06-1.05.25-1.42-.64-2.25-1.35C410.63,184,411.7,181.65,409.81,180.05Z"/><path d="M396.47,86c.71.38.39,1.17.73,1.75.86.4.86-.69,1.38-.8,1-1.12-.09-2.59.76-3.82l1.23-.09c.84,1.09.27,2.28.44,3.41l2,2.15c0,1.45-1.1,1.59-1.34,2.37h-6.14l-1.58-3C394.54,86.85,395.12,85.9,396.47,86Z"/><path d="M363,153.7v3.47c-1.58,1.8-2.46,4.29-4.53,5.88-.64.49-.37,1.17-.48,1.79-.36,2.1-1.79,2.43-3.79,2v-4.76l3.36-.16C360.14,159.78,360,155.81,363,153.7Z"/><path d="M146.84,126.72c-3.3,1.06-6.69-.19-10.09.85-2.79.85-5.42,3.15-9.37,2.08A30.26,30.26,0,0,1,145.71,125c.18.22.5.59.79,1A4.43,4.43,0,0,1,146.84,126.72Z"/><path d="M523,126c3.75,1.18,3.89,5.38,7.16,6.3-.85,1.93.83,3,.87,4.25-1,.87-1.57.52-2.22-.13-1.15-1.15-1.38-2.74-2.08-4.1-1.13-.77-2.6.34-3.9-.86C523.67,129.73,525.16,127.86,523,126Z"/><path d="M158.17,184.81c-2-3.27-2-3.27-1.71-5.81,3,0,2.23,3.82,4.39,4.29v6.64h-2.68Z"/><path d="M380,129.53l1.73-1.73c.72,6.45.52,12.44-2.34,18.19-1.08-2.79.21-5.33.53-8A68.47,68.47,0,0,0,380,129.53Z"/><path d="M96.9,141.39v1.77c-1.79-.57-3.35.05-5.23-.73a7.88,7.88,0,0,0-7,.37,1.87,1.87,0,0,1-2.91-1C86.84,138.9,91.84,140.05,96.9,141.39Z"/><path d="M383.61,197.23c-.74,5.44-3.5,9.8-7.36,13.55C377.64,205.71,381.14,201.75,383.61,197.23Z"/><path d="M513,98.49l-1.56,1.56c-1-1.06-.22-2.66-1.35-3.86-.9-1,.26-3-.84-4.59-.67-1-.13-2.8-.13-5.1.87,1.32,1.69,1.6,1.91,2.91C511.58,92.47,511.85,95.6,513,98.49Z"/><path d="M382.38,105.14c.46-4.36,1.74-8.13,3.07-12.36,1,1.73.16,3.37.6,4.73.54,1.69-1.23,2.59-1.06,4.09C385.19,103.42,384.61,104.76,382.38,105.14Z"/><path d="M365.19,215.79c-.09-.26-.23-.47-.18-.53,2.7-3.27,4.06-7.51,7.51-10.23.71.69.6,1.3,0,2.05C370,209.93,369.07,214,365.19,215.79Z"/><path d="M31.93,216c1.09-.15,1.32,1.47,2.61,1.06a2.32,2.32,0,0,1,2.38.31v2.25c-1.6,1.29-2.37-1.25-3.94-.7-1.13.39-2.51.08-3.83.08C28.51,216.16,31.44,217.32,31.93,216Z"/><path d="M486.51,72.26c-4.18-1-6.72-3.19-9.51-4.89,0-.47-.11-1,.8-1.39A18.8,18.8,0,0,1,486.51,72.26Z"/><path d="M532.82,132.28c3-.83,2.92,1.67,3.74,2.87a38.52,38.52,0,0,1,2.29,4.54c-.56.57-1.18.47-1.9-.2C534.85,137.54,533.88,135,532.82,132.28Z"/><path d="M151.84,59.59v8.24c-.47.09-.86.28-1.06.17a13.78,13.78,0,0,1-1.61-1.19C148.44,64.1,149.66,62,151.84,59.59Z"/><path d="M523,125.88h-4.65c-.49-.5-.84-.84-1.19-1.19.31-1.8,3.25-1.2,3.09-2.91l2.75,2.61Z"/><path d="M28.38,226.87h-8.1c-.79-1.38.33-1.84,1.07-2.73C23.88,223.53,26,224.56,28.38,226.87Z"/><path d="M21.78,200.93c-1.59.27-1.9-.7-2.65-1.24v-3.44l2.93-1.67c-.16-.15.2.2.79.8C21.33,196.89,22.4,199,21.78,200.93Z"/><path d="M32.8,222.8c-3.68.62-5.94-1.89-8.71-.43V220C27,220.19,30,219.32,32.8,222.8Z"/><path d="M377.53,185.12c-1.73-2.29,1.05-3.64.56-5.65-.41-1.67-.09-3.51-.09-5.35h1.62c1.18,2-.61,3.65-.53,5.39C379.18,181.54,378.35,183.14,377.53,185.12Z"/><path d="M142.92,133.27c-1.29,1.4-3.24.18-4.73,1.64-.82.8-2.55,2.11-4.4.43C136.31,131.86,139.81,133.44,142.92,133.27Z"/><path d="M378.09,195c-.18,3.74-1.95,6.6-4.7,9.12-1.48-2.46,2.82-2.93,1.61-5.14C376,197.65,375.94,195.53,378.09,195Z"/><path d="M367,192.47a12.88,12.88,0,0,0-2.22,4.52c-1-.07-1.8.3-2.6-.3,0-.41-.19-1,0-1.28,1-1.28,2.16-2.46,2.93-3.32C366.23,192,366.68,192.08,367,192.47Z"/><path d="M455.91,83.2V85c-1.89,0-3.82-.22-5.19,1.23-1.51-1.55-.18-2.17.59-3.07Z"/><path d="M532.47,114c1,1,.3,2.25.54,3.32.19.84,1.66,1.28.71,2.49l-1.22.38c-.4-1.36-1.6-2.38-1.51-4.06C531.05,115.05,532,114.73,532.47,114Z"/><path d="M15.84,207.11h2v4.68c-.43.1-.8.31-1,.21a15,15,0,0,1-1.6-1.11C15.7,209.65,16.57,208.56,15.84,207.11Z"/><path d="M451,96.59c.71-1.66,2-2.2,3.36-2.73l1.42,1.59a5,5,0,0,1-.34.59C454.28,97.76,452.65,96.69,451,96.59Z"/><path d="M450.7,90.69c.89-2.33,2.07-3.17,4.12-2.43C454.17,90.93,454.16,90.92,450.7,90.69Z"/><path d="M363.31,154.41c-1.34-3.27,1.74-5.44.48-8.37l2,.11C364.84,148.85,364.64,151.69,363.31,154.41Z"/><path d="M17.74,229.37c2.42-.77,3.7-.13,4.34,1.89C19.61,232.13,19.61,232.13,17.74,229.37Z"/><path d="M393,100h-2.44c-1.06-.69-.41-1.71-.47-2.58L391.53,96A8.94,8.94,0,0,1,393,97.81,6.73,6.73,0,0,1,393,100Z"/><path d="M376.75,164v6.77c-.32.32-.79.78-1.25,1.25-.16-.26-.51-.55-.47-.77C375.44,168.83,376.39,166.51,376.75,164Z"/><path d="M371.23,185.74l-3.74,5.51C367.39,188.58,367.88,187.71,371.23,185.74Z"/><path d="M548.22,151.3c-2.39-1.14-2.41-3.68-4-5C547.22,146.52,547.52,148.85,548.22,151.3Z"/><path d="M86.94,180.84c.1-.82.14-1.13.18-1.44,2.19-.17,2.19-.17,4,1.13C89.72,181.42,88.45,180.94,86.94,180.84Z"/><path d="M156.29,175.9c-2.47.32-3-.87-3.49-2.51C155,172.6,155.64,173.86,156.29,175.9Z"/><path d="M387.73,116.67c1.75.85,1.23,2,1.13,3-.34.58-.88.3-1.37.37C386.7,119,386.72,118,387.73,116.67Z"/><ellipse cx="90.5" cy="176.03" rx="1.7" ry="1.12"/><path d="M86.81,191.12h1.8c.86,1,0,1.86.58,2.82H87.4C86.53,193,87.4,192.07,86.81,191.12Z"/><path d="M372,196v-2.5c.84-.56,1.22-2.09,3.1-1.11C374,193.62,372.63,194.57,372,196Z"/><path d="M431.94,174.54c.35,1.79-1.14,2.05-3.27,3.43.91-2,1.35-3,1.77-4C431,174.09,431.52,173.81,431.94,174.54Z"/><path d="M531,129.6a22.71,22.71,0,0,1-3.82-4.54C530.27,126.68,530.26,126.68,531,129.6Z"/><path d="M453.91,102.2v1.44a2.65,2.65,0,0,1-2.9,0C450.93,101.06,452.68,102.29,453.91,102.2Z"/><path d="M497,172.56a1.23,1.23,0,0,1,1.65-.39,2.69,2.69,0,0,1,0,2.83C497.77,174.34,496.87,173.84,497,172.56Z"/><path d="M443.38,214.75c2.71,1.2,3,2.48,2.25,4.52Z"/><path d="M505.83,87.21v4.65C504.69,90.36,505.13,88.77,505.83,87.21Z"/><path d="M148.92,153.4v2.26c-.88.69-1.46.4-1.86,0C146.8,154,148.1,153.84,148.92,153.4Z"/><path d="M558.94,202.15c1.64-.07,2.9-.47,4.09.33-1,1.21-2.95-.34-3.46,1.52C558.8,203.52,559.07,203,558.94,202.15Z"/><path d="M91.05,185.86h-2.8A1.32,1.32,0,0,1,88.5,184C89.78,183.89,90.34,184.74,91.05,185.86Z"/><path d="M433,149.87a2.7,2.7,0,0,1-1.73,3.11C430.55,151,431.89,150.61,433,149.87Z"/><path d="M429,185.94h-1.78c-.1-.51-.19-.95-.28-1.47C428.25,183.69,429.08,183.71,429,185.94Z"/><path d="M548,150.87c1.08.74,2.43,1.17,1.72,3.11A2.69,2.69,0,0,1,548,150.87Z"/><path d="M96,148.51c.18,1.36-.45,1.71-1.41,1.49-.8-.45-.52-1-.59-1.46A1.18,1.18,0,0,1,96,148.51Z"/><path d="M425,160.18a2.69,2.69,0,0,1,1.72-3.11C427.46,159,426.11,159.45,425,160.18Z"/><path d="M362,209.59c.93-.67,1.23-2.21,3.09-1.13C364.12,209.13,363.82,210.67,362,209.59Z"/><path d="M433.67,216.86l1.8-1.79,2.25,1.79Z"/><path d="M500.9,181.64l-1.47-1.48,1-.18C501.24,180.7,501.15,181.36,500.9,181.64Z"/><path d="M418,166a2.72,2.72,0,0,1-1.64,1.92c-.53-.51-.49-1,0-1.8Z"/><path d="M533.39,141.11h1.22c.58.6.54,1.15-.22,2.15C534,142.5,533.72,141.81,533.39,141.11Z"/><path d="M538.76,147.94h-1.38c-.55-.63-.54-1.18.24-2.12Z"/><path d="M518,113h-2v-2A2.44,2.44,0,0,1,518,113Z"/><path d="M381.71,188.8c-.9-.48-.86-1-.38-1.64C382.7,187.47,381.45,188.32,381.71,188.8Z"/><path d="M156.78,77.35c-.52.83-1.07.86-1.65.33C155.49,76.34,156.3,77.55,156.78,77.35Z"/><path d="M562.93,197.53c.81-.66,1.37-.69,2-.15C564.47,198.46,563.83,198.17,562.93,197.53Z"/><path d="M87.53,199.09c-.72-.77-.68-1.32-.19-1.94C88.45,197.53,88.14,198.17,87.53,199.09Z"/><path d="M371.41,198c-.63-.7-.66-1.68.14-1.85,1-.2.15.89.42,1.33C372,197.48,371.62,197.78,371.41,198Z"/><path d="M147.07,142.5c-.77.71-1.33.68-1.95.18C145.5,141.58,146.15,141.89,147.07,142.5Z"/><path d="M429.32,141.24c.84.53.87,1.08.34,1.66C428.32,142.54,429.53,141.73,429.32,141.24Z"/><path d="M180.07,184.43c.7-.62,1.68-.66,1.85.15.2,1-.89.15-1.33.42C180.55,185,180.26,184.64,180.07,184.43Z"/><path d="M521.68,117.81c-.83-.53-.87-1.08-.33-1.66C522.68,116.51,521.48,117.32,521.68,117.81Z"/><path d="M426.5,166q.71.5,0,1Q425.81,166.52,426.5,166Z"/><path d="M455.5,110q-.69-.49,0-1Q456.21,109.53,455.5,110Z"/><path d="M378,195a.69.69,0,0,1,.59-.88c.08,0,.31.21.29.29A.69.69,0,0,1,378,195Z"/><path d="M519,114a.85.85,0,0,1-1-1C518.69,113,519,113.33,519,114Z"/><path d="M519,114a.69.69,0,0,1,.88.59c0,.08-.21.31-.29.3A.7.7,0,0,1,519,114Z"/><path d="M490,75a.7.7,0,0,1-.89-.59c0-.08.22-.31.3-.29A.7.7,0,0,1,490,75Z"/><path d="M425,160a.71.71,0,0,1-.59.89c-.08,0-.32-.22-.3-.3A.7.7,0,0,1,425,160Z"/><path d="M326,273a.85.85,0,0,1-1-1C325.69,272,326,272.33,326,273Z"/><path d="M418,166a.69.69,0,0,1,.59-.88c.08,0,.31.21.29.29A.69.69,0,0,1,418,166Z"/><path d="M246.2,53.63c6.26,1.09,11.35,1.83,16.25,1.34l1.34,1.35c.27.84-.91.73-.76,1.69-1.77-.08-3.31.31-4.89-.34C254.55,56.19,250.06,57.89,246.2,53.63Z"/><path d="M293.5,54l-1.65-1.67c1.5-.29,3-1.07,4.14-.68,1.61.56,3.24-.1,4.75.58C299.16,54,299.16,54,293.5,54Z"/><path d="M269,51.28c-2.56,2.28-4.94,2.14-9.45,0Z"/><path d="M236.35,53.1h6.17c.67.37.41.92.54,1.58C240.43,56,238.44,53.07,236.35,53.1Z"/><path d="M286.08,76.53c-.82.65-1.37.68-2,.14C284.54,75.59,285.17,75.88,286.08,76.53Z"/><path d="M267.93,76.53c.81-.66,1.37-.69,1.95-.15C269.47,77.46,268.83,77.17,267.93,76.53Z"/><path d="M292.05,128.86c-.3-2.87,2.44-2.51,3.6-3.84.25.67.46,1.24.7,1.91h2.25c.75-.74.22-1.62.42-2.47,1.13-.8,2.41-.39,3.55-.32.53.29.28.41.1.78a12,12,0,0,1-3,3.94Z"/><path d="M313.24,104.18c-1.48,2-4,2-4.66,3.79-1.49.18-1.7-.89-3.08-1.44C308.47,105.84,310.14,103.41,313.24,104.18Z"/><path d="M308.33,149.5c-1.43.65-2.32.75-3.24.14v-1.23C306.62,147.3,307,148.91,308.33,149.5Z"/><path d="M314,103c0,.69-.31,1-1,1C313,103.33,313.31,103,314,103Z"/><path d="M294,131.53c-.32.46-.65.46-1,0C293.34,131.06,293.67,131.06,294,131.53Z"/><path d="M288.5,135q.71.5,0,1Q287.81,135.52,288.5,135Z"/><path d="M346.4,96c-.63-.37-2.27.85-2.42-1.13.42-2.06,3.3.55,3.27-2.11l1.52,1.53c0,3.91.59,7.81-.21,11.41-.51,2.3-1,4.84-.33,6.6.79,2,.54,3.79.75,5.66s-1,3.25-2.05,4.61a1.15,1.15,0,0,1-1.73.17c-.81-1.76,1.1-2.08,1.82-3.39-.48-3.2.91-6.84-1.06-10.37A12.66,12.66,0,0,0,346.4,96Z"/><path d="M240.5,139q.7.5,0,1Q239.81,139.52,240.5,139Z"/></g></g></svg>