<svg xmlns="http://www.w3.org/2000/svg" xmlns:xlink="http://www.w3.org/1999/xlink" preserveAspectRatio="xMidYMid" width="30" height="20" viewBox="0 0 30 20">
  <path d="M29.255,10.804 L2.624,10.804 L10.327,18.696 C10.619,18.995 10.619,19.481 10.327,19.780 C10.181,19.930 9.989,20.005 9.798,20.005 C9.607,20.005 9.415,19.930 9.269,19.780 L0.290,10.580 C0.220,10.509 0.165,10.424 0.127,10.330 C0.090,10.238 0.071,10.141 0.071,10.043 C0.071,10.041 0.070,10.039 0.070,10.037 C0.070,10.035 0.071,10.034 0.071,10.032 C0.071,9.934 0.090,9.836 0.127,9.745 C0.165,9.650 0.220,9.565 0.290,9.494 L9.269,0.294 C9.561,-0.005 10.035,-0.005 10.327,0.294 C10.619,0.594 10.619,1.079 10.327,1.378 L2.624,9.270 L29.255,9.270 C29.669,9.270 30.003,9.613 30.003,10.037 C30.003,10.461 29.669,10.804 29.255,10.804 Z"/>
</svg>
