<svg xmlns="http://www.w3.org/2000/svg" xmlns:xlink="http://www.w3.org/1999/xlink" preserveAspectRatio="xMidYMid" width="30" height="20" viewBox="0 0 30 20">
  <path d="M29.873,9.745 C29.910,9.836 29.929,9.934 29.929,10.032 C29.929,10.034 29.930,10.035 29.930,10.037 C29.930,10.039 29.929,10.041 29.929,10.043 C29.929,10.141 29.910,10.238 29.873,10.330 C29.835,10.424 29.780,10.509 29.710,10.580 L20.731,19.780 C20.585,19.930 20.393,20.005 20.202,20.005 C20.011,20.005 19.819,19.930 19.673,19.780 C19.381,19.481 19.381,18.995 19.673,18.696 L27.376,10.804 L0.745,10.804 C0.331,10.804 -0.003,10.461 -0.003,10.037 C-0.003,9.613 0.331,9.270 0.745,9.270 L27.376,9.270 L19.673,1.378 C19.381,1.079 19.381,0.594 19.673,0.294 C19.965,-0.005 20.439,-0.005 20.731,0.294 L29.710,9.494 C29.780,9.565 29.835,9.650 29.873,9.745 Z"/>
</svg>
