<svg xmlns="http://www.w3.org/2000/svg" width="80" height="60" viewBox="0 0 80 60">
    <style>
      .password-submit-icon {
        fill: #000000;
      }
    </style>
  <path id="Form_1" data-name="Form 1" class="password-submit-icon" d="M60.166,30.8h-40.4a0.766,0.766,0,0,1,0-1.532h40.4A0.766,0.766,0,0,1,60.166,30.8ZM53.1,38.969a0.75,0.75,0,0,1-.5-0.189,0.772,0.772,0,0,1-.071-1.08l6.634-7.665-6.634-7.665a0.772,0.772,0,0,1,.071-1.081,0.751,0.751,0,0,1,1.069.072l7.071,8.169a0.772,0.772,0,0,1,0,1.008l-7.071,8.169A0.754,0.754,0,0,1,53.1,38.969Z"/>
</svg>
