<svg xmlns="http://www.w3.org/2000/svg" width="35" height="52" viewBox="0 0 35 52">
  <path id="Form_1" data-name="Form 1" d="M31.3,25.028H27.056a0.755,0.755,0,0,1-.752-0.757V14.654a8.8,8.8,0,1,0-17.608,0v9.616a0.755,0.755,0,0,1-.752.757H3.7a0.755,0.755,0,0,1-.752-0.757V14.654a14.556,14.556,0,1,1,29.111,0v9.616A0.755,0.755,0,0,1,31.3,25.028Zm-3.495-1.514h2.743V14.654a13.051,13.051,0,1,0-26.1,0v8.859H7.192V14.654a10.309,10.309,0,1,1,20.617,0v8.859Zm4.43,28.475H2.761A2.77,2.77,0,0,1,0,49.213V25.28a1.763,1.763,0,0,1,1.755-1.766H33.242A1.763,1.763,0,0,1,35,25.28V49.213A2.77,2.77,0,0,1,32.239,51.988ZM1.758,25.028a0.252,0.252,0,0,0-.251.252V49.213a1.259,1.259,0,0,0,1.254,1.262H32.239a1.259,1.259,0,0,0,1.254-1.262V25.28a0.252,0.252,0,0,0-.251-0.252H1.758ZM20.849,43h-6.7a0.75,0.75,0,0,1-.61-0.314,0.763,0.763,0,0,1-.1-0.682l1.471-4.44a4.1,4.1,0,1,1,5.184,0L21.563,42a0.763,0.763,0,0,1-.1.682A0.75,0.75,0,0,1,20.849,43ZM15.2,41.487H19.8l-1.319-3.979a0.76,0.76,0,0,1,.33-0.891,2.6,2.6,0,1,0-2.633,0,0.76,0.76,0,0,1,.33.891Z"/>
</svg>
