<?xml version="1.0" encoding="utf-8"?>
<!-- Generator: Adobe Illustrator 18.1.0, SVG Export Plug-In . SVG Version: 6.00 Build 0)  -->
<svg version="1.1" id="Layer_1" xmlns="http://www.w3.org/2000/svg" xmlns:xlink="http://www.w3.org/1999/xlink" x="0px" y="0px"
	 width="1680px" height="999px" viewBox="0 0 1680 999" enable-background="new 0 0 1680 999" xml:space="preserve">
<rect x="190.3" y="665.7" fill="#1AA5C2" width="1489.9" height="333"/>
<rect x="1347.5" y="665.7" fill="#A6CFE3" width="332.6" height="333"/>
<rect x="840.1" y="-0.6" fill="#A6CFE3" width="840.1" height="333"/>
<rect x="0" y="-0.6" fill="#65ACE5" width="201.2" height="333"/>
<rect x="0" y="332.7" fill="#1AA5C2" width="532.8" height="333"/>
<polygon fill="#262F8A" points="1567.9,332.7 1567.9,-0.6 1534.3,-0.6 1534.3,332.7 1347.5,332.7 1347.5,665.7 1680.1,665.7 
	1680.1,332.7 "/>
<rect x="0" y="665.7" fill="#A6CFE3" width="866" height="333"/>
<polygon fill="#A6CFE3" points="0,500.3 167.6,332.7 0,165.1 "/>
<polyline fill="#65ACE5" points="167.6,998.4 0,830.9 0,998.5 "/>
<rect x="201.2" y="-0.6" fill="#262F8A" width="649.9" height="333.3"/>
<rect x="1108.6" y="665.7" fill="#262F8A" width="238.9" height="333"/>
<polyline fill="#1AA5C2" points="1584.5,998.8 1347.5,998.8 1347.5,761.8 "/>
<polygon fill="#65ACE5" points="1681.3,812.4 1534.3,665.4 1681.3,518.4 "/>
<polygon fill="#A6CFE3" points="201.2,334 201.2,998.8 866,998.8 "/>
<polygon fill="#262F8A" points="532.8,665.8 532.8,998.8 865.8,998.8 "/>
<rect x="167.6" y="332.5" fill="#262F8A" width="33.7" height="667.1"/>
<rect x="532" y="332" fill="#65ACE5" width="815.5" height="333.7"/>
<path fill="#A6CFE3" d="M704.4,332.6c0-95.2-77.2-172.4-172.4-172.4s-172.4,77.2-172.4,172.4H704.4z"/>
<path fill="#65ACE5" d="M532.8,1000.9h158.9c0-87.8-71.1-158.9-158.9-158.9V1000.9z"/>
<polygon fill="#1AA5C2" points="1014.9,332 1347.5,332 1347.5,664.7 "/>
<rect x="865.8" y="665.7" fill="#1AA5C2" width="242.8" height="333"/>
<path fill="#A6CFE3" d="M704.4,332.6c0-95.2-77.2-172.4-172.4-172.4s-172.4,77.2-172.4,172.4H704.4z"/>
</svg>
