<?xml version="1.0" encoding="utf-8"?>
<!-- Generator: Adobe Illustrator 18.1.0, SVG Export Plug-In . SVG Version: 6.00 Build 0)  -->
<svg version="1.1" id="Layer_1" xmlns="http://www.w3.org/2000/svg" xmlns:xlink="http://www.w3.org/1999/xlink" x="0px" y="0px"
	 width="724.7px" height="87.6px" viewBox="0 0 724.7 87.6" enable-background="new 0 0 724.7 87.6" xml:space="preserve">
<g>
	<path fill="#FFFFFF" d="M0,1.8h53.3v15H16.2V39h33.7v14.3H16.2v32.5H0V1.8z"/>
	<path fill="#FFFFFF" d="M79.7,1.8h16.2v84H79.7V1.8z"/>
	<path fill="#FFFFFF" d="M127.7,1.8h34.1c17.2,0,28.9,10.2,28.9,26.8c0,12.4-7,21-17.8,24.5l17.9,32.8h-17.5l-16.9-31.2h-12.5v31.2
		h-16.2V1.8z M160.4,40.6c8.5,0,13.8-3.7,13.8-12c0-8.3-5.3-12.1-13.8-12.1h-16.6v24.1H160.4z"/>
	<path fill="#FFFFFF" d="M227.6,54c1.9,12.4,5.5,18.6,16.7,18.6c8.8,0,15-3.1,15-9.7s-2.9-8.9-21.7-14.8c-18.1-5.6-24-13.3-24-24.2
		c0-12.4,10.1-23.9,28.3-23.9c14.8,0,28.2,6.8,31.2,22.9l-15.7,4c-2-6.5-6-11.9-15.5-11.9c-8.6,0-12.4,3.7-12.4,8.8
		c0,5,2.8,6.2,21.4,12.6c19,6.5,24.2,13.2,24.2,25.4c0,14.6-11.8,25.8-30.8,25.8c-18.7,0-31.2-9.7-33.7-29.9L227.6,54z"/>
	<path fill="#FFFFFF" d="M314.8,16.8h-24.6v-15h65.4v15H331v69h-16.2V16.8z"/>
	<path fill="#FFFFFF" d="M416.8,1.8h34.1c16.9,0,28.9,10.2,28.9,26.8c0,16.2-10.8,26.6-28.9,26.6H433v30.6h-16.2V1.8z M450.6,40.2
		c7.1,0,12.4-4.6,12.4-11.6c0-8.9-6.2-11.8-12.4-11.8H433v23.4H450.6z"/>
	<path fill="#FFFFFF" d="M539.9,72h-32L503,85.8H487l30.4-84h13.8l30.2,84h-16.7L539.9,72z M512.4,58.6h22.9L524,25.8h-0.2
		L512.4,58.6z"/>
	<path fill="#FFFFFF" d="M576.4,42.5c0-28,17.9-42.5,36.4-42.5c16.7,0,30,10.7,32.4,28.6l-16.2,2.6c-1.6-8.5-6-16.2-16.1-16.2
		c-10.4,0-19.8,9.2-19.8,27.5c0,21.8,9.4,30.1,19.8,30.1c10.3,0,16.8-6,16.8-16.9H614V41.9h31.1V53c0,21.7-13.7,34.6-32.3,34.6
		C592.7,87.6,576.4,74.4,576.4,42.5z"/>
	<path fill="#FFFFFF" d="M671.5,1.8h53.2v15h-37v18.8h33.6V50h-33.6v20.8h37v15h-53.2V1.8z"/>
</g>
</svg>
