<?xml version="1.0" encoding="utf-8"?>
<!-- Generator: Adobe Illustrator 18.1.0, SVG Export Plug-In . SVG Version: 6.00 Build 0)  -->
<svg version="1.1" id="Layer_1" xmlns="http://www.w3.org/2000/svg" xmlns:xlink="http://www.w3.org/1999/xlink" x="0px" y="0px"
	 width="890.6px" height="87.6px" viewBox="0 0 890.6 87.6" enable-background="new 0 0 890.6 87.6" xml:space="preserve">
<g>
	<path fill="#FFFFFF" d="M17,54c1.9,12.4,5.5,18.6,16.7,18.6c8.8,0,15-3.1,15-9.7S45.8,54,27,48.1C8.9,42.5,3,34.8,3,23.9
		C3,11.5,13.1,0,31.3,0c14.8,0,28.2,6.8,31.2,22.9l-15.7,4c-2-6.5-6-11.9-15.5-11.9C22.7,15,19,18.7,19,23.8c0,5,2.8,6.2,21.4,12.6
		c19,6.5,24.2,13.2,24.2,25.4c0,14.6-11.8,25.8-30.8,25.8C15,87.6,2.5,77.9,0,57.7L17,54z"/>
	<path fill="#FFFFFF" d="M89.2,1.8h53.2v15h-37v18.8H139V50h-33.6v20.8h37v15H89.2V1.8z"/>
	<path fill="#FFFFFF" d="M235.4,56.2c-2.6,19.3-14.5,31.4-33.2,31.4c-20.2,0-36.5-13.2-36.5-45.1c0-28,17.9-42.5,36.4-42.5
		c17,0,30.6,11.3,32.5,29.9l-16.1,2.5c-1.3-9-5.8-17.4-16.3-17.4c-10.4,0-19.8,9.2-19.8,27.5c0,21.8,9.4,30.1,19.8,30.1
		c10.9,0,15.1-8.8,16.4-20.2L235.4,56.2z"/>
	<path fill="#FFFFFF" d="M256.4,43.1c0-28.9,18-43.1,36.5-43.1s36.5,14.2,36.5,43.1c0,32.2-17.9,44.5-36.5,44.5
		S256.4,75.2,256.4,43.1z M312.6,43.1c0-19.2-9.4-28.1-19.7-28.1s-19.7,8.8-19.7,28.1c0,22,9.2,29.6,19.7,29.6
		S312.6,65.3,312.6,43.1z"/>
	<path fill="#FFFFFF" d="M355.8,1.8H372l30.7,55.1h0.2V1.8h16.3v84h-16l-31.1-55.1H372v55.1h-16.2V1.8z"/>
	<path fill="#FFFFFF" d="M450.5,1.8h28.1c18.6,0,36.4,12.8,36.4,41.9c0,32.2-18.5,42.1-37.1,42.1h-27.4V1.8z M477.8,70.8
		c10.4,0,19.7-4,19.7-27.1c0-19.8-8.5-26.9-19-26.9h-11.9v54H477.8z"/>
	<path fill="#FFFFFF" d="M582.7,1.8h34.1c16.9,0,28.9,10.2,28.9,26.8c0,16.2-10.8,26.6-28.9,26.6h-17.9v30.6h-16.2V1.8z M616.6,40.2
		c7.1,0,12.4-4.6,12.4-11.6c0-8.9-6.2-11.8-12.4-11.8h-17.6v23.4H616.6z"/>
	<path fill="#FFFFFF" d="M705.8,72h-32L669,85.8h-16.1l30.4-84h13.8l30.2,84h-16.7L705.8,72z M678.4,58.6h22.9L690,25.8h-0.2
		L678.4,58.6z"/>
	<path fill="#FFFFFF" d="M742.3,42.5c0-28,17.9-42.5,36.4-42.5c16.7,0,30,10.7,32.4,28.6l-16.2,2.6c-1.6-8.5-6-16.2-16.1-16.2
		c-10.4,0-19.8,9.2-19.8,27.5c0,21.8,9.4,30.1,19.8,30.1c10.3,0,16.8-6,16.8-16.9H780V41.9h31.1V53c0,21.7-13.7,34.6-32.3,34.6
		C758.6,87.6,742.3,74.4,742.3,42.5z"/>
	<path fill="#FFFFFF" d="M837.5,1.8h53.2v15h-37v18.8h33.6V50h-33.6v20.8h37v15h-53.2V1.8z"/>
</g>
</svg>
