<svg width="23" height="24" viewBox="0 0 23 24" fill="none" xmlns="http://www.w3.org/2000/svg">
<path fill-rule="evenodd" clip-rule="evenodd" d="M5.11095 21.3387C7.00211 22.6023 9.22552 23.2768 11.5 23.2768C14.5489 23.2734 17.472 22.0607 19.6279 19.9047C21.7839 17.7488 22.9966 14.8257 23 11.7768C23 9.50231 22.3255 7.27891 21.0619 5.38774C19.7983 3.49658 18.0022 2.02259 15.9009 1.15218C13.7995 0.281777 11.4872 0.0540389 9.25647 0.497769C7.02569 0.941499 4.97658 2.03677 3.36828 3.64507C1.75997 5.25338 0.664705 7.30248 0.220975 9.53326C-0.222755 11.764 0.00498206 14.0763 0.87539 16.1777C1.7458 18.279 3.21978 20.0751 5.11095 21.3387ZM5.66652 3.04637C7.39323 1.89261 9.4233 1.2768 11.5 1.2768C14.2838 1.27998 16.9527 2.38724 18.9211 4.35569C20.8896 6.32413 21.9968 8.993 22 11.7768C22 13.8535 21.3842 15.8836 20.2304 17.6103C19.0767 19.337 17.4368 20.6828 15.5182 21.4775C13.5996 22.2723 11.4884 22.4802 9.45156 22.075C7.41476 21.6699 5.54383 20.6699 4.07538 19.2014C2.60693 17.733 1.6069 15.862 1.20176 13.8252C0.796613 11.7884 1.00455 9.67725 1.79927 7.75862C2.59399 5.84 3.9398 4.20012 5.66652 3.04637ZM11 17.7768C11 17.9094 11.0527 18.0366 11.1465 18.1304C11.2402 18.2241 11.3674 18.2768 11.5 18.2768C11.6326 18.2768 11.7598 18.2241 11.8536 18.1304C11.9473 18.0366 12 17.9094 12 17.7768V12.2768H17.5C17.6326 12.2768 17.7598 12.2241 17.8536 12.1304C17.9473 12.0366 18 11.9094 18 11.7768C18 11.6442 17.9473 11.517 17.8536 11.4232C17.7598 11.3295 17.6326 11.2768 17.5 11.2768L12 11.2768L12 5.7768C12 5.64419 11.9473 5.51701 11.8536 5.42325C11.7598 5.32948 11.6326 5.2768 11.5 5.2768C11.3674 5.2768 11.2402 5.32948 11.1465 5.42325C11.0527 5.51701 11 5.64419 11 5.7768L11 11.2768L5.5 11.2768C5.3674 11.2768 5.24022 11.3295 5.14645 11.4232C5.05268 11.517 5 11.6442 5 11.7768C5 11.9094 5.05268 12.0366 5.14645 12.1304C5.24022 12.2241 5.3674 12.2768 5.5 12.2768L11 12.2768L11 17.7768ZM11 12.2768H12V11.2768L12 11.7768V12.2768L11 12.2768Z" fill="#BBBBBB"/>
</svg>
