<svg width="21" height="20" viewBox="0 0 21 20" fill="none" xmlns="http://www.w3.org/2000/svg">
<path d="M17.763 7.45196C18.979 6.23498 18.979 4.26274 17.7621 3.04589C16.5461 1.82978 14.5732 1.82978 13.3573 3.04676L10.1415 6.26287C8.92728 7.47985 8.92728 9.45031 10.1415 10.6672C10.5581 11.0838 10.5581 11.7591 10.1415 12.1758C9.72491 12.5924 9.04964 12.5924 8.63302 12.1758C7.64964 11.1915 7.09762 9.85632 7.09762 8.46504C7.09762 7.0736 7.64964 5.73847 8.63302 4.75428L11.8488 1.53817C13.1742 0.211819 15.1071 -0.306384 16.9184 0.178843C18.729 0.66407 20.1438 2.07895 20.6298 3.89049C21.1149 5.70204 20.5968 7.63435 19.2714 8.96053L17.6779 10.5534C17.2612 10.9691 16.5868 10.9691 16.1702 10.5525C15.7536 10.1358 15.7536 9.46138 16.1694 9.04386L17.763 7.45196ZM2.34314 18.4653C3.32826 19.448 4.66308 20 6.05446 20C7.44584 20 8.78079 19.4479 9.76577 18.4653L12.9816 15.2492C13.9659 14.2649 14.5196 12.9298 14.5196 11.5385C14.5196 10.1462 13.9659 8.81124 12.9816 7.82683C12.565 7.41105 11.8906 7.41105 11.474 7.8277C11.0573 8.24436 11.0573 8.91882 11.4731 9.33634C12.0572 9.91965 12.3853 10.7122 12.3853 11.5385C12.3853 12.3649 12.0572 13.1565 11.4731 13.7407L8.25727 16.9568C7.04127 18.1729 5.06922 18.1738 3.85249 16.9568C2.63562 15.7407 2.63562 13.7685 3.85162 12.5516L5.44518 10.9588C5.86092 10.5422 5.86092 9.86683 5.44431 9.45105C5.02769 9.03439 4.35329 9.03439 3.93667 9.45018L2.34398 11.043H2.34311C1.36059 12.0282 0.808594 13.3625 0.808594 14.7547C0.808594 16.1461 1.36061 17.4803 2.34311 18.4654L2.34314 18.4653Z" fill="#38C725"/>
</svg>
