<svg version="1.1" id="Ebene_1" xmlns="http://www.w3.org/2000/svg" xmlns:xlink="http://www.w3.org/1999/xlink" x="0px" y="0px"
	 width="36px" height="70px" viewBox="0 0 36 70" style="enable-background:new 0 0 36 70;" xml:space="preserve">
<style type="text/css">
	.as-tb-0{fill-rule:evenodd;clip-rule:evenodd;fill:#FFFFFF;}
	.as-tb-1{fill:url(#SVGIDTB_1_);}
	.as-tb-2{fill:url(#SVGIDTB_2_);}
	.as-tb-3{fill:url(#SVGIDTB_3_);}
</style>
<path class="as-tb-0" d="M27.8,28.2c1.3,0,2.6,0.4,3.7,1.1c1.1,0.7,1.9,1.8,2.4,3c0.5,1.2,0.6,2.5,0.4,3.8c-0.3,1.3-0.9,2.5-1.8,3.4
	c-0.9,0.9-2.1,1.6-3.4,1.8c-1.3,0.3-2.6,0.1-3.8-0.4s-2.2-1.3-3-2.4c-0.7-1.1-1.1-2.4-1.1-3.7c0-1.8,0.7-3.4,1.9-4.7
	C24.3,28.9,26,28.2,27.8,28.2z M27.8,26.9c-1.6,0-3.1,0.5-4.4,1.3c-1.3,0.9-2.3,2.1-2.9,3.6c-0.6,1.5-0.8,3-0.5,4.6
	c0.3,1.5,1.1,3,2.2,4.1c1.1,1.1,2.5,1.9,4.1,2.2c1.5,0.3,3.1,0.1,4.6-0.5s2.7-1.6,3.6-2.9c0.9-1.3,1.3-2.8,1.3-4.4
	c0-2.1-0.8-4.1-2.3-5.6C31.9,27.7,29.9,26.9,27.8,26.9L27.8,26.9z"/>
<linearGradient id="SVGIDTB_1_" gradientUnits="userSpaceOnUse" x1="18.2163" y1="29" x2="-0.7232" y2="29" gradientTransform="matrix(1 0 0 1 0 2)">
	<stop  offset="0" style="stop-color:#E1E1E1"/>
	<stop  offset="1" style="stop-color:#6E6E6D;stop-opacity:0"/>
</linearGradient>
<path class="as-tb-1" d="M4.6,31c0-0.2,0.1-0.3,0.2-0.4s0.3-0.2,0.4-0.2h12.4c0.2,0,0.3,0.1,0.4,0.2s0.2,0.3,0.2,0.4
	c0,0.2-0.1,0.3-0.2,0.4s-0.3,0.2-0.4,0.2H5.2c-0.2,0-0.3-0.1-0.4-0.2S4.6,31.2,4.6,31z"/>
<linearGradient id="SVGIDTB_2_" gradientUnits="userSpaceOnUse" x1="13.7778" y1="33.4" x2="-3.9937" y2="33.4" gradientTransform="matrix(1 0 0 1 0 2)">
	<stop  offset="0" style="stop-color:#E1E1E1"/>
	<stop  offset="1" style="stop-color:#6E6E6D;stop-opacity:0"/>
</linearGradient>
<path class="as-tb-2" d="M0.1,35.4c0-0.2,0.1-0.3,0.2-0.4c0.1-0.1,0.3-0.2,0.4-0.2h12.4c0.2,0,0.3,0.1,0.4,0.2s0.2,0.3,0.2,0.4
	c0,0.2-0.1,0.3-0.2,0.4c0,0.2-0.2,0.2-0.3,0.2H0.7c-0.2,0-0.3-0.1-0.4-0.2C0.2,35.7,0.1,35.6,0.1,35.4z"/>
<linearGradient id="SVGIDTB_3_" gradientUnits="userSpaceOnUse" x1="18.2163" y1="37.8" x2="-3.7599" y2="37.8" gradientTransform="matrix(1 0 0 1 0 2)">
	<stop  offset="0" style="stop-color:#E1E1E1"/>
	<stop  offset="1" style="stop-color:#6E6E6D;stop-opacity:0"/>
</linearGradient>
<path class="as-tb-3" d="M4.6,39.8c0-0.2,0.1-0.3,0.2-0.4c0.1-0.1,0.3-0.2,0.4-0.2h12.4c0.2,0,0.3,0.1,0.4,0.2c0.1,0.1,0.2,0.3,0.2,0.4
	c0,0.2-0.1,0.3-0.2,0.4c-0.1,0.1-0.3,0.2-0.4,0.2H5.2c-0.2,0-0.3-0.1-0.4-0.2S4.6,40,4.6,39.8z"/>
</svg>
