<svg width="27" height="27" viewBox="0 0 27 27" fill="none" xmlns="http://www.w3.org/2000/svg">
<path fill-rule="evenodd" clip-rule="evenodd" d="M6.31399 24.051C8.47361 25.4886 11.0126 26.256 13.61 26.256C17.0917 26.2521 20.4297 24.8724 22.8917 22.4196C25.3536 19.9669 26.7385 16.6414 26.7424 13.1727C26.7424 10.585 25.9722 8.05551 24.5292 5.90397C23.0862 3.75243 21.0352 2.07551 18.6355 1.08527C16.2359 0.0950243 13.5954 -0.164069 11.048 0.340753C8.50053 0.845576 6.16055 2.09164 4.32395 3.92137C2.48734 5.75111 1.2366 8.08233 0.729881 10.6202C0.223163 13.1582 0.483228 15.7888 1.47719 18.1794C2.47115 20.5701 4.15437 22.6134 6.31399 24.051ZM6.94843 3.24024C8.92025 1.92764 11.2385 1.22704 13.61 1.22704C16.7889 1.23065 19.8367 2.49037 22.0845 4.72982C24.3324 6.96928 25.5968 10.0056 25.6005 13.1727C25.6005 15.5353 24.8972 17.8449 23.5797 19.8093C22.2622 21.7737 20.3895 23.3048 18.1985 24.209C16.0076 25.1131 13.5967 25.3497 11.2708 24.8888C8.94483 24.4278 6.80833 23.2901 5.13143 21.6195C3.45453 19.9489 2.31254 17.8204 1.84989 15.5031C1.38723 13.1859 1.62469 10.7841 2.53222 8.60127C3.43975 6.4185 4.9766 4.55284 6.94843 3.24024ZM13.2062 20.401C13.3133 20.5076 13.4586 20.5676 13.61 20.5676C13.7614 20.5676 13.9066 20.5076 14.0137 20.401C14.1208 20.2943 14.181 20.1496 14.181 19.9987V13.7415H20.4617C20.6131 13.7415 20.7584 13.6816 20.8654 13.5749C20.9725 13.4682 21.0327 13.3235 21.0327 13.1727C21.0327 13.0218 20.9725 12.8771 20.8654 12.7704C20.7584 12.6638 20.6131 12.6038 20.4617 12.6038H14.1816V12.6037H14.181V6.34659C14.181 6.19573 14.1208 6.05104 14.0137 5.94436C13.9066 5.83769 13.7614 5.77775 13.61 5.77775C13.4586 5.77775 13.3133 5.83769 13.2062 5.94436C13.0992 6.05104 13.039 6.19573 13.039 6.34659V12.6038H6.75828C6.60684 12.6038 6.46161 12.6638 6.35454 12.7704C6.24746 12.8771 6.1873 13.0218 6.1873 13.1727C6.1873 13.3235 6.24746 13.4682 6.35454 13.5749C6.46161 13.6816 6.60684 13.7415 6.75828 13.7415H13.039V19.9987C13.039 20.1496 13.0992 20.2943 13.2062 20.401ZM13.0397 12.6038V13.7413H14.181V13.7415H13.039V12.6038H13.0397Z" fill="#555555"/>
</svg>
