<svg width="19" height="19" viewBox="0 0 19 19" fill="none" xmlns="http://www.w3.org/2000/svg">
<path fill-rule="evenodd" clip-rule="evenodd" d="M4.23169 16.6971C5.71729 17.686 7.46388 18.2139 9.2506 18.2139C11.6457 18.2112 13.9419 17.2621 15.6355 15.5749C17.329 13.8876 18.2817 11.6 18.2844 9.21387C18.2844 7.43384 17.7546 5.69378 16.7619 4.21374C15.7693 2.7337 14.3584 1.58014 12.7077 0.898955C11.057 0.217767 9.24057 0.0395368 7.48819 0.386804C5.73581 0.73407 4.12614 1.59124 2.86274 2.84991C1.59934 4.10858 0.738954 5.71223 0.390383 7.45805C0.041812 9.20388 0.220711 11.0135 0.904457 12.658C1.5882 14.3025 2.74609 15.7082 4.23169 16.6971ZM4.66812 2.38136C6.02453 1.47842 7.61925 0.99648 9.2506 0.99648C11.4374 0.998965 13.5339 1.86552 15.0802 3.40604C16.6265 4.94656 17.4963 7.03524 17.4988 9.21387C17.4988 10.8391 17.0151 12.4279 16.1088 13.7792C15.2024 15.1305 13.9142 16.1838 12.4071 16.8057C10.8999 17.4277 9.24145 17.5904 7.64144 17.2734C6.04144 16.9563 4.57174 16.1737 3.4182 15.0244C2.26467 13.8752 1.4791 12.411 1.16083 10.817C0.842574 9.22298 1.00592 7.57074 1.63021 6.06921C2.2545 4.56768 3.3117 3.2843 4.66812 2.38136ZM8.97286 14.1862C9.04652 14.2596 9.14643 14.3008 9.2506 14.3008C9.35477 14.3008 9.45467 14.2596 9.52833 14.1862C9.60199 14.1128 9.64337 14.0133 9.64337 13.9095V9.60517H13.9639C14.068 9.60517 14.168 9.56394 14.2416 9.49056C14.3153 9.41718 14.3567 9.31765 14.3567 9.21387C14.3567 9.11009 14.3153 9.01056 14.2416 8.93717C14.168 8.86379 14.068 8.82256 13.9639 8.82256H9.64352V8.8225H9.64337V4.51822C9.64337 4.41444 9.60199 4.31491 9.52833 4.24152C9.45467 4.16814 9.35477 4.12691 9.2506 4.12691C9.14643 4.12691 9.04652 4.16814 8.97286 4.24152C8.8992 4.31491 8.85782 4.41444 8.85782 4.51822V8.82256H4.53731C4.43314 8.82256 4.33324 8.86379 4.25958 8.93717C4.18592 9.01056 4.14454 9.11009 4.14454 9.21387C4.14454 9.31765 4.18592 9.41718 4.25958 9.49056C4.33324 9.56394 4.43314 9.60517 4.53731 9.60517H8.85782V13.9095C8.85782 14.0133 8.8992 14.1128 8.97286 14.1862ZM8.85798 8.82256V9.6051H9.64337V9.60517H8.85782V8.82256H8.85798Z" fill="#bbbbbb"/>
</svg>
