<svg version="1.1" id="Ebene_1" xmlns="http://www.w3.org/2000/svg" xmlns:xlink="http://www.w3.org/1999/xlink" x="0px" y="0px"
	 width="60px" height="60px" viewBox="0 0 60 60" style="enable-background:new 0 0 60 60;" xml:space="preserve">
<style type="text/css">
	.as-0{fill-rule:evenodd;clip-rule:evenodd;fill:#FFFFFF;}
	.as-1{fill:url(#SVGID_1_);}
	.as-2{fill:url(#SVGID_2_);}
	.as-3{fill:url(#SVGID_3_);}
</style>
<path class="as-0" d="M39.8,23.2c1.3,0,2.6,0.4,3.7,1.1c1.1,0.7,1.9,1.8,2.4,3c0.5,1.2,0.6,2.5,0.4,3.8c-0.3,1.3-0.9,2.5-1.8,3.4
	c-0.9,0.9-2.1,1.6-3.4,1.8c-1.3,0.3-2.6,0.1-3.8-0.4c-1.2-0.5-2.2-1.3-3-2.4c-0.7-1.1-1.1-2.4-1.1-3.7c0-1.8,0.7-3.4,1.9-4.7
	C36.3,23.9,38,23.2,39.8,23.2z M39.8,21.9c-1.6,0-3.1,0.5-4.4,1.3c-1.3,0.9-2.3,2.1-2.9,3.6c-0.6,1.5-0.8,3-0.5,4.6
	c0.3,1.5,1.1,3,2.2,4.1c1.1,1.1,2.5,1.9,4.1,2.2c1.5,0.3,3.1,0.1,4.6-0.5c1.5-0.6,2.7-1.6,3.6-2.9c0.9-1.3,1.3-2.8,1.3-4.4
	c0-2.1-0.8-4.1-2.3-5.6C43.9,22.7,41.9,21.9,39.8,21.9L39.8,21.9z"/>
<linearGradient id="SVGID_1_" gradientUnits="userSpaceOnUse" x1="30.2163" y1="35.961" x2="11.2768" y2="35.961" gradientTransform="matrix(1 0 0 -1 0 62)">
	<stop  offset="0" style="stop-color:#E1E1E1"/>
	<stop  offset="1" style="stop-color:#6D6D6C;stop-opacity:0"/>
</linearGradient>
<path class="as-1" d="M16.6,26c0-0.2,0.1-0.3,0.2-0.4c0.1-0.1,0.3-0.2,0.4-0.2h12.4c0.2,0,0.3,0.1,0.4,0.2c0.1,0.1,0.2,0.3,0.2,0.4
	c0,0.2-0.1,0.3-0.2,0.4c-0.1,0.1-0.3,0.2-0.4,0.2H17.2c-0.2,0-0.3-0.1-0.4-0.2S16.6,26.2,16.6,26z"/>
<linearGradient id="SVGID_2_" gradientUnits="userSpaceOnUse" x1="25.7778" y1="31.5811" x2="8.0063" y2="31.5811" gradientTransform="matrix(1 0 0 -1 0 62)">
	<stop  offset="0" style="stop-color:#E1E1E1"/>
	<stop  offset="1" style="stop-color:#6D6D6C;stop-opacity:0"/>
</linearGradient>
<path class="as-2" d="M12.1,30.4c0-0.2,0.1-0.3,0.2-0.4c0.1-0.1,0.3-0.2,0.4-0.2l12.4,0c0.2,0,0.3,0.1,0.4,0.2
	c0.1,0.1,0.2,0.3,0.2,0.4c0,0.2-0.1,0.3-0.2,0.4C25.5,31,25.3,31,25.2,31H12.7c-0.2,0-0.3-0.1-0.4-0.2
	C12.2,30.7,12.1,30.6,12.1,30.4z"/>
<linearGradient id="SVGID_3_" gradientUnits="userSpaceOnUse" x1="30.2163" y1="27.2013" x2="8.2401" y2="27.2013" gradientTransform="matrix(1 0 0 -1 0 62)">
	<stop  offset="0" style="stop-color:#E1E1E1"/>
	<stop  offset="1" style="stop-color:#6D6D6C;stop-opacity:0"/>
</linearGradient>
<path class="as-3" d="M16.6,34.8c0-0.2,0.1-0.3,0.2-0.4c0.1-0.1,0.3-0.2,0.4-0.2h12.4c0.2,0,0.3,0.1,0.4,0.2c0.1,0.1,0.2,0.3,0.2,0.4
	c0,0.2-0.1,0.3-0.2,0.4c-0.1,0.1-0.3,0.2-0.4,0.2H17.2c-0.2,0-0.3-0.1-0.4-0.2S16.6,35,16.6,34.8z"/>
</svg>
