<svg xmlns="http://www.w3.org/2000/svg" width="18" height="18" viewBox="0 0 18 18">
  <metadata><?xpacket begin="﻿" id="W5M0MpCehiHzreSzNTczkc9d"?>
<x:xmpmeta xmlns:x="adobe:ns:meta/" x:xmptk="Adobe XMP Core 5.6-c142 79.160924, 2017/07/13-01:06:39        ">
   <rdf:RDF xmlns:rdf="http://www.w3.org/1999/02/22-rdf-syntax-ns#">
      <rdf:Description rdf:about=""/>
   </rdf:RDF>
</x:xmpmeta>
                                                                                                    
                                                                                                    
                                                                                                    
                                                                                                    
                                                                                                    
                                                                                                    
                                                                                                    
                                                                                                    
                                                                                                    
                                                                                                    
                                                                                                    
                                                                                                    
                                                                                                    
                                                                                                    
                                                                                                    
                                                                                                    
                                                                                                    
                                                                                                    
                                                                                                    
                                                                                                    
                           
<?xpacket end="w"?></metadata>
<defs>
    <style>
      .cls-1 {
        fill-rule: evenodd;
      }
    </style>
  </defs>
  <path id="Form_1" data-name="Form 1" class="cls-1" d="M17.5,18H0.5A0.5,0.5,0,0,1,0,17.5V0.5A0.5,0.5,0,0,1,.5,0h17a0.5,0.5,0,0,1,.5.5v17A0.5,0.5,0,0,1,17.5,18ZM1,17H17V1H1V17Zm14.568-3.427a0.5,0.5,0,0,1-.447-0.276L11.289,5.632l-2.627,4.6a0.5,0.5,0,0,1-.788.105l-1.88-1.88L2.852,13.345A0.5,0.5,0,0,1,2.01,12.8h0L5.488,7.4a0.5,0.5,0,0,1,.367-0.227,0.493,0.493,0,0,1,.407.144L8.118,9.167l2.766-4.841a0.5,0.5,0,0,1,.882.024l4.25,8.5A0.5,0.5,0,0,1,15.568,13.573ZM6.3,6.551A1.978,1.978,0,1,1,8.277,4.572h0A1.981,1.981,0,0,1,6.3,6.551Zm0-2.957a0.978,0.978,0,1,0,.977.979A0.978,0.978,0,0,0,6.3,3.594Zm11.2,9.979H0.5a0.5,0.5,0,0,1,0-1h17A0.5,0.5,0,0,1,17.5,13.573Z"/>
</svg>
