<svg xmlns="http://www.w3.org/2000/svg" xmlns:xlink="http://www.w3.org/1999/xlink" width="50" height="32" viewBox="0 0 50 32" fill="white">
  <path id="Form_1" data-name="Form 1" d="M25,8a1,1,0,1,1-1,1A1,1,0,0,1,25,8Zm0,4a4,4,0,1,1-4,4A4,4,0,0,1,25,12Zm0,10a1,1,0,1,1-1,1A1,1,0,0,1,25,22Zm8-6a1,1,0,1,1-1-1A1,1,0,0,1,33,16ZM19,16a1,1,0,1,1-1-1A1,1,0,0,1,19,16Zm11.656-5.657a1,1,0,1,1-1.414,0A1,1,0,0,1,30.656,10.343Zm-9.9,9.9a1,1,0,1,1-1.414,0A1,1,0,0,1,20.758,20.243Zm9.9,1.414a1,1,0,1,1,0-1.414A1,1,0,0,1,30.656,21.657Zm-9.9-9.9a1,1,0,1,1,0-1.414A1,1,0,0,1,20.758,11.758Z"/>
</svg>
