<svg xmlns="http://www.w3.org/2000/svg" width="70" height="70" viewBox="0 0 70 70">
  <path id="Form_1" data-name="Form 1" d="M40.021,45H28.979a0.5,0.5,0,0,1-.5-0.46l-1-15.409a0.491,0.491,0,0,1,.134-0.368,0.5,0.5,0,0,1,.364-0.155H41.011a0.5,0.5,0,0,1,.364.155,0.49,0.49,0,0,1,.133.368l-1,15.409A0.5,0.5,0,0,1,40.021,45Zm-10.574-.985H39.554L40.486,29.59H28.514ZM37.758,29.6H31.241a0.5,0.5,0,0,1-.5-0.492V26.492a0.5,0.5,0,0,1,.5-0.492h6.517a0.5,0.5,0,0,1,.5.492V29.1A0.5,0.5,0,0,1,37.758,29.6Zm-6.019-.983H37.26V26.984H31.739v1.633ZM43.461,29.6H25.539a0.492,0.492,0,0,1-.062-0.983h0a0.509,0.509,0,0,1,.063,0H43.461a0.493,0.493,0,0,1,.063.983h0A0.508,0.508,0,0,1,43.461,29.6Zm-11.5,11.8a0.5,0.5,0,0,1-.5-0.465L31,32.728a0.5,0.5,0,0,1,.469-0.521,0.487,0.487,0,0,1,.523.447v0.017l0.458,8.2a0.5,0.5,0,0,1-.47.518H31.959V41.4Zm2.542,0a0.5,0.5,0,0,1-.5-0.487v-8.2a0.5,0.5,0,1,1,1,0v8.2a0.5,0.5,0,0,1-.5.476Zm2.542,0H37.014a0.5,0.5,0,0,1-.47-0.518L37,32.67A0.487,0.487,0,0,1,37.5,32.2h0.018a0.5,0.5,0,0,1,.47.518l-0.458,8.2a0.5,0.5,0,0,1-.493.471V41.4Z"/>
</svg>
