<svg xmlns="http://www.w3.org/2000/svg" width="48" height="48" viewBox="0 0 48 48">
  <path id="Form_5" data-name="Form 5" d="M13,23.979H1.082a1,1,0,0,1-.921-0.624,1.02,1.02,0,0,1,.216-1.1L8.309,14.2a0.978,0.978,0,0,1,.862-0.283,1,1,0,0,1,.734.544l3.986,8.051a1.029,1.029,0,0,1-.043.985A0.993,0.993,0,0,1,13,23.979ZM3.486,21.958h7.9L8.743,16.622ZM43,47.942a0.986,0.986,0,0,1-.366-0.07l-22.026-8.8a1,1,0,0,1-.514-0.465L12.12,23.444l1.759-.951,6.1,11.593V14.927a1.01,1.01,0,0,1,.7-0.964,0.986,0.986,0,0,1,1.117.386L43.814,46.354a1.023,1.023,0,0,1-.035,1.2A0.992,0.992,0,0,1,43,47.942ZM21.968,37.44L40.29,44.763,21.968,18.14v19.3Zm-1-21.5L8.92,15.928V13.907l12.051,0.009v2.021ZM35.918,35.2H33.925V3.478L21.668,15.649,20.274,14.2,34.225,0.351A0.986,0.986,0,0,1,35.307.142a1.012,1.012,0,0,1,.611.932V35.2Zm0.37,0.957-1.861-.723L45.035,7.322,35.4,12.736l-0.965-1.769L46.459,4.21a0.986,0.986,0,0,1,1.137.121,1.021,1.021,0,0,1,.276,1.124Z"/>
</svg>
