<svg xmlns="http://www.w3.org/2000/svg" width="48" height="48" viewBox="0 0 48 48">
  <path id="Form_1" data-name="Form 1" d="M47,48H1a1,1,0,0,1-1-1V1A1,1,0,0,1,1,0H47a1,1,0,0,1,1,1V47A1,1,0,0,1,47,48Zm-1-2V36.02H2V46H46ZM40.156,34.02L30.214,14.138,22.778,27.152a1,1,0,0,1-1.576.212l-5.4-5.4L8.06,34.02h32.1ZM2,2V34.02H5.68L14.8,19.842a1,1,0,0,1,1.548-.166l5.346,5.348,7.714-13.5a1.063,1.063,0,0,1,.9-0.5,1,1,0,0,1,.868.552L42.392,34.02H46V2H2ZM16.682,17.02a5,5,0,1,1,5-5A5.006,5.006,0,0,1,16.682,17.02Zm0-8a3,3,0,1,0,3,3A3,3,0,0,0,16.682,9.02Z"/>
</svg>
