<svg xmlns="http://www.w3.org/2000/svg" width="24" height="21" viewBox="0 0 24 21">
  <path id="Form_1" data-name="Form 1" d="M22,19H2a2.047,2.047,0,0,1-2-2.088V2.088A2.047,2.047,0,0,1,2,0H22a2.047,2.047,0,0,1,2,2.088V16.912A2.047,2.047,0,0,1,22,19ZM2,1A1.048,1.048,0,0,0,1,2.088V16.912A1.048,1.048,0,0,0,2,18H22a1.048,1.048,0,0,0,1-1.088V2.088A1.048,1.048,0,0,0,22,1H2ZM19,21H5a0.5,0.5,0,0,1,0-1H19A0.5,0.5,0,0,1,19,21Zm-7,0a0.5,0.5,0,0,1-.5-0.5v-2a0.5,0.5,0,0,1,1,0v2A0.5,0.5,0,0,1,12,21Zm0-3.5a1,1,0,1,1,1-1A1,1,0,0,1,12,17.5Zm0-1h0ZM23.5,15H0.5V14h23v1Z"/>
</svg>
