<svg xmlns="http://www.w3.org/2000/svg" width="24" height="18" viewBox="0 0 24 18">
  <path id="Form_1" data-name="Form 1" d="M20.5,13H3.5A0.5,0.5,0,0,1,3,12.5V2.5A0.5,0.5,0,0,1,3.5,2h17a0.5,0.5,0,0,1,.5.5v10A0.5,0.5,0,0,1,20.5,13ZM4,12H20V3H4v9Zm18.5,3a0.5,0.5,0,0,1-.5-0.5V2a1,1,0,0,0-1-1H3A1,1,0,0,0,2,2V14.5a0.5,0.5,0,0,1-1,0V2A2,2,0,0,1,3,0H21a2,2,0,0,1,2,2V14.5A0.5,0.5,0,0,1,22.5,15Zm0,3H1.5A1.5,1.5,0,0,1,0,16.5v-2A0.5,0.5,0,0,1,.5,14h9a0.5,0.5,0,0,1,.5.5V15h4V14.5a0.5,0.5,0,0,1,.5-0.5h9a0.5,0.5,0,0,1,.5.5v2A1.5,1.5,0,0,1,22.5,18ZM1,15v1.5a0.5,0.5,0,0,0,.5.5h21a0.5,0.5,0,0,0,.5-0.5V15H15v0.5a0.5,0.5,0,0,1-.5.5h-5A0.5,0.5,0,0,1,9,15.5V15H1Z"/>
</svg>
