<svg xmlns="http://www.w3.org/2000/svg" width="18" height="24" viewBox="0 0 18 24">
  <path id="Form_1" data-name="Form 1" d="M15.5,24H2.5A2.5,2.5,0,0,1,0,21.5V2.5A2.5,2.5,0,0,1,2.5,0h13A2.5,2.5,0,0,1,18,2.5v19A2.5,2.5,0,0,1,15.5,24ZM2.5,1A1.5,1.5,0,0,0,1,2.5v19A1.5,1.5,0,0,0,2.5,23h13A1.5,1.5,0,0,0,17,21.5V2.5A1.5,1.5,0,0,0,15.5,1H2.5Zm13,19H2.5A0.5,0.5,0,0,1,2,19.5V3.5A0.5,0.5,0,0,1,2.5,3h13a0.5,0.5,0,0,1,.5.5v16A0.5,0.5,0,0,1,15.5,20ZM3,19H15V4H3V19ZM9,1.5a0.5,0.5,0,1,0,.5.5A0.5,0.5,0,0,0,9,1.5H9Zm0,21a1,1,0,1,1,1-1A1,1,0,0,1,9,22.5Zm0-1H9Z"/>
</svg>
