<svg xmlns="http://www.w3.org/2000/svg" width="24" height="18" viewBox="0 0 24 18">
  <path id="Form_1" data-name="Form 1" d="M24,2.5v13A2.5,2.5,0,0,1,21.5,18H2.5A2.5,2.5,0,0,1,0,15.5V2.5A2.5,2.5,0,0,1,2.5,0h19A2.5,2.5,0,0,1,24,2.5ZM1,15.5A1.5,1.5,0,0,0,2.5,17h19A1.5,1.5,0,0,0,23,15.5V2.5A1.5,1.5,0,0,0,21.5,1H2.5A1.5,1.5,0,0,0,1,2.5v13Zm19-13v13a0.5,0.5,0,0,1-.5.5H3.5A0.5,0.5,0,0,1,3,15.5V2.5A0.5,0.5,0,0,1,3.5,2h16A0.5,0.5,0,0,1,20,2.5ZM19,15V3H4V15H19ZM1.5,9A0.5,0.5,0,1,0,2,8.5a0.5,0.5,0,0,0-.5.5h0Zm21,0a1,1,0,1,1-1-1A1,1,0,0,1,22.5,9Zm-1,0h0V9Z"/>
</svg>
