<svg xmlns="http://www.w3.org/2000/svg" width="40" height="40" viewBox="0 0 40 40">
  <path id="Form_1" data-name="Form 1" d="M26.046,30H14.988a0.5,0.5,0,0,1-.5-0.46l-1-15.408a0.491,0.491,0,0,1,.134-0.368,0.5,0.5,0,0,1,.365-0.155H27.038a0.5,0.5,0,0,1,.364.155,0.49,0.49,0,0,1,.133.368l-1,15.408A0.5,0.5,0,0,1,26.046,30Zm-10.59-.985H25.578L26.512,14.59H14.522ZM23.78,14.6H17.253a0.5,0.5,0,0,1-.5-0.492V11.492a0.5,0.5,0,0,1,.5-0.492H23.78a0.5,0.5,0,0,1,.5.492V14.1A0.5,0.5,0,0,1,23.78,14.6Zm-6.028-.983h5.529V11.984H17.752v1.633ZM29.491,14.6H11.543a0.492,0.492,0,1,1-.062-0.983h0a0.511,0.511,0,0,1,.063,0H29.491a0.493,0.493,0,0,1,.063.983h0A0.511,0.511,0,0,1,29.491,14.6ZM17.974,26.4a0.5,0.5,0,0,1-.5-0.465l-0.462-8.207a0.5,0.5,0,0,1,.47-0.521,0.488,0.488,0,0,1,.524.447v0.017l0.459,8.2a0.5,0.5,0,0,1-.471.518H17.972V26.4h0Zm2.546,0a0.5,0.5,0,0,1-.5-0.487v-8.2a0.5,0.5,0,0,1,1,0v8.2a0.5,0.5,0,0,1-.5.476V26.4Zm2.546,0H23.035a0.5,0.5,0,0,1-.471-0.518l0.457-8.212a0.487,0.487,0,0,1,.5-0.47h0.018a0.5,0.5,0,0,1,.471.518l-0.459,8.2a0.5,0.5,0,0,1-.494.471V26.4h0.008Z"/>
</svg>
