<svg xmlns="http://www.w3.org/2000/svg" xmlns:xlink="http://www.w3.org/1999/xlink" width="80" height="80" viewBox="0 0 80 80">
  <path id="Aa" fill="#000000" d="M46.966,63.679V61.663c-4.68-.432-5.617-1.08-7.921-7.273-4.608-12.529-9.433-26.21-13.9-38.6l-2.232.648L8.011,54.246c-2.52,6.337-3.528,6.769-8.065,7.417v2.016H15.572V61.663c-5.4-.5-6.048-1.224-4.464-5.76,0.936-3.024,2.016-6.048,3.168-9.289H29.613c1.584,4.392,3.024,8.281,3.96,11.089s0.288,3.384-4.248,3.96v2.016H46.966ZM28.6,43.517H15.356c2.16-5.9,4.464-12.169,6.769-18.362h0.144ZM78.573,60.871L77.853,59a5.465,5.465,0,0,1-2.592.792c-1.224,0-2.52-1.08-2.52-4.32V42.077c0-3.744-.72-6.7-3.24-8.785a9.389,9.389,0,0,0-5.9-1.944c-4.1.792-8.785,3.6-10.8,5.041-1.368,1.008-2.3,1.8-2.3,2.88a3.518,3.518,0,0,0,3.168,3.1,2,2,0,0,0,2.088-1.656,10.452,10.452,0,0,1,2.16-4.752,4.062,4.062,0,0,1,3.24-1.44c3.6,0,6.048,2.952,6.048,8.137v1.3c-1.584,1.3-6.84,3.24-11.161,4.68C52.075,50,50.2,52.23,50.2,55.758a8.692,8.692,0,0,0,8.641,8.785c2.16,0,5.616-2.664,8.5-4.608a7.482,7.482,0,0,0,1.728,3.24,5.873,5.873,0,0,0,3.384,1.368ZM67.2,57.631a10.3,10.3,0,0,1-5.76,2.592,5.272,5.272,0,0,1-5.112-5.545c0-2.592,1.584-3.96,4.392-5.256,1.512-.72,4.968-2.232,6.48-3.024V57.631Z"/>
</svg>