<svg xmlns="http://www.w3.org/2000/svg" xmlns:xlink="http://www.w3.org/1999/xlink" width="80" height="80" viewBox="0 0 80 80">
  <path id="Aa" fill="#000000" d="M43.186,63.679L26.12,15.472H19.048l-17,48.207H8.169l3.876-11.423H32.987l3.944,11.423h6.255ZM31.015,46.545H13.949l8.5-25.021ZM78.886,63.339V59.056a8.374,8.374,0,0,1-1.5.2c-1.156,0-1.9-.476-1.9-2.312V40.289a13.177,13.177,0,0,0-1.02-5.3c-1.632-3.74-5.439-6.6-12.1-6.6-4.216,0-8.3,1.224-10.607,3.672a10.191,10.191,0,0,0-2.992,7.207h5.643a5.636,5.636,0,0,1,1.7-4.148c1.156-1.156,3.128-2.04,6.255-2.04,2.788,0,4.488.68,5.643,1.768,1.564,1.428,1.768,3.536,1.768,5.236V42.6L59.3,43.213c-9.383.544-12.239,6.323-12.239,10.743,0,5.3,3.944,10.607,11.831,10.607,4.828,0,9.111-2.176,11.083-5.643h0.136c0,2.924,1.9,5.236,4.964,5.236A8,8,0,0,0,78.886,63.339Zm-9.111-14.21a11.1,11.1,0,0,1-2.924,7.819,9.69,9.69,0,0,1-7.071,2.788c-4.9,0-6.8-2.856-6.8-5.915,0-4.352,4.079-5.983,7.547-6.187l9.247-.544v2.04Z"/>
</svg>