<svg xmlns="http://www.w3.org/2000/svg" xmlns:xlink="http://www.w3.org/1999/xlink" preserveAspectRatio="xMidYMid" width="28" height="17" viewBox="0 0 28 17">
  <path d="M25.725,16.599 C24.537,16.599 23.877,15.851 23.789,14.993 C23.261,15.917 21.940,16.709 20.312,16.709 C17.584,16.709 16.176,14.993 16.176,13.122 C16.176,10.944 17.870,9.690 20.048,9.536 L23.415,9.294 L23.415,8.590 C23.415,7.512 23.041,6.785 21.478,6.785 C20.202,6.785 19.454,7.357 19.388,8.414 L16.726,8.414 C16.880,5.839 18.926,4.695 21.478,4.695 C23.437,4.695 25.109,5.311 25.769,7.027 C26.055,7.754 26.099,8.568 26.099,9.338 L26.099,13.584 C26.099,14.112 26.275,14.310 26.737,14.310 C26.913,14.310 27.089,14.266 27.089,14.266 L27.089,16.291 C26.627,16.489 26.385,16.599 25.725,16.599 ZM23.415,11.340 L20.510,11.560 C19.674,11.626 18.860,12.132 18.860,13.056 C18.860,13.936 19.630,14.487 20.488,14.487 C22.204,14.487 23.415,13.562 23.415,11.868 L23.415,11.340 ZM11.403,12.726 L4.604,12.726 L2.712,16.423 L0.644,16.423 L8.895,0.823 L11.183,0.823 L13.977,16.423 L12.019,16.423 L11.403,12.726 ZM9.709,2.781 L5.550,10.878 L11.073,10.878 L9.709,2.781 Z"/>
</svg>
