<svg xmlns="http://www.w3.org/2000/svg" xmlns:xlink="http://www.w3.org/1999/xlink" preserveAspectRatio="xMidYMid" width="16" height="16" viewBox="0 0 16 16">
  <path d="M14.756,7.249 L11.753,10.252 C10.095,11.910 7.405,11.910 5.747,10.252 C5.486,9.991 5.282,9.698 5.102,9.395 L6.498,8.000 C6.564,7.933 6.646,7.894 6.725,7.849 C6.821,8.179 6.990,8.491 7.249,8.750 C8.077,9.579 9.424,9.578 10.251,8.750 L13.254,5.747 C14.083,4.919 14.083,3.572 13.254,2.744 C12.427,1.916 11.080,1.916 10.251,2.744 L9.184,3.813 C8.317,3.476 7.384,3.385 6.475,3.518 L8.750,1.243 C10.409,-0.415 13.098,-0.415 14.756,1.243 C16.414,2.901 16.414,5.591 14.756,7.249 ZM6.816,12.186 L5.747,13.255 C4.919,14.083 3.572,14.083 2.744,13.255 C1.916,12.427 1.916,11.080 2.744,10.252 L5.747,7.249 C6.576,6.420 7.922,6.420 8.750,7.249 C9.009,7.508 9.177,7.820 9.275,8.149 C9.353,8.103 9.434,8.066 9.501,7.999 L10.896,6.605 C10.718,6.301 10.513,6.008 10.251,5.748 C8.594,4.089 5.904,4.089 4.246,5.748 L1.243,8.750 C-0.415,10.409 -0.415,13.098 1.243,14.756 C2.901,16.414 5.590,16.414 7.249,14.756 L9.525,12.481 C8.615,12.615 7.682,12.523 6.816,12.186 Z"/>
</svg>
