<svg xmlns="http://www.w3.org/2000/svg" xmlns:xlink="http://www.w3.org/1999/xlink" preserveAspectRatio="xMidYMid" width="14" height="18" viewBox="0 0 14 18">
  <path d="M12.000,17.500 L12.000,18.000 L1.000,18.000 L1.000,17.500 L0.876,17.500 L0.876,16.690 L1.000,16.690 L1.000,16.000 L12.000,16.000 L12.000,16.690 L13.152,16.690 L13.152,17.500 L12.000,17.500 ZM7.016,13.657 C3.721,13.657 2.010,11.568 2.010,8.525 L2.010,0.657 L4.333,0.657 L4.333,8.489 C4.333,10.308 5.161,11.550 7.016,11.550 C8.870,11.550 9.698,10.308 9.698,8.489 L9.698,0.657 L12.021,0.657 L12.021,8.525 C12.021,11.568 10.311,13.657 7.016,13.657 Z"/>
</svg>
