<svg xmlns="http://www.w3.org/2000/svg" xmlns:xlink="http://www.w3.org/1999/xlink" preserveAspectRatio="xMidYMid" width="15" height="16" viewBox="0 0 15 16">
  <path d="M13.370,9.048 C12.469,9.048 11.739,8.358 11.739,7.507 C11.739,6.656 12.469,5.966 13.370,5.966 C14.270,5.966 15.000,6.656 15.000,7.507 C15.000,8.358 14.270,9.048 13.370,9.048 ZM7.500,9.048 C6.600,9.048 5.870,8.358 5.870,7.507 C5.870,6.656 6.600,5.966 7.500,5.966 C8.400,5.966 9.130,6.656 9.130,7.507 C9.130,8.358 8.400,9.048 7.500,9.048 ZM1.630,9.048 C0.730,9.048 -0.000,8.358 -0.000,7.507 C-0.000,6.656 0.730,5.966 1.630,5.966 C2.531,5.966 3.261,6.656 3.261,7.507 C3.261,8.358 2.531,9.048 1.630,9.048 Z"/>
</svg>
