<svg xmlns="http://www.w3.org/2000/svg" width="60" height="60" viewBox="0 0 60 60">
  <path id="Form_1" data-name="Form 1" d="M18.531,41.995a0.5,0.5,0,0,1-.488-0.617l1.521-6.5a0.507,0.507,0,0,1,.134-0.241L35.344,18.954a2.565,2.565,0,0,1,3.547,0l2.129,2.133a2.522,2.522,0,0,1,0,3.554L25.371,40.323a0.5,0.5,0,0,1-.24.134l-6.486,1.525A0.5,0.5,0,0,1,18.531,41.995Zm1.977-6.747-1.3,5.57,5.559-1.307L40.311,23.931a1.513,1.513,0,0,0,0-2.133l-2.128-2.133a1.539,1.539,0,0,0-2.129,0Zm4.509,4.72h0ZM39.958,25.5a0.5,0.5,0,0,1-.355-0.147l-4.968-4.978a0.5,0.5,0,0,1,.709-0.711l4.968,4.979A0.5,0.5,0,0,1,39.958,25.5Zm-1.431,1.435a0.5,0.5,0,0,1-.356-0.148L33.216,21.8a0.5,0.5,0,1,1,.711-0.709l4.956,4.991A0.5,0.5,0,0,1,38.527,26.936ZM25.269,40.218a0.5,0.5,0,0,1-.355-0.147L19.949,35.1a0.5,0.5,0,1,1,.709-0.711l4.965,4.976A0.5,0.5,0,0,1,25.269,40.218Z"/>
</svg>
