<svg xmlns="http://www.w3.org/2000/svg" width="16" height="24" viewBox="0 0 16 24">
  <path id="Form_1" data-name="Form 1" d="M13.5,24H2.5A2.5,2.5,0,0,1,0,21.5V2.5A2.5,2.5,0,0,1,2.5,0h11A2.5,2.5,0,0,1,16,2.5v19A2.5,2.5,0,0,1,13.5,24ZM2.5,1A1.5,1.5,0,0,0,1,2.5v19A1.5,1.5,0,0,0,2.5,23h11A1.5,1.5,0,0,0,15,21.5V2.5A1.5,1.5,0,0,0,13.5,1H2.5Zm13,4H0.5a0.5,0.5,0,0,1,0-1h15A0.5,0.5,0,0,1,15.5,5Zm0,15H0.5a0.5,0.5,0,0,1,0-1h15A0.5,0.5,0,0,1,15.5,20Zm-5-17h-5a0.5,0.5,0,0,1,0-1h5A0.5,0.5,0,0,1,10.5,3ZM8,22.5a1,1,0,1,1,1-1A1,1,0,0,1,8,22.5Zm0-1H8Z"/>
</svg>
