<svg version="1.1" id="Isolation_Mode" xmlns="http://www.w3.org/2000/svg" xmlns:xlink="http://www.w3.org/1999/xlink" x="0px"
	 y="0px" width="24px" height="24px" viewBox="0 0 24 24" enable-background="new 0 0 24 24" xml:space="preserve">
<g>
	<rect x="0" y="4" width="1" height="3"/>
	<rect x="0" y="9" width="1" height="3"/>
	<rect x="0" y="14" width="1" height="3"/>
	<rect x="20" y="4" width="1" height="3"/>
	<rect x="20" y="9" width="1" height="3"/>
	<polygon points="0,2 1,2 1,1 2,1 2,0 0,0 	"/>
	<rect x="4" width="3" height="1"/>
	<rect x="9" width="3" height="1"/>
	<rect x="14" width="3" height="1"/>
	<polygon points="20,2 21,2 21,0 19,0 19,1 20,1 	"/>
	<polygon points="1,19 0,19 0,21 2,21 2,20 1,20 	"/>
	<rect x="4" y="20" width="3" height="1"/>
	<rect x="9" y="20" width="3" height="1"/>
	<path d="M23.9,23.1L20.7,20l2.1-2.1c0.1-0.1,0.2-0.3,0.1-0.5c0-0.2-0.2-0.3-0.3-0.4l-8-3.1c-0.2-0.1-0.4,0-0.5,0.1
		s-0.2,0.3-0.1,0.5l3.1,8c0.1,0.2,0.2,0.3,0.4,0.3c0,0,0.1,0,0.1,0c0.1,0,0.3-0.1,0.4-0.1l2.1-2.1l3.2,3.2c0.1,0.1,0.2,0.1,0.4,0.1
		s0.3,0,0.4-0.1C24.1,23.7,24.1,23.3,23.9,23.1z M17.7,21.6l-2.4-6.2l6.2,2.4L17.7,21.6z"/>
</g>
</svg>
