<svg xmlns="http://www.w3.org/2000/svg" width="24" height="24" viewBox="0 0 24 24">
  <path id="Form_1" data-name="Form 1" d="M12,16.5A4.5,4.5,0,1,1,16.5,12,4.5,4.5,0,0,1,12,16.5Zm0-8A3.5,3.5,0,1,0,15.5,12,3.5,3.5,0,0,0,12,8.5ZM12.5,5A0.5,0.5,0,0,1,12,4.5v-4a0.5,0.5,0,0,1,1,0v4A0.5,0.5,0,0,1,12.5,5Zm0,19a0.5,0.5,0,0,1-.5-0.5v-4a0.5,0.5,0,0,1,1,0v4A0.5,0.5,0,0,1,12.5,24ZM6.7,7.2a0.5,0.5,0,0,1-.353-0.147L3.515,4.222a0.5,0.5,0,1,1,.707-0.707L7.049,6.344A0.5,0.5,0,0,1,6.7,7.2ZM20.132,20.632a0.5,0.5,0,0,1-.353-0.146l-2.829-2.83a0.5,0.5,0,0,1,.707-0.707l2.829,2.83A0.5,0.5,0,0,1,20.132,20.632ZM4.5,13h-4a0.5,0.5,0,0,1,0-1h4A0.5,0.5,0,0,1,4.5,13Zm19,0h-4a0.5,0.5,0,0,1,0-1h4A0.5,0.5,0,0,1,23.5,13ZM3.868,20.632a0.5,0.5,0,0,1-.354-0.854l2.827-2.83a0.5,0.5,0,0,1,.707.707l-2.827,2.83A0.5,0.5,0,0,1,3.868,20.632ZM17.3,7.2a0.5,0.5,0,0,1-.354-0.854l2.829-2.829a0.5,0.5,0,1,1,.707.707L17.656,7.051A0.5,0.5,0,0,1,17.3,7.2Z"/>
</svg>
