<svg version="1.1" id="Layer_1" xmlns="http://www.w3.org/2000/svg" xmlns:xlink="http://www.w3.org/1999/xlink" x="0px" y="0px"
	 width="25px" height="25px" viewBox="0 0 25 25" style="enable-background:new 0 0 25 25;" xml:space="preserve">
<g>
	<path d="M0.7,15.5h6c0.1,0,0.3-0.1,0.4-0.1c0.1-0.1,0.1-0.2,0.1-0.4V9c0-0.1-0.1-0.3-0.1-0.4C7,8.6,6.9,8.5,6.7,8.5h-6
		c-0.1,0-0.3,0.1-0.4,0.1C0.3,8.8,0.2,8.9,0.2,9v6c0,0.1,0.1,0.3,0.1,0.4C0.5,15.5,0.6,15.5,0.7,15.5z M1.2,9.5h5v5h-5V9.5z"/>
	<path d="M0.7,7.5h6c0.1,0,0.3-0.1,0.4-0.1C7.2,7.3,7.2,7.2,7.2,7V1c0-0.1-0.1-0.3-0.1-0.4C7,0.6,6.9,0.5,6.7,0.5h-6
		c-0.1,0-0.3,0.1-0.4,0.1C0.3,0.8,0.2,0.9,0.2,1v6c0,0.1,0.1,0.3,0.1,0.4C0.5,7.5,0.6,7.5,0.7,7.5z M1.2,1.5h5v5h-5V1.5z"/>
	<path d="M8.7,7.5h6c0.1,0,0.3-0.1,0.4-0.1c0.1-0.1,0.1-0.2,0.1-0.4V1c0-0.1-0.1-0.3-0.1-0.4c-0.1-0.1-0.2-0.1-0.4-0.1
		h-6c-0.1,0-0.3,0.1-0.4,0.1C8.3,0.8,8.2,0.9,8.2,1v6c0,0.1,0.1,0.3,0.1,0.4C8.5,7.5,8.6,7.5,8.7,7.5z M9.2,1.5h5v5h-5V1.5z"/>
	<path d="M23.8,1.4C23.9,1.3,24,1,23.9,0.9c-0.1-0.2-0.3-0.3-0.5-0.3l-6.7,0c-0.1,0-0.3,0.1-0.4,0.1
		c-0.1,0.1-0.1,0.2-0.1,0.4v6c0,0.1,0.1,0.3,0.1,0.4c0,0,0,0,0,0l-1.3,1.3c0,0,0,0,0,0c-0.1-0.1-0.2-0.1-0.4-0.1h-6
		c-0.1,0-0.3,0.1-0.4,0.1C8.3,8.8,8.2,8.9,8.2,9v6c0,0.1,0.1,0.3,0.1,0.4c0,0,0,0,0.1,0l-1.3,1.3c0,0,0,0,0-0.1
		c-0.1-0.1-0.2-0.1-0.4-0.1h-6c-0.1,0-0.3,0.1-0.4,0.1c-0.1,0.1-0.1,0.2-0.1,0.4l0,6.8c0,0.2,0.1,0.4,0.3,0.5c0.2,0.1,0.4,0,0.5-0.1
		L23.8,1.4z M17.2,6.5v-5h5L17.2,6.5L17.2,6.5z M1.4,22.5H1.2v-5h5v0.1L1.4,22.5z M9.3,14.5L9.3,14.5l-0.1-5h5v0L9.3,14.5z"/>
	<path d="M24.6,15.2L21.4,12c-0.2-0.2-0.5-0.2-0.7,0c-0.2,0.2-0.2,0.5,0,0.7L23,15h-7.8v1H23l-2.3,2.3
		c-0.2,0.2-0.2,0.5,0,0.7c0.2,0.2,0.5,0.2,0.7,0l3.2-3.2C24.8,15.7,24.8,15.4,24.6,15.2z"/>
</g>
</svg>
