<svg version="1.1" id="Ebene_2" xmlns="http://www.w3.org/2000/svg" xmlns:xlink="http://www.w3.org/1999/xlink" x="0px" y="0px"
   width="24px" height="24px" viewBox="0 0 24 24" style="enable-background:new 0 0 24 24;" xml:space="preserve">
<g>
  <path d="M3.5,10C4.9,10,6,11.1,6,12.5S4.9,15,3.5,15S1,13.9,1,12.5S2.1,10,3.5,10 M3.5,9C1.6,9,0,10.6,0,12.5S1.6,16,3.5,16
    S7,14.4,7,12.5S5.4,9,3.5,9L3.5,9z"/>
</g>
<g>
  <path d="M20.5,10c1.4,0,2.5,1.1,2.5,2.5S21.9,15,20.5,15S18,13.9,18,12.5S19.1,10,20.5,10 M20.5,9c-1.9,0-3.5,1.6-3.5,3.5
    s1.6,3.5,3.5,3.5s3.5-1.6,3.5-3.5S22.4,9,20.5,9L20.5,9z"/>
</g>
<g>
  <path d="M12,10c1.4,0,2.5,1.1,2.5,2.5S13.4,15,12,15s-2.5-1.1-2.5-2.5S10.6,10,12,10 M12,9c-1.9,0-3.5,1.6-3.5,3.5S10.1,16,12,16
    s3.5-1.6,3.5-3.5S13.9,9,12,9L12,9z"/>
</g>
</svg>
