<svg xmlns="http://www.w3.org/2000/svg" width="23" height="23" viewBox="0 0 23 23">
  <path id="Form_1" data-name="Form 1" d="M0.565,23.992a0.507,0.507,0,0,1-.453-0.734l2.862-5.739a0.511,0.511,0,0,1,.095-0.132L19.429,0.979a2.586,2.586,0,0,1,3.577,0,2.546,2.546,0,0,1,0,3.586L6.646,20.974a0.5,0.5,0,0,1-.131.1L0.791,23.939A0.5,0.5,0,0,1,.565,23.992Zm3.278-5.946L1.7,22.351,5.988,20.2l16.3-16.35a1.528,1.528,0,0,0,0-2.152,1.552,1.552,0,0,0-2.146,0Zm2.445,2.57h0ZM21.218,6.15A0.5,0.5,0,0,1,20.861,6L18,3.131a0.507,0.507,0,1,1,.715-0.717l2.862,2.87A0.507,0.507,0,0,1,21.218,6.15ZM6.288,21.123a0.5,0.5,0,0,1-.358-0.149L3.069,18.1a0.507,0.507,0,1,1,.715-0.717l2.861,2.871A0.507,0.507,0,0,1,6.288,21.123Z"/>
</svg>
