<svg width="29" height="31" viewBox="0 0 29 31" fill="none" xmlns="http://www.w3.org/2000/svg">
<path fill-rule="evenodd" clip-rule="evenodd" d="M19.9375 27.3602C19.9375 28.3902 19.126 29.2252 18.125 29.2252H5.4375C4.43648 29.2252 3.625 28.3902 3.625 27.3602V10.575C3.625 9.54496 4.43648 8.70996 5.4375 8.70996H14.6559C15.1362 8.71007 15.5969 8.90639 15.9367 9.25579L19.407 12.8267C19.7466 13.1763 19.9374 13.6503 19.9375 14.1446V27.3602Z" stroke="white" stroke-linecap="round" stroke-linejoin="round"/>
<path d="M9.0625 8.70997V3.1149C9.0625 2.08488 9.87398 1.24988 10.875 1.24988H20.0934C20.5737 1.24998 21.0344 1.4463 21.3742 1.79571L24.8445 5.36661C25.1841 5.71623 25.3749 6.19026 25.375 6.68455V19.9001C25.375 20.9301 24.5635 21.7651 23.5625 21.7651H19.9375" stroke="white" stroke-linecap="round" stroke-linejoin="round"/>
</svg>
