<svg version="1.1" id="Ebene_1" xmlns="http://www.w3.org/2000/svg" xmlns:xlink="http://www.w3.org/1999/xlink" x="0px" y="0px"
	 width="65px" height="60px" viewBox="0 0 65 60" style="enable-background:new 0 0 65 60;" xml:space="preserve">
<style type="text/css">
	.ep-back-arrow { fill: #000000; }
</style>
<path id="_" class="ep-back-arrow" d="M43.5,30H23.8l7.3,7.1c0.2,0.2,0.2,0.5,0,0.7c0,0,0,0,0,0h0c-0.2,0.2-0.5,0.2-0.7,0l-8.2-8
	c-0.2-0.2-0.2-0.5,0-0.7c0,0,0,0,0,0l0,0l8.2-8c0.2-0.2,0.5-0.2,0.7,0c0.2,0.2,0.2,0.5,0,0.7c0,0,0,0,0,0l0,0L23.8,29h19.7
	c0.3,0,0.5,0.2,0.5,0.5S43.8,30,43.5,30L43.5,30L43.5,30z"/>
</svg>
