<svg width="13" height="13" viewBox="0 0 13 13" fill="none" xmlns="http://www.w3.org/2000/svg">
<g clip-path="url(#clip0)">
<path d="M4.59741 6.05843C4.258 6.03859 3.91823 6.09078 3.60043 6.21159C3.28263 6.33239 2.99398 6.51906 2.75345 6.75935L2.16036 7.33087C1.70205 7.78918 1.44458 8.41077 1.44458 9.05891C1.44458 9.70705 1.70205 10.3286 2.16036 10.787C2.61866 11.2453 3.24026 11.5027 3.8884 11.5027C4.53654 11.5027 5.15814 11.2453 5.61644 10.787L6.18796 10.2154C6.42825 9.9749 6.61492 9.68625 6.73573 9.36845C6.85653 9.05065 6.90872 8.71088 6.88888 8.37147" stroke="#ADADAD" stroke-linecap="round" stroke-linejoin="round"/>
<path d="M6.05855 4.59729C6.03871 4.25788 6.09091 3.91812 6.21171 3.60031C6.33251 3.28251 6.51919 2.99386 6.75947 2.75333L7.33099 2.16024C7.7893 1.70194 8.41089 1.44447 9.05904 1.44447C9.70718 1.44447 10.3288 1.70194 10.7871 2.16024C11.2454 2.61855 11.5029 3.24014 11.5029 3.88828C11.5029 4.53643 11.2454 5.15802 10.7871 5.61632L10.2156 6.18785C9.97503 6.42813 9.68638 6.61481 9.36857 6.73561C9.05077 6.85641 8.711 6.90861 8.37159 6.88877" stroke="#ADADAD" stroke-linecap="round" stroke-linejoin="round"/>
<path d="M4.47339 8.47392L8.47403 4.47327" stroke="#ADADAD" stroke-linecap="round" stroke-linejoin="round"/>
</g>
<defs>
<clipPath id="clip0">
<rect width="13" height="13" fill="white"/>
</clipPath>
</defs>
</svg>
