<svg id="Gruppe_1" data-name="Gruppe 1" xmlns="http://www.w3.org/2000/svg" width="120" height="50" viewBox="0 0 120 50">
  <defs>
    <style>
      .ep-masterblocks-icon-1 {
        fill: #f24c2e;
      }

      .ep-masterblocks-icon-2 {
        fill: #fff;
        fill-rule: evenodd;
      }
    </style>
  </defs>
  <rect id="Abgerundetes_Rechteck_1" data-name="Abgerundetes Rechteck 1" class="ep-masterblocks-icon-1" x="25" y="13" width="70" height="24" rx="4" ry="4"/>
  <path id="MASTER" class="ep-masterblocks-icon-2" d="M45.932,29.239v-8.5H43.977l-2.723,6.488L38.5,20.736H36.577v8.5h1.4V23l2.627,6.237h1.247l2.651-6.261v6.261h1.427Zm7.862,0h1.571l-3.31-8.5H50.388l-3.31,8.5H48.6L49.393,27.1h3.6Zm-2.6-6.944,1.3,3.478H49.9Zm10.823,0.432a3,3,0,0,0-5.865.432,2.415,2.415,0,0,0,2.159,2.387l1.2,0.252a1.235,1.235,0,0,1,1.139,1.151A1.3,1.3,0,0,1,59.1,28.124a1.828,1.828,0,0,1-1.943-1.7l-1.343.384A3.023,3.023,0,0,0,59.1,29.419a2.714,2.714,0,0,0,3.01-2.579,2.512,2.512,0,0,0-2.3-2.447l-1.223-.252a1.1,1.1,0,0,1-1-1.091,1.343,1.343,0,0,1,1.463-1.223,1.569,1.569,0,0,1,1.667,1.307Zm7.668-.636V20.736H62.714v1.355h2.758v7.148h1.439V22.091h2.77Zm6.432,7.148V27.9H72.3V25.641h3.454V24.334H72.3V22.079h3.814V20.736H70.862v8.5h5.253Zm6.024,0H83.77l-1.919-3.5a2.4,2.4,0,0,0,1.919-2.423,2.51,2.51,0,0,0-2.662-2.578H77.845v8.5H79.3V25.881h1.055ZM79.3,24.609v-2.6h1.547a1.31,1.31,0,1,1,0,2.6H79.3Z"/>
</svg>
