<svg xmlns="http://www.w3.org/2000/svg" width="46" height="44" viewBox="0 0 46 44">
  <path data-name="Form 1" d="M31,34H15a0.5,0.5,0,0,1-.5-0.5v-20A0.5,0.5,0,0,1,15,13H31a0.5,0.5,0,0,1,.5.5v20A0.5,0.5,0,0,1,31,34ZM15.5,33h15V14h-15V33ZM27,14H19a0.5,0.5,0,0,1-.5-0.5v-3A0.5,0.5,0,0,1,19,10h8a0.5,0.5,0,0,1,.5.5v3A0.5,0.5,0,0,1,27,14Zm-7.5-1h7V11h-7v2Zm15,1h-22a0.5,0.5,0,0,1,0-1h22A0.5,0.5,0,0,1,34.5,14ZM19,29.5a0.5,0.5,0,0,1-.5-0.5V17a0.5,0.5,0,0,1,1,0V29A0.5,0.5,0,0,1,19,29.5Zm4,0a0.5,0.5,0,0,1-.5-0.5V17a0.5,0.5,0,0,1,1,0V29A0.5,0.5,0,0,1,23,29.5Zm4,0a0.5,0.5,0,0,1-.5-0.5V17a0.5,0.5,0,0,1,1,0V29A0.5,0.5,0,0,1,27,29.5Z"/>
</svg>
