<svg xmlns="http://www.w3.org/2000/svg" width="40" height="40" viewBox="0 0 40 40">
  <path id="Form_1" data-name="Form 1" d="M17.467,10.654A0.813,0.813,0,0,1,18.252,10a0.8,0.8,0,0,1,.784.587s0.027,16.121-5.015,17.187-5.405-6.333-.9-6.253c0,0,1.849-.286,5.026,2.673s6.069,4.249,8.124,4.28a16.294,16.294,0,0,0,2.2-.255c0.854-.191,1.28-0.35,1.486.255,0,0,.4,1.034-1.122,1.3a11.369,11.369,0,0,1-6.638-.668c-3.066-1.48-6.828-6.078-9.009-5.983a1.6,1.6,0,0,0-1.6,1.655c0.016,1.623,1.833,1.48,1.833,1.48S16.882,26.771,17.467,10.654Z"/>
</svg>
