<svg xmlns="http://www.w3.org/2000/svg" width="40" height="40" viewBox="0 0 40 40">
  <path id="Form_1" data-name="Form 1" d="M14.391,23.383a3.415,3.415,0,0,1-.783-0.092,3.376,3.376,0,1,1,3.79-4.8,0.375,0.375,0,1,1-.67.335,2.625,2.625,0,1,0,0,2.347,0.375,0.375,0,1,1,.67.335A3.357,3.357,0,0,1,14.391,23.383Zm11.241-5.63H25.625a0.375,0.375,0,0,1,0-.75h0.007a2.634,2.634,0,1,0-2.351-1.454,0.375,0.375,0,1,1-.67.336A3.378,3.378,0,1,1,25.633,17.753Zm0,11.253a3.372,3.372,0,0,1-3.02-4.883,0.375,0.375,0,1,1,.67.335,2.622,2.622,0,1,0,2.346-1.452h0a0.375,0.375,0,0,1,0-.75h0A3.375,3.375,0,1,1,25.631,29.006Zm-2.685-4.337a0.374,0.374,0,0,1-.168-0.04L16.9,21.683a0.375,0.375,0,0,1-.167-0.5,2.615,2.615,0,0,0,0-2.345,0.375,0.375,0,0,1,.167-0.5l5.882-2.945a0.375,0.375,0,0,1,.5.168A2.608,2.608,0,0,0,25.625,17a0.375,0.375,0,0,1,0,.75h0A3.35,3.35,0,0,1,22.8,16.214l-5.249,2.628a3.375,3.375,0,0,1,0,2.33L22.8,23.8a3.351,3.351,0,0,1,2.828-1.541h0a0.375,0.375,0,0,1,0,.75,2.608,2.608,0,0,0-2.344,1.453,0.375,0.375,0,0,1-.217.188A0.365,0.365,0,0,1,22.947,24.669Z"/>
</svg>
