<svg xmlns="http://www.w3.org/2000/svg" width="24" height="24" viewBox="0 0 24 24">
  <path id="Form_2" data-name="Form 2" d="M12,23c-3.443,0-3.874,0-5.213-.1a7.023,7.023,0,0,1-2.535-.478,4.16,4.16,0,0,1-1.626-1.052,4.538,4.538,0,0,1-1.052-1.626A7.022,7.022,0,0,1,1.1,17.213C1,15.874,1,15.444,1,12s0-3.874.1-5.213a7.023,7.023,0,0,1,.478-2.535A4.16,4.16,0,0,1,2.626,2.626,4.539,4.539,0,0,1,4.252,1.574,7.023,7.023,0,0,1,6.787,1.1C8.174,1,8.557,1,12,1s3.826,0,5.213.1a7.022,7.022,0,0,1,2.535.478,4.16,4.16,0,0,1,1.626,1.052,4.538,4.538,0,0,1,1.052,1.626A7.023,7.023,0,0,1,22.9,6.787C23,8.174,23,8.557,23,12s0,3.826-.1,5.213a7.022,7.022,0,0,1-.478,2.535,4.159,4.159,0,0,1-1.052,1.626,4.537,4.537,0,0,1-1.626,1.052,7.022,7.022,0,0,1-2.535.478C15.874,23,15.444,23,12,23ZM12,1.909c-3.4,0-3.826,0-5.165.1a7.37,7.37,0,0,0-2.248.383,4.932,4.932,0,0,0-1.339.861,4.932,4.932,0,0,0-.861,1.339,8.645,8.645,0,0,0-.43,2.248C1.909,8.174,1.909,8.557,1.909,12s0,3.826.1,5.165a5.843,5.843,0,0,0,.43,2.248A3.387,3.387,0,0,0,3.3,20.752a3.083,3.083,0,0,0,1.339.861,8.646,8.646,0,0,0,2.248.431c1.339,0.048,1.77.1,5.165,0.1,3.444,0,3.826,0,5.165-.1a5.844,5.844,0,0,0,2.248-.431,3.386,3.386,0,0,0,1.339-.861,3.083,3.083,0,0,0,.861-1.339,8.646,8.646,0,0,0,.43-2.248c0.048-1.339.1-1.769,0.1-5.165s0-3.826-.1-5.165a5.844,5.844,0,0,0-.43-2.248A3.387,3.387,0,0,0,20.8,3.248a3.083,3.083,0,0,0-1.339-.861,8.646,8.646,0,0,0-2.248-.43C15.826,1.909,15.4,1.909,12,1.909Zm6.456,2.678a0.957,0.957,0,1,1-.956.957A0.956,0.956,0,0,1,18.457,4.587ZM12,17.261A5.261,5.261,0,1,1,17.261,12,5.246,5.246,0,0,1,12,17.261ZM12,7.6A4.4,4.4,0,1,0,16.4,12,4.388,4.388,0,0,0,12,7.6Z"/>
</svg>
