<svg xmlns="http://www.w3.org/2000/svg" width="40" height="40" viewBox="0 0 40 40">
  <path id="Form_1" data-name="Form 1" d="M19.5,30a0.5,0.5,0,0,1-.224-0.053A7.687,7.687,0,0,1,15,23.037V14.519a0.5,0.5,0,0,1,1,0v8.518a6.693,6.693,0,0,0,3.724,6.018A0.5,0.5,0,0,1,19.5,30ZM30,21.012H29.5a0.5,0.5,0,0,1-.5-0.5v-4a0.5,0.5,0,0,1,.5-0.5H30a2,2,0,0,1,2,2v1A2,2,0,0,1,30,21.012Zm0-1h0Zm0-3v3a1,1,0,0,0,1-1v-1A1,1,0,0,0,30,17.016ZM29.5,27a0.5,0.5,0,0,1-.207-0.045l-0.923-.422A32.294,32.294,0,0,0,12.5,23.009h-1a3.5,3.5,0,0,1-3.5-3.5v-2a3.5,3.5,0,0,1,3.5-3.5h1a32.279,32.279,0,0,0,15.865-3.526l0.928-.424a0.5,0.5,0,0,1,.707.455V26.505A0.5,0.5,0,0,1,29.5,27Zm-18-11.986a2.5,2.5,0,0,0-2.5,2.5v2a2.5,2.5,0,0,0,2.5,2.5h1c8.409,0,12.236,1.758,16.288,3.62L29,25.727V11.3l-0.217.1c-4.05,1.86-7.874,3.617-16.283,3.617h-1Z"/>
</svg>
