<svg xmlns="http://www.w3.org/2000/svg" width="24" height="24" viewBox="0 0 24 24">
  <path id="Form_1" data-name="Form 1" d="M12,0A12,12,0,1,0,24,12,12.035,12.035,0,0,0,12,0ZM23,12.25a24.858,24.858,0,0,0-3.3-.2,24.549,24.549,0,0,0-4.7.45,22.346,22.346,0,0,0-1.35-2.95,23.629,23.629,0,0,0,6.9-4.45A11.044,11.044,0,0,1,23,12v0.25ZM19.85,4.3a22.222,22.222,0,0,1-6.7,4.3A24.2,24.2,0,0,0,7.4,1.95a10.8,10.8,0,0,1,4.55-1A11.351,11.351,0,0,1,19.85,4.3ZM6.45,2.5A23.623,23.623,0,0,1,12.2,9,22.71,22.71,0,0,1,4,10.5a18.211,18.211,0,0,1-2.85-.2A11.006,11.006,0,0,1,6.45,2.5ZM1,11.3a20.161,20.161,0,0,0,3,.2,24.4,24.4,0,0,0,8.7-1.6,19.947,19.947,0,0,1,1.25,2.8,24.25,24.25,0,0,0-10.8,5.8A10.9,10.9,0,0,1,1,12V11.3Zm2.75,7.95a23.036,23.036,0,0,1,10.55-5.6A22.65,22.65,0,0,1,15.5,21a14.051,14.051,0,0,1-.05,1.45A11.325,11.325,0,0,1,12,23,10.892,10.892,0,0,1,3.75,19.25Zm12.75,2.8V21a23.867,23.867,0,0,0-1.2-7.55,25.714,25.714,0,0,1,4.4-.4c1,0,2.2.1,3.25,0.2A11.056,11.056,0,0,1,16.5,22.05Z"/>
</svg>
