<svg xmlns="http://www.w3.org/2000/svg" width="40" height="40" viewBox="0 0 40 40">
  <path id="Form_3" data-name="Form 3" d="M28.5,29h-17a0.5,0.5,0,0,1-.5-0.5v-17a0.5,0.5,0,0,1,.5-0.5h17a0.5,0.5,0,0,1,.5.5v17A0.5,0.5,0,0,1,28.5,29ZM12,28H28V12H12V28Zm14.568-3.427a0.5,0.5,0,0,1-.447-0.276l-3.832-7.665-2.627,4.6a0.5,0.5,0,0,1-.788.105l-1.88-1.88-3.142,4.888a0.5,0.5,0,0,1-.842-0.541l3.478-5.409a0.5,0.5,0,0,1,.367-0.227,0.493,0.493,0,0,1,.407.144l1.856,1.855,2.766-4.841a0.5,0.5,0,0,1,.882.024l4.25,8.5A0.5,0.5,0,0,1,26.568,24.573ZM17.3,17.551a1.978,1.978,0,1,1,1.977-1.978A1.981,1.981,0,0,1,17.3,17.551Zm0-2.957a0.978,0.978,0,1,0,.977.979A0.979,0.979,0,0,0,17.3,14.594Zm11.2,9.979h-17a0.5,0.5,0,0,1,0-1h17A0.5,0.5,0,0,1,28.5,24.573Z"/>
</svg>
