<?xml version="1.0" encoding="utf-8"?>
<!-- Generator: Adobe Illustrator 18.1.0, SVG Export Plug-In . SVG Version: 6.00 Build 0)  -->
<svg version="1.1" id="Layer_1" xmlns="http://www.w3.org/2000/svg" xmlns:xlink="http://www.w3.org/1999/xlink" x="0px" y="0px"
	 width="40px" height="40px" viewBox="-277 400.9 40 40" enable-background="new -277 400.9 40 40" xml:space="preserve">
<g>
	<path d="M-249,430.9h-16c-1.1,0-2-0.9-2-1.9v-11.6c0-0.3,0.2-0.5,0.5-0.5h19c0.3,0,0.5,0.2,0.5,0.5V429
		C-247,430-247.9,430.9-249,430.9z M-266,417.9V429c0,0.5,0.4,0.9,1,0.9h16c0.6,0,1-0.4,1-0.9v-11.1H-266z"/>
	<path d="M-260,427.8c-0.1,0-0.2,0-0.3-0.1c-0.2-0.1-0.2-0.3-0.2-0.4v-6.9c0-0.2,0.1-0.3,0.2-0.4c0.2-0.1,0.3-0.1,0.5,0l6,3.4
		c0.2,0.1,0.3,0.3,0.3,0.4s-0.1,0.3-0.3,0.4l-6,3.4C-259.8,427.8-259.9,427.8-260,427.8z M-259.5,421.3v5.1l4.5-2.6L-259.5,421.3z"
		/>
	<path d="M-248.5,410.9h-16.9c-0.9,0-1.5,0.7-1.5,1.5v3c0,0.3,0.2,0.5,0.5,0.5h19c0.3,0,0.5-0.2,0.5-0.5v-3
		C-247,411.6-247.7,410.9-248.5,410.9z M-257.7,411.9h3.3l-3,3h-3.3L-257.7,411.9z M-262.2,414.9h-3.5l3-3h3.5L-262.2,414.9z
		 M-253,411.9h3.6l-3,3h-3.6L-253,411.9z M-265.5,411.9h1.3l-1.9,1.9v-1.4C-266,412.1-265.8,411.9-265.5,411.9z M-248,414.9h-3
		l2.8-2.8c0.1,0.1,0.2,0.2,0.2,0.3V414.9z"/>
</g>
</svg>
