<?xml version="1.0" encoding="utf-8"?>
<!-- Generator: Adobe Illustrator 18.1.0, SVG Export Plug-In . SVG Version: 6.00 Build 0)  -->
<svg version="1.1" id="Layer_1" xmlns="http://www.w3.org/2000/svg" xmlns:xlink="http://www.w3.org/1999/xlink" x="0px" y="0px"
	 width="40px" height="40px" viewBox="-277 400.9 40 40" enable-background="new -277 400.9 40 40" xml:space="preserve">
<g>
	<path d="M-252,431.4h-7c-0.2,0-0.3-0.1-0.4-0.2l-4-6c-0.4-0.6-0.6-1.5-0.2-2.1c0.2-0.4,0.6-0.6,1.1-0.6c1.1,0,2,0.4,3.5,2.4v-8.4
		c0-1.1,0.9-2,2-2s2,0.9,2,2v4.7l3.2,1.4c1.3,0.4,1.6,1.9,1.3,3.1l-1,5.5C-251.6,431.2-251.8,431.4-252,431.4z M-258.7,430.4h6.3
		l0.9-5.1c0.2-0.8,0-1.7-0.7-1.9l-3.5-1.5c-0.2-0.1-0.3-0.3-0.3-0.5v-5c0-0.6-0.4-1-1-1c-0.5,0-1,0.5-1,1v10c0,0.2-0.1,0.4-0.4,0.5
		c-0.2,0.1-0.4,0-0.6-0.2c-2-3-2.8-3.3-3.6-3.3c-0.2,0-0.2,0.1-0.2,0.1c-0.1,0.2-0.1,0.8,0.2,1.1L-258.7,430.4z"/>
	<path d="M-251.5,421.4h-1.5v-1h1.5c1.4,0,2.5-1.1,2.5-2.5v-4c0-1.4-1.1-2.5-2.5-2.5h-11c-1.4,0-2.5,1.1-2.5,2.5v4
		c0,1.4,1.1,2.5,2.5,2.5h1.5v1h-1.5c-1.9,0-3.5-1.6-3.5-3.5v-4c0-1.9,1.6-3.5,3.5-3.5h11c1.9,0,3.5,1.6,3.5,3.5v4
		C-248,419.8-249.6,421.4-251.5,421.4z"/>
</g>
</svg>
