<?xml version="1.0" encoding="utf-8"?>
<!-- Generator: Adobe Illustrator 18.1.0, SVG Export Plug-In . SVG Version: 6.00 Build 0)  -->
<svg version="1.1" id="Layer_1" xmlns="http://www.w3.org/2000/svg" xmlns:xlink="http://www.w3.org/1999/xlink" x="0px" y="0px"
	 width="40px" height="40px" viewBox="-277 400.9 40 40" enable-background="new -277 400.9 40 40" xml:space="preserve">
<g>
	<path d="M-246.5,415.9c-0.3,0-0.5,0.2-0.5,0.5v14.5h-14.5c-0.3,0-0.5,0.2-0.5,0.5s0.2,0.5,0.5,0.5h15c0.3,0,0.5-0.2,0.5-0.5v-15
		C-246,416.1-246.2,415.9-246.5,415.9z"/>
	<path d="M-248,429.4v-16c0-0.3-0.2-0.5-0.5-0.5s-0.5,0.2-0.5,0.5v15.5h-15.5c-0.3,0-0.5,0.2-0.5,0.5s0.2,0.5,0.5,0.5h16
		C-248.2,429.9-248,429.7-248,429.4z"/>
	<path d="M-250,427.4v-17c0-0.3-0.2-0.5-0.5-0.5h-17c-0.3,0-0.5,0.2-0.5,0.5v17c0,0.3,0.2,0.5,0.5,0.5h17
		C-250.2,427.9-250,427.7-250,427.4z M-251,410.9v12h-0.4l-4.6-9.2c-0.1-0.2-0.2-0.3-0.4-0.3c-0.2,0-0.4,0.1-0.4,0.3l-3.1,5.5
		l-2.1-2.1c-0.1-0.1-0.3-0.2-0.4-0.1c-0.2,0-0.3,0.1-0.4,0.2l-3.7,5.8h-0.4v-12H-251z M-252.5,422.9h-13l3.1-4.8l2.2,2.2
		c0.1,0.1,0.3,0.2,0.4,0.1c0.2,0,0.3-0.1,0.4-0.2l3-5.2L-252.5,422.9z M-267,426.9v-3h16v3H-267z"/>
	<path d="M-262,415.9c1.1,0,2-0.9,2-2s-0.9-2-2-2s-2,0.9-2,2S-263.1,415.9-262,415.9z M-262,412.9c0.6,0,1,0.4,1,1s-0.4,1-1,1
		s-1-0.4-1-1S-262.6,412.9-262,412.9z"/>
</g>
</svg>
