<svg xmlns="http://www.w3.org/2000/svg" width="24" height="24" viewBox="0 0 24 24">
  <path id="Form_1" data-name="Form 1" class="ep-mailchimp-bright" d="M17.3,11.34a2,2,0,0,1,.506,0,1.674,1.674,0,0,0,.025-0.942c-0.121-.571-0.286-0.917-0.625-0.863s-0.352.468-.231,1.039A1.914,1.914,0,0,0,17.3,11.34Zm-2.914.452a0.573,0.573,0,0,0,.451.114,0.172,0.172,0,0,0-.032-0.2,1.422,1.422,0,0,0-.628-0.5,1.737,1.737,0,0,0-1.665.2,0.574,0.574,0,0,0-.294.378,0.088,0.088,0,0,0,.088.064,10.544,10.544,0,0,1,1.141-.25A2.016,2.016,0,0,1,14.387,11.792Zm-0.489.274a1.155,1.155,0,0,0-.6.247,0.379,0.379,0,0,0-.154.237,0.071,0.071,0,0,0,.024.057,0.077,0.077,0,0,0,.052.019,0.979,0.979,0,0,0,.232-0.063,2.047,2.047,0,0,1,1.018-.1,0.282,0.282,0,0,0,.269-0.026,0.087,0.087,0,0,0-.009-0.1A0.929,0.929,0,0,0,13.9,12.066Zm2.419,1.006a0.393,0.393,0,0,0,.528-0.091,0.381,0.381,0,0,0-.249-0.467,0.393,0.393,0,0,0-.528.091A0.381,0.381,0,0,0,16.317,13.073ZM17.7,11.886a0.445,0.445,0,1,0,.309.431A0.384,0.384,0,0,0,17.7,11.886ZM5.977,16.13a0.172,0.172,0,0,0-.184-0.021,0.664,0.664,0,0,1-.163.023,0.355,0.355,0,0,1-.3-0.149,0.536,0.536,0,0,1,.013-0.5c0.012-.028.026-0.058,0.041-0.092A1.468,1.468,0,0,0,5.5,14.068a1.178,1.178,0,0,0-1.91-.295,1.4,1.4,0,0,0-.372,1.19,0.13,0.13,0,0,0,.1.1,0.241,0.241,0,0,0,.224-0.2c0-.012.01-0.03,0.017-0.052a1.568,1.568,0,0,1,.16-0.37,0.685,0.685,0,0,1,.437-0.3,0.711,0.711,0,0,1,.534.1,0.667,0.667,0,0,1,.259.811,1.864,1.864,0,0,0-.135.721,0.721,0.721,0,0,0,.65.739,0.558,0.558,0,0,0,.524-0.257A0.109,0.109,0,0,0,5.977,16.13ZM22.1,15.194c-0.011-.037-0.08-0.286-0.175-0.586a4.7,4.7,0,0,0-.194-0.511,1.829,1.829,0,0,0,.338-1.35,1.7,1.7,0,0,0-.5-0.965,4.129,4.129,0,0,0-1.783-.868l-0.454-.124c0-.018-0.024-1.053-0.044-1.5a5.052,5.052,0,0,0-.2-1.316,3.509,3.509,0,0,0-.927-1.627,5.5,5.5,0,0,0,1.835-3.513c0-2.1-2.62-2.729-5.844-1.416l-0.683.285S12.23,0.515,12.212.5C8.535-2.655-2.959,9.911.716,12.963l0.8,0.669A3.823,3.823,0,0,0,1.3,15.425a3.515,3.515,0,0,0,1.24,2.267,3.808,3.808,0,0,0,2.434.964A9.328,9.328,0,0,0,13.5,24c4.11,0.12,7.56-1.776,9.005-5.183a7.05,7.05,0,0,0,.5-2.268A1.164,1.164,0,0,0,22.1,15.194ZM5.286,17.745a2.019,2.019,0,0,1-.381.026A2.947,2.947,0,0,1,2.19,15.336a2.411,2.411,0,0,1,1.926-2.812,2.3,2.3,0,0,1,.556-0.039,2.346,2.346,0,0,1,2.087,2.192C6.981,16.086,6.629,17.52,5.286,17.745ZM3.9,11.662a3.166,3.166,0,0,0-2,1.253,5.39,5.39,0,0,1-.848-0.8c-0.71-1.326.775-3.9,1.812-5.359C5.429,3.155,9.444.432,11.3,0.926a7.243,7.243,0,0,1,1.3,1.225,26.206,26.206,0,0,0-3.58,2.427A16,16,0,0,0,3.9,11.662Zm13.029,5.545a0.072,0.072,0,0,0,.043-0.072,0.068,0.068,0,0,0-.075-0.06,8.832,8.832,0,0,1-3.781-.378c0.2-.64.732-0.409,1.536-0.345a11.414,11.414,0,0,0,3.709-.394A8.559,8.559,0,0,0,21.133,14.6a5.422,5.422,0,0,1,.387,1.3,0.653,0.653,0,0,1,.407.073,0.781,0.781,0,0,1,.216.9,4.928,4.928,0,0,1-1.411,2.72,5.8,5.8,0,0,1-1.694,1.245,7.226,7.226,0,0,1-1.106.46c-2.912.935-5.892-.093-6.853-2.3a3.512,3.512,0,0,1-.193-0.522,4.523,4.523,0,0,1,1.025-4.3h0a0.387,0.387,0,0,0,.135-0.256,0.448,0.448,0,0,0-.1-0.243c-0.38-.542-1.7-1.466-1.433-3.255a2.464,2.464,0,0,1,2.4-2.136L13.176,8.3c0.462,0.027.864,0.085,1.244,0.1a2.515,2.515,0,0,0,1.885-.619,1.467,1.467,0,0,1,.722-0.4A0.9,0.9,0,0,1,17.3,7.35a0.921,0.921,0,0,1,.464.146,2.318,2.318,0,0,1,.648,1.846c0.016,0.359.06,1.229,0.075,1.479a0.629,0.629,0,0,0,.5.751c0.174,0.056.335,0.1,0.572,0.164a3.251,3.251,0,0,1,1.414.659,0.869,0.869,0,0,1,.258.5c0.085,0.608-.48,1.359-1.975,2.042a10.188,10.188,0,0,1-4.987.785l-0.48-.053a1.352,1.352,0,0,0-1.063,2.2,3.521,3.521,0,0,0,2.733,1.015A7.264,7.264,0,0,0,20.9,16.809a1,1,0,0,0,.061-0.085c0.037-.055.007-0.086-0.04-0.054a9.493,9.493,0,0,1-6.306,1.572,3.969,3.969,0,0,1-.683-0.183,1.216,1.216,0,0,1-.867-0.892A5.822,5.822,0,0,0,16.929,17.207Zm-3.758-.436h0v0ZM8.633,6.737A10.792,10.792,0,0,1,11.671,4.3a0.039,0.039,0,0,1,.053.053,2.852,2.852,0,0,0-.282.677,0.041,0.041,0,0,0,.063.042,5.981,5.981,0,0,1,2.666-.926,0.041,0.041,0,0,1,.028.074,2.248,2.248,0,0,0-.419.414,0.04,0.04,0,0,0,.032.064,5.293,5.293,0,0,1,2.229.575,0.052,0.052,0,0,1-.035.092,9.223,9.223,0,0,0-4.038.011A9.355,9.355,0,0,0,8.689,6.8,0.041,0.041,0,0,1,8.633,6.737Z"/>
    <path id="Form_1" data-name="Form 1" class="ep-mailchimp-dark" d="M5.4,12.016a2.075,2.075,0,0,0-.511.036,2.247,2.247,0,0,0-1.769,2.624,2.721,2.721,0,0,0,2.493,2.272,1.824,1.824,0,0,0,.349-0.024c1.233-.21,1.556-1.549,1.353-2.863A2.17,2.17,0,0,0,5.4,12.016Zm1.208,3.517a0.51,0.51,0,0,1-.481.239,0.668,0.668,0,0,1-.6-0.689,1.764,1.764,0,0,1,.124-0.673,0.628,0.628,0,0,0-.238-0.757,0.644,0.644,0,0,0-.491-0.091,0.63,0.63,0,0,0-.4.277,1.477,1.477,0,0,0-.147.346c-0.007.021-.012,0.038-0.016,0.049a0.222,0.222,0,0,1-.205.186,0.12,0.12,0,0,1-.093-0.092,1.32,1.32,0,0,1,.341-1.11,1.073,1.073,0,0,1,.919-0.331,1.09,1.09,0,0,1,.834.607,1.389,1.389,0,0,1-.1,1.23c-0.014.031-.027,0.06-0.038,0.086a0.508,0.508,0,0,0-.012.47,0.324,0.324,0,0,0,.274.139A0.6,0.6,0,0,0,6.433,15.4a0.156,0.156,0,0,1,.169.02A0.1,0.1,0,0,1,6.612,15.533ZM22.55,14.342a1.675,1.675,0,0,0-.5-0.418L22,13.763c-0.02-.065-0.04-0.125-0.06-0.182a2.43,2.43,0,0,0,.218-1.447,2.366,2.366,0,0,0-.671-1.317,4.4,4.4,0,0,0-1.851-.984C19.626,9.541,19.617,9.21,19.608,9a5.6,5.6,0,0,0-.216-1.417,4.555,4.555,0,0,0-.568-1.271,5.375,5.375,0,0,0,1.435-3.3c0-1.669-1.3-2.747-3.312-2.747a8.422,8.422,0,0,0-3.147.7l-0.147.062C13.317,0.7,12.874.263,12.844,0.238a2.751,2.751,0,0,0-1.865-.664A6.137,6.137,0,0,0,8,.533,16.108,16.108,0,0,0,5.044,2.8,17.6,17.6,0,0,0,.719,8.922a5.451,5.451,0,0,0-.385,2.224,2.687,2.687,0,0,0,.927,1.918L1.6,13.354a4.549,4.549,0,0,0-.085,1.485,4.08,4.08,0,0,0,1.4,2.627,4.358,4.358,0,0,0,2.238,1.06,8.8,8.8,0,0,0,3.187,3.5,10.182,10.182,0,0,0,5.14,1.519c0.12,0,.241.005,0.36,0.005h0a10.152,10.152,0,0,0,5.249-1.378,8.328,8.328,0,0,0,3.41-3.949l0.007-.018a7.363,7.363,0,0,0,.509-2.4A2.255,2.255,0,0,0,22.55,14.342Zm-0.774,3.579c-1.327,3.179-4.495,4.949-8.268,4.837a8.555,8.555,0,0,1-7.831-4.984,3.465,3.465,0,0,1-2.234-.9A3.3,3.3,0,0,1,2.3,14.76a3.621,3.621,0,0,1,.205-1.673l-0.737-.624C-1.6,9.614,8.95-2.111,12.326.832c0.017,0.015,1.148,1.124,1.151,1.127L14.1,1.693c2.96-1.225,5.363-.634,5.366,1.322a5.157,5.157,0,0,1-1.685,3.278,3.287,3.287,0,0,1,.851,1.518,4.783,4.783,0,0,1,.184,1.228c0.018,0.414.038,1.38,0.04,1.4l0.417,0.116a3.768,3.768,0,0,1,1.637.81,1.594,1.594,0,0,1,.463.9,1.729,1.729,0,0,1-.31,1.259,4.43,4.43,0,0,1,.178.477c0.087,0.28.151,0.512,0.161,0.547a1.083,1.083,0,0,1,.826,1.261A6.666,6.666,0,0,1,21.775,17.922Zm-0.53-2.651a0.592,0.592,0,0,0-.373-0.068,5.123,5.123,0,0,0-.356-1.212,7.8,7.8,0,0,1-2.546,1.266,10.316,10.316,0,0,1-3.4.368c-0.738-.059-1.227-0.275-1.41.322a7.984,7.984,0,0,0,3.472.353,0.063,0.063,0,0,1,.069.056,0.067,0.067,0,0,1-.039.067,5.265,5.265,0,0,1-3.549-.037,1.125,1.125,0,0,0,.8.832,3.6,3.6,0,0,0,.627.17,8.613,8.613,0,0,0,5.79-1.467c0.043-.029.071,0,0.037,0.051a0.949,0.949,0,0,1-.056.079,6.616,6.616,0,0,1-5,1.934,3.2,3.2,0,0,1-2.51-.948,1.263,1.263,0,0,1,.976-2.055l0.441,0.05a9.218,9.218,0,0,0,4.579-.732c1.373-.637,1.891-1.338,1.814-1.905a0.816,0.816,0,0,0-.237-0.464,2.964,2.964,0,0,0-1.3-.614c-0.218-.061-0.366-0.1-0.525-0.153a0.586,0.586,0,0,1-.455-0.7c-0.014-.233-0.055-1.044-0.069-1.38a2.184,2.184,0,0,0-.6-1.722A0.836,0.836,0,0,0,17,7.224a0.81,0.81,0,0,0-.253.025,1.341,1.341,0,0,0-.663.374,2.285,2.285,0,0,1-1.731.578C14,8.187,13.635,8.132,13.211,8.107l-0.248-.014a2.275,2.275,0,0,0-2.2,1.993c-0.243,1.669.966,2.531,1.315,3.037a0.422,0.422,0,0,1,.1.227,0.363,0.363,0,0,1-.124.239h0a4.271,4.271,0,0,0-.941,4.012,3.318,3.318,0,0,0,.177.487c0.882,2.061,3.619,3.02,6.292,2.147a6.57,6.57,0,0,0,1.016-.429,5.335,5.335,0,0,0,1.555-1.162,4.623,4.623,0,0,0,1.3-2.538A0.736,0.736,0,0,0,21.245,15.271Zm-3.6-3.411a0.3,0.3,0,1,1-.283-0.4A0.357,0.357,0,0,1,17.646,11.86Zm-0.735-2.6c0.312-.05.463,0.272,0.574,0.806a1.587,1.587,0,0,1-.023.879,1.806,1.806,0,0,0-.464,0,1.8,1.8,0,0,1-.3-0.715C16.588,9.7,16.6,9.313,16.911,9.263Zm-1.046,2.866a0.418,0.418,0,1,1,.229.436A0.357,0.357,0,0,1,15.865,12.129Zm-1.222-.161a0.256,0.256,0,0,1-.247.025,1.85,1.85,0,0,0-.935.1,0.886,0.886,0,0,1-.213.059A0.07,0.07,0,0,1,13.2,12.13a0.067,0.067,0,0,1-.022-0.053,0.355,0.355,0,0,1,.142-0.221,1.052,1.052,0,0,1,.553-0.231,0.845,0.845,0,0,1,.761.249A0.082,0.082,0,0,1,14.643,11.968Zm-2.231-.55a0.082,0.082,0,0,1-.081-0.059,0.535,0.535,0,0,1,.27-0.353,1.573,1.573,0,0,1,1.529-.184,1.31,1.31,0,0,1,.577.464,0.162,0.162,0,0,1,.029.19,0.519,0.519,0,0,1-.414-0.106,1.825,1.825,0,0,0-.862-0.186A9.537,9.537,0,0,0,12.412,11.418Zm3.4-6.049a0.048,0.048,0,0,0,.032-0.086,4.8,4.8,0,0,0-2.047-.536,0.037,0.037,0,0,1-.029-0.06A2.087,2.087,0,0,1,14.15,4.3a0.039,0.039,0,0,0-.026-0.069,5.435,5.435,0,0,0-2.448.864,0.038,0.038,0,0,1-.058-0.04,2.688,2.688,0,0,1,.259-0.632,0.036,0.036,0,0,0-.048-0.05A9.938,9.938,0,0,0,9.04,6.653a0.038,0.038,0,0,0,.051.056A8.521,8.521,0,0,1,12.1,5.379,8.336,8.336,0,0,1,15.809,5.369Zm-3.123-3a6.7,6.7,0,0,0-1.2-1.143C9.784,0.77,6.1,3.31,3.745,6.667c-0.952,1.358-2.315,3.763-1.663,5a4.988,4.988,0,0,0,.779.751,2.9,2.9,0,0,1,1.833-1.169A14.917,14.917,0,0,1,9.4,4.638,24.031,24.031,0,0,1,12.686,2.374Z"/>
</svg>
