<svg xmlns="http://www.w3.org/2000/svg" width="19" height="19" viewBox="0 0 19 19">
  <path id="Form_1" data-name="Form 1" d="M4.5,6h-4A0.5,0.5,0,0,1,0,5.5v-5A0.5,0.5,0,0,1,.5,0h4A0.5,0.5,0,0,1,5,.5v5A0.5,0.5,0,0,1,4.5,6ZM1,5H4V1H1V5ZM4.5,19h-4A0.5,0.5,0,0,1,0,18.5V8.5A0.5,0.5,0,0,1,.5,8h4a0.5,0.5,0,0,1,.5.5v10A0.5,0.5,0,0,1,4.5,19ZM1,18H4V9H1v9Zm10.5,1h-4A0.5,0.5,0,0,1,7,18.5v-6A0.5,0.5,0,0,1,7.5,12h4a0.5,0.5,0,0,1,.5.5v6A0.5,0.5,0,0,1,11.5,19ZM8,18h3V13H8v5Zm3.5-8h-4A0.5,0.5,0,0,1,7,9.5v-9A0.5,0.5,0,0,1,7.5,0h4a0.5,0.5,0,0,1,.5.5v9A0.5,0.5,0,0,1,11.5,10ZM8,9h3V1H8V9ZM18.5,6h-4A0.5,0.5,0,0,1,14,5.5v-5A0.5,0.5,0,0,1,14.5,0h4a0.5,0.5,0,0,1,.5.5v5A0.5,0.5,0,0,1,18.5,6ZM15,5h3V1H15V5Zm3.5,14h-4a0.5,0.5,0,0,1-.5-0.5V8.5A0.5,0.5,0,0,1,14.5,8h4a0.5,0.5,0,0,1,.5.5v10A0.5,0.5,0,0,1,18.5,19ZM15,18h3V9H15v9Z"/>
</svg>
