<?xml version="1.0" encoding="utf-8"?>
<!-- Generator: Adobe Illustrator 18.1.0, SVG Export Plug-In . SVG Version: 6.00 Build 0)  -->
<svg version="1.1" id="Layer_1" xmlns="http://www.w3.org/2000/svg" xmlns:xlink="http://www.w3.org/1999/xlink" x="0px" y="0px"
	 width="40px" height="40px" viewBox="-277 400.9 40 40" enable-background="new -277 400.9 40 40" xml:space="preserve">
<g>
	<path d="M-247,421.4h-20c-0.3,0-0.5-0.2-0.5-0.5s0.2-0.5,0.5-0.5h20c0.3,0,0.5,0.2,0.5,0.5S-246.7,421.4-247,421.4z"/>
	<g>
		<path d="M-252,417.4c-0.1,0-0.3,0-0.4-0.1l-4.6-4.6l-4.6,4.6c-0.2,0.2-0.5,0.2-0.7,0s-0.2-0.5,0-0.7l5-5c0.2-0.2,0.5-0.2,0.7,0
			l5,5c0.2,0.2,0.2,0.5,0,0.7C-251.7,417.3-251.9,417.4-252,417.4z"/>
		<path d="M-257,430.4c-0.1,0-0.3,0-0.4-0.1l-5-5c-0.2-0.2-0.2-0.5,0-0.7s0.5-0.2,0.7,0l4.6,4.6l4.6-4.6c0.2-0.2,0.5-0.2,0.7,0
			s0.2,0.5,0,0.7l-5,5C-256.7,430.3-256.9,430.4-257,430.4z"/>
	</g>
</g>
</svg>
