<svg version="1.1" id="Layer_1" xmlns="http://www.w3.org/2000/svg" xmlns:xlink="http://www.w3.org/1999/xlink" x="0px" y="0px"
	 width="40px" height="40px" viewBox="-277 400.9 40 40" enable-background="new -277 400.9 40 40" xml:space="preserve">
<g>
	<path d="M-248,416.4c0-0.1,0-0.3-0.1-0.4l-5-5c-0.1-0.1-0.2-0.1-0.3-0.1v0h-12.1c-0.3,0-0.5,0.2-0.5,0.5v19c0,0.3,0.2,0.5,0.5,0.5
		h17c0.3,0,0.5-0.2,0.5-0.5L-248,416.4L-248,416.4z M-253,412.6l3.3,3.3h-3.3V412.6z M-249,429.9h-16v-18h11v4.5
		c0,0.3,0.2,0.5,0.5,0.5h4.5V429.9z"/>
	<path d="M-253.8,420.7l2.6,2.6l-2.6,2.6c-0.2,0.2-0.2,0.5,0,0.7c0.1,0.1,0.2,0.1,0.4,0.1s0.3,0,0.4-0.1l3-3
		c0.1-0.1,0.1-0.2,0.1-0.4s-0.1-0.3-0.1-0.4l-3-3c-0.2-0.2-0.5-0.2-0.7,0S-254,420.5-253.8,420.7z"/>
	<path d="M-260.1,420c-0.2-0.2-0.5-0.2-0.7,0l-3,3c-0.1,0.1-0.1,0.2-0.1,0.4s0.1,0.3,0.1,0.4l3,3c0.1,0.1,0.2,0.1,0.4,0.1
		s0.3,0,0.4-0.1c0.2-0.2,0.2-0.5,0-0.7l-2.6-2.6l2.6-2.6C-260,420.5-260,420.2-260.1,420z"/>
</g>
</svg>