<svg xmlns="http://www.w3.org/2000/svg" width="120" height="140" viewBox="0 0 120 140">
<defs>
    <style>
      .exit-button-icon-1 {
        fill: #fff;
        fill-rule: evenodd;
      }
    </style>
  </defs>
  <path id="_" data-name="&lt;" class="exit-button-icon-1" d="M45.5,107h-19.7l7.3,7.111a0.489,0.489,0,0,1,.006.693l-0.006,0a0.521,0.521,0,0,1-.722,0l-8.17-7.96a0.487,0.487,0,0,1-.006-0.692l0.006-.006,8.17-7.959a0.521,0.521,0,0,1,.722,0,0.488,0.488,0,0,1,.006.693l-0.006.006-7.3,7.11H45.5a0.5,0.5,0,1,1,0,1v0Z"/>
  <path id="exit" class="exit-button-icon-1" d="M71.3,110.82v-1.406H67.454v-2.362h3.479v-1.369H67.454v-2.361H71.3v-1.407H66v8.9H71.3v0Zm10.174-8.9h-1.7l-2,3.262-1.993-3.266H74.03l2.84,4.446-2.864,4.459h1.7l2.015-3.253,1.993,3.253h1.74l-2.838-4.446Zm4.5,8.9v-8.9H84.5v8.9h1.471Zm10.018-7.485v-1.42H88.971v1.42h2.778v7.485H93.2v-7.485h2.787Z"/>
  <path id="adler" class="exit-button-icon-1" d="M38.013,28.526l1.4-2.338s-1.4-.649-1.5.774a0.741,0.741,0,0,1-.727.784,0.648,0.648,0,1,1,.008-1.3,0.633,0.633,0,0,1,.136.014,0.515,0.515,0,0,0-.765-0.625A0.815,0.815,0,0,0,36.1,25a0.744,0.744,0,0,0-.465.838,0.515,0.515,0,0,0-.764.625,0.633,0.633,0,0,1,.136-0.014,0.648,0.648,0,1,1,.008,1.3,0.741,0.741,0,0,1-.727-0.784,1.064,1.064,0,0,0-1.56-.876l1.459,2.441h3.825Zm8.792,7.824a2.144,2.144,0,0,0,2.172-2.021,5.093,5.093,0,0,1-4.3-1.038,4.126,4.126,0,0,0,3.1,0,2.267,2.267,0,0,0,1.167-2.2C45.762,32.112,44.611,31,44.611,31a3.714,3.714,0,0,0,2.375-.378,1.663,1.663,0,0,0,.836-2.195c-2.408,1.115-3.5.551-3.5,0.551a2.342,2.342,0,0,0,1.9-1.36,1.58,1.58,0,0,0-.35-1.842c-1.211,1.769-3.139,1.513-4.448,2.257-0.869.494-.078,1.4-0.078,1.4,0.845-.314,1.6.62,1.6,2.012a3.148,3.148,0,0,1-3.393,3.083c-1.775,0-2.557-.762-2.557-2.562,0-.753.185-1.047,0.747-1.047a0.9,0.9,0,0,1,.786.407,2.154,2.154,0,0,0,.338-1.143,1.091,1.091,0,0,0-1.348-1.075h-3.63a1.135,1.135,0,0,0,.674,1.181s-0.169,1.371-.366,2.881a1.584,1.584,0,0,1-1.765,1.358,3.164,3.164,0,0,1-3.4-3.083c0-1.184.647-2.352,1.6-2.012a0.878,0.878,0,0,0-.01-1.361c-0.988-.7-3.351-0.507-4.515-2.3a1.58,1.58,0,0,0-.35,1.842,2.342,2.342,0,0,0,1.9,1.36s-1.092.563-3.5-.551a1.663,1.663,0,0,0,.837,2.195A3.714,3.714,0,0,0,27.368,31s-1.151,1.115-4.342.086a2.267,2.267,0,0,0,1.167,2.2,4.126,4.126,0,0,0,3.1,0A5.092,5.092,0,0,1,23,34.329a2.144,2.144,0,0,0,2.172,2.021,4.644,4.644,0,0,0,3.178-1s-0.444,1.661-4.506,2.216A3.024,3.024,0,0,0,27.334,38.7a5.128,5.128,0,0,0,2.647-1.848s-0.673,2.1-4.137,3.379c0,0,1.08,1.2,3.389.257a5.557,5.557,0,0,0,2.759-2.727,7.039,7.039,0,0,1-1.94,3.511,1.8,1.8,0,0,0,.962-0.051A4.185,4.185,0,0,0,33.89,37.9a1.584,1.584,0,0,1,.352,1.331c-0.16,1.221-2.222,2.591-2.222,2.591L32.3,42.238c-0.506.294-1.276,0.741-1.564,0.9-0.6-.365-1.346-0.808-1.5-0.9a1.108,1.108,0,0,0-1.714.962,1.054,1.054,0,0,1,1.472-.189c0.092,0.046.555,0.311,0.973,0.563l-0.5.284a1.086,1.086,0,0,0,.047,1.945,1.025,1.025,0,0,1,.528-1.368c0.046-.032.314-0.192,0.671-0.4,0.218,0.135.526,0.347,0.581,0.388a1.025,1.025,0,0,1,.487,1.383,1.086,1.086,0,0,0,.105-1.943c-0.025-.015-0.266-0.182-0.415-0.273l1.248-.733L33,43.262,34.77,42.2a2.779,2.779,0,0,1,.012.67,4.938,4.938,0,0,1-2.506,3.541,1.3,1.3,0,0,0,1.313.857c0.82,0,1.363-.906,1.673-1.691-0.363,1.4-.336,2.491.721,3.422,1.022-.91,1.1-2.022.734-3.422,0.31,0.784.853,1.691,1.673,1.691a1.3,1.3,0,0,0,1.313-.857A4.938,4.938,0,0,1,37.2,42.871a2.77,2.77,0,0,1,.012-0.669l1.77,1.061,0.273-.4L40.5,43.594c-0.149.091-.391,0.258-0.416,0.273a1.086,1.086,0,0,0,.105,1.943,1.025,1.025,0,0,1,.487-1.383c0.055-.041.364-0.253,0.581-0.388,0.358,0.211.625,0.37,0.671,0.4a1.025,1.025,0,0,1,.528,1.368,1.086,1.086,0,0,0,.047-1.945l-0.5-.284c0.417-.252.88-0.517,0.973-0.563a1.054,1.054,0,0,1,1.472.189,1.108,1.108,0,0,0-1.714-.962c-0.153.09-.9,0.533-1.5,0.9-0.289-.165-1.061-0.613-1.567-0.907l0.279-.412s-2.038-1.374-2.218-2.591a1.484,1.484,0,0,1,.352-1.331A4.087,4.087,0,0,0,40.982,41.2a2.309,2.309,0,0,0,.944.078,7.04,7.04,0,0,1-1.94-3.511,5.558,5.558,0,0,0,2.759,2.727c2.309,0.943,3.389-.257,3.389-0.257C42.671,38.959,42,36.854,42,36.854A5.128,5.128,0,0,0,44.645,38.7a3.024,3.024,0,0,0,3.488-1.139c-4.062-.555-4.506-2.216-4.506-2.216A4.644,4.644,0,0,0,46.805,36.35Z"/>
</svg>
