<svg xmlns="http://www.w3.org/2000/svg" width="18" height="18" viewBox="0 0 18 18">
  <path id="Form_1" data-name="Form 1" d="M0.494,18.006a0.479,0.479,0,0,1-.466-0.589l1.153-4.929a0.478,0.478,0,0,1,.127-0.229L12.787,0.75a2.045,2.045,0,0,1,2.829,0L17.23,2.366a2.012,2.012,0,0,1,0,2.835L5.751,16.709a0.481,0.481,0,0,1-.229.128L0.6,17.993A0.463,0.463,0,0,1,.494,18.006ZM2.082,12.84L1.137,16.882l4.034-.949L16.553,4.523a1.049,1.049,0,0,0,0-1.478L14.939,1.428a1.066,1.066,0,0,0-1.475,0Zm3.33,3.53h0Zm10.655-10.2a0.476,0.476,0,0,1-.338-0.14L11.961,2.255a0.479,0.479,0,0,1,.677-0.679l3.768,3.776A0.48,0.48,0,0,1,16.067,6.172ZM14.624,7.62a0.476,0.476,0,0,1-.339-0.141L10.527,3.693a0.479,0.479,0,0,1,.678-0.677L14.963,6.8A0.48,0.48,0,0,1,14.624,7.62ZM5.6,16.658a0.476,0.476,0,0,1-.338-0.14L1.5,12.744a0.479,0.479,0,0,1,.676-0.679l3.765,3.774A0.48,0.48,0,0,1,5.6,16.658Z"/>
</svg>
