<svg xmlns="http://www.w3.org/2000/svg" width="60" height="70" viewBox="0 0 60 70">
  <defs>
    <style>
      .last-edited-icon {
        fill: white;
      }
    </style>
  </defs>
  <path id="Form_1" data-name="Form 1" class="last-edited-icon" d="M21.479,44a0.479,0.479,0,0,1-.466-0.589l1.153-4.926a0.477,0.477,0,0,1,.127-0.229l11.483-11.5a2.047,2.047,0,0,1,2.83,0l1.614,1.615a2.009,2.009,0,0,1,0,2.833L26.738,42.7a0.481,0.481,0,0,1-.229.128l-4.924,1.155A0.462,0.462,0,0,1,21.479,44Zm1.588-5.163-0.945,4.039,4.035-.948,11.386-11.4a1.048,1.048,0,0,0,0-1.477l-1.614-1.616a1.067,1.067,0,0,0-1.475,0ZM26.4,42.366h0ZM37.057,32.173a0.477,0.477,0,0,1-.338-0.14L32.95,28.26a0.479,0.479,0,1,1,.677-0.678L37.4,31.355a0.48,0.48,0,0,1-.339.819v0Zm-1.443,1.449a0.477,0.477,0,0,1-.339-0.141L31.516,29.7a0.479,0.479,0,0,1,.678-0.676h0L35.953,32.8A0.48,0.48,0,0,1,35.614,33.622Zm-9.027,9.032a0.477,0.477,0,0,1-.338-0.14l-3.763-3.771a0.479,0.479,0,1,1,.676-0.678l3.766,3.771A0.48,0.48,0,0,1,26.587,42.654Z"/>
</svg>
