<svg xmlns="http://www.w3.org/2000/svg" width="40" height="48" viewBox="0 0 40 48">
  <path id="Form_1" data-name="Form 1" d="M37,48H3a3,3,0,0,1-3-3V3A3,3,0,0,1,3,0H27.05A12.966,12.966,0,0,1,40,12.951V45A3,3,0,0,1,37,48ZM3,2A1,1,0,0,0,2,3V45a1,1,0,0,0,1,1H37a1,1,0,0,0,1-1V12.951A10.963,10.963,0,0,0,27.05,2H3ZM38.84,12H31a3,3,0,0,1-3-3V1.16a1,1,0,0,1,2,0V9a1,1,0,0,0,1,1h7.84A1,1,0,0,1,38.84,12Z"/>
  <path id="JSON" d="M12.812,32.642a0.615,0.615,0,0,0-.6-0.6H7.7a0.543,0.543,0,0,0-.45.186,0.646,0.646,0,0,0,0,.828,0.543,0.543,0,0,0,.45.186h3.912v5.4a0.6,0.6,0,0,1-.174.432,0.57,0.57,0,0,1-.426.18H8.9a0.575,0.575,0,0,1-.42-0.18,0.589,0.589,0,0,1-.18-0.432A0.527,0.527,0,0,0,8.114,38.2a0.667,0.667,0,0,0-.828,0,0.526,0.526,0,0,0-.186.444,1.736,1.736,0,0,0,.144.7,1.905,1.905,0,0,0,.384.576,1.781,1.781,0,0,0,.57.39,1.736,1.736,0,0,0,.7.144h2.112a1.737,1.737,0,0,0,.7-0.144,1.785,1.785,0,0,0,.57-0.39,1.91,1.91,0,0,0,.384-0.576,1.736,1.736,0,0,0,.144-0.7v-6Zm6.528,4.572a3.179,3.179,0,0,0-.834-0.78,6.485,6.485,0,0,0-1.086-.564q-0.588-.24-1.086-0.48a3.826,3.826,0,0,1-.834-0.528,0.9,0.9,0,0,1-.336-0.708,0.881,0.881,0,0,1,.264-0.648,0.867,0.867,0,0,1,.636-0.264h1.512a0.9,0.9,0,0,1,.9.9,0.543,0.543,0,0,0,.186.45,0.646,0.646,0,0,0,.828,0,0.544,0.544,0,0,0,.186-0.45,2.091,2.091,0,0,0-2.1-2.1H16.064a2.013,2.013,0,0,0-.816.168,2.171,2.171,0,0,0-.672.456,2.1,2.1,0,0,0-.612,1.488,1.849,1.849,0,0,0,.336,1.128,3.168,3.168,0,0,0,.834.78,6.454,6.454,0,0,0,1.086.564q0.588,0.24,1.086.48a3.845,3.845,0,0,1,.834.528,0.927,0.927,0,0,1,.078,1.356,0.862,0.862,0,0,1-.642.264h-1.5a0.9,0.9,0,0,1-.912-0.912,0.527,0.527,0,0,0-.186-0.444,0.667,0.667,0,0,0-.828,0,0.526,0.526,0,0,0-.186.444,2.01,2.01,0,0,0,.168.816,2.159,2.159,0,0,0,1.128,1.128,2.012,2.012,0,0,0,.816.168h1.5a2.013,2.013,0,0,0,.816-0.168,2.173,2.173,0,0,0,.672-0.456,2.1,2.1,0,0,0,.612-1.488A1.851,1.851,0,0,0,19.34,37.214Zm5.988,1.428a0.589,0.589,0,0,1-.18.432,0.576,0.576,0,0,1-.42.18h-2.1a0.575,0.575,0,0,1-.42-0.18,0.589,0.589,0,0,1-.18-0.432v-4.8a0.57,0.57,0,0,1,.18-0.426,0.585,0.585,0,0,1,.42-0.174h2.1a0.586,0.586,0,0,1,.42.174,0.57,0.57,0,0,1,.18.426v4.8Zm1.2-4.8a1.737,1.737,0,0,0-.144-0.7,1.8,1.8,0,0,0-.954-0.954,1.737,1.737,0,0,0-.7-0.144h-2.1a1.735,1.735,0,0,0-.7.144,1.8,1.8,0,0,0-.954.954,1.737,1.737,0,0,0-.144.7v4.8a1.736,1.736,0,0,0,.144.7,1.9,1.9,0,0,0,.384.576,1.78,1.78,0,0,0,.57.39,1.735,1.735,0,0,0,.7.144h2.1a1.737,1.737,0,0,0,.7-0.144A1.787,1.787,0,0,0,26,39.92a1.91,1.91,0,0,0,.384-0.576,1.736,1.736,0,0,0,.144-0.7v-4.8Zm6.876-1.2a0.544,0.544,0,0,0-.186-0.45,0.646,0.646,0,0,0-.828,0,0.543,0.543,0,0,0-.186.45v5.136l-3.348-5.4a0.713,0.713,0,0,0-.7-0.33,0.579,0.579,0,0,0-.324.168,0.544,0.544,0,0,0-.138.4v7.248a0.529,0.529,0,0,0,.186.438,0.646,0.646,0,0,0,.828,0,0.53,0.53,0,0,0,.186-0.438V34.73l3.36,5.388a0.752,0.752,0,0,0,.312.27,0.638,0.638,0,0,0,.378.06,0.579,0.579,0,0,0,.324-0.168,0.545,0.545,0,0,0,.138-0.4V32.642Z"/>
</svg>
