<svg xmlns="http://www.w3.org/2000/svg" width="40" height="40" viewBox="0 0 40 40">
  <path id="Form_1" data-name="Form 1" d="M25.025,29H13.978a0.5,0.5,0,0,1-.5-0.46l-1-15.41a0.491,0.491,0,0,1,.134-0.368,0.5,0.5,0,0,1,.364-0.155h13.04a0.5,0.5,0,0,1,.364.155,0.49,0.49,0,0,1,.133.368l-1,15.41A0.5,0.5,0,0,1,25.025,29Zm-10.58-.985H24.558L25.491,13.59H13.512ZM22.761,13.6h-6.52a0.5,0.5,0,0,1-.5-0.492V10.492a0.5,0.5,0,0,1,.5-0.492h6.52a0.5,0.5,0,0,1,.5.492V13.1A0.5,0.5,0,0,1,22.761,13.6Zm-6.022-.983h5.524V10.984H16.739v1.629ZM28.467,13.6H10.536a0.492,0.492,0,0,1-.062-0.983,0.5,0.5,0,0,1,.063,0H28.467a0.492,0.492,0,0,1,.063.983A0.5,0.5,0,0,1,28.467,13.6Zm-11.508,11.8a0.5,0.5,0,0,1-.5-0.465L16,16.728a0.5,0.5,0,0,1,.469-0.521,0.487,0.487,0,0,1,.523.447c0,0.006,0,.011,0,0.017l0.458,8.205a0.5,0.5,0,0,1-.47.518H16.959Zm2.543,0a0.5,0.5,0,0,1-.5-0.487v-8.2a0.5,0.5,0,1,1,1,0v8.205A0.5,0.5,0,0,1,19.5,25.394Zm2.543,0H22.017a0.5,0.5,0,0,1-.47-0.518L22,16.67a0.487,0.487,0,0,1,.508-0.465h0.018a0.5,0.5,0,0,1,.47.518l-0.458,8.2A0.5,0.5,0,0,1,22.045,25.394Z"/>
</svg>
