<svg xmlns="http://www.w3.org/2000/svg" xmlns:xlink="http://www.w3.org/1999/xlink" preserveAspectRatio="xMidYMid" width="15" height="24" viewBox="0 0 15 24">
  <path d="M12.490,24.000 L2.510,24.000 C1.126,24.000 -0.000,22.850 -0.000,21.437 L-0.000,2.565 C-0.000,1.150 1.126,-0.000 2.510,-0.000 L12.490,-0.000 C13.874,-0.000 15.000,1.150 15.000,2.565 L15.000,21.437 C15.000,22.850 13.874,24.000 12.490,24.000 ZM14.000,2.565 C14.000,1.702 13.322,1.000 12.490,1.000 L2.510,1.000 C1.678,1.000 1.000,1.702 1.000,2.565 L1.000,3.988 L14.000,3.988 L14.000,2.565 ZM14.000,4.988 L1.000,4.988 L1.000,19.032 L14.000,19.032 L14.000,4.988 ZM14.000,20.032 L1.000,20.032 L1.000,21.437 C1.000,22.299 1.678,23.000 2.510,23.000 L12.490,23.000 C13.322,23.000 14.000,22.299 14.000,21.437 L14.000,20.032 ZM10.000,22.016 L5.000,22.016 C4.724,22.016 4.500,21.792 4.500,21.516 C4.500,21.239 4.724,21.016 5.000,21.016 L10.000,21.016 C10.276,21.016 10.500,21.239 10.500,21.516 C10.500,21.792 10.276,22.016 10.000,22.016 ZM6.500,1.991 L8.500,1.991 C8.776,1.991 9.000,2.215 9.000,2.491 C9.000,2.768 8.776,2.991 8.500,2.991 L6.500,2.991 C6.224,2.991 6.000,2.768 6.000,2.491 C6.000,2.215 6.224,1.991 6.500,1.991 Z" />
</svg>
