<svg xmlns="http://www.w3.org/2000/svg" xmlns:xlink="http://www.w3.org/1999/xlink" preserveAspectRatio="xMidYMid" width="24" height="24" viewBox="0 0 24 24">
  <path d="M23.500,24.000 L0.500,24.000 C0.224,24.000 -0.000,23.776 -0.000,23.500 L-0.000,0.500 C-0.000,0.224 0.224,-0.000 0.500,-0.000 L23.500,-0.000 C23.776,-0.000 24.000,0.224 24.000,0.500 L24.000,23.500 C24.000,23.776 23.776,24.000 23.500,24.000 ZM23.000,23.000 L23.000,18.010 L1.000,18.010 L1.000,23.000 L23.000,23.000 ZM20.078,17.010 L15.107,7.069 L11.389,13.576 C11.310,13.711 11.175,13.803 11.021,13.824 C10.866,13.844 10.711,13.791 10.601,13.682 L7.903,10.984 L4.030,17.010 L20.078,17.010 ZM1.000,1.000 L1.000,17.010 L2.840,17.010 L7.398,9.921 C7.479,9.794 7.614,9.711 7.765,9.695 C7.923,9.679 8.065,9.732 8.172,9.838 L10.845,12.512 L14.702,5.762 C14.795,5.602 14.958,5.523 15.150,5.510 C15.335,5.515 15.502,5.621 15.584,5.786 L21.196,17.010 L23.000,17.010 L23.000,1.000 L1.000,1.000 ZM8.341,8.510 C6.962,8.510 5.841,7.388 5.841,6.010 C5.841,4.631 6.962,3.510 8.341,3.510 C9.720,3.510 10.841,4.631 10.841,6.010 C10.841,7.388 9.720,8.510 8.341,8.510 ZM8.341,4.510 C7.514,4.510 6.841,5.183 6.841,6.010 C6.841,6.837 7.514,7.510 8.341,7.510 C9.168,7.510 9.841,6.837 9.841,6.010 C9.841,5.183 9.168,4.510 8.341,4.510 Z"/>
</svg>
