<svg xmlns="http://www.w3.org/2000/svg" width="48" height="48" viewBox="0 0 48 48">
  <path id="Form_2" data-name="Form 2" d="M43,48H5a1,1,0,0,1-1-1V1A1,1,0,0,1,5,0H31v0.04A0.954,0.954,0,0,1,31.705.3l12,12a0.96,0.96,0,0,1,.252.705H44V47A1,1,0,0,1,43,48ZM32,3.417V12h8.586ZM42,14H31a1,1,0,0,1-1-1V2H6V46H42V14Zm-25.7,7.136a1,1,0,1,1,1.414,1.412l-7.292,7.292,7.292,7.294a1,1,0,1,1-1.414,1.412l-8-8a1,1,0,0,1,0-1.412Zm14,0a1,1,0,0,1,1.414,0l8,8a1,1,0,0,1,0,1.412l-8,8a1,1,0,1,1-1.414-1.412l7.292-7.294L30.291,22.55A1,1,0,0,1,30.291,21.138Z"/>
</svg>
