<svg xmlns="http://www.w3.org/2000/svg" xmlns:xlink="http://www.w3.org/1999/xlink" preserveAspectRatio="xMidYMid" width="24" height="24" viewBox="0 0 24 24">
  <path d="M23.501,24.000 L5.507,24.000 C5.230,24.000 5.007,23.776 5.007,23.500 C5.007,23.224 5.230,23.000 5.507,23.000 L23.001,23.000 L23.001,5.500 C23.001,5.224 23.224,5.000 23.501,5.000 C23.777,5.000 24.000,5.224 24.000,5.500 L24.000,23.500 C24.000,23.776 23.777,24.000 23.501,24.000 ZM21.491,21.990 L2.498,21.990 C2.222,21.990 1.998,21.767 1.998,21.490 C1.998,21.214 2.222,20.990 2.498,20.990 L20.992,20.990 L20.992,2.490 C20.992,2.214 21.215,1.990 21.491,1.990 C21.768,1.990 21.991,2.214 21.991,2.490 L21.991,21.490 C21.991,21.767 21.768,21.990 21.491,21.990 ZM19.493,20.000 L0.499,20.000 C0.223,20.000 -0.000,19.776 -0.000,19.500 L-0.000,0.500 C-0.000,0.224 0.223,-0.000 0.499,-0.000 L19.493,-0.000 C19.769,-0.000 19.993,0.224 19.993,0.500 L19.993,19.500 C19.993,19.776 19.769,20.000 19.493,20.000 ZM18.993,19.000 L18.993,15.006 L0.999,15.006 L0.999,19.000 L18.993,19.000 ZM16.527,14.006 L12.558,6.065 L9.568,11.300 C9.490,11.435 9.354,11.527 9.200,11.547 C9.047,11.568 8.891,11.516 8.780,11.405 L6.628,9.253 L3.574,14.006 L16.527,14.006 ZM0.999,1.000 L0.999,14.006 L2.385,14.006 L6.123,8.190 C6.205,8.064 6.339,7.980 6.490,7.964 C6.645,7.945 6.790,8.000 6.897,8.107 L9.024,10.235 L12.153,4.758 C12.246,4.598 12.439,4.505 12.601,4.506 C12.785,4.512 12.952,4.618 13.034,4.783 L17.645,14.006 L18.993,14.006 L18.993,1.000 L0.999,1.000 ZM6.975,7.006 C5.873,7.006 4.975,6.109 4.975,5.006 C4.975,3.903 5.873,3.006 6.975,3.006 C8.077,3.006 8.974,3.903 8.974,5.006 C8.974,6.109 8.077,7.006 6.975,7.006 ZM6.975,4.006 C6.423,4.006 5.975,4.455 5.975,5.006 C5.975,5.558 6.423,6.006 6.975,6.006 C7.526,6.006 7.974,5.558 7.974,5.006 C7.974,4.455 7.526,4.006 6.975,4.006 Z" />
</svg>
