<svg width="48" height="48" viewBox="0 0 48 48" xmlns="http://www.w3.org/2000/svg">
<path fill-rule="evenodd" clip-rule="evenodd" d="M45.5 6L2.5 6C2.22386 6 2 6.22386 2 6.5V41.5C2 41.7761 2.22386 42 2.5 42H45.5C45.7761 42 46 41.7761 46 41.5V6.5C46 6.22386 45.7761 6 45.5 6ZM2 4C0.895431 4 0 4.89543 0 6V42C0 43.1046 0.895432 44 2 44H46C47.1046 44 48 43.1046 48 42V6C48 4.89543 47.1046 4 46 4H2Z"/>
<path d="M19.5 22.9C20.5 21.8 22.1 21.8 23.1 22.9L24 23.8885V37.7H6L19.5 22.9Z"/>
<path fill-rule="evenodd" clip-rule="evenodd" d="M21.6201 24.2454C21.4883 24.1003 21.3705 24.075 21.3 24.075C21.2295 24.075 21.1117 24.1003 20.9799 24.2454L20.9776 24.2478L10.5314 35.7H22V24.6626L21.6201 24.2454ZM24 23.8885V37.7H6L19.5 22.9C20.5 21.8 22.1 21.8 23.1 22.9L24 23.8885Z"/>
<path fill-rule="evenodd" clip-rule="evenodd" d="M19.5 22.9C20.5 21.8 22.1 21.8 23.1 22.9L29.2 29.6L30.6 28C31.6 26.9 33.3 26.9 34.3 28L43.1 37.7H6L19.5 22.9ZM9.39854 36.2L20.6082 23.9109L20.6099 23.909C21.0148 23.4637 21.5852 23.4637 21.9901 23.909L29.2222 31.8525L31.7175 29.0008C32.123 28.5638 32.7875 28.5664 33.1899 29.0088C33.1898 29.0087 33.1899 29.0089 33.1899 29.0088L39.7139 36.2H9.39854Z"/>
<path fill-rule="evenodd" clip-rule="evenodd" d="M23 48L23 -8.74228e-08L25 0L25 48L23 48Z"/>
<path fill-rule="evenodd" clip-rule="evenodd" d="M37 19.5C38.933 19.5 40.5 17.933 40.5 16C40.5 14.067 38.933 12.5 37 12.5C35.067 12.5 33.5 14.067 33.5 16C33.5 17.933 35.067 19.5 37 19.5ZM37 21C39.7614 21 42 18.7614 42 16C42 13.2386 39.7614 11 37 11C34.2386 11 32 13.2386 32 16C32 18.7614 34.2386 21 37 21Z"/>
</svg>
