<svg version="1.1" id="Ebene_1" xmlns="http://www.w3.org/2000/svg" xmlns:xlink="http://www.w3.org/1999/xlink" x="0px" y="0px"
	 viewBox="0 0 18 24" style="enable-background:new 0 0 18 24;" xml:space="preserve">
<g>
	<g>
		<path class="st0" d="M3.5,24C1.6,24,0,22.4,0,20.5S1.6,17,3.5,17H7v3.5C7,22.4,5.4,24,3.5,24z M3.5,18C2.1,18,1,19.1,1,20.5
			S2.1,23,3.5,23C4.9,23,6,21.7,6,20.5V18H3.5z"/>
	</g>
	<g>
		<path class="st0" d="M14.5,20c-1.9,0-3.5-1.6-3.5-3.5s1.6-3.5,3.5-3.5H18v3.5C18,18.4,16.4,20,14.5,20z M14.5,14
			c-1.4,0-2.5,1.1-2.5,2.5s1.1,2.5,2.5,2.5c1.4,0,2.5-1.3,2.5-2.5V14H14.5z"/>
	</g>
	<g>
		<polygon class="st0" points="7,18.5 6,18.5 6,5.2 18,0.3 18,15.5 17,15.5 17,1.7 7,5.8 		"/>
	</g>
	<g>
		<rect x="11.5" y="0.8" transform="matrix(0.3788 0.9255 -0.9255 0.3788 13.7016 -6.9126)" class="st0" width="1" height="11.9"/>
	</g>
</g>
</svg>
