<svg version="1.1" id="Layer_3" xmlns="http://www.w3.org/2000/svg" xmlns:xlink="http://www.w3.org/1999/xlink" x="0px" y="0px"
	 width="16px" height="24px" viewBox="0 0 16 24" enable-background="new 0 0 16 24" xml:space="preserve">
<path d="M15.5,0h-15C0.2,0,0,0.2,0,0.5v23C0,23.8,0.2,24,0.5,24h15c0.3,0,0.5-0.2,0.5-0.5v-23C16,0.2,15.8,0,15.5,0z M1,6.8L6.8,1
	h3.7L1,10.5V6.8z M1,17.1l14-14v3.7l-14,14V17.1z M15,1.6l-14,14v-3.7L11.9,1H15V1.6z M5.3,1L1,5.3V1H5.3z M1,22.2l14-14v3.7L3.9,23
	H1V22.2z M15,13.3v3.8l0,0L9.1,23H5.3L15,13.3z M10.5,23l4.5-4.5V23H10.5z"/>
</svg>
