<svg xmlns="http://www.w3.org/2000/svg" xmlns:xlink="http://www.w3.org/1999/xlink" preserveAspectRatio="xMidYMid" width="24" height="24" viewBox="0 0 24 24">
  <path d="M21.997,24.000 L2.003,24.000 C0.898,24.000 -0.000,23.147 -0.000,22.100 L-0.000,8.499 C-0.000,8.223 0.224,7.999 0.500,7.999 L23.500,7.999 C23.776,7.999 24.000,8.223 24.000,8.499 L24.000,22.100 C24.000,23.147 23.102,24.000 21.997,24.000 ZM23.000,8.999 L1.000,8.999 L1.000,22.100 C1.000,22.596 1.450,23.000 2.003,23.000 L21.997,23.000 C22.550,23.000 23.000,22.596 23.000,22.100 L23.000,8.999 ZM9.687,20.434 C9.610,20.478 9.525,20.500 9.439,20.500 C9.352,20.500 9.266,20.477 9.188,20.432 C9.034,20.343 8.939,20.178 8.939,20.000 L8.939,11.999 C8.939,11.821 9.034,11.657 9.188,11.567 C9.342,11.477 9.532,11.477 9.687,11.565 L16.688,15.566 C16.844,15.654 16.939,15.820 16.939,16.000 C16.939,16.179 16.844,16.345 16.688,16.434 L9.687,20.434 ZM9.939,12.861 L9.939,19.138 L15.432,16.000 L9.939,12.861 ZM23.500,7.000 L0.500,7.000 C0.224,7.000 -0.000,6.777 -0.000,6.500 L-0.000,2.500 C-0.000,1.673 0.693,1.000 1.546,1.000 L22.454,1.000 C23.307,1.000 24.000,1.673 24.000,2.500 L24.000,6.500 C24.000,6.777 23.776,7.000 23.500,7.000 ZM23.000,2.998 L19.997,6.000 L23.000,6.000 L23.000,2.998 ZM1.546,2.000 C1.245,2.000 1.000,2.224 1.000,2.500 L1.000,4.885 L3.885,2.000 L1.546,2.000 ZM5.299,2.000 L1.299,6.000 L4.669,6.000 L8.669,2.000 L5.299,2.000 ZM10.083,2.000 L6.083,6.000 L9.191,6.000 L13.191,2.000 L10.083,2.000 ZM14.605,2.000 L10.605,6.000 L13.708,6.000 L17.707,2.000 L14.605,2.000 ZM19.121,2.000 L15.122,6.000 L18.583,6.000 L22.564,2.020 C22.527,2.013 22.493,2.000 22.454,2.000 L19.121,2.000 Z"/>
</svg>
