<svg version="1.1" id="Layer_1" xmlns="http://www.w3.org/2000/svg" xmlns:xlink="http://www.w3.org/1999/xlink" x="0px" y="0px"
	 width="46px" height="46px" viewBox="0 0 46 46" style="enable-background:new 0 0 46 46;" xml:space="preserve">
<path d="M23,46c-7.2,0-8.1,0-10.9-0.2c-2.8-0.1-4.3-0.6-5.3-1c-1.4-0.5-2.4-1.2-3.4-2.2c-1-1-1.7-2.1-2.2-3.4c-0.4-1-0.9-2.5-1-5.3
	C0,31.1,0,30.2,0,23c0-7.2,0-8.1,0.2-10.9c0.1-2.8,0.6-4.3,1-5.3c0.5-1.4,1.2-2.4,2.2-3.4c1-1,2.1-1.7,3.4-2.2c1-0.4,2.5-0.9,5.3-1
	C15,0,15.8,0,23,0c7.2,0,8,0,10.9,0.2c2.8,0.1,4.3,0.6,5.3,1c1.4,0.5,2.4,1.2,3.4,2.2s1.7,2.1,2.2,3.4c0.4,1,0.9,2.5,1,5.3
	C46,15,46,15.8,46,23c0,7.2,0,8-0.2,10.9c-0.1,2.8-0.6,4.3-1,5.3c-0.5,1.4-1.2,2.4-2.2,3.4c-1,1-2.1,1.7-3.4,2.2
	c-1,0.4-2.5,0.9-5.3,1C31.1,46,30.2,46,23,46z M23,1.9c-7.1,0-8,0-10.8,0.2C9.7,2.2,8.4,2.6,7.5,2.9C6.4,3.4,5.6,3.9,4.7,4.7
	C3.9,5.6,3.4,6.4,2.9,7.5c-0.3,0.9-0.7,2.2-0.9,4.7C1.9,15,1.9,15.8,1.9,23c0,7.2,0,8,0.2,10.8c0.1,2.5,0.5,3.8,0.9,4.7
	c0.4,1.1,0.9,1.9,1.8,2.8c0.9,0.9,1.6,1.4,2.8,1.8c0.9,0.3,2.2,0.7,4.7,0.9c2.8,0.1,3.7,0.2,10.8,0.2c7.2,0,8,0,10.8-0.2
	c2.5-0.1,3.8-0.5,4.7-0.9c1.1-0.4,1.9-0.9,2.8-1.8c0.9-0.9,1.4-1.6,1.8-2.8c0.3-0.9,0.7-2.2,0.9-4.7c0.1-2.8,0.2-3.7,0.2-10.8
	c0-7.1,0-8-0.2-10.8c-0.1-2.5-0.5-3.8-0.9-4.7c-0.4-1.1-0.9-1.9-1.8-2.8s-1.6-1.4-2.8-1.8c-0.9-0.3-2.2-0.7-4.7-0.9
	C31,1.9,30.1,1.9,23,1.9z"/>
<circle cx="36.5" cy="9.5" r="2"/>
<path d="M23,34c-6.1,0-11-4.9-11-11s4.9-11,11-11s11,4.9,11,11S29.1,34,23,34z M23,13.8c-5.1,0-9.2,4.1-9.2,9.2s4.1,9.2,9.2,9.2
	s9.2-4.1,9.2-9.2S28.1,13.8,23,13.8z"/>
</svg>
