<svg xmlns="http://www.w3.org/2000/svg" xmlns:xlink="http://www.w3.org/1999/xlink" preserveAspectRatio="xMidYMid" width="21" height="24" viewBox="0 0 21 24">
  <path d="M20.500,4.000 C20.224,4.000 20.000,3.776 20.000,3.500 L20.000,1.000 L11.000,1.000 L11.000,23.000 L14.000,23.000 C14.276,23.000 14.500,23.224 14.500,23.500 C14.500,23.776 14.276,24.000 14.000,24.000 L7.000,24.000 C6.724,24.000 6.500,23.776 6.500,23.500 C6.500,23.224 6.724,23.000 7.000,23.000 L10.000,23.000 L10.000,1.000 L1.000,1.000 L1.000,3.500 C1.000,3.776 0.776,4.000 0.500,4.000 C0.224,4.000 0.000,3.776 0.000,3.500 L0.000,0.500 C0.000,0.224 0.224,-0.000 0.500,-0.000 L20.500,-0.000 C20.776,-0.000 21.000,0.224 21.000,0.500 L21.000,3.500 C21.000,3.776 20.776,4.000 20.500,4.000 Z"/>
</svg>
