<svg xmlns="http://www.w3.org/2000/svg" width="48" height="48" viewBox="0 0 48 48">
  <path id="Form_1" data-name="Form 1" d="M13,18H3a1,1,0,0,1-1-1V3A1,1,0,0,1,3,2H13a1,1,0,0,1,1,1V17A1,1,0,0,1,13,18ZM4,16h8V4H4V16Zm9,30H3a1,1,0,0,1-1-1V23a1,1,0,0,1,1-1H13a1,1,0,0,1,1,1V45A1,1,0,0,1,13,46ZM4,44h8V24H4V44Zm25,2H19a1,1,0,0,1-1-1V31a1,1,0,0,1,1-1H29a1,1,0,0,1,1,1V45A1,1,0,0,1,29,46Zm-9-2h8V32H20V44Zm9-18H19a1,1,0,0,1-1-1V3a1,1,0,0,1,1-1H29a1,1,0,0,1,1,1V25A1,1,0,0,1,29,26Zm-9-2h8V4H20V24Zm25-6H35a1,1,0,0,1-1-1V3a1,1,0,0,1,1-1H45a1,1,0,0,1,1,1V17A1,1,0,0,1,45,18Zm-9-2h8V4H36V16Zm9,30H35a1,1,0,0,1-1-1V23a1,1,0,0,1,1-1H45a1,1,0,0,1,1,1V45A1,1,0,0,1,45,46Zm-9-2h8V24H36V44Z"/>
</svg>
