<svg xmlns="http://www.w3.org/2000/svg" width="20" height="24" viewBox="0 0 20 24">
  <path id="Form_1" data-name="Form 1" d="M16,24H8a0.5,0.5,0,0,1-.416-0.223l-4-6a2.272,2.272,0,0,1-.207-2.135A1.215,1.215,0,0,1,4.5,15c1.061,0,2.025.428,3.5,2.4V8a2,2,0,0,1,4,0v5.64l4.158,1.386a2.473,2.473,0,0,1,1.329,3.086l-1,5.477A0.5,0.5,0,0,1,16,24ZM8.268,23h7.315l0.925-5.089a1.548,1.548,0,0,0-.661-1.934l-4.5-1.5A0.5,0.5,0,0,1,11,14V8a1,1,0,0,0-1-1A1.013,1.013,0,0,0,9,8V19a0.5,0.5,0,0,1-.919.273C6.12,16.252,5.237,16,4.5,16a0.226,0.226,0,0,0-.243.117,1.3,1.3,0,0,0,.161,1.109ZM16.5,13H15V12h1.5A2.5,2.5,0,0,0,19,9.5v-6A2.5,2.5,0,0,0,16.5,1H3.5A2.5,2.5,0,0,0,1,3.5v6A2.5,2.5,0,0,0,3.5,12H5v1H3.5A3.5,3.5,0,0,1,0,9.5v-6A3.5,3.5,0,0,1,3.5,0h13A3.5,3.5,0,0,1,20,3.5v6A3.5,3.5,0,0,1,16.5,13Z"/>
</svg>
