<svg version="1.1" id="Layer_1" xmlns="http://www.w3.org/2000/svg" xmlns:xlink="http://www.w3.org/1999/xlink" x="0px" y="0px"
	 width="48px" height="48px" viewBox="0 0 48 48" style="enable-background:new 0 0 48 48;" xml:space="preserve">
<path d="M24,0C10.8,0,0,10.8,0,24s10.8,24,24,24s24-10.8,24-24S37.2,0,24,0z M46,24.5c-2.1-0.3-4.6-0.4-6.6-0.4
	c-3.2,0-6.3,0.3-9.4,0.9c-0.8-2-1.6-4-2.7-5.9c5-2.1,9.7-5.1,13.8-8.9C44.1,13.9,46,18.8,46,24C46,24.2,46,24.3,46,24.5z M39.7,8.6
	c-4,3.7-8.5,6.6-13.4,8.6c-2.9-5-6.8-9.5-11.5-13.3c2.8-1.3,5.9-2,9.1-2C30.2,2,35.7,4.6,39.7,8.6z M12.9,5c4.7,3.7,8.6,8.1,11.5,13
	C19.2,20,13.7,21,8,21c-1.9,0-3.8-0.1-5.7-0.4C3.3,14,7.3,8.3,12.9,5z M2,22.6C4,22.9,6,23,8,23c6,0,11.9-1.1,17.4-3.2
	c1,1.8,1.8,3.7,2.5,5.6C19.9,27.3,12.5,31.3,6.3,37C3.6,33.3,2,28.9,2,24C2,23.5,2,23.1,2,22.6z M7.5,38.5c6-5.6,13.3-9.4,21.1-11.2
	C30.2,32,31,36.9,31,42c0,1,0,1.9-0.1,2.9C28.7,45.6,26.4,46,24,46C17.4,46,11.5,43.1,7.5,38.5z M33,44.1c0-0.7,0-1.4,0-2.1
	c0-5.2-0.8-10.3-2.4-15.1c2.9-0.5,5.8-0.8,8.8-0.8c2,0,4.4,0.2,6.5,0.4C45,34.4,39.9,41,33,44.1z"/>
</svg>
