<svg xmlns="http://www.w3.org/2000/svg" xmlns:xlink="http://www.w3.org/1999/xlink" preserveAspectRatio="xMidYMid" width="23" height="24" viewBox="0 0 23 24">
  <path d="M22.500,12.024 L0.500,12.024 C0.224,12.024 -0.000,11.801 -0.000,11.525 C-0.000,11.249 0.224,11.026 0.500,11.026 L22.500,11.026 C22.776,11.026 23.000,11.249 23.000,11.525 C23.000,11.801 22.776,12.024 22.500,12.024 ZM16.500,7.035 C16.372,7.035 16.244,6.986 16.147,6.889 L11.500,2.252 L6.854,6.889 C6.658,7.084 6.342,7.084 6.146,6.889 C5.951,6.694 5.951,6.378 6.146,6.183 L11.147,1.194 C11.342,0.999 11.658,0.999 11.853,1.194 L16.853,6.183 C17.049,6.378 17.049,6.694 16.853,6.889 C16.756,6.986 16.628,7.035 16.500,7.035 ZM6.854,16.162 L11.500,20.799 L16.147,16.162 C16.342,15.967 16.658,15.967 16.853,16.162 C17.049,16.357 17.049,16.673 16.853,16.867 L11.853,21.857 C11.756,21.954 11.628,22.003 11.500,22.003 C11.372,22.003 11.244,21.954 11.147,21.857 L6.146,16.867 C5.951,16.673 5.951,16.357 6.146,16.162 C6.342,15.967 6.658,15.967 6.854,16.162 Z"/>
</svg>
