<svg xmlns="http://www.w3.org/2000/svg" width="48" height="48" viewBox="0 0 48 48">
  <path id="Form_1" data-name="Form 1" d="M23,43.987a1,1,0,0,1-.447-0.105A15.374,15.374,0,0,1,14,30.057V13.022a1,1,0,0,1,2,0V30.057a13.387,13.387,0,0,0,7.447,12.037A1,1,0,0,1,23,43.987ZM44,26.007H43a1,1,0,0,1-1-1V17.018a1,1,0,0,1,1-1h1a4,4,0,0,1,4,4v2A4,4,0,0,1,44,26.007Zm0-2h0Zm0-5.993V24.01a2,2,0,0,0,2-2v-2A2,2,0,0,0,44,18.017ZM43,37.994a1,1,0,0,1-.414-0.09l-1.846-.845C32.842,33.43,25.379,30,9,30H7a7,7,0,0,1-7-6.992v-4a7,7,0,0,1,7-6.992H9c16.379,0,23.836-3.426,31.73-7.052l1.856-.849A1,1,0,0,1,44,5.032V36.995A1,1,0,0,1,43,37.994ZM7,14.021a5,5,0,0,0-5,4.994v4a5,5,0,0,0,5,4.994H9c16.818,0,24.473,3.517,32.576,7.24L42,35.439V6.587l-0.434.2c-8.1,3.72-15.748,7.235-32.566,7.235H7Z"/>
</svg>
