<svg xmlns="http://www.w3.org/2000/svg" width="48" height="48" viewBox="0 0 48 48">
  <path id="Form_1" data-name="Form 1" d="M8.855,33.258a8.993,8.993,0,0,1-2.058-.24A8.864,8.864,0,1,1,16.76,20.43,0.984,0.984,0,1,1,15,21.31a6.893,6.893,0,1,0,0,6.162,0.984,0.984,0,1,1,1.762.879A8.823,8.823,0,0,1,8.855,33.258ZM38.4,18.48H38.382a0.985,0.985,0,0,1,0-1.97H38.4a6.914,6.914,0,1,0-6.179-3.816,0.985,0.985,0,0,1-1.762.883A8.883,8.883,0,1,1,38.4,18.48Zm0,29.539A8.853,8.853,0,0,1,30.461,35.2a0.985,0.985,0,1,1,1.762.879,6.894,6.894,0,1,0,6.166-3.812H38.384a0.985,0.985,0,0,1,0-1.97h0.006A8.86,8.86,0,1,1,38.4,48.019ZM31.342,36.634a0.983,0.983,0,0,1-.44-0.1L15.441,28.8A0.985,0.985,0,0,1,15,27.472a6.854,6.854,0,0,0,0-6.156,0.985,0.985,0,0,1,.439-1.324L30.9,12.261a0.986,0.986,0,0,1,1.321.441,6.856,6.856,0,0,0,6.16,3.815,0.985,0.985,0,0,1,0,1.97h0a8.808,8.808,0,0,1-7.433-4.046l-13.8,6.9a8.847,8.847,0,0,1,0,6.115l13.8,6.9A8.809,8.809,0,0,1,38.384,30.3h0a0.985,0.985,0,0,1,0,1.97,6.857,6.857,0,0,0-6.16,3.815,0.985,0.985,0,0,1-.569.493A0.962,0.962,0,0,1,31.342,36.634Z"/>
</svg>
