<svg xmlns="http://www.w3.org/2000/svg" width="45" height="48" viewBox="0 0 45 48">
  <path id="Form_1" data-name="Form 1" class="mailchimp-bright" d="M33.85,22.68a3.824,3.824,0,0,1,.989,0,3.418,3.418,0,0,0,.048-1.884c-0.237-1.143-.559-1.834-1.223-1.727s-0.689.936-.451,2.078A3.872,3.872,0,0,0,33.85,22.68Zm-5.7.9a1.1,1.1,0,0,0,.882.227,0.35,0.35,0,0,0-.062-0.407,2.8,2.8,0,0,0-1.229-.994,3.336,3.336,0,0,0-3.258.393,1.147,1.147,0,0,0-.576.756,0.174,0.174,0,0,0,.173.127,20.242,20.242,0,0,1,2.233-.5A3.872,3.872,0,0,1,28.148,23.584Zm-0.956.548a2.234,2.234,0,0,0-1.179.494,0.761,0.761,0,0,0-.3.474,0.144,0.144,0,0,0,.047.113,0.148,0.148,0,0,0,.1.039,1.879,1.879,0,0,0,.453-0.126,3.922,3.922,0,0,1,1.993-.208,0.542,0.542,0,0,0,.526-0.053,0.177,0.177,0,0,0-.018-0.2A1.8,1.8,0,0,0,27.192,24.133Zm4.732,2.013a0.652,0.652,0,1,0-.488-0.934A0.766,0.766,0,0,0,31.924,26.146Zm2.7-2.373a0.9,0.9,0,1,0,.6.863A0.764,0.764,0,0,0,34.626,23.772ZM11.695,32.259a0.33,0.33,0,0,0-.36-0.043,1.277,1.277,0,0,1-.318.045,0.69,0.69,0,0,1-.583-0.3,1.093,1.093,0,0,1,.025-1.008c0.023-.055.05-0.117,0.08-0.183a2.993,2.993,0,0,0,.218-2.636,2.323,2.323,0,0,0-1.778-1.3,2.279,2.279,0,0,0-1.958.71,2.841,2.841,0,0,0-.727,2.38,0.256,0.256,0,0,0,.2.2,0.474,0.474,0,0,0,.438-0.4c0.009-.023.02-0.059,0.034-0.1a3.174,3.174,0,0,1,.314-0.741,1.341,1.341,0,0,1,.855-0.594,1.365,1.365,0,0,1,1.045.2A1.35,1.35,0,0,1,9.684,30.1a3.8,3.8,0,0,0-.265,1.442,1.428,1.428,0,0,0,1.272,1.477,1.085,1.085,0,0,0,1.025-.513A0.221,0.221,0,0,0,11.695,32.259Zm31.546-1.87c-0.021-.074-0.156-0.572-0.343-1.172a9.535,9.535,0,0,0-.379-1.023,3.722,3.722,0,0,0,.661-2.7,3.424,3.424,0,0,0-.988-1.929,8.014,8.014,0,0,0-3.487-1.737c-0.194-.055-0.832-0.231-0.889-0.248,0-.037-0.047-2.106-0.085-2.994a10.309,10.309,0,0,0-.392-2.632A7.058,7.058,0,0,0,35.526,12.7c2.213-2.306,3.594-4.846,3.591-7.025C39.111,1.485,33.991.217,27.682,2.843l-1.337.571C26.34,3.408,23.929,1.03,23.893,1,16.7-5.31-5.79,19.822,1.4,25.926l1.571,1.338a7.8,7.8,0,0,0-.437,3.586,7.076,7.076,0,0,0,2.427,4.534,7.361,7.361,0,0,0,4.762,1.927c2.8,6.483,9.191,10.459,16.687,10.683,8.041,0.24,14.791-3.553,17.619-10.367A14.36,14.36,0,0,0,45,33.093C45,31.181,43.925,30.389,43.241,30.389Zm-32.9,5.1a3.858,3.858,0,0,1-.745.053,5.812,5.812,0,0,1-5.313-4.87C4,27.791,5.461,25.574,8.053,25.048a4.392,4.392,0,0,1,1.088-.078c1.453,0.08,3.593,1.2,4.083,4.383C13.658,32.171,12.97,35.04,10.342,35.491ZM7.63,23.324A6.179,6.179,0,0,0,3.723,25.83a10.65,10.65,0,0,1-1.66-1.609C0.674,21.57,3.579,16.415,5.608,13.5,10.623,6.31,18.476.864,22.112,1.852,22.7,2.02,24.661,4.3,24.661,4.3a51.194,51.194,0,0,0-7,4.853A31.969,31.969,0,0,0,7.63,23.324ZM33.122,34.413A0.144,0.144,0,0,0,33.2,34.27a0.134,0.134,0,0,0-.147-0.12,16.921,16.921,0,0,1-7.4-.757c0.391-1.279,1.432-.817,3.006-0.69a21.866,21.866,0,0,0,7.256-.788A16.594,16.594,0,0,0,41.347,29.2a11.037,11.037,0,0,1,.758,2.6,1.255,1.255,0,0,1,.8.146c0.342,0.212.594,0.652,0.422,1.791a9.931,9.931,0,0,1-2.76,5.441,11.378,11.378,0,0,1-3.314,2.491,13.966,13.966,0,0,1-2.165.919c-5.7,1.871-11.529-.186-13.409-4.6a7.109,7.109,0,0,1-.377-1.043,9.193,9.193,0,0,1,2-8.6,0,0,0,0,0,0,0,0.779,0.779,0,0,0,.265-0.512,0.906,0.906,0,0,0-.2-0.486c-0.744-1.085-3.32-2.933-2.8-6.509a4.858,4.858,0,0,1,4.691-4.272c0.176,0.009.352,0.02,0.528,0.03,0.9,0.054,1.691.17,2.435,0.2A4.851,4.851,0,0,0,31.9,15.555a2.855,2.855,0,0,1,1.412-.8,1.716,1.716,0,0,1,.539-0.053,1.775,1.775,0,0,1,.908.292c1.063,0.711,1.213,2.432,1.268,3.692,0.031,0.719.118,2.458,0.147,2.957,0.068,1.142.366,1.3,0.97,1.5,0.34,0.112.655,0.2,1.12,0.327a6.3,6.3,0,0,1,2.766,1.317,1.751,1.751,0,0,1,.5.994C41.7,27,40.6,28.5,37.672,29.865a19.545,19.545,0,0,1-9.758,1.57l-0.939-.107c-2.144-.29-3.367,2.5-2.08,4.4,0.829,1.23,3.088,2.03,5.348,2.031,5.182,0,9.165-2.224,10.646-4.145a2.027,2.027,0,0,0,.119-0.17c0.073-.111.013-0.171-0.078-0.109-1.21.833-6.587,4.138-12.338,3.144a7.627,7.627,0,0,1-1.337-.365,2.4,2.4,0,0,1-1.7-1.783C30.2,35.777,33.122,34.413,33.122,34.413Zm-7.352-.873h0v0ZM16.891,13.475a21.2,21.2,0,0,1,5.943-4.883,0.078,0.078,0,0,1,.1.106,5.78,5.78,0,0,0-.552,1.354,0.08,0.08,0,0,0,.123.085,11.539,11.539,0,0,1,5.217-1.852,0.083,0.083,0,0,1,.055.148,4.453,4.453,0,0,0-.821.828,0.08,0.08,0,0,0,.062.128,10.178,10.178,0,0,1,4.362,1.149,0.1,0.1,0,0,1-.068.184,17.662,17.662,0,0,0-7.9.021A18.107,18.107,0,0,0,17,13.594,0.081,0.081,0,0,1,16.891,13.475Z"/>
  <path id="Form_1" data-name="Form 1" class="mailchimp-dark" d="M11.125,24.471a4.152,4.152,0,0,0-1.022.073c-2.435.491-3.811,2.562-3.54,5.253a5.448,5.448,0,0,0,4.99,4.549,3.647,3.647,0,0,0,.7-0.049c2.469-.421,3.115-3.1,2.708-5.732C14.5,25.593,12.489,24.546,11.125,24.471Zm2.419,7.04a1.021,1.021,0,0,1-.963.479,1.337,1.337,0,0,1-1.2-1.38,3.53,3.53,0,0,1,.249-1.347,1.257,1.257,0,0,0-.476-1.515,1.289,1.289,0,0,0-.982-0.183,1.26,1.26,0,0,0-.8.555,2.952,2.952,0,0,0-.294.692c-0.013.043-.024,0.076-0.032,0.1a0.444,0.444,0,0,1-.411.372A0.24,0.24,0,0,1,8.448,29.1a2.643,2.643,0,0,1,.683-2.223,2.147,2.147,0,0,1,1.839-.663,2.182,2.182,0,0,1,1.67,1.214,2.781,2.781,0,0,1-.2,2.462c-0.028.063-.053,0.12-0.075,0.171a1.016,1.016,0,0,0-.024.941,0.649,0.649,0,0,0,.548.277,1.2,1.2,0,0,0,.3-0.042,0.311,0.311,0,0,1,.338.04A0.206,0.206,0,0,1,13.543,31.511Zm31.9-2.384a3.349,3.349,0,0,0-1.006-.836c-0.031-.1-0.064-0.212-0.1-0.325-0.041-.129-0.081-0.251-0.12-0.364a4.864,4.864,0,0,0,.437-2.9,4.737,4.737,0,0,0-1.343-2.637,8.811,8.811,0,0,0-3.7-1.969c-0.015-.585-0.033-1.248-0.051-1.661a11.194,11.194,0,0,0-.431-2.836,9.124,9.124,0,0,0-1.138-2.545,10.759,10.759,0,0,0,2.872-6.61c-0.005-3.341-2.607-5.5-6.629-5.5a16.859,16.859,0,0,0-6.3,1.4l-0.294.124c-0.673-.66-1.56-1.528-1.619-1.58a5.507,5.507,0,0,0-3.734-1.33,12.285,12.285,0,0,0-5.959,1.921A32.245,32.245,0,0,0,10.4,6.031c-4.014,3.823-7.25,8.4-8.657,12.245a10.911,10.911,0,0,0-.771,4.451,5.378,5.378,0,0,0,1.855,3.84l0.685,0.58a9.106,9.106,0,0,0-.17,2.972,8.169,8.169,0,0,0,2.8,5.259,8.724,8.724,0,0,0,4.48,2.122,17.622,17.622,0,0,0,6.379,7.012A20.379,20.379,0,0,0,27.3,47.552c0.24,0.007.482,0.011,0.721,0.011h0a20.322,20.322,0,0,0,10.507-2.758A16.67,16.67,0,0,0,45.354,36.9l0.014-.036a14.736,14.736,0,0,0,1.019-4.808A4.513,4.513,0,0,0,45.447,29.127ZM43.9,36.292c-2.657,6.364-9,9.906-16.55,9.682C20.3,45.765,14.3,42.051,11.671,36A6.936,6.936,0,0,1,7.2,34.2a6.6,6.6,0,0,1-2.28-4.235,7.248,7.248,0,0,1,.41-3.349l-1.476-1.25C-2.9,19.663,18.224-3.808,24.981,2.083c0.034,0.03,2.3,2.25,2.3,2.256l1.256-.533c5.926-2.453,10.735-1.269,10.741,2.645,0,2.035-1.294,4.408-3.373,6.561a6.582,6.582,0,0,1,1.7,3.039,9.57,9.57,0,0,1,.368,2.458c0.036,0.829.076,2.762,0.08,2.8,0.053,0.016.653,0.181,0.835,0.232a7.544,7.544,0,0,1,3.276,1.622,3.191,3.191,0,0,1,.928,1.8,3.461,3.461,0,0,1-.621,2.521,8.863,8.863,0,0,1,.356.955c0.175,0.561.3,1.026,0.322,1.095,0.643,0,1.653.74,1.653,2.525A13.342,13.342,0,0,1,43.9,36.292Zm-1.061-5.306a1.185,1.185,0,0,0-.747-0.137,10.262,10.262,0,0,0-.712-2.426,15.621,15.621,0,0,1-5.1,2.534,20.65,20.65,0,0,1-6.816.736c-1.478-.119-2.456-0.551-2.823.644a15.982,15.982,0,0,0,6.95.707,0.126,0.126,0,0,1,.138.112,0.134,0.134,0,0,1-.078.134s-2.745,1.274-7.1-.074a2.252,2.252,0,0,0,1.594,1.665,7.187,7.187,0,0,0,1.256.341c5.4,0.929,10.453-2.159,11.59-2.936,0.085-.058.142,0,0.073,0.1a1.865,1.865,0,0,1-.111.158c-1.392,1.794-5.133,3.872-10,3.872-2.123,0-4.245-.748-5.024-1.9-1.209-1.782-.06-4.384,1.954-4.113l0.882,0.1a18.454,18.454,0,0,0,9.166-1.466c2.748-1.275,3.786-2.678,3.63-3.814A1.632,1.632,0,0,0,41.08,24.3a5.933,5.933,0,0,0-2.6-1.23c-0.436-.123-0.733-0.2-1.051-0.306-0.567-.187-0.848-0.337-0.911-1.4-0.028-.466-0.109-2.091-0.138-2.762-0.052-1.176-.193-2.784-1.191-3.447a1.674,1.674,0,0,0-.853-0.273,1.616,1.616,0,0,0-.506.05,2.684,2.684,0,0,0-1.326.75,4.574,4.574,0,0,1-3.465,1.156c-0.7-.029-1.438-0.138-2.287-0.188-0.165-.01-0.331-0.02-0.5-0.029a4.554,4.554,0,0,0-4.406,3.989c-0.486,3.34,1.934,5.066,2.633,6.079a0.844,0.844,0,0,1,.192.454,0.727,0.727,0,0,1-.249.478,0,0,0,0,1,0,0,8.55,8.55,0,0,0-1.883,8.032,6.612,6.612,0,0,0,.354.974c1.766,4.125,7.244,6.045,12.6,4.3a13.147,13.147,0,0,0,2.033-.858,10.679,10.679,0,0,0,3.113-2.326,9.255,9.255,0,0,0,2.592-5.081C43.393,31.6,43.157,31.184,42.835,30.986ZM35.63,24.158a0.61,0.61,0,1,1-.567-0.806A0.715,0.715,0,0,1,35.63,24.158Zm-1.47-5.2c0.624-.1.926,0.545,1.149,1.612a3.175,3.175,0,0,1-.046,1.76,3.615,3.615,0,0,0-.929,0,3.607,3.607,0,0,1-.6-1.431C33.513,19.834,33.536,19.061,34.16,18.96ZM32.066,24.7a0.836,0.836,0,1,1,.459.872A0.715,0.715,0,0,1,32.066,24.7Zm-2.446-.323a0.511,0.511,0,0,1-.494.049,3.7,3.7,0,0,0-1.872.194,1.774,1.774,0,0,1-.425.118,0.14,0.14,0,0,1-.1-0.036,0.134,0.134,0,0,1-.044-0.106,0.709,0.709,0,0,1,.283-0.442,2.1,2.1,0,0,1,1.108-.462,1.692,1.692,0,0,1,1.524.5A0.164,0.164,0,0,1,29.62,24.374Zm-4.466-1.1a0.163,0.163,0,0,1-.163-0.119,1.072,1.072,0,0,1,.541-0.706,3.148,3.148,0,0,1,3.06-.367,2.623,2.623,0,0,1,1.154.929,0.325,0.325,0,0,1,.058.38,1.039,1.039,0,0,1-.828-0.212,3.655,3.655,0,0,0-1.726-.372A19.107,19.107,0,0,0,25.154,23.272Zm6.8-12.108a0.1,0.1,0,0,0,.064-0.171,9.6,9.6,0,0,0-4.1-1.073A0.075,0.075,0,0,1,27.862,9.8a4.172,4.172,0,0,1,.771-0.773,0.077,0.077,0,0,0-.052-0.138,10.878,10.878,0,0,0-4.9,1.729,0.076,0.076,0,0,1-.116-0.079,5.377,5.377,0,0,1,.518-1.265,0.073,0.073,0,0,0-.1-0.1,19.893,19.893,0,0,0-5.583,4.56,0.076,0.076,0,0,0,.1.112,17.057,17.057,0,0,1,6.027-2.663A16.684,16.684,0,0,1,31.954,11.164Zm-6.252-6a13.41,13.41,0,0,0-2.394-2.288c-3.415-.923-10.793,4.163-15.5,10.882C5.9,16.481,3.171,21.3,4.475,23.772a9.977,9.977,0,0,0,1.559,1.5,5.808,5.808,0,0,1,3.67-2.34A29.86,29.86,0,0,1,19.122,9.7,48.1,48.1,0,0,1,25.7,5.169Z"/>
</svg>
