<svg xmlns="http://www.w3.org/2000/svg" width="48" height="48" viewBox="0 0 48 48">
  <path id="Form_2" data-name="Form 2" d="M24.5,20.618a9.624,9.624,0,1,1,9.626-9.623A9.636,9.636,0,0,1,24.5,20.618Zm0-17.794a8.17,8.17,0,1,0,8.173,8.17A8.18,8.18,0,0,0,24.5,2.824ZM46.853,45.63H2.148A1.649,1.649,0,0,1,.5,43.983V11.722a1.649,1.649,0,0,1,1.647-1.647H15.424v1.453H2.148a0.194,0.194,0,0,0-.194.194V43.983a0.194,0.194,0,0,0,.194.194h44.7a0.2,0.2,0,0,0,.194-0.194V11.706a0.194,0.194,0,0,0-.194-0.194H33.238V10.059H46.853A1.649,1.649,0,0,1,48.5,11.706V43.983A1.649,1.649,0,0,1,46.853,45.63Zm-24.248-29.6a1.543,1.543,0,0,1-.783-0.215,1.527,1.527,0,0,1-.761-1.33V7.507a1.548,1.548,0,0,1,2.309-1.345l6.05,3.493a1.557,1.557,0,0,1,.013,2.672l-0.013.008-6.04,3.488A1.58,1.58,0,0,1,22.605,16.027ZM22.61,7.415a0.107,0.107,0,0,0-.053.015,0.081,0.081,0,0,0-.043.077v6.976a0.081,0.081,0,0,0,.043.077,0.1,0.1,0,0,0,.1,0l6.023-3.478a0.105,0.105,0,0,0,0-.175l-6.028-3.48A0.084,0.084,0,0,0,22.61,7.415ZM36.775,36.426a6.184,6.184,0,1,1,6.185-6.184A6.192,6.192,0,0,1,36.775,36.426Zm0-10.916a4.731,4.731,0,1,0,4.732,4.731A4.737,4.737,0,0,0,36.775,25.51ZM19.368,38.4a6.671,6.671,0,0,1,.013-1.056,12.482,12.482,0,0,0-2.923-7.961c-2.152-2.342-5.406-3.53-9.674-3.53V24.4c4.7,0,8.317,1.349,10.755,4.011A12.51,12.51,0,0,1,20.4,33.928a7.458,7.458,0,0,1,1.011-1.4c1.75-1.912,4.453-2.881,8.035-2.881V31.1c-3.148,0-5.487.806-6.95,2.4a6.682,6.682,0,0,0-1.651,3.877c0.01,0.592-.02.967-0.025,1.025H19.368Z"/>
</svg>
