<svg xmlns="http://www.w3.org/2000/svg" width="46" height="46" viewBox="0 0 46 46">
  <defs>
    <style>
      .popup-icon-important {
        fill: #ffd300;
        fill-rule: evenodd;
      }
    </style>
  </defs>
  <path id="Form_1" data-name="Form 1" class="popup-icon-important" d="M22.55,46C10.141,46,.311,36.176.092,23.452A22.606,22.606,0,0,1,6.7,7.1,23.233,23.233,0,0,1,22.925.107,21.939,21.939,0,0,1,39.018,6.554,23.1,23.1,0,0,1,22.96,46ZM23.332,2.1c-0.124,0-.248,0-0.373,0a21.257,21.257,0,0,0-14.845,6.4A20.613,20.613,0,0,0,2.079,23.417c0.2,11.745,9.3,20.779,20.846,20.589A21.13,21.13,0,0,0,43.805,22.688h0A21.106,21.106,0,0,0,37.62,7.973,20.112,20.112,0,0,0,23.332,2.1Zm-0.39,24.942a1,1,0,0,1-.994-1V12.076a0.994,0.994,0,1,1,1.987,0V26.044A1,1,0,0,1,22.942,27.041Zm0,7.982a2,2,0,1,1,1.987-2A1.993,1.993,0,0,1,22.942,35.023Zm0-2v0h0.994Z"/>
</svg>
