<svg xmlns="http://www.w3.org/2000/svg" xmlns:xlink="http://www.w3.org/1999/xlink" preserveAspectRatio="xMidYMid" width="24" height="24" viewBox="0 0 24 24">
  <path d="M23.500,4.000 L21.000,4.000 L21.000,23.500 C21.000,23.776 20.776,24.000 20.500,24.000 L3.500,24.000 C3.224,24.000 3.000,23.776 3.000,23.500 L3.000,4.000 L0.500,4.000 C0.224,4.000 -0.000,3.776 -0.000,3.500 C-0.000,3.224 0.224,3.000 0.500,3.000 L3.500,3.000 L7.000,3.000 L7.000,0.500 C7.000,0.224 7.224,-0.000 7.500,-0.000 L16.500,-0.000 C16.776,-0.000 17.000,0.224 17.000,0.500 L17.000,3.000 L20.500,3.000 L23.500,3.000 C23.776,3.000 24.000,3.224 24.000,3.500 C24.000,3.776 23.776,4.000 23.500,4.000 ZM16.000,1.000 L8.000,1.000 L8.000,3.000 L16.000,3.000 L16.000,1.000 ZM20.000,4.000 L16.500,4.000 L7.500,4.000 L4.000,4.000 L4.000,23.000 L20.000,23.000 L20.000,4.000 ZM7.500,7.000 C7.776,7.000 8.000,7.224 8.000,7.500 L8.000,19.000 C8.000,19.276 7.776,19.500 7.500,19.500 C7.224,19.500 7.000,19.276 7.000,19.000 L7.000,7.500 C7.000,7.224 7.224,7.000 7.500,7.000 ZM12.000,7.000 C12.276,7.000 12.500,7.224 12.500,7.500 L12.500,19.000 C12.500,19.276 12.276,19.500 12.000,19.500 C11.724,19.500 11.500,19.276 11.500,19.000 L11.500,7.500 C11.500,7.224 11.724,7.000 12.000,7.000 ZM16.500,6.500 C16.776,6.500 17.000,6.724 17.000,7.000 L17.000,18.500 C17.000,18.776 16.776,19.000 16.500,19.000 C16.224,19.000 16.000,18.776 16.000,18.500 L16.000,7.000 C16.000,6.724 16.224,6.500 16.500,6.500 Z"/>
</svg>
