<svg xmlns="http://www.w3.org/2000/svg" xmlns:xlink="http://www.w3.org/1999/xlink" preserveAspectRatio="xMidYMid" width="22" height="22" viewBox="0 0 22 22">
  <path d="M21.500,18.000 L18.000,18.000 L18.000,21.500 C18.000,21.776 17.776,22.000 17.500,22.000 L0.500,22.000 C0.224,22.000 -0.000,21.776 -0.000,21.500 L-0.000,4.500 C-0.000,4.224 0.224,4.000 0.500,4.000 L4.000,4.000 L4.000,0.500 C4.000,0.224 4.224,-0.000 4.500,-0.000 L21.500,-0.000 C21.776,-0.000 22.000,0.224 22.000,0.500 L22.000,17.500 C22.000,17.776 21.776,18.000 21.500,18.000 ZM1.000,5.000 L1.000,21.000 L17.000,21.000 L17.000,18.000 L4.500,18.000 C4.224,18.000 4.000,17.776 4.000,17.500 L4.000,5.000 L1.000,5.000 ZM21.000,1.000 L5.000,1.000 L5.000,17.000 L21.000,17.000 L21.000,1.000 Z"/>
</svg>
