<svg xmlns="http://www.w3.org/2000/svg" xmlns:xlink="http://www.w3.org/1999/xlink" preserveAspectRatio="xMidYMid" width="24" height="14" viewBox="0 0 24 14">
  <path d="M23.859,7.310 C23.643,7.583 18.500,14.000 12.000,14.000 C5.499,14.000 0.356,7.583 0.141,7.310 C-0.003,7.128 -0.003,6.872 0.141,6.690 C0.356,6.417 5.499,-0.000 12.000,-0.000 C18.500,-0.000 23.643,6.417 23.859,6.690 C24.003,6.872 24.003,7.128 23.859,7.310 ZM12.000,1.000 C6.767,1.000 2.292,5.730 1.185,7.000 C2.292,8.270 6.767,13.000 12.000,13.000 C17.232,13.000 21.707,8.270 22.815,7.000 C21.707,5.730 17.232,1.000 12.000,1.000 ZM12.000,11.500 C9.525,11.500 7.512,9.481 7.512,7.000 C7.512,4.519 9.525,2.500 12.000,2.500 C14.474,2.500 16.487,4.519 16.487,7.000 C16.487,9.481 14.474,11.500 12.000,11.500 ZM12.000,3.500 C10.076,3.500 8.510,5.070 8.510,7.000 C8.510,8.930 10.076,10.500 12.000,10.500 C13.924,10.500 15.490,8.930 15.490,7.000 C15.490,5.070 13.924,3.500 12.000,3.500 Z"/>
</svg>
