<svg xmlns="http://www.w3.org/2000/svg" width="20" height="20" viewBox="0 0 20 20">
  <defs>
    <style>
      .remove-image-icon {
        fill: #fff;
        fill-rule: evenodd;
      }
    </style>
  </defs>
  <circle cx="10" cy="10" r="10"/>
  <path id="Form_1" data-name="Form 1" class="remove-image-icon" d="M12.045,8.793L11.2,8.761l-0.182,5.1,0.84,0.031ZM9.58,8.777h0.84v5.1H9.58v-5.1Zm-0.6,5.082L8.8,8.761l-0.84.032,0.182,5.1ZM5,6.651V7.513H5.876L6.57,15.607A0.424,0.424,0,0,0,6.989,16H13a0.424,0.424,0,0,0,.418-0.393L14.11,7.513H15V6.651H5Zm7.612,8.487H7.374L6.719,7.513h6.548ZM11.373,5H8.627a0.71,0.71,0,0,0-.7.718V7.082h0.84V5.862h2.465V7.082h0.84V5.718A0.71,0.71,0,0,0,11.373,5Z"/>
</svg>
