<svg version="1.1" id="Layer_1" xmlns="http://www.w3.org/2000/svg" xmlns:xlink="http://www.w3.org/1999/xlink" x="0px" y="0px"
	 width="40px" height="40px" viewBox="0 0 40 40" style="enable-background:new 0 0 40 40;" xml:space="preserve">
<g>
	<path d="M18.9,18.4c-0.3,0-0.5,0.2-0.5,0.5v5.3c0,0.3,0.2,0.5,0.5,0.5s0.5-0.2,0.5-0.5v-5.3C19.4,18.6,19.2,18.4,18.9,18.4z"/>
	<path d="M22.1,18.4c-0.3,0-0.5,0.2-0.5,0.5v5.3c0,0.3,0.2,0.5,0.5,0.5s0.5-0.2,0.5-0.5v-5.3C22.6,18.6,22.4,18.4,22.1,18.4z"/>
	<path d="M28,14.6h-1.6c0,0,0,0,0,0h-2.7v-0.5c0-0.9-0.7-1.6-1.6-1.6h-3.2c-0.9,0-1.6,0.7-1.6,1.6v0.5h-2.7c0,0,0,0,0,0c0,0,0,0,0,0
		H13c-0.3,0-0.5,0.2-0.5,0.5c0,0.3,0.2,0.5,0.5,0.5h1.1L15.1,27c0.1,0.8,0.8,1.5,1.6,1.5h7.6l0,0c0.8,0,1.5-0.6,1.6-1.5l0.9-11.3H28
		c0,0,0,0,0,0c0.3,0,0.5-0.2,0.5-0.5C28.5,14.9,28.3,14.6,28,14.6z M18.4,14.1c0-0.3,0.2-0.5,0.5-0.5h3.2c0.3,0,0.5,0.2,0.5,0.5v0.5
		h-4.3V14.1z M24.9,27c0,0.3-0.3,0.5-0.5,0.5h-7.6c-0.3,0-0.5-0.2-0.5-0.5l-0.9-11.3h2.6h5.3h0h2.6L24.9,27z"/>
</g>
</svg>
