<svg version="1.1" id="Ebene_1" xmlns="http://www.w3.org/2000/svg" xmlns:xlink="http://www.w3.org/1999/xlink" x="0px" y="0px"
	 width="40px" height="40px" viewBox="0 0 40 40" style="enable-background:new 0 0 40 40;" xml:space="preserve">
<path d="M26.7,14.4l-1.2-1.2c-0.7-0.7-1.8-0.7-2.5,0l-9.5,9.5c-0.1,0.1-0.1,0.2-0.1,0.3l-0.7,3.7c0,0.2,0,0.3,0.1,0.5
	c0.1,0.1,0.2,0.1,0.4,0.1c0,0,0.1,0,0.1,0l3.7-0.7c0.1,0,0.2-0.1,0.3-0.1l9.5-9.5C27.4,16.2,27.4,15.1,26.7,14.4z M24.8,14l1.2,1.2
	c0.3,0.3,0.3,0.8,0,1l-0.2,0.2l-2.2-2.2l0.2-0.2C24.1,13.7,24.6,13.7,24.8,14z M24.4,17.8l-2.2-2.2l0.7-0.7l2.2,2.2L24.4,17.8z
	 M17.2,25L15,22.8l6.5-6.5l2.2,2.2L17.2,25z M14.4,23.6l2,2l-2.5,0.5L14.4,23.6z"/>
</svg>
