<svg xmlns="http://www.w3.org/2000/svg" width="60" height="60" viewBox="0 0 60 60">
  <path id="Form_2" data-name="Form 2" d="M26.672,32.7a0.662,0.662,0,0,1-.661-0.664h0v-13.3a0.661,0.661,0,1,1,1.323,0v13.3a0.663,0.663,0,0,1-.66.665h0ZM33.289,42a0.663,0.663,0,0,1-.661-0.664h0V28.043a0.662,0.662,0,1,1,1.324,0v13.3A0.663,0.663,0,0,1,33.289,42ZM30.642,23.389a0.658,0.658,0,0,1-.468-0.2l-3.5-3.519-3.5,3.519a0.659,0.659,0,0,1-.935-0.022,0.669,0.669,0,0,1,0-.918L26.2,18.258a0.659,0.659,0,0,1,.936,0L31.1,22.249a0.667,0.667,0,0,1,.01.94A0.658,0.658,0,0,1,30.642,23.389ZM33.289,42a0.657,0.657,0,0,1-.468-0.2L28.854,37.81a0.669,0.669,0,0,1,.024-0.941,0.659,0.659,0,0,1,.912,0l3.5,3.519,3.5-3.519a0.659,0.659,0,0,1,.935-0.024,0.668,0.668,0,0,1,.024.941l-0.023.023L33.765,41.8A0.657,0.657,0,0,1,33.289,42Z"/>
</svg>
