<?xml version="1.0" encoding="utf-8"?>
<!-- Generator: Adobe Illustrator 22.0.1, SVG Export Plug-In . SVG Version: 6.00 Build 0)  -->
<svg version="1.1" id="Ebene_1" xmlns="http://www.w3.org/2000/svg" xmlns:xlink="http://www.w3.org/1999/xlink" x="0px" y="0px"
	 width="70px" height="70px" viewBox="0 0 70 70" style="enable-background:new 0 0 70 70;" xml:space="preserve">
<style type="text/css">
	.st0{opacity:0.3;}
</style>
<path class="st0" d="M47,16v22H23V16H47 M48,15H22v24h26V15L48,15z"/>
<path d="M23,24h24v6H23V24 M22,23v8h26v-8H22L22,23z"/>
<g>
	<path d="M22.5,52.1V55h-1.2v-7.1h2c0.9,0,1.6,0.2,2,0.5s0.7,0.9,0.7,1.6c0,0.9-0.5,1.5-1.4,1.9l2,3.2h-1.3l-1.7-2.9H22.5z
		 M22.5,51.2h0.8c0.5,0,0.9-0.1,1.2-0.3s0.4-0.5,0.4-0.9c0-0.4-0.1-0.7-0.4-0.9s-0.7-0.3-1.2-0.3h-0.8V51.2z"/>
	<path d="M34.1,51.4c0,1.2-0.3,2.1-0.9,2.7s-1.4,1-2.5,1c-1.1,0-1.9-0.3-2.5-1c-0.6-0.6-0.9-1.5-0.9-2.7s0.3-2.1,0.9-2.7
		s1.4-0.9,2.5-0.9c1.1,0,1.9,0.3,2.5,1S34.1,50.2,34.1,51.4z M28.6,51.4c0,0.9,0.2,1.5,0.5,2c0.4,0.5,0.9,0.7,1.6,0.7
		c0.7,0,1.2-0.2,1.6-0.7s0.5-1.1,0.5-2c0-0.9-0.2-1.5-0.5-2s-0.9-0.7-1.6-0.7c-0.7,0-1.2,0.2-1.6,0.7S28.6,50.5,28.6,51.4z"/>
	<path d="M42.2,55h-1.3l-1.2-4.3c-0.1-0.2-0.1-0.5-0.2-0.8c-0.1-0.4-0.1-0.6-0.1-0.7c0,0.2-0.1,0.5-0.2,0.8
		c-0.1,0.3-0.1,0.6-0.2,0.7L37.8,55h-1.3l-0.9-3.6l-0.9-3.6h1.2l1,4.2c0.2,0.7,0.3,1.3,0.3,1.8c0-0.3,0.1-0.6,0.2-0.9
		s0.1-0.6,0.2-0.8l1.2-4.2h1.2l1.2,4.2c0.1,0.4,0.2,1,0.4,1.7c0-0.5,0.2-1.1,0.4-1.8l1-4.2H44L42.2,55z"/>
	<path d="M49.2,53.1c0,0.6-0.2,1.1-0.7,1.5s-1.1,0.5-1.9,0.5s-1.5-0.1-2-0.4v-1.1c0.3,0.2,0.7,0.3,1,0.4c0.4,0.1,0.7,0.1,1,0.1
		c0.5,0,0.8-0.1,1-0.3c0.2-0.2,0.3-0.4,0.3-0.7c0-0.3-0.1-0.5-0.3-0.7s-0.6-0.4-1.3-0.7c-0.7-0.3-1.1-0.6-1.4-0.9s-0.4-0.7-0.4-1.2
		c0-0.6,0.2-1.1,0.6-1.4s1-0.5,1.7-0.5c0.7,0,1.4,0.1,2,0.4l-0.4,1c-0.6-0.3-1.2-0.4-1.7-0.4c-0.4,0-0.7,0.1-0.9,0.2
		c-0.2,0.2-0.3,0.4-0.3,0.7c0,0.2,0,0.3,0.1,0.5c0.1,0.1,0.2,0.3,0.4,0.4s0.5,0.3,1,0.5c0.5,0.2,0.9,0.4,1.2,0.6s0.4,0.4,0.5,0.6
		S49.2,52.7,49.2,53.1z"/>
</g>
</svg>
