<?xml version="1.0" encoding="utf-8"?>
<!-- Generator: Adobe Illustrator 22.0.1, SVG Export Plug-In . SVG Version: 6.00 Build 0)  -->
<svg version="1.1" id="Ebene_1" xmlns="http://www.w3.org/2000/svg" xmlns:xlink="http://www.w3.org/1999/xlink" x="0px" y="0px"
	 width="70px" height="70px" viewBox="0 0 70 70" style="enable-background:new 0 0 70 70;" xml:space="preserve">
<style type="text/css">
	.st0{opacity:0.3;}
</style>
<path d="M47,16v22H23V16H47 M48,15H22v24h26V15L48,15z"/>
<path class="st0" d="M39.5,16v22h-9V16H39.5 M40.5,15h-11v24h11V15L40.5,15z"/>
<g>
	<path d="M16.4,53.1c0,0.6-0.2,1.1-0.7,1.5s-1.1,0.5-1.9,0.5s-1.5-0.1-2-0.4v-1.1c0.3,0.2,0.7,0.3,1,0.4s0.7,0.1,1,0.1
		c0.5,0,0.8-0.1,1-0.3s0.3-0.4,0.3-0.7c0-0.3-0.1-0.5-0.3-0.7s-0.6-0.4-1.3-0.7c-0.7-0.3-1.1-0.6-1.4-0.9s-0.4-0.7-0.4-1.2
		c0-0.6,0.2-1.1,0.6-1.4s1-0.5,1.7-0.5c0.7,0,1.4,0.1,2,0.4l-0.4,1c-0.6-0.3-1.2-0.4-1.7-0.4c-0.4,0-0.7,0.1-0.9,0.2
		c-0.2,0.2-0.3,0.4-0.3,0.7c0,0.2,0,0.3,0.1,0.5c0.1,0.1,0.2,0.3,0.4,0.4s0.5,0.3,1,0.5c0.5,0.2,0.9,0.4,1.2,0.6s0.4,0.4,0.5,0.6
		S16.4,52.7,16.4,53.1z"/>
	<path d="M21.8,55h-4v-7.1h4v1h-2.9v1.9h2.7v1h-2.7V54h2.9V55z"/>
	<path d="M26.4,48.8c-0.7,0-1.2,0.2-1.6,0.7s-0.6,1.1-0.6,2c0,0.9,0.2,1.5,0.6,2s0.9,0.7,1.6,0.7c0.3,0,0.6,0,0.9-0.1
		c0.3-0.1,0.6-0.1,0.9-0.2v1c-0.6,0.2-1.2,0.3-1.9,0.3c-1,0-1.8-0.3-2.4-0.9c-0.6-0.6-0.8-1.5-0.8-2.7c0-0.7,0.1-1.4,0.4-1.9
		s0.7-1,1.2-1.3s1.1-0.4,1.8-0.4c0.7,0,1.4,0.2,2,0.5l-0.4,1c-0.2-0.1-0.5-0.2-0.8-0.3C27,48.8,26.7,48.8,26.4,48.8z"/>
	<path d="M32.2,55H31v-6.1h-2.1v-1h5.4v1h-2.1V55z"/>
	<path d="M35.4,55v-7.1h1.2V55H35.4z"/>
	<path d="M44.7,51.4c0,1.2-0.3,2.1-0.9,2.7c-0.6,0.6-1.4,1-2.5,1c-1.1,0-1.9-0.3-2.5-1c-0.6-0.6-0.9-1.5-0.9-2.7s0.3-2.1,0.9-2.7
		c0.6-0.6,1.4-0.9,2.5-0.9c1.1,0,1.9,0.3,2.5,1S44.7,50.2,44.7,51.4z M39.3,51.4c0,0.9,0.2,1.5,0.5,2c0.4,0.5,0.9,0.7,1.6,0.7
		c0.7,0,1.2-0.2,1.6-0.7c0.4-0.4,0.5-1.1,0.5-2c0-0.9-0.2-1.5-0.5-2c-0.4-0.5-0.9-0.7-1.6-0.7c-0.7,0-1.2,0.2-1.6,0.7
		C39.5,49.9,39.3,50.5,39.3,51.4z"/>
	<path d="M52.2,55h-1.4l-3.5-5.7h0l0,0.3c0,0.6,0.1,1.2,0.1,1.7V55h-1.1v-7.1h1.4l3.5,5.7h0c0-0.1,0-0.3,0-0.8c0-0.5,0-0.8,0-1.1
		v-3.7h1.1V55z"/>
	<path d="M58.2,53.1c0,0.6-0.2,1.1-0.7,1.5s-1.1,0.5-1.9,0.5s-1.5-0.1-2-0.4v-1.1c0.3,0.2,0.7,0.3,1,0.4c0.4,0.1,0.7,0.1,1,0.1
		c0.5,0,0.8-0.1,1-0.3c0.2-0.2,0.3-0.4,0.3-0.7c0-0.3-0.1-0.5-0.3-0.7s-0.6-0.4-1.3-0.7c-0.7-0.3-1.1-0.6-1.4-0.9s-0.4-0.7-0.4-1.2
		c0-0.6,0.2-1.1,0.6-1.4s1-0.5,1.7-0.5c0.7,0,1.4,0.1,2,0.4l-0.4,1c-0.6-0.3-1.2-0.4-1.7-0.4c-0.4,0-0.7,0.1-0.9,0.2
		c-0.2,0.2-0.3,0.4-0.3,0.7c0,0.2,0,0.3,0.1,0.5c0.1,0.1,0.2,0.3,0.4,0.4s0.5,0.3,1,0.5c0.5,0.2,0.9,0.4,1.2,0.6s0.4,0.4,0.5,0.6
		S58.2,52.7,58.2,53.1z"/>
</g>
</svg>
