<svg xmlns="http://www.w3.org/2000/svg" xmlns:xlink="http://www.w3.org/1999/xlink" preserveAspectRatio="xMidYMid" width="20" height="70" viewBox="0 0 20 70">
  <path d="M8.031,41.452 C7.993,41.507 7.970,41.569 7.920,41.617 C7.691,41.843 7.389,41.948 7.088,41.941 C6.788,41.948 6.485,41.843 6.256,41.617 C6.207,41.569 6.184,41.507 6.146,41.453 L0.435,35.815 C-0.009,35.377 -0.009,34.666 0.435,34.228 C0.879,33.790 1.599,33.790 2.043,34.228 L7.088,39.208 L17.955,28.481 C18.399,28.043 19.119,28.043 19.563,28.481 C20.007,28.919 20.007,29.630 19.563,30.068 L8.031,41.452 Z"/>
</svg>
