<svg xmlns="http://www.w3.org/2000/svg" width="24" height="24" viewBox="0 0 24 24">
  <path id="Form_2" data-name="Form 2" d="M23.5,21h-4a0.5,0.5,0,0,1-.5-0.5V19a1.25,1.25,0,0,0-2.5,0v1.5a0.5,0.5,0,0,1-.5.5H8a0.5,0.5,0,0,1-.5-0.5V19A1.25,1.25,0,0,0,5,19v1.5a0.5,0.5,0,0,1-.5.5h-4A0.5,0.5,0,0,1,0,20.5V3.5A0.5,0.5,0,0,1,.5,3h23a0.5,0.5,0,0,1,.5.5v17A0.5,0.5,0,0,1,23.5,21ZM20,20h3V4H1V20H4V19a2.25,2.25,0,0,1,4.5,0v1h7V19A2.25,2.25,0,0,1,20,19v1Zm1-6H13V13h8v1Zm0-2H13V11h8v1Zm0-2H13V9h8v1ZM17,8H13V7h4V8Zm-6,7H3a0.5,0.5,0,0,1-.5-0.5v-2a0.5,0.5,0,0,1,.084-0.277A4.24,4.24,0,0,1,5.5,10.528V10.263A2.773,2.773,0,0,1,4.5,8c0-1,0-2.5,2.5-2.5S9.5,7,9.5,8a2.773,2.773,0,0,1-1,2.263v0.265a4.24,4.24,0,0,1,2.916,1.694,0.5,0.5,0,0,1,.084.277v2A0.5,0.5,0,0,1,11,15ZM3.5,14h7V12.668A3.243,3.243,0,0,0,8,11.5,0.5,0.5,0,0,1,7.5,11V10a0.5,0.5,0,0,1,.276-0.447A1.7,1.7,0,0,0,8.5,8c0-1,0-1.5-1.5-1.5S5.5,7,5.5,8a1.7,1.7,0,0,0,.73,1.556A0.512,0.512,0,0,1,6.5,10v1a0.5,0.5,0,0,1-.5.5,3.255,3.255,0,0,0-2.5,1.168V14Z"/>
</svg>
