<svg xmlns="http://www.w3.org/2000/svg" width="60" height="84" viewBox="0 0 60 84">
  <defs>
     <style>
      .sml-mime-font-icon {
        fill: #888888;
      }
    </style>
  </defs>
  <path id="Aa" class="sml-mime-font-icon" d="M27.6,43.011h3.956L19.868,10.627H16.05L4.32,43.011H8.276l2.53-7.084h14.26Zm-9.614-27.14,5.934,16.744H12ZM49.17,33.8a6.051,6.051,0,0,1-.439,2.218,6.248,6.248,0,0,1-1.339,2.057,6.7,6.7,0,0,1-2.239,1.509,7.956,7.956,0,0,1-3.14.571,6.9,6.9,0,0,1-2.332-.343,4.3,4.3,0,0,1-1.524-.891,3.45,3.45,0,0,1-.855-1.258,3.81,3.81,0,0,1-.277-1.394,3.75,3.75,0,0,1,.208-1.143,2.714,2.714,0,0,1,.831-1.189A5.214,5.214,0,0,1,39.8,33a8.994,8.994,0,0,1,2.91-.389H49.17V33.8ZM43.328,22.587a8.293,8.293,0,0,1,3.1.483A4.374,4.374,0,0,1,48.2,24.289a3.77,3.77,0,0,1,.782,1.61,8.293,8.293,0,0,1,.184,1.7v1.978H42.408a13.372,13.372,0,0,0-3.956.529,8.886,8.886,0,0,0-2.875,1.449A6.165,6.165,0,0,0,33.806,33.7a5.82,5.82,0,0,0-.6,2.6,6.61,6.61,0,0,0,2.231,5.2,9.221,9.221,0,0,0,6.325,1.978,9.689,9.689,0,0,0,2.99-.506,9.873,9.873,0,0,0,2.208-1.081,9.45,9.45,0,0,0,1.518-1.242,8.071,8.071,0,0,0,.874-1.035,4.321,4.321,0,0,0,1.095,2.645,3.644,3.644,0,0,0,2.815,1.035q0.459,0,1.035-.046a9.4,9.4,0,0,0,1.357-.23v-3.22a4.2,4.2,0,0,1-1.242.184,1.143,1.143,0,0,1-1.2-.712,5.887,5.887,0,0,1-.276-2.042V29.143q0-5-2.26-7.435T43.35,19.275a12.243,12.243,0,0,0-3.482.483,8.9,8.9,0,0,0-2.882,1.426,7.089,7.089,0,0,0-2.006,2.392,8,8,0,0,0-.852,3.381q0.919,0.138,1.84.322l1.84,0.368q0.092-5.06,5.52-5.06h0Z"/>
</svg>
