<svg xmlns="http://www.w3.org/2000/svg" width="32" height="64" viewBox="0 0 32 64">
  <defs>
    <style>
      .sml-add-folder-kreis {
        fill: #f5f5f5;
      }
    </style>
  </defs>
  <circle id="Ellipse_1_Kopie" data-name="Ellipse 1 Kopie" class="sml-add-folder-kreis" cx="16" cy="16" r="16"/>
  <path id="Form_1" data-name="Form 1" d="M22.172,17.269H10.793a0.776,0.776,0,1,1,0-1.552H22.172A0.776,0.776,0,1,1,22.172,17.269Zm-5.69,5.69a0.776,0.776,0,0,1-.776-0.776V10.8a0.776,0.776,0,1,1,1.552,0V22.183A0.776,0.776,0,0,1,16.483,22.959Z"/>
  <path id="Form_3" data-name="Form 3" d="M23.557,55.98H8.445A2.4,2.4,0,0,1,6,53.623V42.379a2.4,2.4,0,0,1,2.439-2.361h2.667a2.474,2.474,0,0,1,1.719.682l0.964,0.924h9.766A2.4,2.4,0,0,1,26,43.981s0,0,0,0V53.62a2.4,2.4,0,0,1-2.44,2.36h0ZM8.445,41.527a0.886,0.886,0,0,0-.915.852V53.62a0.885,0.885,0,0,0,.915.851H23.557a0.885,0.885,0,0,0,.915-0.851V43.985a0.886,0.886,0,0,0-.915-0.851H13.481a0.769,0.769,0,0,1-.532-0.213l-1.186-1.136a0.956,0.956,0,0,0-.656-0.258H8.445Z"/>
</svg>
