<svg xmlns="http://www.w3.org/2000/svg" width="50" height="50" viewBox="0 0 50 50">
  <defs>
    <style>
      .sml-metas-icon {
        fill: #ffffff;
      }
    </style>
  </defs>
  <path id="Form_1" data-name="Form 1" class="sml-metas-icon" d="M21.567,35.79a2.481,2.481,0,0,1-.951-0.188,2.509,2.509,0,0,1-1.542-2.426l0.064-1.253a1,1,0,0,0-.29-0.755,0.974,0.974,0,0,0-.754-0.29l-1.25.064a2.5,2.5,0,0,1-1.806-4.35l0.93-.84a1,1,0,0,0,0-1.479l-0.93-.845a2.5,2.5,0,0,1,1.8-4.348l1.251,0.063a0.983,0.983,0,0,0,.757-0.29,1,1,0,0,0,.289-0.756l-0.06-1.255a2.5,2.5,0,0,1,4.346-1.8l0.84,0.928v0a1.024,1.024,0,0,0,1.476,0l0.847-.93a2.5,2.5,0,0,1,4.349,1.806L30.869,18.1a1,1,0,0,0,.29.753,0.977,0.977,0,0,0,.752.291l1.247-.064a2.5,2.5,0,0,1,1.8,4.353l-0.931.84a1,1,0,0,0,0,1.478l0.931,0.84a2.5,2.5,0,0,1,.633,2.812,2.536,2.536,0,0,1-2.437,1.54l-1.248-.063a1.021,1.021,0,0,0-.754.29,0.994,0.994,0,0,0-.29.754l0.064,1.25a2.5,2.5,0,0,1-4.342,1.8l-0.842-.932a1.029,1.029,0,0,0-1.478,0l-0.845.93A2.5,2.5,0,0,1,21.567,35.79Zm-3.422-6.419A2.5,2.5,0,0,1,20.64,32l-0.064,1.248a0.995,0.995,0,0,0,1.73.712l0.843-.929a2.584,2.584,0,0,1,3.708,0l0.84,0.929a1,1,0,0,0,1.725-.72L29.36,32a2.5,2.5,0,0,1,2.624-2.624l1.248,0.063a1.008,1.008,0,0,0,.97-0.613A1,1,0,0,0,33.95,27.7l-0.93-.84a2.5,2.5,0,0,1,0-3.713l0.931-.839a1,1,0,0,0,.251-1.119,1.013,1.013,0,0,0-.968-0.614l-1.248.064a2.5,2.5,0,0,1-2.619-2.622l0.064-1.25a0.995,0.995,0,0,0-1.732-.718l-0.846.929a2.582,2.582,0,0,1-3.708,0l-0.839-.927a0.995,0.995,0,0,0-1.729.719l0.06,1.25a2.5,2.5,0,0,1-2.626,2.626l-1.248-.063a1,1,0,0,0-.713,1.731l0.929,0.843a2.5,2.5,0,0,1,0,3.712l-0.929.839a1,1,0,0,0,.721,1.73l1.249-.064Q18.081,29.371,18.145,29.371ZM25,29.777a4.769,4.769,0,1,1,4.767-4.769A4.773,4.773,0,0,1,25,29.777Zm0-8.033a3.264,3.264,0,1,0,3.262,3.264A3.266,3.266,0,0,0,25,21.744Z"/>
</svg>
