<svg xmlns="http://www.w3.org/2000/svg" width="48" height="84" viewBox="0 0 48 84">
<defs>
    <style>
      .sml-mime-file-icon-dark {
        fill: #67676a;
      }
    </style>
  </defs>
  <path id="Form_1" data-name="Form 1" class="sml-mime-file-icon-dark" d="M34.712,50.99H7.745A3.772,3.772,0,0,1,4,47.2V14.619a0.749,0.749,0,1,1,1.5,0V47.2a2.263,2.263,0,0,0,2.247,2.273H34.712A0.758,0.758,0,0,1,34.712,50.99ZM14.237,44.423a4.386,4.386,0,0,1-4.245-4.5V8.489a4.378,4.378,0,0,1,4.224-4.477h17.8a4.167,4.167,0,0,1,3.02,1.328l6.686,7.118a4.587,4.587,0,0,1,1.231,3.151V39.937a4.383,4.383,0,0,1-4.224,4.486H14.237Zm17.774-38.9H14.237A2.867,2.867,0,0,0,11.49,8.471V39.946a2.875,2.875,0,0,0,2.767,2.962h24.45a2.868,2.868,0,0,0,2.747-2.944V15.605a3.071,3.071,0,0,0-.821-2.107L33.945,6.38A2.669,2.669,0,0,0,32.011,5.526Z"/>
</svg>
