<svg xmlns="http://www.w3.org/2000/svg" width="16" height="16" viewBox="0 0 16 16">
<defs>
    <style>
      .sml-meta-url-icon {
        fill: #ffffff;
      }
    </style>
  </defs>
  <path id="Form_1" data-name="Form 1" class="sml-meta-url-icon" d="M11.466,16H1.493a1.5,1.5,0,0,1-1.5-1.5V4.527a1.5,1.5,0,0,1,1.5-1.5H6.48a0.5,0.5,0,0,1,0,1H1.493a0.5,0.5,0,0,0-.5.5v9.978a0.5,0.5,0,0,0,.5.5h9.973a0.5,0.5,0,0,0,.5-0.5V9.546a0.5,0.5,0,1,1,1,0v4.959A1.5,1.5,0,0,1,11.466,16ZM3.488,13.018a0.5,0.5,0,0,1-.353-0.852L15.1,0.193A0.5,0.5,0,1,1,15.808.9L3.84,12.872A0.5,0.5,0,0,1,3.488,13.018ZM15.455,7.031a0.5,0.5,0,0,1-.5-0.5V1.044H9.472a0.5,0.5,0,0,1,0-1h5.984a0.5,0.5,0,0,1,.5.5V6.532A0.5,0.5,0,0,1,15.455,7.031Z"/>
</svg>
