<svg xmlns="http://www.w3.org/2000/svg" width="48" height="48" viewBox="0 0 48 48">
  <defs>
    <style>
      .sml-upload-icon {
        fill: #000000;
      }
    </style>
  </defs>
  <path id="Form_1" data-name="Form 1" class="sml-upload-icon" d="M24.518,48a1,1,0,0,1-1.009-.993V28.682a1.009,1.009,0,0,1,2.018,0v18.33A1,1,0,0,1,24.518,48Zm7.756-10.7a1.013,1.013,0,0,1-.713-0.291l-7.042-6.932-7.042,6.932a1.02,1.02,0,0,1-1.427,0,0.981,0.981,0,0,1,0-1.4L23.8,27.979a1.02,1.02,0,0,1,1.427,0l7.756,7.634a0.981,0.981,0,0,1,0,1.4A1.014,1.014,0,0,1,32.274,37.309Zm5.487-4.573H35.384a0.993,0.993,0,1,1,0-1.986h2.373a9.26,9.26,0,0,0,4.076-.947,9.091,9.091,0,0,0,3.23-2.675,8.839,8.839,0,0,0-.787-11.544,9.145,9.145,0,0,0-3.565-2.226,9.2,9.2,0,0,0-8.133,1.117,1.024,1.024,0,0,1-.959.1,1,1,0,0,1-.609-0.736A14.2,14.2,0,0,0,27.593,7a14.536,14.536,0,0,0-6.508-4.136,14.718,14.718,0,0,0-7.743-.249A14.569,14.569,0,0,0,6.574,6.326a14.228,14.228,0,0,0-3.862,6.61,14.061,14.061,0,0,0,.145,7.624,14.248,14.248,0,0,0,4.111,6.462,14.586,14.586,0,0,0,6.9,3.457,0.994,0.994,0,0,1,.788,1.171,1.014,1.014,0,0,1-1.189.776,16.631,16.631,0,0,1-7.865-3.938A16.232,16.232,0,0,1,.923,21.126a16.026,16.026,0,0,1-.166-8.685,16.212,16.212,0,0,1,4.4-7.53A16.6,16.6,0,0,1,12.867.685a16.777,16.777,0,0,1,8.82.283A16.549,16.549,0,0,1,29.1,5.681a16.2,16.2,0,0,1,3.567,6.428A11.219,11.219,0,0,1,45.723,14.2a10.947,10.947,0,0,1,2.636,4.367,10.782,10.782,0,0,1-1.675,9.741,11.089,11.089,0,0,1-3.948,3.269A11.3,11.3,0,0,1,37.761,32.736Z"/>
</svg>
