<svg xmlns="http://www.w3.org/2000/svg" width="19" height="40" viewBox="0 0 19 40" fill="white">
  <path id="Form_1" data-name="Form 1" d="M18.38,13.771H0.626a0.609,0.609,0,1,1,0-1.218H18.38A0.609,0.609,0,0,1,18.38,13.771Zm-5.707,0H6.333a0.609,0.609,0,0,1-.609-0.609V11.895A1.879,1.879,0,0,1,7.6,10.018h3.8a1.878,1.878,0,0,1,1.876,1.877v1.268A0.609,0.609,0,0,1,12.674,13.771ZM6.942,12.554h5.124V11.895a0.66,0.66,0,0,0-.66-0.659H7.6a0.66,0.66,0,0,0-.659.659v0.659Zm0.659,12a0.609,0.609,0,0,1-.609-0.608V17.6a0.609,0.609,0,0,1,1.218,0v6.341A0.609,0.609,0,0,1,7.6,24.55Zm3.8,0a0.608,0.608,0,0,1-.608-0.608V17.6a0.608,0.608,0,1,1,1.217,0v6.341A0.608,0.608,0,0,1,11.406,24.55Zm2.637,4.438H4.964a1.889,1.889,0,0,1-1.871-1.721L1.922,13.213a0.609,0.609,0,0,1,.607-0.659H16.478a0.609,0.609,0,0,1,.606.659L15.913,27.268A1.888,1.888,0,0,1,14.043,28.989ZM3.19,13.771l1.117,13.4a0.664,0.664,0,0,0,.657.605h9.079a0.665,0.665,0,0,0,.658-0.605h0l1.116-13.4H3.19Z"/>
</svg>
