<svg xmlns="http://www.w3.org/2000/svg" width="20" height="38" viewBox="0 0 20 38">
  <defs>
    <style>
      .sml-folder-icon-dark {
        fill: #67676a;
      }
    </style>
  </defs>
  <path id="Form_1" data-name="Form 1" class="sml-folder-icon-dark" d="M17.551,26.991H2.462A2.4,2.4,0,0,1,.023,24.628V13.371a2.4,2.4,0,0,1,2.439-2.364H5.121a2.466,2.466,0,0,1,1.716.683L7.8,12.615h9.751a2.4,2.4,0,0,1,2.439,2.364v9.649A2.4,2.4,0,0,1,17.551,26.991ZM2.462,12.518a0.886,0.886,0,0,0-.914.853V24.628a0.885,0.885,0,0,0,.914.852H17.551a0.885,0.885,0,0,0,.914-0.852V14.979a0.886,0.886,0,0,0-.914-0.852H7.491a0.766,0.766,0,0,1-.531-0.213L5.776,12.776a0.953,0.953,0,0,0-.655-0.258H2.462Z"/>
</svg>