<svg xmlns="http://www.w3.org/2000/svg" width="48" height="84" viewBox="0 0 48 84">
<defs>
    <style>
      .sml-mime-video-icon {
        fill: #888888;
      }
    </style>
  </defs>
  <path id="Form_1" data-name="Form 1" class="sml-mime-video-icon" d="M43.013,49H5.084a5,5,0,0,1-4.991-4.99V20.063a1,1,0,0,1,1-1H47.005a1,1,0,0,1,1,1V44.014A5,5,0,0,1,43.013,49ZM2.09,21.061V44.014a3,3,0,0,0,2.994,2.994H43.013a3,3,0,0,0,2.994-2.994V21.061H2.09Zm44.916-3.992H1.092a1,1,0,0,1-1-1V10.083a5,5,0,0,1,4.991-4.99H43.013A5,5,0,0,1,48,10.083v5.988A1,1,0,0,1,47.005,17.069Zm-44.916-2H46.007v-4.99a3,3,0,0,0-2.994-2.994H5.084A3,3,0,0,0,2.09,10.083v4.99ZM18.366,42.328a2.307,2.307,0,0,1-2.3-2.306V28.047a2.3,2.3,0,0,1,3.226-2.112h0l13.227,5.788a2.522,2.522,0,0,1,0,4.622L19.291,42.133A2.3,2.3,0,0,1,18.366,42.328Zm0-14.591a0.3,0.3,0,0,0-.167.05,0.31,0.31,0,0,0-.14.259V40.022a0.31,0.31,0,0,0,.14.259,0.3,0.3,0,0,0,.289.024l13.228-5.789a0.527,0.527,0,0,0,0-.966L18.49,27.763h0A0.305,0.305,0,0,0,18.367,27.738ZM9.077,17.069a1,1,0,0,1-.706-1.7l9.981-9.98A1,1,0,0,1,19.764,6.8l-9.981,9.98A1,1,0,0,1,9.077,17.069Zm9.981,0a1,1,0,0,1-.706-1.7l9.981-9.98A1,1,0,0,1,29.745,6.8l-9.981,9.98A1,1,0,0,1,19.058,17.069Zm9.981,0a1,1,0,0,1-.706-1.7l9.981-9.98A1,1,0,0,1,39.726,6.8l-9.981,9.98A1,1,0,0,1,29.039,17.069Zm9.981,0a1,1,0,0,1-.706-1.7l7.632-7.63a1,1,0,1,1,1.411,1.411l-7.632,7.63A1,1,0,0,1,39.02,17.069Zm-37.929-2a1,1,0,0,1-.706-1.7L8.371,5.386A1,1,0,0,1,9.782,6.8L1.8,14.781A1,1,0,0,1,1.092,15.073Z"/>
</svg>
