<svg xmlns="http://www.w3.org/2000/svg" width="40" height="40" viewBox="0 0 40 40">
  <defs>
    <style>
      .style-formact-selected-icon {
        fill: #29cf77;
        fill-rule: evenodd;
      }
    </style>
  </defs>
  <path id="Form_1" data-name="Form 1" class="style-formact-selected-icon" d="M17.32,25.917H17.269a1.8,1.8,0,0,1-1.441-.8l-2.44-3.463a0.75,0.75,0,0,1,1.227-.863l2.45,3.477a0.3,0.3,0,0,0,.248.147A0.325,0.325,0,0,0,17.56,24.3l7.852-9.935a0.75,0.75,0,1,1,1.178.93l-7.843,9.923A1.8,1.8,0,0,1,17.32,25.917ZM20,32A12,12,0,1,1,32,20,12.013,12.013,0,0,1,20,32ZM20,9.5A10.5,10.5,0,1,0,30.5,20,10.511,10.511,0,0,0,20,9.5Z"/>
</svg>
