<svg width="31" height="20" viewBox="0 0 31 20" fill="none" xmlns="http://www.w3.org/2000/svg">
<path d="M9 4.5C9 6.98528 6.98528 9 4.5 9C2.01472 9 0 6.98528 0 4.5C0 2.01472 2.01472 0 4.5 0C6.98528 0 9 2.01472 9 4.5Z" fill="black"/>
<path d="M20 4.5C20 6.98528 17.9853 9 15.5 9C13.0147 9 11 6.98528 11 4.5C11 2.01472 13.0147 0 15.5 0C17.9853 0 20 2.01472 20 4.5Z" fill="#4D4D4C"/>
<path d="M31 4.5C31 6.98528 28.9853 9 26.5 9C24.0147 9 22 6.98528 22 4.5C22 2.01472 24.0147 0 26.5 0C28.9853 0 31 2.01472 31 4.5Z" fill="#757474"/>
<path d="M9 15.5C9 17.9853 6.98528 20 4.5 20C2.01472 20 0 17.9853 0 15.5C0 13.0147 2.01472 11 4.5 11C6.98528 11 9 13.0147 9 15.5Z" fill="#999998"/>
<path d="M20 15.5C20 17.9853 17.9853 20 15.5 20C13.0147 20 11 17.9853 11 15.5C11 13.0147 13.0147 11 15.5 11C17.9853 11 20 13.0147 20 15.5Z" fill="#BBBABA"/>
<path d="M31 15.5C31 17.9853 28.9853 20 26.5 20C24.0147 20 22 17.9853 22 15.5C22 13.0147 24.0147 11 26.5 11C28.9853 11 31 13.0147 31 15.5Z" fill="#DADADA"/>
</svg>
