<svg width="19" height="17" viewBox="0 0 19 17" fill="none" xmlns="http://www.w3.org/2000/svg">
<path fill-rule="evenodd" clip-rule="evenodd" d="M11.5 8C11.5 7.72386 11.7239 7.5 12 7.5H18.3529C18.6291 7.5 18.8529 7.72386 18.8529 8V9.58824C18.8529 9.86438 18.6291 10.0882 18.3529 10.0882C18.0768 10.0882 17.8529 9.86438 17.8529 9.58824V8.5H12.5V9.58824C12.5 9.86438 12.2761 10.0882 12 10.0882C11.7239 10.0882 11.5 9.86438 11.5 9.58824V8Z" fill="black"/>
<path fill-rule="evenodd" clip-rule="evenodd" d="M15.1765 7.5C15.4526 7.5 15.6765 7.72386 15.6765 8V15.9412C15.6765 16.2173 15.4526 16.4412 15.1765 16.4412C14.9003 16.4412 14.6765 16.2173 14.6765 15.9412V8C14.6765 7.72386 14.9003 7.5 15.1765 7.5Z" fill="black"/>
<path fill-rule="evenodd" clip-rule="evenodd" d="M13.0882 15.9412C13.0882 15.6651 13.312 15.4412 13.5882 15.4412H16.7647C17.0408 15.4412 17.2647 15.6651 17.2647 15.9412C17.2647 16.2173 17.0408 16.4412 16.7647 16.4412H13.5882C13.312 16.4412 13.0882 16.2173 13.0882 15.9412Z" fill="black"/>
<path fill-rule="evenodd" clip-rule="evenodd" d="M0.25 1C0.25 0.585786 0.585786 0.25 1 0.25H13C13.4142 0.25 13.75 0.585786 13.75 1V4C13.75 4.41421 13.4142 4.75 13 4.75C12.5858 4.75 12.25 4.41421 12.25 4V1.75H1.75V4C1.75 4.41421 1.41421 4.75 1 4.75C0.585786 4.75 0.25 4.41421 0.25 4V1Z" fill="black"/>
<path fill-rule="evenodd" clip-rule="evenodd" d="M7 0.25C7.41421 0.25 7.75 0.585786 7.75 1V16C7.75 16.4142 7.41421 16.75 7 16.75C6.58579 16.75 6.25 16.4142 6.25 16V1C6.25 0.585786 6.58579 0.25 7 0.25Z" fill="black"/>
<path fill-rule="evenodd" clip-rule="evenodd" d="M3.25 16C3.25 15.5858 3.58579 15.25 4 15.25H10C10.4142 15.25 10.75 15.5858 10.75 16C10.75 16.4142 10.4142 16.75 10 16.75H4C3.58579 16.75 3.25 16.4142 3.25 16Z" fill="black"/>
</svg>
