<svg width="20" height="12" viewBox="0 0 20 12" fill="none" xmlns="http://www.w3.org/2000/svg">
<path d="M4 1C4 0.447715 4.44772 0 5 0H19C19.5523 0 20 0.447715 20 1V1C20 1.55228 19.5523 2 19 2H5C4.44772 2 4 1.55228 4 1V1Z" fill="white"/>
<path d="M4 6C4 5.44772 4.44772 5 5 5H19C19.5523 5 20 5.44772 20 6V6C20 6.55228 19.5523 7 19 7H5C4.44772 7 4 6.55228 4 6V6Z" fill="white"/>
<path d="M4 11C4 10.4477 4.44772 10 5 10H19C19.5523 10 20 10.4477 20 11V11C20 11.5523 19.5523 12 19 12H5C4.44772 12 4 11.5523 4 11V11Z" fill="white"/>
<path d="M0 1C0 0.447715 0.447715 0 1 0H2C2.55228 0 3 0.447715 3 1V1C3 1.55228 2.55228 2 2 2H1C0.447715 2 0 1.55228 0 1V1Z" fill="white"/>
<path d="M0 6C0 5.44772 0.447715 5 1 5H2C2.55228 5 3 5.44772 3 6V6C3 6.55228 2.55228 7 2 7H1C0.447715 7 0 6.55228 0 6V6Z" fill="white"/>
<path d="M0 11C0 10.4477 0.447715 10 1 10H2C2.55228 10 3 10.4477 3 11V11C3 11.5523 2.55228 12 2 12H1C0.447715 12 0 11.5523 0 11V11Z" fill="white"/>
</svg>
