<svg width="16" height="17" viewBox="0 0 16 17" fill="none" xmlns="http://www.w3.org/2000/svg">
<path fill-rule="evenodd" clip-rule="evenodd" d="M0.25 1C0.25 0.585786 0.585786 0.25 1 0.25H13C13.4142 0.25 13.75 0.585786 13.75 1V4C13.75 4.41421 13.4142 4.75 13 4.75C12.5858 4.75 12.25 4.41421 12.25 4V1.75H1.75V4C1.75 4.41421 1.41421 4.75 1 4.75C0.585786 4.75 0.25 4.41421 0.25 4V1Z" fill="black"/>
<path fill-rule="evenodd" clip-rule="evenodd" d="M7 0.25C7.41421 0.25 7.75 0.585786 7.75 1V16C7.75 16.4142 7.41421 16.75 7 16.75C6.58579 16.75 6.25 16.4142 6.25 16V1C6.25 0.585786 6.58579 0.25 7 0.25Z" fill="black"/>
<path fill-rule="evenodd" clip-rule="evenodd" d="M3.25 16C3.25 15.5858 3.58579 15.25 4 15.25H10C10.4142 15.25 10.75 15.5858 10.75 16C10.75 16.4142 10.4142 16.75 10 16.75H4C3.58579 16.75 3.25 16.4142 3.25 16Z" fill="black"/>
<path d="M10.4749 13.4246C10.2796 13.2294 10.2796 12.9128 10.4749 12.7175L14.7175 8.4749C14.9128 8.27963 15.2294 8.27963 15.4246 8.4749C15.6199 8.67016 15.6199 8.98674 15.4246 9.182L11.182 13.4246C10.9867 13.6199 10.6702 13.6199 10.4749 13.4246Z" fill="black"/>
<path d="M10.4749 8.47489C10.6701 8.27963 10.9867 8.27963 11.182 8.47489L15.4246 12.7175C15.6199 12.9128 15.6199 13.2294 15.4246 13.4246C15.2294 13.6199 14.9128 13.6199 14.7175 13.4246L10.4749 9.182C10.2796 8.98674 10.2796 8.67015 10.4749 8.47489Z" fill="black"/>
</svg>
