<svg width="16" height="12" viewBox="0 0 16 12" fill="none" xmlns="http://www.w3.org/2000/svg">
<path d="M0 1C0 0.447715 0.447715 0 1 0H15C15.5523 0 16 0.447715 16 1V1C16 1.55228 15.5523 2 15 2H1C0.447715 2 0 1.55228 0 1V1Z" fill="black"/>
<path d="M0 6C0 5.44772 0.447715 5 1 5H12C12.5523 5 13 5.44772 13 6V6C13 6.55228 12.5523 7 12 7H1C0.447715 7 0 6.55228 0 6V6Z" fill="black"/>
<path d="M0 11C0 10.4477 0.447715 10 1 10H9C9.55228 10 10 10.4477 10 11V11C10 11.5523 9.55228 12 9 12H1C0.447716 12 0 11.5523 0 11V11Z" fill="black"/>
</svg>
