<svg width="17" height="17" viewBox="0 0 17 17" fill="none" xmlns="http://www.w3.org/2000/svg">
<path fill-rule="evenodd" clip-rule="evenodd" d="M3.98293 7.4987C4.54301 7.2858 5.1418 7.19382 5.73996 7.22878C6.10011 7.24983 6.375 7.55886 6.35395 7.91901C6.3329 8.27916 6.02387 8.55406 5.66372 8.53301C5.24955 8.5088 4.83494 8.57249 4.44713 8.7199C4.05933 8.86731 3.7071 9.09511 3.41358 9.38832L3.40526 9.39663L3.40519 9.39656L2.52528 10.2445C1.96685 10.805 1.65322 11.5641 1.65322 12.3555C1.65322 13.1489 1.96837 13.9097 2.52934 14.4707C3.09031 15.0317 3.85115 15.3468 4.64448 15.3468C5.43782 15.3468 6.19866 15.0317 6.75963 14.4707L7.6117 13.6186C7.90492 13.3251 8.13271 12.9729 8.28012 12.5851C8.42754 12.1972 8.49123 11.7826 8.46702 11.3685C8.44596 11.0083 8.72086 10.6993 9.08101 10.6782C9.44116 10.6572 9.75019 10.9321 9.77124 11.2922C9.80621 11.8904 9.71422 12.4892 9.50133 13.0493C9.28843 13.6093 8.95944 14.118 8.53598 14.5419L8.53574 14.5422L7.68343 15.3945C6.87745 16.2005 5.78431 16.6533 4.64448 16.6533C3.50466 16.6533 2.41152 16.2005 1.60554 15.3945C0.799565 14.5885 0.346771 13.4954 0.346771 12.3555C0.346771 11.2157 0.799565 10.1226 1.60554 9.3166L1.6141 9.30804L1.61417 9.30812L2.4946 8.45972C2.91762 8.03834 3.42476 7.71087 3.98293 7.4987Z" fill="white"/>
<path fill-rule="evenodd" clip-rule="evenodd" d="M10.2445 2.52528L9.38839 3.41366C9.09518 3.70717 8.86731 4.05932 8.7199 4.44713C8.57249 4.83494 8.5088 5.24954 8.53301 5.66372C8.55406 6.02387 8.27916 6.33289 7.91901 6.35395C7.55886 6.375 7.24983 6.10011 7.22878 5.73995C7.19382 5.1418 7.2858 4.54301 7.4987 3.98293C7.71087 3.42476 8.03834 2.91762 8.45972 2.49459L9.31652 1.60546C10.1225 0.799485 11.2157 0.346771 12.3555 0.346771C13.4954 0.346771 14.5885 0.799565 15.3945 1.60554C16.2005 2.41152 16.6533 3.50466 16.6533 4.64448C16.6533 5.78431 16.2005 6.87745 15.3945 7.68342L14.5422 8.53574C14.1183 8.9592 13.6093 9.28843 13.0493 9.50132C12.4892 9.71422 11.8904 9.80621 11.2922 9.77124C10.9321 9.75019 10.6572 9.44116 10.6782 9.08101C10.6993 8.72086 11.0083 8.44596 11.3685 8.46702C11.7826 8.49123 12.1972 8.42753 12.5851 8.28012C12.9728 8.13275 13.3249 7.90504 13.6184 7.61194C13.6184 7.61186 13.6183 7.61202 13.6184 7.61194L14.4707 6.75962C15.0317 6.19865 15.3468 5.43781 15.3468 4.64448C15.3468 3.85115 15.0317 3.09031 14.4707 2.52934C13.9097 1.96837 13.1489 1.65322 12.3555 1.65322C11.5641 1.65322 10.805 1.96685 10.2445 2.52528Z" fill="white"/>
<path fill-rule="evenodd" clip-rule="evenodd" d="M11.945 5.05503C12.2001 5.31013 12.2001 5.72373 11.945 5.97883L5.97877 11.945C5.72367 12.2001 5.31007 12.2001 5.05497 11.945C4.79987 11.6899 4.79987 11.2763 5.05497 11.0212L11.0212 5.05503C11.2763 4.79993 11.6899 4.79993 11.945 5.05503Z" fill="white"/>
</svg>
