<svg width="11" height="17" viewBox="0 0 11 17" fill="none" xmlns="http://www.w3.org/2000/svg">
<rect y="16" width="11" height="1" rx="0.5" fill="black"/>
<path fill-rule="evenodd" clip-rule="evenodd" d="M1.00001 0.25C1.41423 0.25 1.75001 0.585786 1.75001 1V7.06742C1.75001 8.08315 1.76083 9.40045 2.24514 10.4646C2.47814 10.9766 2.81288 11.4085 3.30038 11.7179C3.78931 12.0283 4.4864 12.25 5.50001 12.25C6.51362 12.25 7.21071 12.0283 7.69964 11.7179C8.18715 11.4085 8.52188 10.9766 8.75488 10.4646C9.23919 9.40045 9.25001 8.08315 9.25001 7.06742V1C9.25001 0.585786 9.5858 0.25 10 0.25C10.4142 0.25 10.75 0.585786 10.75 1V7.06742C10.75 7.08295 10.75 7.09866 10.75 7.11455C10.7502 8.08241 10.7505 9.70094 10.1201 11.086C9.79064 11.81 9.28163 12.4904 8.50351 12.9843C7.72681 13.4773 6.7364 13.75 5.50001 13.75C4.26362 13.75 3.27321 13.4773 2.49651 12.9843C1.7184 12.4904 1.20938 11.81 0.879883 11.086C0.249541 9.70093 0.249832 8.08241 0.250006 7.11455C0.250009 7.09866 0.250012 7.08295 0.250012 7.06742V1C0.250012 0.585786 0.585798 0.25 1.00001 0.25Z" fill="black"/>
</svg>
