<svg width="21" height="12" viewBox="0 0 21 12" fill="none" xmlns="http://www.w3.org/2000/svg">
<path d="M5 1C5 0.447715 5.44772 0 6 0H20C20.5523 0 21 0.447715 21 1V1C21 1.55228 20.5523 2 20 2H6C5.44772 2 5 1.55228 5 1V1Z" fill="black"/>
<path d="M5 6C5 5.44772 5.44772 5 6 5H20C20.5523 5 21 5.44772 21 6V6C21 6.55228 20.5523 7 20 7H6C5.44772 7 5 6.55228 5 6V6Z" fill="black"/>
<path d="M5 11C5 10.4477 5.44772 10 6 10H20C20.5523 10 21 10.4477 21 11V11C21 11.5523 20.5523 12 20 12H6C5.44772 12 5 11.5523 5 11V11Z" fill="black"/>
<path d="M0 1H1V2H0V1ZM1 0H2V5H1V0ZM0 7H1V8H0V7ZM1 7H2V8H1V7ZM2 8H3V9H2V8ZM1 9H2V10H1V9ZM0 10H1V11H0V10ZM0 11H1V12H0V11ZM1 11H2V12H1V11ZM2 11H3V12H2V11Z" fill="black"/>
</svg>
