<svg width="25" height="18" viewBox="0 0 25 18" fill="none" xmlns="http://www.w3.org/2000/svg">
<path fill-rule="evenodd" clip-rule="evenodd" d="M0.25 2C0.25 1.58579 0.585786 1.25 1 1.25H13C13.4142 1.25 13.75 1.58579 13.75 2V5C13.75 5.41421 13.4142 5.75 13 5.75C12.5858 5.75 12.25 5.41421 12.25 5V2.75H1.75V5C1.75 5.41421 1.41421 5.75 1 5.75C0.585786 5.75 0.25 5.41421 0.25 5V2Z" fill="white"/>
<path fill-rule="evenodd" clip-rule="evenodd" d="M7 1.25C7.41421 1.25 7.75 1.58579 7.75 2V17C7.75 17.4142 7.41421 17.75 7 17.75C6.58579 17.75 6.25 17.4142 6.25 17V2C6.25 1.58579 6.58579 1.25 7 1.25Z" fill="white"/>
<path fill-rule="evenodd" clip-rule="evenodd" d="M3.25 17C3.25 16.5858 3.58579 16.25 4 16.25H10C10.4142 16.25 10.75 16.5858 10.75 17C10.75 17.4142 10.4142 17.75 10 17.75H4C3.58579 17.75 3.25 17.4142 3.25 17Z" fill="white"/>
<path d="M18 3.5C18 3.22386 18.2239 3 18.5 3H24.5C24.7761 3 25 3.22386 25 3.5V3.5C25 3.77614 24.7761 4 24.5 4H18.5C18.2239 4 18 3.77614 18 3.5V3.5Z" fill="white"/>
<path d="M21.5 -2.18557e-08C21.7761 -9.78512e-09 22 0.223858 22 0.5L22 6.5C22 6.77614 21.7761 7 21.5 7V7C21.2239 7 21 6.77614 21 6.5L21 0.5C21 0.223858 21.2239 -3.39263e-08 21.5 -2.18557e-08V-2.18557e-08Z" fill="white"/>
</svg>
