<svg width="14" height="17" viewBox="0 0 14 17" fill="none" xmlns="http://www.w3.org/2000/svg">
<path fill-rule="evenodd" clip-rule="evenodd" d="M0.25 1C0.25 0.585786 0.585786 0.25 1 0.25H13C13.4142 0.25 13.75 0.585786 13.75 1V4C13.75 4.41421 13.4142 4.75 13 4.75C12.5858 4.75 12.25 4.41421 12.25 4V1.75H1.75V4C1.75 4.41421 1.41421 4.75 1 4.75C0.585786 4.75 0.25 4.41421 0.25 4V1Z" fill="white"/>
<path fill-rule="evenodd" clip-rule="evenodd" d="M7 0.25C7.41421 0.25 7.75 0.585786 7.75 1V16C7.75 16.4142 7.41421 16.75 7 16.75C6.58579 16.75 6.25 16.4142 6.25 16V1C6.25 0.585786 6.58579 0.25 7 0.25Z" fill="white"/>
<path fill-rule="evenodd" clip-rule="evenodd" d="M3.25 16C3.25 15.5858 3.58579 15.25 4 15.25H10C10.4142 15.25 10.75 15.5858 10.75 16C10.75 16.4142 10.4142 16.75 10 16.75H4C3.58579 16.75 3.25 16.4142 3.25 16Z" fill="white"/>
<rect x="1" y="8" width="12" height="1" rx="0.5" fill="white"/>
</svg>
