<svg width="30" height="30" viewBox="0 0 30 30" fill="none" xmlns="http://www.w3.org/2000/svg">
<path d="M15 28.8375V17.7625" stroke-width="1.5" stroke-linecap="round" stroke-linejoin="round"/>
<path d="M10.3875 22.375L15 17.7625L19.6124 22.375" stroke-width="1.5" stroke-linecap="round" stroke-linejoin="round"/>
<path d="M21.4624 19.6125H22.8499C23.7927 19.6167 24.7233 19.3987 25.5661 18.9761C26.4089 18.5536 27.1403 17.9383 27.7009 17.1803C28.2615 16.4222 28.6356 15.5427 28.7928 14.6131C28.9501 13.6835 28.886 12.7299 28.6058 11.8296C28.3257 10.9294 27.8373 10.1079 27.1803 9.43162C26.5233 8.75539 25.7162 8.2435 24.8244 7.93746C23.9327 7.63142 22.9813 7.53984 22.0475 7.67016C21.1138 7.80047 20.2238 8.14901 19.4499 8.68751C19.14 7.04354 18.3888 5.51482 17.2768 4.26495C16.1648 3.01508 14.7338 2.09113 13.1371 1.59199C11.5404 1.09284 9.83795 1.03729 8.21207 1.43129C6.5862 1.82528 5.09807 2.65399 3.90696 3.82871C2.71585 5.00342 1.8666 6.47993 1.45012 8.10019C1.03363 9.72045 1.06559 11.4235 1.54256 13.027C2.01953 14.6305 2.92357 16.0741 4.15791 17.2033C5.39224 18.3325 6.91042 19.1048 8.54993 19.4375" stroke-width="1.5" stroke-linecap="round" stroke-linejoin="round"/>
</svg>
