<svg xmlns="http://www.w3.org/2000/svg" width="47" height="47" viewBox="0 0 47 47">
  <path id="Form_1" data-name="Form 1" fill="#000000" d="M29.023,33H17.976a0.5,0.5,0,0,1-.5-0.46l-1-15.41a0.491,0.491,0,0,1,.134-0.369,0.5,0.5,0,0,1,.364-0.155h13.04a0.5,0.5,0,0,1,.364.155,0.491,0.491,0,0,1,.134.369l-1,15.41A0.5,0.5,0,0,1,29.023,33Zm-10.58-.984H28.556l0.933-14.427H17.51Zm8.316-14.422h-6.52a0.5,0.5,0,0,1-.5-0.492V14.491a0.5,0.5,0,0,1,.5-0.492h6.52a0.5,0.5,0,0,1,.5.492V17.1A0.5,0.5,0,0,1,26.759,17.594Zm-6.022-.983h5.524V14.983H20.737v1.629Zm11.728,0.983H14.534a0.492,0.492,0,0,1-.062-0.983,0.5,0.5,0,0,1,.063,0H32.465a0.492,0.492,0,0,1,.063.983A0.5,0.5,0,0,1,32.465,17.594Zm-11.508,11.8a0.5,0.5,0,0,1-.5-0.465L20,20.728a0.5,0.5,0,0,1,.469-0.521,0.486,0.486,0,0,1,.523.447c0,0.006,0,.011,0,0.017l0.458,8.2a0.5,0.5,0,0,1-.47.518H20.957Zm2.543,0a0.5,0.5,0,0,1-.5-0.487v-8.2a0.5,0.5,0,1,1,1,0v8.2A0.5,0.5,0,0,1,23.5,29.393Zm2.543,0H26.015a0.5,0.5,0,0,1-.47-0.518L26,20.67a0.487,0.487,0,0,1,.508-0.464h0.018a0.5,0.5,0,0,1,.47.518L26.541,28.93A0.5,0.5,0,0,1,26.043,29.393Z"/>
</svg>
