<svg xmlns="http://www.w3.org/2000/svg" width="19" height="16" viewBox="0 0 19 16">
  <path id="Form_1" data-name="Form 1" d="M18.9,9.6L16.921,1.9A2.447,2.447,0,0,0,14.542,0H4.432A2.447,2.447,0,0,0,2.054,1.9L0.074,9.6v4.1a2.156,2.156,0,0,0,2,2.3l0.074,0H16.921A2.2,2.2,0,0,0,19,13.8V10.3A1.968,1.968,0,0,1,18.9,9.6ZM2.945,2.1A1.722,1.722,0,0,1,4.432,1h10.11a1.723,1.723,0,0,1,1.487,1.1l1.487,6a1.458,1.458,0,0,0-.7-0.1H2.152a1.457,1.457,0,0,0-.7.1ZM17.912,13.7a1.131,1.131,0,0,1-1.059,1.2H2.152a1.077,1.077,0,0,1-1.09-1.2V10.2A1.2,1.2,0,0,1,2.152,9H16.921a1.2,1.2,0,0,1,1.09,1.2v3.5h-0.1ZM15.434,13H3.54a0.5,0.5,0,0,0,0,1H15.434A0.5,0.5,0,0,0,15.434,13Zm0-3H11.47a0.5,0.5,0,0,0,0,1h3.965A0.5,0.5,0,0,0,15.434,10Z"/>
</svg>
