<svg width="242" height="172" viewBox="0 0 242 172" fill="none" xmlns="http://www.w3.org/2000/svg">
<path d="M1 3C1 1.89543 1.89543 1 3 1H239C240.105 1 241 1.89543 241 3V11H1V3Z" fill="#5891F7" fill-opacity="0.1" stroke="#5891F7"/>
<ellipse cx="7.22211" cy="6" rx="1.77778" ry="2" fill="#5891F7"/>
<ellipse cx="13.4448" cy="6" rx="1.77778" ry="2" fill="#5891F7"/>
<ellipse cx="19.6669" cy="6" rx="1.77778" ry="2" fill="#5891F7"/>
<rect x="1" y="11" width="240" height="160" stroke="#5891F7"/>
<path d="M37.987 87.192V81.508H41.039C42.971 81.508 44.147 82.6 44.147 84.364C44.147 86.072 42.971 87.192 41.039 87.192H37.987ZM41.515 90.524C45.435 90.524 48.039 87.948 48.039 84.336C48.039 80.752 45.435 78.148 41.515 78.148H34.095V98H37.959V90.524H41.515ZM48.9033 94.248C48.9033 96.404 50.6953 98.392 53.6353 98.392C55.6793 98.392 56.9953 97.44 57.6953 96.348C57.6953 96.88 57.7513 97.636 57.8353 98H61.2513C61.1673 97.524 61.0833 96.544 61.0833 95.816V89.04C61.0833 86.268 59.4593 83.804 55.0913 83.804C51.3953 83.804 49.4073 86.184 49.1833 88.34L52.4873 89.04C52.5993 87.836 53.4953 86.8 55.1193 86.8C56.6873 86.8 57.4433 87.612 57.4433 88.592C57.4433 89.068 57.1913 89.46 56.4073 89.572L53.0193 90.076C50.7233 90.412 48.9033 91.784 48.9033 94.248ZM54.4193 95.62C53.2153 95.62 52.6273 94.836 52.6273 94.024C52.6273 92.96 53.3833 92.428 54.3353 92.288L57.4433 91.812V92.428C57.4433 94.864 55.9873 95.62 54.4193 95.62ZM63.2423 98.756C63.6343 101.388 66.1543 103.74 69.9343 103.74C75.1143 103.74 77.1583 100.296 77.1583 96.516V84.224H73.5743V85.848C73.0983 84.924 71.8383 83.972 69.6543 83.972C65.8743 83.972 63.2423 87.052 63.2423 90.692C63.2423 94.556 65.9863 97.384 69.6543 97.384C71.6423 97.384 72.9303 96.516 73.4903 95.62V96.628C73.4903 99.288 72.1743 100.464 69.8223 100.464C68.0583 100.464 66.8543 99.372 66.6023 97.86L63.2423 98.756ZM70.2983 94.192C68.3663 94.192 66.9943 92.848 66.9943 90.692C66.9943 88.564 68.4503 87.22 70.2983 87.22C72.0903 87.22 73.5463 88.564 73.5463 90.692C73.5463 92.82 72.2023 94.192 70.2983 94.192ZM83.0854 89.544C83.1694 88.284 84.2334 86.828 86.1654 86.828C88.2934 86.828 89.1894 88.172 89.2454 89.544H83.0854ZM89.6094 93.128C89.1614 94.36 88.2094 95.228 86.4734 95.228C84.6254 95.228 83.0854 93.912 83.0014 92.092H92.8574C92.8574 92.036 92.9134 91.476 92.9134 90.944C92.9134 86.52 90.3654 83.804 86.1094 83.804C82.5814 83.804 79.3334 86.66 79.3334 91.056C79.3334 95.704 82.6654 98.42 86.4454 98.42C89.8334 98.42 92.0174 96.432 92.7174 94.052L89.6094 93.128ZM118.332 98V78.148H114.44V86.128H105.788V78.148H101.924V98H105.788V89.768H114.44V98H118.332ZM124.663 89.544C124.747 88.284 125.811 86.828 127.743 86.828C129.871 86.828 130.767 88.172 130.823 89.544H124.663ZM131.187 93.128C130.739 94.36 129.787 95.228 128.051 95.228C126.203 95.228 124.663 93.912 124.579 92.092H134.435C134.435 92.036 134.491 91.476 134.491 90.944C134.491 86.52 131.943 83.804 127.687 83.804C124.159 83.804 120.911 86.66 120.911 91.056C120.911 95.704 124.243 98.42 128.023 98.42C131.411 98.42 133.595 96.432 134.295 94.052L131.187 93.128ZM136.024 94.248C136.024 96.404 137.816 98.392 140.756 98.392C142.8 98.392 144.116 97.44 144.816 96.348C144.816 96.88 144.872 97.636 144.956 98H148.372C148.288 97.524 148.204 96.544 148.204 95.816V89.04C148.204 86.268 146.58 83.804 142.212 83.804C138.516 83.804 136.528 86.184 136.304 88.34L139.608 89.04C139.72 87.836 140.616 86.8 142.24 86.8C143.808 86.8 144.564 87.612 144.564 88.592C144.564 89.068 144.312 89.46 143.528 89.572L140.14 90.076C137.844 90.412 136.024 91.784 136.024 94.248ZM141.54 95.62C140.336 95.62 139.748 94.836 139.748 94.024C139.748 92.96 140.504 92.428 141.456 92.288L144.564 91.812V92.428C144.564 94.864 143.108 95.62 141.54 95.62ZM164.475 77.728H160.807V85.596C160.415 84.868 159.295 83.888 156.915 83.888C153.023 83.888 150.307 87.052 150.307 91.084C150.307 95.256 153.107 98.336 157.027 98.336C158.875 98.336 160.275 97.496 160.891 96.404C160.891 97.048 160.975 97.72 161.031 98H164.587C164.531 97.44 164.475 96.432 164.475 95.508V77.728ZM154.059 91.084C154.059 88.62 155.571 87.22 157.475 87.22C159.379 87.22 160.863 88.592 160.863 91.056C160.863 93.548 159.379 95.004 157.475 95.004C155.515 95.004 154.059 93.548 154.059 91.084ZM171.679 98V77.728H167.955V98H171.679ZM178.83 98V84.224H175.106V98H178.83ZM174.658 79.716C174.658 80.948 175.694 81.984 176.954 81.984C178.242 81.984 179.25 80.948 179.25 79.716C179.25 78.428 178.242 77.392 176.954 77.392C175.694 77.392 174.658 78.428 174.658 79.716ZM185.981 90.076C185.981 88.48 186.933 87.22 188.557 87.22C190.349 87.22 191.105 88.424 191.105 89.964V98H194.829V89.32C194.829 86.296 193.261 83.86 189.845 83.86C188.361 83.86 186.709 84.504 185.869 85.932V84.224H182.257V98H185.981V90.076ZM200.764 89.544C200.848 88.284 201.912 86.828 203.844 86.828C205.972 86.828 206.868 88.172 206.924 89.544H200.764ZM207.288 93.128C206.84 94.36 205.888 95.228 204.152 95.228C202.304 95.228 200.764 93.912 200.68 92.092H210.536C210.536 92.036 210.592 91.476 210.592 90.944C210.592 86.52 208.044 83.804 203.788 83.804C200.26 83.804 197.012 86.66 197.012 91.056C197.012 95.704 200.344 98.42 204.124 98.42C207.512 98.42 209.696 96.432 210.396 94.052L207.288 93.128Z" fill="#5891F7"/>
</svg>
