<svg width="242" height="172" viewBox="0 0 242 172" fill="none" xmlns="http://www.w3.org/2000/svg">
<path d="M1 3C1 1.89543 1.89543 1 3 1H239C240.105 1 241 1.89543 241 3V11H1V3Z" fill="#E0E7F4" stroke="#5891F7"/>
<circle cx="8" cy="6" r="2" fill="#5891F7"/>
<circle cx="15" cy="6" r="2" fill="#5891F7"/>
<circle cx="22" cy="6" r="2" fill="#5891F7"/>
<rect x="1" y="11" width="240" height="160" stroke="#5891F7"/>
<g opacity="0.8">
<path d="M90.6327 84.6458L45.0546 130.304C44.4292 130.93 44.8729 132 45.758 132H154.079C154.964 132 155.408 130.93 154.782 130.304L109.204 84.6458C104.078 79.511 95.7584 79.5111 90.6327 84.6458Z" fill="url(#paint0_linear)"/>
<path d="M149.676 54.8222L95.5492 109.032C94.9237 109.658 95.3674 110.728 96.2525 110.728H221.669C222.554 110.728 222.998 109.658 222.372 109.032L168.245 54.8222C163.12 49.689 154.802 49.6889 149.676 54.8222Z" fill="url(#paint1_linear)"/>
<circle cx="58.6686" cy="54.6686" r="21.6686" fill="url(#paint2_linear)"/>
</g>
<defs>
<linearGradient id="paint0_linear" x1="100.021" y1="79.0522" x2="100.021" y2="135.503" gradientUnits="userSpaceOnUse">
<stop offset="0.309392" stop-color="white"/>
<stop offset="1" stop-color="white" stop-opacity="0"/>
</linearGradient>
<linearGradient id="paint1_linear" x1="159.079" y1="49.7914" x2="159.079" y2="114.759" gradientUnits="userSpaceOnUse">
<stop offset="0.309392" stop-color="white"/>
<stop offset="1" stop-color="white" stop-opacity="0"/>
</linearGradient>
<linearGradient id="paint2_linear" x1="58.7081" y1="35.8366" x2="58.7081" y2="79.0162" gradientUnits="userSpaceOnUse">
<stop offset="0.309392" stop-color="white"/>
<stop offset="1" stop-color="white" stop-opacity="0"/>
</linearGradient>
</defs>
</svg>
