<svg width="242" height="172" viewBox="0 0 242 172" fill="none" xmlns="http://www.w3.org/2000/svg">
<path d="M1 3C1 1.89543 1.89543 1 3 1H239C240.105 1 241 1.89543 241 3V11H1V3Z" fill="#5891F7" fill-opacity="0.1" stroke="#5891F7"/>
<ellipse cx="7.22211" cy="6" rx="1.77778" ry="2" fill="#5891F7"/>
<ellipse cx="13.4448" cy="6" rx="1.77778" ry="2" fill="#5891F7"/>
<ellipse cx="19.6669" cy="6" rx="1.77778" ry="2" fill="#5891F7"/>
<rect x="1" y="11" width="240" height="160" stroke="#5891F7"/>
<path d="M28.16 110.192V104.508H31.212C33.144 104.508 34.32 105.6 34.32 107.364C34.32 109.072 33.144 110.192 31.212 110.192H28.16ZM31.688 113.524C35.608 113.524 38.212 110.948 38.212 107.336C38.212 103.752 35.608 101.148 31.688 101.148H24.268V121H28.132V113.524H31.688ZM39.0763 117.248C39.0763 119.404 40.8683 121.392 43.8083 121.392C45.8523 121.392 47.1683 120.44 47.8683 119.348C47.8683 119.88 47.9243 120.636 48.0083 121H51.4243C51.3403 120.524 51.2563 119.544 51.2563 118.816V112.04C51.2563 109.268 49.6323 106.804 45.2643 106.804C41.5683 106.804 39.5803 109.184 39.3563 111.34L42.6603 112.04C42.7723 110.836 43.6683 109.8 45.2923 109.8C46.8603 109.8 47.6163 110.612 47.6163 111.592C47.6163 112.068 47.3643 112.46 46.5803 112.572L43.1923 113.076C40.8963 113.412 39.0763 114.784 39.0763 117.248ZM44.5923 118.62C43.3883 118.62 42.8003 117.836 42.8003 117.024C42.8003 115.96 43.5563 115.428 44.5083 115.288L47.6163 114.812V115.428C47.6163 117.864 46.1603 118.62 44.5923 118.62ZM53.4153 121.756C53.8073 124.388 56.3273 126.74 60.1073 126.74C65.2873 126.74 67.3313 123.296 67.3313 119.516V107.224H63.7473V108.848C63.2713 107.924 62.0113 106.972 59.8273 106.972C56.0473 106.972 53.4153 110.052 53.4153 113.692C53.4153 117.556 56.1593 120.384 59.8273 120.384C61.8153 120.384 63.1033 119.516 63.6633 118.62V119.628C63.6633 122.288 62.3473 123.464 59.9953 123.464C58.2313 123.464 57.0273 122.372 56.7753 120.86L53.4153 121.756ZM60.4713 117.192C58.5393 117.192 57.1673 115.848 57.1673 113.692C57.1673 111.564 58.6233 110.22 60.4713 110.22C62.2633 110.22 63.7193 111.564 63.7193 113.692C63.7193 115.82 62.3753 117.192 60.4713 117.192ZM73.2584 112.544C73.3424 111.284 74.4064 109.828 76.3384 109.828C78.4664 109.828 79.3624 111.172 79.4184 112.544H73.2584ZM79.7824 116.128C79.3344 117.36 78.3824 118.228 76.6464 118.228C74.7984 118.228 73.2584 116.912 73.1744 115.092H83.0304C83.0304 115.036 83.0864 114.476 83.0864 113.944C83.0864 109.52 80.5384 106.804 76.2824 106.804C72.7544 106.804 69.5064 109.66 69.5064 114.056C69.5064 118.704 72.8384 121.42 76.6184 121.42C80.0064 121.42 82.1904 119.432 82.8904 117.052L79.7824 116.128ZM40.676 149V129.148H36.784V137.128H28.132V129.148H24.268V149H28.132V140.768H36.784V149H40.676ZM47.0073 140.544C47.0913 139.284 48.1553 137.828 50.0873 137.828C52.2153 137.828 53.1113 139.172 53.1673 140.544H47.0073ZM53.5313 144.128C53.0833 145.36 52.1313 146.228 50.3953 146.228C48.5473 146.228 47.0073 144.912 46.9233 143.092H56.7793C56.7793 143.036 56.8353 142.476 56.8353 141.944C56.8353 137.52 54.2873 134.804 50.0313 134.804C46.5033 134.804 43.2553 137.66 43.2553 142.056C43.2553 146.704 46.5873 149.42 50.3673 149.42C53.7553 149.42 55.9393 147.432 56.6393 145.052L53.5313 144.128ZM58.3678 145.248C58.3678 147.404 60.1598 149.392 63.0998 149.392C65.1438 149.392 66.4598 148.44 67.1598 147.348C67.1598 147.88 67.2158 148.636 67.2998 149H70.7158C70.6318 148.524 70.5478 147.544 70.5478 146.816V140.04C70.5478 137.268 68.9238 134.804 64.5558 134.804C60.8598 134.804 58.8718 137.184 58.6478 139.34L61.9518 140.04C62.0638 138.836 62.9598 137.8 64.5838 137.8C66.1518 137.8 66.9078 138.612 66.9078 139.592C66.9078 140.068 66.6558 140.46 65.8718 140.572L62.4838 141.076C60.1878 141.412 58.3678 142.784 58.3678 145.248ZM63.8838 146.62C62.6798 146.62 62.0918 145.836 62.0918 145.024C62.0918 143.96 62.8478 143.428 63.7998 143.288L66.9078 142.812V143.428C66.9078 145.864 65.4518 146.62 63.8838 146.62ZM86.8189 128.728H83.1509V136.596C82.7589 135.868 81.6389 134.888 79.2589 134.888C75.3669 134.888 72.6509 138.052 72.6509 142.084C72.6509 146.256 75.4509 149.336 79.3709 149.336C81.2189 149.336 82.6189 148.496 83.2349 147.404C83.2349 148.048 83.3189 148.72 83.3749 149H86.9309C86.8749 148.44 86.8189 147.432 86.8189 146.508V128.728ZM76.4029 142.084C76.4029 139.62 77.9149 138.22 79.8189 138.22C81.7229 138.22 83.2069 139.592 83.2069 142.056C83.2069 144.548 81.7229 146.004 79.8189 146.004C77.8589 146.004 76.4029 144.548 76.4029 142.084ZM94.0228 149V128.728H90.2988V149H94.0228ZM101.174 149V135.224H97.4497V149H101.174ZM97.0017 130.716C97.0017 131.948 98.0377 132.984 99.2977 132.984C100.586 132.984 101.594 131.948 101.594 130.716C101.594 129.428 100.586 128.392 99.2977 128.392C98.0377 128.392 97.0017 129.428 97.0017 130.716ZM108.325 141.076C108.325 139.48 109.277 138.22 110.901 138.22C112.693 138.22 113.449 139.424 113.449 140.964V149H117.173V140.32C117.173 137.296 115.605 134.86 112.189 134.86C110.705 134.86 109.053 135.504 108.213 136.932V135.224H104.601V149H108.325V141.076ZM123.108 140.544C123.192 139.284 124.256 137.828 126.188 137.828C128.316 137.828 129.212 139.172 129.268 140.544H123.108ZM129.632 144.128C129.184 145.36 128.232 146.228 126.496 146.228C124.648 146.228 123.108 144.912 123.024 143.092H132.88C132.88 143.036 132.936 142.476 132.936 141.944C132.936 137.52 130.388 134.804 126.132 134.804C122.604 134.804 119.356 137.66 119.356 142.056C119.356 146.704 122.688 149.42 126.468 149.42C129.856 149.42 132.04 147.432 132.74 145.052L129.632 144.128Z" fill="#5891F7"/>
</svg>
