<svg width="242" height="172" viewBox="0 0 242 172" fill="none" xmlns="http://www.w3.org/2000/svg">
<path d="M1 3C1 1.89543 1.89543 1 3 1H239C240.105 1 241 1.89543 241 3V11H1V3Z" fill="#5891F7" fill-opacity="0.1" stroke="#5891F7"/>
<ellipse cx="7.22211" cy="6" rx="1.77778" ry="2" fill="#5891F7"/>
<ellipse cx="13.4448" cy="6" rx="1.77778" ry="2" fill="#5891F7"/>
<ellipse cx="19.6669" cy="6" rx="1.77778" ry="2" fill="#5891F7"/>
<rect x="1" y="11" width="240" height="160" stroke="#5891F7"/>
<path d="M36.987 67.3834V61.6994H40.039C41.971 61.6994 43.147 62.7914 43.147 64.5554C43.147 66.2634 41.971 67.3834 40.039 67.3834H36.987ZM40.515 70.7154C44.435 70.7154 47.039 68.1394 47.039 64.5274C47.039 60.9434 44.435 58.3394 40.515 58.3394H33.095V78.1914H36.959V70.7154H40.515ZM47.9033 74.4394C47.9033 76.5954 49.6953 78.5834 52.6353 78.5834C54.6793 78.5834 55.9953 77.6314 56.6953 76.5394C56.6953 77.0714 56.7513 77.8274 56.8353 78.1914H60.2513C60.1673 77.7154 60.0833 76.7354 60.0833 76.0074V69.2314C60.0833 66.4594 58.4593 63.9954 54.0913 63.9954C50.3953 63.9954 48.4073 66.3754 48.1833 68.5314L51.4873 69.2314C51.5993 68.0274 52.4953 66.9914 54.1193 66.9914C55.6873 66.9914 56.4433 67.8034 56.4433 68.7834C56.4433 69.2594 56.1913 69.6514 55.4073 69.7634L52.0193 70.2674C49.7233 70.6034 47.9033 71.9754 47.9033 74.4394ZM53.4193 75.8114C52.2153 75.8114 51.6273 75.0274 51.6273 74.2154C51.6273 73.1514 52.3833 72.6194 53.3353 72.4794L56.4433 72.0034V72.6194C56.4433 75.0554 54.9873 75.8114 53.4193 75.8114ZM62.2423 78.9474C62.6343 81.5794 65.1543 83.9314 68.9343 83.9314C74.1143 83.9314 76.1583 80.4874 76.1583 76.7074V64.4154H72.5743V66.0394C72.0983 65.1154 70.8383 64.1634 68.6543 64.1634C64.8743 64.1634 62.2423 67.2434 62.2423 70.8834C62.2423 74.7474 64.9863 77.5754 68.6543 77.5754C70.6423 77.5754 71.9303 76.7074 72.4903 75.8114V76.8194C72.4903 79.4794 71.1743 80.6554 68.8223 80.6554C67.0583 80.6554 65.8543 79.5634 65.6023 78.0514L62.2423 78.9474ZM69.2983 74.3834C67.3663 74.3834 65.9943 73.0394 65.9943 70.8834C65.9943 68.7554 67.4503 67.4114 69.2983 67.4114C71.0903 67.4114 72.5463 68.7554 72.5463 70.8834C72.5463 73.0114 71.2023 74.3834 69.2983 74.3834ZM82.0854 69.7354C82.1694 68.4754 83.2334 67.0194 85.1654 67.0194C87.2934 67.0194 88.1894 68.3634 88.2454 69.7354H82.0854ZM88.6094 73.3194C88.1614 74.5514 87.2094 75.4194 85.4734 75.4194C83.6254 75.4194 82.0854 74.1034 82.0014 72.2834H91.8574C91.8574 72.2274 91.9134 71.6674 91.9134 71.1354C91.9134 66.7114 89.3654 63.9954 85.1094 63.9954C81.5814 63.9954 78.3334 66.8514 78.3334 71.2474C78.3334 75.8954 81.6654 78.6114 85.4454 78.6114C88.8334 78.6114 91.0174 76.6234 91.7174 74.2434L88.6094 73.3194ZM117.332 78.1914V58.3394H113.44V66.3194H104.788V58.3394H100.924V78.1914H104.788V69.9594H113.44V78.1914H117.332ZM123.663 69.7354C123.747 68.4754 124.811 67.0194 126.743 67.0194C128.871 67.0194 129.767 68.3634 129.823 69.7354H123.663ZM130.187 73.3194C129.739 74.5514 128.787 75.4194 127.051 75.4194C125.203 75.4194 123.663 74.1034 123.579 72.2834H133.435C133.435 72.2274 133.491 71.6674 133.491 71.1354C133.491 66.7114 130.943 63.9954 126.687 63.9954C123.159 63.9954 119.911 66.8514 119.911 71.2474C119.911 75.8954 123.243 78.6114 127.023 78.6114C130.411 78.6114 132.595 76.6234 133.295 74.2434L130.187 73.3194ZM135.024 74.4394C135.024 76.5954 136.816 78.5834 139.756 78.5834C141.8 78.5834 143.116 77.6314 143.816 76.5394C143.816 77.0714 143.872 77.8274 143.956 78.1914H147.372C147.288 77.7154 147.204 76.7354 147.204 76.0074V69.2314C147.204 66.4594 145.58 63.9954 141.212 63.9954C137.516 63.9954 135.528 66.3754 135.304 68.5314L138.608 69.2314C138.72 68.0274 139.616 66.9914 141.24 66.9914C142.808 66.9914 143.564 67.8034 143.564 68.7834C143.564 69.2594 143.312 69.6514 142.528 69.7634L139.14 70.2674C136.844 70.6034 135.024 71.9754 135.024 74.4394ZM140.54 75.8114C139.336 75.8114 138.748 75.0274 138.748 74.2154C138.748 73.1514 139.504 72.6194 140.456 72.4794L143.564 72.0034V72.6194C143.564 75.0554 142.108 75.8114 140.54 75.8114ZM163.475 57.9194H159.807V65.7874C159.415 65.0594 158.295 64.0794 155.915 64.0794C152.023 64.0794 149.307 67.2434 149.307 71.2754C149.307 75.4474 152.107 78.5274 156.027 78.5274C157.875 78.5274 159.275 77.6874 159.891 76.5954C159.891 77.2394 159.975 77.9114 160.031 78.1914H163.587C163.531 77.6314 163.475 76.6234 163.475 75.6994V57.9194ZM153.059 71.2754C153.059 68.8114 154.571 67.4114 156.475 67.4114C158.379 67.4114 159.863 68.7834 159.863 71.2474C159.863 73.7394 158.379 75.1954 156.475 75.1954C154.515 75.1954 153.059 73.7394 153.059 71.2754ZM170.679 78.1914V57.9194H166.955V78.1914H170.679ZM177.83 78.1914V64.4154H174.106V78.1914H177.83ZM173.658 59.9074C173.658 61.1394 174.694 62.1754 175.954 62.1754C177.242 62.1754 178.25 61.1394 178.25 59.9074C178.25 58.6194 177.242 57.5834 175.954 57.5834C174.694 57.5834 173.658 58.6194 173.658 59.9074ZM184.981 70.2674C184.981 68.6714 185.933 67.4114 187.557 67.4114C189.349 67.4114 190.105 68.6154 190.105 70.1554V78.1914H193.829V69.5114C193.829 66.4874 192.261 64.0514 188.845 64.0514C187.361 64.0514 185.709 64.6954 184.869 66.1234V64.4154H181.257V78.1914H184.981V70.2674ZM199.764 69.7354C199.848 68.4754 200.912 67.0194 202.844 67.0194C204.972 67.0194 205.868 68.3634 205.924 69.7354H199.764ZM206.288 73.3194C205.84 74.5514 204.888 75.4194 203.152 75.4194C201.304 75.4194 199.764 74.1034 199.68 72.2834H209.536C209.536 72.2274 209.592 71.6674 209.592 71.1354C209.592 66.7114 207.044 63.9954 202.788 63.9954C199.26 63.9954 196.012 66.8514 196.012 71.2474C196.012 75.8954 199.344 78.6114 203.124 78.6114C206.512 78.6114 208.696 76.6234 209.396 74.2434L206.288 73.3194Z" fill="#5891F7"/>
<path d="M63.5768 94.3915V92.0718H64.9324C65.7438 92.0718 66.2403 92.53 66.2403 93.246C66.2403 93.9428 65.7438 94.3915 64.9324 94.3915H63.5768ZM65.1043 95.2316C66.3548 95.2316 67.1949 94.382 67.1949 93.2364C67.1949 92.1004 66.3548 91.2317 65.1043 91.2317H62.6413V98H63.5768V95.2316H65.1043ZM67.6665 96.7685C67.6665 97.494 68.2679 98.1432 69.2035 98.1432C70.0245 98.1432 70.4827 97.7041 70.6831 97.3795C70.6831 97.7136 70.7118 97.8854 70.7309 98H71.6091C71.59 97.8854 71.5519 97.6468 71.5519 97.2458V94.9452C71.5519 94.0479 71.0173 93.2651 69.6426 93.2651C68.6498 93.2651 67.8575 93.876 67.762 94.7543L68.6212 94.9547C68.6784 94.4202 69.0316 94.0288 69.6617 94.0288C70.3586 94.0288 70.6545 94.4011 70.6545 94.8497C70.6545 95.012 70.5781 95.1552 70.3013 95.1934L69.0603 95.3748C68.2679 95.4893 67.6665 95.9476 67.6665 96.7685ZM69.3276 97.389C68.8694 97.389 68.583 97.0645 68.583 96.7208C68.583 96.3103 68.8694 96.0907 69.2512 96.0335L70.6545 95.8235V96.0335C70.6545 97.0358 70.0626 97.389 69.3276 97.389ZM72.6157 98.2482C72.7302 99.2315 73.5894 99.957 74.7349 99.957C76.4628 99.957 77.0356 98.821 77.0356 97.6563V93.4083H76.1478V94.0479C75.9187 93.5896 75.4413 93.3223 74.7349 93.3223C73.4748 93.3223 72.6252 94.3151 72.6252 95.5562C72.6252 96.8544 73.513 97.7804 74.7349 97.7804C75.4223 97.7804 75.9187 97.4463 76.1382 97.0263V97.685C76.1382 98.6778 75.6991 99.1742 74.7349 99.1742C74.0381 99.1742 73.5512 98.6873 73.4844 98.0477L72.6157 98.2482ZM74.8686 97.0263C74.0571 97.0263 73.5416 96.4535 73.5416 95.5562C73.5416 94.6684 74.0762 94.086 74.8686 94.086C75.6418 94.086 76.1764 94.6684 76.1764 95.5562C76.1764 96.444 75.6418 97.0263 74.8686 97.0263ZM79.051 95.2316C79.0892 94.6397 79.5474 94.0574 80.3016 94.0574C81.113 94.0574 81.5426 94.5729 81.5617 95.2316H79.051ZM81.6953 96.4249C81.5235 96.9404 81.1512 97.3509 80.4066 97.3509C79.6333 97.3509 79.0415 96.7781 79.0224 95.9571H82.4781C82.4877 95.8998 82.4972 95.7853 82.4972 95.6707C82.4972 94.2388 81.7049 93.2651 80.292 93.2651C79.1369 93.2651 78.0964 94.2483 78.0964 95.6898C78.0964 97.2458 79.1751 98.1432 80.4066 98.1432C81.4758 98.1432 82.2108 97.5036 82.4686 96.6922L81.6953 96.4249ZM87.0603 97.1695V92.0622H88.4636C89.7141 92.0622 90.7451 92.9214 90.7451 94.6302C90.7451 96.3294 89.695 97.1695 88.4445 97.1695H87.0603ZM88.4731 98C90.1914 98 91.7093 96.8449 91.7093 94.6302C91.7093 92.4059 90.2105 91.2317 88.4922 91.2317H86.1247V98H88.4731ZM93.4823 95.2316C93.5205 94.6397 93.9787 94.0574 94.7328 94.0574C95.5443 94.0574 95.9738 94.5729 95.9929 95.2316H93.4823ZM96.1266 96.4249C95.9548 96.9404 95.5825 97.3509 94.8378 97.3509C94.0646 97.3509 93.4727 96.7781 93.4536 95.9571H96.9094C96.9189 95.8998 96.9285 95.7853 96.9285 95.6707C96.9285 94.2388 96.1361 93.2651 94.7233 93.2651C93.5682 93.2651 92.5276 94.2483 92.5276 95.6898C92.5276 97.2458 93.6064 98.1432 94.8378 98.1432C95.907 98.1432 96.6421 97.5036 96.8998 96.6922L96.1266 96.4249ZM97.6444 96.8067C97.7207 97.3318 98.2553 98.1432 99.5154 98.1432C100.651 98.1432 101.196 97.3699 101.196 96.7208C101.196 96.043 100.756 95.5371 99.9259 95.3557L99.1813 95.1934C98.8281 95.117 98.6563 94.9166 98.6563 94.6397C98.6563 94.3247 98.9618 94.0288 99.42 94.0288C100.145 94.0288 100.336 94.5538 100.375 94.7925L101.167 94.4965C101.071 94.086 100.68 93.2651 99.42 93.2651C98.5226 93.2651 97.7876 93.9333 97.7876 94.7161C97.7876 95.3652 98.2171 95.8521 98.9331 96.0048L99.7159 96.1767C100.098 96.2626 100.308 96.4821 100.308 96.7685C100.308 97.0931 100.031 97.3795 99.525 97.3795C98.8758 97.3795 98.5131 96.9976 98.4558 96.5203L97.6444 96.8067ZM104.272 94.0956C105.055 94.0956 105.389 94.6206 105.503 95.0693L106.315 94.7256C106.124 94.0288 105.494 93.2651 104.272 93.2651C102.964 93.2651 101.962 94.2674 101.962 95.6994C101.962 97.0931 102.945 98.1432 104.282 98.1432C105.475 98.1432 106.134 97.3699 106.353 96.7113L105.561 96.3676C105.456 96.7303 105.141 97.3127 104.282 97.3127C103.537 97.3127 102.878 96.7494 102.878 95.6994C102.878 94.6302 103.546 94.0956 104.272 94.0956ZM109.955 93.3605C109.907 93.351 109.783 93.3319 109.659 93.3319C109.191 93.3319 108.618 93.5037 108.284 94.2101V93.4083H107.406V98H108.303V95.6994C108.303 94.6875 108.809 94.2865 109.563 94.2865C109.687 94.2865 109.821 94.2961 109.955 94.3151V93.3605ZM111.799 98V93.4083H110.911V98H111.799ZM110.711 91.6708C110.711 92.024 110.997 92.3104 111.35 92.3104C111.713 92.3104 111.999 92.024 111.999 91.6708C111.999 91.3081 111.713 91.0217 111.35 91.0217C110.997 91.0217 110.711 91.3081 110.711 91.6708ZM114.213 99.8138V97.3795C114.462 97.79 114.996 98.1241 115.703 98.1241C117.049 98.1241 117.841 97.0645 117.841 95.6994C117.841 94.3629 117.106 93.3032 115.731 93.3032C114.987 93.3032 114.442 93.666 114.194 94.1242V93.4083H113.326V99.8138H114.213ZM116.925 95.6994C116.925 96.6444 116.399 97.3222 115.569 97.3222C114.748 97.3222 114.204 96.6444 114.204 95.6994C114.204 94.7829 114.748 94.0956 115.569 94.0956C116.409 94.0956 116.925 94.7829 116.925 95.6994ZM120.141 91.9572H119.32V92.7018C119.32 93.1028 119.11 93.4083 118.613 93.4083H118.365V94.2197H119.243V96.7399C119.243 97.5704 119.74 98.0477 120.522 98.0477C120.828 98.0477 121.057 97.9905 121.133 97.9618V97.1981C121.057 97.2172 120.895 97.2363 120.78 97.2363C120.312 97.2363 120.141 97.0263 120.141 96.6062V94.2197H121.133V93.4083H120.141V91.9572ZM123.219 98V93.4083H122.331V98H123.219ZM122.131 91.6708C122.131 92.024 122.417 92.3104 122.77 92.3104C123.133 92.3104 123.419 92.024 123.419 91.6708C123.419 91.3081 123.133 91.0217 122.77 91.0217C122.417 91.0217 122.131 91.3081 122.131 91.6708ZM126.712 97.3413C125.948 97.3413 125.28 96.7685 125.28 95.6994C125.28 94.6397 125.948 94.0669 126.712 94.0669C127.476 94.0669 128.144 94.6397 128.144 95.6994C128.144 96.7685 127.476 97.3413 126.712 97.3413ZM126.712 93.2651C125.338 93.2651 124.364 94.3056 124.364 95.6994C124.364 97.1027 125.338 98.1432 126.712 98.1432C128.087 98.1432 129.061 97.1027 129.061 95.6994C129.061 94.3056 128.087 93.2651 126.712 93.2651ZM131.106 95.3461C131.106 94.6493 131.469 94.086 132.175 94.086C132.977 94.086 133.244 94.6015 133.244 95.2411V98H134.142V95.0884C134.142 94.0669 133.598 93.2746 132.5 93.2746C131.965 93.2746 131.421 93.4942 131.087 94.0669V93.4083H130.209V98H131.106V95.3461ZM137.622 98.2482C137.736 99.2315 138.595 99.957 139.741 99.957C141.469 99.957 142.041 98.821 142.041 97.6563V93.4083H141.154V94.0479C140.925 93.5896 140.447 93.3223 139.741 93.3223C138.481 93.3223 137.631 94.3151 137.631 95.5562C137.631 96.8544 138.519 97.7804 139.741 97.7804C140.428 97.7804 140.925 97.4463 141.144 97.0263V97.685C141.144 98.6778 140.705 99.1742 139.741 99.1742C139.044 99.1742 138.557 98.6873 138.49 98.0477L137.622 98.2482ZM139.874 97.0263C139.063 97.0263 138.548 96.4535 138.548 95.5562C138.548 94.6684 139.082 94.086 139.874 94.086C140.648 94.086 141.182 94.6684 141.182 95.5562C141.182 96.444 140.648 97.0263 139.874 97.0263ZM145.441 97.3413C144.677 97.3413 144.009 96.7685 144.009 95.6994C144.009 94.6397 144.677 94.0669 145.441 94.0669C146.205 94.0669 146.873 94.6397 146.873 95.6994C146.873 96.7685 146.205 97.3413 145.441 97.3413ZM145.441 93.2651C144.066 93.2651 143.093 94.3056 143.093 95.6994C143.093 97.1027 144.066 98.1432 145.441 98.1432C146.816 98.1432 147.789 97.1027 147.789 95.6994C147.789 94.3056 146.816 93.2651 145.441 93.2651ZM149.52 95.2316C149.558 94.6397 150.016 94.0574 150.77 94.0574C151.582 94.0574 152.011 94.5729 152.031 95.2316H149.52ZM152.164 96.4249C151.992 96.9404 151.62 97.3509 150.875 97.3509C150.102 97.3509 149.51 96.7781 149.491 95.9571H152.947C152.957 95.8998 152.966 95.7853 152.966 95.6707C152.966 94.2388 152.174 93.2651 150.761 93.2651C149.606 93.2651 148.565 94.2483 148.565 95.6898C148.565 97.2458 149.644 98.1432 150.875 98.1432C151.945 98.1432 152.68 97.5036 152.937 96.6922L152.164 96.4249ZM153.682 96.8067C153.758 97.3318 154.293 98.1432 155.553 98.1432C156.689 98.1432 157.233 97.3699 157.233 96.7208C157.233 96.043 156.794 95.5371 155.964 95.3557L155.219 95.1934C154.866 95.117 154.694 94.9166 154.694 94.6397C154.694 94.3247 154.999 94.0288 155.458 94.0288C156.183 94.0288 156.374 94.5538 156.412 94.7925L157.205 94.4965C157.109 94.086 156.718 93.2651 155.458 93.2651C154.56 93.2651 153.825 93.9333 153.825 94.7161C153.825 95.3652 154.255 95.8521 154.971 96.0048L155.754 96.1767C156.135 96.2626 156.345 96.4821 156.345 96.7685C156.345 97.0931 156.069 97.3795 155.563 97.3795C154.913 97.3795 154.551 96.9976 154.493 96.5203L153.682 96.8067ZM161.712 95.2984C161.731 94.6206 162.094 94.086 162.781 94.086C163.583 94.086 163.85 94.6015 163.85 95.2411V98H164.748V95.0884C164.748 94.0669 164.203 93.2746 163.106 93.2746C162.581 93.2746 162.046 93.456 161.712 93.9428V91.0885H160.814V98H161.712V95.2984ZM166.757 95.2316C166.795 94.6397 167.254 94.0574 168.008 94.0574C168.819 94.0574 169.249 94.5729 169.268 95.2316H166.757ZM169.402 96.4249C169.23 96.9404 168.857 97.3509 168.113 97.3509C167.34 97.3509 166.748 96.7781 166.729 95.9571H170.184C170.194 95.8998 170.203 95.7853 170.203 95.6707C170.203 94.2388 169.411 93.2651 167.998 93.2651C166.843 93.2651 165.803 94.2483 165.803 95.6898C165.803 97.2458 166.881 98.1432 168.113 98.1432C169.182 98.1432 169.917 97.5036 170.175 96.6922L169.402 96.4249ZM173.898 93.3605C173.85 93.351 173.726 93.3319 173.602 93.3319C173.134 93.3319 172.561 93.5037 172.227 94.2101V93.4083H171.349V98H172.246V95.6994C172.246 94.6875 172.752 94.2865 173.506 94.2865C173.63 94.2865 173.764 94.2961 173.898 94.3151V93.3605ZM175.39 95.2316C175.428 94.6397 175.886 94.0574 176.64 94.0574C177.452 94.0574 177.881 94.5729 177.901 95.2316H175.39ZM178.034 96.4249C177.862 96.9404 177.49 97.3509 176.745 97.3509C175.972 97.3509 175.38 96.7781 175.361 95.9571H178.817C178.827 95.8998 178.836 95.7853 178.836 95.6707C178.836 94.2388 178.044 93.2651 176.631 93.2651C175.476 93.2651 174.435 94.2483 174.435 95.6898C174.435 97.2458 175.514 98.1432 176.745 98.1432C177.815 98.1432 178.55 97.5036 178.807 96.6922L178.034 96.4249Z" fill="#5891F7"/>
<path d="M107.634 116.826V120.586H109.15C109.861 120.586 110.328 120.135 110.328 119.52C110.328 119.032 109.999 118.719 109.659 118.64C109.967 118.539 110.211 118.221 110.211 117.833C110.211 117.255 109.781 116.826 109.039 116.826H107.634ZM108.45 118.332V117.521H108.896C109.225 117.521 109.389 117.68 109.389 117.924C109.389 118.178 109.198 118.332 108.906 118.332H108.45ZM108.45 119.902V119.021H108.975C109.304 119.021 109.495 119.202 109.495 119.462C109.495 119.732 109.299 119.902 108.975 119.902H108.45ZM112.896 120.671C113.723 120.671 114.386 120.172 114.386 119.228V116.826H113.548V119.159C113.548 119.615 113.293 119.843 112.896 119.843C112.498 119.843 112.243 119.615 112.243 119.159V116.826H111.405V119.228C111.405 120.172 112.068 120.671 112.896 120.671ZM118.576 117.627V116.826H115.42V117.627H116.576V120.586H117.414V117.627H118.576ZM122.566 117.627V116.826H119.41V117.627H120.566V120.586H121.404V117.627H122.566ZM124.174 118.703C124.174 117.918 124.736 117.563 125.261 117.563C125.78 117.563 126.343 117.918 126.343 118.703C126.343 119.488 125.78 119.838 125.261 119.838C124.736 119.838 124.174 119.488 124.174 118.703ZM123.304 118.709C123.304 119.896 124.2 120.665 125.261 120.665C126.316 120.665 127.212 119.896 127.212 118.709C127.212 117.515 126.316 116.746 125.261 116.746C124.2 116.746 123.304 117.515 123.304 118.709ZM131.607 120.586V116.826H130.769V119.112L129.358 116.826H128.34V120.586H129.173V118.115L130.721 120.586H131.607Z" fill="#5891F7"/>
<rect x="89.2652" y="111.382" width="60.9899" height="15.3801" stroke="#5891F7" stroke-width="0.530347"/>
</svg>
