<svg id="Layer_1" data-name="Layer 1" xmlns="http://www.w3.org/2000/svg" viewBox="0 0 156 148"><defs><style>.cls-1{fill:#fecd98;}.cls-2{fill:#ec7970;}.cls-3{fill:#ee4e42;}.cls-4{fill:#085368;}</style></defs><title>Nick Anderson Website</title><path d="M103.49,39.17a9.44,9.44,0,0,0-.12-1.18,14.88,14.88,0,0,1-.06-4,11.1,11.1,0,0,0-.24-3.25c-.16-.75-.41-1.48-.63-2.21a9.32,9.32,0,0,0-.3-1c-.23-.64-.63-1.22-.84-1.88a.88.88,0,0,0-.12-.26,13.28,13.28,0,0,1-1.27-2,.45.45,0,0,0-.11-.13c-.3-.39-.58-.78-.9-1.15-.51-.62-1-1.26-1.58-1.83a7.14,7.14,0,0,0-2.61-1.42,16.93,16.93,0,0,1-3.59-2,2.16,2.16,0,0,1-.46-.49c-.38-.47-.77-.93-1.12-1.42a4.35,4.35,0,0,1-.67-1.17A18.74,18.74,0,0,0,88,11.55a9.07,9.07,0,0,0-.64-1.24,5.33,5.33,0,0,0-2-1.69A1,1,0,0,1,85,8.28,1.52,1.52,0,0,0,82.63,8c-.29.26-.57.54-.84.83-.48.51-1,1-1.4,1.56a5.81,5.81,0,0,1-1.28,1.34c-.28.19-.51.45-.78.65a10.23,10.23,0,0,1-1.07.69c-.44.22-.94.34-1.37.58a10.4,10.4,0,0,0-1.34.94c-.67.54-1.33,1.1-2,1.68a10.3,10.3,0,0,0-1.14,1.25,3.61,3.61,0,0,0-.45.9A13.77,13.77,0,0,0,70,21c-.19.92-.36,1.85-.56,2.77a7.26,7.26,0,0,1-.75,2.35c-.29.48-.52,1-.81,1.51-.41-.34-.74-.65-1.1-.91a13.79,13.79,0,0,0-1.58-1.08,7.64,7.64,0,0,0-2-.59,3,3,0,0,0-1.8.23.55.55,0,0,0-.37.62c.08.71,0,1.43.07,2.14a33.48,33.48,0,0,1-.55,4.78c0,.31-.14.62-.2.93-.22,1-.67,1.92-.81,2.94s-.43,1.92-.55,2.9a12.34,12.34,0,0,1-.7,2.55,16.47,16.47,0,0,1-1.67,3.33A18.08,18.08,0,0,0,55.25,48a2,2,0,0,1-.86,1.1,2.37,2.37,0,0,1-.16.65,5.24,5.24,0,0,0-.44,1.2,3.06,3.06,0,0,1-.13.43c-.23.46-.29.49-.79.35a4.93,4.93,0,0,0-1.79-.23c-.39,0-.79,0-1.18,0a10.13,10.13,0,0,0-2.69.23c-.2.06-.41.07-.61.11l-2.36.54c-.51.12-1,.26-1.52.43a10.83,10.83,0,0,0-2.32.87,17.07,17.07,0,0,1-1.85,1.07,6,6,0,0,0-1.2.91,8.65,8.65,0,0,0-1.14,1.2c-.5.56-1,1.12-1.46,1.72s-.86,1.28-1.26,1.94c-.19.32-.32.68-.5,1-.22,0-.42-.1-.61-.16l-.69-.26-2.27-.71a11.08,11.08,0,0,0-2.77-.72,2.09,2.09,0,0,0-.83.12c-.53.22-1,.5-1.57.75-1.43.67-2.86,1.36-4.31,2a3.52,3.52,0,0,0-1.83,2c-.23.53-.43,1.08-.65,1.62-.42,1-.81,2.08-1.3,3.08a9.48,9.48,0,0,0-.68,1.69,8.79,8.79,0,0,0-.19.89,9.5,9.5,0,0,0-.18,1.91,25.31,25.31,0,0,0,.79,4.56,3.66,3.66,0,0,0,.25.62l1,2c-.51,0-1-.08-1.51-.14-.68-.07-1.35-.19-2-.24a1.71,1.71,0,0,0-.83.16c-.78.37-1.56.76-2.31,1.19-.39.22-.71.55-1.08.8A3.27,3.27,0,0,0,8.22,84c-.34.73-.68,1.47-1,2.19-.24.51-.49,1-.76,1.5-.54,1-1.19,2-1.63,3a14.32,14.32,0,0,0-1.16,3.64,4.51,4.51,0,0,0,.22,2.39c.28.67.64,1.32,1,2a7.51,7.51,0,0,0,2.39,2.65c.85.61,1.68,1.26,2.52,1.89A10.15,10.15,0,0,0,12,104.6a15.7,15.7,0,0,1,2.36,1.17c.38.24.75.5,1.16.77-.28.37-.52.71-.78,1a4.53,4.53,0,0,0-.94,3.27c.06,1.11.2,2.22.25,3.33a41.55,41.55,0,0,0,.63,5.22c.2,1.1.49,2.19.72,3.29a1.54,1.54,0,0,1,0,.6,1,1,0,0,0,.33,1c.83,1,1.64,2,2.54,2.89a7.41,7.41,0,0,0,1.78,1.25,16.57,16.57,0,0,0,2.13.9,8.91,8.91,0,0,0,2.94.51c.79,0,1.58.11,2.37.18a21.68,21.68,0,0,0,2.26.17c1.19,0,2.37-.16,3.56-.2,1.56,0,3.13,0,4.7,0s2.9,0,4.36,0h1.41c.79,0,1.59,0,2.38,0a4.77,4.77,0,0,0,1-.09c.67-.13,1.33-.32,2-.43a2.35,2.35,0,0,0,1.54-.72s.07,0,.14,0a9.73,9.73,0,0,1,.57.81,15.68,15.68,0,0,0,2.59,3.4c1,1,2,1.91,3.06,2.83a7.71,7.71,0,0,0,1.11.75,13.52,13.52,0,0,0,1.83,1.08c1.08.47,2.21.84,3.32,1.24a2.81,2.81,0,0,0,.54.17,26.27,26.27,0,0,0,3.85.37l3.4.07,2.52.07c.74,0,1.47.1,2.21.13.32,0,.64,0,1,0,1,0,2-.11,3,0a12.38,12.38,0,0,0,4.45-.45,9.29,9.29,0,0,0,2.92-1.66,15.59,15.59,0,0,0,1.22-1.09A7.54,7.54,0,0,0,89.81,135a4.12,4.12,0,0,1,1.19-1.2L93.61,135a3.26,3.26,0,0,0,.76.35,13.35,13.35,0,0,1,2.76,1,2.83,2.83,0,0,0,.76.19c.75.09,1.51.13,2.26.24,1.18.17,2.35.4,3.52.58a8.65,8.65,0,0,0,1.24.11c1,0,2,0,2.94,0a33.91,33.91,0,0,0,4.62-.11,1.66,1.66,0,0,1,.22,0c.68,0,1.36,0,2,0,.44,0,.88-.17,1.33-.21a21.3,21.3,0,0,0,4-.8,5.54,5.54,0,0,0,1-.4,8,8,0,0,0,1-.66c.43-.3.85-.62,1.27-.94.19-.15.36-.32.56-.46s.47-.3.7-.46.49-.41.76-.59a2.11,2.11,0,0,0,.91-1.41c.05-.24.11-.48.15-.72.11-.65.25-1.29.32-2a12.82,12.82,0,0,0,0-1.52,7.55,7.55,0,0,0-.27-2.17,7.81,7.81,0,0,1-.21-1l.71-.05a5.1,5.1,0,0,0,.68,0,2.93,2.93,0,0,1,1.6.19.73.73,0,0,0,.33,0,1.92,1.92,0,0,1,.32,0c.76.1,1.52.22,2.28.31a6.44,6.44,0,0,0,1.16,0,4.22,4.22,0,0,1,1.57.31,1.79,1.79,0,0,0,1.31.07,4.14,4.14,0,0,1,1-.31,27.54,27.54,0,0,0,3.53-1.17,2.1,2.1,0,0,0,.3-.15,11.27,11.27,0,0,0,2-1.3c.38-.3.79-.57,1.18-.86l1.7-1.31a16.64,16.64,0,0,0,2.34-2.1,20.52,20.52,0,0,1,1.87-1.86c.58-.49,1-1.13,1.52-1.63a.41.41,0,0,0,.07-.15,6.29,6.29,0,0,0,.44-2.53,8.38,8.38,0,0,0-.21-1.48,8.49,8.49,0,0,0-1.32-3.17,4,4,0,0,0-1.83-1.68,7.86,7.86,0,0,1-1-.53c-1.1-.58-2.19-1.18-3.31-1.74s-2.06-1-3.1-1.49c-.2-.09-.39-.22-.61-.34a2.7,2.7,0,0,0,.55-.42,7.09,7.09,0,0,1,1.88-1.43A8.17,8.17,0,0,0,146.43,96a5.08,5.08,0,0,0,.36-2.54,12.6,12.6,0,0,0-1-3.57,25.84,25.84,0,0,1-1-2.85,2.77,2.77,0,0,0-.27-.61c-.53-1-1.07-1.93-1.61-2.9a9.6,9.6,0,0,0-1.44-2,11.81,11.81,0,0,0-1.48-1.16c-.54-.42-1.15-.7-1.72-1.06-.8-.5-1.61-1-2.41-1.47a19.73,19.73,0,0,0-2-1.18,26.09,26.09,0,0,0-3.27-1.39,5.58,5.58,0,0,1-.83-.35.53.53,0,0,1-.22-.27c-.28-.71-.46-1.45-.77-2.15a9.13,9.13,0,0,0-2-2.78,6,6,0,0,0-.52-.49c-.24-.19-.51-.32-.75-.5a10.83,10.83,0,0,0-2.31-1.6c-.29-.13-.3-.31-.17-.6l1-2.28a2.16,2.16,0,0,0,.1-.44c.05-.37.12-.74.16-1.12s0-.71,0-1.07c0-.53,0-1.06,0-1.58a10.1,10.1,0,0,0-.06-1.24c-.17-1-.44-1.91-.55-2.88A8.1,8.1,0,0,0,122.06,52a15.07,15.07,0,0,0-3.77-3.48c-.7-.45-1.36-.95-2-1.43a.46.46,0,0,1-.09-.12l0-.34-.54-.6c-.23,0-.51,0-.61-.07a7.74,7.74,0,0,1-1.16-1.47,24.84,24.84,0,0,1-1-2.38c-.44-1.09-.84-2.18-1.31-3.24a3.93,3.93,0,0,0-.91-1.34,3.59,3.59,0,0,0-2.14-.73,1,1,0,0,0-.76.3c-.38.34-.73.72-1.1,1.07l-2.59,2.42A2.86,2.86,0,0,1,103.49,39.17ZM55.94,101c.46.3.9.62,1.35.92.75.52,1.17.47,1.76-.23a4.73,4.73,0,0,0,.94-2,9.46,9.46,0,0,0,.11-2.13,20.91,20.91,0,0,0-.5-3.07c-.28-1.85-.93-3.61-1.24-5.45-.08-.44-.09-.89-.14-1.33a2.36,2.36,0,0,0,0-.28c-.16-.71-.33-1.42-.5-2.17a1.23,1.23,0,0,1,.84.34,4.53,4.53,0,0,1,1.21,2,2.21,2.21,0,0,0,.18.53A7.93,7.93,0,0,1,60.66,91c.12.58.16,1.18.27,1.77s.37,1.43.46,2.17.23,1.48.39,2.21a6.07,6.07,0,0,1,0,3.08c-.22.72-.37,1.45-.55,2.18a1.58,1.58,0,0,0,.74,1.8c.13.08.31.19.35.32.1.34.37.43.63.58a12.06,12.06,0,0,1,2.41,1.67c.77.72,1.61,1.37,2.43,2A9.48,9.48,0,0,1,70,111.2l-.78,0a.56.56,0,0,1-.56-.39.3.3,0,0,0-.17-.14,8,8,0,0,1-2.28-1.82c-.67-.6-1.26-1.3-2-1.85a6.84,6.84,0,0,0-1.47-1.09,4.74,4.74,0,0,1-.6-.43,1.9,1.9,0,0,0-.62-.34,2.06,2.06,0,0,1-1.22-.67,5.81,5.81,0,0,0-1.28-.79,14.24,14.24,0,0,1-2.48-1.72c-.37-.37-.71-.77-1.06-1.16a.43.43,0,0,1-.47-.34c.29,0,.33.22.45.35A2.81,2.81,0,0,1,55.94,101Zm.23-12.45a22.36,22.36,0,0,0-2.56-1.87.83.83,0,0,1,0,.29c-.07.12-.14.26-.25.31s-.35-.05-.41,0c-.31.39-.9.45-1.11,1A18.62,18.62,0,0,1,51,90a2.26,2.26,0,0,1-.86-1c0-.07,0-.2,0-.3.11-.52.09-.57-.37-.87a8,8,0,0,1-1.35-1.25,1.13,1.13,0,0,1-.34-.82c0-.09,0-.21,0-.26-.33-.34-.37-.82-.59-1.21a16.36,16.36,0,0,0-1.11-1.77,4.33,4.33,0,0,1-.57-1.28.87.87,0,0,1,.14-.81,3.56,3.56,0,0,0,.63-1.84,16.19,16.19,0,0,1,.46-2.5,6.53,6.53,0,0,1,.83-1.59,8.6,8.6,0,0,0,1.52-4.09,17.53,17.53,0,0,0,.09-3.32c-.17-1.36-.26-2.73-.41-4.1a3.13,3.13,0,0,1,.65-2.33,22,22,0,0,1,1.52-1.81,11.1,11.1,0,0,1,1.19-1,1.44,1.44,0,0,0,.3-.24c.49-.7,1-1.4,1.44-2.1a.51.51,0,0,0,.11-.25,1.57,1.57,0,0,1,.52-1.15,2.5,2.5,0,0,0,.42-1.27,2,2,0,0,1,.19-.8c.59-.83.95-1.78,1.46-2.65s.78-1.5,1.18-2.24a6.08,6.08,0,0,1,.55-.78s.09-.08.11-.13c.32-.74.87-1.36,1.16-2.11a3.41,3.41,0,0,1,.29-.61,13.88,13.88,0,0,0,1-2.59,3.88,3.88,0,0,0,.11-.61l.36-1.77a.9.9,0,0,0,0-.16A15.12,15.12,0,0,1,62.44,35a13.25,13.25,0,0,0,.36-1.66c.23-1.38.45-2.76.65-4.14,0-.41,0-.83,0-1.24a.57.57,0,0,1,.15-.39c0-.05.25,0,.35.06a5.56,5.56,0,0,1,2,1.94,1.44,1.44,0,0,0,.79.67.89.89,0,0,1,.26.12c.44.41.92.24,1.38.09a1,1,0,0,0,.44-.39c.53-.82,1.05-1.66,1.54-2.5a16.33,16.33,0,0,0,.89-1.71,6.77,6.77,0,0,0,.34-1.36c.11-.55.18-1.11.29-1.67a12.67,12.67,0,0,1,1.64-4.36,4.07,4.07,0,0,1,.85-.91,15.55,15.55,0,0,1,2.79-2.12c.33-.16.64-.34,1-.49A13.83,13.83,0,0,0,82.07,12a4.79,4.79,0,0,0,.57-.77,2.79,2.79,0,0,1,1-.95A2.75,2.75,0,0,1,85,11.85c.41,1,.77,1.93,1.23,2.86a20.06,20.06,0,0,0,1.2,2,9,9,0,0,0,2.63,2.39,19.55,19.55,0,0,0,3.45,1.81,5.28,5.28,0,0,1,2.28,1.8A27.29,27.29,0,0,1,99,27.61,17.76,17.76,0,0,1,100.42,33a10.72,10.72,0,0,1,0,1.7,16.71,16.71,0,0,0,.08,4.24,6,6,0,0,0,.34,1.78,5.21,5.21,0,0,0,1,1.59,2.74,2.74,0,0,1,.41.54,1.85,1.85,0,0,0,1.81,1,1.73,1.73,0,0,0,1.27-.67,18.6,18.6,0,0,1,2.8-2.88c.28-.25.53-.53.86-.85.1.22.2.4.27.58.39,1.08.77,2.17,1.18,3.25a2.43,2.43,0,0,0,.47.81.93.93,0,0,1,.26.6,2.35,2.35,0,0,0,.58,1.32,12.4,12.4,0,0,0,2.38,2.58c.66.47,1.32.94,2,1.4a14.3,14.3,0,0,1,4.17,4.28,3.12,3.12,0,0,1,.35.82c.34,1.36.71,2.7.94,4.07a13.31,13.31,0,0,1-.16,4.58,18.52,18.52,0,0,1-.72,2.26c-.32,1-.63,1.93-1,2.89a3,3,0,0,1-.44.78,3.08,3.08,0,0,0-.59,2.69,10.17,10.17,0,0,0,1.49,3.2,7.75,7.75,0,0,0,1.05,1.16,9.46,9.46,0,0,1,1.6,2,2.28,2.28,0,0,1,.43,1.14.64.64,0,0,0,0,.28,5.12,5.12,0,0,1,.15,3c0,.24,0,.49,0,.73a16.41,16.41,0,0,1-.33,2.23,5.2,5.2,0,0,1-.7,1.34c-.36.59-.76,1.17-1.14,1.75a1.4,1.4,0,0,0-.2.92,1.13,1.13,0,0,1-.26.89,2.79,2.79,0,0,1-1.27.87c-.69.22-1.4.33-2.09.49a11.56,11.56,0,0,0-1.71.6c-1,.41-2,.84-3,1.26-.21.08-.44.12-.65.19a3.9,3.9,0,0,0-.48.17c-.7.31-1.4.63-2.09,1a.72.72,0,0,0-.24.14,2.25,2.25,0,0,1-.39.3c-.56.3-1.14.56-1.71.85l-.89.52-.38-.49c.23-.14.43-.27.64-.38,1.23-.66,2.45-1.33,3.7-2a9.9,9.9,0,0,1,1.33-.45,8.5,8.5,0,0,0,1-.42,9.59,9.59,0,0,0,1.87-.93c.17-.14.47-.13.83-.22a2.28,2.28,0,0,1,1.07-.84c.66-.32,1.34-.61,2-.94a2.75,2.75,0,0,0,.64-.45c.41-.37.82-.76,1.22-1.15a10.54,10.54,0,0,0,.93-1,1.21,1.21,0,0,0,.17-.63,1.14,1.14,0,0,0-.13-.55c-.42-.83-.85-1.66-1.31-2.47-.07-.14-.26-.21-.39-.31s-.42-.3-.62-.47a.8.8,0,0,0-1,.11l-.54.57c-.14.15-.28.3-.19.55,0,.07-.07.19-.12.31l-.3-.24c-.18.18-.35.35-.51.53-.41.45-.79.92-1.23,1.33a2,2,0,0,1-.88.49,3.77,3.77,0,0,0-1.11.62c-.06,0-.11.11-.18.13a11.9,11.9,0,0,0-2.45,1.28,2.21,2.21,0,0,1-1.21.17,3.38,3.38,0,0,1-.57-.11c-.07-.8-.19-1.6-.19-2.4a3.38,3.38,0,0,1,.53-2.11.54.54,0,0,0,.1-.2,4.42,4.42,0,0,1,.92-1.85,3.32,3.32,0,0,0,.39-.88c.25-.77.51-1.54.7-2.33a8.85,8.85,0,0,0,.22-3.08,17.81,17.81,0,0,0-.94-3.89A5,5,0,0,1,110,71c0-.93,0-1.85.13-2.77a12.19,12.19,0,0,0,0-1.91,2.63,2.63,0,0,0-.2-.88,17.41,17.41,0,0,0-2.1-3.74,6.91,6.91,0,0,0-1.54-1.56c-.44-.29-.81-.68-1.22-1s-.62-.48-.93-.73-.58-.48-.85-.74a5.44,5.44,0,0,0-1.72-1.16c-.68-.28-1.32-.66-2-.91a13.73,13.73,0,0,0-1.81-.47,4,4,0,0,1-1.21-.6,11.09,11.09,0,0,1-2.35-2.34A2.34,2.34,0,0,1,94,51.7c-.19-.37-.35-.76-.57-1.11a11.56,11.56,0,0,1-1.27-3.19c-.21-.76-.44-1.51-.6-2.28s-.18-1.27-.26-1.9a34.48,34.48,0,0,0-.89-5.7c-.31-1.06-.61-2.13-.89-3.21-.39-1.49-.74-3-1.14-4.49-.15-.58-.39-1.14-.59-1.71a.54.54,0,0,0-.45-.38,1.5,1.5,0,0,0-1.2.21,25.61,25.61,0,0,1-3.67,2,9.06,9.06,0,0,0-2.4,2,57,57,0,0,0-3.68,4.54A16.7,16.7,0,0,0,73.8,41a7.75,7.75,0,0,1-1.28,1.92c-.16.21-.35.4-.52.59-.87-.26-1.18-.08-1.7.67a18.44,18.44,0,0,0-1.36,2.79,11.88,11.88,0,0,1-2.41,3.54c-.7.66-1.47,1.25-2.18,1.89s-1.29,1.23-1.93,1.85-1.17,1.12-1.73,1.71c-.35.37-.66.77-1,1.17-.58.7-1.21,1.36-1.72,2.11a16.52,16.52,0,0,0-2.4,4.85,18.63,18.63,0,0,0-.77,4.38,18.54,18.54,0,0,1-.76,4.06c-.18.71-.41,1.42-.56,2.14a13.87,13.87,0,0,0-.3,2.12,7.21,7.21,0,0,0,.5,2.94c.31.78.64,1.54.95,2.31a1.89,1.89,0,0,1,.1,1.31,2.05,2.05,0,0,0,.85,2.18A6.76,6.76,0,0,0,56.17,88.56ZM56,83a1,1,0,0,0,.09-.92c-.21-.6-.47-1.18-.67-1.79-.29-.91-.55-1.84-.81-2.76a2.18,2.18,0,0,1,0-.57,16.39,16.39,0,0,1,.8-4.15,15.67,15.67,0,0,0,.36-1.54c.16-.76.32-1.51.45-2.27,0-.28,0-.57,0-.85.1-.67.21-1.34.35-2s.31-1.31.47-2a.47.47,0,0,1,0-.17c.17-.43.33-.87.54-1.29.41-.85.82-1.69,1.29-2.51A10.41,10.41,0,0,1,59.87,59c.54-.65,1.06-1.32,1.64-1.93a36.53,36.53,0,0,1,4.16-4,24.24,24.24,0,0,0,3.06-2.93,3.78,3.78,0,0,0,.53-.73,25.67,25.67,0,0,0,1.45-2.62,12.67,12.67,0,0,1,.7-1.37l.83.15c.4.08.62-.15.82-.46.42-.63.85-1.26,1.3-1.87a11.27,11.27,0,0,0,1.48-2.38,16.11,16.11,0,0,1,2.33-4c.72-.9,1.39-1.84,2.13-2.72s1.28-1.43,2-2.13a7.77,7.77,0,0,1,2.07-1.33l2-1.05a1.75,1.75,0,0,1,.21.34c.24,1,.49,2.05.8,3.06.2.62.28,1.29.44,1.93.06.25.21.48.28.73.21.73.38,1.46.58,2.19a32.31,32.31,0,0,1,.71,4.8,4.61,4.61,0,0,0,.45,2,.41.41,0,0,1,0,.22,4.24,4.24,0,0,0,.44,2.3,1.26,1.26,0,0,1,.05.28A12.48,12.48,0,0,0,91.69,51c.34.62.68,1.26,1,1.88a2.4,2.4,0,0,0,.3.41c.18.22.39.41.56.64a7.29,7.29,0,0,0,2.73,2.16,8.88,8.88,0,0,0,1.57.45,6.08,6.08,0,0,1,2.09.82.59.59,0,0,0,.19.13c.9.15,1.43.87,2.08,1.4.42.35.86.67,1.3,1,.07.05.16.09.23.15.6.52,1.23,1,1.79,1.56A9,9,0,0,1,106.7,63c.5.8.94,1.64,1.37,2.48a3.81,3.81,0,0,1,.27,2c0,1.46-.09,2.93-.12,4.4a6.23,6.23,0,0,0,.47,2.08,10.62,10.62,0,0,1,.68,4.6,17.36,17.36,0,0,1-1,3.76,1.41,1.41,0,0,1-.33.45,6.4,6.4,0,0,0-1.36,2.88,10.89,10.89,0,0,0-.22,1.11,2.11,2.11,0,0,0,0,.83,10.51,10.51,0,0,0,.24,1.22,1.21,1.21,0,0,1-.4,1.29,4.12,4.12,0,0,1-1.7,1.08,1.25,1.25,0,0,0-.38.23c-.77.55-1.53,1.11-2.29,1.67A18.08,18.08,0,0,1,99,94.71a9.65,9.65,0,0,0-1.52,1.07L95.88,97s-.07,0-.09.06c-.37.58-.9.38-1.42.3,0-.07,0-.14.06-.16.45-.33.93-.64,1.38-1a7,7,0,0,0,2-2.11,18.57,18.57,0,0,1,1.07-1.6.89.89,0,0,0,.15-.29c.28-1.23.54-2.46.81-3.69a8.21,8.21,0,0,0,.18-.83c.07-.62.15-1.24.16-1.85a13.21,13.21,0,0,0-.1-2.18c-.17-1.23-.42-2.44-.64-3.66-.07-.44-.13-.89-.21-1.33-.2-1-.46-2.09-.6-3.15s-.69-2.27-.9-3.43a3.35,3.35,0,0,0-.43-.92,10.92,10.92,0,0,0-1.46-2.28c-.77-.85-1.49-1.75-2.29-2.57a10.69,10.69,0,0,1-1.36-2c-.29-.44-.6-.87-.9-1.31a25.18,25.18,0,0,1-2-3.39A37.07,37.07,0,0,0,86,54.12a1.16,1.16,0,0,0-1.59-.52,3,3,0,0,0-1.2.91,4.26,4.26,0,0,1-1.29,1,12.4,12.4,0,0,0-3.23,2.72,1.74,1.74,0,0,0-.18.22c-.37.76-.71,1.53-1.11,2.27s-.82,1.38-1.24,2.08c0,0-.08.08-.09.13a7.69,7.69,0,0,1-1.34,2.21,5.11,5.11,0,0,1-.92,1c-.53.49-1.07,1-1.63,1.41a6,6,0,0,1-.91.56,11.3,11.3,0,0,0-4,3.25c-.29.44-.66.82-.94,1.26-.4.62-.77,1.25-1.12,1.9s-.63,1.28-.93,1.93a4.12,4.12,0,0,0-.23.58c-.21.64-.41,1.29-.61,1.94a1.51,1.51,0,0,0-.09.5,26.56,26.56,0,0,1-.25,3.68c-.05.93-.1,1.85-.17,2.77a3.74,3.74,0,0,1-1,2.18c-.4-1-.79-1.89-1.12-2.8a3,3,0,0,0-1.54-1.79c-.42-.21-.86-.38-1.3-.55a.53.53,0,0,0-.33,0L56,83.53C55.85,83.37,55.89,83.2,56,83Zm8.54,11a7.76,7.76,0,0,0-1.1-.59,1.31,1.31,0,0,1-.82-1.12c-.1-.51-.15-1-.28-1.55a1.09,1.09,0,0,1,.24-1,29.23,29.23,0,0,0,1.83-2.71,5.14,5.14,0,0,0,.46-2.58A11.72,11.72,0,0,1,65,82.36a24.47,24.47,0,0,0,.18-2.59,6.25,6.25,0,0,1,.19-1c.09-.36.21-.72.33-1.07s.25-.71.4-1.05c.29-.64.57-1.27.89-1.89a10.57,10.57,0,0,1,.73-1.26c.45-.63,1-1.22,1.4-1.85a5.44,5.44,0,0,1,2-1.65,15.1,15.1,0,0,0,2.22-1.35c1.09-.87,2.11-1.83,3.13-2.78a3.57,3.57,0,0,0,.62-.94c.61-1,1.21-2.08,1.79-3.13.29-.54.53-1.11.83-1.64A8.2,8.2,0,0,1,82,57.32l.37-.25c.77-.51,1.55-1,2.36-1.53.34.15.43.56.63.86.47.75.9,1.53,1.31,2.31.29.54.53,1.12.8,1.68.1.2.18.41.3.61l2,3.11c.43.68.82,1.39,1.31,2a26,26,0,0,0,2.91,3.38,6.5,6.5,0,0,1,1.67,2.59c.42,1.19.76,2.4,1.08,3.62.16.6.19,1.23.29,1.84a8.64,8.64,0,0,0,.23,1.27c.31,1,.31,2,.55,2.94a17.24,17.24,0,0,1,.41,3.35A8.35,8.35,0,0,1,98,87.91c-.24.86-.3,1.78-.51,2.65a5.09,5.09,0,0,1-.76,2c-.21.28-.34.63-.53.93a6.86,6.86,0,0,1-1.63,1.64,23.84,23.84,0,0,1-2.28,1.59,2.05,2.05,0,0,1-2.12.26.93.93,0,0,0-1.07,0,.57.57,0,0,1-.32.08,31,31,0,0,1-4-.37,5.31,5.31,0,0,0-1.69,0A11.89,11.89,0,0,1,80,96.46a11.8,11.8,0,0,0-1.46-.1,20,20,0,0,1-3.62-.42l0-.13c.45-.22.9-.49,1.38-.67a30.14,30.14,0,0,0,3.48-1.46,9.33,9.33,0,0,1,2.45-.83c.67-.12,1.34-.16,2-.27,1.11-.18,2.22-.39,3.33-.59a3.15,3.15,0,0,0,.55-.12c.39-.13.77-.28,1.15-.44s.92-.44,1.39-.61a5.25,5.25,0,0,0,1.8-1.14c.28-.25.58-.48.88-.71a.91.91,0,0,0,.25-1.29c-.46-.79-.94-1.57-1.41-2.35a.62.62,0,0,0-.65-.35,3.45,3.45,0,0,0-1.1.2c-.58.22-1.19.35-1.78.56-1,.34-1.89.76-2.86,1.05a22.57,22.57,0,0,1-5,.93,11.08,11.08,0,0,0-2.33.42c-1.09.28-2.16.62-3.23,1-.89.31-1.75.68-2.61,1.06a3.76,3.76,0,0,0-.85.55,26.59,26.59,0,0,1-3.58,2.16l-1.7,1a2,2,0,0,1-.25.13c-.48.16-.48.16-.69.51Zm59.54,31.64-3.78,3-.68.58a7.85,7.85,0,0,1-3.53,1.42c-1,.2-2,.36-2.94.5-.8.11-1.61.14-2.42.22-1.44.14-2.89.23-4.33.44a11.75,11.75,0,0,1-3.55,0,20.44,20.44,0,0,1-5.33-1.8,1.19,1.19,0,0,1-.4-.43,8.12,8.12,0,0,1-1.08-4.89c.06-.79.11-1.58.14-2.38a13.52,13.52,0,0,1,.67-3.09,4.68,4.68,0,0,1,.82-1.41c.5-.7,1-1.38,1.57-2.06a4.22,4.22,0,0,1,1.72-1.4c1.1-.44,2.16-1,3.22-1.53.76-.4,1.48-.88,2.25-1.28s1.52-.74,2.29-1.09c.53-.24,1.09-.42,1.62-.67a2.29,2.29,0,0,1,1.43-.19,12.24,12.24,0,0,1,2.36.52,9.19,9.19,0,0,1,3.64,2.09c.83.91,1.76,1.74,2.55,2.71a20.23,20.23,0,0,1,2.34,3.58c.36.7.75,1.38,1.08,2.1a12.06,12.06,0,0,1,.59,1.69c.25,1,.46,1.9.68,2.86C124.69,125.3,124.37,125.46,124.09,125.67ZM33.16,85.17a7.58,7.58,0,0,0-2.28-1.82,5.12,5.12,0,0,0-.92-.28c-.55-.09-1.12-.13-1.67-.21a16.38,16.38,0,0,0-1.94-.33,25.44,25.44,0,0,1-2.61-.46A6.82,6.82,0,0,0,23,82a8.59,8.59,0,0,1-2.65-.47l-.11,0c-.78.1-1.15-.44-1.48-1a14.51,14.51,0,0,1-.87-1.77,6.12,6.12,0,0,1-.4-2.2,1.54,1.54,0,0,0-.1-.61,6.57,6.57,0,0,1-.3-2.2,9,9,0,0,1,1-4.31q1-2.3,2-4.62a2.61,2.61,0,0,1,1.37-1.42l3.23-1.51c.45-.21.93-.4,1.38-.62a1.46,1.46,0,0,1,1.05,0c.66.18,1.31.38,2,.58s1.09.31,1.62.5.85.33,1.26.52a30.32,30.32,0,0,1,3.26,1.67c.24.15.46.33.69.48,1.25.79,2.53,1.52,3.73,2.37A5.51,5.51,0,0,1,41.71,70c.38,1.11.8,2.22,1.21,3.32.32.85.62,1.7,1,2.51a1.14,1.14,0,0,1-.07,1.08c-.31.6-.65,1.19-1,1.79a9,9,0,0,1-1.4,2c-1.23,1.27-2.56,2.43-3.85,3.63-.32.31-.61.65-.93,1s-.91.78-1.36,1.17l-.63.58A18.09,18.09,0,0,1,33.16,85.17Zm-.84,26.5c.47.1.94.28,1.41.42a39.25,39.25,0,0,0,5.27,1c.89.12,1.77.36,2.66.52,2.11.39,4.23.76,6.35,1.13l2.55.43c.21,0,.41,0,.56,0a2.89,2.89,0,0,1,.79,2.22,11.4,11.4,0,0,1-.15,1.42c-.16,1-.35,2-.52,3a1.48,1.48,0,0,0,.07,1,1.27,1.27,0,0,1,0,.55,7.92,7.92,0,0,1,0,.85,3.41,3.41,0,0,1-.16.57c0,.12-.16.25-.14.36.11.81-.48,1.12-1,1.47-.05,0-.12,0-.15.08a3.07,3.07,0,0,1-1.91.76.2.2,0,0,0-.11,0,3.44,3.44,0,0,1-1.64.29c-.8.07-1.61.07-2.42.07-1.24,0-2.48,0-3.72,0l-2.48,0c-1.37,0-2.75,0-4.11,0-.8,0-1.6.16-2.4.23-.22,0-.45,0-.68,0a16.67,16.67,0,0,1-3.08-.06c-.58-.07-1.16-.17-1.74-.22s-1.23,0-1.82-.1A10.54,10.54,0,0,1,19.23,126a7.19,7.19,0,0,1-.92-.91l-1.47-1.63c.45-.56.84-1.09,1.26-1.59.55-.65,1.14-1.26,1.66-1.93A22.13,22.13,0,0,1,22,117.6a15.29,15.29,0,0,0,2.18-2.37,7.35,7.35,0,0,1,1.16-1.14c.81-.78,1.6-1.58,2.41-2.36.42-.4.87-.76,1.31-1.16A14.86,14.86,0,0,0,32.32,111.67Zm41,24.74a25,25,0,0,0-.92-3.06c-.29-.77-.38-1.61-.62-2.4a10.41,10.41,0,0,1-.49-2,14.6,14.6,0,0,1-.12-1.46,5.58,5.58,0,0,0-.23-1.72c-.15-.49-.2-1-.32-1.52-.08-.31-.23-.6-.32-.91s-.19-.71-.26-1.07a3.41,3.41,0,0,0-.64-1.24c-.63-1-1.45-1.87-2.17-2.81l-2-2.55c-.42-.53-.86-1-1.28-1.58a2.69,2.69,0,0,1-.27-.54c.47,0,.84-.06,1.21-.12a36.61,36.61,0,0,1,4.78-.44c.89,0,1.78.06,2.66.11.39,0,.78.12,1.17.12s.74-.1,1.11-.12a10.65,10.65,0,0,1,1.13,0,1.09,1.09,0,0,1,.43.11c1,.46,2,.93,3,1.38.42.2.87.32,1.3.51a4.39,4.39,0,0,1,.71.44c.61.44,1.21.88,1.8,1.34a13.24,13.24,0,0,1,2.34,1.8l1.2,1.44a29,29,0,0,1,3.29,4.91,11.77,11.77,0,0,1,1,2,4.13,4.13,0,0,1,.27,2.14c0,.17,0,.35,0,.51a2,2,0,0,1-.2.74c-.35.53-.74,1-1.13,1.53s-.64.82-1,1.21-.87,1-1.34,1.45a8.88,8.88,0,0,1-4.71,2.76,24.14,24.14,0,0,1-2.82.19c-.68,0-1.36,0-2,0L74,137.54a3.92,3.92,0,0,1-.42,0C73.5,137.13,73.38,136.77,73.29,136.41Zm62-13.39a6.94,6.94,0,0,1-1.28-.08c-.43,0-.86-.16-1.29-.21-.26,0-.52,0-.78,0a7.69,7.69,0,0,1-1.67-.17,10.62,10.62,0,0,0-2.24-.26,19.31,19.31,0,0,0-2,0c-.08-.26-.16-.48-.23-.71a25.28,25.28,0,0,0-2-4.27,26.7,26.7,0,0,0-2.64-3.87,21.2,21.2,0,0,0-2.21-2.33,19.07,19.07,0,0,0-1.62-1.38,12.35,12.35,0,0,0-1.66-.85l-.54-.25a4.59,4.59,0,0,1,.79-1.38c.86-1,1.65-2,2.51-3a19.61,19.61,0,0,1,2.92-2.84c.36-.27.64-.63,1-.92a2,2,0,0,1,.61-.39.62.62,0,0,1,.46.1c.46.25.89.56,1.36.79.86.42,1.75.78,2.62,1.19.61.28,1.21.6,1.82.89.36.17.72.33,1.09.48a15.23,15.23,0,0,1,3.86,2.43c.34.28.69.53,1,.83.52.49,1,1,1.52,1.51a2.23,2.23,0,0,1,.55,1.08,16.2,16.2,0,0,1,.35,2.85c.14,1.35.32,2.69.37,4,0,1,.2,2,.33,3,0,.32.16.62.23.93a4.17,4.17,0,0,1,0,2A15,15,0,0,1,135.33,123ZM69.16,137.44c-1,0-2-.09-3-.09a11,11,0,0,1-4.2-.8A16.21,16.21,0,0,1,58.73,135c-.86-.58-1.66-1.25-2.46-1.91a15.45,15.45,0,0,1-2.51-2.6c-.65-.85-1.25-1.74-1.89-2.63a1.18,1.18,0,0,0,.64-1.1c.1-.79.24-1.57.38-2.35a23.46,23.46,0,0,0,.57-3.14,4.72,4.72,0,0,1,.28-1.44,2.28,2.28,0,0,1,.65-.89c.82-.67,1.65-1.33,2.52-1.92,1.21-.83,2.46-1.61,3.71-2.38a11.53,11.53,0,0,1,1.27-.56c.22.3.43.59.65.87.61.76,1.25,1.51,1.85,2.28,1,1.33,2,2.67,3,4a4.8,4.8,0,0,1,.85,1.76c.13.51.37,1,.5,1.49a18.41,18.41,0,0,1,.41,1.93,6.31,6.31,0,0,1,0,1.23,7.89,7.89,0,0,0,.33,2.21c.17.65.34,1.3.52,1.95.28,1,.58,1.93.85,2.9.17.61.31,1.23.46,1.85.06.28.12.57.19.92C70.67,137.46,69.91,137.46,69.16,137.44ZM23.53,98.09a18.17,18.17,0,0,0-2.36-2.28,15.45,15.45,0,0,1-3-3c-.08-.11-.21-.23-.2-.33,0-.63-.38-1.1-.56-1.64-.23-.7-.52-1.38-.79-2.06-.49-1.22-1-2.45-1.48-3.66-.36-.83-.76-1.64-1.13-2.46a1.51,1.51,0,0,1-.08-.35c.5,0,1,.06,1.43.14.73.11,1.45.26,2.17.4,1.08.21,2.15.44,3.23.62.59.1,1.2.11,1.8.19.43.06.85.17,1.28.26.25,0,.51.12.77.16l4.44.6a3,3,0,0,1,1.81,1.06c.49.55.95,1.13,1.44,1.67.29.32.4.78.83,1,.05,0,.06.14.09.2a4.9,4.9,0,0,0,.32.65c.25.41.55.79.79,1.21s.25.62.42.9c.69,1.2,1.37,2.4,2.1,3.56s1.37,2,2,3a2.09,2.09,0,0,1,.34.94c.06.7.06,1.4,0,2.11,0,.31-.21.43-.5.33a4.37,4.37,0,0,1-.93-.43,3,3,0,0,0-1.73-.43c-1,0-2.07,0-3.11,0-.7,0-1.4,0-2.09,0s-1.44.1-2.15.06a4.52,4.52,0,0,0-2,.37,3.76,3.76,0,0,1-.44.15A28.58,28.58,0,0,1,23.53,98.09ZM128.83,76.2a3,3,0,0,1,.64.2,18.25,18.25,0,0,1,2.05.82,15.71,15.71,0,0,1,2.95,1.62,17,17,0,0,0,2,1.21.69.69,0,0,1,.4.5,1.56,1.56,0,0,0,.34.63,12.19,12.19,0,0,1,.8,1.22,6,6,0,0,1,.94,2.85c0,.26.07.52.1.78l.09.84s0,.08,0,.11c.32.45,0,.78-.17,1.17a5.76,5.76,0,0,0-.58,2.23,6.87,6.87,0,0,1-.53,2,1,1,0,0,0-.09.21A7.29,7.29,0,0,1,136,95.6c-.27.34-.49.71-.74,1.06-.07.1-.18.24-.27.24-.32,0-.42.19-.53.43-.26.57-.39.65-1,.51-1-.23-2.05-.47-3.07-.74a12.81,12.81,0,0,0-3.15-.25,4,4,0,0,0-1.46.16.3.3,0,0,1-.42-.26,2.75,2.75,0,0,1,1.74-.24c.78.09,1.57.19,2.36.23a2.62,2.62,0,0,0,1.93-.82,1.36,1.36,0,0,0,.24-.56,9.38,9.38,0,0,1,.31-1.47,1.08,1.08,0,0,0-.06-.55c0-.13-.14-.25-.14-.37a4.29,4.29,0,0,0-.64-1.77.5.5,0,0,0-.54-.34,4,4,0,0,0-.77.12,5.13,5.13,0,0,1-1.91.17,7,7,0,0,0-1.58,0,11.07,11.07,0,0,1-3,0,2.14,2.14,0,0,1,.09-.34c.29-.75.59-1.5.89-2.25a2.19,2.19,0,0,1,.17-.29,17.18,17.18,0,0,0,1-1.7,9.14,9.14,0,0,0,.41-1.47c.09-.36.15-.74.24-1.1a5.27,5.27,0,0,0,.14-2.4,8.17,8.17,0,0,0-.28-1.49,9.05,9.05,0,0,0-.79-2.44c-.36-.49-.74-1-1.11-1.44a3.39,3.39,0,0,1-.19-.32A24.25,24.25,0,0,1,128.83,76.2ZM55.15,106.05a3.11,3.11,0,0,0,.38.75.84.84,0,0,0,.45.3c.55.09,1,.35,1.56.47s1.35.19,2,.29,1.34.23,2,.32a.78.78,0,0,0,.43-.06.53.53,0,0,1,.63.07c.31.24.64.47.94.73l2.8,2.54a2.68,2.68,0,0,1-.8.13,1.81,1.81,0,0,0-1,.1,2.08,2.08,0,0,1-1.69,0c-1.16-.57-2.39-1-3.55-1.6a18.59,18.59,0,0,1-2.63-1.53,26.66,26.66,0,0,1-2.17-2c-.28-.26-.57-.5-.84-.76a7.67,7.67,0,0,0-.71-.69c-.78-.56-1.57-1.1-2.36-1.64a5.27,5.27,0,0,1-2.14-2.83,7.3,7.3,0,0,1-.57-2.86,1.4,1.4,0,0,0-.05-.5,8.37,8.37,0,0,0-1.3-2.56,15.9,15.9,0,0,1-1-1.43c-.51-.77-1-1.57-1.5-2.33s-1.1-1.53-1.68-2.27a5.86,5.86,0,0,0-1-1c-.35-.26-.81-.14-1.21-.11s-.69.2-1,.26a1.88,1.88,0,0,0-1.22.93,1.72,1.72,0,0,1-.44.49.53.53,0,0,0-.23.58,1.93,1.93,0,0,0,.55,1.09A11.35,11.35,0,0,1,39,92.68a12.83,12.83,0,0,0,1.69,2.38,8.77,8.77,0,0,1,1.75,2.59,3.58,3.58,0,0,1,.22,1.09c0,.9.07,1.81.08,2.71a4.67,4.67,0,0,0,1.09,2.75A7.84,7.84,0,0,0,45.7,106a14.55,14.55,0,0,1,2.51,2.45,12.79,12.79,0,0,0,2.17,2c1,.71,1.93,1.51,2.93,2.22a10.32,10.32,0,0,0,3.15,1.86,2.75,2.75,0,0,1,.36.15s0,.06.11.15l-3,2.22a6.58,6.58,0,0,0-1.61-3,2.59,2.59,0,0,0-.39-.42,40.42,40.42,0,0,1-3.07-2.93c-1.24-1.14-2.32-2.44-3.5-3.63-1-1-2-1.88-3-2.85-.67-.66-1.29-1.37-1.95-2.06a1.67,1.67,0,0,0,.55-1.27c.07-.71.12-1.43.16-2.14a1.19,1.19,0,0,0-.05-.5c-.18-.54-.17-1.15-.6-1.6a1.63,1.63,0,0,0-.48-1c-.42-.57-.81-1.17-1.19-1.77s-.56-1-.85-1.44c-.08-.15-.15-.35-.29-.42-.32-.17-.37-.51-.53-.77a4.5,4.5,0,0,0-.89-1.4c0-.49-.47-.75-.67-1.18a4.86,4.86,0,0,1,1.23-1.12,40.77,40.77,0,0,0,3.42-3.15c.48-.47,1-.91,1.48-1.37s.77-.73,1.13-1.11.7-.79,1.05-1.19c.12.14.25.28.36.43a1.17,1.17,0,0,1,.26.42,5.35,5.35,0,0,0,1,2c.31.44.56.92.83,1.39l-.1.1c-.26-.15-.53-.28-.78-.45a2.06,2.06,0,0,0-1.12-.35.93.93,0,0,0-.84.38c-.46.64-1,1.26-1.41,1.91a1.06,1.06,0,0,0,.13,1.27c.6.61,1.23,1.18,1.82,1.79s1.32,1.4,2,2.11,1.14,1.26,1.73,1.87a15.56,15.56,0,0,1,2.33,3.25,24.65,24.65,0,0,0,1.6,2.46c.58.81,1.21,1.59,1.87,2.35.46.54,1,1,1.51,1.53A5.1,5.1,0,0,0,55.15,106.05ZM22.8,102.18a5.55,5.55,0,0,0-1.36.67A17.19,17.19,0,0,1,18,104.9c-.31.14-.6.41-.91.43s-.57-.24-.88-.34a4,4,0,0,1-.85-.5,10.8,10.8,0,0,0-1.55-1,7.12,7.12,0,0,1-1.81-.9c-.42-.34-.85-.67-1.28-1a6.3,6.3,0,0,0-1-.73,7.9,7.9,0,0,1-2.08-1.73A7.18,7.18,0,0,1,6.43,97.6c-.36-.65-.63-1.36-1-2a2.59,2.59,0,0,1,0-2c0-.13.09-.25.14-.41a1.53,1.53,0,0,1,.37,0,8.86,8.86,0,0,0,2.41.18c.26,0,.53,0,.79,0,.56,0,1.13,0,1.69,0s1.27-.14,1.91-.19a3.38,3.38,0,0,1,.9,0,4.94,4.94,0,0,0,2.13-.13c.43-.1.71.19,1,.46.42.44.79.92,1.22,1.34.69.67,1.43,1.3,2.11,2s1.56,1.59,2.34,2.39l2,2.1.22.25C24,101.8,23.4,102,22.8,102.18ZM16,118.73c-.1-.88-.15-1.77-.22-2.66-.08-1-.17-2.09-.22-3.14s-.05-1.93,0-2.89a3.17,3.17,0,0,1,.21-1.05,1.26,1.26,0,0,1,.65-.79,7.51,7.51,0,0,0,.72-.54c.72-.44,1.49-.8,2.16-1.3.87-.63,1.84-1.1,2.75-1.68a5,5,0,0,1,2.65-1,7.17,7.17,0,0,1,1.54,0,4.37,4.37,0,0,0,1.77-.15l.51-.11a4.4,4.4,0,0,1-.06,1.54c-.07.87-.15,1.74-.29,2.61-.08.53-.31,1-.44,1.56a4.67,4.67,0,0,1-1.6,2.09c-.51.5-1,1-1.51,1.52-.34.34-.7.68-1,1a11.18,11.18,0,0,0-1.13,1.26,21.36,21.36,0,0,1-2.4,2.45c-.41.43-.8.9-1.18,1.36l-2.29,2.78H16.4C16.26,120.67,16.11,119.7,16,118.73Zm32.15-5.62c-1.78-.27-3.55-.54-5.32-.84-.94-.16-1.87-.4-2.81-.59-.54-.11-1.08-.19-1.62-.27a26.08,26.08,0,0,1-4.11-.76c-1.29-.38-2.58-.72-3.87-1.09a7.69,7.69,0,0,1-.9-.35,15.92,15.92,0,0,0,.35-1.57,8.87,8.87,0,0,0,.25-2.3,4.48,4.48,0,0,1,.09-.7c0-.44,0-.89,0-1.33s0-.86,0-1.34a10.06,10.06,0,0,1,2.08-.19c.82.08,1.66.06,2.48.08.49,0,1,0,1.47,0a2.9,2.9,0,0,1,.71.15c.33.13.65.3,1,.45a5.43,5.43,0,0,1,1.69,1.2c1.06,1.08,2.15,2.12,3.22,3.19.89.9,1.75,1.83,2.64,2.73,1.11,1.14,2.22,2.26,3.33,3.39a.63.63,0,0,1,.1.17C48.65,113.16,48.4,113.15,48.15,113.11Zm100.11-6.49a2.78,2.78,0,0,1,.77.72,5.5,5.5,0,0,1,1.2,2.37,7.53,7.53,0,0,1,.2,1.32,3.19,3.19,0,0,1-.59,2.24.64.64,0,0,1-.1.13,40.24,40.24,0,0,0-3.27,3.26,20.58,20.58,0,0,1-2.14,1.82c-.89.65-1.73,1.38-2.61,2-.38.29-.82.51-1.29.81-.1-.43-.18-.77-.24-1.12a25.17,25.17,0,0,1-.63-5.42c.05-.78-.22-1.52-.23-2.29,0-.58-.06-1.16-.08-1.74a1.88,1.88,0,0,0-.22-1.08c-.15-.22-.05-.39.21-.45a15.71,15.71,0,0,0,2.9-1.13c1.33-.58,2.64-1.19,4-1.78.27-.12.56-.21.87-.32ZM34.88,61a8.81,8.81,0,0,1,1.57-2.15c.77-.79,1.52-1.62,2.37-2.34a9.22,9.22,0,0,1,1.71-1c.19-.11.4-.21.6-.3a2.27,2.27,0,0,1,1.11-.38,1.41,1.41,0,0,0,.59-.16,9.22,9.22,0,0,1,2.75-.84.49.49,0,0,0,.16-.05,8.94,8.94,0,0,1,3-.57c.65,0,1.31-.09,2-.12a3.09,3.09,0,0,1,2,.52,5.53,5.53,0,0,1-.33.85,7.79,7.79,0,0,1-2.3,2.48,7.53,7.53,0,0,0-2,1.82,1.5,1.5,0,0,1-.93.48c-2.07.54-4.2.81-6.31,1.21-.79.16-1.6.22-2.4.36s-1.59.31-2.38.5a7,7,0,0,0-1,.41l-.79.34C34.57,61.61,34.72,61.28,34.88,61Zm36.58,47.88c.73.19,1.45.43,2.19.56,1,.18,1.88.54,2.82.8a16.11,16.11,0,0,0,3.22.57,3.31,3.31,0,0,0,.62-.05,8.37,8.37,0,0,1,4.52,1c1,.49,2.11.93,3.14,1.44a26.68,26.68,0,0,1,3.9,1.93c.55.39,1.08.8,1.65,1.23a4.26,4.26,0,0,1-1.06.85,3,3,0,0,0-.52.41,20.88,20.88,0,0,0-2.36,3.38c-.06.11-.13.22-.22.36-.11-.07-.24-.11-.28-.19a15,15,0,0,0-1.89-2.46A14.76,14.76,0,0,0,85.62,117c-.7-.62-1.47-1.15-2.22-1.71-.59-.44-1.17-.9-1.78-1.3a12.29,12.29,0,0,0-1.49-.76c-.62-.28-1.25-.52-1.87-.8s-1.21-.59-1.82-.88a1.74,1.74,0,0,0-1-.14,2.26,2.26,0,0,1-1.64-.23c-.54-.34-1.11-.62-1.66-.93a5.79,5.79,0,0,1-1.46-1.29,1.47,1.47,0,0,1-.18-.36ZM45.2,74.08c-.26-.63-.53-1.27-.78-1.91-.14-.37-.24-.75-.37-1.12-.2-.56-.39-1.13-.63-1.67a8.19,8.19,0,0,0-1.9-2.58,19.52,19.52,0,0,0-2.85-2c-.85-.55-1.71-1.08-2.56-1.62a1.85,1.85,0,0,1-.28-.28,1.35,1.35,0,0,1,1.1-.6c.41,0,.81-.16,1.22-.23q1.8-.35,3.6-.66c.28,0,.56,0,.84-.09s.71-.09,1.06-.16l3.55-.74a1.47,1.47,0,0,1,0,.44,6.24,6.24,0,0,0-.24,3.29c.15,1.16.27,2.33.32,3.49a13.72,13.72,0,0,1-.14,2c0,.47-.07.94-.14,1.4a2.85,2.85,0,0,1-.25.92c-.37.72-.78,1.42-1.19,2.12a1.26,1.26,0,0,1-.21.22A2.29,2.29,0,0,1,45.2,74.08ZM69.41,105.7a6,6,0,0,0,.73.06,20.78,20.78,0,0,1,4.7.7c.36.09.7.28,1.06.39a21.41,21.41,0,0,0,4.55.88,7.74,7.74,0,0,0,2.65-.5,20.84,20.84,0,0,0,3.38-1.42,10,10,0,0,1,3.27-.86,15.39,15.39,0,0,1,4.54.22c1.27.23,2.55.37,3.82.54,1.11.14,2.22.24,3.31.44a4.27,4.27,0,0,1,1.16.56.27.27,0,0,1,.11.18c0,.37,0,.74,0,1.15-.59-.05-1.09.26-1.65.08-.36-.11-.76-.08-1.1-.22a16.5,16.5,0,0,0-3.78-.89c-.33-.05-.68,0-1,0-.71-.1-1.4-.25-2.11-.36-.24,0-.49,0-.73-.06-.06,0-.12,0-.17,0a4.35,4.35,0,0,0-2.15.11,2.49,2.49,0,0,0-1.6.76,1.67,1.67,0,0,0-.16,1.84.84.84,0,0,0,.23.23c1.09.74,2.15,1.52,3.31,2.15.9.5,1.89.77,2.81,1.2l2.63,1.22a9.17,9.17,0,0,1-1.51.85,1.25,1.25,0,0,1-1.19-.35,16.87,16.87,0,0,0-1.62-1.31,19.87,19.87,0,0,0-2.16-1.21c-.93-.45-1.89-.86-2.83-1.29s-1.86-.8-2.76-1.25a9,9,0,0,0-2.18-.76,7.11,7.11,0,0,0-1.9-.06c-.53,0-1.07,0-1.61,0a9.91,9.91,0,0,1-3.18-.7,16.35,16.35,0,0,0-2.41-.61,13.7,13.7,0,0,1-2.07-.54,10.71,10.71,0,0,0-3.11-.51,1.94,1.94,0,0,1-1.64-.92Zm58.41-7.34a14.81,14.81,0,0,1,4.18.69c.43.13.88.2,1.33.29a18.68,18.68,0,0,1,4.51,1.92c.57.27,1.14.56,1.71.85.95.5,1.89,1,2.84,1.5.55.28,1.12.53,1.67.82.33.16.64.36,1,.58l-6.46,3c-.3-.34-.55-.67-.85-1-.58-.56-1.18-1.1-1.79-1.63s-1-.83-1.48-1.21a20.69,20.69,0,0,0-5-2.77c-.52-.21-1-.51-1.52-.74l-2.6-1.11c-.2-.09-.38-.21-.68-.37A8.19,8.19,0,0,1,127.82,98.36Zm-2.6,29.92c-.1.65-.21,1.31-.34,1.95a1,1,0,0,1-.24.49,12.28,12.28,0,0,1-1,.87c-.87.65-1.73,1.32-2.64,1.92a7.38,7.38,0,0,1-1.54.69,20,20,0,0,1-2,.62c-.49.12-1,.16-1.5.24s-.89.16-1.33.22-.64.05-1,.08a19.68,19.68,0,0,1-3.76,0c-.45,0-.91,0-1.36,0h-2.66c-.8,0-1.61,0-2.42,0a11.79,11.79,0,0,1-1.27-.24l-3.21-.5c-.5-.07-1-.09-1.5-.16a7,7,0,0,1-.72-.19,5.88,5.88,0,0,1,.63-2.65c.33-.09.55.19.81.29a29.73,29.73,0,0,0,4.4,1.43,11.65,11.65,0,0,0,4.16.15q.7-.09,1.41-.15c1.52-.14,3-.26,4.57-.41,1-.1,2-.18,3-.37a27.21,27.21,0,0,0,3.45-.87,5.93,5.93,0,0,0,2.2-1.35,11.29,11.29,0,0,1,1.31-1c.19-.14.38-.26.55-.4l2.17-1.73C125.28,127.7,125.26,128,125.22,128.28ZM71.82,97.22a2.5,2.5,0,0,0,.88.16l1.9.27c.38,0,.75.08,1.12.15s.93.23,1.4.35a2.63,2.63,0,0,0,.53.15,23.78,23.78,0,0,0,3.15.13c.7,0,1.37.1,2.06.09.27,0,.55.14.83.16.86,0,1.72.1,2.58.11s1.5-.06,2.25,0a12.55,12.55,0,0,1,1.61.26,19.08,19.08,0,0,0,2.22.38c1.4.07,2.79,0,4.19.07a.87.87,0,0,1,.23,0,21.23,21.23,0,0,1,3.14.61,16.74,16.74,0,0,0,2.16.63,2.63,2.63,0,0,1-.43.3,18.68,18.68,0,0,1-3.16,1.24,2.1,2.1,0,0,1-.56.07c-1,0-2,0-3,0-.7,0-1.39-.06-2.08-.13-1.11-.12-2.21-.26-3.32-.39s-2.17-.26-3.25-.42c-.61-.1-1.22-.24-1.82-.39s-1.42-.43-2.14-.63a16.71,16.71,0,0,0-1.7-.39c-1.21-.19-2.43-.34-3.64-.5a2.89,2.89,0,0,0-1.34,0,1.33,1.33,0,0,1-1.18-.19,36.51,36.51,0,0,0-4.22-2.17,2.9,2.9,0,0,1-.34-.19l0-.14A6.45,6.45,0,0,1,71.82,97.22Zm64.71.16a10,10,0,0,1,.57-.95,11.67,11.67,0,0,0,2.44-5c.14-.65.23-1.3.39-1.94a4.83,4.83,0,0,1,1.62-2.65c.25-.2.48-.42.75-.65a1.49,1.49,0,0,1,.57.84c.23.62.39,1.25.59,1.88a4.8,4.8,0,0,0,.24.63,10.38,10.38,0,0,1,.75,2.11,10,10,0,0,1,.41,1.63,3.64,3.64,0,0,1-.49,2.6,6,6,0,0,1-1.5,1.52c-.87.57-1.7,1.19-2.56,1.77a12.05,12.05,0,0,1-1.26.72.44.44,0,0,1-.37,0c-1-.44-1.9-.9-2.85-1.36,0,0,0-.07-.06-.14C136.37,98.35,136.28,97.75,136.53,97.38Zm-96.9-8.45a.43.43,0,0,1,.68,0,8.64,8.64,0,0,1,.72.88c.82,1.17,1.66,2.34,2.46,3.54s1.56,2.4,2.28,3.64a3.54,3.54,0,0,1,.32,1.23,8.58,8.58,0,0,0,.31,2c.17.41.2.89.39,1.29a13.88,13.88,0,0,0,1.13,1.89,7.18,7.18,0,0,0,1,.93c1.06,1,2.42,1.51,3.37,2.64.63.74,1.47,1.29,2.17,2a13.71,13.71,0,0,0,3.59,2.34c.69.35,1.42.6,2.13.9a4,4,0,0,1,.47.23c-.74.42-1.43.82-2.14,1.21a.41.41,0,0,1-.31,0c-.5-.17-1-.35-1.48-.55a2.54,2.54,0,0,1-.51-.32c-.14-.09-.27-.21-.41-.3-.7-.5-1.42-1-2.1-1.51a23.91,23.91,0,0,1-4.49-4,15.65,15.65,0,0,0-2.61-2.33,6.54,6.54,0,0,1-2.13-3,3.66,3.66,0,0,1-.09-1.28,5.34,5.34,0,0,1,.1-1.91c0-.09-.09-.23-.1-.36a5.4,5.4,0,0,0-1.12-2.44C42.89,95,42.47,94.48,42,94a18.07,18.07,0,0,1-1.56-2.22,13.05,13.05,0,0,0-1.19-1.5,4.48,4.48,0,0,0-.42-.36Zm32.44,5.88.1.57a9.63,9.63,0,0,1-4.34-.55c.34-.22.59-.39.86-.55,1-.54,1.91-1.07,2.86-1.62a5.47,5.47,0,0,0,.74-.52,9,9,0,0,1,2.48-1.23,22.27,22.27,0,0,1,4.44-1.34c.91-.16,1.84-.19,2.75-.32a24.61,24.61,0,0,0,3.7-.79A31.13,31.13,0,0,0,89.76,87a8.47,8.47,0,0,1,1-.32.4.4,0,0,1,.54.16c.18.29.39.55.57.84s.15.43-.11.7a3.62,3.62,0,0,1-1.41.91,22.35,22.35,0,0,1-4.66,1.34c-.81.11-1.64.12-2.46.19a2.32,2.32,0,0,0-.38.06l-1.76.38a2.72,2.72,0,0,0-.37.13c-.67.29-1.34.6-2,.88s-1.2.6-1.84.82c-.88.31-1.7.78-2.56,1.17-.46.21-.94.37-1.44.57C72.62,94.72,72.39,94.54,72.07,94.81Zm-59.24-11c.45,1,.92,2,1.32,3A16.65,16.65,0,0,1,15,89.26a9.85,9.85,0,0,0,.61,1.52c.07.17.15.33.24.53a3.54,3.54,0,0,1-.33.14,13.47,13.47,0,0,1-3,.13c-.68,0-1.36.09-2,.1-1.15,0-2.3,0-3.44,0l-.88,0c0-.09,0-.17,0-.22.51-1.09,1-2.19,1.53-3.26s1-1.83,1.53-2.74a5.86,5.86,0,0,0,.26-.57,3,3,0,0,1,1.09-1.46c.28-.2.53-.44.82-.61a5.27,5.27,0,0,1,.75-.33C12.4,83,12.63,83.36,12.83,83.78Zm78.91,48.48a7.5,7.5,0,0,1,.63-.7.72.72,0,0,0,.29-.63,13.37,13.37,0,0,0,0-1.79,5.46,5.46,0,0,0-.22-1.75c.14-1-.55-1.61-.91-2.37s-.81-1.45-1.23-2.2A5.94,5.94,0,0,0,91.63,121a14.23,14.23,0,0,1,1.2-1.71,2.1,2.1,0,0,1,.57-.45c.7-.44,1.42-.85,2.11-1.31a.76.76,0,0,1,.83,0l-.46.81a9.29,9.29,0,0,0-.61,2,17.13,17.13,0,0,0-.53,5c0,.55,0,1.1,0,1.64a4.55,4.55,0,0,0,.21,1.05c.29.8.61,1.58.92,2.37a1,1,0,0,1,0,.71,6.23,6.23,0,0,0-.59,2.58A21,21,0,0,1,91.74,132.26ZM64.13,95.37A19.84,19.84,0,0,0,66.94,97c1,.54,2,1.13,3.08,1.68s1.81.93,2.71,1.41a5.66,5.66,0,0,1,.59.34,9,9,0,0,0,1.52.75,18.46,18.46,0,0,1,2.33,1.12A31.15,31.15,0,0,0,81,104l2.34,1c0,.06,0,.12-.07.12-.53.11-1,.41-1.53.47a1.67,1.67,0,0,0-.2.08,1.21,1.21,0,0,1-1.18-.25,5.41,5.41,0,0,0-1.5-.75c-.67-.29-1.35-.56-2-.83-.18-.07-.35-.15-.53-.21-1.1-.4-2.21-.77-3.3-1.19a12.34,12.34,0,0,1-1.39-.74,13.43,13.43,0,0,0-1.37-.68,16.51,16.51,0,0,1-2-1,31.18,31.18,0,0,0-4.3-2,.51.51,0,0,1-.39-.58,5.85,5.85,0,0,0-.48-2.4c0-.06,0-.14,0-.31A11.43,11.43,0,0,1,64.13,95.37Zm36.58.61c.34-.24.65-.51,1-.76.7-.52,1.42-1,2.09-1.55a33.68,33.68,0,0,1,2.94-1.77,4.88,4.88,0,0,1,1.33-.47c.58-.16,1.17-.27,1.74-.42s1.2-.33,1.79-.51a10.52,10.52,0,0,0,2.81-1.39,21.05,21.05,0,0,1,2-1.08c.28-.16.54-.34.82-.51l1.41-.81.32.34c-.11.14-.22.29-.34.43s-.16.11-.21.19a6.45,6.45,0,0,1-2.21,1.73c-.58.34-1.13.75-1.72,1.09s-1.29.71-1.94,1.06a2,2,0,0,0-.25.13c-1,.89-2.31,1.07-3.45,1.62-.53.25-1.08.45-1.59.74-1.83,1-3.64,2-5.45,3.1a10.72,10.72,0,0,0-1,.78.56.56,0,0,1-.29.12L98.23,98l-.2,0,0-.13Zm9.59,6.64c1.27-.5,2.54-1,3.83-1.5s2.38-.84,3.56-1.29a2,2,0,0,0,1.31-2,9.17,9.17,0,0,1,1.19-.38c.76-.16,1.53-.24,2.29-.39a1.32,1.32,0,0,1,1.51.64l-.91.41a6.91,6.91,0,0,0-2.23,1.39c-.53.53-1.14,1-1.67,1.53s-1.28,1.37-1.9,2.07c-.41.46-.79,1-1.17,1.43s-.55.75-.82,1.13a10.3,10.3,0,0,1-2-1,7.77,7.77,0,0,0-1.8-1c-.49-.22-1-.51-1.49-.82C110.15,102.71,110.22,102.65,110.3,102.62Zm-1.94,5.65a7.22,7.22,0,0,1-1.71.81c-.27.12-.53.27-.8.41s-.7.42-1.07.58a14.45,14.45,0,0,0-2.06,1.18,12,12,0,0,1-1.64.83c-.4.17-.82.28-1.21.44-.15.06-.25.21-.41.36a7,7,0,0,1-1.9-.95.52.52,0,0,0-.25-.14,6.62,6.62,0,0,1-1.53-.7c-.07,0-.14-.11-.2-.1-.56.09-.9-.38-1.37-.53a6.62,6.62,0,0,1-.78-.3c-.69-.3-1.37-.59-2.05-.92a6.08,6.08,0,0,1-.73-.51c.11-.07.16-.12.21-.12l2.48.25a5.61,5.61,0,0,0,2,.09c.18,0,.39.07.59.11.55.11,1.1.2,1.65.33.88.21,1.75.5,2.64.65a19.56,19.56,0,0,0,2.42.18,1.14,1.14,0,0,0,1.18-.86,4.19,4.19,0,0,0,.27-2.37,7.4,7.4,0,0,1,0-1.35C105.58,106.44,106.92,107.42,108.36,108.27Zm8.9-12.78c-.33-.48-.43-.51-.9-.2a2.28,2.28,0,0,1-.45.2c-.13.05-.26.07-.38.12-.62.26-1.23.56-1.85.81-1.31.53-2.63,1-4,1.56-.29.11-.59.19-1,.31a2.28,2.28,0,0,1,1-1,38,38,0,0,1,3.47-1.66,13.85,13.85,0,0,1,3-1,7.83,7.83,0,0,0,.86-.27c1-.27,2-.59,3-.77a16.12,16.12,0,0,1,2.31-.08c1.17,0,2.34,0,3.51-.12a21,21,0,0,0,2.23-.32,7.36,7.36,0,0,0,.9-.31,4.31,4.31,0,0,1,.49-.11.33.33,0,0,1,.41.21,2.44,2.44,0,0,1,.1,2c-.16.41-.28.49-.72.44-1-.12-1.91-.26-2.87-.36a1.47,1.47,0,0,0-.72.09,1.87,1.87,0,0,1-1,.16,1.38,1.38,0,0,0-.61,0,11.66,11.66,0,0,1-2.34.38,9.65,9.65,0,0,0-3.42.92l-.21.06A3.09,3.09,0,0,1,117.26,95.49ZM99.85,103.4c.71,0,1.2-.51,1.81-.74s1-.43,1.55-.67.83-.43,1.26-.62c.64-.28,1.27-.58,1.93-.8.95-.31,1.93-.52,2.89-.82a29.56,29.56,0,0,0,5.41-2.14,1.1,1.1,0,0,0,.33-.21,2.08,2.08,0,0,1,1.09-.6c.33.42.67.84,1,1.27.17.23,0,.34-.18.41-.46.16-.94.29-1.4.47-1.46.55-2.92,1.12-4.38,1.68-.85.33-1.71.6-2.54,1-1,.46-2.06,1-3,1.51a9.57,9.57,0,0,1-2.87,1c-.1,0-.2.07-.28,0a21,21,0,0,0-3.05-.44s0,0-.09-.1A1.61,1.61,0,0,1,99.85,103.4Zm27.47-28.78a2.84,2.84,0,0,0-1.23-.1c-.73,0-1.47,0-2.2.06-.3,0-.6.07-.9.09s-.42,0-.56-.18a6.31,6.31,0,0,1-1.48-3.1,1.44,1.44,0,0,1,.28-1,15.14,15.14,0,0,0,1-1.72l.18-.27c.47.32.92.62,1.35.93.25.17.44.42.7.56a6.68,6.68,0,0,1,2,1.74,7.22,7.22,0,0,1,1.41,3A1.5,1.5,0,0,1,127.32,74.62ZM70,103.79c-.3,0-.61,0-.91-.05s-.43-.08-.65-.12a1.41,1.41,0,0,0-.22-.06c-1-.1-2.09-.21-3.14-.28a4.15,4.15,0,0,0-.88.15,4.21,4.21,0,0,1-.91-.62,1.63,1.63,0,0,1-.38-1.56c.16-.67.36-1.33.57-2.06l1.55.7c1.66.77,3.19,1.8,4.93,2.42a2.17,2.17,0,0,1,.53.31,7,7,0,0,0,2.38,1.15c.15,0,.3.12.45.18l0,.14C72.19,104,71.1,103.88,70,103.79Zm36.88.34a9.64,9.64,0,0,0,1-.54.63.63,0,0,1,.78,0l1.45.88,2.83,1.64c.44.25.89.48,1.37.74l-.62,1.23-2.74-.53a.52.52,0,0,0-.17,0c-.75.22-1.26-.2-1.83-.6-1-.68-2-1.27-3-1.9l-.39-.26ZM43.79,86a7.08,7.08,0,0,1,2.12,1.43c.78.85,1.51,1.74,2.34,2.54.55.53.89,1.2,1.39,1.76s.9,1.1,1.33,1.67.9,1.28,1.35,1.92a5.7,5.7,0,0,1,.81,1.32c.27.75.63,1.47.95,2.21a2.2,2.2,0,0,1,0,.29c-.13-.06-.23-.07-.27-.13-.44-.54-.89-1.08-1.29-1.65s-.68-1.07-1-1.62-.67-1.25-1.07-1.83a8.88,8.88,0,0,0-1.56-1.9,19.3,19.3,0,0,1-1.5-1.62,15.36,15.36,0,0,0-1.66-1.76c-.69-.53-1.12-1.28-1.78-1.84l-.47-.38Zm13.66,8.6a19.09,19.09,0,0,0-2.89-2.34,2.37,2.37,0,0,1-.34-.29L53,90.79c-.33-.32-.37-.44-.17-.84a3.93,3.93,0,0,1,.52-.8c.28-.3.45-.29.78-.05s.48.36.71.54c.66.51,1.32,1,2,1.52a.89.89,0,0,1,.33.42c.28,1,.53,2.08.79,3.12a1.48,1.48,0,0,1,0,.27A3.41,3.41,0,0,1,57.45,94.64Zm-2,.32a17.83,17.83,0,0,0,2.76,2.21.56.56,0,0,1,.28.45,10.59,10.59,0,0,1,0,2.51,3.47,3.47,0,0,1-.51-.25c-.4-.25-.76-.55-1.17-.77a1.38,1.38,0,0,1-.61-1,23.61,23.61,0,0,0-1.52-3.45,3.62,3.62,0,0,1-.13-.35l.06-.06C54.87,94.52,55.17,94.72,55.45,95Zm25.76,6.91c1.22.33,2.45.63,3.68.92.78.18,1.57.34,2.45.52-.46.23-.85.42-1.23.63a1.92,1.92,0,0,0-.45.29.47.47,0,0,1-.62,0,10.63,10.63,0,0,0-2.2-1L80,102.06c-.35-.15-.7-.33-1.05-.5A7.45,7.45,0,0,1,81.21,101.87Zm59.54-18.11a7.91,7.91,0,0,0,.28.91,1,1,0,0,1-.53,1.25,4.54,4.54,0,0,1-.28-1.42,3,3,0,0,0-.48-1.82c-.14-.22-.26-.46-.39-.69C140,82.44,140.66,82.88,140.75,83.76Zm-81.5,22.35a3,3,0,0,1-1.19-.18c-.36-.1-.72-.23-1.08-.31-.86-.2-1.15-.63-1-1.64C56.9,105,58.21,105.22,59.25,106.11Zm43.51-7.69a13,13,0,0,1,2.67-1.33A2.5,2.5,0,0,1,102.76,98.42Z"/><path d="M116,138.67l-.17-.18c0-.05.1-.12.15-.13a.18.18,0,0,1,.14.13S116.06,138.58,116,138.67Z"/><path class="cls-1" d="M55.6,85.49a6.76,6.76,0,0,0,.57,3.07,22.36,22.36,0,0,0-2.56-1.87.83.83,0,0,1,0,.29c-.07.12-.14.26-.25.31s-.35-.05-.41,0c-.31.39-.9.45-1.11,1A18.62,18.62,0,0,1,51,90a2.26,2.26,0,0,1-.86-1c0-.07,0-.2,0-.3.11-.52.09-.57-.37-.87a8,8,0,0,1-1.35-1.25,1.13,1.13,0,0,1-.34-.82c0-.09,0-.21,0-.26-.33-.34-.37-.82-.59-1.21a16.36,16.36,0,0,0-1.11-1.77,4.33,4.33,0,0,1-.57-1.28.87.87,0,0,1,.14-.81,3.56,3.56,0,0,0,.63-1.84,16.19,16.19,0,0,1,.46-2.5,6.53,6.53,0,0,1,.83-1.59,8.6,8.6,0,0,0,1.52-4.09,17.53,17.53,0,0,0,.09-3.32c-.17-1.36-.26-2.73-.41-4.1a3.13,3.13,0,0,1,.65-2.33,22,22,0,0,1,1.52-1.81,11.1,11.1,0,0,1,1.19-1,1.44,1.44,0,0,0,.3-.24c.49-.7,1-1.4,1.44-2.1a.51.51,0,0,0,.11-.25,1.57,1.57,0,0,1,.52-1.15,2.5,2.5,0,0,0,.42-1.27,2,2,0,0,1,.19-.8c.59-.83.95-1.78,1.46-2.65s.78-1.5,1.18-2.24a6.08,6.08,0,0,1,.55-.78s.09-.08.11-.13c.32-.74.87-1.36,1.16-2.11a3.41,3.41,0,0,1,.29-.61,13.88,13.88,0,0,0,1-2.59,3.88,3.88,0,0,0,.11-.61l.36-1.77a.9.9,0,0,0,0-.16A15.12,15.12,0,0,1,62.44,35a13.25,13.25,0,0,0,.36-1.66c.23-1.38.45-2.76.65-4.14,0-.41,0-.83,0-1.24a.57.57,0,0,1,.15-.39c0-.05.25,0,.35.06a5.56,5.56,0,0,1,2,1.94,1.44,1.44,0,0,0,.79.67.89.89,0,0,1,.26.12c.44.41.92.24,1.38.09a1,1,0,0,0,.44-.39c.53-.82,1.05-1.66,1.54-2.5a16.33,16.33,0,0,0,.89-1.71,6.77,6.77,0,0,0,.34-1.36c.11-.55.18-1.11.29-1.67a12.67,12.67,0,0,1,1.64-4.36,4.07,4.07,0,0,1,.85-.91,15.55,15.55,0,0,1,2.79-2.12c.33-.16.64-.34,1-.49A13.83,13.83,0,0,0,82.07,12a4.79,4.79,0,0,0,.57-.77,2.79,2.79,0,0,1,1-.95A2.75,2.75,0,0,1,85,11.85c.41,1,.77,1.93,1.23,2.86a20.06,20.06,0,0,0,1.2,2,9,9,0,0,0,2.63,2.39,19.55,19.55,0,0,0,3.45,1.81,5.28,5.28,0,0,1,2.28,1.8A27.29,27.29,0,0,1,99,27.61,17.76,17.76,0,0,1,100.42,33a10.72,10.72,0,0,1,0,1.7,16.71,16.71,0,0,0,.08,4.24,6,6,0,0,0,.34,1.78,5.21,5.21,0,0,0,1,1.59,2.74,2.74,0,0,1,.41.54,1.85,1.85,0,0,0,1.81,1,1.73,1.73,0,0,0,1.27-.67,18.6,18.6,0,0,1,2.8-2.88c.28-.25.53-.53.86-.85.1.22.2.4.27.58.39,1.08.77,2.17,1.18,3.25a2.43,2.43,0,0,0,.47.81.93.93,0,0,1,.26.6,2.35,2.35,0,0,0,.58,1.32,12.4,12.4,0,0,0,2.38,2.58c.66.47,1.32.94,2,1.4a14.3,14.3,0,0,1,4.17,4.28,3.12,3.12,0,0,1,.35.82c.34,1.36.71,2.7.94,4.07a13.31,13.31,0,0,1-.16,4.58,18.52,18.52,0,0,1-.72,2.26c-.32,1-.63,1.93-1,2.89a3,3,0,0,1-.44.78,3.08,3.08,0,0,0-.59,2.69,10.17,10.17,0,0,0,1.49,3.2,7.75,7.75,0,0,0,1.05,1.16,9.46,9.46,0,0,1,1.6,2,2.28,2.28,0,0,1,.43,1.14.64.64,0,0,0,0,.28,5.12,5.12,0,0,1,.15,3c0,.24,0,.49,0,.73a16.41,16.41,0,0,1-.33,2.23,5.2,5.2,0,0,1-.7,1.34c-.36.59-.76,1.17-1.14,1.75a1.4,1.4,0,0,0-.2.92,1.13,1.13,0,0,1-.26.89,2.79,2.79,0,0,1-1.27.87c-.69.22-1.4.33-2.09.49a11.56,11.56,0,0,0-1.71.6c-1,.41-2,.84-3,1.26-.21.08-.44.12-.65.19a3.9,3.9,0,0,0-.48.17c-.7.31-1.4.63-2.09,1a.72.72,0,0,0-.24.14,2.25,2.25,0,0,1-.39.3c-.56.3-1.14.56-1.71.85l-.89.52-.38-.49c.23-.14.43-.27.64-.38,1.23-.66,2.45-1.33,3.7-2a9.9,9.9,0,0,1,1.33-.45,8.5,8.5,0,0,0,1-.42,9.59,9.59,0,0,0,1.87-.93c.17-.14.47-.13.83-.22a2.28,2.28,0,0,1,1.07-.84c.66-.32,1.34-.61,2-.94a2.75,2.75,0,0,0,.64-.45c.41-.37.82-.76,1.22-1.15a10.54,10.54,0,0,0,.93-1,1.21,1.21,0,0,0,.17-.63,1.14,1.14,0,0,0-.13-.55c-.42-.83-.85-1.66-1.31-2.47-.07-.14-.26-.21-.39-.31s-.42-.3-.62-.47a.8.8,0,0,0-1,.11l-.54.57c-.14.15-.28.3-.19.55,0,.07-.07.19-.12.31l-.3-.24c-.18.18-.35.35-.51.53-.41.45-.79.92-1.23,1.33a2,2,0,0,1-.88.49,3.77,3.77,0,0,0-1.11.62c-.06,0-.11.11-.18.13a11.9,11.9,0,0,0-2.45,1.28,2.21,2.21,0,0,1-1.21.17,3.38,3.38,0,0,1-.57-.11c-.07-.8-.19-1.6-.19-2.4a3.38,3.38,0,0,1,.53-2.11.54.54,0,0,0,.1-.2,4.42,4.42,0,0,1,.92-1.85,3.32,3.32,0,0,0,.39-.88c.25-.77.51-1.54.7-2.33a8.85,8.85,0,0,0,.22-3.08,17.81,17.81,0,0,0-.94-3.89A5,5,0,0,1,110,71c0-.93,0-1.85.13-2.77a12.19,12.19,0,0,0,0-1.91,2.63,2.63,0,0,0-.2-.88,17.41,17.41,0,0,0-2.1-3.74,6.91,6.91,0,0,0-1.54-1.56c-.44-.29-.81-.68-1.22-1s-.62-.48-.93-.73-.58-.48-.85-.74a5.44,5.44,0,0,0-1.72-1.16c-.68-.28-1.32-.66-2-.91a13.73,13.73,0,0,0-1.81-.47,4,4,0,0,1-1.21-.6,11.09,11.09,0,0,1-2.35-2.34A2.34,2.34,0,0,1,94,51.7c-.19-.37-.35-.76-.57-1.11a11.56,11.56,0,0,1-1.27-3.19c-.21-.76-.44-1.51-.6-2.28s-.18-1.27-.26-1.9a34.48,34.48,0,0,0-.89-5.7c-.31-1.06-.61-2.13-.89-3.21-.39-1.49-.74-3-1.14-4.49-.15-.58-.39-1.14-.59-1.71a.54.54,0,0,0-.45-.38,1.5,1.5,0,0,0-1.2.21,25.61,25.61,0,0,1-3.67,2,9.06,9.06,0,0,0-2.4,2,57,57,0,0,0-3.68,4.54A16.7,16.7,0,0,0,73.8,41a7.75,7.75,0,0,1-1.28,1.92c-.16.21-.35.4-.52.59-.87-.26-1.18-.08-1.7.67a18.44,18.44,0,0,0-1.36,2.79,11.88,11.88,0,0,1-2.41,3.54c-.7.66-1.47,1.25-2.18,1.89s-1.29,1.23-1.93,1.85-1.17,1.12-1.73,1.71c-.35.37-.66.77-1,1.17-.58.7-1.21,1.36-1.72,2.11a16.52,16.52,0,0,0-2.4,4.85,18.63,18.63,0,0,0-.77,4.38,18.54,18.54,0,0,1-.76,4.06c-.18.71-.41,1.42-.56,2.14a13.87,13.87,0,0,0-.3,2.12,7.21,7.21,0,0,0,.5,2.94c.31.78.64,1.54.95,2.31a1.89,1.89,0,0,1,.1,1.31A2.05,2.05,0,0,0,55.6,85.49Z"/><path class="cls-2" d="M56,83.53c-.19-.16-.15-.33,0-.51a1,1,0,0,0,.09-.92c-.21-.6-.47-1.18-.67-1.79-.29-.91-.55-1.84-.81-2.76a2.18,2.18,0,0,1,0-.57,16.39,16.39,0,0,1,.8-4.15,15.67,15.67,0,0,0,.36-1.54c.16-.76.32-1.51.45-2.27,0-.28,0-.57,0-.85.1-.67.21-1.34.35-2s.31-1.31.47-2a.47.47,0,0,1,0-.17c.17-.43.33-.87.54-1.29.41-.85.82-1.69,1.29-2.51A10.41,10.41,0,0,1,59.87,59c.54-.65,1.06-1.32,1.64-1.93a36.53,36.53,0,0,1,4.16-4,24.24,24.24,0,0,0,3.06-2.93,3.78,3.78,0,0,0,.53-.73,25.67,25.67,0,0,0,1.45-2.62,12.67,12.67,0,0,1,.7-1.37l.83.15c.4.08.62-.15.82-.46.42-.63.85-1.26,1.3-1.87a11.27,11.27,0,0,0,1.48-2.38,16.11,16.11,0,0,1,2.33-4c.72-.9,1.39-1.84,2.13-2.72s1.28-1.43,2-2.13a7.77,7.77,0,0,1,2.07-1.33l2-1.05a1.75,1.75,0,0,1,.21.34c.24,1,.49,2.05.8,3.06.2.62.28,1.29.44,1.93.06.25.21.48.28.73.21.73.38,1.46.58,2.19a32.31,32.31,0,0,1,.71,4.8,4.61,4.61,0,0,0,.45,2,.41.41,0,0,1,0,.22,4.24,4.24,0,0,0,.44,2.3,1.26,1.26,0,0,1,.05.28A12.48,12.48,0,0,0,91.69,51c.34.62.68,1.26,1,1.88a2.4,2.4,0,0,0,.3.41c.18.22.39.41.56.64a7.29,7.29,0,0,0,2.73,2.16,8.88,8.88,0,0,0,1.57.45,6.08,6.08,0,0,1,2.09.82.59.59,0,0,0,.19.13c.9.15,1.43.87,2.08,1.4.42.35.86.67,1.3,1,.07.05.16.09.23.15.6.52,1.23,1,1.79,1.56A9,9,0,0,1,106.7,63c.5.8.94,1.64,1.37,2.48a3.81,3.81,0,0,1,.27,2c0,1.46-.09,2.93-.12,4.4a6.23,6.23,0,0,0,.47,2.08,10.62,10.62,0,0,1,.68,4.6,17.36,17.36,0,0,1-1,3.76,1.41,1.41,0,0,1-.33.45,6.4,6.4,0,0,0-1.36,2.88,10.89,10.89,0,0,0-.22,1.11,2.11,2.11,0,0,0,0,.83,10.51,10.51,0,0,0,.24,1.22,1.21,1.21,0,0,1-.4,1.29,4.12,4.12,0,0,1-1.7,1.08,1.25,1.25,0,0,0-.38.23c-.77.55-1.53,1.11-2.29,1.67A18.08,18.08,0,0,1,99,94.71a9.65,9.65,0,0,0-1.52,1.07L95.88,97s-.07,0-.09.06c-.37.58-.9.38-1.42.3,0-.07,0-.14.06-.16.45-.33.93-.64,1.38-1a7,7,0,0,0,2-2.11,18.57,18.57,0,0,1,1.07-1.6.89.89,0,0,0,.15-.29c.28-1.23.54-2.46.81-3.69a8.21,8.21,0,0,0,.18-.83c.07-.62.15-1.24.16-1.85a13.21,13.21,0,0,0-.1-2.18c-.17-1.23-.42-2.44-.64-3.66-.07-.44-.13-.89-.21-1.33-.2-1-.46-2.09-.6-3.15s-.69-2.27-.9-3.43a3.35,3.35,0,0,0-.43-.92,10.92,10.92,0,0,0-1.46-2.28c-.77-.85-1.49-1.75-2.29-2.57a10.69,10.69,0,0,1-1.36-2c-.29-.44-.6-.87-.9-1.31a25.18,25.18,0,0,1-2-3.39A37.07,37.07,0,0,0,86,54.12a1.16,1.16,0,0,0-1.59-.52,3,3,0,0,0-1.2.91,4.26,4.26,0,0,1-1.29,1,12.4,12.4,0,0,0-3.23,2.72,1.74,1.74,0,0,0-.18.22c-.37.76-.71,1.53-1.11,2.27s-.82,1.38-1.24,2.08c0,0-.08.08-.09.13a7.69,7.69,0,0,1-1.34,2.21,5.11,5.11,0,0,1-.92,1c-.53.49-1.07,1-1.63,1.41a6,6,0,0,1-.91.56,11.3,11.3,0,0,0-4,3.25c-.29.44-.66.82-.94,1.26-.4.62-.77,1.25-1.12,1.9s-.63,1.28-.93,1.93a4.12,4.12,0,0,0-.23.58c-.21.64-.41,1.29-.61,1.94a1.51,1.51,0,0,0-.09.5,26.56,26.56,0,0,1-.25,3.68c-.05.93-.1,1.85-.17,2.77a3.74,3.74,0,0,1-1,2.18c-.4-1-.79-1.89-1.12-2.8a3,3,0,0,0-1.54-1.79c-.42-.21-.86-.38-1.3-.55a.53.53,0,0,0-.33,0Z"/><path class="cls-3" d="M65.52,94.56l-1-.53a7.76,7.76,0,0,0-1.1-.59,1.31,1.31,0,0,1-.82-1.12c-.1-.51-.15-1-.28-1.55a1.09,1.09,0,0,1,.24-1,29.23,29.23,0,0,0,1.83-2.71,5.14,5.14,0,0,0,.46-2.58A11.72,11.72,0,0,1,65,82.36a24.47,24.47,0,0,0,.18-2.59,6.25,6.25,0,0,1,.19-1c.09-.36.21-.72.33-1.07s.25-.71.4-1.05c.29-.64.57-1.27.89-1.89a10.57,10.57,0,0,1,.73-1.26c.45-.63,1-1.22,1.4-1.85a5.44,5.44,0,0,1,2-1.65,15.1,15.1,0,0,0,2.22-1.35c1.09-.87,2.11-1.83,3.13-2.78a3.57,3.57,0,0,0,.62-.94c.61-1,1.21-2.08,1.79-3.13.29-.54.53-1.11.83-1.64A8.2,8.2,0,0,1,82,57.32l.37-.25c.77-.51,1.55-1,2.36-1.53.34.15.43.56.63.86.47.75.9,1.53,1.31,2.31.29.54.53,1.12.8,1.68.1.2.18.41.3.61l2,3.11c.43.68.82,1.39,1.31,2a26,26,0,0,0,2.91,3.38,6.5,6.5,0,0,1,1.67,2.59c.42,1.19.76,2.4,1.08,3.62.16.6.19,1.23.29,1.84a8.64,8.64,0,0,0,.23,1.27c.31,1,.31,2,.55,2.94a17.24,17.24,0,0,1,.41,3.35A8.35,8.35,0,0,1,98,87.91c-.24.86-.3,1.78-.51,2.65a5.09,5.09,0,0,1-.76,2c-.21.28-.34.63-.53.93a6.86,6.86,0,0,1-1.63,1.64,23.84,23.84,0,0,1-2.28,1.59,2.05,2.05,0,0,1-2.12.26.93.93,0,0,0-1.07,0,.57.57,0,0,1-.32.08,31,31,0,0,1-4-.37,5.31,5.31,0,0,0-1.69,0A11.89,11.89,0,0,1,80,96.46a11.8,11.8,0,0,0-1.46-.1,20,20,0,0,1-3.62-.42l0-.13c.45-.22.9-.49,1.38-.67a30.14,30.14,0,0,0,3.48-1.46,9.33,9.33,0,0,1,2.45-.83c.67-.12,1.34-.16,2-.27,1.11-.18,2.22-.39,3.33-.59a3.15,3.15,0,0,0,.55-.12c.39-.13.77-.28,1.15-.44s.92-.44,1.39-.61a5.25,5.25,0,0,0,1.8-1.14c.28-.25.58-.48.88-.71a.91.91,0,0,0,.25-1.29c-.46-.79-.94-1.57-1.41-2.35a.62.62,0,0,0-.65-.35,3.45,3.45,0,0,0-1.1.2c-.58.22-1.19.35-1.78.56-1,.34-1.89.76-2.86,1.05a22.57,22.57,0,0,1-5,.93,11.08,11.08,0,0,0-2.33.42c-1.09.28-2.16.62-3.23,1-.89.31-1.75.68-2.61,1.06a3.76,3.76,0,0,0-.85.55,26.59,26.59,0,0,1-3.58,2.16l-1.7,1a2,2,0,0,1-.25.13C65.73,94.21,65.73,94.21,65.52,94.56Z"/><path class="cls-4" d="M125,125.09c-.33.21-.65.37-.93.58l-3.78,3-.68.58a7.85,7.85,0,0,1-3.53,1.42c-1,.2-2,.36-2.94.5-.8.11-1.61.14-2.42.22-1.44.14-2.89.23-4.33.44a11.75,11.75,0,0,1-3.55,0,20.44,20.44,0,0,1-5.33-1.8,1.19,1.19,0,0,1-.4-.43,8.12,8.12,0,0,1-1.08-4.89c.06-.79.11-1.58.14-2.38a13.52,13.52,0,0,1,.67-3.09,4.68,4.68,0,0,1,.82-1.41c.5-.7,1-1.38,1.57-2.06a4.22,4.22,0,0,1,1.72-1.4c1.1-.44,2.16-1,3.22-1.53.76-.4,1.48-.88,2.25-1.28s1.52-.74,2.29-1.09c.53-.24,1.09-.42,1.62-.67a2.29,2.29,0,0,1,1.43-.19,12.24,12.24,0,0,1,2.36.52,9.19,9.19,0,0,1,3.64,2.09c.83.91,1.76,1.74,2.55,2.71a20.23,20.23,0,0,1,2.34,3.58c.36.7.75,1.38,1.08,2.1a12.06,12.06,0,0,1,.59,1.69C124.59,123.18,124.8,124.13,125,125.09Z"/><path class="cls-4" d="M34.73,87a18.09,18.09,0,0,1-1.57-1.85,7.58,7.58,0,0,0-2.28-1.82,5.12,5.12,0,0,0-.92-.28c-.55-.09-1.12-.13-1.67-.21a16.38,16.38,0,0,0-1.94-.33,25.44,25.44,0,0,1-2.61-.46A6.82,6.82,0,0,0,23,82a8.59,8.59,0,0,1-2.65-.47l-.11,0c-.78.1-1.15-.44-1.48-1a14.51,14.51,0,0,1-.87-1.77,6.12,6.12,0,0,1-.4-2.2,1.54,1.54,0,0,0-.1-.61,6.57,6.57,0,0,1-.3-2.2,9,9,0,0,1,1-4.31q1-2.3,2-4.62a2.61,2.61,0,0,1,1.37-1.42l3.23-1.51c.45-.21.93-.4,1.38-.62a1.46,1.46,0,0,1,1.05,0c.66.18,1.31.38,2,.58s1.09.31,1.62.5.85.33,1.26.52a30.32,30.32,0,0,1,3.26,1.67c.24.15.46.33.69.48,1.25.79,2.53,1.52,3.73,2.37A5.51,5.51,0,0,1,41.71,70c.38,1.11.8,2.22,1.21,3.32.32.85.62,1.7,1,2.51a1.14,1.14,0,0,1-.07,1.08c-.31.6-.65,1.19-1,1.79a9,9,0,0,1-1.4,2c-1.23,1.27-2.56,2.43-3.85,3.63-.32.31-.61.65-.93,1s-.91.78-1.36,1.17Z"/><path class="cls-4" d="M29.09,110.57a14.86,14.86,0,0,0,3.23,1.1c.47.1.94.28,1.41.42a39.25,39.25,0,0,0,5.27,1c.89.12,1.77.36,2.66.52,2.11.39,4.23.76,6.35,1.13l2.55.43c.21,0,.41,0,.56,0a2.89,2.89,0,0,1,.79,2.22,11.4,11.4,0,0,1-.15,1.42c-.16,1-.35,2-.52,3a1.48,1.48,0,0,0,.07,1,1.27,1.27,0,0,1,0,.55,7.92,7.92,0,0,1,0,.85,3.41,3.41,0,0,1-.16.57c0,.12-.16.25-.14.36.11.81-.48,1.12-1,1.47-.05,0-.12,0-.15.08a3.07,3.07,0,0,1-1.91.76.2.2,0,0,0-.11,0,3.44,3.44,0,0,1-1.64.29c-.8.07-1.61.07-2.42.07-1.24,0-2.48,0-3.72,0l-2.48,0c-1.37,0-2.75,0-4.11,0-.8,0-1.6.16-2.4.23-.22,0-.45,0-.68,0a16.67,16.67,0,0,1-3.08-.06c-.58-.07-1.16-.17-1.74-.22s-1.23,0-1.82-.1A10.54,10.54,0,0,1,19.23,126a7.19,7.19,0,0,1-.92-.91l-1.47-1.63c.45-.56.84-1.09,1.26-1.59.55-.65,1.14-1.26,1.66-1.93A22.13,22.13,0,0,1,22,117.6a15.29,15.29,0,0,0,2.18-2.37,7.35,7.35,0,0,1,1.16-1.14c.81-.78,1.6-1.58,2.41-2.36C28.2,111.33,28.65,111,29.09,110.57Z"/><path class="cls-4" d="M73.6,137.49c-.1-.36-.22-.72-.31-1.08a25,25,0,0,0-.92-3.06c-.29-.77-.38-1.61-.62-2.4a10.41,10.41,0,0,1-.49-2,14.6,14.6,0,0,1-.12-1.46,5.58,5.58,0,0,0-.23-1.72c-.15-.49-.2-1-.32-1.52-.08-.31-.23-.6-.32-.91s-.19-.71-.26-1.07a3.41,3.41,0,0,0-.64-1.24c-.63-1-1.45-1.87-2.17-2.81l-2-2.55c-.42-.53-.86-1-1.28-1.58a2.69,2.69,0,0,1-.27-.54c.47,0,.84-.06,1.21-.12a36.61,36.61,0,0,1,4.78-.44c.89,0,1.78.06,2.66.11.39,0,.78.12,1.17.12s.74-.1,1.11-.12a10.65,10.65,0,0,1,1.13,0,1.09,1.09,0,0,1,.43.11c1,.46,2,.93,3,1.38.42.2.87.32,1.3.51a4.39,4.39,0,0,1,.71.44c.61.44,1.21.88,1.8,1.34a13.24,13.24,0,0,1,2.34,1.8l1.2,1.44a29,29,0,0,1,3.29,4.91,11.77,11.77,0,0,1,1,2,4.13,4.13,0,0,1,.27,2.14c0,.17,0,.35,0,.51a2,2,0,0,1-.2.74c-.35.53-.74,1-1.13,1.53s-.64.82-1,1.21-.87,1-1.34,1.45a8.88,8.88,0,0,1-4.71,2.76,24.14,24.14,0,0,1-2.82.19c-.68,0-1.36,0-2,0L74,137.54A3.92,3.92,0,0,1,73.6,137.49Z"/><path class="cls-4" d="M138.55,122.15a15,15,0,0,1-3.22.87,6.94,6.94,0,0,1-1.28-.08c-.43,0-.86-.16-1.29-.21-.26,0-.52,0-.78,0a7.69,7.69,0,0,1-1.67-.17,10.62,10.62,0,0,0-2.24-.26,19.31,19.31,0,0,0-2,0c-.08-.26-.16-.48-.23-.71a25.28,25.28,0,0,0-2-4.27,26.7,26.7,0,0,0-2.64-3.87,21.2,21.2,0,0,0-2.21-2.33,19.07,19.07,0,0,0-1.62-1.38,12.35,12.35,0,0,0-1.66-.85l-.54-.25a4.59,4.59,0,0,1,.79-1.38c.86-1,1.65-2,2.51-3a19.61,19.61,0,0,1,2.92-2.84c.36-.27.64-.63,1-.92a2,2,0,0,1,.61-.39.62.62,0,0,1,.46.1c.46.25.89.56,1.36.79.86.42,1.75.78,2.62,1.19.61.28,1.21.6,1.82.89.36.17.72.33,1.09.48a15.23,15.23,0,0,1,3.86,2.43c.34.28.69.53,1,.83.52.49,1,1,1.52,1.51a2.23,2.23,0,0,1,.55,1.08,16.2,16.2,0,0,1,.35,2.85c.14,1.35.32,2.69.37,4,0,1,.2,2,.33,3,0,.32.16.62.23.93A4.17,4.17,0,0,1,138.55,122.15Z"/><path class="cls-4" d="M71.55,137.46c-.88,0-1.64,0-2.39,0-1,0-2-.09-3-.09a11,11,0,0,1-4.2-.8A16.21,16.21,0,0,1,58.73,135c-.86-.58-1.66-1.25-2.46-1.91a15.45,15.45,0,0,1-2.51-2.6c-.65-.85-1.25-1.74-1.89-2.63a1.18,1.18,0,0,0,.64-1.1c.1-.79.24-1.57.38-2.35a23.46,23.46,0,0,0,.57-3.14,4.72,4.72,0,0,1,.28-1.44,2.28,2.28,0,0,1,.65-.89c.82-.67,1.65-1.33,2.52-1.92,1.21-.83,2.46-1.61,3.71-2.38a11.53,11.53,0,0,1,1.27-.56c.22.3.43.59.65.87.61.76,1.25,1.51,1.85,2.28,1,1.33,2,2.67,3,4a4.8,4.8,0,0,1,.85,1.76c.13.51.37,1,.5,1.49a18.41,18.41,0,0,1,.41,1.93,6.31,6.31,0,0,1,0,1.23,7.89,7.89,0,0,0,.33,2.21c.17.65.34,1.3.52,1.95.28,1,.58,1.93.85,2.9.17.61.31,1.23.46,1.85C71.42,136.82,71.48,137.11,71.55,137.46Z"/><path class="cls-4" d="M26.36,101a28.58,28.58,0,0,1-2.83-2.9,18.17,18.17,0,0,0-2.36-2.28,15.45,15.45,0,0,1-3-3c-.08-.11-.21-.23-.2-.33,0-.63-.38-1.1-.56-1.64-.23-.7-.52-1.38-.79-2.06-.49-1.22-1-2.45-1.48-3.66-.36-.83-.76-1.64-1.13-2.46a1.51,1.51,0,0,1-.08-.35c.5,0,1,.06,1.43.14.73.11,1.45.26,2.17.4,1.08.21,2.15.44,3.23.62.59.1,1.2.11,1.8.19.43.06.85.17,1.28.26.25,0,.51.12.77.16l4.44.6a3,3,0,0,1,1.81,1.06c.49.55.95,1.13,1.44,1.67.29.32.4.78.83,1,.05,0,.06.14.09.2a4.9,4.9,0,0,0,.32.65c.25.41.55.79.79,1.21s.25.62.42.9c.69,1.2,1.37,2.4,2.1,3.56s1.37,2,2,3a2.09,2.09,0,0,1,.34.94c.06.7.06,1.4,0,2.11,0,.31-.21.43-.5.33a4.37,4.37,0,0,1-.93-.43,3,3,0,0,0-1.73-.43c-1,0-2.07,0-3.11,0-.7,0-1.4,0-2.09,0s-1.44.1-2.15.06a4.52,4.52,0,0,0-2,.37A3.76,3.76,0,0,1,26.36,101Z"/><path class="cls-4" d="M123.83,75.92a24.25,24.25,0,0,1,5,.28,3,3,0,0,1,.64.2,18.25,18.25,0,0,1,2.05.82,15.71,15.71,0,0,1,2.95,1.62,17,17,0,0,0,2,1.21.69.69,0,0,1,.4.5,1.56,1.56,0,0,0,.34.63,12.19,12.19,0,0,1,.8,1.22,6,6,0,0,1,.94,2.85c0,.26.07.52.1.78l.09.84s0,.08,0,.11c.32.45,0,.78-.17,1.17a5.76,5.76,0,0,0-.58,2.23,6.87,6.87,0,0,1-.53,2,1,1,0,0,0-.09.21A7.29,7.29,0,0,1,136,95.6c-.27.34-.49.71-.74,1.06-.07.1-.18.24-.27.24-.32,0-.42.19-.53.43-.26.57-.39.65-1,.51-1-.23-2.05-.47-3.07-.74a12.81,12.81,0,0,0-3.15-.25,4,4,0,0,0-1.46.16.3.3,0,0,1-.42-.26,2.75,2.75,0,0,1,1.74-.24c.78.09,1.57.19,2.36.23a2.62,2.62,0,0,0,1.93-.82,1.36,1.36,0,0,0,.24-.56,9.38,9.38,0,0,1,.31-1.47,1.08,1.08,0,0,0-.06-.55c0-.13-.14-.25-.14-.37a4.29,4.29,0,0,0-.64-1.77.5.5,0,0,0-.54-.34,4,4,0,0,0-.77.12,5.13,5.13,0,0,1-1.91.17,7,7,0,0,0-1.58,0,11.07,11.07,0,0,1-3,0,2.14,2.14,0,0,1,.09-.34c.29-.75.59-1.5.89-2.25a2.19,2.19,0,0,1,.17-.29,17.18,17.18,0,0,0,1-1.7,9.14,9.14,0,0,0,.41-1.47c.09-.36.15-.74.24-1.1a5.27,5.27,0,0,0,.14-2.4,8.17,8.17,0,0,0-.28-1.49,9.05,9.05,0,0,0-.79-2.44c-.36-.49-.74-1-1.11-1.44A3.39,3.39,0,0,1,123.83,75.92Z"/><path class="cls-4" d="M55.06,103.18a5.1,5.1,0,0,0,.09,2.87,3.11,3.11,0,0,0,.38.75.84.84,0,0,0,.45.3c.55.09,1,.35,1.56.47s1.35.19,2,.29,1.34.23,2,.32a.78.78,0,0,0,.43-.06.53.53,0,0,1,.63.07c.31.24.64.47.94.73l2.8,2.54a2.68,2.68,0,0,1-.8.13,1.81,1.81,0,0,0-1,.1,2.08,2.08,0,0,1-1.69,0c-1.16-.57-2.39-1-3.55-1.6a18.59,18.59,0,0,1-2.63-1.53,26.66,26.66,0,0,1-2.17-2c-.28-.26-.57-.5-.84-.76a7.67,7.67,0,0,0-.71-.69c-.78-.56-1.57-1.1-2.36-1.64a5.27,5.27,0,0,1-2.14-2.83,7.3,7.3,0,0,1-.57-2.86,1.4,1.4,0,0,0-.05-.5,8.37,8.37,0,0,0-1.3-2.56,15.9,15.9,0,0,1-1-1.43c-.51-.77-1-1.57-1.5-2.33s-1.1-1.53-1.68-2.27a5.86,5.86,0,0,0-1-1c-.35-.26-.81-.14-1.21-.11s-.69.2-1,.26a1.88,1.88,0,0,0-1.22.93,1.72,1.72,0,0,1-.44.49.53.53,0,0,0-.23.58,1.93,1.93,0,0,0,.55,1.09A11.35,11.35,0,0,1,39,92.68a12.83,12.83,0,0,0,1.69,2.38,8.77,8.77,0,0,1,1.75,2.59,3.58,3.58,0,0,1,.22,1.09c0,.9.07,1.81.08,2.71a4.67,4.67,0,0,0,1.09,2.75A7.84,7.84,0,0,0,45.7,106a14.55,14.55,0,0,1,2.51,2.45,12.79,12.79,0,0,0,2.17,2c1,.71,1.93,1.51,2.93,2.22a10.32,10.32,0,0,0,3.15,1.86,2.75,2.75,0,0,1,.36.15s0,.06.11.15l-3,2.22a6.58,6.58,0,0,0-1.61-3,2.59,2.59,0,0,0-.39-.42,40.42,40.42,0,0,1-3.07-2.93c-1.24-1.14-2.32-2.44-3.5-3.63-1-1-2-1.88-3-2.85-.67-.66-1.29-1.37-1.95-2.06a1.67,1.67,0,0,0,.55-1.27c.07-.71.12-1.43.16-2.14a1.19,1.19,0,0,0-.05-.5c-.18-.54-.17-1.15-.6-1.6a1.63,1.63,0,0,0-.48-1c-.42-.57-.81-1.17-1.19-1.77s-.56-1-.85-1.44c-.08-.15-.15-.35-.29-.42-.32-.17-.37-.51-.53-.77a4.5,4.5,0,0,0-.89-1.4c0-.49-.47-.75-.67-1.18a4.86,4.86,0,0,1,1.23-1.12,40.77,40.77,0,0,0,3.42-3.15c.48-.47,1-.91,1.48-1.37s.77-.73,1.13-1.11.7-.79,1.05-1.19c.12.14.25.28.36.43a1.17,1.17,0,0,1,.26.42,5.35,5.35,0,0,0,1,2c.31.44.56.92.83,1.39l-.1.1c-.26-.15-.53-.28-.78-.45a2.06,2.06,0,0,0-1.12-.35.93.93,0,0,0-.84.38c-.46.64-1,1.26-1.41,1.91a1.06,1.06,0,0,0,.13,1.27c.6.61,1.23,1.18,1.82,1.79s1.32,1.4,2,2.11,1.14,1.26,1.73,1.87a15.56,15.56,0,0,1,2.33,3.25,24.65,24.65,0,0,0,1.6,2.46c.58.81,1.21,1.59,1.87,2.35C54,102.19,54.55,102.67,55.06,103.18Z"/><path class="cls-4" d="M24.71,101.58c-.7.22-1.31.38-1.91.6a5.55,5.55,0,0,0-1.36.67A17.19,17.19,0,0,1,18,104.9c-.31.14-.6.41-.91.43s-.57-.24-.88-.34a4,4,0,0,1-.85-.5,10.8,10.8,0,0,0-1.55-1,7.12,7.12,0,0,1-1.81-.9c-.42-.34-.85-.67-1.28-1a6.3,6.3,0,0,0-1-.73,7.9,7.9,0,0,1-2.08-1.73A7.18,7.18,0,0,1,6.43,97.6c-.36-.65-.63-1.36-1-2a2.59,2.59,0,0,1,0-2c0-.13.09-.25.14-.41a1.53,1.53,0,0,1,.37,0,8.86,8.86,0,0,0,2.41.18c.26,0,.53,0,.79,0,.56,0,1.13,0,1.69,0s1.27-.14,1.91-.19a3.38,3.38,0,0,1,.9,0,4.94,4.94,0,0,0,2.13-.13c.43-.1.71.19,1,.46.42.44.79.92,1.22,1.34.69.67,1.43,1.3,2.11,2s1.56,1.59,2.34,2.39l2,2.1Z"/><path class="cls-4" d="M16.4,121.64c-.14-1-.29-1.94-.4-2.91s-.15-1.77-.22-2.66c-.08-1-.17-2.09-.22-3.14s-.05-1.93,0-2.89a3.17,3.17,0,0,1,.21-1.05,1.26,1.26,0,0,1,.65-.79,7.51,7.51,0,0,0,.72-.54c.72-.44,1.49-.8,2.16-1.3.87-.63,1.84-1.1,2.75-1.68a5,5,0,0,1,2.65-1,7.17,7.17,0,0,1,1.54,0,4.37,4.37,0,0,0,1.77-.15l.51-.11a4.4,4.4,0,0,1-.06,1.54c-.07.87-.15,1.74-.29,2.61-.08.53-.31,1-.44,1.56a4.67,4.67,0,0,1-1.6,2.09c-.51.5-1,1-1.51,1.52-.34.34-.7.68-1,1a11.18,11.18,0,0,0-1.13,1.26,21.36,21.36,0,0,1-2.4,2.45c-.41.43-.8.9-1.18,1.36l-2.29,2.78Z"/><path class="cls-4" d="M48.94,113.18c-.29,0-.54,0-.79-.07-1.78-.27-3.55-.54-5.32-.84-.94-.16-1.87-.4-2.81-.59-.54-.11-1.08-.19-1.62-.27a26.08,26.08,0,0,1-4.11-.76c-1.29-.38-2.58-.72-3.87-1.09a7.69,7.69,0,0,1-.9-.35,15.92,15.92,0,0,0,.35-1.57,8.87,8.87,0,0,0,.25-2.3,4.48,4.48,0,0,1,.09-.7c0-.44,0-.89,0-1.33s0-.86,0-1.34a10.06,10.06,0,0,1,2.08-.19c.82.08,1.66.06,2.48.08.49,0,1,0,1.47,0a2.9,2.9,0,0,1,.71.15c.33.13.65.3,1,.45a5.43,5.43,0,0,1,1.69,1.2c1.06,1.08,2.15,2.12,3.22,3.19.89.9,1.75,1.83,2.64,2.73,1.11,1.14,2.22,2.26,3.33,3.39A.63.63,0,0,1,48.94,113.18Z"/><path class="cls-4" d="M147,106l1.28.62a2.78,2.78,0,0,1,.77.72,5.5,5.5,0,0,1,1.2,2.37,7.53,7.53,0,0,1,.2,1.32,3.19,3.19,0,0,1-.59,2.24.64.64,0,0,1-.1.13,40.24,40.24,0,0,0-3.27,3.26,20.58,20.58,0,0,1-2.14,1.82c-.89.65-1.73,1.38-2.61,2-.38.29-.82.51-1.29.81-.1-.43-.18-.77-.24-1.12a25.17,25.17,0,0,1-.63-5.42c.05-.78-.22-1.52-.23-2.29,0-.58-.06-1.16-.08-1.74a1.88,1.88,0,0,0-.22-1.08c-.15-.22-.05-.39.21-.45a15.71,15.71,0,0,0,2.9-1.13c1.33-.58,2.64-1.19,4-1.78C146.38,106.2,146.67,106.11,147,106Z"/><path class="cls-4" d="M34.36,62c.21-.43.36-.76.52-1.09a8.81,8.81,0,0,1,1.57-2.15c.77-.79,1.52-1.62,2.37-2.34a9.22,9.22,0,0,1,1.71-1c.19-.11.4-.21.6-.3a2.27,2.27,0,0,1,1.11-.38,1.41,1.41,0,0,0,.59-.16,9.22,9.22,0,0,1,2.75-.84.49.49,0,0,0,.16-.05,8.94,8.94,0,0,1,3-.57c.65,0,1.31-.09,2-.12a3.09,3.09,0,0,1,2,.52,5.53,5.53,0,0,1-.33.85,7.79,7.79,0,0,1-2.3,2.48,7.53,7.53,0,0,0-2,1.82,1.5,1.5,0,0,1-.93.48c-2.07.54-4.2.81-6.31,1.21-.79.16-1.6.22-2.4.36s-1.59.31-2.38.5a7,7,0,0,0-1,.41Z"/><path class="cls-4" d="M70.48,108.55l1,.28c.73.19,1.45.43,2.19.56,1,.18,1.88.54,2.82.8a16.11,16.11,0,0,0,3.22.57,3.31,3.31,0,0,0,.62-.05,8.37,8.37,0,0,1,4.52,1c1,.49,2.11.93,3.14,1.44a26.68,26.68,0,0,1,3.9,1.93c.55.39,1.08.8,1.65,1.23a4.26,4.26,0,0,1-1.06.85,3,3,0,0,0-.52.41,20.88,20.88,0,0,0-2.36,3.38c-.06.11-.13.22-.22.36-.11-.07-.24-.11-.28-.19a15,15,0,0,0-1.89-2.46A14.76,14.76,0,0,0,85.62,117c-.7-.62-1.47-1.15-2.22-1.71-.59-.44-1.17-.9-1.78-1.3a12.29,12.29,0,0,0-1.49-.76c-.62-.28-1.25-.52-1.87-.8s-1.21-.59-1.82-.88a1.74,1.74,0,0,0-1-.14,2.26,2.26,0,0,1-1.64-.23c-.54-.34-1.11-.62-1.66-.93a5.79,5.79,0,0,1-1.46-1.29A1.47,1.47,0,0,1,70.48,108.55Z"/><path class="cls-4" d="M45.31,74.31a2.29,2.29,0,0,1-.11-.23c-.26-.63-.53-1.27-.78-1.91-.14-.37-.24-.75-.37-1.12-.2-.56-.39-1.13-.63-1.67a8.19,8.19,0,0,0-1.9-2.58,19.52,19.52,0,0,0-2.85-2c-.85-.55-1.71-1.08-2.56-1.62a1.85,1.85,0,0,1-.28-.28,1.35,1.35,0,0,1,1.1-.6c.41,0,.81-.16,1.22-.23q1.8-.35,3.6-.66c.28,0,.56,0,.84-.09s.71-.09,1.06-.16l3.55-.74a1.47,1.47,0,0,1,0,.44,6.24,6.24,0,0,0-.24,3.29c.15,1.16.27,2.33.32,3.49a13.72,13.72,0,0,1-.14,2c0,.47-.07.94-.14,1.4a2.85,2.85,0,0,1-.25.92c-.37.72-.78,1.42-1.19,2.12A1.26,1.26,0,0,1,45.31,74.31Z"/><path class="cls-4" d="M67.06,105.4l2.35.3a6,6,0,0,0,.73.06,20.78,20.78,0,0,1,4.7.7c.36.09.7.28,1.06.39a21.41,21.41,0,0,0,4.55.88,7.74,7.74,0,0,0,2.65-.5,20.84,20.84,0,0,0,3.38-1.42,10,10,0,0,1,3.27-.86,15.39,15.39,0,0,1,4.54.22c1.27.23,2.55.37,3.82.54,1.11.14,2.22.24,3.31.44a4.27,4.27,0,0,1,1.16.56.27.27,0,0,1,.11.18c0,.37,0,.74,0,1.15-.59-.05-1.09.26-1.65.08-.36-.11-.76-.08-1.1-.22a16.5,16.5,0,0,0-3.78-.89c-.33-.05-.68,0-1,0-.71-.1-1.4-.25-2.11-.36-.24,0-.49,0-.73-.06-.06,0-.12,0-.17,0a4.35,4.35,0,0,0-2.15.11,2.49,2.49,0,0,0-1.6.76,1.67,1.67,0,0,0-.16,1.84.84.84,0,0,0,.23.23c1.09.74,2.15,1.52,3.31,2.15.9.5,1.89.77,2.81,1.2l2.63,1.22a9.17,9.17,0,0,1-1.51.85,1.25,1.25,0,0,1-1.19-.35,16.87,16.87,0,0,0-1.62-1.31,19.87,19.87,0,0,0-2.16-1.21c-.93-.45-1.89-.86-2.83-1.29s-1.86-.8-2.76-1.25a9,9,0,0,0-2.18-.76,7.11,7.11,0,0,0-1.9-.06c-.53,0-1.07,0-1.61,0a9.91,9.91,0,0,1-3.18-.7,16.35,16.35,0,0,0-2.41-.61,13.7,13.7,0,0,1-2.07-.54,10.71,10.71,0,0,0-3.11-.51A1.94,1.94,0,0,1,67.06,105.4Z"/><path class="cls-4" d="M124.69,99.23a8.19,8.19,0,0,1,3.13-.87,14.81,14.81,0,0,1,4.18.69c.43.13.88.2,1.33.29a18.68,18.68,0,0,1,4.51,1.92c.57.27,1.14.56,1.71.85.95.5,1.89,1,2.84,1.5.55.28,1.12.53,1.67.82.33.16.64.36,1,.58l-6.46,3c-.3-.34-.55-.67-.85-1-.58-.56-1.18-1.1-1.79-1.63s-1-.83-1.48-1.21a20.69,20.69,0,0,0-5-2.77c-.52-.21-1-.51-1.52-.74l-2.6-1.11C125.17,99.51,125,99.39,124.69,99.23Z"/><path class="cls-4" d="M125.32,127.27c0,.43-.06.72-.1,1-.1.65-.21,1.31-.34,1.95a1,1,0,0,1-.24.49,12.28,12.28,0,0,1-1,.87c-.87.65-1.73,1.32-2.64,1.92a7.38,7.38,0,0,1-1.54.69,20,20,0,0,1-2,.62c-.49.12-1,.16-1.5.24s-.89.16-1.33.22-.64.05-1,.08a19.68,19.68,0,0,1-3.76,0c-.45,0-.91,0-1.36,0h-2.66c-.8,0-1.61,0-2.42,0a11.79,11.79,0,0,1-1.27-.24l-3.21-.5c-.5-.07-1-.09-1.5-.16a7,7,0,0,1-.72-.19,5.88,5.88,0,0,1,.63-2.65c.33-.09.55.19.81.29a29.73,29.73,0,0,0,4.4,1.43,11.65,11.65,0,0,0,4.16.15q.7-.09,1.41-.15c1.52-.14,3-.26,4.57-.41,1-.1,2-.18,3-.37a27.21,27.21,0,0,0,3.45-.87,5.93,5.93,0,0,0,2.2-1.35,11.29,11.29,0,0,1,1.31-1c.19-.14.38-.26.55-.4Z"/><path class="cls-4" d="M69.89,96.86a6.45,6.45,0,0,1,1.93.36,2.5,2.5,0,0,0,.88.16l1.9.27c.38,0,.75.08,1.12.15s.93.23,1.4.35a2.63,2.63,0,0,0,.53.15,23.78,23.78,0,0,0,3.15.13c.7,0,1.37.1,2.06.09.27,0,.55.14.83.16.86,0,1.72.1,2.58.11s1.5-.06,2.25,0a12.55,12.55,0,0,1,1.61.26,19.08,19.08,0,0,0,2.22.38c1.4.07,2.79,0,4.19.07a.87.87,0,0,1,.23,0,21.23,21.23,0,0,1,3.14.61,16.74,16.74,0,0,0,2.16.63,2.63,2.63,0,0,1-.43.3,18.68,18.68,0,0,1-3.16,1.24,2.1,2.1,0,0,1-.56.07c-1,0-2,0-3,0-.7,0-1.39-.06-2.08-.13-1.11-.12-2.21-.26-3.32-.39s-2.17-.26-3.25-.42c-.61-.1-1.22-.24-1.82-.39s-1.42-.43-2.14-.63a16.71,16.71,0,0,0-1.7-.39c-1.21-.19-2.43-.34-3.64-.5a2.89,2.89,0,0,0-1.34,0,1.33,1.33,0,0,1-1.18-.19,36.51,36.51,0,0,0-4.22-2.17,2.9,2.9,0,0,1-.34-.19Z"/><path class="cls-4" d="M135.77,98.45c.6-.1.51-.7.76-1.07a10,10,0,0,1,.57-.95,11.67,11.67,0,0,0,2.44-5c.14-.65.23-1.3.39-1.94a4.83,4.83,0,0,1,1.62-2.65c.25-.2.48-.42.75-.65a1.49,1.49,0,0,1,.57.84c.23.62.39,1.25.59,1.88a4.8,4.8,0,0,0,.24.63,10.38,10.38,0,0,1,.75,2.11,10,10,0,0,1,.41,1.63,3.64,3.64,0,0,1-.49,2.6,6,6,0,0,1-1.5,1.52c-.87.57-1.7,1.19-2.56,1.77a12.05,12.05,0,0,1-1.26.72.44.44,0,0,1-.37,0c-1-.44-1.9-.9-2.85-1.36C135.8,98.57,135.8,98.52,135.77,98.45Z"/><path class="cls-4" d="M38.85,89.87l.78-.94a.43.43,0,0,1,.68,0,8.64,8.64,0,0,1,.72.88c.82,1.17,1.66,2.34,2.46,3.54s1.56,2.4,2.28,3.64a3.54,3.54,0,0,1,.32,1.23,8.58,8.58,0,0,0,.31,2c.17.41.2.89.39,1.29a13.88,13.88,0,0,0,1.13,1.89,7.18,7.18,0,0,0,1,.93c1.06,1,2.42,1.51,3.37,2.64.63.74,1.47,1.29,2.17,2a13.71,13.71,0,0,0,3.59,2.34c.69.35,1.42.6,2.13.9a4,4,0,0,1,.47.23c-.74.42-1.43.82-2.14,1.21a.41.41,0,0,1-.31,0c-.5-.17-1-.35-1.48-.55a2.54,2.54,0,0,1-.51-.32c-.14-.09-.27-.21-.41-.3-.7-.5-1.42-1-2.1-1.51a23.91,23.91,0,0,1-4.49-4,15.65,15.65,0,0,0-2.61-2.33,6.54,6.54,0,0,1-2.13-3,3.66,3.66,0,0,1-.09-1.28,5.34,5.34,0,0,1,.1-1.91c0-.09-.09-.23-.1-.36a5.4,5.4,0,0,0-1.12-2.44C42.89,95,42.47,94.48,42,94a18.07,18.07,0,0,1-1.56-2.22,13.05,13.05,0,0,0-1.19-1.5A4.48,4.48,0,0,0,38.85,89.87Z"/><path class="cls-4" d="M72.83,94.85c-.21-.13-.44-.31-.76,0l.1.57a9.63,9.63,0,0,1-4.34-.55c.34-.22.59-.39.86-.55,1-.54,1.91-1.07,2.86-1.62a5.47,5.47,0,0,0,.74-.52,9,9,0,0,1,2.48-1.23,22.27,22.27,0,0,1,4.44-1.34c.91-.16,1.84-.19,2.75-.32a24.61,24.61,0,0,0,3.7-.79A31.13,31.13,0,0,0,89.76,87a8.47,8.47,0,0,1,1-.32.4.4,0,0,1,.54.16c.18.29.39.55.57.84s.15.43-.11.7a3.62,3.62,0,0,1-1.41.91,22.35,22.35,0,0,1-4.66,1.34c-.81.11-1.64.12-2.46.19a2.32,2.32,0,0,0-.38.06l-1.76.38a2.72,2.72,0,0,0-.37.13c-.67.29-1.34.6-2,.88s-1.2.6-1.84.82c-.88.31-1.7.78-2.56,1.17C73.81,94.49,73.33,94.65,72.83,94.85Z"/><path class="cls-4" d="M12.15,82.48c.25.47.48.88.68,1.3.45,1,.92,2,1.32,3A16.65,16.65,0,0,1,15,89.26a9.85,9.85,0,0,0,.61,1.52c.07.17.15.33.24.53a3.54,3.54,0,0,1-.33.14,13.47,13.47,0,0,1-3,.13c-.68,0-1.36.09-2,.1-1.15,0-2.3,0-3.44,0l-.88,0c0-.09,0-.17,0-.22.51-1.09,1-2.19,1.53-3.26s1-1.83,1.53-2.74a5.86,5.86,0,0,0,.26-.57,3,3,0,0,1,1.09-1.46c.28-.2.53-.44.82-.61A5.27,5.27,0,0,1,12.15,82.48Z"/><path class="cls-4" d="M95.27,133.74a21,21,0,0,1-3.53-1.48,7.5,7.5,0,0,1,.63-.7.72.72,0,0,0,.29-.63,13.37,13.37,0,0,0,0-1.79,5.46,5.46,0,0,0-.22-1.75c.14-1-.55-1.61-.91-2.37s-.81-1.45-1.23-2.2A5.94,5.94,0,0,0,91.63,121a14.23,14.23,0,0,1,1.2-1.71,2.1,2.1,0,0,1,.57-.45c.7-.44,1.42-.85,2.11-1.31a.76.76,0,0,1,.83,0l-.46.81a9.29,9.29,0,0,0-.61,2,17.13,17.13,0,0,0-.53,5c0,.55,0,1.1,0,1.64a4.55,4.55,0,0,0,.21,1.05c.29.8.61,1.58.92,2.37a1,1,0,0,1,0,.71A6.23,6.23,0,0,0,95.27,133.74Z"/><path class="cls-4" d="M55.44,100.79a2.81,2.81,0,0,1,.5.22c.46.3.9.62,1.35.92.75.52,1.17.47,1.76-.23a4.73,4.73,0,0,0,.94-2,9.46,9.46,0,0,0,.11-2.13,20.91,20.91,0,0,0-.5-3.07c-.28-1.85-.93-3.61-1.24-5.45-.08-.44-.09-.89-.14-1.33a2.36,2.36,0,0,0,0-.28c-.16-.71-.33-1.42-.5-2.17a1.23,1.23,0,0,1,.84.34,4.53,4.53,0,0,1,1.21,2,2.21,2.21,0,0,0,.18.53A7.93,7.93,0,0,1,60.66,91c.12.58.16,1.18.27,1.77s.37,1.43.46,2.17.23,1.48.39,2.21a6.07,6.07,0,0,1,0,3.08c-.22.72-.37,1.45-.55,2.18a1.58,1.58,0,0,0,.74,1.8c.13.08.31.19.35.32.1.34.37.43.63.58a12.06,12.06,0,0,1,2.41,1.67c.77.72,1.61,1.37,2.43,2A9.48,9.48,0,0,1,70,111.2l-.78,0a.56.56,0,0,1-.56-.39.3.3,0,0,0-.17-.14,8,8,0,0,1-2.28-1.82c-.67-.6-1.26-1.3-2-1.85a6.84,6.84,0,0,0-1.47-1.09,4.74,4.74,0,0,1-.6-.43,1.9,1.9,0,0,0-.62-.34,2.06,2.06,0,0,1-1.22-.67,5.81,5.81,0,0,0-1.28-.79,14.24,14.24,0,0,1-2.48-1.72c-.37-.37-.71-.77-1.06-1.16Z"/><path class="cls-4" d="M63.05,94.73a11.43,11.43,0,0,1,1.08.64A19.84,19.84,0,0,0,66.94,97c1,.54,2,1.13,3.08,1.68s1.81.93,2.71,1.41a5.66,5.66,0,0,1,.59.34,9,9,0,0,0,1.52.75,18.46,18.46,0,0,1,2.33,1.12A31.15,31.15,0,0,0,81,104l2.34,1c0,.06,0,.12-.07.12-.53.11-1,.41-1.53.47a1.67,1.67,0,0,0-.2.08,1.21,1.21,0,0,1-1.18-.25,5.41,5.41,0,0,0-1.5-.75c-.67-.29-1.35-.56-2-.83-.18-.07-.35-.15-.53-.21-1.1-.4-2.21-.77-3.3-1.19a12.34,12.34,0,0,1-1.39-.74,13.43,13.43,0,0,0-1.37-.68,16.51,16.51,0,0,1-2-1,31.18,31.18,0,0,0-4.3-2,.51.51,0,0,1-.39-.58,5.85,5.85,0,0,0-.48-2.4C63,95,63.05,94.9,63.05,94.73Z"/><path class="cls-4" d="M98,97.79,100.71,96c.34-.24.65-.51,1-.76.7-.52,1.42-1,2.09-1.55a33.68,33.68,0,0,1,2.94-1.77,4.88,4.88,0,0,1,1.33-.47c.58-.16,1.17-.27,1.74-.42s1.2-.33,1.79-.51a10.52,10.52,0,0,0,2.81-1.39,21.05,21.05,0,0,1,2-1.08c.28-.16.54-.34.82-.51l1.41-.81.32.34c-.11.14-.22.29-.34.43s-.16.11-.21.19a6.45,6.45,0,0,1-2.21,1.73c-.58.34-1.13.75-1.72,1.09s-1.29.71-1.94,1.06a2,2,0,0,0-.25.13c-1,.89-2.31,1.07-3.45,1.62-.53.25-1.08.45-1.59.74-1.83,1-3.64,2-5.45,3.1a10.72,10.72,0,0,0-1,.78.56.56,0,0,1-.29.12L98.23,98l-.2,0Z"/><path class="cls-4" d="M110,102.8c.17-.09.24-.15.32-.18,1.27-.5,2.54-1,3.83-1.5s2.38-.84,3.56-1.29a2,2,0,0,0,1.31-2,9.17,9.17,0,0,1,1.19-.38c.76-.16,1.53-.24,2.29-.39a1.32,1.32,0,0,1,1.51.64l-.91.41a6.91,6.91,0,0,0-2.23,1.39c-.53.53-1.14,1-1.67,1.53s-1.28,1.37-1.9,2.07c-.41.46-.79,1-1.17,1.43s-.55.75-.82,1.13a10.3,10.3,0,0,1-2-1,7.77,7.77,0,0,0-1.8-1C111,103.4,110.52,103.11,110,102.8Z"/><path class="cls-4" d="M104,105.64c1.55.8,2.89,1.78,4.33,2.63a7.22,7.22,0,0,1-1.71.81c-.27.12-.53.27-.8.41s-.7.42-1.07.58a14.45,14.45,0,0,0-2.06,1.18,12,12,0,0,1-1.64.83c-.4.17-.82.28-1.21.44-.15.06-.25.21-.41.36a7,7,0,0,1-1.9-.95.52.52,0,0,0-.25-.14,6.62,6.62,0,0,1-1.53-.7c-.07,0-.14-.11-.2-.1-.56.09-.9-.38-1.37-.53a6.62,6.62,0,0,1-.78-.3c-.69-.3-1.37-.59-2.05-.92a6.08,6.08,0,0,1-.73-.51c.11-.07.16-.12.21-.12l2.48.25a5.61,5.61,0,0,0,2,.09c.18,0,.39.07.59.11.55.11,1.1.2,1.65.33.88.21,1.75.5,2.64.65a19.56,19.56,0,0,0,2.42.18,1.14,1.14,0,0,0,1.18-.86,4.19,4.19,0,0,0,.27-2.37A7.4,7.4,0,0,1,104,105.64Z"/><path class="cls-4" d="M118.22,96.6a3.09,3.09,0,0,1-1-1.11c-.33-.48-.43-.51-.9-.2a2.28,2.28,0,0,1-.45.2c-.13.05-.26.07-.38.12-.62.26-1.23.56-1.85.81-1.31.53-2.63,1-4,1.56-.29.11-.59.19-1,.31a2.28,2.28,0,0,1,1-1,38,38,0,0,1,3.47-1.66,13.85,13.85,0,0,1,3-1,7.83,7.83,0,0,0,.86-.27c1-.27,2-.59,3-.77a16.12,16.12,0,0,1,2.31-.08c1.17,0,2.34,0,3.51-.12a21,21,0,0,0,2.23-.32,7.36,7.36,0,0,0,.9-.31,4.31,4.31,0,0,1,.49-.11.33.33,0,0,1,.41.21,2.44,2.44,0,0,1,.1,2c-.16.41-.28.49-.72.44-1-.12-1.91-.26-2.87-.36a1.47,1.47,0,0,0-.72.09,1.87,1.87,0,0,1-1,.16,1.38,1.38,0,0,0-.61,0,11.66,11.66,0,0,1-2.34.38,9.65,9.65,0,0,0-3.42.92Z"/><path class="cls-4" d="M99.29,103.59a1.61,1.61,0,0,1,.56-.19c.71,0,1.2-.51,1.81-.74s1-.43,1.55-.67.83-.43,1.26-.62c.64-.28,1.27-.58,1.93-.8.95-.31,1.93-.52,2.89-.82a29.56,29.56,0,0,0,5.41-2.14,1.1,1.1,0,0,0,.33-.21,2.08,2.08,0,0,1,1.09-.6c.33.42.67.84,1,1.27.17.23,0,.34-.18.41-.46.16-.94.29-1.4.47-1.46.55-2.92,1.12-4.38,1.68-.85.33-1.71.6-2.54,1-1,.46-2.06,1-3,1.51a9.57,9.57,0,0,1-2.87,1c-.1,0-.2.07-.28,0a21,21,0,0,0-3.05-.44S99.36,103.67,99.29,103.59Z"/><path class="cls-4" d="M127.79,74.61a1.5,1.5,0,0,1-.47,0,2.84,2.84,0,0,0-1.23-.1c-.73,0-1.47,0-2.2.06-.3,0-.6.07-.9.09s-.42,0-.56-.18a6.31,6.31,0,0,1-1.48-3.1,1.44,1.44,0,0,1,.28-1,15.14,15.14,0,0,0,1-1.72l.18-.27c.47.32.92.62,1.35.93.25.17.44.42.7.56a6.68,6.68,0,0,1,2,1.74A7.22,7.22,0,0,1,127.79,74.61Z"/><path class="cls-4" d="M73.29,104.09c-1.1-.1-2.19-.21-3.29-.3-.3,0-.61,0-.91-.05s-.43-.08-.65-.12a1.41,1.41,0,0,0-.22-.06c-1-.1-2.09-.21-3.14-.28a4.15,4.15,0,0,0-.88.15,4.21,4.21,0,0,1-.91-.62,1.63,1.63,0,0,1-.38-1.56c.16-.67.36-1.33.57-2.06l1.55.7c1.66.77,3.19,1.8,4.93,2.42a2.17,2.17,0,0,1,.53.31,7,7,0,0,0,2.38,1.15c.15,0,.3.12.45.18Z"/><path class="cls-4" d="M105.56,104.79l1.32-.66a9.64,9.64,0,0,0,1-.54.63.63,0,0,1,.78,0l1.45.88,2.83,1.64c.44.25.89.48,1.37.74l-.62,1.23-2.74-.53a.52.52,0,0,0-.17,0c-.75.22-1.26-.2-1.83-.6-1-.68-2-1.27-3-1.9Z"/><path class="cls-4" d="M43.51,86.45l.28-.41a7.08,7.08,0,0,1,2.12,1.43c.78.85,1.51,1.74,2.34,2.54.55.53.89,1.2,1.39,1.76s.9,1.1,1.33,1.67.9,1.28,1.35,1.92a5.7,5.7,0,0,1,.81,1.32c.27.75.63,1.47.95,2.21a2.2,2.2,0,0,1,0,.29c-.13-.06-.23-.07-.27-.13-.44-.54-.89-1.08-1.29-1.65s-.68-1.07-1-1.62-.67-1.25-1.07-1.83a8.88,8.88,0,0,0-1.56-1.9,19.3,19.3,0,0,1-1.5-1.62,15.36,15.36,0,0,0-1.66-1.76c-.69-.53-1.12-1.28-1.78-1.84Z"/><path class="cls-4" d="M57.88,95a3.41,3.41,0,0,1-.43-.33,19.09,19.09,0,0,0-2.89-2.34,2.37,2.37,0,0,1-.34-.29L53,90.79c-.33-.32-.37-.44-.17-.84a3.93,3.93,0,0,1,.52-.8c.28-.3.45-.29.78-.05s.48.36.71.54c.66.51,1.32,1,2,1.52a.89.89,0,0,1,.33.42c.28,1,.53,2.08.79,3.12A1.48,1.48,0,0,1,57.88,95Z"/><path class="cls-4" d="M54.58,94.3c.29.22.59.42.87.66a17.83,17.83,0,0,0,2.76,2.21.56.56,0,0,1,.28.45,10.59,10.59,0,0,1,0,2.51,3.47,3.47,0,0,1-.51-.25c-.4-.25-.76-.55-1.17-.77a1.38,1.38,0,0,1-.61-1,23.61,23.61,0,0,0-1.52-3.45,3.62,3.62,0,0,1-.13-.35Z"/><path class="cls-4" d="M79,101.56a7.45,7.45,0,0,1,2.22.31c1.22.33,2.45.63,3.68.92.78.18,1.57.34,2.45.52-.46.23-.85.42-1.23.63a1.92,1.92,0,0,0-.45.29.47.47,0,0,1-.62,0,10.63,10.63,0,0,0-2.2-1L80,102.06C79.69,101.91,79.34,101.73,79,101.56Z"/><path class="cls-4" d="M139.35,82c.67.45,1.31.89,1.4,1.77a7.91,7.91,0,0,0,.28.91,1,1,0,0,1-.53,1.25,4.54,4.54,0,0,1-.28-1.42,3,3,0,0,0-.48-1.82C139.6,82.46,139.48,82.22,139.35,82Z"/><path class="cls-4" d="M56,104c.91,1,2.22,1.24,3.26,2.13a3,3,0,0,1-1.19-.18c-.36-.1-.72-.23-1.08-.31C56.12,105.42,55.83,105,56,104Z"/><path class="cls-4" d="M105.43,97.09a2.5,2.5,0,0,1-2.67,1.33A13,13,0,0,1,105.43,97.09Z"/><path class="cls-4" d="M55.46,100.78a.43.43,0,0,1-.47-.34c.29,0,.33.22.45.35Z"/></svg>