<svg xmlns="http://www.w3.org/2000/svg" width="70" height="64" viewBox="0 0 70 64">
<defs>
    <style>
      .adler-about-icon {
        fill: #fff;
        fill-rule: evenodd;
      }
    </style>
  </defs>
  <path id="adler" class="adler-about-icon" d="M40.225,9.4l3.746-6.235s-3.741-1.73-4.015,2.063a1.98,1.98,0,0,1-1.948,2.09,1.728,1.728,0,1,1,.021-3.457,1.708,1.708,0,0,1,.365.037,1.377,1.377,0,0,0-2.049-1.665A2.171,2.171,0,0,0,35.1,0a1.981,1.981,0,0,0-1.245,2.235A1.377,1.377,0,0,0,31.808,3.9a1.7,1.7,0,0,1,.365-0.037,1.728,1.728,0,1,1,.021,3.457,1.979,1.979,0,0,1-1.948-2.09c-0.274-3.792-4.18-2.336-4.18-2.336L29.976,9.4H40.225ZM63.784,30.266c5.883-.7,5.82-5.389,5.82-5.389-7.384,1.241-11.51-2.769-11.51-2.769s4.625,1.92,8.317-.007a6.034,6.034,0,0,0,3.126-5.879c-8.548,2.744-11.633-.229-11.633-0.229a9.994,9.994,0,0,0,6.365-1.007c4-2.357,2.241-5.852,2.241-5.852-6.453,2.972-9.379,1.47-9.379,1.47a6.278,6.278,0,0,0,5.089-3.625,4.2,4.2,0,0,0-.937-4.912C58.04,6.785,52.874,6.1,49.366,8.085c-2.328,1.317-.209,3.743-0.209,3.743,2.264-.838,4.283,1.654,4.283,5.365,0,5.286-4.413,8.222-9.09,8.222-4.755,0-6.852-2.031-6.852-6.833,0-2.007.5-2.792,2-2.792a2.41,2.41,0,0,1,2.107,1.084,5.725,5.725,0,0,0,.9-3.047c0-2.3-1.675-2.868-3.611-2.868H29.175c0,1.268.423,2.716,1.807,3.15,0,0-.454,3.657-0.98,7.684-0.341,2.6-2.429,3.621-4.729,3.621-4.392,0-9.105-2.735-9.105-8.222,0-3.158,1.734-6.271,4.283-5.365,0.795-.881,1.487-2.567-0.028-3.63-2.646-1.857-8.977-1.351-12.1-6.132a4.2,4.2,0,0,0-.937,4.912A6.278,6.278,0,0,0,12.476,10.6s-2.927,1.5-9.379-1.47c0,0-1.763,3.495,2.241,5.852A9.994,9.994,0,0,0,11.7,15.992S8.618,18.965.07,16.221A6.034,6.034,0,0,0,3.2,22.1c3.692,1.927,8.317.007,8.317,0.007S7.387,26.118,0,24.876c0,0-.063,4.688,5.821,5.389,4.656,0.555,8.516-2.675,8.516-2.675S13.15,32.02,2.265,33.5c0,0,2.727,4.7,9.346,3.038A13.732,13.732,0,0,0,18.7,31.61S16.9,37.223,7.62,40.62c0,0,2.894,3.2,9.08.686a14.848,14.848,0,0,0,7.394-7.272A18.738,18.738,0,0,1,18.9,43.4a4.842,4.842,0,0,0,2.578-.136c4.3-1.727,7.008-4.5,7.705-8.855a4.211,4.211,0,0,1,.943,3.55c-0.429,3.255-5.953,6.91-5.953,6.91l0.752,1.1c-1.356.783-3.418,1.975-4.192,2.413-1.607-.973-3.607-2.155-4.015-2.4-1.43-.839-4.232-0.773-4.594,2.565,1.328-1.447,2.475-1.226,3.943-.5,0.248,0.122,1.488.829,2.606,1.5-0.734.416-1.247,0.708-1.331,0.758-1.43.84-2.7,3.295,0.126,5.188-0.67-1.834.072-2.721,1.415-3.649,0.124-.086.841-0.511,1.8-1.074,0.584,0.361,1.41.925,1.558,1.034,1.314,0.966,2.029,1.875,1.3,3.688,2.879-1.81,1.685-4.3.282-5.182-0.066-.041-0.714-0.486-1.113-0.729,0.539-.314,2.2-1.286,3.343-1.954l0.73,1.07,4.754-2.832a7.366,7.366,0,0,1,.033,1.788C31.137,51.1,29.2,54.247,24.853,57.1a3.477,3.477,0,0,0,3.518,2.284c2.2,0,3.653-2.416,4.483-4.508-0.973,3.736-.9,6.643,1.933,9.126,2.739-2.427,2.94-5.391,1.967-9.126,0.83,2.092,2.285,4.508,4.483,4.508A3.477,3.477,0,0,0,44.755,57.1c-4.345-2.851-6.284-5.994-6.715-9.443a7.357,7.357,0,0,1,.032-1.785L42.815,48.7l0.733-1.075c1.139,0.668,2.81,1.643,3.351,1.959-0.4.243-1.047,0.688-1.113,0.729-1.4.881-2.6,3.372,0.282,5.182-0.725-1.813-.01-2.722,1.3-3.688,0.148-.109.974-0.673,1.558-1.034,0.958,0.563,1.675.988,1.8,1.074,1.343,0.928,2.085,1.815,1.415,3.649,2.823-1.893,1.555-4.348.126-5.187-0.084-.049-0.6-0.341-1.331-0.758,1.118-.672,2.359-1.379,2.606-1.5,1.468-.722,2.615-0.944,3.943.5-0.361-3.338-3.164-3.4-4.594-2.565-0.409.24-2.408,1.422-4.015,2.4-0.776-.439-2.843-1.634-4.2-2.418l0.749-1.1s-5.461-3.664-5.942-6.91a3.945,3.945,0,0,1,.943-3.55c0.509,3.955,3.393,7.325,7.753,8.783a6.215,6.215,0,0,0,2.53.208,18.738,18.738,0,0,1-5.2-9.362,14.847,14.847,0,0,0,7.394,7.272c6.186,2.515,9.08-.686,9.08-0.686-9.28-3.4-11.084-9.01-11.084-9.01A13.732,13.732,0,0,0,58,36.537C64.615,38.2,67.343,33.5,67.343,33.5c-10.885-1.479-12.075-5.909-12.075-5.909S59.127,30.821,63.784,30.266Z"/>
</svg>
