<svg xmlns="http://www.w3.org/2000/svg" xmlns:xlink="http://www.w3.org/1999/xlink" width="15" height="15" viewBox="0 0 15 15">
  <path id="Form_1" data-name="Form 1" class="cls-1" d="M8.786,3.046L9.592,1.679S8.787,1.3,8.728,2.132a0.43,0.43,0,0,1-.419.458,0.379,0.379,0,0,1,0-.758,0.361,0.361,0,0,1,.079.008,0.3,0.3,0,0,0-.441-0.365A0.479,0.479,0,0,0,7.683.985a0.437,0.437,0,0,0-.268.49,0.3,0.3,0,0,0-.441.365,0.361,0.361,0,0,1,.079-0.008,0.379,0.379,0,0,1,0,.758,0.43,0.43,0,0,1-.419-0.458,0.612,0.612,0,0,0-.9-0.512L6.58,3.046H8.786Zm5.07,4.574a1.247,1.247,0,0,0,1.253-1.181,2.911,2.911,0,0,1-2.477-.607,2.349,2.349,0,0,0,1.79,0,1.332,1.332,0,0,0,.673-1.289c-1.84.6-2.5-.05-2.5-0.05a2.115,2.115,0,0,0,1.37-.221,0.979,0.979,0,0,0,.482-1.283,2.464,2.464,0,0,1-2.019.322,1.349,1.349,0,0,0,1.1-.795,0.932,0.932,0,0,0-.2-1.077c-0.7,1.034-1.81.885-2.565,1.319-0.5.289-.045,0.82-0.045,0.82,0.487-.184.922,0.363,0.922,1.176a1.825,1.825,0,0,1-1.956,1.8A1.278,1.278,0,0,1,8.2,5.059c0-.44.107-0.612,0.431-0.612a0.518,0.518,0,0,1,.453.238,1.271,1.271,0,0,0,.195-0.668A0.632,0.632,0,0,0,8.5,3.388H6.407a0.665,0.665,0,0,0,.389.691s-0.1.8-.211,1.684a0.916,0.916,0,0,1-1.018.794,1.834,1.834,0,0,1-1.96-1.8c0-.692.373-1.375,0.922-1.176a0.518,0.518,0,0,0-.006-0.8c-0.569-.407-1.932-0.3-2.6-1.344a0.932,0.932,0,0,0-.2,1.077,1.349,1.349,0,0,0,1.1.795A2.464,2.464,0,0,1,.795,2.987,0.979,0.979,0,0,0,1.277,4.27a2.115,2.115,0,0,0,1.37.221s-0.664.652-2.5,0.05A1.332,1.332,0,0,0,.816,5.83a2.349,2.349,0,0,0,1.79,0,2.911,2.911,0,0,1-2.477.607A1.248,1.248,0,0,0,1.382,7.62a2.656,2.656,0,0,0,1.833-.586S2.959,8,.616,8.329a1.735,1.735,0,0,0,2.011.666,2.961,2.961,0,0,0,1.526-1.08A3.69,3.69,0,0,1,1.768,9.89a1.682,1.682,0,0,0,1.954.15A3.232,3.232,0,0,0,5.314,8.446,4.136,4.136,0,0,1,4.2,10.5a1.023,1.023,0,0,0,.555-0.03A2.436,2.436,0,0,0,6.408,8.527a0.934,0.934,0,0,1,.2.778A3.266,3.266,0,0,1,5.33,10.82l0.162,0.242c-0.292.172-.736,0.433-0.9,0.529-0.346-.213-0.776-0.473-0.864-0.525a0.638,0.638,0,0,0-.989.562,0.6,0.6,0,0,1,.849-0.11c0.053,0.027.32,0.182,0.561,0.329l-0.286.166a0.639,0.639,0,0,0,.027,1.137,0.6,0.6,0,0,1,.3-0.8c0.027-.019.181-0.112,0.387-0.235,0.126,0.079.3,0.2,0.335,0.227a0.6,0.6,0,0,1,.281.809,0.639,0.639,0,0,0,.061-1.136c-0.014-.009-0.154-0.107-0.24-0.16l0.719-.428,0.157,0.235,1.023-.621a1.644,1.644,0,0,1,.007.392A2.887,2.887,0,0,1,5.477,13.5a0.751,0.751,0,0,0,.757.5A1.293,1.293,0,0,0,7.2,13.014a1.781,1.781,0,0,0,.416,2,1.813,1.813,0,0,0,.423-2A1.293,1.293,0,0,0,9,14a0.751,0.751,0,0,0,.757-0.5,2.887,2.887,0,0,1-1.445-2.07,1.642,1.642,0,0,1,.007-0.391l1.021,0.62L9.5,11.425l0.721,0.429c-0.086.053-.225,0.151-0.24,0.16a0.639,0.639,0,0,0,.061,1.136,0.6,0.6,0,0,1,.281-0.809c0.032-.024.21-0.148,0.335-0.227,0.206,0.123.36,0.217,0.387,0.235a0.6,0.6,0,0,1,.3.8,0.639,0.639,0,0,0,.027-1.137l-0.287-.166c0.241-.147.508-0.3,0.561-0.329a0.6,0.6,0,0,1,.849.11,0.639,0.639,0,0,0-.989-0.562c-0.088.053-.518,0.312-0.864,0.525-0.167-.1-0.612-0.358-0.9-0.53l0.161-.241A3.343,3.343,0,0,1,8.627,9.306a0.874,0.874,0,0,1,.2-0.778A2.379,2.379,0,0,0,10.5,10.453a1.314,1.314,0,0,0,.545.046A4.137,4.137,0,0,1,9.924,8.446a3.232,3.232,0,0,0,1.591,1.594,1.682,1.682,0,0,0,1.954-.15,3.69,3.69,0,0,1-2.385-1.975,2.961,2.961,0,0,0,1.526,1.08,1.734,1.734,0,0,0,2.011-.666c-2.343-.324-2.6-1.3-2.6-1.3A2.656,2.656,0,0,0,13.856,7.62Z"/>
</svg>
