<svg width="527" height="186" viewBox="0 0 527 186" fill="none" xmlns="http://www.w3.org/2000/svg">
<path d="M74.8624 18.16C73.3264 10.48 66.9904 0.495996 50.4784 0.495996C37.6144 0.495996 26.7664 9.712 26.7664 21.808C26.7664 32.08 33.7744 39.088 44.6224 41.296L54.1264 43.216C59.4064 44.272 62.3824 47.344 62.3824 51.28C62.3824 56.08 58.4464 59.632 51.3424 59.632C41.7424 59.632 37.0384 53.584 36.4624 46.864L24.1744 50.128C25.2304 59.824 33.1984 71.44 51.2464 71.44C67.0864 71.44 75.8224 60.88 75.8224 50.416C75.8224 40.816 69.1984 32.752 56.8144 30.352L47.3104 28.528C42.3184 27.568 39.9184 24.592 39.9184 20.848C39.9184 16.336 44.1424 12.208 50.5744 12.208C59.2144 12.208 62.2864 18.064 62.9584 21.808L74.8624 18.16ZM93.0649 41.008C93.3529 36.688 97.0009 31.696 103.625 31.696C110.921 31.696 113.993 36.304 114.185 41.008H93.0649ZM115.433 53.296C113.897 57.52 110.633 60.496 104.681 60.496C98.3449 60.496 93.0649 55.984 92.7769 49.744H126.569C126.569 49.552 126.761 47.632 126.761 45.808C126.761 30.64 118.025 21.328 103.433 21.328C91.3369 21.328 80.2009 31.12 80.2009 46.192C80.2009 62.128 91.6249 71.44 104.585 71.44C116.201 71.44 123.689 64.624 126.089 56.464L115.433 53.296ZM147.663 70V0.495996H134.895V70H147.663ZM168.725 41.008C169.013 36.688 172.661 31.696 179.285 31.696C186.581 31.696 189.653 36.304 189.845 41.008H168.725ZM191.093 53.296C189.557 57.52 186.293 60.496 180.341 60.496C174.005 60.496 168.725 55.984 168.437 49.744H202.229C202.229 49.552 202.421 47.632 202.421 45.808C202.421 30.64 193.685 21.328 179.093 21.328C166.997 21.328 155.861 31.12 155.861 46.192C155.861 62.128 167.285 71.44 180.245 71.44C191.861 71.44 199.349 64.624 201.749 56.464L191.093 53.296ZM231.771 33.136C238.107 33.136 241.083 37.168 242.235 41.104L253.659 37.264C251.643 29.296 244.347 21.328 231.483 21.328C217.755 21.328 207.003 31.792 207.003 46.384C207.003 60.88 217.947 71.44 231.867 71.44C244.443 71.44 251.835 63.376 253.947 55.504L242.715 51.76C241.659 55.408 238.395 59.728 231.867 59.728C225.339 59.728 219.771 54.928 219.771 46.384C219.771 37.84 225.243 33.136 231.771 33.136ZM277.161 8.65599H265.641V15.28C265.641 19.504 263.337 22.768 258.345 22.768H255.945V34.096H264.489V56.08C264.489 65.2 270.249 70.672 279.465 70.672C283.209 70.672 285.513 70 286.665 69.52V58.96C285.993 59.152 284.265 59.344 282.729 59.344C279.081 59.344 277.161 58 277.161 53.872V34.096H286.665V22.768H277.161V8.65599ZM333.428 88.624L363.092 22.768H349.46L337.844 50.416L325.268 22.768H310.964L331.028 64.048L319.892 88.624H333.428ZM387.873 59.824C381.633 59.824 375.873 55.216 375.873 46.384C375.873 37.456 381.633 32.944 387.873 32.944C394.113 32.944 399.873 37.456 399.873 46.384C399.873 55.312 394.113 59.824 387.873 59.824ZM387.873 21.328C373.761 21.328 363.105 31.792 363.105 46.384C363.105 60.88 373.761 71.44 387.873 71.44C401.985 71.44 412.641 60.88 412.641 46.384C412.641 31.792 401.985 21.328 387.873 21.328ZM451.524 70H463.716C463.524 68.368 463.236 65.104 463.236 61.456V22.768H450.468V50.224C450.468 55.696 447.204 59.536 441.54 59.536C435.588 59.536 432.9 55.312 432.9 50.032V22.768H420.132V52.624C420.132 62.896 426.66 71.248 438.084 71.248C443.076 71.248 448.548 69.328 451.14 64.912C451.14 66.832 451.332 69.04 451.524 70ZM503.742 22.576C502.782 22.48 501.822 22.384 500.766 22.384C496.734 22.384 490.206 23.536 487.326 29.776V22.768H474.942V70H487.71V48.4C487.71 38.224 493.374 35.056 499.902 35.056C501.054 35.056 502.302 35.152 503.742 35.44V22.576ZM24.927 130.136C31.263 130.136 34.239 134.168 35.391 138.104L46.815 134.264C44.799 126.296 37.503 118.328 24.639 118.328C10.911 118.328 0.158989 128.792 0.158989 143.384C0.158989 157.88 11.103 168.44 25.023 168.44C37.599 168.44 44.991 160.376 47.103 152.504L35.871 148.76C34.815 152.408 31.551 156.728 25.023 156.728C18.495 156.728 12.927 151.928 12.927 143.384C12.927 134.84 18.399 130.136 24.927 130.136ZM75.3195 156.824C69.0795 156.824 63.3195 152.216 63.3195 143.384C63.3195 134.456 69.0795 129.944 75.3195 129.944C81.5595 129.944 87.3195 134.456 87.3195 143.384C87.3195 152.312 81.5595 156.824 75.3195 156.824ZM75.3195 118.328C61.2075 118.328 50.5515 128.792 50.5515 143.384C50.5515 157.88 61.2075 168.44 75.3195 168.44C89.4315 168.44 100.087 157.88 100.087 143.384C100.087 128.792 89.4315 118.328 75.3195 118.328ZM151.384 119.768H137.944L126.712 151.448L115 119.768H100.984L120.28 167H133.048L151.384 119.768ZM165.138 138.008C165.426 133.688 169.074 128.696 175.698 128.696C182.994 128.696 186.066 133.304 186.258 138.008H165.138ZM187.506 150.296C185.97 154.52 182.706 157.496 176.754 157.496C170.418 157.496 165.138 152.984 164.85 146.744H198.642C198.642 146.552 198.834 144.632 198.834 142.808C198.834 127.64 190.098 118.328 175.506 118.328C163.41 118.328 152.274 128.12 152.274 143.192C152.274 159.128 163.698 168.44 176.658 168.44C188.274 168.44 195.762 161.624 198.162 153.464L187.506 150.296ZM235.768 119.576C234.808 119.48 233.848 119.384 232.792 119.384C228.76 119.384 222.232 120.536 219.352 126.776V119.768H206.968V167H219.736V145.4C219.736 135.224 225.4 132.056 231.928 132.056C233.08 132.056 234.328 132.152 235.768 132.44V119.576ZM277.115 185.24V162.392C279.419 165.56 284.219 168.152 290.747 168.152C304.091 168.152 313.019 157.592 313.019 143.288C313.019 129.272 305.051 118.712 291.227 118.712C284.123 118.712 278.843 121.88 276.731 125.528V119.768H264.347V185.24H277.115ZM300.443 143.384C300.443 151.832 295.259 156.728 288.731 156.728C282.203 156.728 276.923 151.736 276.923 143.384C276.923 135.032 282.203 130.136 288.731 130.136C295.259 130.136 300.443 135.032 300.443 143.384ZM350.008 119.576C349.048 119.48 348.088 119.384 347.032 119.384C343 119.384 336.472 120.536 333.592 126.776V119.768H321.208V167H333.976V145.4C333.976 135.224 339.64 132.056 346.168 132.056C347.32 132.056 348.568 132.152 350.008 132.44V119.576ZM365.913 138.008C366.201 133.688 369.849 128.696 376.473 128.696C383.769 128.696 386.841 133.304 387.033 138.008H365.913ZM388.281 150.296C386.745 154.52 383.481 157.496 377.529 157.496C371.193 157.496 365.913 152.984 365.625 146.744H399.417C399.417 146.552 399.609 144.632 399.609 142.808C399.609 127.64 390.873 118.328 376.281 118.328C364.185 118.328 353.049 128.12 353.049 143.192C353.049 159.128 364.473 168.44 377.433 168.44C389.049 168.44 396.537 161.624 398.937 153.464L388.281 150.296ZM403.711 153.848C404.287 159.224 409.183 168.44 423.391 168.44C435.775 168.44 441.727 160.568 441.727 152.888C441.727 145.976 437.023 140.312 427.711 138.392L420.991 136.952C418.399 136.472 416.671 135.032 416.671 132.728C416.671 130.04 419.359 128.024 422.719 128.024C428.095 128.024 430.111 131.576 430.495 134.36L441.151 131.96C440.575 126.872 436.063 118.328 422.623 118.328C412.447 118.328 404.959 125.336 404.959 133.784C404.959 140.408 409.087 145.88 418.207 147.896L424.447 149.336C428.095 150.104 429.535 151.832 429.535 153.944C429.535 156.44 427.519 158.648 423.295 158.648C417.727 158.648 414.943 155.192 414.655 151.448L403.711 153.848ZM459.198 138.008C459.486 133.688 463.134 128.696 469.758 128.696C477.054 128.696 480.126 133.304 480.318 138.008H459.198ZM481.566 150.296C480.03 154.52 476.766 157.496 470.814 157.496C464.478 157.496 459.198 152.984 458.91 146.744H492.702C492.702 146.552 492.894 144.632 492.894 142.808C492.894 127.64 484.158 118.328 469.566 118.328C457.47 118.328 446.334 128.12 446.334 143.192C446.334 159.128 457.758 168.44 470.718 168.44C482.334 168.44 489.822 161.624 492.222 153.464L481.566 150.296ZM516.773 105.656H505.253V112.28C505.253 116.504 502.949 119.768 497.957 119.768H495.557V131.096H504.101V153.08C504.101 162.2 509.861 167.672 519.077 167.672C522.821 167.672 525.125 167 526.277 166.52V155.96C525.605 156.152 523.877 156.344 522.341 156.344C518.693 156.344 516.773 155 516.773 150.872V131.096H526.277V119.768H516.773V105.656Z" fill="#1A1A1A"/>
</svg>
