<svg width="736" height="689" viewBox="0 0 736 689" fill="none" xmlns="http://www.w3.org/2000/svg">
<path fill-rule="evenodd" clip-rule="evenodd" d="M464.8 34.1L425.2 101.2V101.3H316.6L275.3 31.2C275.3 31.2 316.6 15.5 319.5 56.3C320.7 72.5 330.8 78.8 340.1 78.8C350.5 78.8 358.5 70.2 358.5 60.2C358.5 49.5 349.9 41.6 339.9 41.6C337.6 41.6 336 42 336 42C330.5 24.1 347.7 18.6 357.7 24.1C357.7 24.1 354 7.3 370.9 0C386.7 7.9 384.1 24.1 384.1 24.1C394.1 18.6 411.4 24.1 405.8 42C405.8 42 404.1 41.6 401.9 41.6C391.9 41.6 383.3 49.5 383.3 60.2C383.3 70.2 391.3 78.8 401.7 78.8C411 78.8 421.1 72.5 422.3 56.3C425.2 15.5 464.8 34.1 464.8 34.1ZM735.8 267.8C735.8 267.8 736.5 318.3 674.3 325.8C625 331.8 584.2 297 584.2 297C584.2 297 596.8 344.7 711.9 360.6C711.9 360.6 683.1 411.2 613.1 393.3C566.3 381.4 538.1 340.3 538.1 340.3C538.1 340.3 557.2 400.7 655.3 437.3C655.3 437.3 624.7 471.8 559.3 444.7C504 421.8 481.1 366.4 481.1 366.4C481.1 366.4 488.3 416.9 536.1 467.2C536.1 467.2 522 469.3 509.3 465C463.2 449.3 432.7 413 427.3 370.4C427.3 370.4 413.5 382.6 417.3 408.6C422.4 443.6 480.1 483 480.1 483L472.2 494.8C474.795 496.324 477.639 497.996 480.607 499.74C493.996 507.61 509.888 516.952 516.6 520.8C530.603 512.151 547.454 502.01 555.365 497.25C557.058 496.231 558.342 495.458 559.1 495C574.3 486 603.9 486.7 607.7 522.6C593.6 507 581.5 509.4 566 517.2C563.3 518.6 550.2 526.2 538.4 533.4C543.132 536.13 546.981 538.381 549.477 539.841C551.096 540.789 552.146 541.403 552.5 541.6C567.6 550.6 581 577 551.2 597.4C558.2 577.6 550.4 568.1 536.2 558.1C535.224 557.348 530.691 554.621 524.214 550.725C522.07 549.435 519.712 548.017 517.2 546.5C511 550.3 502.3 556.4 500.7 557.6C486.8 568 479.2 577.8 486.9 597.3C456.4 577.8 469.1 551 483.9 541.5C484.149 541.357 485.183 540.658 486.601 539.699C489.169 537.962 492.995 535.375 495.7 533.7C494.066 532.725 491.446 531.167 488.256 529.27C480.32 524.55 468.86 517.735 460.3 512.6L452.6 524.2L402.5 493.8C401.9 499 401.4 506.2 402.2 513C406.8 550.2 427.3 584 473.2 614.7C473.2 614.7 466.3 639.3 436 639.3C412.8 639.3 397.4 613.3 388.6 590.8C398.9 631 396.8 662.9 367.8 689C337.9 662.3 337.1 631 347.4 590.8C338.6 613.3 323.2 639.3 300 639.3C269.7 639.3 262.8 614.7 262.8 614.7C308.7 584 329.2 550.1 333.8 513C334.7 506.2 334.2 499 333.5 493.8L283.2 524.3L275.5 512.8C263.843 519.697 246.902 529.802 240.718 533.491L240.2 533.8C243.102 535.554 247.141 538.31 249.677 540.04C250.899 540.874 251.773 541.469 252 541.6C266.8 551.1 279.4 577.9 249 597.4C256.7 577.9 249.1 568.1 235.2 557.7C234.981 557.549 234.628 557.304 234.167 556.984C231.262 554.968 224.05 549.965 218.7 546.6C208.6 552.7 201 557.3 199.7 558.2C185.5 568.2 177.6 577.8 184.7 597.5C154.9 577.2 168.3 550.7 183.4 541.7C184.17 541.187 188.229 538.846 194.265 535.365C195.289 534.775 196.369 534.152 197.5 533.5C185.6 526.2 172.5 518.6 169.9 517.3C154.4 509.5 142.2 507.1 128.2 522.7C132.1 486.8 161.7 486.1 176.8 495.1C177.337 495.424 178.134 495.905 179.152 496.52C186.299 500.833 204.32 511.709 219.2 520.9C224.918 517.623 237.247 510.359 249.036 503.414C254.154 500.398 259.171 497.443 263.5 494.9L255.6 483C255.6 483 314 443.6 318.5 408.6C321.8 383.2 308.5 370.4 308.5 370.4C301.1 417.2 272.4 447.1 227 465.7C214.5 470.8 199.7 467.2 199.7 467.2C247.6 416.9 254.7 366.4 254.7 366.4C254.7 366.4 231.7 421.8 176.5 444.7C111.1 471.8 80.5003 437.3 80.5003 437.3C178.6 400.7 197.7 340.3 197.7 340.3C197.7 340.3 169.4 381.3 122.7 393.3C52.7003 411.2 23.9003 360.6 23.9003 360.6C139 344.7 151.5 297 151.5 297C151.5 297 110.7 331.8 61.5003 325.8C-0.699661 318.3 0.000339188 267.8 0.000339188 267.8C78.1003 281.2 121.6 237.9 121.6 237.9C121.6 237.9 72.7003 258.5 33.7003 237.8C-4.69966 217.4 0.600339 174.5 0.600339 174.5C91.0003 204 123.6 172 123.6 172C123.6 172 87.1003 179.6 56.3003 161.2C14.0003 135.8 32.6003 98.1996 32.6003 98.1996C100.9 130.2 131.8 114 131.8 114C131.8 114 97.3003 113.3 78.0003 74.9996C62.9003 44.9996 87.9003 22.0996 87.9003 22.0996C109.293 55.4853 144.932 64.9168 174.985 72.8699C191.291 77.185 205.952 81.0649 215.8 88.0996C231.8 99.5996 224.5 117.7 216.1 127.2C189.1 117.5 170.8 151 170.8 185C170.8 244.1 220.7 273.5 267.1 273.5C291.4 273.5 313.5 262.5 317.1 234.5C322.7 191.2 327.5 151.8 327.5 151.8C312.9 147.1 308.4 131.6 308.4 117.9H411.4C431.9 117.9 449.6 124 449.6 148.8C449.6 167.9 440 181.6 440 181.6C440 181.6 433.6 169.9 417.7 169.9C401.7 169.9 396.5 178.4 396.5 200C396.5 251.7 418.6 273.6 468.9 273.6C518.3 273.6 565 242 565 185.1C565 145.1 543.6 118.3 519.7 127.3C519.7 127.3 497.3 101.2 521.9 86.9996C534.625 79.6746 549.43 75.732 564.776 71.6455C594.053 63.8493 625.296 55.5296 647.8 22.1996C647.8 22.1996 672.8 45.1996 657.7 75.0996C638.4 113.4 603.9 114.1 603.9 114.1C603.9 114.1 634.9 130.3 703.1 98.2996C703.1 98.2996 721.7 135.9 679.4 161.3C648.6 179.7 612.1 172.1 612.1 172.1C612.1 172.1 644.7 204.1 735.1 174.6C735.1 174.6 740.3 217.5 702 237.9C663 258.7 614.1 238 614.1 238C614.1 238 657.7 281.2 735.8 267.8Z" fill="url(#paint0_linear)"/>
<defs>
<linearGradient id="paint0_linear" x1="368.57" y1="45.0982" x2="368.571" y2="506" gradientUnits="userSpaceOnUse">
<stop offset="0.0158805" stop-color="white"/>
<stop offset="1" stop-color="white" stop-opacity="0"/>
</linearGradient>
</defs>
</svg>
