<svg xmlns="http://www.w3.org/2000/svg" xmlns:xlink="http://www.w3.org/1999/xlink" preserveAspectRatio="xMidYMid" width="136" height="21" viewBox="0 0 136 21">
  <defs>
    <style>
      .cls-1 {
        fill: #fff;
        fill-rule: evenodd;
      }
    </style>
  </defs>
  <path d="M127.616,20.312 L125.350,20.312 L127.990,14.723 L123.436,5.305 L125.812,5.305 L129.112,12.610 L132.281,5.305 L134.503,5.305 L127.616,20.312 ZM118.860,10.586 L118.860,15.889 L116.792,15.889 L116.792,5.305 L118.816,5.305 L118.816,7.154 C119.587,5.525 120.907,5.129 121.985,5.129 C122.271,5.129 122.557,5.173 122.667,5.195 L122.667,7.396 C122.359,7.352 122.051,7.330 121.765,7.330 C120.027,7.330 118.860,8.254 118.860,10.586 ZM106.364,11.180 C106.408,13.072 107.773,14.393 109.555,14.393 C111.271,14.393 112.129,13.447 112.525,12.258 L114.308,12.874 C113.714,14.745 112.019,16.219 109.555,16.219 C106.717,16.219 104.230,14.151 104.230,10.564 C104.230,7.242 106.629,4.975 109.291,4.975 C112.547,4.975 114.374,7.220 114.374,10.520 C114.374,10.784 114.352,11.048 114.330,11.180 L106.364,11.180 ZM109.313,6.802 C107.575,6.802 106.518,8.144 106.430,9.508 L112.217,9.508 C112.173,7.990 111.183,6.802 109.313,6.802 ZM99.720,-0.041 L101.789,-0.041 L101.789,15.889 L99.720,15.889 L99.720,-0.041 ZM94.352,-0.041 L96.421,-0.041 L96.421,15.889 L94.352,15.889 L94.352,-0.041 ZM89.359,14.459 C88.897,15.207 87.841,16.219 85.949,16.219 C83.793,16.219 82.406,14.723 82.406,13.050 C82.406,11.158 83.793,10.102 85.619,9.838 L88.479,9.420 C89.117,9.332 89.293,9.002 89.293,8.628 C89.293,7.594 88.611,6.736 87.005,6.736 C85.553,6.736 84.739,7.638 84.607,8.870 L82.626,8.408 C82.846,6.384 84.673,4.975 86.961,4.975 C90.130,4.975 91.362,6.780 91.362,8.848 L91.362,14.151 C91.362,15.075 91.450,15.625 91.494,15.889 L89.469,15.889 C89.425,15.625 89.359,15.229 89.359,14.459 ZM89.293,10.872 L86.059,11.356 C85.179,11.488 84.519,11.994 84.519,12.940 C84.519,13.733 85.179,14.481 86.235,14.481 C87.929,14.481 89.293,13.667 89.293,11.356 L89.293,10.872 ZM73.410,1.939 C70.615,1.939 67.887,3.941 67.887,8.078 C67.887,12.214 70.527,14.261 73.321,14.261 C76.798,14.261 78.052,11.796 78.140,10.190 L72.727,10.190 L72.727,8.254 L80.186,8.254 L80.186,15.889 L78.448,15.889 L78.250,13.689 C77.568,14.921 75.874,16.219 73.255,16.219 C69.339,16.219 65.686,13.359 65.686,8.078 C65.686,2.797 69.559,-0.041 73.410,-0.041 C76.798,-0.041 79.416,1.851 80.319,4.667 L78.360,5.503 C77.656,3.259 75.830,1.939 73.410,1.939 ZM50.749,11.180 C50.793,13.072 52.157,14.393 53.939,14.393 C55.656,14.393 56.514,13.447 56.910,12.258 L58.692,12.874 C58.098,14.745 56.404,16.219 53.939,16.219 C51.101,16.219 48.615,14.151 48.615,10.564 C48.615,7.242 51.013,4.975 53.675,4.975 C56.932,4.975 58.758,7.220 58.758,10.520 C58.758,10.784 58.736,11.048 58.714,11.180 L50.749,11.180 ZM53.697,6.802 C51.959,6.802 50.903,8.144 50.815,9.508 L56.602,9.508 C56.558,7.990 55.568,6.802 53.697,6.802 ZM41.092,20.400 C38.451,20.400 36.471,18.727 36.207,16.461 L38.209,15.999 C38.363,17.473 39.485,18.595 41.092,18.595 C43.314,18.595 44.326,17.451 44.326,15.163 L44.326,13.645 C43.820,14.613 42.676,15.383 41.092,15.383 C38.275,15.383 36.229,13.249 36.229,10.256 C36.229,7.396 38.187,5.107 41.092,5.107 C42.720,5.107 43.820,5.723 44.348,6.780 L44.348,5.305 L46.394,5.305 L46.394,15.097 C46.394,17.781 45.074,20.400 41.092,20.400 ZM41.400,6.868 C39.573,6.868 38.341,8.210 38.341,10.256 C38.341,12.324 39.529,13.645 41.400,13.645 C43.182,13.645 44.414,12.302 44.414,10.256 C44.414,8.210 43.182,6.868 41.400,6.868 ZM31.984,14.459 C31.522,15.207 30.466,16.219 28.573,16.219 C26.417,16.219 25.031,14.723 25.031,13.050 C25.031,11.158 26.417,10.102 28.243,9.838 L31.104,9.420 C31.742,9.332 31.918,9.002 31.918,8.628 C31.918,7.594 31.236,6.736 29.630,6.736 C28.177,6.736 27.363,7.638 27.231,8.870 L25.251,8.408 C25.471,6.384 27.297,4.975 29.586,4.975 C32.754,4.975 33.986,6.780 33.986,8.848 L33.986,14.151 C33.986,15.075 34.074,15.625 34.118,15.889 L32.094,15.889 C32.050,15.625 31.984,15.229 31.984,14.459 ZM31.918,10.872 L28.683,11.356 C27.803,11.488 27.143,11.994 27.143,12.940 C27.143,13.733 27.803,14.481 28.860,14.481 C30.554,14.481 31.918,13.667 31.918,11.356 L31.918,10.872 ZM20.567,9.244 C20.567,7.858 19.885,6.824 18.323,6.824 C16.871,6.824 15.880,7.968 15.880,9.486 L15.880,15.889 L13.812,15.889 L13.812,9.244 C13.812,7.880 13.152,6.824 11.568,6.824 C10.094,6.824 9.103,7.924 9.103,9.508 L9.103,15.889 L7.057,15.889 L7.057,5.305 L9.037,5.305 L9.037,6.714 C9.698,5.547 11.018,4.997 12.250,4.997 C13.570,4.997 14.846,5.635 15.418,7.000 C16.255,5.481 17.619,4.997 18.961,4.997 C20.809,4.997 22.613,6.251 22.613,9.024 L22.613,15.889 L20.567,15.889 L20.567,9.244 ZM1.337,0.289 L3.538,0.289 L3.538,15.889 L1.337,15.889 L1.337,0.289 Z" class="cls-1"/>
</svg>
