<svg xmlns="http://www.w3.org/2000/svg" width="434" height="162" viewBox="0 0 434 162">
  <defs>
    <style>
      .cls-1 {
        fill: #fff;
        fill-rule: evenodd;
      }
    </style>
  </defs>
  <path id="asdf" class="cls-1" d="M2,100H432a2,2,0,0,1,2,2v8a2,2,0,0,1-2,2H2a2,2,0,0,1-2-2v-8A2,2,0,0,1,2,100Zm0,25H432a2,2,0,0,1,2,2v8a2,2,0,0,1-2,2H2a2,2,0,0,1-2-2v-8A2,2,0,0,1,2,125ZM2,50H432a2,2,0,0,1,2,2v8a2,2,0,0,1-2,2H2a2,2,0,0,1-2-2V52A2,2,0,0,1,2,50ZM2,75H432a2,2,0,0,1,2,2v8a2,2,0,0,1-2,2H2a2,2,0,0,1-2-2V77A2,2,0,0,1,2,75ZM2,0H432a2,2,0,0,1,2,2v8a2,2,0,0,1-2,2H2a2,2,0,0,1-2-2V2A2,2,0,0,1,2,0ZM2,25H432a2,2,0,0,1,2,2v8a2,2,0,0,1-2,2H2a2,2,0,0,1-2-2V27A2,2,0,0,1,2,25ZM2,150H432a2,2,0,0,1,2,2v8a2,2,0,0,1-2,2H2a2,2,0,0,1-2-2v-8A2,2,0,0,1,2,150Z"/>
</svg>
