<svg xmlns="http://www.w3.org/2000/svg" width="34" height="35" viewBox="0 0 34 35">
<defs>
    <style>
      .loader-bg-logo {
        fill: #ffd300;
        fill-rule: evenodd;
      }
    </style>
  </defs>
  <path id="Form_1" data-name="Form 1" class="loader-bg-logo" d="M19.632,7.7L21.46,4.583s-1.826-.865-1.96,1.031A0.978,0.978,0,0,1,18.55,6.66a0.864,0.864,0,0,1,.01-1.728,0.814,0.814,0,0,1,.178.019,0.678,0.678,0,0,0-1-.833A1.1,1.1,0,0,0,17.131,3a1,1,0,0,0-.608,1.117,0.678,0.678,0,0,0-1,.833A0.814,0.814,0,0,1,15.7,4.932a0.864,0.864,0,0,1,.01,1.728,0.978,0.978,0,0,1-.951-1.045c-0.134-1.9-2.04-1.168-2.04-1.168L14.63,7.7h5Zm11.5,10.432c2.871-.351,2.841-2.695,2.841-2.695a6.576,6.576,0,0,1-5.618-1.385,5.3,5.3,0,0,0,4.059,0,3.046,3.046,0,0,0,1.526-2.94C29.766,12.482,28.261,11,28.261,11a4.772,4.772,0,0,0,3.106-.5,2.24,2.24,0,0,0,1.094-2.926C29.312,9.053,27.883,8.3,27.883,8.3a3.057,3.057,0,0,0,2.484-1.813,2.133,2.133,0,0,0-.457-2.456c-1.583,2.359-4.1,2.018-5.816,3.009-1.136.658-.1,1.871-0.1,1.871,1.1-.419,2.09.827,2.09,2.682a4.148,4.148,0,0,1-4.437,4.111c-2.321,0-3.344-1.016-3.344-3.416,0-1,.242-1.4.977-1.4a1.173,1.173,0,0,1,1.028.542,2.91,2.91,0,0,0,.442-1.524c0-1.152-.818-1.434-1.762-1.434H14.239a1.518,1.518,0,0,0,.882,1.575S14.9,11.883,14.642,13.9a2.079,2.079,0,0,1-2.308,1.81A4.168,4.168,0,0,1,7.89,11.6c0-1.579.846-3.136,2.09-2.682A1.185,1.185,0,0,0,9.967,7.1c-1.291-.929-4.381-0.676-5.9-3.066a2.133,2.133,0,0,0-.457,2.456A3.057,3.057,0,0,0,6.089,8.3s-1.428.751-4.578-.735a2.24,2.24,0,0,0,1.094,2.926,4.772,4.772,0,0,0,3.106.5s-1.506,1.486-5.677.114A3.046,3.046,0,0,0,1.56,14.05a5.3,5.3,0,0,0,4.059,0A6.576,6.576,0,0,1,0,15.438s-0.031,2.344,2.841,2.695A6,6,0,0,0,7,16.8S6.418,19.01,1.105,19.75a3.925,3.925,0,0,0,4.561,1.519A6.721,6.721,0,0,0,9.128,18.8s-0.881,2.807-5.409,4.5c0,0,1.412,1.6,4.432.343a7.355,7.355,0,0,0,3.609-3.636A9.456,9.456,0,0,1,9.222,24.7a2.309,2.309,0,0,0,1.258-.068A5.549,5.549,0,0,0,14.241,20.2a2.137,2.137,0,0,1,.46,1.775c-0.209,1.628-2.905,3.455-2.905,3.455l0.367,0.552c-0.662.392-1.668,0.987-2.046,1.206-0.784-.487-1.76-1.078-1.96-1.2a1.448,1.448,0,0,0-2.242,1.282,1.36,1.36,0,0,1,1.924-.252c0.121,0.061.726,0.415,1.272,0.751l-0.65.379a1.461,1.461,0,0,0,.061,2.594,1.377,1.377,0,0,1,.691-1.825c0.061-.043.41-0.256,0.878-0.537,0.285,0.18.688,0.463,0.76,0.517a1.378,1.378,0,0,1,.637,1.844,1.461,1.461,0,0,0,.137-2.591c-0.032-.021-0.348-0.243-0.543-0.365,0.263-.157,1.076-0.643,1.631-0.977l0.356,0.535,2.32-1.416a3.771,3.771,0,0,1,.016.894,6.586,6.586,0,0,1-3.277,4.721,1.7,1.7,0,0,0,1.717,1.142c1.072,0,1.783-1.208,2.188-2.254-0.475,1.868-.44,3.322.944,4.563,1.337-1.214,1.435-2.7.96-4.563,0.405,1.046,1.115,2.254,2.188,2.254a1.7,1.7,0,0,0,1.717-1.142,6.586,6.586,0,0,1-3.277-4.721,3.766,3.766,0,0,1,.016-0.893L20.9,27.35l0.358-.537c0.556,0.334,1.372.822,1.635,0.979-0.2.121-.511,0.344-0.543,0.365a1.461,1.461,0,0,0,.137,2.591A1.378,1.378,0,0,1,23.12,28.9c0.072-.054.476-0.337,0.76-0.517,0.468,0.281.817,0.494,0.878,0.537a1.377,1.377,0,0,1,.691,1.825,1.461,1.461,0,0,0,.061-2.594l-0.65-.379c0.546-.336,1.151-0.69,1.272-0.751a1.36,1.36,0,0,1,1.924.252,1.448,1.448,0,0,0-2.242-1.282c-0.2.12-1.175,0.711-1.96,1.2-0.379-.22-1.388-0.817-2.05-1.209l0.365-.549s-2.665-1.832-2.9-3.455a2,2,0,0,1,.46-1.775,5.418,5.418,0,0,0,3.784,4.392,2.962,2.962,0,0,0,1.235.1,9.456,9.456,0,0,1-2.537-4.681,7.355,7.355,0,0,0,3.609,3.636c3.019,1.258,4.432-.343,4.432-0.343-4.529-1.7-5.41-4.5-5.41-4.5a6.721,6.721,0,0,0,3.462,2.464,3.925,3.925,0,0,0,4.561-1.519c-5.312-.74-5.893-2.954-5.893-2.954A6,6,0,0,0,31.13,18.133Z"/>
</svg>
