<svg width="628" height="187" viewBox="0 0 628 187" fill="none" xmlns="http://www.w3.org/2000/svg">
<path d="M76.0583 71V2.936H58.0103L38.0423 52.088L17.5943 2.936H0.122252V71H12.7943V23.672L32.3783 71H43.4183L63.0023 23.288V71H76.0583ZM101.51 71V23.768H88.7423V71H101.51ZM87.2063 8.31199C87.2063 12.536 90.7583 16.088 95.0783 16.088C99.4943 16.088 102.95 12.536 102.95 8.31199C102.95 3.89599 99.4943 0.343994 95.0783 0.343994C90.7583 0.343994 87.2063 3.89599 87.2063 8.31199ZM109.228 57.848C109.804 63.224 114.7 72.44 128.908 72.44C141.292 72.44 147.244 64.568 147.244 56.888C147.244 49.976 142.54 44.312 133.228 42.392L126.508 40.952C123.916 40.472 122.188 39.032 122.188 36.728C122.188 34.04 124.876 32.024 128.236 32.024C133.612 32.024 135.628 35.576 136.012 38.36L146.668 35.96C146.092 30.872 141.58 22.328 128.14 22.328C117.964 22.328 110.476 29.336 110.476 37.784C110.476 44.408 114.604 49.88 123.724 51.896L129.964 53.336C133.612 54.104 135.052 55.832 135.052 57.944C135.052 60.44 133.036 62.648 128.812 62.648C123.244 62.648 120.46 59.192 120.172 55.448L109.228 57.848ZM151.558 57.848C152.134 63.224 157.03 72.44 171.238 72.44C183.622 72.44 189.574 64.568 189.574 56.888C189.574 49.976 184.87 44.312 175.558 42.392L168.838 40.952C166.246 40.472 164.518 39.032 164.518 36.728C164.518 34.04 167.206 32.024 170.566 32.024C175.942 32.024 177.958 35.576 178.342 38.36L188.998 35.96C188.422 30.872 183.91 22.328 170.47 22.328C160.294 22.328 152.806 29.336 152.806 37.784C152.806 44.408 156.934 49.88 166.054 51.896L172.294 53.336C175.942 54.104 177.382 55.832 177.382 57.944C177.382 60.44 175.366 62.648 171.142 62.648C165.574 62.648 162.79 59.192 162.502 55.448L151.558 57.848ZM210.688 71V23.768H197.92V71H210.688ZM196.384 8.31199C196.384 12.536 199.936 16.088 204.256 16.088C208.672 16.088 212.128 12.536 212.128 8.31199C212.128 3.89599 208.672 0.343994 204.256 0.343994C199.936 0.343994 196.384 3.89599 196.384 8.31199ZM235.205 43.832C235.205 38.36 238.469 34.04 244.037 34.04C250.181 34.04 252.773 38.168 252.773 43.448V71H265.541V41.24C265.541 30.872 260.165 22.52 248.453 22.52C243.365 22.52 237.701 24.728 234.821 29.624V23.768H222.437V71H235.205V43.832ZM273.22 73.592C274.564 82.616 283.204 90.68 296.164 90.68C313.924 90.68 320.932 78.872 320.932 65.912V23.768H308.644V29.336C307.012 26.168 302.692 22.904 295.204 22.904C282.244 22.904 273.22 33.464 273.22 45.944C273.22 59.192 282.628 68.888 295.204 68.888C302.02 68.888 306.436 65.912 308.356 62.84V66.296C308.356 75.416 303.844 79.448 295.78 79.448C289.732 79.448 285.604 75.704 284.74 70.52L273.22 73.592ZM297.412 57.944C290.788 57.944 286.084 53.336 286.084 45.944C286.084 38.648 291.076 34.04 297.412 34.04C303.556 34.04 308.548 38.648 308.548 45.944C308.548 53.24 303.94 57.944 297.412 57.944ZM374.956 34.136C381.292 34.136 384.268 38.168 385.42 42.104L396.844 38.264C394.828 30.296 387.532 22.328 374.668 22.328C360.94 22.328 350.188 32.792 350.188 47.384C350.188 61.88 361.132 72.44 375.052 72.44C387.628 72.44 395.02 64.376 397.132 56.504L385.9 52.76C384.844 56.408 381.58 60.728 375.052 60.728C368.524 60.728 362.956 55.928 362.956 47.384C362.956 38.84 368.428 34.136 374.956 34.136ZM425.348 60.824C419.108 60.824 413.348 56.216 413.348 47.384C413.348 38.456 419.108 33.944 425.348 33.944C431.588 33.944 437.348 38.456 437.348 47.384C437.348 56.312 431.588 60.824 425.348 60.824ZM425.348 22.328C411.236 22.328 400.58 32.792 400.58 47.384C400.58 61.88 411.236 72.44 425.348 72.44C439.46 72.44 450.116 61.88 450.116 47.384C450.116 32.792 439.46 22.328 425.348 22.328ZM501.412 23.768H487.972L476.74 55.448L465.028 23.768H451.012L470.308 71H483.076L501.412 23.768ZM515.167 42.008C515.455 37.688 519.103 32.696 525.727 32.696C533.023 32.696 536.095 37.304 536.287 42.008H515.167ZM537.535 54.296C535.999 58.52 532.735 61.496 526.783 61.496C520.447 61.496 515.167 56.984 514.879 50.744H548.671C548.671 50.552 548.863 48.632 548.863 46.808C548.863 31.64 540.127 22.328 525.535 22.328C513.439 22.328 502.303 32.12 502.303 47.192C502.303 63.128 513.727 72.44 526.687 72.44C538.303 72.44 545.791 65.624 548.191 57.464L537.535 54.296ZM585.797 23.576C584.837 23.48 583.877 23.384 582.821 23.384C578.789 23.384 572.261 24.536 569.381 30.776V23.768H556.997V71H569.765V49.4C569.765 39.224 575.429 36.056 581.957 36.056C583.109 36.056 584.357 36.152 585.797 36.44V23.576ZM589.108 57.848C589.684 63.224 594.58 72.44 608.788 72.44C621.172 72.44 627.124 64.568 627.124 56.888C627.124 49.976 622.42 44.312 613.108 42.392L606.388 40.952C603.796 40.472 602.068 39.032 602.068 36.728C602.068 34.04 604.756 32.024 608.116 32.024C613.492 32.024 615.508 35.576 615.892 38.36L626.548 35.96C625.972 30.872 621.46 22.328 608.02 22.328C597.844 22.328 590.356 29.336 590.356 37.784C590.356 44.408 594.484 49.88 603.604 51.896L609.844 53.336C613.492 54.104 614.932 55.832 614.932 57.944C614.932 60.44 612.916 62.648 608.692 62.648C603.124 62.648 600.34 59.192 600.052 55.448L589.108 57.848ZM50.4495 157.824C44.2095 157.824 38.4495 153.216 38.4495 144.384C38.4495 135.456 44.2095 130.944 50.4495 130.944C56.6895 130.944 62.4495 135.456 62.4495 144.384C62.4495 153.312 56.6895 157.824 50.4495 157.824ZM50.4495 119.328C36.3375 119.328 25.6815 129.792 25.6815 144.384C25.6815 158.88 36.3375 169.44 50.4495 169.44C64.5615 169.44 75.2175 158.88 75.2175 144.384C75.2175 129.792 64.5615 119.328 50.4495 119.328ZM96.144 140.832C96.144 135.36 99.408 131.04 104.976 131.04C111.12 131.04 113.712 135.168 113.712 140.448V168H126.48V138.24C126.48 127.872 121.104 119.52 109.392 119.52C104.304 119.52 98.64 121.728 95.76 126.624V120.768H83.376V168H96.144V140.832ZM175.637 186.624L205.301 120.768H191.669L180.053 148.416L167.477 120.768H153.173L173.237 162.048L162.101 186.624H175.637ZM230.082 157.824C223.842 157.824 218.082 153.216 218.082 144.384C218.082 135.456 223.842 130.944 230.082 130.944C236.322 130.944 242.082 135.456 242.082 144.384C242.082 153.312 236.322 157.824 230.082 157.824ZM230.082 119.328C215.97 119.328 205.314 129.792 205.314 144.384C205.314 158.88 215.97 169.44 230.082 169.44C244.194 169.44 254.85 158.88 254.85 144.384C254.85 129.792 244.194 119.328 230.082 119.328ZM293.733 168H305.925C305.733 166.368 305.445 163.104 305.445 159.456V120.768H292.677V148.224C292.677 153.696 289.413 157.536 283.749 157.536C277.797 157.536 275.109 153.312 275.109 148.032V120.768H262.341V150.624C262.341 160.896 268.869 169.248 280.293 169.248C285.285 169.248 290.757 167.328 293.349 162.912C293.349 164.832 293.541 167.04 293.733 168ZM345.951 120.576C344.991 120.48 344.031 120.384 342.975 120.384C338.943 120.384 332.415 121.536 329.535 127.776V120.768H317.151V168H329.919V146.4C329.919 136.224 335.583 133.056 342.111 133.056C343.263 133.056 344.511 133.152 345.951 133.44V120.576ZM387.298 186.24V163.392C389.602 166.56 394.402 169.152 400.93 169.152C414.274 169.152 423.202 158.592 423.202 144.288C423.202 130.272 415.234 119.712 401.41 119.712C394.306 119.712 389.026 122.88 386.914 126.528V120.768H374.53V186.24H387.298ZM410.626 144.384C410.626 152.832 405.442 157.728 398.914 157.728C392.386 157.728 387.106 152.736 387.106 144.384C387.106 136.032 392.386 131.136 398.914 131.136C405.442 131.136 410.626 136.032 410.626 144.384ZM452.607 157.824C446.367 157.824 440.607 153.216 440.607 144.384C440.607 135.456 446.367 130.944 452.607 130.944C458.847 130.944 464.607 135.456 464.607 144.384C464.607 153.312 458.847 157.824 452.607 157.824ZM452.607 119.328C438.495 119.328 427.839 129.792 427.839 144.384C427.839 158.88 438.495 169.44 452.607 169.44C466.719 169.44 477.375 158.88 477.375 144.384C477.375 129.792 466.719 119.328 452.607 119.328ZM481.501 154.848C482.077 160.224 486.973 169.44 501.181 169.44C513.565 169.44 519.517 161.568 519.517 153.888C519.517 146.976 514.814 141.312 505.502 139.392L498.781 137.952C496.189 137.472 494.461 136.032 494.461 133.728C494.461 131.04 497.149 129.024 500.51 129.024C505.886 129.024 507.902 132.576 508.286 135.36L518.942 132.96C518.366 127.872 513.854 119.328 500.413 119.328C490.237 119.328 482.749 126.336 482.749 134.784C482.749 141.408 486.877 146.88 495.997 148.896L502.237 150.336C505.886 151.104 507.325 152.832 507.325 154.944C507.325 157.44 505.309 159.648 501.085 159.648C495.517 159.648 492.734 156.192 492.445 152.448L481.501 154.848ZM543.607 106.656H532.087V113.28C532.087 117.504 529.783 120.768 524.791 120.768H522.391V132.096H530.935V154.08C530.935 163.2 536.695 168.672 545.911 168.672C549.655 168.672 551.959 168 553.111 167.52V156.96C552.439 157.152 550.711 157.344 549.175 157.344C545.527 157.344 543.607 156 543.607 151.872V132.096H553.111V120.768H543.607V106.656ZM559.037 154.848C559.613 160.224 564.509 169.44 578.717 169.44C591.101 169.44 597.053 161.568 597.053 153.888C597.053 146.976 592.349 141.312 583.037 139.392L576.317 137.952C573.725 137.472 571.997 136.032 571.997 133.728C571.997 131.04 574.685 129.024 578.045 129.024C583.421 129.024 585.437 132.576 585.821 135.36L596.477 132.96C595.901 127.872 591.389 119.328 577.949 119.328C567.773 119.328 560.285 126.336 560.285 134.784C560.285 141.408 564.413 146.88 573.533 148.896L579.773 150.336C583.421 151.104 584.861 152.832 584.861 154.944C584.861 157.44 582.845 159.648 578.621 159.648C573.053 159.648 570.269 156.192 569.981 152.448L559.037 154.848Z" fill="#1A1A1A"/>
</svg>
