<svg xmlns="http://www.w3.org/2000/svg" width="89" height="89" viewBox="0 0 89 89">
  <defs>
    <style>
      .np-illustration-icon {
        fill: #dddddd;
      }
    </style>
  </defs>
  <path id="Form_4" data-name="Form 4" class="np-illustration-icon" d="M83.438,59.333H5.563a1.853,1.853,0,0,1-1.854-1.854v-44.5a1.853,1.853,0,0,1,1.854-1.854H35.229a1.854,1.854,0,0,1,0,3.708H7.417V55.625H81.583V14.833H53.771a1.854,1.854,0,0,1,0-3.708H83.438a1.853,1.853,0,0,1,1.854,1.854v44.5A1.853,1.853,0,0,1,83.438,59.333ZM53.771,18.542H35.229a1.853,1.853,0,0,1-1.854-1.854V9.271a1.853,1.853,0,0,1,1.854-1.854H53.771a1.853,1.853,0,0,1,1.854,1.854v7.417A1.853,1.853,0,0,1,53.771,18.542ZM37.083,14.833H51.917V11.125H37.083v3.708ZM83.438,66.75H5.563a5.563,5.563,0,0,1,0-11.125H83.438A5.563,5.563,0,0,1,83.438,66.75ZM5.563,59.333a1.854,1.854,0,0,0,0,3.708H83.438a1.854,1.854,0,1,0,0-3.708H5.563ZM42.646,89a1.853,1.853,0,0,1-1.854-1.854V64.9a1.854,1.854,0,0,1,3.708,0v22.25A1.853,1.853,0,0,1,42.646,89ZM14.833,89a1.854,1.854,0,0,1-1.659-2.683L24.3,64.067a1.854,1.854,0,1,1,3.317,1.658L16.492,87.975A1.855,1.855,0,0,1,14.833,89Zm59.333,0a1.856,1.856,0,0,1-1.659-1.025L61.383,65.725A1.854,1.854,0,1,1,64.7,64.067l11.125,22.25A1.854,1.854,0,0,1,74.167,89ZM42.646,11.125a1.853,1.853,0,0,1-1.854-1.854V1.854a1.854,1.854,0,1,1,3.708,0V9.271A1.853,1.853,0,0,1,42.646,11.125Z"/>
</svg>
