<svg xmlns="http://www.w3.org/2000/svg" xmlns:xlink="http://www.w3.org/1999/xlink" preserveAspectRatio="xMidYMid" width="120" height="26" viewBox="0 0 120 26">
  <path d="M118.926,7.076 L118.926,3.148 L117.310,7.076 L116.400,7.076 L114.783,3.180 L114.783,7.076 L113.737,7.076 L113.737,1.472 L115.179,1.472 L116.867,5.520 L118.514,1.472 L120.003,1.472 L120.003,7.076 L118.926,7.076 ZM111.201,7.076 L110.099,7.076 L110.099,2.508 L108.325,2.508 L108.325,1.472 L112.974,1.472 L112.974,2.508 L111.201,2.508 L111.201,7.076 ZM109.292,14.742 L99.373,14.742 C99.457,16.570 101.007,17.891 102.867,17.891 C104.613,17.891 105.572,17.020 106.023,15.783 L109.151,16.711 C108.446,19.101 106.248,21.097 102.839,21.097 C99.034,21.097 95.681,18.370 95.681,13.703 C95.681,9.287 98.950,6.420 102.500,6.420 C106.784,6.420 109.348,9.146 109.348,13.589 C109.348,14.124 109.292,14.686 109.292,14.742 ZM102.556,9.457 C100.613,9.457 99.542,10.918 99.457,12.184 L105.656,12.184 C105.600,10.806 104.698,9.457 102.556,9.457 ZM88.339,17.667 C90.255,17.667 91.213,16.402 91.522,15.333 L94.820,16.430 C94.200,18.735 92.030,21.097 88.339,21.097 C84.253,21.097 81.040,18.005 81.040,13.759 C81.040,9.484 84.196,6.420 88.227,6.420 C92.002,6.420 94.144,8.753 94.735,11.087 L91.383,12.212 C91.044,11.059 90.170,9.878 88.310,9.878 C86.394,9.878 84.788,11.256 84.788,13.759 C84.788,16.261 86.423,17.667 88.339,17.667 ZM77.360,4.591 C76.092,4.591 75.050,3.551 75.050,2.314 C75.050,1.021 76.092,-0.020 77.360,-0.020 C78.657,-0.020 79.671,1.021 79.671,2.314 C79.671,3.551 78.657,4.591 77.360,4.591 ZM69.855,0.318 L73.603,0.318 L73.603,20.676 L69.855,20.676 L69.855,0.318 ZM61.782,21.013 C59.865,21.013 58.456,20.254 57.781,19.326 L57.781,26.018 L54.033,26.018 L54.033,6.841 L57.668,6.841 L57.668,8.528 C58.288,7.460 59.838,6.532 61.922,6.532 C65.980,6.532 68.319,9.625 68.319,13.730 C68.319,17.920 65.699,21.013 61.782,21.013 ZM61.190,9.878 C59.274,9.878 57.724,11.312 57.724,13.759 C57.724,16.205 59.274,17.667 61.190,17.667 C63.106,17.667 64.627,16.233 64.627,13.759 C64.627,11.312 63.106,9.878 61.190,9.878 ZM48.843,12.465 C48.843,10.975 48.110,9.849 46.391,9.849 C44.785,9.849 43.827,11.087 43.827,12.577 L43.827,20.676 L40.106,20.676 L40.106,12.465 C40.106,10.975 39.346,9.849 37.656,9.849 C36.021,9.849 35.063,11.059 35.063,12.577 L35.063,20.676 L31.315,20.676 L31.315,6.841 L34.894,6.841 L34.894,8.528 C35.655,7.178 37.430,6.447 38.951,6.447 C40.840,6.447 42.361,7.263 43.066,8.753 C44.164,7.066 45.630,6.447 47.461,6.447 C50.025,6.447 52.477,7.993 52.477,11.706 L52.477,20.676 L48.843,20.676 L48.843,12.465 ZM20.013,14.742 C20.097,16.570 21.647,17.891 23.507,17.891 C25.254,17.891 26.213,17.020 26.664,15.783 L29.791,16.711 C29.086,19.101 26.888,21.097 23.479,21.097 C19.675,21.097 16.321,18.370 16.321,13.703 C16.321,9.287 19.590,6.420 23.140,6.420 C27.424,6.420 29.988,9.146 29.988,13.589 C29.988,14.124 29.932,14.686 29.932,14.742 L20.013,14.742 ZM23.197,9.457 C21.253,9.457 20.182,10.918 20.097,12.184 L26.296,12.184 C26.240,10.806 25.338,9.457 23.197,9.457 ZM9.577,9.063 C13.212,9.766 15.157,12.127 15.157,14.939 C15.157,18.005 12.592,21.097 7.943,21.097 C2.645,21.097 0.306,17.694 -0.004,14.855 L3.603,13.898 C3.772,15.867 5.153,17.638 7.971,17.638 C10.056,17.638 11.212,16.598 11.212,15.192 C11.212,14.039 10.337,13.139 8.788,12.830 L5.999,12.268 C2.814,11.621 0.757,9.569 0.757,6.560 C0.757,3.017 3.942,0.318 7.717,0.318 C12.564,0.318 14.424,3.242 14.875,5.491 L11.380,6.560 C11.183,5.463 10.281,3.747 7.746,3.747 C5.857,3.747 4.617,4.958 4.617,6.279 C4.617,7.375 5.322,8.247 6.787,8.528 L9.577,9.063 ZM79.248,20.676 L75.500,20.676 L75.500,6.841 L79.248,6.841 L79.248,20.676 Z"/>
</svg>