<svg xmlns="http://www.w3.org/2000/svg" width="250" height="32" viewBox="0 0 250 32">
  <defs>
    <style>
      .studio-logo-1 {
        fill: #fff;
      }

      .studio-logo-1, .studio-logo-3 {
        fill-rule: evenodd;
      }

      .studio-logo-2 {
        fill: #4d4d4d;
      }

      .studio-logo-3 {
        fill: #ffd300;
      }
    </style>
  </defs>
  <path id="Form_1" data-name="Form 1" class="studio-logo-1" d="M118.923,10.085V6.162l-1.616,3.923H116.4L114.78,6.194v3.891h-1.046v-5.6h1.442l1.688,4.043,1.647-4.043H120v5.6h-1.077Zm-7.724,0h-1.1V5.523h-1.774V4.489h4.648V5.523H111.2v4.562Zm-1.909,7.656H99.371a3.371,3.371,0,0,0,3.494,3.145,3.062,3.062,0,0,0,3.156-2.105l3.128,0.927a6.243,6.243,0,0,1-6.312,4.38A7.009,7.009,0,0,1,95.68,16.7,6.946,6.946,0,0,1,102.5,9.43c4.284,0,6.848,2.722,6.848,7.159C109.346,17.124,109.29,17.685,109.29,17.741Zm-6.736-5.278a3,3,0,0,0-3.1,2.723h6.2A2.784,2.784,0,0,0,102.554,12.463Zm-14.216,8.2a3.168,3.168,0,0,0,3.183-2.331l3.3,1.1a6.434,6.434,0,0,1-6.481,4.661,7.16,7.16,0,0,1-7.3-7.328A7.085,7.085,0,0,1,88.226,9.43a6.341,6.341,0,0,1,6.508,4.661l-3.352,1.123a3.023,3.023,0,0,0-3.073-2.331c-1.916,0-3.522,1.376-3.522,3.876A3.563,3.563,0,0,0,88.338,20.662ZM77.36,7.6A2.3,2.3,0,1,1,79.67,5.329,2.311,2.311,0,0,1,77.36,7.6Zm-7.5-4.267H73.6v20.33H69.855V3.336ZM61.782,24a4.875,4.875,0,0,1-4-1.685V29H54.034V9.85h3.635v1.685a4.854,4.854,0,0,1,4.254-1.993c4.058,0,6.4,3.089,6.4,7.188C68.319,20.914,65.7,24,61.782,24ZM61.19,12.883c-1.916,0-3.466,1.432-3.466,3.876s1.55,3.9,3.466,3.9,3.437-1.432,3.437-3.9C64.627,14.315,63.106,12.883,61.19,12.883ZM48.844,15.467a2.309,2.309,0,0,0-2.452-2.612,2.541,2.541,0,0,0-2.564,2.724v8.088H40.108v-8.2a2.322,2.322,0,0,0-2.45-2.612,2.533,2.533,0,0,0-2.593,2.724v8.088H31.317V9.85H34.9v1.685a4.768,4.768,0,0,1,4.057-2.078,4.294,4.294,0,0,1,4.115,2.3,4.82,4.82,0,0,1,4.395-2.3c2.564,0,5.016,1.544,5.016,5.252v8.958H48.844v-8.2ZM20.016,17.741a3.371,3.371,0,0,0,3.494,3.145,3.062,3.062,0,0,0,3.157-2.105l3.127,0.927a6.243,6.243,0,0,1-6.312,4.38A7.01,7.01,0,0,1,16.324,16.7,6.947,6.947,0,0,1,23.143,9.43c4.284,0,6.848,2.722,6.848,7.159,0,0.534-.056,1.1-0.056,1.151H20.016ZM23.2,12.463a3,3,0,0,0-3.1,2.723h6.2A2.783,2.783,0,0,0,23.2,12.463ZM9.58,12.069c3.635,0.7,5.58,3.06,5.58,5.868,0,3.062-2.565,6.15-7.214,6.15-5.3,0-7.637-3.4-7.947-6.233L3.607,16.9a4,4,0,0,0,4.368,3.735c2.085,0,3.241-1.039,3.241-2.443,0-1.151-.875-2.05-2.424-2.359L6,15.27c-3.185-.646-5.242-2.7-5.242-5.7,0-3.538,3.185-6.234,6.96-6.234,4.847,0,6.707,2.92,7.158,5.166L11.383,9.57A3.408,3.408,0,0,0,7.75,6.761c-1.889,0-3.129,1.209-3.129,2.529a2.3,2.3,0,0,0,2.17,2.246Zm69.667,11.6H75.5V9.85h3.748V23.667Z"/>
  <rect id="Rechteck_1" data-name="Rechteck 1" class="studio-logo-2" x="133" width="1" height="32"/>
  <path id="Studio_Edition" data-name="Studio Edition" class="studio-logo-3" d="M145.833,23.056l0.44,0.06a0.467,0.467,0,0,1,.461-0.38,23.812,23.812,0,0,0,3.66.68,4.151,4.151,0,0,0,4.281-4.041c0-4.4-6.361-3.981-6.361-7.482a2.585,2.585,0,0,1,2.66-2.6,3.573,3.573,0,0,1,3.481,3.581l0.38,0.04,0.5-3.641-0.5-.04a0.486,0.486,0,0,1-.48.32,18.343,18.343,0,0,0-3.441-.66,3.753,3.753,0,0,0-4,3.6c0,4.241,6.241,3.641,6.241,7.6a2.756,2.756,0,0,1-2.821,2.921c-2.14,0-3.34-1.68-3.62-3.661l-0.381-.02Zm10.04-7.662h1.4c0.12,0,.2,0,0.2.08,0,0.04-.06.24-0.1,0.44l-0.76,3.341a13.286,13.286,0,0,0-.441,2.721,1.151,1.151,0,0,0,1.081,1.4,5.821,5.821,0,0,0,2.72-1.2l-0.16-.28a6.514,6.514,0,0,1-1.9.84c-0.3,0-.46-0.28-0.46-0.72a37.763,37.763,0,0,1,.76-4.141l0.5-2.181c0.08-.34.1-0.38,0.38-0.38l1.76-.06v-0.6l-1.7.1a0.147,0.147,0,0,1-.16-0.2l0.7-3.041h-1.3l-0.78,3.321-1.741.08v0.48Zm4.64,0.7a6.921,6.921,0,0,1,1.481-.76,0.21,0.21,0,0,1,.22.22,3.02,3.02,0,0,1-.1.56l-0.941,4.2a4.54,4.54,0,0,0-.14,1.18c0,1.5.761,1.8,1.341,1.8,1.28,0,2.92-1.28,3.12-1.28a0.919,0.919,0,0,1-.04.5,0.678,0.678,0,0,0,.681.78c0.74,0,2.06-1.02,2.68-1.52l-0.18-.26a6.875,6.875,0,0,1-1.72,1.06c-0.1,0-.14-0.1-0.14-0.22a2.37,2.37,0,0,1,.08-0.52l1.72-7.181h-1.3l-1.6,6.7a0.389,0.389,0,0,1-.28.36,5.617,5.617,0,0,1-2.12.7,0.9,0.9,0,0,1-.96-1.08,4.406,4.406,0,0,1,.16-1.02l0.88-4a4.677,4.677,0,0,0,.18-0.98,0.7,0.7,0,0,0-.72-0.8,5.566,5.566,0,0,0-2.461,1.3Zm16.842,5.641a6.558,6.558,0,0,1-1.5.9,0.174,0.174,0,0,1-.18-0.2,3.748,3.748,0,0,1,.1-0.62l2.781-13.163-3,.5,0.06,0.38c0.12-.02.961-0.1,1.061-0.1a0.185,0.185,0,0,1,.22.2,4.371,4.371,0,0,1-.1.62l-0.921,4.581a3.791,3.791,0,0,0-1.68-.42c-2.721,0-4.841,2.741-4.841,5.5,0,1.96,1.06,3.381,2.561,3.381,1.22,0,2.3-1.08,2.48-1.08a1.21,1.21,0,0,1,0,.38,0.626,0.626,0,0,0,.62.78A6.116,6.116,0,0,0,177.535,22Zm-2.861-.04a3.128,3.128,0,0,1-1.76.72c-1.08,0-1.941-.92-1.941-2.44,0-2,1.421-5.081,3.741-5.081,0.58,0,1.14.14,1.14,0.74a3.2,3.2,0,0,1-.1.7Zm3.879-5.821a4.186,4.186,0,0,1,1.4-.78,0.192,0.192,0,0,1,.18.22,9.275,9.275,0,0,1-.26,1.24l-1.28,5.321a3.5,3.5,0,0,0-.12.68,0.648,0.648,0,0,0,.68.74c0.5,0,1.12-.34,2.38-1.24l-0.16-.26a3.85,3.85,0,0,1-1.4.78,0.2,0.2,0,0,1-.18-0.24,4.485,4.485,0,0,1,.1-0.52l1.4-5.761a4.792,4.792,0,0,0,.16-0.96,0.679,0.679,0,0,0-.7-0.68,5.154,5.154,0,0,0-2.36,1.2Zm1.72-3.381c0,0.14.02,0.2,0.16,0.2a1.594,1.594,0,0,0,1.6-1.2,0.741,0.741,0,0,0-.7-0.72C180.373,10.773,180.093,11.833,180.093,12.493Zm2.02,7.082c0,1.48.7,3.8,3.3,3.8,2.261,0,4.261-2.16,4.261-5.081,0-2-1-3.881-3.2-3.881C183.713,14.414,182.113,17.214,182.113,19.575Zm1.36,0.62c0-2.32,1.32-5.421,3.081-5.421,1.12,0,1.76,1.28,1.76,2.841,0,1.54-.74,5.4-3.021,5.4C183.933,23.016,183.473,21.5,183.473,20.2Zm12.74-10.562c-0.24,2.34-1.3,10.7-1.66,13.023l-1.221.08V23.1c0.78-.02,1.8-0.04,2.581-0.04h7.621l0.7-3.6h-0.581a28.412,28.412,0,0,1-1.34,2.981,2.818,2.818,0,0,1-1.4.22h-2.9c-1.6,0-1.72-.2-1.72-0.82,0-.46.48-4.381,0.7-5.781h2.321c0.64,0,.78.14,0.78,0.6,0,0.34-.12,1.72-0.12,1.78h0.6c0.22-1.76.48-3.521,0.76-5.281h-0.62a13.733,13.733,0,0,1-.52,2.08c-0.16.26-.36,0.42-1.861,0.42h-1.3c0.22-1.7.56-4.5,0.82-6.041h2.581c2.88,0,3.28.32,3.22,1.48l-0.06,1.38h0.581l0.48-3.261c-1.381.04-5.241,0.04-6.862,0.04-1.46,0-2.26-.02-3.06-0.04v0.36Zm16.941,12.1a6.56,6.56,0,0,1-1.5.9,0.174,0.174,0,0,1-.18-0.2,3.748,3.748,0,0,1,.1-0.62l2.78-13.163-3,.5,0.061,0.38c0.12-.02.96-0.1,1.06-0.1a0.185,0.185,0,0,1,.22.2,4.371,4.371,0,0,1-.1.62l-0.92,4.581a3.8,3.8,0,0,0-1.681-.42c-2.72,0-4.841,2.741-4.841,5.5,0,1.96,1.06,3.381,2.561,3.381,1.22,0,2.3-1.08,2.48-1.08a1.21,1.21,0,0,1,0,.38,0.626,0.626,0,0,0,.62.78A6.11,6.11,0,0,0,213.334,22Zm-2.861-.04a3.128,3.128,0,0,1-1.76.72c-1.08,0-1.941-.92-1.941-2.44,0-2,1.421-5.081,3.741-5.081,0.58,0,1.141.14,1.141,0.74a3.168,3.168,0,0,1-.1.7Zm3.879-5.821a4.186,4.186,0,0,1,1.4-.78,0.192,0.192,0,0,1,.18.22,9.275,9.275,0,0,1-.26,1.24l-1.28,5.321a3.5,3.5,0,0,0-.12.68,0.648,0.648,0,0,0,.68.74c0.5,0,1.12-.34,2.381-1.24l-0.16-.26a3.857,3.857,0,0,1-1.4.78,0.2,0.2,0,0,1-.18-0.24,4.485,4.485,0,0,1,.1-0.52l1.4-5.761a4.792,4.792,0,0,0,.16-0.96,0.68,0.68,0,0,0-.7-0.68,5.154,5.154,0,0,0-2.36,1.2Zm1.72-3.381c0,0.14.02,0.2,0.16,0.2a1.594,1.594,0,0,0,1.6-1.2,0.74,0.74,0,0,0-.7-0.72C216.172,10.773,215.892,11.833,215.892,12.493Zm2.04,2.9h1.4c0.12,0,.2,0,0.2.08,0,0.04-.06.24-0.1,0.44l-0.76,3.341a13.283,13.283,0,0,0-.44,2.721,1.15,1.15,0,0,0,1.08,1.4,5.828,5.828,0,0,0,2.721-1.2l-0.16-.28a6.519,6.519,0,0,1-1.9.84c-0.3,0-.46-0.28-0.46-0.72a37.763,37.763,0,0,1,.76-4.141l0.5-2.181c0.08-.34.1-0.38,0.38-0.38l1.761-.06v-0.6l-1.7.1a0.147,0.147,0,0,1-.16-0.2l0.7-3.041h-1.3l-0.78,3.321-1.74.08v0.48Zm4.94,0.48a4.186,4.186,0,0,1,1.4-.78,0.192,0.192,0,0,1,.18.22,9.275,9.275,0,0,1-.26,1.24l-1.28,5.321a3.5,3.5,0,0,0-.12.68,0.648,0.648,0,0,0,.68.74c0.5,0,1.12-.34,2.38-1.24l-0.16-.26a3.85,3.85,0,0,1-1.4.78,0.2,0.2,0,0,1-.18-0.24,4.485,4.485,0,0,1,.1-0.52l1.4-5.761a4.792,4.792,0,0,0,.16-0.96,0.679,0.679,0,0,0-.7-0.68,5.154,5.154,0,0,0-2.36,1.2Zm1.72-3.381c0,0.14.02,0.2,0.16,0.2a1.594,1.594,0,0,0,1.6-1.2,0.741,0.741,0,0,0-.7-0.72C224.872,10.773,224.592,11.833,224.592,12.493Zm2.02,7.082c0,1.48.7,3.8,3.3,3.8,2.261,0,4.261-2.16,4.261-5.081,0-2-1-3.881-3.2-3.881C228.212,14.414,226.612,17.214,226.612,19.575Zm1.36,0.62c0-2.32,1.32-5.421,3.081-5.421,1.12,0,1.76,1.28,1.76,2.841,0,1.54-.74,5.4-3.021,5.4C228.432,23.016,227.972,21.5,227.972,20.2Zm7.08-4.361a3.364,3.364,0,0,1,1.38-.7c0.22,0,.28.1,0.28,0.34a5.4,5.4,0,0,1-.14,1.08l-1.38,6.5h1.3l1.06-5.081c0.24-1.14.34-1.36,0.74-1.64a5.418,5.418,0,0,1,2.5-.96,0.642,0.642,0,0,1,.76.56,4.1,4.1,0,0,1-.18.96l-1.02,4.281a8.917,8.917,0,0,0-.24,1.2,0.747,0.747,0,0,0,.78.8c0.9,0,2.3-1.24,2.42-1.34l-0.2-.24a5.915,5.915,0,0,1-1.58.98,0.142,0.142,0,0,1-.14-0.16,6.2,6.2,0,0,1,.14-0.76l1.14-4.741a5.227,5.227,0,0,0,.16-1.22,1.18,1.18,0,0,0-1.18-1.28c-1.12,0-2.981,1.36-3.441,1.68a1.165,1.165,0,0,1-.32.2c-0.02,0-.02-0.02-0.02-0.04,0-.2.04-0.5,0.04-0.68,0-.72-0.2-1.16-0.84-1.16-0.46,0-.92.2-2.2,1.18Z"/>
</svg>
