<svg xmlns="http://www.w3.org/2000/svg" xmlns:xlink="http://www.w3.org/1999/xlink" preserveAspectRatio="xMidYMid" width="500" height="118" viewBox="0 0 200 47">
	<path d="M199.848,26.649 L181.714,26.649 C181.868,29.954 184.701,32.342 188.103,32.342 C191.295,32.342 193.049,30.767 193.873,28.530 L199.591,30.209 C198.303,34.529 194.284,38.137 188.051,38.137 C181.096,38.137 174.965,33.207 174.965,24.770 C174.965,16.788 180.941,11.605 187.432,11.605 C195.263,11.605 199.951,16.534 199.951,24.565 C199.951,25.532 199.848,26.548 199.848,26.649 ZM187.535,17.095 C183.982,17.095 182.023,19.737 181.868,22.024 L193.202,22.024 C193.099,19.535 191.450,17.095 187.535,17.095 ZM161.542,31.937 C165.045,31.937 166.796,29.650 167.362,27.717 L173.390,29.700 C172.257,33.867 168.289,38.137 161.542,38.137 C154.071,38.137 148.198,32.547 148.198,24.871 C148.198,17.144 153.968,11.605 161.336,11.605 C168.239,11.605 172.155,15.822 173.235,20.042 L167.106,22.076 C166.487,19.992 164.889,17.856 161.489,17.856 C157.987,17.856 155.050,20.348 155.050,24.871 C155.050,29.395 158.039,31.937 161.542,31.937 ZM141.470,8.300 C139.152,8.300 137.246,6.418 137.246,4.183 C137.246,1.845 139.152,-0.036 141.470,-0.036 C143.840,-0.036 145.694,1.845 145.694,4.183 C145.694,6.418 143.840,8.300 141.470,8.300 ZM127.749,0.574 L134.601,0.574 L134.601,37.375 L127.749,37.375 L127.749,0.574 ZM112.990,37.986 C109.485,37.986 106.909,36.613 105.674,34.935 L105.674,47.033 L98.822,47.033 L98.822,12.366 L105.469,12.366 L105.469,15.416 C106.601,13.486 109.435,11.807 113.246,11.807 C120.664,11.807 124.941,17.399 124.941,24.820 C124.941,32.394 120.150,37.986 112.990,37.986 ZM111.908,17.856 C108.405,17.856 105.571,20.449 105.571,24.871 C105.571,29.294 108.405,31.937 111.908,31.937 C115.410,31.937 118.191,29.344 118.191,24.871 C118.191,20.449 115.410,17.856 111.908,17.856 ZM89.333,22.533 C89.333,19.839 87.993,17.805 84.851,17.805 C81.915,17.805 80.163,20.042 80.163,22.736 L80.163,37.375 L73.362,37.375 L73.362,22.533 C73.362,19.839 71.971,17.805 68.882,17.805 C65.893,17.805 64.142,19.992 64.142,22.736 L64.142,37.375 L57.289,37.375 L57.289,12.366 L63.831,12.366 L63.831,15.416 C65.224,12.976 68.469,11.654 71.250,11.654 C74.702,11.654 77.483,13.129 78.773,15.822 C80.780,12.773 83.461,11.654 86.808,11.654 C91.496,11.654 95.978,14.450 95.978,21.161 L95.978,37.375 L89.333,37.375 L89.333,22.533 ZM36.626,26.649 C36.779,29.954 39.613,32.342 43.015,32.342 C46.207,32.342 47.961,30.767 48.785,28.530 L54.502,30.209 C53.214,34.529 49.196,38.137 42.962,38.137 C36.008,38.137 29.877,33.207 29.877,24.770 C29.877,16.788 35.852,11.605 42.343,11.605 C50.175,11.605 54.863,16.534 54.863,24.565 C54.863,25.532 54.760,26.548 54.760,26.649 L36.626,26.649 ZM42.446,17.095 C38.893,17.095 36.935,19.737 36.779,22.024 L48.113,22.024 C48.011,19.535 46.362,17.095 42.446,17.095 ZM17.546,16.383 C24.193,17.653 27.748,21.922 27.748,27.005 C27.748,32.547 23.058,38.137 14.560,38.137 C4.874,38.137 0.597,31.986 0.031,26.854 L6.625,25.124 C6.934,28.683 9.459,31.885 14.610,31.885 C18.423,31.885 20.535,30.004 20.535,27.463 C20.535,25.379 18.937,23.752 16.103,23.193 L11.005,22.177 C5.182,21.008 1.422,17.297 1.422,11.859 C1.422,5.454 7.244,0.574 14.146,0.574 C23.008,0.574 26.408,5.860 27.232,9.926 L20.843,11.859 C20.483,9.876 18.834,6.774 14.199,6.774 C10.747,6.774 8.479,8.962 8.479,11.350 C8.479,13.333 9.767,14.907 12.445,15.416 L17.546,16.383 ZM144.922,37.375 L138.070,37.375 L138.070,12.366 L144.922,12.366 L144.922,37.375 Z" class="semplice-logo-path"/>
</svg>